<svg width="14" height="20" viewBox="0 0 14 20" fill="none" xmlns="http://www.w3.org/2000/svg">
<path d="M3.32307 8.96484C2.87592 8.96484 2.51367 9.32709 2.51367 9.77424C2.51367 10.2214 2.87592 10.5836 3.32307 10.5836C3.77023 10.5836 4.13274 10.2214 4.13274 9.77424C4.13274 9.32709 3.77023 8.96484 3.32307 8.96484Z" fill="black"/>
<path d="M6.77841 8.96484C6.33126 8.96484 5.96875 9.32709 5.96875 9.77424C5.96875 10.2214 6.33126 10.5836 6.77841 10.5836C7.2253 10.5836 7.58807 10.2214 7.58807 9.77424C7.58811 9.32709 7.2253 8.96484 6.77841 8.96484Z" fill="black"/>
<path d="M10.2345 8.96484C9.78731 8.96484 9.4248 9.32709 9.4248 9.77424C9.4248 10.2214 9.78731 10.5836 10.2345 10.5836C10.6816 10.5836 11.0441 10.2214 11.0441 9.77424C11.0441 9.32709 10.6816 8.96484 10.2345 8.96484Z" fill="black"/>
<path d="M12.0792 5.10938H1.47772C0.663242 5.10938 0 5.77231 0 6.58683V17.9372C0 18.752 0.663242 19.415 1.47772 19.415H12.0792C12.894 19.415 13.5567 18.752 13.5567 17.9372V6.58683C13.5567 5.77231 12.894 5.10938 12.0792 5.10938ZM3.17877 18.4825L3.32281 15.2379L3.46684 18.4825H3.17877ZM6.63405 18.4825L6.77861 15.2379L6.92264 18.4825H6.63405ZM10.0899 18.4825L10.2342 15.2379L10.3784 18.4825H10.0899ZM12.6242 17.9372C12.6242 18.238 12.3797 18.4825 12.0793 18.4825H11.1228L11.1492 14.6943C11.2088 14.7816 11.3067 14.8404 11.4201 14.8351C11.5939 14.8267 11.728 14.6792 11.7196 14.5053L11.854 11.8108C11.854 10.751 10.7802 10.6988 10.2342 10.6988C9.68809 10.6988 8.61429 10.751 8.61429 11.8108L8.70455 14.5053C8.69651 14.6792 8.8303 14.8267 9.00418 14.8351C9.15614 14.8423 9.28231 14.738 9.31861 14.5964L9.34534 18.4825H7.66742L7.69348 14.6942C7.75313 14.7815 7.85109 14.8404 7.96448 14.835C8.13805 14.8267 8.27241 14.6792 8.26437 14.5053L8.39817 11.8108C8.39817 10.7509 7.32437 10.6988 6.77857 10.6988C6.23225 10.6988 5.15841 10.7509 5.15841 11.8108L5.24871 14.5053C5.24063 14.6792 5.3745 14.8267 5.54861 14.835C5.70056 14.8423 5.827 14.7378 5.86288 14.5956L5.88946 18.4824H4.21185L4.23775 14.6942C4.2974 14.7815 4.39536 14.8404 4.5089 14.835C4.68278 14.8267 4.81661 14.6791 4.80853 14.5053L4.94263 11.8107C4.94263 10.7509 3.86909 10.6987 3.32277 10.6987C2.77698 10.6987 1.70318 10.7509 1.70318 11.8107L1.79321 14.5053C1.78486 14.6791 1.91923 14.8267 2.09284 14.835C2.24537 14.8422 2.3715 14.7377 2.40738 14.5956L2.434 18.4824H1.47772C1.17699 18.4824 0.932498 18.2379 0.932498 17.9371V6.58683C0.932498 6.2864 1.17703 6.04183 1.47772 6.04183H12.0792C12.3797 6.04183 12.6242 6.2864 12.6242 6.58683V17.9372H12.6242Z" fill="black"/>
<path d="M7.83705 2.6827L8.94472 1.57499V4.06557C8.94472 4.29266 9.1291 4.47674 9.35615 4.47674C9.58346 4.47674 9.76784 4.29266 9.76784 4.06557V1.57499L10.8755 2.6827C10.9561 2.76306 11.0612 2.80337 11.1663 2.80337C11.2716 2.80337 11.3772 2.76306 11.4573 2.6827C11.6183 2.52202 11.6183 2.26164 11.4573 2.10118L9.64721 0.290796L9.35619 0L9.06543 0.290796L7.25531 2.10118C7.09459 2.2616 7.09459 2.52202 7.25531 2.6827C7.41595 2.84338 7.67663 2.84338 7.83705 2.6827Z" fill="black"/>
<path d="M3.90921 4.35586C3.90921 4.35613 3.90921 4.35613 3.90921 4.35613L4.2 4.64688L4.49103 4.35613C4.49103 4.35613 4.49129 4.35613 4.49129 4.35586L6.30088 2.5457C6.46186 2.38502 6.46186 2.12438 6.30088 1.96392C6.14073 1.80324 5.88004 1.80324 5.71936 1.96392L4.61166 3.07189V0.581352C4.61166 0.354002 4.42728 0.169922 4.19997 0.169922C3.97318 0.169922 3.7888 0.354002 3.7888 0.581352V3.07189L2.68087 1.96392C2.52046 1.80324 2.25977 1.80324 2.09905 1.96392C1.93834 2.12434 1.93834 2.38502 2.09905 2.5457L3.90921 4.35586Z" fill="black"/>
</svg>
