<svg width="10" height="22" viewBox="0 0 10 22" fill="none" xmlns="http://www.w3.org/2000/svg">
<path d="M4.37162 0.0238841C3.97047 0.0972869 3.64613 0.271405 3.36959 0.563309C2.69702 1.27344 2.72945 2.40179 3.44299 3.07266C3.89194 3.49771 4.52526 3.65476 5.13638 3.496C5.32244 3.44821 5.61605 3.29628 5.77993 3.16484C6.33642 2.7193 6.57199 1.97503 6.37398 1.2888C6.21181 0.727185 5.79017 0.285061 5.24563 0.0989937C4.96567 0.00339942 4.63792 -0.023913 4.37162 0.0238841Z" fill="currentColor"/>
<path d="M2.09748 3.94249C1.80557 3.96298 1.54952 4.03467 1.27468 4.17124C0.557726 4.52972 0.0882904 5.2296 0.0148877 6.04728C0.00123139 6.19067 -0.00218269 7.12783 0.00123139 9.07898L0.00635251 11.9041L0.0439074 12.0151C0.113896 12.2199 0.252166 12.3787 0.434819 12.4623C0.504808 12.4965 0.547484 12.5016 0.706239 12.5016C0.87865 12.5016 0.902548 12.4982 0.996435 12.4521C1.18933 12.3565 1.33102 12.1704 1.38393 11.9434C1.401 11.8734 1.40612 11.2538 1.40612 9.12678V6.39893H1.82947H2.25111V13.6658C2.25111 19.9938 2.25452 20.9498 2.27671 21.0539C2.37231 21.5114 2.78371 21.8459 3.25143 21.8477C3.38629 21.8477 3.59284 21.7947 3.72428 21.7247C3.87792 21.6428 4.05716 21.4585 4.13568 21.3014C4.25517 21.0556 4.24835 21.3885 4.24835 16.6958V12.4589H4.66657H5.08479V16.7043C5.0865 21.3816 5.07797 21.059 5.19575 21.2946C5.30842 21.5233 5.50302 21.694 5.7642 21.793C5.8632 21.8306 5.90417 21.8374 6.08341 21.8374C6.26265 21.8374 6.30362 21.8306 6.40263 21.793C6.66381 21.694 6.85841 21.5233 6.96937 21.298C7.09057 21.0522 7.08203 21.7043 7.08203 13.6658V6.39893H7.50026H7.91848V9.10971C7.91848 10.984 7.9236 11.8529 7.93726 11.9229C7.98164 12.1636 8.1182 12.3531 8.32476 12.4538C8.44596 12.5153 8.46303 12.5187 8.60812 12.517C8.7242 12.517 8.78566 12.5067 8.85394 12.4811C9.09634 12.3838 9.25851 12.1636 9.30118 11.8683C9.32337 11.7061 9.32337 6.35625 9.30118 6.09166C9.209 5.05036 8.48863 4.2105 7.50026 3.98858C7.391 3.96468 7.26298 3.95274 7.05643 3.94761C6.53578 3.93566 2.26477 3.93054 2.09748 3.94249Z" fill="currentColor"/>
</svg>