<svg width="19" height="20" viewBox="0 0 19 20" fill="none" xmlns="http://www.w3.org/2000/svg">
<path d="M3.848 0.0211295C3.49488 0.0857427 3.20938 0.239011 2.96595 0.495961C2.37391 1.12106 2.40246 2.1143 3.03056 2.70483C3.42576 3.07899 3.98323 3.21723 4.52118 3.07748C4.68496 3.03541 4.94341 2.90168 5.08767 2.78597C5.57753 2.39379 5.78489 1.73864 5.61058 1.13458C5.46783 0.640214 5.09668 0.251032 4.61734 0.0872451C4.37091 0.0030977 4.08241 -0.0209442 3.848 0.0211295Z" fill="black"/>
<path d="M1.84632 3.47131C1.58937 3.48934 1.36397 3.55245 1.12205 3.67266C0.490942 3.98821 0.0777182 4.60429 0.013105 5.32405C0.00108394 5.45028 -0.00192133 6.27522 0.00108394 7.99273L0.00559183 10.4796L0.0386497 10.5773C0.100258 10.7576 0.221971 10.8973 0.382752 10.9709C0.44436 11.001 0.481926 11.0055 0.621671 11.0055C0.773437 11.0055 0.794474 11.0025 0.877118 10.9619C1.04692 10.8778 1.17163 10.714 1.21822 10.5141C1.23324 10.4525 1.23775 9.90708 1.23775 8.0348V5.6336H1.6104H1.98155V12.0303C1.98155 17.6006 1.98456 18.442 2.00409 18.5337C2.08824 18.9364 2.45037 19.2309 2.8621 19.2324C2.9808 19.2324 3.16262 19.1858 3.27832 19.1242C3.41356 19.0521 3.57134 18.8898 3.64046 18.7516C3.74564 18.5352 3.73963 18.8282 3.73963 14.6975V10.9679H4.10778H4.47592V14.705C4.47742 18.8222 4.46991 18.5382 4.57359 18.7456C4.67277 18.9469 4.84407 19.0972 5.07397 19.1843C5.16112 19.2174 5.19719 19.2234 5.35496 19.2234C5.51274 19.2234 5.5488 19.2174 5.63595 19.1843C5.86586 19.0972 6.03716 18.9469 6.13483 18.7486C6.24151 18.5322 6.234 19.1062 6.234 12.0303V5.6336H6.60215H6.97029V8.01978C6.97029 9.66967 6.9748 10.4345 6.98682 10.4961C7.02589 10.708 7.1461 10.8748 7.32792 10.9634C7.4346 11.0175 7.44963 11.0205 7.57735 11.019C7.67953 11.019 7.73363 11.01 7.79373 10.9875C8.00711 10.9018 8.14986 10.708 8.18742 10.448C8.20696 10.3053 8.20696 5.59603 8.18742 5.36312C8.10628 4.44652 7.47217 3.70722 6.60215 3.51188C6.50598 3.49084 6.39328 3.48032 6.21146 3.47582C5.75316 3.4653 1.99357 3.46079 1.84632 3.47131Z" fill="currentColor"/>
<path d="M13.5789 0.022589C13.0302 0.121668 12.5882 0.472255 12.3748 0.975271C12.2802 1.19477 12.2452 1.39293 12.2543 1.64596C12.2589 1.78772 12.2711 1.88985 12.2924 1.97521C12.4159 2.44164 12.7116 2.81052 13.1308 3.01782C13.9234 3.40804 14.8715 3.08641 15.2602 2.29378C15.3563 2.09715 15.3989 1.94929 15.4188 1.74199C15.4721 1.16123 15.2008 0.589625 14.7191 0.271048C14.3761 0.0454532 13.9585 -0.0460041 13.5789 0.022589Z" fill="black"/>
<path d="M11.9034 3.54358C11.3257 3.63352 10.8425 3.95514 10.4965 4.47797C10.3334 4.72338 10.3761 4.59839 9.7496 6.66076C9.50266 7.47321 9.23439 8.35577 9.04232 8.98987C8.96154 9.25358 8.88837 9.51271 8.87923 9.56911C8.81673 9.92274 9.00269 10.252 9.31822 10.3495C9.56363 10.4258 9.81209 10.3572 9.98281 10.1682C10.1109 10.0249 10.0926 10.0767 10.5575 8.51277C10.6596 8.16828 10.8075 7.67441 10.8852 7.41528C10.9614 7.15463 11.1062 6.6699 11.2053 6.33608L11.3867 5.73094H11.719C11.9949 5.73094 12.0513 5.73399 12.0513 5.75228C12.0513 5.76448 12.0025 5.94739 11.9431 6.16079C11.8363 6.54339 11.5178 7.69118 10.687 10.6773C10.0545 12.953 10.0392 13.0064 10.0301 13.0353C10.0224 13.0613 10.0758 13.0628 11.0056 13.0628H11.9903V15.962C11.9903 19.1203 11.9857 18.9557 12.0757 19.1325C12.1549 19.2895 12.3135 19.4191 12.4964 19.4755C12.6168 19.5151 12.8698 19.5105 12.9872 19.4663C13.2113 19.3855 13.3576 19.2346 13.4338 19.0075C13.4597 18.9283 13.4612 18.788 13.4658 15.9772L13.4689 13.0323H13.8423H14.2158V15.9818C14.2158 18.9283 14.2158 18.9328 14.2478 19.0273C14.3438 19.3139 14.5725 19.4831 14.8941 19.506C15.2797 19.5319 15.6044 19.2834 15.6623 18.9161C15.673 18.8505 15.6791 17.8506 15.6791 15.9391V13.0628H16.6546C17.2903 13.0628 17.6302 13.0582 17.6302 13.0475C17.6302 13.0399 17.5204 12.639 17.3848 12.1604C17.2506 11.6802 17.0799 11.0705 17.0052 10.8068C16.9305 10.5431 16.7598 9.93189 16.6241 9.45021C16.205 7.95641 16.1074 7.61039 15.9992 7.22475C15.9413 7.01897 15.8254 6.60588 15.7416 6.3056C15.6562 6.00531 15.5876 5.75381 15.5876 5.74618C15.5876 5.73704 15.7248 5.73094 15.9382 5.73094H16.2873L16.3193 5.84069C16.3376 5.90166 16.365 5.99312 16.3803 6.04342C16.3955 6.09372 16.4641 6.32389 16.5327 6.55406C16.6013 6.78423 16.7156 7.16835 16.7872 7.40766C16.8574 7.64697 16.9641 8.00213 17.022 8.19572C17.2445 8.94262 17.3451 9.28406 17.4259 9.55691C17.4717 9.71239 17.525 9.87701 17.5418 9.92274C17.6683 10.2505 17.9564 10.4349 18.2567 10.38C18.6027 10.3175 18.8267 10.0081 18.7993 9.63313C18.7902 9.5188 18.778 9.4746 18.4365 8.35272C18.1317 7.35126 17.6424 5.74009 17.5128 5.31176C17.4473 5.09226 17.3695 4.87124 17.3314 4.79045C17.2415 4.60144 17.0738 4.38347 16.868 4.18683C16.4931 3.8271 16.0632 3.61065 15.5953 3.54358C15.3834 3.5131 12.097 3.5131 11.9034 3.54358Z" fill="currentColor"/>
</svg>
