<svg width="12" height="22" viewBox="0 0 12 22" fill="none" xmlns="http://www.w3.org/2000/svg">
<path d="M5.22303 0.0248105C4.61466 0.134656 4.12458 0.523338 3.88799 1.08101C3.78321 1.32436 3.74435 1.54405 3.75448 1.82458C3.75955 1.98174 3.77307 2.09497 3.79673 2.1896C3.93362 2.70672 4.26146 3.11568 4.72619 3.34551C5.60495 3.77813 6.65608 3.42156 7.08701 2.5428C7.19348 2.3248 7.2408 2.16087 7.26277 1.93104C7.32191 1.28718 7.02111 0.653462 6.48709 0.300268C6.10686 0.0501591 5.64382 -0.0512361 5.22303 0.0248105Z" fill="#EF4444"/>
<path d="M3.36616 3.92801C2.72567 4.02771 2.18997 4.38429 1.80636 4.96393C1.62553 5.23601 1.67285 5.09743 0.978292 7.3839C0.704525 8.28463 0.407098 9.2631 0.194168 9.96611C0.104602 10.2585 0.0234854 10.5458 0.0133458 10.6083C-0.0559411 11.0003 0.15023 11.3654 0.500044 11.4735C0.772122 11.558 1.04758 11.482 1.23685 11.2724C1.3788 11.1136 1.35853 11.171 1.87395 9.43716C1.98718 9.05524 2.1511 8.5077 2.23729 8.22041C2.32178 7.93144 2.48233 7.39404 2.59217 7.02395L2.79327 6.35305H3.16167C3.46755 6.35305 3.53008 6.35643 3.53008 6.37671C3.53008 6.39023 3.476 6.59302 3.41009 6.82961C3.2918 7.25378 2.9386 8.52629 2.0176 11.8369C1.31628 14.3599 1.29938 14.4191 1.28924 14.4512C1.28079 14.4799 1.33994 14.4816 2.37079 14.4816H3.46248V17.6958C3.46248 21.1973 3.45741 21.0148 3.55712 21.2109C3.64499 21.3849 3.82074 21.5286 4.02354 21.5911C4.15704 21.635 4.43757 21.63 4.56769 21.581C4.81611 21.4914 4.97834 21.3241 5.06284 21.0723C5.09157 20.9844 5.09326 20.8289 5.09833 17.7127L5.10171 14.4478H5.51574H5.92977V17.7178C5.92977 20.9844 5.92977 20.9895 5.96526 21.0943C6.07172 21.412 6.32521 21.5996 6.68179 21.6249C7.10934 21.6536 7.46929 21.3782 7.53351 20.9709C7.54534 20.8982 7.5521 19.7896 7.5521 17.6705V14.4816H8.63365C9.33835 14.4816 9.7152 14.4765 9.7152 14.4647C9.7152 14.4562 9.59353 14.0118 9.44312 13.4812C9.29441 12.9488 9.10514 12.2729 9.02233 11.9805C8.93953 11.6881 8.75025 11.0105 8.59985 10.4765C8.13512 8.82034 8.02697 8.43672 7.90698 8.00917C7.84276 7.78103 7.71433 7.32307 7.62138 6.99015C7.52675 6.65723 7.4507 6.3784 7.4507 6.36995C7.4507 6.35981 7.6028 6.35305 7.83938 6.35305H8.22638L8.26187 6.47472C8.28215 6.54232 8.31256 6.64372 8.32946 6.69948C8.34636 6.75525 8.42241 7.01043 8.49846 7.26561C8.5745 7.52079 8.70125 7.94665 8.78067 8.21196C8.85841 8.47728 8.9767 8.87104 9.04092 9.08566C9.28765 9.91372 9.39918 10.2923 9.48875 10.5948C9.53945 10.7671 9.5986 10.9496 9.61719 11.0003C9.75745 11.3637 10.0768 11.5682 10.4098 11.5073C10.7934 11.438 11.0418 11.095 11.0114 10.6793C11.0012 10.5525 10.9877 10.5035 10.6092 9.25972C10.2712 8.14944 9.72872 6.36319 9.58508 5.88832C9.51241 5.64497 9.42622 5.39993 9.38398 5.31036C9.28427 5.10081 9.09838 4.85915 8.87024 4.64115C8.45452 4.24233 7.97796 4.00236 7.45915 3.92801C7.22425 3.89421 3.58078 3.89421 3.36616 3.92801Z" fill="#EF4444"/>
</svg>