<?xml version="1.0" encoding="UTF-8"?>
<svg id="_レイヤー_1" data-name="レイヤー 1" xmlns="http://www.w3.org/2000/svg" viewBox="0 0 443.16 418.26">
  <defs>
    <style>
      .cls-1, .cls-2, .cls-3, .cls-4, .cls-5, .cls-6, .cls-7 {
        stroke-miterlimit: 10;
      }

      .cls-1, .cls-2, .cls-3, .cls-4, .cls-6, .cls-7 {
        fill: none;
      }

      .cls-1, .cls-8, .cls-9, .cls-7, .cls-10 {
        isolation: isolate;
      }

      .cls-1, .cls-9 {
        letter-spacing: .3em;
      }

      .cls-1, .cls-9, .cls-7, .cls-10 {
        font-family: BIZ-UDGothic, 'BIZ UDGothic';
        font-size: 15.08px;
      }

      .cls-1, .cls-7 {
        stroke: #028760;
      }

      .cls-2, .cls-3, .cls-5, .cls-6 {
        stroke: #6fba2d;
      }

      .cls-3 {
        stroke-width: 3px;
      }

      .cls-4 {
        stroke: #3b7960;
      }

      .cls-11 {
        fill: #3b82f6;
      }

      .cls-9, .cls-10 {
        fill: #028760;
      }

      .cls-5 {
        fill: #6fba2d;
      }

      .cls-6 {
        stroke-width: 2px;
      }

      .cls-7, .cls-10 {
        letter-spacing: .3em;
      }
    </style>
  </defs>
  <g>
    <g>
      <polygon class="cls-3" points="1.5 1.5 1.5 219.44 338.45 416.21 434.47 252.02 196.99 116.98 196.99 1.67 1.5 1.5"/>
      <polyline class="cls-3" points="381.21 344.08 410.63 361.69 441.66 309.75 441.66 272.62 427.83 263.54"/>
    </g>
    <g>
      <line class="cls-2" x1="144.22" y1="244.04" x2="162.56" y2="254.58"/>
      <line class="cls-2" x1="146.31" y1="240.01" x2="164.73" y2="250.96"/>
      <line class="cls-2" x1="148.16" y1="237.04" x2="166.58" y2="247.34"/>
      <line class="cls-2" x1="150.25" y1="233.5" x2="168.59" y2="244.12"/>
      <line class="cls-2" x1="152.18" y1="229.64" x2="170.76" y2="240.66"/>
      <line class="cls-2" x1="154.27" y1="226.67" x2="172.21" y2="237.04"/>
      <line class="cls-2" x1="156.44" y1="223.37" x2="174.46" y2="233.74"/>
      <line class="cls-2" x1="158.21" y1="219.83" x2="176.56" y2="230.37"/>
      <line class="cls-2" x1="181.13" y1="228.68" x2="200.36" y2="239.29"/>
      <line class="cls-2" x1="179.21" y1="232.05" x2="198.19" y2="243"/>
      <line class="cls-2" x1="177.6" y1="235.6" x2="196.26" y2="246.46"/>
      <line class="cls-2" x1="175.75" y1="238.97" x2="194.18" y2="249.83"/>
      <line class="cls-2" x1="173.58" y1="242.59" x2="191.91" y2="253.45"/>
      <line class="cls-2" x1="171.49" y1="245.65" x2="189.99" y2="256.43"/>
      <line class="cls-2" x1="169.64" y1="249.11" x2="188.14" y2="259.89"/>
      <line class="cls-2" x1="167.54" y1="252.57" x2="186.29" y2="263.43"/>
      <polygon class="cls-2" points="179.21 226.67 162.64 255.62 164.57 256.84 181.22 228.03 179.21 226.67"/>
      <line class="cls-2" x1="390.51" y1="328.82" x2="404.99" y2="337.19"/>
      <line class="cls-2" x1="392.77" y1="325.53" x2="406.6" y2="333.89"/>
      <line class="cls-2" x1="394.54" y1="322.55" x2="408.38" y2="330.83"/>
      <line class="cls-2" x1="396.31" y1="319.49" x2="410.47" y2="327.7"/>
      <line class="cls-2" x1="397.75" y1="316.11" x2="412.07" y2="324.56"/>
      <line class="cls-2" x1="399.69" y1="312.98" x2="413.93" y2="321.35"/>
      <line class="cls-2" x1="401.78" y1="309.84" x2="416.01" y2="318.12"/>
      <line class="cls-2" x1="403.55" y1="306.78" x2="417.71" y2="314.9"/>
      <line class="cls-2" x1="405.64" y1="303.64" x2="419.72" y2="311.44"/>
      <line class="cls-2" x1="405.4" y1="341.85" x2="417.14" y2="348.85"/>
      <line class="cls-2" x1="407.25" y1="338.87" x2="419.15" y2="345.72"/>
      <line class="cls-2" x1="409.26" y1="335.51" x2="420.92" y2="342.33"/>
      <line class="cls-2" x1="411.28" y1="332.28" x2="422.54" y2="338.96"/>
      <line class="cls-2" x1="413.2" y1="329.22" x2="424.46" y2="335.67"/>
      <line class="cls-2" x1="415.21" y1="326.17" x2="426.63" y2="332.44"/>
      <polygon class="cls-2" points="402.98 340.97 422.85 307.1 424.79 308.23 405.32 342.26 402.98 340.97"/>
    </g>
    <g>
      <polyline class="cls-6" points="147.73 1.2 147.73 78.47 128.75 111.34"/>
      <line class="cls-6" x1="148.74" y1="14.76" x2="196.87" y2="14.76"/>
      <polyline class="cls-6" points="1.67 117.44 99.61 117.44 118.25 128.62"/>
      <polyline class="cls-6" points="1.33 145.23 100.28 145.23 154.17 176.06"/>
      <line class="cls-6" x1="120.79" y1="125.74" x2="107.41" y2="149.12"/>
      <line class="cls-6" x1="151.54" y1="91.6" x2="143.24" y2="86.68"/>
      <line class="cls-6" x1="167.47" y1="99.73" x2="196.61" y2="116.51"/>
      <polyline class="cls-6" points="167.84 183.86 175.63 188.49 118.36 287.56"/>
      <polyline class="cls-6" points="159.7 311.73 239.45 173.02 250.41 179.9"/>
      <polyline class="cls-6" points="233.35 182.5 207.6 167.37 190.88 196.96 216.19 212.55"/>
      <line class="cls-6" x1="264.73" y1="187.08" x2="306.5" y2="211.56"/>
      <line class="cls-6" x1="319.12" y1="218.51" x2="332.25" y2="226.31"/>
      <line class="cls-6" x1="345.55" y1="233.67" x2="395.37" y2="262.9"/>
      <line class="cls-6" x1="408.07" y1="270.02" x2="417.99" y2="276.21"/>
      <line class="cls-6" x1="329.15" y1="224.87" x2="248.94" y2="363.81"/>
    </g>
    <circle class="cls-5" cx="192.35" cy="150.65" r="5.09"/>
  </g>
  <g>
    <g class="cls-8">
      <text class="cls-10" transform="translate(312.29 381.9)"><tspan x="0" y="0">151</tspan></text>
      <text class="cls-7" transform="translate(312.29 381.9)"><tspan x="0" y="0">151</tspan></text>
    </g>
    <path class="cls-4" d="M317.01,362.77h22.22c7.4,0,13.4,6,13.4,13.4h0c0,7.4-6,13.4-13.4,13.4h-22.22c-7.4,0-13.4-6-13.4-13.4h0c0-7.4,6-13.4,13.4-13.4Z"/>
  </g>
  <g>
    <g class="cls-8">
      <text class="cls-9" transform="translate(220.8 333.71)"><tspan x="0" y="0">152</tspan></text>
      <text class="cls-1" transform="translate(220.8 333.71)"><tspan x="0" y="0">152</tspan></text>
    </g>
    <path class="cls-4" d="M225.53,314.58h22.22c7.4,0,13.4,6,13.4,13.4h0c0,7.4-6,13.4-13.4,13.4h-22.22c-7.4,0-13.4-6-13.4-13.4h0c0-7.4,6-13.4,13.4-13.4Z"/>
  </g>
  <g>
    <g class="cls-8">
      <text class="cls-10" transform="translate(92.64 256.06)"><tspan x="0" y="0">153</tspan></text>
      <text class="cls-7" transform="translate(92.64 256.06)"><tspan x="0" y="0">153</tspan></text>
    </g>
    <path class="cls-4" d="M97.36,236.92h22.22c7.4,0,13.4,6,13.4,13.4h0c0,7.4-6,13.4-13.4,13.4h-22.22c-7.4,0-13.4-6-13.4-13.4h0c0-7.4,6-13.4,13.4-13.4Z"/>
  </g>
  <g>
    <g class="cls-8">
      <text class="cls-10" transform="translate(28.36 104.83)"><tspan x="0" y="0">154</tspan></text>
      <text class="cls-7" transform="translate(28.36 104.83)"><tspan x="0" y="0">154</tspan></text>
    </g>
    <path class="cls-4" d="M33.08,85.69h22.22c7.4,0,13.4,6,13.4,13.4h0c0,7.4-6,13.4-13.4,13.4h-22.22c-7.4,0-13.4-6-13.4-13.4h0c0-7.4,6-13.4,13.4-13.4Z"/>
  </g>
  <g>
    <path d="M206.87,186.94c-.64,0-1.16.52-1.16,1.16s.52,1.16,1.16,1.16,1.16-.52,1.16-1.16-.52-1.16-1.16-1.16Z"/>
    <path d="M211.81,186.94c-.64,0-1.16.52-1.16,1.16s.52,1.16,1.16,1.16,1.16-.52,1.16-1.16-.52-1.16-1.16-1.16Z"/>
    <path d="M216.76,186.94c-.64,0-1.16.52-1.16,1.16s.52,1.16,1.16,1.16,1.16-.52,1.16-1.16-.52-1.16-1.16-1.16Z"/>
    <path d="M219.39,181.43h-15.16c-1.16,0-2.11.95-2.11,2.11v16.24c0,1.16.95,2.11,2.11,2.11h15.16c1.16,0,2.11-.95,2.11-2.11v-16.24c0-1.16-.95-2.11-2.11-2.11ZM206.66,200.55l.21-4.64.21,4.64h-.42ZM211.6,200.55l.21-4.64.21,4.64h-.42ZM216.55,200.55l.21-4.64.21,4.64h-.42ZM220.17,199.77c0,.43-.35.78-.78.78h-1.37l.04-5.42c.08.13.23.21.39.2.25,0,.44-.23.43-.47l.19-3.85c0-1.52-1.53-1.59-2.32-1.59s-2.32.08-2.32,1.59l.13,3.85c0,.25.18.46.43.47.22,0,.39-.14.45-.34l.04,5.55h-2.4l.03-5.42c.08.13.23.21.39.2.25,0,.44-.23.43-.47l.19-3.85c0-1.52-1.53-1.59-2.32-1.59s-2.32.08-2.32,1.59l.13,3.85c0,.25.18.46.43.47.22,0,.4-.14.45-.34l.04,5.56h-2.4l.03-5.42c.08.13.23.21.39.2.25,0,.44-.23.43-.47l.19-3.85c0-1.52-1.53-1.59-2.32-1.59s-2.32.08-2.32,1.59l.13,3.85c0,.25.18.46.43.47.22,0,.4-.14.45-.34l.04,5.56h-1.37c-.43,0-.78-.35-.78-.78v-16.24c0-.43.35-.78.78-.78h15.16c.43,0,.78.35.78.78v16.24h.02Z"/>
    <path d="M213.32,177.95l1.58-1.58v3.56c0,.33.26.59.59.59s.59-.26.59-.59v-3.56l1.58,1.58c.12.12.27.18.42.18s.3-.06.42-.18c.23-.23.23-.6,0-.83l-2.59-2.59-.42-.42-.42.42-2.59,2.59c-.23.23-.23.6,0,.83s.6.23.83,0h0Z"/>
    <path d="M207.71,180.35h0l.42.42.42-.42h0l2.59-2.59c.23-.23.23-.6,0-.83s-.6-.23-.83,0l-1.58,1.58v-3.56c0-.33-.26-.59-.59-.59s-.59.26-.59.59v3.56l-1.58-1.58c-.23-.23-.6-.23-.83,0s-.23.6,0,.83l2.59,2.59h-.02Z"/>
  </g>
  <g>
    <path class="cls-11" d="M172.28,18.47c-.54.1-.97.33-1.34.72-.9.95-.85,2.45.1,3.35.59.57,1.44.78,2.26.56.25-.07.64-.27.85-.44.75-.59,1.06-1.58.8-2.51-.22-.75-.78-1.34-1.51-1.58-.38-.13-.81-.17-1.16-.1h0Z"/>
    <path class="cls-11" d="M169.24,23.69c-.39.03-.73.13-1.1.3-.96.48-1.58,1.42-1.68,2.51-.02.19-.03,1.44-.02,4.05v3.77l.06.15c.09.28.28.49.52.59.09.04.15.05.36.05.23,0,.26,0,.39-.07.26-.13.44-.38.52-.68.03-.09.03-.92.03-3.75v-3.64h1.13v9.69c0,8.44,0,9.72.03,9.85.13.61.68,1.06,1.3,1.06.18,0,.45-.07.63-.17.2-.11.44-.35.55-.56.16-.33.15.12.15-6.14v-5.66h1.11v5.66c0,6.24,0,5.81.15,6.12.15.3.41.54.76.66.13.05.18.06.43.06s.29,0,.43-.06c.35-.13.61-.36.75-.66.16-.33.15.54.15-10.18v-9.69h1.11v3.62c0,2.5,0,3.66.03,3.75.06.32.24.58.52.71.16.08.18.08.38.08.15,0,.23-.02.33-.05.33-.13.54-.43.59-.82.03-.22.03-7.36,0-7.71-.13-1.39-1.08-2.51-2.4-2.81-.14-.03-.32-.05-.59-.06-.7-.02-6.39-.03-6.62,0h0Z"/>
  </g>
  <g>
    <path d="M417.78,294.87v10.35h20.87v-20.69h-20.87v10.35h0ZM434.53,292.25v6.34l.32.05c.38.06.85.28,1.05.48.33.33.91,1.39.92,1.68,0,.13,0,.14-.16.18-.09.02-.61.03-1.15.03h-.98v2.72l.47.48c.48.49.64.7.59.74-.05.05-2.56.09-5.3.09h-2.76l-.74-.7-.74-.71h-1.89l.66.65c.6.59.65.65.59.7-.05.03-.48.06-1.17.08l-1.09.03-.62-.62-.62-.62v-8.74h2.68l.56-.65c.77-.9.96-1.11,1.03-1.11.05,0,.55,1.03,1.01,2.08l.17.39-1.5,3.03c-1.82,3.67-2.03,4.12-1.94,4.18.08.05.65.05,1.06,0,.36-.05.72-.19.85-.35.13-.14.66-1.12,1.8-3.36,1.16-2.28,1.43-2.77,1.49-2.76.07.03.1.31.14,1.41.05,1.08.13,1.8.24,2.18.12.4-.08.38,3.35.38,3.06,0,3.23,0,3.3-.17.03-.08-.22-.55-.42-.78-.09-.1-.23-.22-.3-.25-.25-.13-.79-.18-2.22-.23-.79-.03-1.62-.06-1.83-.07l-.39-.03-.12-1.78-.13-1.79-.16-.37c-.09-.2-.39-.83-.66-1.41-.28-.57-.49-1.07-.49-1.11,0-.09.21-.11.96-.1l.68.02.41.72c.68,1.18,1.01,1.58,1.32,1.58.14,0,.45-.2.54-.35.13-.26-.03-.75-.6-1.74-.62-1.08-.85-1.33-1.35-1.49-.29-.09-.35-.09-2.47-.09-1.69,0-2.22.02-2.4.06-.22.05-.28.1-.69.51-.25.25-.76.83-1.14,1.28l-.69.82h-2.13v-7.82h12.63v6.35h.02Z"/>
    <path d="M426.03,287.91c-.48.13-.86.7-.88,1.26,0,.42.4,1.1.8,1.32.1.06.23.08.53.08.34,0,.42-.02.63-.12.53-.26.77-.66.78-1.32,0-.32,0-.39-.11-.56-.14-.24-.5-.59-.7-.67-.19-.08-.75-.08-1.06.02h0Z"/>
  </g>
  <g>
    <path d="M172.79,99.9c-.14.02-.77.05-1.4.08-.84.03-1.2.07-1.32.11-.22.08-.53.39-.7.7-.07.13-.23.34-.35.47l-.23.23h-.44c-.49,0-.63.04-.73.23-.13.25,0,.59.25.68.08.03.32.05.54.05h.4l.16.17c.23.23.41.32.74.32.3,0,.48-.07.68-.26.12-.11.13-.11.34-.07.6.12,1.67.54,2.69,1.07.33.17.59.3.6.3,0,0,0-.18,0-.39,0-.29-.03-.41-.08-.47-.08-.1-.89-.62-1.63-1.06l-.6-.35h-.5c-.34,0-.52-.03-.55-.09-.03-.06-.03-.11,0-.13.08-.08,2.2-.83,2.81-1l.16-.04-.1-.18c-.14-.25-.28-.39-.38-.39-.05,0-.19.02-.33.03h-.03ZM169.82,101.59c.24.08.32.4.14.6-.08.09-.13.11-.28.11s-.19-.02-.28-.11c-.17-.19-.09-.51.14-.6q.13-.05.26,0h0Z"/>
    <path d="M166.85,101.55c-1.52.23-2.35,1.44-2.17,3.18.05.53.16,1.06.46,2.27.32,1.26.39,1.68.41,2.38.02.45,0,.69-.04.96-.03.2-.06.37-.05.37,0,0,.11.04.23.08s.28.1.36.14c.08.04.15.07.16.06.04-.04.14-.54.18-.93.08-.82-.03-1.63-.44-3.31-.34-1.37-.41-1.73-.44-2.27-.03-.77.09-1.21.44-1.59.1-.11.25-.23.34-.28.2-.12.65-.25.84-.25.14,0,.15,0,.12-.09-.04-.11-.03-.56,0-.67.03-.09.02-.1-.38-.04h0Z"/>
    <path d="M168.79,103.46v.46l-.33.16c-.62.31-1.15.96-1.3,1.63-.04.17-.06.45-.06.87v.63h5.19v-.63c0-.7-.04-.93-.23-1.32-.23-.46-.62-.84-1.14-1.11l-.32-.16v-.41c0-.23,0-.44-.03-.49-.03-.08-.03-.08-.09-.03-.12.1-.42.22-.65.23-.29.03-.61-.04-.84-.18-.1-.07-.18-.12-.19-.12s-.02.2-.02.45h0Z"/>
    <path d="M167.1,109.75v2.17h5.19v-4.34h-5.19v2.17ZM171.33,109.78v1.04h-3.27v-2.08h3.27v1.04h0Z"/>
    <path d="M164.89,111.13c-.05.03-.37.54-.82,1.35l-.74,1.31.11.12c.13.14.84.49,1.32.65.2.07.48.13.62.14.24.02.26,0,.29-.08.03-.05.2-.7.39-1.43.24-.92.34-1.37.33-1.44-.09-.37-1.13-.8-1.5-.62h0ZM164.42,113.6c.4.08.79.3.93.51.09.13.09.2,0,.2-.23,0-1.56-.54-1.53-.63,0-.04.23-.13.32-.13.03,0,.15.03.29.05h0Z"/>
    <path d="M167.1,114.24c0,2.19,0,2.15.29,2.48.1.11.27.23.39.3l.22.11h3.38l.22-.11c.13-.06.29-.18.39-.3.29-.33.29-.29.29-2.48v-1.94h-5.19v1.94h0Z"/>
  </g>
  <g>
    <path d="M245.99,176.5c-.14.02-.77.05-1.4.08-.84.03-1.2.07-1.32.11-.22.08-.53.39-.7.7-.07.13-.23.34-.35.47l-.23.23h-.44c-.49,0-.63.04-.73.23-.13.25,0,.59.25.68.08.03.32.05.54.05h.4l.16.17c.23.23.41.32.74.32.3,0,.48-.07.68-.26.12-.11.13-.11.34-.07.6.12,1.67.54,2.69,1.07.33.17.59.3.6.3,0,0,0-.18,0-.39,0-.29-.03-.41-.08-.47-.08-.1-.89-.62-1.63-1.06l-.6-.35h-.5c-.34,0-.52-.03-.55-.09-.03-.06-.03-.11,0-.13.08-.08,2.2-.83,2.81-1l.16-.04-.1-.18c-.14-.25-.28-.39-.38-.39-.05,0-.19.02-.33.03h-.03ZM243.02,178.19c.24.08.32.4.14.6-.08.09-.13.11-.28.11s-.19-.02-.28-.11c-.17-.19-.09-.51.14-.6q.13-.05.26,0h0Z"/>
    <path d="M240.05,178.16c-1.52.23-2.35,1.44-2.17,3.18.05.53.16,1.06.46,2.27.32,1.26.39,1.68.41,2.38.02.45,0,.69-.04.96-.03.2-.06.37-.05.37,0,0,.11.04.23.08s.28.1.36.14c.08.04.15.07.16.06.04-.04.14-.54.18-.93.08-.82-.03-1.63-.44-3.31-.34-1.37-.41-1.73-.44-2.27-.03-.77.09-1.21.44-1.59.1-.11.25-.23.34-.28.2-.12.65-.25.84-.25.14,0,.15,0,.12-.09-.04-.11-.03-.56,0-.67.03-.09.02-.1-.38-.04h0Z"/>
    <path d="M241.99,180.07v.46l-.33.16c-.62.31-1.15.96-1.3,1.63-.04.17-.06.45-.06.87v.63h5.19v-.63c0-.7-.04-.93-.23-1.32-.23-.46-.62-.84-1.14-1.11l-.32-.16v-.41c0-.23,0-.44-.03-.49-.03-.08-.03-.08-.09-.03-.12.1-.42.22-.65.23-.29.03-.61-.04-.84-.18-.1-.07-.18-.12-.19-.12s-.02.2-.02.45h0Z"/>
    <path d="M240.3,186.36v2.17h5.19v-4.34h-5.19v2.17ZM244.53,186.38v1.04h-3.27v-2.08h3.27v1.04h0Z"/>
    <path d="M238.09,187.73c-.05.03-.37.54-.82,1.35l-.74,1.31.11.12c.13.14.84.49,1.32.65.2.07.48.13.62.14.24.02.26,0,.29-.08.03-.05.2-.7.39-1.43.24-.92.34-1.37.33-1.44-.09-.37-1.13-.8-1.5-.62h0ZM237.62,190.2c.4.08.79.3.93.51.09.13.09.2,0,.2-.23,0-1.56-.54-1.53-.63,0-.04.23-.13.32-.13.03,0,.15.03.29.05h0Z"/>
    <path d="M240.3,190.84c0,2.19,0,2.15.29,2.48.1.11.27.23.39.3l.22.11h3.38l.22-.11c.13-.06.29-.18.39-.3.29-.33.29-.29.29-2.48v-1.94h-5.19v1.94h0Z"/>
  </g>
</svg>