<svg width="307" height="157" viewBox="0 0 307 157" fill="none" xmlns="http://www.w3.org/2000/svg">
<path d="M129.048 29.9963L138.342 1H56.5576L47.1234 29.9963M129.048 29.9963H246.52L221.242 107.32M129.048 29.9963H108.974M221.242 107.32H306M221.242 107.32L205.257 156.39M306 107.32L291.13 156.39H205.257M306 107.32L205.257 156.39M47.1234 29.9963H108.974M47.1234 29.9963L36.4797 62.71M21.9656 107.32L6 156.39H87.4126M21.9656 107.32H63.0534M21.9656 107.32L29.2226 85.0149M104.141 107.32L87.4126 156.39M104.141 107.32H63.0534M104.141 107.32L123.844 48.2119M87.4126 156.39H169.569M63.0534 107.32L70.2816 85.0149M169.569 156.39H205.257M169.569 156.39L189.559 95.7955M123.844 48.2119H205.257L201.823 58.6208M123.844 48.2119H103.026M103.026 48.2119H82.2082L77.5098 62.71M103.026 48.2119L108.974 29.9963M77.5098 62.71H36.4797M77.5098 62.71L70.2816 85.0149M36.4797 62.71L29.2226 85.0149M70.2816 85.0149H29.2226M189.559 95.7955H207.487L209.033 90.9628M189.559 95.7955L191.153 90.9628M201.823 58.6208H219.383L217.955 63.0818M201.823 58.6208L200.351 63.0818M200.351 63.0818H217.955M200.351 63.0818L198.879 67.5428M217.955 63.0818L216.528 67.5428M198.879 67.5428H216.528M198.879 67.5428L197.285 72.3755M216.528 67.5428L214.981 72.3755M197.285 72.3755H214.981M197.285 72.3755L195.813 76.8364M214.981 72.3755L213.554 76.8364M195.813 76.8364H213.554M195.813 76.8364L194.104 82.0177M213.554 76.8364L211.896 82.0177M194.104 82.0177H211.896M194.104 82.0177L192.747 86.1301M211.896 82.0177L210.58 86.1301M192.747 86.1301H210.58M192.747 86.1301L191.153 90.9628M210.58 86.1301L209.033 90.9628M191.153 90.9628H209.033" stroke="#965045"/>
<path d="M88.4092 5.85002C88.1131 5.9042 87.8737 6.03271 87.6696 6.24817C87.1732 6.77231 87.1971 7.60514 87.7238 8.1003C88.0552 8.41402 88.5226 8.52994 88.9737 8.41276C89.111 8.37749 89.3277 8.26535 89.4487 8.16833C89.8594 7.83949 90.0333 7.29015 89.8871 6.78365C89.7674 6.36912 89.4562 6.04279 89.0543 5.90546C88.8477 5.8349 88.6058 5.81474 88.4092 5.85002Z" fill="black"/>
<path d="M86.7307 8.74286C86.5153 8.75798 86.3263 8.81089 86.1235 8.91169C85.5943 9.17628 85.2478 9.69286 85.1936 10.2964C85.1835 10.4022 85.181 11.0939 85.1835 12.5341L85.1873 14.6193L85.215 14.7012C85.2667 14.8524 85.3687 14.9695 85.5036 15.0313C85.5552 15.0565 85.5867 15.0603 85.7039 15.0603C85.8311 15.0603 85.8488 15.0577 85.9181 15.0237C86.0605 14.9532 86.165 14.8158 86.2041 14.6483C86.2167 14.5966 86.2205 14.1392 86.2205 12.5693V10.5559H86.5329H86.8441V15.9195C86.8441 20.5902 86.8467 21.2958 86.863 21.3726C86.9336 21.7103 87.2372 21.9572 87.5825 21.9585C87.682 21.9585 87.8345 21.9194 87.9315 21.8678C88.0449 21.8073 88.1772 21.6712 88.2351 21.5553C88.3233 21.3739 88.3183 21.6196 88.3183 18.156V15.0288H88.627H88.9357V18.1623C88.9369 21.6145 88.9306 21.3764 89.0176 21.5503C89.1007 21.7191 89.2444 21.8451 89.4371 21.9182C89.5102 21.9459 89.5404 21.9509 89.6727 21.9509C89.805 21.9509 89.8353 21.9459 89.9083 21.9182C90.1011 21.8451 90.2448 21.7191 90.3266 21.5528C90.4161 21.3714 90.4098 21.8527 90.4098 15.9195V10.5559H90.7185H91.0272V12.5567C91.0272 13.9402 91.031 14.5815 91.041 14.6331C91.0738 14.8108 91.1746 14.9506 91.3271 15.025C91.4165 15.0703 91.4291 15.0729 91.5362 15.0716C91.6219 15.0716 91.6672 15.064 91.7176 15.0451C91.8965 14.9733 92.0162 14.8108 92.0477 14.5928C92.0641 14.4731 92.0641 10.5244 92.0477 10.3291C91.9797 9.56057 91.448 8.94067 90.7185 8.77688C90.6379 8.75924 90.5434 8.75042 90.3909 8.74664C90.0066 8.73782 86.8542 8.73404 86.7307 8.74286Z" fill="black"/>
<rect x="136.5" y="94.5" width="19" height="13" fill="white" stroke="#E2B953"/>
<path d="M143.221 99.568C143.221 99.8293 143.165 100.056 143.053 100.248C142.946 100.44 142.799 100.597 142.613 100.72C142.431 100.843 142.223 100.933 141.989 100.992V101.016C142.447 101.069 142.794 101.208 143.029 101.432C143.269 101.656 143.389 101.957 143.389 102.336C143.389 102.667 143.306 102.965 143.141 103.232C142.981 103.493 142.73 103.701 142.389 103.856C142.053 104.005 141.618 104.08 141.085 104.08C140.77 104.08 140.477 104.053 140.205 104C139.933 103.947 139.677 103.869 139.437 103.768V102.744C139.682 102.867 139.938 102.96 140.205 103.024C140.477 103.088 140.727 103.12 140.957 103.12C141.389 103.12 141.69 103.045 141.861 102.896C142.037 102.747 142.125 102.536 142.125 102.264C142.125 102.104 142.085 101.971 142.005 101.864C141.925 101.752 141.783 101.669 141.581 101.616C141.383 101.557 141.106 101.528 140.749 101.528H140.317V100.6H140.757C141.109 100.6 141.375 100.568 141.557 100.504C141.743 100.435 141.869 100.344 141.933 100.232C142.002 100.115 142.037 99.9813 142.037 99.832C142.037 99.6293 141.973 99.472 141.845 99.36C141.722 99.2427 141.514 99.184 141.221 99.184C141.039 99.184 140.874 99.208 140.725 99.256C140.575 99.2987 140.439 99.352 140.317 99.416C140.199 99.48 140.095 99.5413 140.005 99.6L139.445 98.768C139.594 98.6613 139.759 98.5653 139.941 98.48C140.127 98.3947 140.333 98.328 140.557 98.28C140.781 98.232 141.031 98.208 141.309 98.208C141.895 98.208 142.359 98.328 142.701 98.568C143.047 98.8027 143.221 99.136 143.221 99.568ZM147.799 99.568C147.799 99.8293 147.743 100.056 147.631 100.248C147.524 100.44 147.378 100.597 147.191 100.72C147.01 100.843 146.802 100.933 146.567 100.992V101.016C147.026 101.069 147.372 101.208 147.607 101.432C147.847 101.656 147.967 101.957 147.967 102.336C147.967 102.667 147.884 102.965 147.719 103.232C147.559 103.493 147.308 103.701 146.967 103.856C146.631 104.005 146.196 104.08 145.663 104.08C145.348 104.08 145.055 104.053 144.783 104C144.511 103.947 144.255 103.869 144.015 103.768V102.744C144.26 102.867 144.516 102.96 144.783 103.024C145.055 103.088 145.306 103.12 145.535 103.12C145.967 103.12 146.268 103.045 146.439 102.896C146.615 102.747 146.703 102.536 146.703 102.264C146.703 102.104 146.663 101.971 146.583 101.864C146.503 101.752 146.362 101.669 146.159 101.616C145.962 101.557 145.684 101.528 145.327 101.528H144.895V100.6H145.335C145.687 100.6 145.954 100.568 146.135 100.504C146.322 100.435 146.447 100.344 146.511 100.232C146.58 100.115 146.615 99.9813 146.615 99.832C146.615 99.6293 146.551 99.472 146.423 99.36C146.3 99.2427 146.092 99.184 145.799 99.184C145.618 99.184 145.452 99.208 145.303 99.256C145.154 99.2987 145.018 99.352 144.895 99.416C144.778 99.48 144.674 99.5413 144.583 99.6L144.023 98.768C144.172 98.6613 144.338 98.5653 144.519 98.48C144.706 98.3947 144.911 98.328 145.135 98.28C145.359 98.232 145.61 98.208 145.887 98.208C146.474 98.208 146.938 98.328 147.279 98.568C147.626 98.8027 147.799 99.136 147.799 99.568ZM151.593 104H150.385V100.696C150.385 100.605 150.385 100.493 150.385 100.36C150.39 100.227 150.396 100.088 150.401 99.944C150.406 99.8 150.412 99.672 150.417 99.56C150.39 99.592 150.332 99.6507 150.241 99.736C150.156 99.816 150.076 99.888 150.001 99.952L149.345 100.48L148.761 99.752L150.601 98.288H151.593V104Z" fill="#954D2B"/>
<rect x="48.5" y="36.5" width="30" height="13" fill="white" stroke="#E2B953"/>
<path d="M51.352 45.816H58.648V46.576H51.352V45.816ZM52.184 44.56H57.928V45.304H52.184V44.56ZM54.264 40.76H57.272V41.432H54.264V40.76ZM53.52 41.792H58.144V42.504H53.52V41.792ZM56.592 42.928L57.248 42.536C57.624 42.872 58.128 43.344 58.376 43.656L57.68 44.104C57.456 43.792 56.976 43.28 56.592 42.928ZM55.344 41.224H56.208V43.44C56.208 43.816 56.128 44.016 55.856 44.128C55.592 44.248 55.216 44.256 54.704 44.256C54.656 44.032 54.544 43.736 54.432 43.528C54.744 43.544 55.112 43.544 55.208 43.544C55.312 43.536 55.344 43.512 55.344 43.424V41.224ZM54.176 42.56L54.888 42.896C54.552 43.384 54.072 43.872 53.616 44.184C53.488 44.032 53.24 43.8 53.064 43.664C53.496 43.392 53.936 42.952 54.176 42.56ZM55.752 39.944C55.224 40.536 54.256 41.168 53.312 41.536C53.224 41.32 53.024 40.984 52.864 40.792C53.832 40.464 54.808 39.824 55.304 39.216H56.144C56.824 39.912 57.784 40.464 58.72 40.736C58.544 40.944 58.352 41.272 58.216 41.52C57.376 41.2 56.336 40.56 55.752 39.944ZM54.52 44.216H55.472V46.28H54.52V44.216ZM51.224 41.144L51.744 40.536C52.136 40.736 52.664 41.064 52.92 41.304L52.376 41.976C52.136 41.728 51.624 41.376 51.224 41.144ZM51.736 39.84L52.28 39.248C52.664 39.456 53.168 39.776 53.416 40.008L52.848 40.656C52.616 40.416 52.12 40.072 51.736 39.84ZM51.472 43.824C51.816 43.432 52.32 42.776 52.736 42.168L53.272 42.696C52.92 43.256 52.496 43.864 52.112 44.384L51.472 43.824ZM62.488 42.912H63.464V43.944H62.488V42.912ZM62.392 43.688L63.136 44.008C62.36 44.776 61.048 45.336 59.72 45.584C59.608 45.376 59.376 45.064 59.208 44.896C60.472 44.704 61.752 44.272 62.392 43.688ZM63.624 43.704C64.096 44.92 65.136 45.696 66.792 45.968C66.6 46.152 66.36 46.504 66.256 46.744C64.44 46.36 63.416 45.424 62.816 43.872L63.624 43.704ZM65.64 44.104L66.32 44.608C65.832 44.952 65.2 45.288 64.72 45.496L64.152 45.032C64.624 44.808 65.264 44.408 65.64 44.104ZM60.168 45.864C61.032 45.768 62.344 45.592 63.56 45.424L63.608 46.208C62.456 46.384 61.216 46.552 60.32 46.68L60.168 45.864ZM59.352 43.464H66.648V44.184H59.352V43.464ZM62.176 40.136H66.632V40.96H62.176V40.136ZM62.376 41.904H66.424V42.728H62.376V41.904ZM60.968 39.208H61.856V43.08H60.968V39.208ZM63.88 39.208H64.84V42.472H63.88V39.208ZM59.376 40.112L59.928 39.568C60.272 39.8 60.728 40.136 60.944 40.376L60.36 40.984C60.16 40.736 59.728 40.36 59.376 40.112ZM59.224 41.96C59.64 41.816 60.216 41.576 60.808 41.328L61 42.088C60.512 42.312 59.992 42.544 59.536 42.744L59.224 41.96ZM61.072 44.96L61.6 44.432L61.992 44.56V46.16H61.072V44.96ZM70.48 43.48H71.472V45.984H70.48V43.48ZM68.376 41.168H73.648V41.992H68.376V41.168ZM67.456 45.656H74.576V46.504H67.456V45.656ZM68.168 44.216H73.944V45.04H68.168V44.216ZM69.656 41.64L70.68 41.888C70.368 42.424 70.016 42.976 69.744 43.352L68.952 43.112C69.2 42.704 69.496 42.088 69.656 41.64ZM68.024 42.752C69.368 42.744 71.44 42.696 73.352 42.656L73.304 43.456C71.424 43.528 69.416 43.576 68.064 43.608L68.024 42.752ZM71.784 42.328L72.48 41.864C73.088 42.296 73.872 42.936 74.24 43.4L73.488 43.912C73.152 43.464 72.4 42.792 71.784 42.328ZM70.48 39.216H71.472V40.328H70.48V39.216ZM67.48 39.728H74.536V41.4H73.552V40.6H68.416V41.4H67.48V39.728Z" fill="#954D2B"/>
<rect x="9.5" y="68.5" width="65" height="13" fill="white" stroke="#E2B953"/>
<path d="M17.338 73.568C17.338 73.8293 17.282 74.056 17.17 74.248C17.0633 74.44 16.9167 74.5973 16.73 74.72C16.5487 74.8427 16.3407 74.9333 16.106 74.992V75.016C16.5647 75.0693 16.9113 75.208 17.146 75.432C17.386 75.656 17.506 75.9573 17.506 76.336C17.506 76.6667 17.4233 76.9653 17.258 77.232C17.098 77.4933 16.8473 77.7013 16.506 77.856C16.17 78.0053 15.7353 78.08 15.202 78.08C14.8873 78.08 14.594 78.0533 14.322 78C14.05 77.9467 13.794 77.8693 13.554 77.768V76.744C13.7993 76.8667 14.0553 76.96 14.322 77.024C14.594 77.088 14.8447 77.12 15.074 77.12C15.506 77.12 15.8073 77.0453 15.978 76.896C16.154 76.7467 16.242 76.536 16.242 76.264C16.242 76.104 16.202 75.9707 16.122 75.864C16.042 75.752 15.9007 75.6693 15.698 75.616C15.5007 75.5573 15.2233 75.528 14.866 75.528H14.434V74.6H14.874C15.226 74.6 15.4927 74.568 15.674 74.504C15.8607 74.4347 15.986 74.344 16.05 74.232C16.1193 74.1147 16.154 73.9813 16.154 73.832C16.154 73.6293 16.09 73.472 15.962 73.36C15.8393 73.2427 15.6313 73.184 15.338 73.184C15.1567 73.184 14.9913 73.208 14.842 73.256C14.6927 73.2987 14.5567 73.352 14.434 73.416C14.3167 73.48 14.2127 73.5413 14.122 73.6L13.562 72.768C13.7113 72.6613 13.8767 72.5653 14.058 72.48C14.2447 72.3947 14.45 72.328 14.674 72.28C14.898 72.232 15.1487 72.208 15.426 72.208C16.0127 72.208 16.4767 72.328 16.818 72.568C17.1647 72.8027 17.338 73.136 17.338 73.568ZM23.2841 75.088C23.2841 75.728 23.1615 76.264 22.9161 76.696C22.6708 77.128 22.3135 77.4533 21.8441 77.672C21.3801 77.8907 20.8201 78 20.1641 78H18.5481V72.288H20.3401C20.9375 72.288 21.4548 72.3947 21.8921 72.608C22.3348 72.8213 22.6761 73.136 22.9161 73.552C23.1615 73.9627 23.2841 74.4747 23.2841 75.088ZM22.0281 75.12C22.0281 74.6987 21.9668 74.352 21.8441 74.08C21.7215 73.808 21.5375 73.608 21.2921 73.48C21.0521 73.3467 20.7561 73.28 20.4041 73.28H19.7561V77H20.2761C20.8681 77 21.3081 76.8427 21.5961 76.528C21.8841 76.2133 22.0281 75.744 22.0281 75.12ZM30.174 72.136C30.174 72.392 30.382 72.6 30.638 72.6C30.894 72.6 31.102 72.392 31.102 72.136C31.102 71.88 30.894 71.672 30.638 71.672C30.382 71.672 30.174 71.88 30.174 72.136ZM29.678 72.136C29.678 71.608 30.11 71.176 30.638 71.176C31.166 71.176 31.598 71.608 31.598 72.136C31.598 72.664 31.166 73.096 30.638 73.096C30.11 73.096 29.678 72.664 29.678 72.136ZM30.654 72.768C30.574 72.92 30.518 73.152 30.478 73.32C30.294 74.104 29.942 75.352 29.27 76.24C28.55 77.2 27.486 77.992 26.054 78.448L25.182 77.488C26.774 77.12 27.678 76.424 28.318 75.616C28.854 74.952 29.158 74.04 29.262 73.352C28.774 73.352 26.134 73.352 25.534 73.352C25.166 73.352 24.79 73.376 24.582 73.392V72.256C24.822 72.288 25.27 72.328 25.534 72.328C26.134 72.328 28.79 72.328 29.238 72.328C29.398 72.328 29.654 72.32 29.862 72.264L30.654 72.768ZM38.166 71.792C38.15 72.016 38.142 72.272 38.142 72.6C38.142 73.008 38.142 73.784 38.142 74.176C38.142 75.904 37.806 76.64 37.206 77.296C36.678 77.88 35.854 78.264 35.27 78.456L34.43 77.568C35.23 77.384 35.87 77.08 36.358 76.56C36.902 75.96 37.014 75.36 37.014 74.112C37.014 73.712 37.014 72.944 37.014 72.6C37.014 72.272 36.99 72.016 36.958 71.792H38.166ZM34.462 71.864C34.446 72.048 34.43 72.224 34.43 72.472C34.43 72.824 34.43 74.728 34.43 75.176C34.43 75.376 34.446 75.688 34.462 75.872H33.294C33.31 75.728 33.334 75.416 33.334 75.168C33.334 74.712 33.334 72.824 33.334 72.472C33.334 72.328 33.326 72.048 33.302 71.864H34.462ZM41.678 71.92C42.23 72.296 43.27 73.128 43.742 73.616L42.926 74.448C42.51 74 41.502 73.128 40.918 72.728L41.678 71.92ZM40.67 77.248C41.926 77.072 42.958 76.664 43.734 76.208C45.102 75.392 46.142 74.176 46.654 73.096L47.27 74.216C46.67 75.304 45.606 76.408 44.318 77.184C43.502 77.672 42.47 78.112 41.35 78.304L40.67 77.248ZM51.174 74.256C52.158 74.824 53.638 75.848 54.382 76.44L53.614 77.352C52.918 76.696 51.398 75.576 50.462 74.984L51.174 74.256ZM54.942 72.896C54.846 73.048 54.742 73.272 54.67 73.472C54.43 74.208 53.942 75.232 53.222 76.12C52.47 77.056 51.446 77.952 49.918 78.528L48.99 77.728C50.662 77.208 51.614 76.368 52.302 75.568C52.838 74.936 53.334 74.016 53.486 73.392H50.782L51.15 72.488H53.43C53.678 72.488 53.942 72.448 54.126 72.392L54.942 72.896ZM52.294 71.664C52.102 71.944 51.894 72.312 51.798 72.48C51.262 73.448 50.238 74.672 49.086 75.464L48.23 74.8C49.63 73.936 50.366 72.84 50.774 72.144C50.894 71.952 51.062 71.584 51.134 71.304L52.294 71.664ZM56.478 74.296C56.774 74.32 57.35 74.352 57.766 74.352C58.71 74.352 61.35 74.352 62.062 74.352C62.438 74.352 62.79 74.312 63.006 74.296V75.56C62.814 75.552 62.406 75.512 62.07 75.512C61.342 75.512 58.71 75.512 57.766 75.512C57.318 75.512 56.782 75.536 56.478 75.56V74.296ZM67.23 75.48H68.222V77.984H67.23V75.48ZM65.126 73.168H70.398V73.992H65.126V73.168ZM64.206 77.656H71.326V78.504H64.206V77.656ZM64.918 76.216H70.694V77.04H64.918V76.216ZM66.406 73.64L67.43 73.888C67.118 74.424 66.766 74.976 66.494 75.352L65.702 75.112C65.95 74.704 66.246 74.088 66.406 73.64ZM64.774 74.752C66.118 74.744 68.19 74.696 70.102 74.656L70.054 75.456C68.174 75.528 66.166 75.576 64.814 75.608L64.774 74.752ZM68.534 74.328L69.23 73.864C69.838 74.296 70.622 74.936 70.99 75.4L70.238 75.912C69.902 75.464 69.15 74.792 68.534 74.328ZM67.23 71.216H68.222V72.328H67.23V71.216ZM64.23 71.728H71.286V73.4H70.302V72.6H65.166V73.4H64.23V71.728Z" fill="#954D2B"/>
<rect x="3.5" y="90.5" width="90" height="13" fill="white" stroke="#E2B953"/>
<path d="M12.7131 94.136C12.7131 94.392 12.9211 94.6 13.1771 94.6C13.4331 94.6 13.6411 94.392 13.6411 94.136C13.6411 93.88 13.4331 93.672 13.1771 93.672C12.9211 93.672 12.7131 93.88 12.7131 94.136ZM12.2171 94.136C12.2171 93.608 12.6491 93.176 13.1771 93.176C13.7051 93.176 14.1371 93.608 14.1371 94.136C14.1371 94.664 13.7051 95.096 13.1771 95.096C12.6491 95.096 12.2171 94.664 12.2171 94.136ZM13.1931 94.768C13.1131 94.92 13.0571 95.152 13.0171 95.32C12.8331 96.104 12.4811 97.352 11.8091 98.24C11.0891 99.2 10.0251 99.992 8.59306 100.448L7.72106 99.488C9.31306 99.12 10.2171 98.424 10.8571 97.616C11.3931 96.952 11.6971 96.04 11.8011 95.352C11.3131 95.352 8.67306 95.352 8.07306 95.352C7.70506 95.352 7.32906 95.376 7.12106 95.392V94.256C7.36106 94.288 7.80906 94.328 8.07306 94.328C8.67306 94.328 11.3291 94.328 11.7771 94.328C11.9371 94.328 12.1931 94.32 12.4011 94.264L13.1931 94.768ZM15.8491 99.688C15.9371 99.488 15.9531 99.352 15.9531 99.168C15.9531 98.56 15.9531 95.72 15.9531 94.824C15.9531 94.528 15.9051 94.144 15.8571 93.92H17.1131C17.0731 94.224 17.0411 94.52 17.0411 94.824C17.0411 95.712 17.0411 98.376 17.0411 98.984C18.3451 98.616 20.1291 97.592 21.1531 96.336L21.7211 97.248C20.6251 98.552 18.9611 99.512 17.0731 100.128C16.9691 100.16 16.7931 100.216 16.6011 100.344L15.8491 99.688ZM28.4731 93.464C28.6731 93.752 28.9611 94.264 29.1051 94.56L28.4651 94.832C28.3051 94.504 28.0571 94.032 27.8411 93.72L28.4731 93.464ZM29.4171 93.104C29.6331 93.4 29.9211 93.912 30.0651 94.192L29.4331 94.464C29.2651 94.128 29.0091 93.664 28.7851 93.36L29.4171 93.104ZM24.4251 99.088C24.4251 98.432 24.4251 95.736 24.4251 94.76C24.4251 94.488 24.4011 94.08 24.3611 93.84H25.5531C25.5211 94.08 25.4891 94.488 25.4891 94.76C25.4891 95.728 25.4891 97.92 25.4891 98.808C25.4891 99.312 25.6251 99.48 26.5051 99.48C27.3451 99.48 28.2331 99.376 29.0251 99.216L28.9931 100.304C28.3291 100.4 27.3771 100.48 26.5131 100.48C24.6891 100.48 24.4251 100.04 24.4251 99.088ZM29.4651 95.576C29.3931 95.688 29.2731 95.872 29.2011 96.008C28.8491 96.68 28.1211 97.776 27.5451 98.344L26.6651 97.824C27.1931 97.352 27.7211 96.616 27.9451 96.2C27.4571 96.304 23.7531 97.032 22.7451 97.264L22.5531 96.208C23.6331 96.08 27.4011 95.344 28.1291 95.168C28.3531 95.112 28.5451 95.064 28.6971 94.976L29.4651 95.576ZM32.2171 93.92C32.7691 94.296 33.8091 95.128 34.2811 95.616L33.4651 96.448C33.0491 96 32.0411 95.128 31.4571 94.728L32.2171 93.92ZM31.2091 99.248C32.4651 99.072 33.4971 98.664 34.2731 98.208C35.6411 97.392 36.6811 96.176 37.1931 95.096L37.8091 96.216C37.2091 97.304 36.1451 98.408 34.8571 99.184C34.0411 99.672 33.0091 100.112 31.8891 100.304L31.2091 99.248ZM39.8971 93.872C40.1531 93.904 40.4811 93.928 40.7531 93.928C41.2571 93.928 43.4971 93.928 43.9691 93.928C44.2331 93.928 44.5531 93.904 44.8251 93.872V94.904C44.5531 94.888 44.2411 94.872 43.9691 94.872C43.4971 94.872 41.2571 94.872 40.7531 94.872C40.4811 94.872 40.1371 94.888 39.8971 94.904V93.872ZM38.9611 95.912C39.2011 95.944 39.4811 95.96 39.7291 95.96C40.2331 95.96 44.4971 95.96 44.9691 95.96C45.1371 95.96 45.4891 95.952 45.7051 95.912V96.952C45.4971 96.944 45.1931 96.936 44.9691 96.936C44.4971 96.936 40.2331 96.936 39.7291 96.936C39.4971 96.936 39.1851 96.944 38.9611 96.96V95.912ZM43.0571 96.472C43.0571 97.52 42.8731 98.32 42.5291 98.984C42.2571 99.544 41.6331 100.16 40.9291 100.528L39.9851 99.848C40.5531 99.624 41.1211 99.168 41.4331 98.696C41.8331 98.088 41.9451 97.336 41.9451 96.48L43.0571 96.472ZM47.0171 96.296C47.3131 96.32 47.8891 96.352 48.3051 96.352C49.2491 96.352 51.8891 96.352 52.6011 96.352C52.9771 96.352 53.3291 96.312 53.5451 96.296V97.56C53.3531 97.552 52.9451 97.512 52.6091 97.512C51.8811 97.512 49.2491 97.512 48.3051 97.512C47.8571 97.512 47.3211 97.536 47.0171 97.56V96.296ZM56.5968 93.672C57.1248 93.96 58.0048 94.52 58.4208 94.816L57.8288 95.696C57.3808 95.384 56.5488 94.848 56.0208 94.552L56.5968 93.672ZM55.1168 99.352C56.0128 99.2 56.9648 98.928 57.8368 98.448C59.1968 97.688 60.3168 96.592 60.9488 95.448L61.5648 96.536C60.8288 97.648 59.6928 98.656 58.3888 99.416C57.5728 99.872 56.4208 100.272 55.7168 100.4L55.1168 99.352ZM55.3648 95.496C55.9008 95.784 56.7808 96.328 57.1968 96.624L56.6048 97.52C56.1568 97.2 55.3248 96.664 54.7888 96.376L55.3648 95.496ZM63.8288 95.488C64.0368 95.504 64.5248 95.52 64.8208 95.52C65.4768 95.52 67.1888 95.52 67.8528 95.52C68.0368 95.52 68.3328 95.512 68.4608 95.504C68.4528 95.616 68.4528 95.88 68.4528 96.048C68.4528 96.368 68.4528 99.424 68.4528 100.056C68.4528 100.184 68.4608 100.464 68.4608 100.6H67.4608C67.4688 100.472 67.4688 100.168 67.4688 100.008C67.4688 99.192 67.4688 96.688 67.4688 96.424C67.1568 96.424 65.4688 96.424 64.8208 96.424C64.5248 96.424 64.0288 96.44 63.8288 96.448V95.488ZM64.0368 97.36C64.2448 97.376 64.6128 97.384 64.9168 97.384C65.3088 97.384 67.7168 97.384 67.9328 97.384V98.296C67.7088 98.296 65.3088 98.296 64.9168 98.296C64.6128 98.296 64.2288 98.296 64.0368 98.312V97.36ZM63.7488 99.32C63.8768 99.336 64.1488 99.352 64.4368 99.352C64.9328 99.352 67.5968 99.352 67.9408 99.352V100.288C67.5008 100.288 64.9328 100.288 64.4368 100.288C64.2048 100.288 63.8768 100.304 63.7488 100.304V99.32ZM72.0608 93.92C72.6128 94.296 73.6528 95.128 74.1248 95.616L73.3088 96.448C72.8928 96 71.8848 95.128 71.3008 94.728L72.0608 93.92ZM71.0528 99.248C72.3088 99.072 73.3408 98.664 74.1168 98.208C75.4848 97.392 76.5248 96.176 77.0368 95.096L77.6528 96.216C77.0528 97.304 75.9888 98.408 74.7008 99.184C73.8848 99.672 72.8528 100.112 71.7328 100.304L71.0528 99.248ZM81.6128 97.48H82.6048V99.984H81.6128V97.48ZM79.5088 95.168H84.7808V95.992H79.5088V95.168ZM78.5888 99.656H85.7088V100.504H78.5888V99.656ZM79.3008 98.216H85.0768V99.04H79.3008V98.216ZM80.7888 95.64L81.8128 95.888C81.5008 96.424 81.1488 96.976 80.8768 97.352L80.0848 97.112C80.3328 96.704 80.6288 96.088 80.7888 95.64ZM79.1568 96.752C80.5008 96.744 82.5728 96.696 84.4848 96.656L84.4368 97.456C82.5568 97.528 80.5488 97.576 79.1968 97.608L79.1568 96.752ZM82.9168 96.328L83.6128 95.864C84.2208 96.296 85.0048 96.936 85.3728 97.4L84.6208 97.912C84.2848 97.464 83.5328 96.792 82.9168 96.328ZM81.6128 93.216H82.6048V94.328H81.6128V93.216ZM78.6128 93.728H85.6688V95.4H84.6848V94.6H79.5488V95.4H78.6128V93.728ZM89.4368 100H88.2288V96.696C88.2288 96.6053 88.2288 96.4933 88.2288 96.36C88.2341 96.2267 88.2395 96.088 88.2448 95.944C88.2501 95.8 88.2555 95.672 88.2608 95.56C88.2341 95.592 88.1755 95.6507 88.0848 95.736C87.9995 95.816 87.9195 95.888 87.8448 95.952L87.1888 96.48L86.6048 95.752L88.4448 94.288H89.4368V100Z" fill="#954D2B"/>
<rect x="0.5" y="124.5" width="90" height="13" fill="white" stroke="#E2B953"/>
<path d="M9.71306 128.136C9.71306 128.392 9.92106 128.6 10.1771 128.6C10.4331 128.6 10.6411 128.392 10.6411 128.136C10.6411 127.88 10.4331 127.672 10.1771 127.672C9.92106 127.672 9.71306 127.88 9.71306 128.136ZM9.21706 128.136C9.21706 127.608 9.64906 127.176 10.1771 127.176C10.7051 127.176 11.1371 127.608 11.1371 128.136C11.1371 128.664 10.7051 129.096 10.1771 129.096C9.64906 129.096 9.21706 128.664 9.21706 128.136ZM10.1931 128.768C10.1131 128.92 10.0571 129.152 10.0171 129.32C9.83306 130.104 9.48106 131.352 8.80906 132.24C8.08906 133.2 7.02506 133.992 5.59306 134.448L4.72106 133.488C6.31306 133.12 7.21706 132.424 7.85706 131.616C8.39306 130.952 8.69706 130.04 8.80106 129.352C8.31306 129.352 5.67306 129.352 5.07306 129.352C4.70506 129.352 4.32906 129.376 4.12106 129.392V128.256C4.36106 128.288 4.80906 128.328 5.07306 128.328C5.67306 128.328 8.32906 128.328 8.77706 128.328C8.93706 128.328 9.19306 128.32 9.40106 128.264L10.1931 128.768ZM12.8491 133.688C12.9371 133.488 12.9531 133.352 12.9531 133.168C12.9531 132.56 12.9531 129.72 12.9531 128.824C12.9531 128.528 12.9051 128.144 12.8571 127.92H14.1131C14.0731 128.224 14.0411 128.52 14.0411 128.824C14.0411 129.712 14.0411 132.376 14.0411 132.984C15.3451 132.616 17.1291 131.592 18.1531 130.336L18.7211 131.248C17.6251 132.552 15.9611 133.512 14.0731 134.128C13.9691 134.16 13.7931 134.216 13.6011 134.344L12.8491 133.688ZM25.4731 127.464C25.6731 127.752 25.9611 128.264 26.1051 128.56L25.4651 128.832C25.3051 128.504 25.0571 128.032 24.8411 127.72L25.4731 127.464ZM26.4171 127.104C26.6331 127.4 26.9211 127.912 27.0651 128.192L26.4331 128.464C26.2651 128.128 26.0091 127.664 25.7851 127.36L26.4171 127.104ZM21.4251 133.088C21.4251 132.432 21.4251 129.736 21.4251 128.76C21.4251 128.488 21.4011 128.08 21.3611 127.84H22.5531C22.5211 128.08 22.4891 128.488 22.4891 128.76C22.4891 129.728 22.4891 131.92 22.4891 132.808C22.4891 133.312 22.6251 133.48 23.5051 133.48C24.3451 133.48 25.2331 133.376 26.0251 133.216L25.9931 134.304C25.3291 134.4 24.3771 134.48 23.5131 134.48C21.6891 134.48 21.4251 134.04 21.4251 133.088ZM26.4651 129.576C26.3931 129.688 26.2731 129.872 26.2011 130.008C25.8491 130.68 25.1211 131.776 24.5451 132.344L23.6651 131.824C24.1931 131.352 24.7211 130.616 24.9451 130.2C24.4571 130.304 20.7531 131.032 19.7451 131.264L19.5531 130.208C20.6331 130.08 24.4011 129.344 25.1291 129.168C25.3531 129.112 25.5451 129.064 25.6971 128.976L26.4651 129.576ZM29.2171 127.92C29.7691 128.296 30.8091 129.128 31.2811 129.616L30.4651 130.448C30.0491 130 29.0411 129.128 28.4571 128.728L29.2171 127.92ZM28.2091 133.248C29.4651 133.072 30.4971 132.664 31.2731 132.208C32.6411 131.392 33.6811 130.176 34.1931 129.096L34.8091 130.216C34.2091 131.304 33.1451 132.408 31.8571 133.184C31.0411 133.672 30.0091 134.112 28.8891 134.304L28.2091 133.248ZM36.8971 127.872C37.1531 127.904 37.4811 127.928 37.7531 127.928C38.2571 127.928 40.4971 127.928 40.9691 127.928C41.2331 127.928 41.5531 127.904 41.8251 127.872V128.904C41.5531 128.888 41.2411 128.872 40.9691 128.872C40.4971 128.872 38.2571 128.872 37.7531 128.872C37.4811 128.872 37.1371 128.888 36.8971 128.904V127.872ZM35.9611 129.912C36.2011 129.944 36.4811 129.96 36.7291 129.96C37.2331 129.96 41.4971 129.96 41.9691 129.96C42.1371 129.96 42.4891 129.952 42.7051 129.912V130.952C42.4971 130.944 42.1931 130.936 41.9691 130.936C41.4971 130.936 37.2331 130.936 36.7291 130.936C36.4971 130.936 36.1851 130.944 35.9611 130.96V129.912ZM40.0571 130.472C40.0571 131.52 39.8731 132.32 39.5291 132.984C39.2571 133.544 38.6331 134.16 37.9291 134.528L36.9851 133.848C37.5531 133.624 38.1211 133.168 38.4331 132.696C38.8331 132.088 38.9451 131.336 38.9451 130.48L40.0571 130.472ZM44.0171 130.296C44.3131 130.32 44.8891 130.352 45.3051 130.352C46.2491 130.352 48.8891 130.352 49.6011 130.352C49.9771 130.352 50.3291 130.312 50.5451 130.296V131.56C50.3531 131.552 49.9451 131.512 49.6091 131.512C48.8811 131.512 46.2491 131.512 45.3051 131.512C44.8571 131.512 44.3211 131.536 44.0171 131.56V130.296ZM53.5968 127.672C54.1248 127.96 55.0048 128.52 55.4208 128.816L54.8288 129.696C54.3808 129.384 53.5488 128.848 53.0208 128.552L53.5968 127.672ZM52.1168 133.352C53.0128 133.2 53.9648 132.928 54.8368 132.448C56.1968 131.688 57.3168 130.592 57.9488 129.448L58.5648 130.536C57.8288 131.648 56.6928 132.656 55.3888 133.416C54.5728 133.872 53.4208 134.272 52.7168 134.4L52.1168 133.352ZM52.3648 129.496C52.9008 129.784 53.7808 130.328 54.1968 130.624L53.6048 131.52C53.1568 131.2 52.3248 130.664 51.7888 130.376L52.3648 129.496ZM60.8288 129.488C61.0368 129.504 61.5248 129.52 61.8208 129.52C62.4768 129.52 64.1888 129.52 64.8528 129.52C65.0368 129.52 65.3328 129.512 65.4608 129.504C65.4528 129.616 65.4528 129.88 65.4528 130.048C65.4528 130.368 65.4528 133.424 65.4528 134.056C65.4528 134.184 65.4608 134.464 65.4608 134.6H64.4608C64.4688 134.472 64.4688 134.168 64.4688 134.008C64.4688 133.192 64.4688 130.688 64.4688 130.424C64.1568 130.424 62.4688 130.424 61.8208 130.424C61.5248 130.424 61.0288 130.44 60.8288 130.448V129.488ZM61.0368 131.36C61.2448 131.376 61.6128 131.384 61.9168 131.384C62.3088 131.384 64.7168 131.384 64.9328 131.384V132.296C64.7088 132.296 62.3088 132.296 61.9168 132.296C61.6128 132.296 61.2288 132.296 61.0368 132.312V131.36ZM60.7488 133.32C60.8768 133.336 61.1488 133.352 61.4368 133.352C61.9328 133.352 64.5968 133.352 64.9408 133.352V134.288C64.5008 134.288 61.9328 134.288 61.4368 134.288C61.2048 134.288 60.8768 134.304 60.7488 134.304V133.32ZM69.0608 127.92C69.6128 128.296 70.6528 129.128 71.1248 129.616L70.3088 130.448C69.8928 130 68.8848 129.128 68.3008 128.728L69.0608 127.92ZM68.0528 133.248C69.3088 133.072 70.3408 132.664 71.1168 132.208C72.4848 131.392 73.5248 130.176 74.0368 129.096L74.6528 130.216C74.0528 131.304 72.9888 132.408 71.7008 133.184C70.8848 133.672 69.8528 134.112 68.7328 134.304L68.0528 133.248ZM78.6128 131.48H79.6048V133.984H78.6128V131.48ZM76.5088 129.168H81.7808V129.992H76.5088V129.168ZM75.5888 133.656H82.7088V134.504H75.5888V133.656ZM76.3008 132.216H82.0768V133.04H76.3008V132.216ZM77.7888 129.64L78.8128 129.888C78.5008 130.424 78.1488 130.976 77.8768 131.352L77.0848 131.112C77.3328 130.704 77.6288 130.088 77.7888 129.64ZM76.1568 130.752C77.5008 130.744 79.5728 130.696 81.4848 130.656L81.4368 131.456C79.5568 131.528 77.5488 131.576 76.1968 131.608L76.1568 130.752ZM79.9168 130.328L80.6128 129.864C81.2208 130.296 82.0048 130.936 82.3728 131.4L81.6208 131.912C81.2848 131.464 80.5328 130.792 79.9168 130.328ZM78.6128 127.216H79.6048V128.328H78.6128V127.216ZM75.6128 127.728H82.6688V129.4H81.6848V128.6H76.5488V129.4H75.6128V127.728ZM87.4448 134H83.4528V133.16L84.8848 131.712C85.1728 131.413 85.4048 131.165 85.5808 130.968C85.7568 130.765 85.8848 130.584 85.9648 130.424C86.0448 130.259 86.0848 130.083 86.0848 129.896C86.0848 129.667 86.0208 129.496 85.8928 129.384C85.7701 129.272 85.6021 129.216 85.3888 129.216C85.1701 129.216 84.9568 129.267 84.7488 129.368C84.5408 129.469 84.3221 129.613 84.0928 129.8L83.4368 129.024C83.6021 128.88 83.7755 128.747 83.9568 128.624C84.1435 128.501 84.3568 128.403 84.5968 128.328C84.8421 128.248 85.1355 128.208 85.4768 128.208C85.8501 128.208 86.1701 128.277 86.4368 128.416C86.7088 128.549 86.9168 128.733 87.0608 128.968C87.2101 129.197 87.2848 129.459 87.2848 129.752C87.2848 129.992 87.2475 130.213 87.1728 130.416C87.1035 130.619 86.9995 130.816 86.8608 131.008C86.7275 131.195 86.5621 131.389 86.3648 131.592C86.1675 131.789 85.9435 132.005 85.6928 132.24L84.9568 132.928V132.984H87.4448V134Z" fill="#954D2B"/>
</svg>
