<svg width="346" height="113" viewBox="0 0 346 113" fill="none" xmlns="http://www.w3.org/2000/svg">
<path d="M262.565 37.9845L266.913 30.4093M262.565 37.9845H279.943M262.565 37.9845L256.753 47.7876M298.658 61.1554H345L314.254 112.399H218.451M298.658 61.1554L303.509 53.0177M298.658 61.1554H294.202M98.5855 112.399H1L68.7306 1H218.451L210.43 13.9223H276.378L266.913 30.4093M98.5855 112.399L148.938 30.4093H266.913M98.5855 112.399H218.451M218.451 112.399L248.829 61.1554M248.829 61.1554H265.684M248.829 61.1554L253.653 53.0177M265.684 61.1554L270.692 53.0177M265.684 61.1554H269.694M279.943 37.9845L275.007 46.0052M279.943 37.9845H283.285M256.753 47.7876H273.91M256.753 47.7876L255.697 49.5699M273.91 47.7876L272.813 49.5699M273.91 47.7876L275.007 46.0052M255.697 49.5699H272.813M255.697 49.5699L254.64 51.3523M272.813 49.5699L271.717 51.3523M254.64 51.3523H271.717M254.64 51.3523L253.653 53.0177M271.717 51.3523L270.692 53.0177M253.653 53.0177H270.692M270.692 53.0177H274.596M275.007 46.0052H278.589M289.301 46.0052L294.202 37.9845M289.301 46.0052H285.736M289.301 46.0052H307.69M289.301 46.0052L287.262 50.0155M294.202 37.9845H312.472L307.69 46.0052M294.202 37.9845H290.192M285.736 46.0052L290.192 37.9845M285.736 46.0052H282.171M290.192 37.9845H286.627M282.171 46.0052L286.627 37.9845M282.171 46.0052H278.589M286.627 37.9845H283.285M278.589 46.0052L283.285 37.9845M307.69 46.0052L306.627 47.7876M288.409 47.7583L306.627 47.7876M306.627 47.7876L305.565 49.5699M305.565 49.5699L287.518 49.5114L287.262 50.0155M305.565 49.5699L304.672 51.0675M286.627 51.3523L304.672 51.0675M304.672 51.0675L303.509 53.0177M303.509 53.0177H295.539M303.509 53.0177L298.658 52.6891L294.202 61.1554M285.736 53.0177L287.262 50.0155M285.736 53.0177H285.29M285.736 53.0177H288.855M269.694 61.1554L274.596 53.0177M269.694 61.1554H273.259M274.596 53.0177H278.161M273.259 61.1554L278.161 53.0177M273.259 61.1554H277.269M278.161 53.0177H281.725M277.269 61.1554L281.725 53.0177M277.269 61.1554H280.834M281.725 53.0177H285.29M280.834 61.1554L285.29 53.0177M280.834 61.1554H284.399M284.399 61.1554L288.855 53.0177M284.399 61.1554H287.518M288.855 53.0177H291.974M287.518 61.1554L291.974 53.0177M287.518 61.1554H291.083M291.974 53.0177H295.539M291.083 61.1554L295.539 53.0177M291.083 61.1554H294.202" stroke="#F3858E"/>
<rect x="123" y="52" width="86" height="24" fill="white" stroke="#34B9F0" stroke-width="2"/>
<path d="M136.409 65.624C136.409 66.128 136.285 66.568 136.037 66.944C135.789 67.32 135.429 67.612 134.957 67.82C134.493 68.02 133.925 68.12 133.253 68.12C132.957 68.12 132.665 68.1 132.377 68.06C132.097 68.02 131.825 67.964 131.561 67.892C131.305 67.812 131.061 67.716 130.829 67.604V65.912C131.237 66.088 131.657 66.252 132.089 66.404C132.529 66.548 132.965 66.62 133.397 66.62C133.693 66.62 133.929 66.58 134.105 66.5C134.289 66.42 134.421 66.312 134.501 66.176C134.589 66.04 134.633 65.884 134.633 65.708C134.633 65.492 134.557 65.308 134.405 65.156C134.261 65.004 134.065 64.864 133.817 64.736C133.569 64.6 133.285 64.456 132.965 64.304C132.765 64.208 132.549 64.096 132.317 63.968C132.085 63.832 131.861 63.668 131.645 63.476C131.437 63.276 131.265 63.036 131.129 62.756C130.993 62.476 130.925 62.14 130.925 61.748C130.925 61.236 131.041 60.8 131.273 60.44C131.513 60.072 131.849 59.792 132.281 59.6C132.721 59.408 133.237 59.312 133.829 59.312C134.277 59.312 134.701 59.364 135.101 59.468C135.509 59.572 135.933 59.72 136.373 59.912L135.785 61.328C135.393 61.168 135.041 61.044 134.729 60.956C134.417 60.868 134.097 60.824 133.769 60.824C133.545 60.824 133.353 60.86 133.193 60.932C133.033 61.004 132.909 61.104 132.821 61.232C132.741 61.36 132.701 61.512 132.701 61.688C132.701 61.888 132.761 62.06 132.881 62.204C133.001 62.34 133.181 62.472 133.421 62.6C133.661 62.728 133.961 62.88 134.321 63.056C134.761 63.264 135.133 63.48 135.437 63.704C135.749 63.928 135.989 64.192 136.157 64.496C136.325 64.8 136.409 65.176 136.409 65.624ZM141.267 68H139.455V60.944H137.127V59.432H143.595V60.944H141.267V68ZM149.316 68L148.692 65.96H145.572L144.948 68H142.992L146.016 59.396H148.236L151.272 68H149.316ZM147.636 62.444C147.596 62.308 147.544 62.136 147.48 61.928C147.416 61.72 147.352 61.508 147.288 61.292C147.224 61.076 147.172 60.888 147.132 60.728C147.092 60.888 147.036 61.088 146.964 61.328C146.9 61.56 146.836 61.784 146.772 62C146.716 62.208 146.672 62.356 146.64 62.444L146.028 64.436H148.26L147.636 62.444ZM154.145 68H152.357V59.432H157.265V60.92H154.145V63.128H157.049V64.616H154.145V68ZM160.731 68H158.943V59.432H163.851V60.92H160.731V63.128H163.635V64.616H160.731V68ZM176.422 63.704C176.422 64.368 176.338 64.972 176.17 65.516C176.01 66.052 175.762 66.516 175.426 66.908C175.098 67.3 174.674 67.6 174.154 67.808C173.642 68.016 173.038 68.12 172.342 68.12C171.646 68.12 171.038 68.016 170.518 67.808C170.006 67.592 169.582 67.292 169.246 66.908C168.918 66.516 168.67 66.048 168.502 65.504C168.342 64.96 168.262 64.356 168.262 63.692C168.262 62.804 168.406 62.032 168.694 61.376C168.99 60.72 169.438 60.212 170.038 59.852C170.646 59.484 171.418 59.3 172.354 59.3C173.282 59.3 174.046 59.484 174.646 59.852C175.246 60.212 175.69 60.724 175.978 61.388C176.274 62.044 176.422 62.816 176.422 63.704ZM170.17 63.704C170.17 64.304 170.246 64.82 170.398 65.252C170.55 65.684 170.786 66.016 171.106 66.248C171.426 66.48 171.838 66.596 172.342 66.596C172.862 66.596 173.278 66.48 173.59 66.248C173.91 66.016 174.142 65.684 174.286 65.252C174.438 64.82 174.514 64.304 174.514 63.704C174.514 62.8 174.346 62.092 174.01 61.58C173.674 61.068 173.122 60.812 172.354 60.812C171.842 60.812 171.426 60.928 171.106 61.16C170.786 61.392 170.55 61.724 170.398 62.156C170.246 62.588 170.17 63.104 170.17 63.704ZM185.793 68H183.489L179.757 61.52H179.709C179.717 61.72 179.725 61.924 179.733 62.132C179.741 62.332 179.749 62.536 179.757 62.744C179.773 62.944 179.785 63.148 179.793 63.356C179.801 63.556 179.809 63.76 179.817 63.968V68H178.197V59.432H180.489L184.209 65.852H184.245C184.237 65.652 184.229 65.456 184.221 65.264C184.213 65.064 184.205 64.868 184.197 64.676C184.197 64.476 184.193 64.28 184.185 64.088C184.177 63.888 184.169 63.688 184.161 63.488V59.432H185.793V68ZM187.959 68V59.432H189.771V66.5H193.251V68H187.959ZM197.045 62.96L198.833 59.432H200.789L197.945 64.664V68H196.145V64.724L193.301 59.432H195.269L197.045 62.96Z" fill="#F3858E"/>
</svg>
