<?xml version="1.0" encoding="UTF-8"?>
<svg id="_トレース" data-name="トレース" xmlns="http://www.w3.org/2000/svg" viewBox="0 0 595 842">
  <defs>
    <style>
      .cls-1 {
        font-size: 18px;
        letter-spacing: .3em;
      }

      .cls-1, .cls-2 {
        fill: #028760;
        font-family: BIZ-UDGothic, 'BIZ UDGothic';
        stroke: #028760;
      }

      .cls-1, .cls-2, .cls-3, .cls-4, .cls-5, .cls-6, .cls-7 {
        stroke-miterlimit: 10;
      }

      .cls-2 {
        font-size: 21px;
        letter-spacing: .2em;
      }

      .cls-3, .cls-4, .cls-5, .cls-7 {
        fill: none;
      }

      .cls-3, .cls-4, .cls-6, .cls-7 {
        stroke: #6fba2d;
      }

      .cls-4 {
        stroke-width: 3px;
      }

      .cls-5 {
        stroke: #3b7960;
      }

      .cls-8 {
        fill: #3b82f6;
      }

      .cls-6 {
        fill: #6fba2d;
      }

      .cls-7 {
        stroke-width: 2px;
      }
    </style>
  </defs>
  <g>
    <g>
      <polygon class="cls-4" points="40.81 178 40.81 432.63 434.59 664 545.42 471.06 269.56 312.9 269.56 178.2 40.81 178"/>
      <polyline class="cls-4" points="483.67 578.79 518.19 599.42 554.19 538.47 554.19 495.06 538.14 484.54"/>
    </g>
    <g>
      <line class="cls-7" x1="528.03" y1="500.38" x2="347.62" y2="395.21"/>
      <polyline class="cls-7" points="331.44 386.31 318.5 378.43 225.87 541.24"/>
      <polyline class="cls-7" points="291.6 424.54 262.07 406.13 281.69 372.16 311.83 389.75"/>
      <polyline class="cls-7" points="176.93 512.52 244.48 396.83 235.78 391.57"/>
      <polyline class="cls-7" points="219.6 382.07 156.5 345.87 41.02 345.87"/>
      <polyline class="cls-7" points="173.29 333.12 211.51 267.19 211.51 178.61"/>
      <line class="cls-7" x1="211.92" y1="194.18" x2="269.56" y2="194.18"/>
      <line class="cls-7" x1="205.85" y1="277.71" x2="216.16" y2="283.57"/>
      <line class="cls-7" x1="234.97" y1="293.28" x2="269.56" y2="312.9"/>
    </g>
    <g>
      <line class="cls-3" x1="207.67" y1="461.35" x2="228.97" y2="474.02"/>
      <line class="cls-3" x1="210.37" y1="457.17" x2="231.67" y2="470.11"/>
      <line class="cls-3" x1="212.39" y1="453.26" x2="234.1" y2="465.93"/>
      <line class="cls-3" x1="214.81" y1="449.48" x2="236.25" y2="462.16"/>
      <line class="cls-3" x1="217.11" y1="445.17" x2="238.81" y2="457.71"/>
      <line class="cls-3" x1="219.67" y1="441.26" x2="240.97" y2="454.07"/>
      <line class="cls-3" x1="222.23" y1="437.35" x2="242.86" y2="449.62"/>
      <line class="cls-3" x1="224.39" y1="433.57" x2="245.56" y2="445.84"/>
      <polygon class="cls-3" points="248.66 441.39 229.11 475.91 231.26 477.26 250.95 442.74 248.66 441.39"/>
      <line class="cls-3" x1="256.88" y1="484.67" x2="234.63" y2="471.46"/>
      <line class="cls-3" x1="237.6" y1="467.42" x2="259.04" y2="480.36"/>
      <line class="cls-3" x1="239.76" y1="463.64" x2="261.33" y2="476.31"/>
      <line class="cls-3" x1="241.92" y1="459.87" x2="263.08" y2="472.4"/>
      <line class="cls-3" x1="244.61" y1="456.09" x2="265.65" y2="468.22"/>
      <line class="cls-3" x1="246.77" y1="451.37" x2="268.21" y2="464.18"/>
      <line class="cls-3" x1="248.66" y1="447.73" x2="270.5" y2="460.27"/>
      <line class="cls-3" x1="251.08" y1="443.82" x2="273.06" y2="456.49"/>
      <line class="cls-3" x1="495.26" y1="560.96" x2="511.95" y2="571.07"/>
      <line class="cls-3" x1="497.49" y1="557.11" x2="514.17" y2="567.33"/>
      <line class="cls-3" x1="499.61" y1="553.37" x2="515.39" y2="563.18"/>
      <line class="cls-3" x1="501.84" y1="550.44" x2="518.02" y2="559.74"/>
      <line class="cls-3" x1="503.76" y1="546.39" x2="519.94" y2="555.8"/>
      <line class="cls-3" x1="505.98" y1="542.65" x2="522.57" y2="552.56"/>
      <line class="cls-3" x1="508.01" y1="538.91" x2="524.89" y2="548.82"/>
      <line class="cls-3" x1="509.83" y1="535.47" x2="526.61" y2="545.18"/>
      <line class="cls-3" x1="512.15" y1="531.53" x2="529.14" y2="541.24"/>
      <polygon class="cls-3" points="509.72 575.01 512.25 576.53 535.21 537.09 532.58 535.57 509.72 575.01"/>
      <line class="cls-3" x1="525.8" y1="584.52" x2="512.25" y2="576.53"/>
      <line class="cls-3" x1="514.48" y1="573.09" x2="527.72" y2="580.88"/>
      <line class="cls-3" x1="516.9" y1="569.04" x2="530.35" y2="576.83"/>
      <line class="cls-3" x1="519.43" y1="565.1" x2="532.58" y2="572.99"/>
      <line class="cls-3" x1="521.46" y1="561.46" x2="534.8" y2="569.35"/>
      <line class="cls-3" x1="523.48" y1="557.82" x2="536.83" y2="565.4"/>
    </g>
    <circle class="cls-6" cx="262.68" cy="352.67" r="6.2"/>
  </g>
  <g>
    <text class="cls-1" transform="translate(397.3 613.52)"><tspan x="0" y="0">131</tspan></text>
    <rect class="cls-5" x="386.95" y="590.68" width="58.52" height="32" rx="16" ry="16"/>
  </g>
  <g>
    <text class="cls-1" transform="translate(314.52 454.76)"><tspan x="0" y="0">132</tspan></text>
    <rect class="cls-5" x="304.16" y="431.92" width="58.52" height="32" rx="16" ry="16"/>
  </g>
  <g>
    <text class="cls-1" transform="translate(147.82 466.65)"><tspan x="0" y="0">133</tspan></text>
    <rect class="cls-5" x="137.46" y="443.81" width="58.52" height="32" rx="16" ry="16"/>
  </g>
  <g>
    <text class="cls-2" transform="translate(67.86 248.39)"><tspan x="0" y="0">STAFF ONLY</tspan></text>
    <rect class="cls-5" x="56.57" y="220.42" width="165.38" height="40"/>
  </g>
  <g>
    <path d="M280.52,395.4c-.75,0-1.36.61-1.36,1.36s.61,1.36,1.36,1.36,1.36-.61,1.36-1.36-.61-1.36-1.36-1.36Z"/>
    <path d="M286.31,395.4c-.75,0-1.36.61-1.36,1.36s.61,1.36,1.36,1.36,1.36-.61,1.36-1.36c0-.75-.61-1.36-1.36-1.36Z"/>
    <path d="M292.1,395.4c-.75,0-1.36.61-1.36,1.36s.61,1.36,1.36,1.36,1.36-.61,1.36-1.36-.61-1.36-1.36-1.36Z"/>
    <path d="M295.2,388.94h-17.77c-1.37,0-2.48,1.11-2.48,2.48v19.03c0,1.37,1.11,2.48,2.48,2.48h17.77c1.37,0,2.48-1.11,2.48-2.48v-19.03c0-1.37-1.11-2.48-2.48-2.48ZM280.27,411.36l.24-5.44.24,5.44h-.48ZM286.07,411.36l.24-5.44.24,5.44h-.48ZM291.86,411.36l.24-5.44.24,5.44h-.48ZM296.11,410.44c0,.5-.41.91-.91.91h-1.6l.04-6.35c.1.15.26.24.45.24.29-.01.52-.26.5-.55l.23-4.52c0-1.78-1.8-1.86-2.72-1.86s-2.72.09-2.72,1.86l.15,4.52c-.01.29.21.54.5.55.25.01.47-.16.53-.4l.04,6.51h-2.81l.04-6.35c.1.15.26.25.45.24.29-.01.52-.26.5-.55l.22-4.52c0-1.78-1.8-1.86-2.72-1.86s-2.72.09-2.72,1.86l.15,4.52c-.01.29.21.54.5.55.25.01.47-.16.53-.4l.04,6.52h-2.81l.04-6.35c.1.15.26.25.45.24.29-.01.52-.26.5-.55l.22-4.52c0-1.78-1.8-1.86-2.72-1.86s-2.72.09-2.72,1.86l.15,4.52c-.01.29.21.54.5.55.26.01.47-.16.53-.4l.04,6.52h-1.6c-.5,0-.91-.41-.91-.91v-19.03c0-.5.41-.91.91-.91h17.77c.5,0,.91.41.91.91v19.03h0Z"/>
    <path d="M288.08,384.87l1.86-1.86v4.18c0,.38.31.69.69.69s.69-.31.69-.69v-4.18l1.86,1.86c.14.13.31.2.49.2s.35-.07.49-.2c.27-.27.27-.71,0-.97l-3.03-3.04-.49-.49-.49.49-3.03,3.04c-.27.27-.27.71,0,.97.27.27.71.27.98,0Z"/>
    <path d="M281.5,387.67h0s.49.49.49.49l.49-.49s0,0,0,0l3.03-3.03c.27-.27.27-.71,0-.98-.27-.27-.71-.27-.97,0l-1.86,1.86v-4.18c0-.38-.31-.69-.69-.69s-.69.31-.69.69v4.18l-1.86-1.86c-.27-.27-.71-.27-.98,0-.27.27-.27.71,0,.98l3.03,3.03Z"/>
  </g>
  <g>
    <path d="M326.38,387.56c-.17.02-.96.06-1.76.09-1.05.04-1.5.08-1.65.13-.27.1-.66.5-.87.88-.08.16-.28.42-.44.58l-.29.29h-.55c-.62,0-.79.05-.91.29-.16.32,0,.74.31.85.09.03.39.06.67.06h.5s.2.21.2.21c.28.29.51.39.92.39.38,0,.6-.09.85-.32.14-.13.15-.14.42-.08.75.15,2.08.68,3.37,1.35.41.21.75.38.75.38,0,0,0-.22-.01-.5-.01-.37-.04-.51-.1-.58-.11-.13-1.12-.78-2.03-1.32l-.75-.44h-.63q-.63,0-.69-.12c-.03-.08-.04-.14,0-.17.1-.1,2.75-1.04,3.52-1.25l.2-.05-.13-.23c-.18-.31-.36-.49-.47-.48-.06,0-.24.02-.41.04ZM322.67,389.68c.3.11.4.5.18.75-.1.11-.15.13-.34.13s-.25-.02-.34-.13c-.21-.25-.12-.63.17-.75.16-.06.15-.06.33,0Z"/>
    <path d="M318.95,389.63c-1.89.28-2.94,1.8-2.72,3.99.06.66.2,1.32.58,2.84.39,1.58.49,2.11.51,2.98.02.57,0,.86-.05,1.2-.04.25-.07.46-.07.46,0,0,.13.05.28.1s.35.13.45.18c.11.05.19.09.2.08.05-.05.17-.68.22-1.16.11-1.02-.03-2.04-.55-4.14-.43-1.72-.51-2.17-.54-2.84-.04-.96.11-1.52.54-2,.13-.13.32-.29.43-.36.25-.15.8-.31,1.04-.31.18,0,.19,0,.15-.11-.05-.13-.04-.7,0-.84.04-.12.02-.13-.48-.05Z"/>
    <path d="M321.38,392.02v.57l-.41.2c-.78.39-1.43,1.2-1.63,2.03-.05.21-.07.56-.07,1.09v.78h6.49v-.78c0-.87-.05-1.16-.29-1.64-.28-.58-.77-1.05-1.43-1.38l-.4-.2v-.51c0-.28-.01-.56-.03-.62-.03-.1-.04-.1-.11-.04-.14.13-.52.27-.81.3-.37.04-.76-.05-1.04-.22-.13-.08-.24-.14-.25-.14-.01,0-.02.25-.02.57Z"/>
    <path d="M319.26,399.89v2.72h6.49v-5.43h-6.49v2.72ZM324.55,399.92v1.3h-4.09v-2.6h4.09v1.3Z"/>
    <path d="M316.49,401.61c-.06.03-.46.67-1.02,1.69l-.92,1.63.13.14c.17.17,1.05.61,1.65.81.25.08.6.16.78.18.31.02.33.01.37-.09.03-.06.25-.87.49-1.79.3-1.15.43-1.71.4-1.8-.12-.47-1.41-1-1.88-.77ZM315.9,404.7c.5.11.98.38,1.16.64.11.17.11.25,0,.25-.29,0-1.95-.68-1.91-.79.01-.05.29-.16.39-.17.03,0,.19.03.37.06Z"/>
    <path d="M319.26,405.51c0,2.74,0,2.69.37,3.11.13.14.33.3.49.38l.27.13h4.23l.27-.13c.16-.08.37-.24.49-.38.37-.41.37-.37.37-3.11v-2.42h-6.49v2.42Z"/>
  </g>
  <g>
    <path d="M250.72,292.46c-.17.02-.96.06-1.76.09-1.05.04-1.5.08-1.65.13-.27.1-.66.5-.87.88-.08.16-.28.42-.44.58l-.29.29h-.55c-.62,0-.79.05-.91.29-.16.32,0,.74.31.85.09.03.39.06.67.06h.5s.2.21.2.21c.28.29.51.39.92.39.38,0,.6-.09.85-.32.14-.13.15-.14.42-.08.75.15,2.08.68,3.37,1.35.41.21.75.38.75.38,0,0,0-.22-.01-.5-.01-.37-.04-.51-.1-.58-.11-.13-1.12-.78-2.03-1.32l-.75-.44h-.63q-.63,0-.69-.12c-.03-.08-.04-.14,0-.17.1-.1,2.75-1.04,3.52-1.25l.2-.05-.13-.23c-.18-.31-.36-.49-.47-.48-.06,0-.24.02-.41.04ZM247.01,294.58c.3.11.4.5.18.75-.1.11-.15.13-.34.13s-.25-.02-.34-.13c-.21-.25-.12-.63.17-.75.16-.06.15-.06.33,0Z"/>
    <path d="M243.3,294.53c-1.89.28-2.94,1.8-2.72,3.99.06.66.2,1.32.58,2.84.39,1.58.49,2.11.51,2.98.02.57,0,.86-.05,1.2-.04.25-.07.46-.07.46,0,0,.13.05.28.1s.35.13.45.18c.11.05.19.09.2.08.05-.05.17-.68.22-1.16.11-1.02-.03-2.04-.55-4.14-.43-1.72-.51-2.17-.54-2.84-.04-.96.11-1.52.54-2,.13-.13.32-.29.43-.36.25-.15.8-.31,1.04-.31.18,0,.19,0,.15-.11-.05-.13-.04-.7,0-.84.04-.12.02-.13-.48-.05Z"/>
    <path d="M245.72,296.92v.57l-.41.2c-.78.39-1.43,1.2-1.63,2.03-.05.21-.07.56-.07,1.09v.78h6.49v-.78c0-.87-.05-1.16-.29-1.64-.28-.58-.77-1.05-1.43-1.38l-.4-.2v-.51c0-.28-.01-.56-.03-.62-.03-.1-.04-.1-.11-.04-.14.13-.52.27-.81.3-.37.04-.76-.05-1.04-.22-.13-.08-.24-.14-.25-.14-.01,0-.02.25-.02.57Z"/>
    <path d="M243.61,304.79v2.72h6.49v-5.43h-6.49v2.72ZM248.9,304.82v1.3h-4.09v-2.6h4.09v1.3Z"/>
    <path d="M240.84,306.51c-.06.03-.46.67-1.02,1.69l-.92,1.63.13.14c.17.17,1.05.61,1.65.81.25.08.6.16.78.18.31.02.33.01.37-.09.03-.06.25-.87.49-1.79.3-1.15.43-1.71.4-1.8-.12-.47-1.41-1-1.88-.77ZM240.25,309.59c.5.11.98.38,1.16.64.11.17.11.25,0,.25-.29,0-1.95-.68-1.91-.79.01-.05.29-.16.39-.17.03,0,.19.03.37.06Z"/>
    <path d="M243.61,310.41c0,2.74,0,2.69.37,3.11.13.14.33.3.49.38l.27.13h4.23l.27-.13c.16-.08.37-.24.49-.38.37-.41.37-.37.37-3.11v-2.42h-6.49v2.42Z"/>
  </g>
  <g>
    <path class="cls-8" d="M241.56,201.6c-.56.1-1.01.35-1.4.75-.94.99-.89,2.57.1,3.5.63.59,1.51.81,2.36.59.26-.07.67-.28.9-.46.78-.62,1.11-1.66.83-2.62-.23-.78-.81-1.4-1.57-1.66-.39-.13-.85-.17-1.22-.1Z"/>
    <path class="cls-8" d="M238.39,207.07c-.41.03-.76.13-1.15.32-1,.5-1.66,1.48-1.76,2.62-.02.2-.02,1.51-.02,4.23v3.94s.06.15.06.15c.1.29.29.51.55.62.1.05.16.05.38.05.24,0,.27,0,.41-.07.27-.13.47-.39.54-.71.02-.1.03-.96.03-3.93v-3.81h1.18v10.14c0,8.83,0,10.17.04,10.31.13.64.71,1.11,1.36,1.11.19,0,.48-.07.66-.17.21-.11.46-.37.57-.59.17-.34.16.12.16-6.43v-5.91h1.17v5.93c0,6.53,0,6.08.15,6.41.16.32.43.56.79.7.14.05.2.06.45.06s.31,0,.45-.06c.36-.14.64-.38.79-.69.17-.34.16.57.16-10.65v-10.14h1.17v3.78c0,2.62,0,3.83.03,3.93.06.34.25.6.54.74.17.09.19.09.4.09.16,0,.25-.01.34-.05.34-.14.56-.44.62-.86.03-.23.03-7.69,0-8.06-.13-1.45-1.13-2.63-2.51-2.94-.15-.03-.33-.05-.62-.06-.73-.02-6.69-.02-6.92,0Z"/>
  </g>
  <g>
    <path d="M526.16,520.2v12.61h25.43v-25.22h-25.43v12.61ZM546.57,517v7.73l.39.06c.46.07,1.04.33,1.28.58.4.4,1.11,1.69,1.13,2.05.01.16,0,.18-.2.21-.12.02-.74.04-1.4.04h-1.19v3.32l.57.59c.59.61.77.84.72.9-.06.06-3.13.12-6.46.12h-3.37s-.89-.86-.89-.86l-.89-.86h-2.31l.81.79c.73.71.8.79.71.84-.06.04-.58.07-1.43.09l-1.33.03-.75-.75-.75-.75v-10.65h3.27s.68-.8.68-.8c.94-1.1,1.18-1.35,1.26-1.35.06,0,.68,1.26,1.24,2.53l.21.47-1.83,3.69c-2.21,4.47-2.47,5.02-2.36,5.09.1.06.79.06,1.29-.01.44-.06.87-.24,1.05-.42.17-.18.81-1.37,2.2-4.1,1.42-2.78,1.75-3.38,1.82-3.36.08.03.12.38.18,1.71.06,1.31.16,2.19.29,2.65.14.49-.1.46,4.08.46,3.73,0,3.95-.01,4.02-.21.04-.1-.27-.68-.51-.95-.12-.13-.28-.27-.37-.31-.3-.16-.96-.23-2.71-.28-.96-.03-1.97-.07-2.22-.08l-.48-.03-.15-2.18-.15-2.18-.19-.44c-.11-.25-.47-1.02-.81-1.72-.33-.7-.61-1.3-.61-1.34,0-.11.25-.14,1.17-.12l.83.02.5.87c.83,1.44,1.24,1.93,1.61,1.93.18,0,.55-.25.65-.42.16-.31-.04-.91-.74-2.12-.76-1.31-1.04-1.62-1.65-1.82-.36-.11-.43-.12-3.01-.12-2.06,0-2.71.02-2.93.07-.26.06-.33.12-.84.63-.3.31-.93,1.02-1.39,1.56l-.84,1h-1.29s-1.3,0-1.3,0v-9.52h15.39v7.74Z"/>
    <path d="M536.21,511.71c-.58.17-1.05.85-1.07,1.53-.01.51.49,1.34.98,1.6.13.07.29.09.64.09.41,0,.51-.02.77-.15.64-.31.94-.81.95-1.61,0-.39-.01-.47-.14-.68-.17-.29-.61-.71-.85-.82-.24-.1-.92-.09-1.28.02Z"/>
  </g>
</svg>