<svg width="346" height="134" viewBox="0 0 346 134" fill="none" xmlns="http://www.w3.org/2000/svg">
<path d="M10.5556 49.7836L6.02924 52.8012L124.719 82.4737M10.5556 49.7836L1 46.7661L8.04094 33.1871L10.5556 31.9085M10.5556 49.7836L29.6667 39.8299M58.8363 24.6374L37.7134 18.0994L27.152 23.4696M58.8363 24.6374L104.099 1L230.836 33.8087M58.8363 24.6374L46.7661 30.924M124.719 82.4737L79.4561 107.117L122.205 118.181H137.795L130.754 132.766H152.38M124.719 82.4737L170.988 95.0468L165.53 106.111M10.5556 31.9085L20.1111 35.1988M10.5556 31.9085L13.9754 30.1696M20.1111 35.1988L17.5965 36.2047L20.1111 37.2105L21.117 36.6431M20.1111 35.1988L23.8169 33.1871M13.9754 30.1696L23.8169 33.1871M13.9754 30.1696L17.0689 28.5967M23.8169 33.1871L27.152 31.3766M17.0689 28.5967L27.152 31.3766M17.0689 28.5967L20.1111 27.0498M27.152 31.3766L30.6725 29.4655M20.1111 27.0498L30.6725 29.4655M20.1111 27.0498L23.8169 25.1655M30.6725 29.4655L34.193 27.5544M23.8169 25.1655L34.193 27.5544M23.8169 25.1655L27.152 23.4696M34.193 27.5544L36.787 26.1462M27.152 23.4696L36.787 26.1462M36.787 26.1462L37.7134 25.6433L39.7251 26.1462L36.5335 27.9466M21.117 36.6431L29.6667 39.8299M21.117 36.6431L24.3315 34.8298M29.6667 39.8299L33.3419 37.9157M24.3315 34.8298L33.3419 37.9157M24.3315 34.8298L27.2435 33.1871M33.3419 37.9157L36.6271 36.2047M27.2435 33.1871L36.6271 36.2047M27.2435 33.1871L30.4531 31.3766M36.6271 36.2047L39.7251 34.5911M30.4531 31.3766L39.7251 34.5911M30.4531 31.3766L33.3419 29.747M39.7251 34.5911L43.7485 32.4956M33.3419 29.747L43.7485 32.4956M33.3419 29.747L36.5335 27.9466M43.7485 32.4956L46.7661 30.924M36.5335 27.9466L46.7661 30.924M152.38 132.766H216.754M152.38 132.766L156.35 124.719M216.754 132.766H309.795L327.653 97.5614M216.754 132.766L230.082 106.111M336.837 79.4561L345 63.3626L266.544 43.0524M336.837 79.4561H287.667M336.837 79.4561L327.653 97.5614M287.667 79.4561H245.924L204.684 100.579H232.848L230.082 106.111M287.667 79.4561L260.509 97.5614H327.653M147.854 76.4386L154.707 72.9181M230.836 33.8087L260.006 41.3599M230.836 33.8087L205.69 46.7269M260.006 41.3599L266.544 43.0524M260.006 41.3599L231.684 56.2942M266.544 43.0524L249.276 52.098M165.53 106.111L156.35 124.719M165.53 106.111H177.023M230.082 106.111H203.175M156.35 124.719H194.123L197.793 117.175M203.175 106.111H177.023M203.175 106.111L197.793 117.175M177.023 106.111L171.994 117.175H197.793M154.707 72.9181L175.012 78.9532L190.602 69.9006L171.994 64.0372M154.707 72.9181L171.994 64.0372M171.994 64.0372L188.088 55.7696M188.088 55.7696L201.667 59.8421M188.088 55.7696L192.111 53.7027M201.667 59.8421L200.158 60.848L202.673 61.8538L203.112 61.6095M201.667 59.8421L205.69 57.7729M219.269 50.7895L220.778 51.7953L219.329 52.6M219.269 50.7895L215.749 52.6M219.269 50.7895L205.69 46.7269M192.111 53.7027L205.69 57.7729M192.111 53.7027L195.824 51.7953M205.69 57.7729L209.586 55.7696M195.824 51.7953L209.586 55.7696M195.824 51.7953L199.152 50.0856M209.586 55.7696L212.228 54.4105M199.152 50.0856L212.228 54.4105M199.152 50.0856L201.667 48.7938M212.228 54.4105L215.749 52.6M201.667 48.7938L215.749 52.6M201.667 48.7938L205.69 46.7269M203.112 61.6095L214.743 65.2275M203.112 61.6095L206.294 59.8421M214.743 65.2275L200.158 72.9181L205.69 74.9298L232.008 61.1436M214.743 65.2275L218.263 63.3711M206.294 59.8421L218.263 63.3711M206.294 59.8421L210.018 57.7729M218.263 63.3711L221.604 61.6095M210.018 57.7729L221.604 61.6095M210.018 57.7729L213.624 55.7696M221.604 61.6095L224.956 59.8421M213.624 55.7696L224.956 59.8421M213.624 55.7696L216.07 54.4105M224.956 59.8421L228.88 57.7729M216.07 54.4105L228.88 57.7729M216.07 54.4105L219.329 52.6M228.88 57.7729L231.684 56.2942M219.329 52.6L231.684 56.2942M232.008 61.1436L244.415 64.8713L247.406 63.3711M232.008 61.1436L235.225 59.4583M249.276 52.098L261.515 56.2942L258.567 57.7729M249.276 52.098L245.924 53.8539M245.924 53.8539L258.567 57.7729M245.924 53.8539L242.267 55.7696M258.567 57.7729L254.977 59.5737M242.267 55.7696L254.977 59.5737M242.267 55.7696L238.442 57.7729M254.977 59.5737L251.456 61.3396M238.442 57.7729L251.456 61.3396M238.442 57.7729L235.225 59.4583M251.456 61.3396L247.406 63.3711M235.225 59.4583L247.406 63.3711" stroke="#6FBA2D"/>
<path d="M168.897 63.9458C168.367 63.9458 167.937 64.3758 167.937 64.9067C167.937 65.4375 168.367 65.8675 168.897 65.8675C169.428 65.8675 169.859 65.4375 169.859 64.9067C169.859 64.3758 169.428 63.9458 168.897 63.9458Z" fill="black"/>
<path d="M173 63.9458C172.469 63.9458 172.039 64.3758 172.039 64.9067C172.039 65.4375 172.469 65.8675 173 65.8675C173.531 65.8675 173.961 65.4375 173.961 64.9067C173.961 64.3758 173.531 63.9458 173 63.9458Z" fill="black"/>
<path d="M177.103 63.9458C176.572 63.9458 176.142 64.3758 176.142 64.9067C176.142 65.4375 176.572 65.8675 177.103 65.8675C177.634 65.8675 178.064 65.4375 178.064 64.9067C178.064 64.3758 177.634 63.9458 177.103 63.9458Z" fill="black"/>
<path d="M179.293 59.3706H166.707C165.74 59.3706 164.953 60.1576 164.953 61.1245V74.599C164.953 75.5663 165.74 76.3533 166.707 76.3533H179.293C180.26 76.3533 181.047 75.5663 181.047 74.599V61.1245C181.047 60.1576 180.26 59.3706 179.293 59.3706ZM168.727 75.2463L168.898 71.3945L169.069 75.2463H168.727ZM172.829 75.2463L173 71.3945L173.171 75.2463H172.829ZM176.931 75.2463L177.102 71.3945L177.274 75.2463H176.931ZM179.94 74.599C179.94 74.956 179.649 75.2463 179.293 75.2463H178.157L178.189 70.7492C178.259 70.8528 178.376 70.9227 178.51 70.9163C178.717 70.9064 178.876 70.7313 178.866 70.5249L179.025 67.3261C179.025 66.0679 177.751 66.006 177.102 66.006C176.454 66.006 175.179 66.0679 175.179 67.3261L175.287 70.5249C175.277 70.7313 175.436 70.9064 175.642 70.9163C175.823 70.9249 175.972 70.8011 176.016 70.633L176.047 75.2463H174.055L174.086 70.7491C174.157 70.8528 174.273 70.9226 174.408 70.9163C174.614 70.9064 174.774 70.7313 174.764 70.5248L174.923 67.3261C174.923 66.0679 173.648 66.006 173 66.006C172.352 66.006 171.077 66.0679 171.077 67.3261L171.184 70.5248C171.174 70.7313 171.333 70.9064 171.54 70.9163C171.72 70.9249 171.871 70.8008 171.913 70.632L171.945 75.2462H169.953L169.984 70.7491C170.055 70.8527 170.171 70.9226 170.306 70.9162C170.512 70.9063 170.671 70.7312 170.661 70.5248L170.821 67.326C170.821 66.0678 169.546 66.0059 168.898 66.0059C168.25 66.0059 166.975 66.0678 166.975 67.326L167.082 70.5248C167.072 70.7312 167.232 70.9063 167.438 70.9162C167.619 70.9248 167.768 70.8008 167.811 70.632L167.843 75.2462H166.707C166.35 75.2462 166.06 74.9559 166.06 74.5989V61.1245C166.06 60.7679 166.35 60.4776 166.707 60.4776H179.293C179.649 60.4776 179.94 60.7679 179.94 61.1245V74.599H179.94Z" fill="black"/>
<path d="M174.258 56.4889L175.572 55.1739V58.1306C175.572 58.4002 175.791 58.6187 176.061 58.6187C176.331 58.6187 176.55 58.4002 176.55 58.1306V55.1739L177.865 56.4889C177.96 56.5843 178.085 56.6322 178.21 56.6322C178.335 56.6322 178.46 56.5843 178.555 56.4889C178.746 56.2982 178.746 55.9891 178.555 55.7986L176.406 53.6494L176.061 53.3042L175.716 53.6494L173.567 55.7986C173.376 55.989 173.376 56.2982 173.567 56.4889C173.758 56.6797 174.067 56.6797 174.258 56.4889Z" fill="black"/>
<path d="M169.595 58.4746C169.595 58.475 169.595 58.475 169.595 58.475L169.94 58.8201L170.285 58.475C170.285 58.475 170.286 58.475 170.286 58.4746L172.434 56.3257C172.625 56.135 172.625 55.8256 172.434 55.6351C172.244 55.4443 171.934 55.4443 171.744 55.6351L170.429 56.9504V53.9938C170.429 53.7239 170.21 53.5054 169.94 53.5054C169.671 53.5054 169.452 53.7239 169.452 53.9938V56.9504L168.137 55.6351C167.946 55.4443 167.637 55.4443 167.446 55.6351C167.255 55.8255 167.255 56.135 167.446 56.3257L169.595 58.4746Z" fill="black"/>
<path d="M172.335 99.5974C171.935 99.6707 171.611 99.8446 171.335 100.136C170.663 100.845 170.696 101.972 171.408 102.642C171.856 103.066 172.489 103.223 173.099 103.064C173.285 103.017 173.578 102.865 173.742 102.734C174.297 102.289 174.532 101.546 174.335 100.86C174.173 100.3 173.752 99.8582 173.208 99.6724C172.928 99.577 172.601 99.5497 172.335 99.5974Z" fill="black"/>
<path d="M170.065 103.511C169.774 103.531 169.518 103.603 169.244 103.739C168.528 104.097 168.059 104.796 167.986 105.612C167.972 105.756 167.969 106.691 167.972 108.64L167.977 111.461L168.015 111.571C168.084 111.776 168.223 111.935 168.405 112.018C168.475 112.052 168.517 112.057 168.676 112.057C168.848 112.057 168.872 112.054 168.966 112.008C169.158 111.912 169.3 111.727 169.353 111.5C169.37 111.43 169.375 110.811 169.375 108.687V105.964H169.798H170.219V113.22C170.219 119.539 170.222 120.493 170.244 120.597C170.34 121.054 170.75 121.388 171.217 121.39C171.352 121.39 171.558 121.337 171.69 121.267C171.843 121.185 172.022 121.001 172.1 120.844C172.22 120.599 172.213 120.931 172.213 116.245V112.015H172.63H173.048V116.254C173.05 120.924 173.041 120.602 173.159 120.837C173.271 121.066 173.466 121.236 173.726 121.335C173.825 121.373 173.866 121.379 174.045 121.379C174.224 121.379 174.265 121.373 174.364 121.335C174.625 121.236 174.819 121.066 174.93 120.841C175.051 120.595 175.042 121.246 175.042 113.22V105.964H175.46H175.878V108.67C175.878 110.542 175.883 111.41 175.896 111.479C175.941 111.72 176.077 111.909 176.283 112.01C176.404 112.071 176.421 112.074 176.566 112.073C176.682 112.073 176.744 112.062 176.812 112.037C177.054 111.94 177.216 111.72 177.258 111.425C177.28 111.263 177.28 105.921 177.258 105.657C177.166 104.617 176.447 103.778 175.46 103.557C175.351 103.533 175.223 103.521 175.017 103.516C174.497 103.504 170.232 103.499 170.065 103.511Z" fill="black"/>
<path d="M183.373 99.5988C182.751 99.7112 182.249 100.109 182.007 100.68C181.9 100.928 181.86 101.153 181.871 101.44C181.876 101.601 181.89 101.717 181.914 101.814C182.054 102.343 182.389 102.761 182.865 102.997C183.764 103.439 184.84 103.074 185.281 102.175C185.389 101.952 185.438 101.784 185.46 101.549C185.521 100.89 185.213 100.242 184.667 99.8807C184.278 99.6247 183.804 99.521 183.373 99.5988Z" fill="black"/>
<path d="M181.474 103.593C180.818 103.695 180.27 104.06 179.878 104.653C179.693 104.931 179.741 104.789 179.03 107.129C178.75 108.05 178.446 109.052 178.228 109.771C178.136 110.07 178.053 110.364 178.043 110.428C177.972 110.829 178.183 111.203 178.541 111.313C178.819 111.4 179.101 111.322 179.295 111.107C179.44 110.945 179.419 111.004 179.947 109.23C180.063 108.839 180.23 108.279 180.318 107.985C180.405 107.689 180.569 107.139 180.682 106.761L180.887 106.074H181.264C181.577 106.074 181.641 106.077 181.641 106.098C181.641 106.112 181.586 106.32 181.518 106.562C181.397 106.996 181.036 108.298 180.094 111.685C179.376 114.267 179.359 114.327 179.348 114.36C179.34 114.389 179.4 114.391 180.455 114.391H181.572V117.68C181.572 121.263 181.567 121.076 181.669 121.276C181.759 121.455 181.939 121.601 182.146 121.665C182.283 121.71 182.57 121.705 182.703 121.655C182.957 121.563 183.123 121.392 183.21 121.135C183.239 121.045 183.241 120.886 183.246 117.697L183.249 114.356H183.673H184.097V117.702C184.097 121.045 184.097 121.05 184.133 121.157C184.242 121.482 184.501 121.674 184.866 121.7C185.304 121.729 185.672 121.448 185.738 121.031C185.75 120.957 185.757 119.822 185.757 117.654V114.391H186.863C187.584 114.391 187.97 114.386 187.97 114.374C187.97 114.365 187.845 113.91 187.691 113.367C187.539 112.823 187.346 112.131 187.261 111.832C187.176 111.533 186.982 110.839 186.829 110.293C186.353 108.599 186.242 108.206 186.12 107.769C186.054 107.535 185.923 107.067 185.827 106.726C185.731 106.385 185.653 106.1 185.653 106.091C185.653 106.081 185.808 106.074 186.05 106.074H186.446L186.483 106.199C186.504 106.268 186.535 106.371 186.552 106.429C186.569 106.486 186.647 106.747 186.725 107.008C186.803 107.269 186.932 107.705 187.014 107.976C187.093 108.248 187.214 108.65 187.28 108.87C187.532 109.717 187.646 110.105 187.738 110.414C187.79 110.59 187.85 110.777 187.87 110.829C188.013 111.201 188.34 111.41 188.68 111.348C189.073 111.277 189.327 110.926 189.296 110.501C189.286 110.371 189.272 110.321 188.884 109.048C188.539 107.912 187.984 106.084 187.837 105.599C187.762 105.35 187.674 105.099 187.631 105.007C187.529 104.793 187.339 104.546 187.105 104.322C186.68 103.914 186.192 103.669 185.661 103.593C185.421 103.558 181.693 103.558 181.474 103.593Z" fill="black"/>
<rect x="238" y="98.6191" width="86" height="24" fill="white" stroke="#2C893A" stroke-width="2"/>
<path d="M251.409 112.243C251.409 112.747 251.285 113.187 251.037 113.563C250.789 113.939 250.429 114.231 249.957 114.439C249.493 114.639 248.925 114.739 248.253 114.739C247.957 114.739 247.665 114.719 247.377 114.679C247.097 114.639 246.825 114.583 246.561 114.511C246.305 114.431 246.061 114.335 245.829 114.223V112.531C246.237 112.707 246.657 112.871 247.089 113.023C247.529 113.167 247.965 113.239 248.397 113.239C248.693 113.239 248.929 113.199 249.105 113.119C249.289 113.039 249.421 112.931 249.501 112.795C249.589 112.659 249.633 112.503 249.633 112.327C249.633 112.111 249.557 111.927 249.405 111.775C249.261 111.623 249.065 111.483 248.817 111.355C248.569 111.219 248.285 111.075 247.965 110.923C247.765 110.827 247.549 110.715 247.317 110.587C247.085 110.451 246.861 110.287 246.645 110.095C246.437 109.895 246.265 109.655 246.129 109.375C245.993 109.095 245.925 108.759 245.925 108.367C245.925 107.855 246.041 107.419 246.273 107.059C246.513 106.691 246.849 106.411 247.281 106.219C247.721 106.027 248.237 105.931 248.829 105.931C249.277 105.931 249.701 105.983 250.101 106.087C250.509 106.191 250.933 106.339 251.373 106.531L250.785 107.947C250.393 107.787 250.041 107.663 249.729 107.575C249.417 107.487 249.097 107.443 248.769 107.443C248.545 107.443 248.353 107.479 248.193 107.551C248.033 107.623 247.909 107.723 247.821 107.851C247.741 107.979 247.701 108.131 247.701 108.307C247.701 108.507 247.761 108.679 247.881 108.823C248.001 108.959 248.181 109.091 248.421 109.219C248.661 109.347 248.961 109.499 249.321 109.675C249.761 109.883 250.133 110.099 250.437 110.323C250.749 110.547 250.989 110.811 251.157 111.115C251.325 111.419 251.409 111.795 251.409 112.243ZM256.267 114.619H254.455V107.563H252.127V106.051H258.595V107.563H256.267V114.619ZM264.316 114.619L263.692 112.579H260.572L259.948 114.619H257.992L261.016 106.015H263.236L266.272 114.619H264.316ZM262.636 109.063C262.596 108.927 262.544 108.755 262.48 108.547C262.416 108.339 262.352 108.127 262.288 107.911C262.224 107.695 262.172 107.507 262.132 107.347C262.092 107.507 262.036 107.707 261.964 107.947C261.9 108.179 261.836 108.403 261.772 108.619C261.716 108.827 261.672 108.975 261.64 109.063L261.028 111.055H263.26L262.636 109.063ZM269.145 114.619H267.357V106.051H272.265V107.539H269.145V109.747H272.049V111.235H269.145V114.619ZM275.731 114.619H273.943V106.051H278.851V107.539H275.731V109.747H278.635V111.235H275.731V114.619ZM291.422 110.323C291.422 110.987 291.338 111.591 291.17 112.135C291.01 112.671 290.762 113.135 290.426 113.527C290.098 113.919 289.674 114.219 289.154 114.427C288.642 114.635 288.038 114.739 287.342 114.739C286.646 114.739 286.038 114.635 285.518 114.427C285.006 114.211 284.582 113.911 284.246 113.527C283.918 113.135 283.67 112.667 283.502 112.123C283.342 111.579 283.262 110.975 283.262 110.311C283.262 109.423 283.406 108.651 283.694 107.995C283.99 107.339 284.438 106.831 285.038 106.471C285.646 106.103 286.418 105.919 287.354 105.919C288.282 105.919 289.046 106.103 289.646 106.471C290.246 106.831 290.69 107.343 290.978 108.007C291.274 108.663 291.422 109.435 291.422 110.323ZM285.17 110.323C285.17 110.923 285.246 111.439 285.398 111.871C285.55 112.303 285.786 112.635 286.106 112.867C286.426 113.099 286.838 113.215 287.342 113.215C287.862 113.215 288.278 113.099 288.59 112.867C288.91 112.635 289.142 112.303 289.286 111.871C289.438 111.439 289.514 110.923 289.514 110.323C289.514 109.419 289.346 108.711 289.01 108.199C288.674 107.687 288.122 107.431 287.354 107.431C286.842 107.431 286.426 107.547 286.106 107.779C285.786 108.011 285.55 108.343 285.398 108.775C285.246 109.207 285.17 109.723 285.17 110.323ZM300.793 114.619H298.489L294.757 108.139H294.709C294.717 108.339 294.725 108.543 294.733 108.751C294.741 108.951 294.749 109.155 294.757 109.363C294.773 109.563 294.785 109.767 294.793 109.975C294.801 110.175 294.809 110.379 294.817 110.587V114.619H293.197V106.051H295.489L299.209 112.471H299.245C299.237 112.271 299.229 112.075 299.221 111.883C299.213 111.683 299.205 111.487 299.197 111.295C299.197 111.095 299.193 110.899 299.185 110.707C299.177 110.507 299.169 110.307 299.161 110.107V106.051H300.793V114.619ZM302.959 114.619V106.051H304.771V113.119H308.251V114.619H302.959ZM312.045 109.579L313.833 106.051H315.789L312.945 111.283V114.619H311.145V111.343L308.301 106.051H310.269L312.045 109.579Z" fill="#259333"/>
</svg>
