<svg width="349" height="131" viewBox="0 0 349 131" fill="none" xmlns="http://www.w3.org/2000/svg">
<path d="M167.136 92.9153L201.542 102.746L199.853 106.186M167.136 92.9153L66.3729 67.1886M167.136 92.9153L153.144 122.898M10.8305 48.678L5.42373 51.6271L66.3729 67.1886M10.8305 48.678L1 45.7288L5.91525 32.9492L9.84746 30.9175M10.8305 48.678L23.7085 41.8365M58.017 23.6102L35.4068 17.7119L26.0678 22.537M58.017 23.6102L101.763 1L225.627 33.007M58.017 23.6102L43.0544 31.559M188.271 129.78H302.797L323.883 86.0339M188.271 129.78H149.932L153.144 122.898M188.271 129.78L191.712 122.771M9.84746 30.9175L19.678 34.4237M9.84746 30.9175L13.2881 29.1398M19.678 34.4237L23.1186 32.4576M19.678 34.4237L17.2203 35.8983M23.1186 32.4576L13.2881 29.1398M23.1186 32.4576L17.2203 35.8983M23.1186 32.4576L26.0678 30.9175M13.2881 29.1398L16.2373 27.6161M16.2373 27.6161L26.0678 30.9175M16.2373 27.6161L20.1695 25.5845M26.0678 30.9175L29.5085 29.1398M29.5085 29.1398L20.1695 25.5845M29.5085 29.1398L33.4407 27.0508M20.1695 25.5845L23.1186 24.0607M23.1186 24.0607L33.4407 27.0508M23.1186 24.0607L26.0678 22.537M33.4407 27.0508L36.3898 25.5845M36.3898 25.5845L26.0678 22.537M36.3898 25.5845L37.8644 26.5593L36.3898 27.3785M17.2203 35.8983L20.1695 36.3898M20.1695 36.3898L28.5254 38.8475L31.9661 37.4497L23.7085 34.4237M20.1695 36.3898L23.7085 34.4237M23.7085 34.4237L30.0197 30.9175M27.0508 32.9492L35.4068 35.4068L38.5872 33.9322L30.0197 30.9175M30.0197 30.9175L33.4407 29.017M33.4407 29.017L42.2881 31.9661L43.0544 31.559M33.4407 29.017L36.3898 27.3785M36.3898 27.3785L45.2373 30.3994L43.0544 31.559M23.7085 41.8365L51.1356 48.678M23.7085 41.8365L43.0544 31.559M51.1356 48.678L68.8305 38.8475L43.0544 31.559M51.1356 48.678L85.5424 57.2439M66.3729 67.1886L85.5424 57.2439M148.458 58.5085L165.661 49.1695L122.898 37.8644L104.22 47.5541M148.458 58.5085L185.322 67.8475L172.542 77.678L151.898 71.2881L144.525 75.2203L184.187 54.5763M148.458 58.5085L104.22 47.5541M225.627 33.007L201.051 45.7989M225.627 33.007L253.153 40.1196M85.5424 57.2439L104.22 47.5541M184.187 54.5763L197.61 58.8672L201.051 56.9143L187.78 52.7065M184.187 54.5763L187.78 52.7065M187.78 52.7065L194.575 49.1695M191.712 51.1356L204 55.0678L207.768 53.1017L194.575 49.1695M194.575 49.1695L198.102 47.3339M198.102 47.3339L211.373 51.1356L213.831 49.661M198.102 47.3339L201.051 45.7989M213.831 49.661L201.051 45.7989M213.831 49.661L195.644 59.9831L198.102 60.4746L201.542 58.5631M213.831 49.661L215.797 50.6441L214.322 51.4633M198.593 60.4746L209.898 63.4237L211.496 62.6008M214.322 51.4633L226.119 55.0678L223.169 56.5871M214.322 51.4633L211.087 53.2605M211.087 53.2605L223.169 56.5871M211.087 53.2605L208.067 54.9385M223.169 56.5871L219.729 58.3595M208.067 54.9385L219.729 58.3595M208.067 54.9385L204.983 56.6516M219.729 58.3595L216.288 60.132M204.983 56.6516L216.288 60.132M204.983 56.6516L201.542 58.5631M216.288 60.132L213.093 61.7779M201.542 58.5631L213.093 61.7779M213.093 61.7779L211.496 62.6008M253.153 40.1196L300.831 52.4398M253.153 40.1196L234.475 50.2427M199.853 106.186L242.339 84.0678M199.853 106.186L191.712 122.771M242.339 84.0678L250.695 86.0339H323.883M242.339 84.0678L234.475 81.9154M323.883 86.0339L335.729 61.4576L300.831 52.4398M234.475 81.9154L275.763 61.4576M234.475 81.9154L225.627 79.494M275.763 61.4576L281.17 61.7779L300.831 52.4398M275.763 61.4576L234.475 50.2427M234.475 50.2427L195.644 71.2881L225.627 79.494M211.496 62.6008L240.373 69.322L225.627 79.494M153.144 122.898L191.712 122.771" stroke="#6FBA2D"/>
<path d="M175.308 98.3466C174.7 98.4564 174.21 98.8451 173.973 99.4028C173.868 99.6461 173.829 99.8658 173.839 100.146C173.845 100.304 173.858 100.417 173.882 100.511C174.019 101.028 174.346 101.437 174.811 101.667C175.69 102.1 176.741 101.743 177.172 100.865C177.278 100.647 177.326 100.483 177.348 100.253C177.407 99.609 177.106 98.9752 176.572 98.622C176.192 98.3719 175.729 98.2705 175.308 98.3466Z" fill="black"/>
<path d="M173.451 102.25C172.811 102.35 172.275 102.707 171.891 103.286C171.71 103.558 171.758 103.42 171.063 105.706C170.789 106.607 170.492 107.585 170.279 108.288C170.19 108.581 170.108 108.868 170.098 108.931C170.029 109.323 170.235 109.688 170.585 109.796C170.857 109.88 171.133 109.804 171.322 109.595C171.464 109.436 171.443 109.493 171.959 107.759C172.072 107.378 172.236 106.83 172.322 106.543C172.407 106.254 172.567 105.716 172.677 105.346L172.878 104.675H173.247C173.553 104.675 173.615 104.679 173.615 104.699C173.615 104.712 173.561 104.915 173.495 105.152C173.377 105.576 173.024 106.849 172.103 110.159C171.401 112.682 171.384 112.741 171.374 112.773C171.366 112.802 171.425 112.804 172.456 112.804H173.547V116.018C173.547 119.52 173.542 119.337 173.642 119.533C173.73 119.707 173.906 119.851 174.108 119.913C174.242 119.957 174.523 119.952 174.653 119.903C174.901 119.814 175.063 119.646 175.148 119.395C175.177 119.307 175.178 119.151 175.183 116.035L175.187 112.77H175.601H176.015V116.04C176.015 119.307 176.015 119.312 176.05 119.417C176.157 119.734 176.41 119.922 176.767 119.947C177.194 119.976 177.554 119.7 177.618 119.293C177.63 119.22 177.637 118.112 177.637 115.993V112.804H178.719C179.423 112.804 179.8 112.799 179.8 112.787C179.8 112.779 179.678 112.334 179.528 111.803C179.379 111.271 179.19 110.595 179.107 110.303C179.024 110.01 178.835 109.333 178.685 108.799C178.22 107.143 178.112 106.759 177.992 106.331C177.928 106.103 177.799 105.645 177.706 105.312C177.612 104.98 177.536 104.701 177.536 104.692C177.536 104.682 177.688 104.675 177.924 104.675H178.311L178.347 104.797C178.367 104.865 178.398 104.966 178.414 105.022C178.431 105.078 178.507 105.333 178.583 105.588C178.659 105.843 178.786 106.269 178.866 106.534C178.943 106.8 179.062 107.193 179.126 107.408C179.373 108.236 179.484 108.615 179.574 108.917C179.624 109.089 179.684 109.272 179.702 109.323C179.842 109.686 180.162 109.89 180.495 109.83C180.878 109.76 181.127 109.417 181.096 109.002C181.086 108.875 181.073 108.826 180.694 107.582C180.356 106.472 179.814 104.685 179.67 104.211C179.597 103.967 179.511 103.722 179.469 103.633C179.369 103.423 179.183 103.181 178.955 102.963C178.539 102.565 178.063 102.325 177.544 102.25C177.309 102.216 173.666 102.216 173.451 102.25Z" fill="black"/>
<rect x="250" y="45.8574" width="86" height="24" fill="white" stroke="#2C893A" stroke-width="2"/>
<path d="M263.409 59.4814C263.409 59.9854 263.285 60.4254 263.037 60.8014C262.789 61.1774 262.429 61.4694 261.957 61.6774C261.493 61.8774 260.925 61.9774 260.253 61.9774C259.957 61.9774 259.665 61.9574 259.377 61.9174C259.097 61.8774 258.825 61.8214 258.561 61.7494C258.305 61.6694 258.061 61.5734 257.829 61.4614V59.7694C258.237 59.9454 258.657 60.1094 259.089 60.2614C259.529 60.4054 259.965 60.4774 260.397 60.4774C260.693 60.4774 260.929 60.4374 261.105 60.3574C261.289 60.2774 261.421 60.1694 261.501 60.0334C261.589 59.8974 261.633 59.7414 261.633 59.5654C261.633 59.3494 261.557 59.1654 261.405 59.0134C261.261 58.8614 261.065 58.7214 260.817 58.5934C260.569 58.4574 260.285 58.3134 259.965 58.1614C259.765 58.0654 259.549 57.9534 259.317 57.8254C259.085 57.6894 258.861 57.5254 258.645 57.3334C258.437 57.1334 258.265 56.8934 258.129 56.6134C257.993 56.3334 257.925 55.9974 257.925 55.6054C257.925 55.0934 258.041 54.6574 258.273 54.2974C258.513 53.9294 258.849 53.6494 259.281 53.4574C259.721 53.2654 260.237 53.1694 260.829 53.1694C261.277 53.1694 261.701 53.2214 262.101 53.3254C262.509 53.4294 262.933 53.5774 263.373 53.7694L262.785 55.1854C262.393 55.0254 262.041 54.9014 261.729 54.8134C261.417 54.7254 261.097 54.6814 260.769 54.6814C260.545 54.6814 260.353 54.7174 260.193 54.7894C260.033 54.8614 259.909 54.9614 259.821 55.0894C259.741 55.2174 259.701 55.3694 259.701 55.5454C259.701 55.7454 259.761 55.9174 259.881 56.0614C260.001 56.1974 260.181 56.3294 260.421 56.4574C260.661 56.5854 260.961 56.7374 261.321 56.9134C261.761 57.1214 262.133 57.3374 262.437 57.5614C262.749 57.7854 262.989 58.0494 263.157 58.3534C263.325 58.6574 263.409 59.0334 263.409 59.4814ZM268.267 61.8574H266.455V54.8014H264.127V53.2894H270.595V54.8014H268.267V61.8574ZM276.316 61.8574L275.692 59.8174H272.572L271.948 61.8574H269.992L273.016 53.2534H275.236L278.272 61.8574H276.316ZM274.636 56.3014C274.596 56.1654 274.544 55.9934 274.48 55.7854C274.416 55.5774 274.352 55.3654 274.288 55.1494C274.224 54.9334 274.172 54.7454 274.132 54.5854C274.092 54.7454 274.036 54.9454 273.964 55.1854C273.9 55.4174 273.836 55.6414 273.772 55.8574C273.716 56.0654 273.672 56.2134 273.64 56.3014L273.028 58.2934H275.26L274.636 56.3014ZM281.145 61.8574H279.357V53.2894H284.265V54.7774H281.145V56.9854H284.049V58.4734H281.145V61.8574ZM287.731 61.8574H285.943V53.2894H290.851V54.7774H287.731V56.9854H290.635V58.4734H287.731V61.8574ZM303.422 57.5614C303.422 58.2254 303.338 58.8294 303.17 59.3734C303.01 59.9094 302.762 60.3734 302.426 60.7654C302.098 61.1574 301.674 61.4574 301.154 61.6654C300.642 61.8734 300.038 61.9774 299.342 61.9774C298.646 61.9774 298.038 61.8734 297.518 61.6654C297.006 61.4494 296.582 61.1494 296.246 60.7654C295.918 60.3734 295.67 59.9054 295.502 59.3614C295.342 58.8174 295.262 58.2134 295.262 57.5494C295.262 56.6614 295.406 55.8894 295.694 55.2334C295.99 54.5774 296.438 54.0694 297.038 53.7094C297.646 53.3414 298.418 53.1574 299.354 53.1574C300.282 53.1574 301.046 53.3414 301.646 53.7094C302.246 54.0694 302.69 54.5814 302.978 55.2454C303.274 55.9014 303.422 56.6734 303.422 57.5614ZM297.17 57.5614C297.17 58.1614 297.246 58.6774 297.398 59.1094C297.55 59.5414 297.786 59.8734 298.106 60.1054C298.426 60.3374 298.838 60.4534 299.342 60.4534C299.862 60.4534 300.278 60.3374 300.59 60.1054C300.91 59.8734 301.142 59.5414 301.286 59.1094C301.438 58.6774 301.514 58.1614 301.514 57.5614C301.514 56.6574 301.346 55.9494 301.01 55.4374C300.674 54.9254 300.122 54.6694 299.354 54.6694C298.842 54.6694 298.426 54.7854 298.106 55.0174C297.786 55.2494 297.55 55.5814 297.398 56.0134C297.246 56.4454 297.17 56.9614 297.17 57.5614ZM312.793 61.8574H310.489L306.757 55.3774H306.709C306.717 55.5774 306.725 55.7814 306.733 55.9894C306.741 56.1894 306.749 56.3934 306.757 56.6014C306.773 56.8014 306.785 57.0054 306.793 57.2134C306.801 57.4134 306.809 57.6174 306.817 57.8254V61.8574H305.197V53.2894H307.489L311.209 59.7094H311.245C311.237 59.5094 311.229 59.3134 311.221 59.1214C311.213 58.9214 311.205 58.7254 311.197 58.5334C311.197 58.3334 311.193 58.1374 311.185 57.9454C311.177 57.7454 311.169 57.5454 311.161 57.3454V53.2894H312.793V61.8574ZM314.959 61.8574V53.2894H316.771V60.3574H320.251V61.8574H314.959ZM324.045 56.8174L325.833 53.2894H327.789L324.945 58.5214V61.8574H323.145V58.5814L320.301 53.2894H322.269L324.045 56.8174Z" fill="#259333"/>
<path d="M166.076 63.502C165.557 63.502 165.137 63.9222 165.137 64.441C165.137 64.9598 165.557 65.3801 166.076 65.3801C166.595 65.3801 167.015 64.9598 167.015 64.441C167.015 63.9222 166.595 63.502 166.076 63.502Z" fill="black"/>
<path d="M170.085 63.502C169.566 63.502 169.146 63.9222 169.146 64.441C169.146 64.9598 169.566 65.3801 170.085 65.3801C170.603 65.3801 171.024 64.9598 171.024 64.441C171.024 63.9222 170.603 63.502 170.085 63.502Z" fill="black"/>
<path d="M174.095 63.502C173.576 63.502 173.155 63.9222 173.155 64.441C173.155 64.9598 173.576 65.3801 174.095 65.3801C174.613 65.3801 175.034 64.9598 175.034 64.441C175.034 63.9222 174.613 63.502 174.095 63.502Z" fill="black"/>
<path d="M176.235 59.0308H163.935C162.99 59.0308 162.221 59.7999 162.221 60.7449V73.914C162.221 74.8594 162.99 75.6285 163.935 75.6285H176.235C177.181 75.6285 177.95 74.8594 177.95 73.914V60.7449C177.95 59.7999 177.181 59.0308 176.235 59.0308ZM165.909 74.5467L166.076 70.7822L166.243 74.5467H165.909ZM169.918 74.5467L170.085 70.7822L170.253 74.5467H169.918ZM173.927 74.5467L174.095 70.7822L174.262 74.5467H173.927ZM176.868 73.914C176.868 74.263 176.584 74.5467 176.235 74.5467H175.126L175.156 70.1514C175.225 70.2527 175.339 70.321 175.471 70.3148C175.672 70.3051 175.828 70.134 175.818 69.9322L175.974 66.806C175.974 65.5763 174.728 65.5158 174.095 65.5158C173.461 65.5158 172.215 65.5763 172.215 66.806L172.32 69.9322C172.311 70.134 172.466 70.3051 172.668 70.3148C172.844 70.3232 172.99 70.2022 173.032 70.0379L173.063 74.5466H171.117L171.147 70.1514C171.216 70.2527 171.33 70.321 171.461 70.3148C171.663 70.3051 171.819 70.1339 171.809 69.9322L171.964 66.8059C171.964 65.5763 170.719 65.5158 170.085 65.5158C169.452 65.5158 168.206 65.5763 168.206 66.8059L168.31 69.9322C168.301 70.1339 168.456 70.3051 168.658 70.3148C168.835 70.3232 168.981 70.2019 169.023 70.037L169.054 74.5466H167.107L167.137 70.1514C167.207 70.2526 167.32 70.3209 167.452 70.3147C167.654 70.305 167.809 70.1339 167.8 69.9321L167.955 66.8059C167.955 65.5762 166.71 65.5157 166.076 65.5157C165.443 65.5157 164.197 65.5762 164.197 66.8059L164.301 69.9321C164.292 70.1339 164.447 70.305 164.649 70.3147C164.826 70.3231 164.972 70.2019 165.014 70.0369L165.045 74.5465H163.935C163.586 74.5465 163.303 74.2628 163.303 73.9139V60.7449C163.303 60.3964 163.586 60.1126 163.935 60.1126H176.235C176.584 60.1126 176.868 60.3964 176.868 60.7449V73.914H176.868Z" fill="black"/>
<path d="M171.314 56.2141L172.599 54.9289V57.8186C172.599 58.082 172.813 58.2956 173.076 58.2956C173.34 58.2956 173.554 58.082 173.554 57.8186V54.9289L174.839 56.2141C174.933 56.3073 175.055 56.3541 175.176 56.3541C175.299 56.3541 175.421 56.3073 175.514 56.2141C175.701 56.0277 175.701 55.7256 175.514 55.5394L173.414 53.439L173.076 53.1016L172.739 53.439L170.639 55.5394C170.452 55.7255 170.452 56.0277 170.639 56.2141C170.825 56.4005 171.128 56.4005 171.314 56.2141Z" fill="black"/>
<path d="M166.757 58.155C166.757 58.1553 166.757 58.1553 166.757 58.1553L167.094 58.4926L167.432 58.1553C167.432 58.1553 167.432 58.1553 167.432 58.155L169.532 56.0548C169.718 55.8684 169.718 55.566 169.532 55.3798C169.346 55.1934 169.043 55.1934 168.857 55.3798L167.572 56.6653V53.7757C167.572 53.5119 167.358 53.2983 167.094 53.2983C166.831 53.2983 166.617 53.5119 166.617 53.7757V56.6653L165.332 55.3798C165.145 55.1934 164.843 55.1934 164.656 55.3798C164.47 55.5659 164.47 55.8684 164.656 56.0548L166.757 58.155Z" fill="black"/>
<rect x="191.5" y="111.357" width="76" height="17" fill="white" stroke="#2C893A"/>
<path d="M195.749 117.617H202.829V118.593H195.749V117.617ZM197.397 121.249H201.109V122.225H197.397V121.249ZM198.765 116.065H199.789V123.577H198.765V116.065ZM198.477 117.969L199.357 118.249C198.669 119.993 197.533 121.521 196.133 122.401C195.973 122.161 195.653 121.793 195.437 121.601C196.749 120.881 197.909 119.441 198.477 117.969ZM200.077 117.993C200.661 119.417 201.829 120.809 203.173 121.505C202.933 121.705 202.589 122.105 202.429 122.377C201.021 121.513 199.901 119.985 199.205 118.281L200.077 117.993ZM207.941 116.521H210.269V117.425H208.877V123.577H207.941V116.521ZM203.725 116.833H207.597V117.665H203.725V116.833ZM203.557 119.073H207.693V119.937H203.557V119.073ZM205.197 116.121H206.125V117.353H205.197V116.121ZM204.189 117.889L204.981 117.721C205.141 118.081 205.261 118.569 205.309 118.889L204.469 119.089C204.445 118.761 204.325 118.265 204.189 117.889ZM206.333 117.689L207.229 117.881C207.053 118.329 206.893 118.785 206.749 119.089L205.997 118.905C206.125 118.569 206.269 118.057 206.333 117.689ZM204.341 122.353H206.813V123.185H204.341V122.353ZM204.013 120.465H207.333V123.553H206.405V121.297H204.901V123.585H204.013V120.465ZM210.021 116.521H210.205L210.357 116.489L211.061 116.929C210.773 117.705 210.421 118.625 210.109 119.313C210.773 120.025 210.901 120.657 210.909 121.193C210.909 121.785 210.773 122.177 210.469 122.385C210.309 122.497 210.125 122.561 209.917 122.593C209.733 122.617 209.509 122.617 209.277 122.609C209.269 122.345 209.189 121.937 209.037 121.673C209.213 121.681 209.373 121.689 209.493 121.681C209.605 121.681 209.709 121.657 209.789 121.609C209.925 121.521 209.981 121.345 209.981 121.065C209.973 120.633 209.805 120.049 209.157 119.425C209.477 118.657 209.845 117.417 210.021 116.857V116.521ZM211.605 120.665C211.605 120.228 211.645 119.801 211.725 119.385C211.81 118.969 211.941 118.572 212.117 118.193C212.293 117.815 212.514 117.465 212.781 117.145H213.757C213.517 117.476 213.314 117.833 213.149 118.217C212.984 118.601 212.858 118.999 212.773 119.409C212.688 119.82 212.645 120.236 212.645 120.657C212.645 121.068 212.688 121.479 212.773 121.889C212.858 122.295 212.981 122.684 213.141 123.057C213.306 123.436 213.509 123.791 213.749 124.121H212.781C212.514 123.807 212.293 123.463 212.117 123.089C211.941 122.721 211.81 122.332 211.725 121.921C211.645 121.511 211.605 121.092 211.605 120.665ZM218.084 121.273C218.084 121.609 218.001 121.903 217.836 122.153C217.671 122.404 217.431 122.599 217.116 122.737C216.807 122.871 216.428 122.937 215.98 122.937C215.783 122.937 215.588 122.924 215.396 122.897C215.209 122.871 215.028 122.833 214.852 122.785C214.681 122.732 214.519 122.668 214.364 122.593V121.465C214.636 121.583 214.916 121.692 215.204 121.793C215.497 121.889 215.788 121.937 216.076 121.937C216.273 121.937 216.431 121.911 216.548 121.857C216.671 121.804 216.759 121.732 216.812 121.641C216.871 121.551 216.9 121.447 216.9 121.329C216.9 121.185 216.849 121.063 216.748 120.961C216.652 120.86 216.521 120.767 216.356 120.681C216.191 120.591 216.001 120.495 215.788 120.393C215.655 120.329 215.511 120.255 215.356 120.169C215.201 120.079 215.052 119.969 214.908 119.841C214.769 119.708 214.655 119.548 214.564 119.361C214.473 119.175 214.428 118.951 214.428 118.689C214.428 118.348 214.505 118.057 214.66 117.817C214.82 117.572 215.044 117.385 215.332 117.257C215.625 117.129 215.969 117.065 216.364 117.065C216.663 117.065 216.945 117.1 217.212 117.169C217.484 117.239 217.767 117.337 218.06 117.465L217.668 118.409C217.407 118.303 217.172 118.22 216.964 118.161C216.756 118.103 216.543 118.073 216.324 118.073C216.175 118.073 216.047 118.097 215.94 118.145C215.833 118.193 215.751 118.26 215.692 118.345C215.639 118.431 215.612 118.532 215.612 118.649C215.612 118.783 215.652 118.897 215.732 118.993C215.812 119.084 215.932 119.172 216.092 119.257C216.252 119.343 216.452 119.444 216.692 119.561C216.985 119.7 217.233 119.844 217.436 119.993C217.644 120.143 217.804 120.319 217.916 120.521C218.028 120.724 218.084 120.975 218.084 121.273ZM221.322 122.857H220.114V118.153H218.562V117.145H222.874V118.153H221.322V122.857ZM226.689 122.857L226.273 121.497H224.193L223.777 122.857H222.473L224.489 117.121H225.969L227.993 122.857H226.689ZM225.569 119.153C225.542 119.063 225.507 118.948 225.465 118.809C225.422 118.671 225.379 118.529 225.337 118.385C225.294 118.241 225.259 118.116 225.233 118.009C225.206 118.116 225.169 118.249 225.121 118.409C225.078 118.564 225.035 118.713 224.993 118.857C224.955 118.996 224.926 119.095 224.905 119.153L224.497 120.481H225.985L225.569 119.153ZM229.908 122.857H228.716V117.145H231.988V118.137H229.908V119.609H231.844V120.601H229.908V122.857ZM234.299 122.857H233.107V117.145H236.379V118.137H234.299V119.609H236.235V120.601H234.299V122.857ZM244.759 119.993C244.759 120.436 244.703 120.839 244.591 121.201C244.485 121.559 244.319 121.868 244.095 122.129C243.877 122.391 243.594 122.591 243.247 122.729C242.906 122.868 242.503 122.937 242.039 122.937C241.575 122.937 241.17 122.868 240.823 122.729C240.482 122.585 240.199 122.385 239.975 122.129C239.757 121.868 239.591 121.556 239.479 121.193C239.373 120.831 239.319 120.428 239.319 119.985C239.319 119.393 239.415 118.879 239.607 118.441C239.805 118.004 240.103 117.665 240.503 117.425C240.909 117.18 241.423 117.057 242.047 117.057C242.666 117.057 243.175 117.18 243.575 117.425C243.975 117.665 244.271 118.007 244.463 118.449C244.661 118.887 244.759 119.401 244.759 119.993ZM240.591 119.993C240.591 120.393 240.642 120.737 240.743 121.025C240.845 121.313 241.002 121.535 241.215 121.689C241.429 121.844 241.703 121.921 242.039 121.921C242.386 121.921 242.663 121.844 242.871 121.689C243.085 121.535 243.239 121.313 243.335 121.025C243.437 120.737 243.487 120.393 243.487 119.993C243.487 119.391 243.375 118.919 243.151 118.577C242.927 118.236 242.559 118.065 242.047 118.065C241.706 118.065 241.429 118.143 241.215 118.297C241.002 118.452 240.845 118.673 240.743 118.961C240.642 119.249 240.591 119.593 240.591 119.993ZM251.007 122.857H249.471L246.983 118.537H246.951C246.956 118.671 246.961 118.807 246.967 118.945C246.972 119.079 246.977 119.215 246.983 119.353C246.993 119.487 247.001 119.623 247.007 119.761C247.012 119.895 247.017 120.031 247.023 120.169V122.857H245.943V117.145H247.471L249.951 121.425H249.975C249.969 121.292 249.964 121.161 249.959 121.033C249.953 120.9 249.948 120.769 249.943 120.641C249.943 120.508 249.94 120.377 249.935 120.249C249.929 120.116 249.924 119.983 249.919 119.849V117.145H251.007V122.857ZM252.45 122.857V117.145H253.658V121.857H255.978V122.857H252.45ZM258.508 119.497L259.7 117.145H261.004L259.108 120.633V122.857H257.908V120.673L256.012 117.145H257.324L258.508 119.497ZM263.396 120.665C263.396 121.092 263.353 121.511 263.268 121.921C263.188 122.332 263.06 122.721 262.884 123.089C262.713 123.463 262.492 123.807 262.22 124.121H261.252C261.492 123.791 261.692 123.436 261.852 123.057C262.017 122.684 262.143 122.295 262.228 121.889C262.313 121.479 262.356 121.068 262.356 120.657C262.356 120.236 262.313 119.82 262.228 119.409C262.143 118.999 262.017 118.601 261.852 118.217C261.692 117.833 261.489 117.476 261.244 117.145H262.22C262.492 117.465 262.713 117.815 262.884 118.193C263.06 118.572 263.188 118.969 263.268 119.385C263.353 119.801 263.396 120.228 263.396 120.665Z" fill="#2C893A"/>
<rect x="67" y="9.85742" width="86" height="24" fill="white" stroke="#2C893A" stroke-width="2"/>
<path d="M80.4092 23.4814C80.4092 23.9854 80.2852 24.4254 80.0372 24.8014C79.7892 25.1774 79.4292 25.4694 78.9572 25.6774C78.4932 25.8774 77.9252 25.9774 77.2532 25.9774C76.9572 25.9774 76.6652 25.9574 76.3772 25.9174C76.0972 25.8774 75.8252 25.8214 75.5612 25.7494C75.3052 25.6694 75.0612 25.5734 74.8292 25.4614V23.7694C75.2372 23.9454 75.6572 24.1094 76.0892 24.2614C76.5292 24.4054 76.9652 24.4774 77.3972 24.4774C77.6932 24.4774 77.9292 24.4374 78.1052 24.3574C78.2892 24.2774 78.4212 24.1694 78.5012 24.0334C78.5892 23.8974 78.6332 23.7414 78.6332 23.5654C78.6332 23.3494 78.5572 23.1654 78.4052 23.0134C78.2612 22.8614 78.0652 22.7214 77.8172 22.5934C77.5692 22.4574 77.2852 22.3134 76.9652 22.1614C76.7652 22.0654 76.5492 21.9534 76.3172 21.8254C76.0852 21.6894 75.8612 21.5254 75.6452 21.3334C75.4372 21.1334 75.2652 20.8934 75.1292 20.6134C74.9932 20.3334 74.9252 19.9974 74.9252 19.6054C74.9252 19.0934 75.0412 18.6574 75.2732 18.2974C75.5132 17.9294 75.8492 17.6494 76.2812 17.4574C76.7212 17.2654 77.2372 17.1694 77.8292 17.1694C78.2772 17.1694 78.7012 17.2214 79.1012 17.3254C79.5092 17.4294 79.9332 17.5774 80.3732 17.7694L79.7852 19.1854C79.3932 19.0254 79.0412 18.9014 78.7292 18.8134C78.4172 18.7254 78.0972 18.6814 77.7692 18.6814C77.5452 18.6814 77.3532 18.7174 77.1932 18.7894C77.0332 18.8614 76.9092 18.9614 76.8212 19.0894C76.7412 19.2174 76.7012 19.3694 76.7012 19.5454C76.7012 19.7454 76.7612 19.9174 76.8812 20.0614C77.0012 20.1974 77.1812 20.3294 77.4212 20.4574C77.6612 20.5854 77.9612 20.7374 78.3212 20.9134C78.7612 21.1214 79.1332 21.3374 79.4372 21.5614C79.7492 21.7854 79.9892 22.0494 80.1572 22.3534C80.3252 22.6574 80.4092 23.0334 80.4092 23.4814ZM85.2665 25.8574H83.4545V18.8014H81.1265V17.2894H87.5945V18.8014H85.2665V25.8574ZM93.316 25.8574L92.692 23.8174H89.572L88.948 25.8574H86.992L90.016 17.2534H92.236L95.272 25.8574H93.316ZM91.636 20.3014C91.596 20.1654 91.544 19.9934 91.48 19.7854C91.416 19.5774 91.352 19.3654 91.288 19.1494C91.224 18.9334 91.172 18.7454 91.132 18.5854C91.092 18.7454 91.036 18.9454 90.964 19.1854C90.9 19.4174 90.836 19.6414 90.772 19.8574C90.716 20.0654 90.672 20.2134 90.64 20.3014L90.028 22.2934H92.26L91.636 20.3014ZM98.1452 25.8574H96.3572V17.2894H101.265V18.7774H98.1452V20.9854H101.049V22.4734H98.1452V25.8574ZM104.731 25.8574H102.943V17.2894H107.851V18.7774H104.731V20.9854H107.635V22.4734H104.731V25.8574ZM120.422 21.5614C120.422 22.2254 120.338 22.8294 120.17 23.3734C120.01 23.9094 119.762 24.3734 119.426 24.7654C119.098 25.1574 118.674 25.4574 118.154 25.6654C117.642 25.8734 117.038 25.9774 116.342 25.9774C115.646 25.9774 115.038 25.8734 114.518 25.6654C114.006 25.4494 113.582 25.1494 113.246 24.7654C112.918 24.3734 112.67 23.9054 112.502 23.3614C112.342 22.8174 112.262 22.2134 112.262 21.5494C112.262 20.6614 112.406 19.8894 112.694 19.2334C112.99 18.5774 113.438 18.0694 114.038 17.7094C114.646 17.3414 115.418 17.1574 116.354 17.1574C117.282 17.1574 118.046 17.3414 118.646 17.7094C119.246 18.0694 119.69 18.5814 119.978 19.2454C120.274 19.9014 120.422 20.6734 120.422 21.5614ZM114.17 21.5614C114.17 22.1614 114.246 22.6774 114.398 23.1094C114.55 23.5414 114.786 23.8734 115.106 24.1054C115.426 24.3374 115.838 24.4534 116.342 24.4534C116.862 24.4534 117.278 24.3374 117.59 24.1054C117.91 23.8734 118.142 23.5414 118.286 23.1094C118.438 22.6774 118.514 22.1614 118.514 21.5614C118.514 20.6574 118.346 19.9494 118.01 19.4374C117.674 18.9254 117.122 18.6694 116.354 18.6694C115.842 18.6694 115.426 18.7854 115.106 19.0174C114.786 19.2494 114.55 19.5814 114.398 20.0134C114.246 20.4454 114.17 20.9614 114.17 21.5614ZM129.793 25.8574H127.489L123.757 19.3774H123.709C123.717 19.5774 123.725 19.7814 123.733 19.9894C123.741 20.1894 123.749 20.3934 123.757 20.6014C123.773 20.8014 123.785 21.0054 123.793 21.2134C123.801 21.4134 123.809 21.6174 123.817 21.8254V25.8574H122.197V17.2894H124.489L128.209 23.7094H128.245C128.237 23.5094 128.229 23.3134 128.221 23.1214C128.213 22.9214 128.205 22.7254 128.197 22.5334C128.197 22.3334 128.193 22.1374 128.185 21.9454C128.177 21.7454 128.169 21.5454 128.161 21.3454V17.2894H129.793V25.8574ZM131.959 25.8574V17.2894H133.771V24.3574H137.251V25.8574H131.959ZM141.045 20.8174L142.833 17.2894H144.789L141.945 22.5214V25.8574H140.145V22.5814L137.301 17.2894H139.269L141.045 20.8174Z" fill="#259333"/>
</svg>
