<svg width="346" height="134" viewBox="0 0 346 134" fill="none" xmlns="http://www.w3.org/2000/svg">
<path d="M10.5556 49.7836L6.02924 52.8012L124.719 82.4737M10.5556 49.7836L1 46.7661L8.04094 33.1871L10.5556 31.9085M10.5556 49.7836L29.6667 39.8299M58.8363 24.6374L37.7134 18.0994L27.152 23.4696M58.8363 24.6374L104.099 1L230.836 33.8087M58.8363 24.6374L46.7661 30.924M124.719 82.4737L79.4561 107.117L122.205 118.181H137.795L130.754 132.766H152.38M124.719 82.4737L170.988 95.0468L165.53 106.111M10.5556 31.9085L20.1111 35.1988M10.5556 31.9085L13.9754 30.1696M20.1111 35.1988L17.5965 36.2047L20.1111 37.2105L21.117 36.6431M20.1111 35.1988L23.8169 33.1871M13.9754 30.1696L23.8169 33.1871M13.9754 30.1696L17.0689 28.5967M23.8169 33.1871L27.152 31.3766M17.0689 28.5967L27.152 31.3766M17.0689 28.5967L20.1111 27.0498M27.152 31.3766L30.6725 29.4655M20.1111 27.0498L30.6725 29.4655M20.1111 27.0498L23.8169 25.1655M30.6725 29.4655L34.193 27.5544M23.8169 25.1655L34.193 27.5544M23.8169 25.1655L27.152 23.4696M34.193 27.5544L36.787 26.1462M27.152 23.4696L36.787 26.1462M36.787 26.1462L37.7134 25.6433L39.7251 26.1462L36.5335 27.9466M21.117 36.6431L29.6667 39.8299M21.117 36.6431L24.3315 34.8298M29.6667 39.8299L33.3419 37.9157M24.3315 34.8298L33.3419 37.9157M24.3315 34.8298L27.2435 33.1871M33.3419 37.9157L36.6271 36.2047M27.2435 33.1871L36.6271 36.2047M27.2435 33.1871L30.4531 31.3766M36.6271 36.2047L39.7251 34.5911M30.4531 31.3766L39.7251 34.5911M30.4531 31.3766L33.3419 29.747M39.7251 34.5911L43.7485 32.4956M33.3419 29.747L43.7485 32.4956M33.3419 29.747L36.5335 27.9466M43.7485 32.4956L46.7661 30.924M36.5335 27.9466L46.7661 30.924M152.38 132.766H216.754M152.38 132.766L156.35 124.719M216.754 132.766H309.795L327.653 97.5614M216.754 132.766L230.082 106.111M336.837 79.4561L345 63.3626L266.544 43.0524M336.837 79.4561H287.667M336.837 79.4561L327.653 97.5614M287.667 79.4561H245.924L204.684 100.579H232.848L230.082 106.111M287.667 79.4561L260.509 97.5614H327.653M147.854 76.4386L154.707 72.9181M230.836 33.8087L260.006 41.3599M230.836 33.8087L205.69 46.7269M260.006 41.3599L266.544 43.0524M260.006 41.3599L231.684 56.2942M266.544 43.0524L249.276 52.098M165.53 106.111L156.35 124.719M165.53 106.111H177.023M230.082 106.111H203.175M156.35 124.719H194.123L197.793 117.175M203.175 106.111H177.023M203.175 106.111L197.793 117.175M177.023 106.111L171.994 117.175H197.793M154.707 72.9181L175.012 78.9532L190.602 69.9006L171.994 64.0372M154.707 72.9181L171.994 64.0372M171.994 64.0372L188.088 55.7696M188.088 55.7696L201.667 59.8421M188.088 55.7696L192.111 53.7027M201.667 59.8421L200.158 60.848L202.673 61.8538L203.112 61.6095M201.667 59.8421L205.69 57.7729M219.269 50.7895L220.778 51.7953L219.329 52.6M219.269 50.7895L215.749 52.6M219.269 50.7895L205.69 46.7269M192.111 53.7027L205.69 57.7729M192.111 53.7027L195.824 51.7953M205.69 57.7729L209.586 55.7696M195.824 51.7953L209.586 55.7696M195.824 51.7953L199.152 50.0856M209.586 55.7696L212.228 54.4105M199.152 50.0856L212.228 54.4105M199.152 50.0856L201.667 48.7938M212.228 54.4105L215.749 52.6M201.667 48.7938L215.749 52.6M201.667 48.7938L205.69 46.7269M203.112 61.6095L214.743 65.2275M203.112 61.6095L206.294 59.8421M214.743 65.2275L200.158 72.9181L205.69 74.9298L232.008 61.1436M214.743 65.2275L218.263 63.3711M206.294 59.8421L218.263 63.3711M206.294 59.8421L210.018 57.7729M218.263 63.3711L221.604 61.6095M210.018 57.7729L221.604 61.6095M210.018 57.7729L213.624 55.7696M221.604 61.6095L224.956 59.8421M213.624 55.7696L224.956 59.8421M213.624 55.7696L216.07 54.4105M224.956 59.8421L228.88 57.7729M216.07 54.4105L228.88 57.7729M216.07 54.4105L219.329 52.6M228.88 57.7729L231.684 56.2942M219.329 52.6L231.684 56.2942M232.008 61.1436L244.415 64.8713L247.406 63.3711M232.008 61.1436L235.225 59.4583M249.276 52.098L261.515 56.2942L258.567 57.7729M249.276 52.098L245.924 53.8539M245.924 53.8539L258.567 57.7729M245.924 53.8539L242.267 55.7696M258.567 57.7729L254.977 59.5737M242.267 55.7696L254.977 59.5737M242.267 55.7696L238.442 57.7729M254.977 59.5737L251.456 61.3396M238.442 57.7729L251.456 61.3396M238.442 57.7729L235.225 59.4583M251.456 61.3396L247.406 63.3711M235.225 59.4583L247.406 63.3711" stroke="#6FBA2D"/>
<path d="M168.897 63.9458C168.367 63.9458 167.937 64.3758 167.937 64.9067C167.937 65.4375 168.367 65.8675 168.897 65.8675C169.428 65.8675 169.859 65.4375 169.859 64.9067C169.859 64.3758 169.428 63.9458 168.897 63.9458Z" fill="black"/>
<path d="M173 63.9458C172.469 63.9458 172.039 64.3758 172.039 64.9067C172.039 65.4375 172.469 65.8675 173 65.8675C173.531 65.8675 173.961 65.4375 173.961 64.9067C173.961 64.3758 173.531 63.9458 173 63.9458Z" fill="black"/>
<path d="M177.103 63.9458C176.572 63.9458 176.142 64.3758 176.142 64.9067C176.142 65.4375 176.572 65.8675 177.103 65.8675C177.634 65.8675 178.064 65.4375 178.064 64.9067C178.064 64.3758 177.634 63.9458 177.103 63.9458Z" fill="black"/>
<path d="M179.293 59.3706H166.707C165.74 59.3706 164.953 60.1576 164.953 61.1245V74.599C164.953 75.5663 165.74 76.3533 166.707 76.3533H179.293C180.26 76.3533 181.047 75.5663 181.047 74.599V61.1245C181.047 60.1576 180.26 59.3706 179.293 59.3706ZM168.727 75.2463L168.898 71.3945L169.069 75.2463H168.727ZM172.829 75.2463L173 71.3945L173.171 75.2463H172.829ZM176.931 75.2463L177.102 71.3945L177.274 75.2463H176.931ZM179.94 74.599C179.94 74.956 179.649 75.2463 179.293 75.2463H178.157L178.189 70.7492C178.259 70.8528 178.376 70.9227 178.51 70.9163C178.717 70.9064 178.876 70.7313 178.866 70.5249L179.025 67.3261C179.025 66.0679 177.751 66.006 177.102 66.006C176.454 66.006 175.179 66.0679 175.179 67.3261L175.287 70.5249C175.277 70.7313 175.436 70.9064 175.642 70.9163C175.823 70.9249 175.972 70.8011 176.016 70.633L176.047 75.2463H174.055L174.086 70.7491C174.157 70.8528 174.273 70.9226 174.408 70.9163C174.614 70.9064 174.774 70.7313 174.764 70.5248L174.923 67.3261C174.923 66.0679 173.648 66.006 173 66.006C172.352 66.006 171.077 66.0679 171.077 67.3261L171.184 70.5248C171.174 70.7313 171.333 70.9064 171.54 70.9163C171.72 70.9249 171.871 70.8008 171.913 70.632L171.945 75.2462H169.953L169.984 70.7491C170.055 70.8527 170.171 70.9226 170.306 70.9162C170.512 70.9063 170.671 70.7312 170.661 70.5248L170.821 67.326C170.821 66.0678 169.546 66.0059 168.898 66.0059C168.25 66.0059 166.975 66.0678 166.975 67.326L167.082 70.5248C167.072 70.7312 167.232 70.9063 167.438 70.9162C167.619 70.9248 167.768 70.8008 167.811 70.632L167.843 75.2462H166.707C166.35 75.2462 166.06 74.9559 166.06 74.5989V61.1245C166.06 60.7679 166.35 60.4776 166.707 60.4776H179.293C179.649 60.4776 179.94 60.7679 179.94 61.1245V74.599H179.94Z" fill="black"/>
<path d="M174.258 56.4889L175.572 55.1739V58.1306C175.572 58.4002 175.791 58.6187 176.061 58.6187C176.331 58.6187 176.55 58.4002 176.55 58.1306V55.1739L177.865 56.4889C177.96 56.5843 178.085 56.6322 178.21 56.6322C178.335 56.6322 178.46 56.5843 178.555 56.4889C178.746 56.2982 178.746 55.9891 178.555 55.7986L176.406 53.6494L176.061 53.3042L175.716 53.6494L173.567 55.7986C173.376 55.989 173.376 56.2982 173.567 56.4889C173.758 56.6797 174.067 56.6797 174.258 56.4889Z" fill="black"/>
<path d="M169.595 58.4746C169.595 58.475 169.595 58.475 169.595 58.475L169.94 58.8201L170.285 58.475C170.285 58.475 170.286 58.475 170.286 58.4746L172.434 56.3257C172.625 56.135 172.625 55.8256 172.434 55.6351C172.244 55.4443 171.934 55.4443 171.744 55.6351L170.429 56.9504V53.9938C170.429 53.7239 170.21 53.5054 169.94 53.5054C169.671 53.5054 169.452 53.7239 169.452 53.9938V56.9504L168.137 55.6351C167.946 55.4443 167.637 55.4443 167.446 55.6351C167.255 55.8255 167.255 56.135 167.446 56.3257L169.595 58.4746Z" fill="black"/>
<rect x="67" y="23.6191" width="86" height="24" fill="white" stroke="#2C893A" stroke-width="2"/>
<path d="M80.253 30.4271H90.789V31.6511H80.253V30.4271ZM84.705 29.4071H86.193V31.0391H84.705V29.4071ZM80.733 35.2751H89.505V36.4631H82.137V40.7111H80.733V35.2751ZM88.965 35.2751H90.417V39.1871C90.417 39.8471 90.285 40.2311 89.817 40.4471C89.361 40.6631 88.725 40.6871 87.861 40.6871C87.813 40.2791 87.609 39.7031 87.417 39.3311C87.957 39.3551 88.569 39.3551 88.737 39.3431C88.917 39.3431 88.965 39.2951 88.965 39.1511V35.2751ZM83.217 37.0151H84.465V40.2551H83.217V37.0151ZM83.841 37.0151H87.825V39.7031H83.841V38.7431H86.553V37.9751H83.841V37.0151ZM83.589 33.0791V33.7991H87.369V33.0791H83.589ZM82.221 32.1191H88.821V34.7711H82.221V32.1191ZM96.369 31.0991H103.041V32.4311H96.369V31.0991ZM98.973 29.4311H100.377V31.6991H98.973V29.4311ZM97.773 32.5271L99.057 33.0791C98.529 34.1111 97.761 35.1431 96.969 35.8031C96.753 35.5271 96.297 35.1071 95.985 34.8791C96.705 34.3151 97.389 33.3671 97.773 32.5271ZM100.257 33.1271L101.373 32.4911C102.105 33.2471 102.909 34.2671 103.257 34.9991L102.033 35.7071C101.745 34.9991 100.965 33.9071 100.257 33.1271ZM98.661 34.7831C99.441 36.9071 101.037 38.6711 103.281 39.4511C102.957 39.7511 102.501 40.3391 102.285 40.7351C99.897 39.7391 98.349 37.7231 97.413 35.1191L98.661 34.7831ZM100.401 34.6991L101.841 34.9871C101.037 37.6031 99.441 39.7031 96.537 40.7351C96.393 40.4111 96.045 39.8711 95.805 39.5951C98.421 38.7311 99.861 36.8831 100.401 34.6991ZM92.061 31.9031H96.237V33.2471H92.061V31.9031ZM93.597 29.4311H94.929V40.6991H93.597V29.4311ZM93.573 32.8271L94.389 33.1151C94.041 35.0351 93.321 37.3511 92.445 38.5871C92.313 38.1911 92.001 37.6271 91.785 37.2791C92.565 36.2351 93.273 34.3631 93.573 32.8271ZM94.869 33.7871C95.157 34.1231 96.201 35.7071 96.429 36.0671L95.649 37.1471C95.349 36.4031 94.593 34.9991 94.245 34.3871L94.869 33.7871ZM106.017 31.6031H114.369V33.0071H106.017V31.6031ZM105.525 35.1431H113.913V36.5231H105.525V35.1431ZM104.133 38.9471H114.981V40.3511H104.133V38.9471ZM108.801 29.4311H110.301V39.6431H108.801V29.4311ZM106.029 29.5751L107.517 29.9111C106.989 31.7711 106.113 33.6191 105.177 34.7711C104.889 34.5191 104.253 34.0991 103.881 33.8951C104.829 32.8871 105.597 31.2311 106.029 29.5751ZM116.277 32.8751H126.801V35.5031H125.385V34.1231H117.621V35.5031H116.277V32.8751ZM118.017 35.0471H124.341V36.3671H118.017V35.0471ZM125.385 29.3591L126.357 30.5231C123.645 31.0511 119.901 31.3151 116.709 31.4111C116.685 31.0511 116.517 30.4991 116.385 30.1871C119.565 30.0791 123.177 29.7911 125.385 29.3591ZM117.441 31.6391L118.701 31.2911C118.977 31.7231 119.277 32.2991 119.385 32.6951L118.065 33.0911C117.969 32.6951 117.693 32.0951 117.441 31.6391ZM120.609 31.3871L121.881 31.0991C122.133 31.5791 122.373 32.2271 122.433 32.6591L121.089 32.9831C121.041 32.5631 120.837 31.8911 120.609 31.3871ZM124.425 31.0751L125.949 31.4351C125.529 32.1791 125.049 32.9591 124.689 33.4751L123.513 33.1271C123.837 32.5511 124.221 31.6991 124.425 31.0751ZM123.813 35.0471H124.113L124.365 34.9991L125.337 35.5751C123.909 38.7191 120.621 40.0511 116.841 40.5911C116.697 40.2311 116.289 39.5951 116.001 39.2951C119.697 38.9231 122.733 37.8311 123.813 35.2751V35.0471ZM119.433 36.0191C120.777 37.8431 123.525 38.8871 127.017 39.2111C126.717 39.5351 126.321 40.1591 126.141 40.5671C122.529 40.0991 119.853 38.8391 118.173 36.5351L119.433 36.0191ZM131.733 32.0231H139.149V33.4871H131.733V32.0231ZM136.329 29.5631H137.817V38.9591C137.817 39.8711 137.601 40.2551 137.025 40.4711C136.437 40.6991 135.525 40.7231 134.193 40.7111C134.121 40.3151 133.857 39.6671 133.641 39.2831C134.577 39.3311 135.621 39.3311 135.909 39.3191C136.209 39.3071 136.329 39.2231 136.329 38.9471V29.5631ZM132.273 34.9391L133.545 34.3391C134.085 35.2151 134.841 36.4031 135.201 37.1351L133.833 37.8311C133.521 37.0991 132.813 35.8631 132.273 34.9391ZM129.525 32.9591L130.977 31.5071L130.989 31.5311V40.6751H129.525V32.9591ZM130.725 29.4911L132.141 29.9471C131.337 32.0351 130.041 34.2311 128.685 35.6111C128.529 35.2511 128.097 34.4591 127.833 34.0991C128.985 33.0071 130.077 31.2551 130.725 29.4911Z" fill="#259333"/>
<rect x="238" y="98.6191" width="86" height="24" fill="white" stroke="#2C893A" stroke-width="2"/>
<path d="M251.409 112.243C251.409 112.747 251.285 113.187 251.037 113.563C250.789 113.939 250.429 114.231 249.957 114.439C249.493 114.639 248.925 114.739 248.253 114.739C247.957 114.739 247.665 114.719 247.377 114.679C247.097 114.639 246.825 114.583 246.561 114.511C246.305 114.431 246.061 114.335 245.829 114.223V112.531C246.237 112.707 246.657 112.871 247.089 113.023C247.529 113.167 247.965 113.239 248.397 113.239C248.693 113.239 248.929 113.199 249.105 113.119C249.289 113.039 249.421 112.931 249.501 112.795C249.589 112.659 249.633 112.503 249.633 112.327C249.633 112.111 249.557 111.927 249.405 111.775C249.261 111.623 249.065 111.483 248.817 111.355C248.569 111.219 248.285 111.075 247.965 110.923C247.765 110.827 247.549 110.715 247.317 110.587C247.085 110.451 246.861 110.287 246.645 110.095C246.437 109.895 246.265 109.655 246.129 109.375C245.993 109.095 245.925 108.759 245.925 108.367C245.925 107.855 246.041 107.419 246.273 107.059C246.513 106.691 246.849 106.411 247.281 106.219C247.721 106.027 248.237 105.931 248.829 105.931C249.277 105.931 249.701 105.983 250.101 106.087C250.509 106.191 250.933 106.339 251.373 106.531L250.785 107.947C250.393 107.787 250.041 107.663 249.729 107.575C249.417 107.487 249.097 107.443 248.769 107.443C248.545 107.443 248.353 107.479 248.193 107.551C248.033 107.623 247.909 107.723 247.821 107.851C247.741 107.979 247.701 108.131 247.701 108.307C247.701 108.507 247.761 108.679 247.881 108.823C248.001 108.959 248.181 109.091 248.421 109.219C248.661 109.347 248.961 109.499 249.321 109.675C249.761 109.883 250.133 110.099 250.437 110.323C250.749 110.547 250.989 110.811 251.157 111.115C251.325 111.419 251.409 111.795 251.409 112.243ZM256.267 114.619H254.455V107.563H252.127V106.051H258.595V107.563H256.267V114.619ZM264.316 114.619L263.692 112.579H260.572L259.948 114.619H257.992L261.016 106.015H263.236L266.272 114.619H264.316ZM262.636 109.063C262.596 108.927 262.544 108.755 262.48 108.547C262.416 108.339 262.352 108.127 262.288 107.911C262.224 107.695 262.172 107.507 262.132 107.347C262.092 107.507 262.036 107.707 261.964 107.947C261.9 108.179 261.836 108.403 261.772 108.619C261.716 108.827 261.672 108.975 261.64 109.063L261.028 111.055H263.26L262.636 109.063ZM269.145 114.619H267.357V106.051H272.265V107.539H269.145V109.747H272.049V111.235H269.145V114.619ZM275.731 114.619H273.943V106.051H278.851V107.539H275.731V109.747H278.635V111.235H275.731V114.619ZM291.422 110.323C291.422 110.987 291.338 111.591 291.17 112.135C291.01 112.671 290.762 113.135 290.426 113.527C290.098 113.919 289.674 114.219 289.154 114.427C288.642 114.635 288.038 114.739 287.342 114.739C286.646 114.739 286.038 114.635 285.518 114.427C285.006 114.211 284.582 113.911 284.246 113.527C283.918 113.135 283.67 112.667 283.502 112.123C283.342 111.579 283.262 110.975 283.262 110.311C283.262 109.423 283.406 108.651 283.694 107.995C283.99 107.339 284.438 106.831 285.038 106.471C285.646 106.103 286.418 105.919 287.354 105.919C288.282 105.919 289.046 106.103 289.646 106.471C290.246 106.831 290.69 107.343 290.978 108.007C291.274 108.663 291.422 109.435 291.422 110.323ZM285.17 110.323C285.17 110.923 285.246 111.439 285.398 111.871C285.55 112.303 285.786 112.635 286.106 112.867C286.426 113.099 286.838 113.215 287.342 113.215C287.862 113.215 288.278 113.099 288.59 112.867C288.91 112.635 289.142 112.303 289.286 111.871C289.438 111.439 289.514 110.923 289.514 110.323C289.514 109.419 289.346 108.711 289.01 108.199C288.674 107.687 288.122 107.431 287.354 107.431C286.842 107.431 286.426 107.547 286.106 107.779C285.786 108.011 285.55 108.343 285.398 108.775C285.246 109.207 285.17 109.723 285.17 110.323ZM300.793 114.619H298.489L294.757 108.139H294.709C294.717 108.339 294.725 108.543 294.733 108.751C294.741 108.951 294.749 109.155 294.757 109.363C294.773 109.563 294.785 109.767 294.793 109.975C294.801 110.175 294.809 110.379 294.817 110.587V114.619H293.197V106.051H295.489L299.209 112.471H299.245C299.237 112.271 299.229 112.075 299.221 111.883C299.213 111.683 299.205 111.487 299.197 111.295C299.197 111.095 299.193 110.899 299.185 110.707C299.177 110.507 299.169 110.307 299.161 110.107V106.051H300.793V114.619ZM302.959 114.619V106.051H304.771V113.119H308.251V114.619H302.959ZM312.045 109.579L313.833 106.051H315.789L312.945 111.283V114.619H311.145V111.343L308.301 106.051H310.269L312.045 109.579Z" fill="#259333"/>
<rect x="47.5" y="55.1191" width="52" height="17" fill="white" stroke="#2C893A"/>
<path d="M51.864 62.5631H55.552V63.3871H51.864V62.5631ZM50.432 64.3551H57.592V65.2431H50.432V64.3551ZM53.512 63.8431H54.496V66.3151C54.496 66.8111 54.376 67.0591 53.992 67.2031C53.616 67.3311 53.104 67.3471 52.424 67.3471C52.36 67.0751 52.184 66.6671 52.032 66.4191C52.544 66.4351 53.144 66.4351 53.304 66.4351C53.464 66.4351 53.512 66.3951 53.512 66.2831V63.8431ZM55.24 62.5631H55.48L55.68 62.5151L56.288 62.9791C55.736 63.5711 54.944 64.1951 54.16 64.5711C54.048 64.4111 53.792 64.1471 53.648 64.0191C54.264 63.6991 54.944 63.1311 55.24 62.7391V62.5631ZM50.528 61.0991H57.504V63.0591H56.552V61.9471H51.432V63.0591H50.528V61.0991ZM56.072 59.8831L57.112 60.1871C56.744 60.7151 56.328 61.2591 56 61.6111L55.216 61.3231C55.52 60.9311 55.88 60.3311 56.072 59.8831ZM51.064 60.2751L51.88 59.9071C52.168 60.2191 52.488 60.6511 52.616 60.9631L51.744 61.3631C51.632 61.0671 51.336 60.6111 51.064 60.2751ZM53.08 60.0991L53.928 59.7791C54.184 60.1311 54.456 60.6191 54.56 60.9391L53.648 61.2911C53.568 60.9711 53.32 60.4671 53.08 60.0991ZM59.656 61.2751H65.224V62.2111H59.656V61.2751ZM59.328 63.6351H64.92V64.5551H59.328V63.6351ZM58.4 66.1711H65.632V67.1071H58.4V66.1711ZM61.512 59.8271H62.512V66.6351H61.512V59.8271ZM59.664 59.9231L60.656 60.1471C60.304 61.3871 59.72 62.6191 59.096 63.3871C58.904 63.2191 58.48 62.9391 58.232 62.8031C58.864 62.1311 59.376 61.0271 59.664 59.9231ZM67.784 60.4831C68 60.5151 68.344 60.5311 68.616 60.5311C69.12 60.5311 71.224 60.5311 71.688 60.5311C71.944 60.5311 72.336 60.5151 72.552 60.4831V61.5231C72.344 61.5071 71.968 61.4911 71.672 61.4911C71.232 61.4911 69.088 61.4911 68.616 61.4911C68.352 61.4911 68.016 61.4991 67.784 61.5231V60.4831ZM73.232 62.8111C73.176 62.9151 73.104 63.0591 73.08 63.1391C72.832 63.9151 72.488 64.6991 71.896 65.3551C71.088 66.2591 70.064 66.7951 69.04 67.0911L68.24 66.1871C69.448 65.9311 70.4 65.4111 71.016 64.7791C71.44 64.3471 71.696 63.8431 71.832 63.4031C71.432 63.4031 68.688 63.4031 67.976 63.4031C67.776 63.4031 67.376 63.4111 67.04 63.4351V62.3951C67.384 62.4271 67.72 62.4511 67.976 62.4511C68.52 62.4511 71.384 62.4511 71.928 62.4511C72.192 62.4511 72.408 62.4191 72.52 62.3631L73.232 62.8111ZM78.576 60.0911C78.528 60.4351 78.52 60.5951 78.52 60.8271C78.52 61.0351 78.52 61.6751 78.52 61.9791H77.4C77.4 61.6271 77.4 61.0351 77.4 60.8271C77.4 60.5951 77.392 60.4351 77.344 60.0911H78.576ZM81.264 61.7791C81.208 61.9551 81.144 62.2591 81.112 62.4111C80.968 63.1791 80.76 63.9551 80.36 64.6831C79.728 65.8591 78.52 66.7071 77.096 67.0831L76.264 66.1231C76.632 66.0591 77.064 65.9391 77.4 65.8031C78.056 65.5551 78.76 65.0831 79.216 64.4431C79.616 63.8511 79.824 63.0911 79.92 62.3791H75.952C75.952 62.6591 75.952 63.3071 75.952 63.5551C75.952 63.7311 75.96 63.9871 75.984 64.1471H74.88C74.904 63.9471 74.912 63.6911 74.912 63.4751C74.912 63.2111 74.912 62.3871 74.912 62.0831C74.912 61.9071 74.912 61.5871 74.88 61.4031C75.152 61.4271 75.392 61.4351 75.696 61.4351H79.912C80.24 61.4351 80.432 61.4031 80.576 61.3551L81.264 61.7791ZM83.928 60.5391C84.48 60.9151 85.52 61.7471 85.992 62.2351L85.176 63.0671C84.76 62.6191 83.752 61.7471 83.168 61.3471L83.928 60.5391ZM82.92 65.8671C84.176 65.6911 85.208 65.2831 85.984 64.8271C87.352 64.0111 88.392 62.7951 88.904 61.7151L89.52 62.8351C88.92 63.9231 87.856 65.0271 86.568 65.8031C85.752 66.2911 84.72 66.7311 83.6 66.9231L82.92 65.8671ZM95.832 60.4831C96.056 60.8191 96.384 61.3471 96.56 61.7151L95.872 62.0191C95.632 61.5151 95.456 61.1711 95.16 60.7551L95.832 60.4831ZM96.936 60.0911C97.184 60.4111 97.496 60.9391 97.688 61.2911L97 61.5951C96.744 61.0911 96.552 60.7791 96.256 60.3791L96.936 60.0911ZM92.36 60.3231C92.888 60.6111 93.768 61.1791 94.184 61.4671L93.584 62.3551C93.144 62.0431 92.304 61.4991 91.776 61.2031L92.36 60.3231ZM90.88 66.0031C91.768 65.8511 92.728 65.5871 93.6 65.1071C94.96 64.3471 96.072 63.2511 96.712 62.1071L97.328 63.1951C96.584 64.2991 95.456 65.3151 94.144 66.0671C93.336 66.5311 92.184 66.9311 91.48 67.0591L90.88 66.0031ZM91.128 62.1471C91.664 62.4351 92.544 62.9871 92.952 63.2751L92.368 64.1711C91.912 63.8591 91.088 63.3151 90.544 63.0351L91.128 62.1471Z" fill="#2C893A"/>
<rect x="108.5" y="94.1191" width="46" height="17" fill="white" stroke="#2C893A"/>
<path d="M118.31 99.2431C118.51 99.5311 118.798 100.043 118.95 100.339L118.302 100.611C118.142 100.283 117.894 99.8111 117.678 99.4991L118.31 99.2431ZM119.262 98.8831C119.47 99.1791 119.766 99.6911 119.902 99.9711L119.27 100.243C119.102 99.9071 118.846 99.4431 118.622 99.1391L119.262 98.8831ZM113.614 103.131C113.966 102.243 114.27 101.115 114.374 100.091L115.534 100.339C115.47 100.563 115.374 100.955 115.342 101.139C115.23 101.699 114.942 102.795 114.662 103.539C114.374 104.315 113.902 105.227 113.486 105.827L112.366 105.355C112.862 104.699 113.334 103.843 113.614 103.131ZM117.558 102.971C117.254 102.131 116.742 100.947 116.398 100.339L117.462 99.9951C117.798 100.611 118.342 101.843 118.646 102.611C118.934 103.339 119.358 104.611 119.574 105.403L118.39 105.787C118.174 104.843 117.878 103.835 117.558 102.971ZM124.094 105.443C124.134 105.291 124.158 105.075 124.158 104.859C124.158 104.435 124.158 100.843 124.158 100.195C124.158 99.8351 124.102 99.5231 124.102 99.5071H125.286C125.286 99.5231 125.23 99.8431 125.23 100.203C125.23 100.843 125.23 103.891 125.23 104.379C125.886 104.099 126.67 103.467 127.214 102.691L127.822 103.579C127.158 104.443 126.014 105.307 125.11 105.763C124.942 105.851 124.846 105.939 124.766 105.995L124.094 105.443ZM120.39 105.331C121.102 104.835 121.534 104.099 121.75 103.411C121.982 102.731 121.99 101.211 121.99 100.251C121.99 99.9231 121.958 99.7151 121.91 99.5151H123.086C123.086 99.5471 123.03 99.9071 123.03 100.235C123.03 101.187 123.006 102.875 122.798 103.683C122.55 104.579 122.054 105.371 121.366 105.979L120.39 105.331ZM129.17 99.9391C129.474 99.9711 129.882 99.9951 130.162 99.9951H134.194C134.426 99.9951 134.754 99.9791 134.89 99.9711C134.882 100.163 134.866 100.475 134.866 100.715V104.859C134.866 105.139 134.89 105.555 134.906 105.803H133.746C133.754 105.563 133.762 105.275 133.762 104.979V101.027H130.162C129.826 101.027 129.394 101.043 129.17 101.059V99.9391ZM129.074 104.283C129.346 104.307 129.706 104.331 130.066 104.331H134.394V105.387H130.098C129.786 105.387 129.338 105.403 129.074 105.435V104.283ZM137.274 100.187C137.57 100.219 137.938 100.235 138.218 100.235C138.89 100.235 141.09 100.235 141.53 100.235C141.85 100.235 142.186 100.219 142.418 100.187V101.347C142.186 101.339 141.81 101.323 141.53 101.323C141.106 101.323 138.666 101.323 138.218 101.323C137.914 101.323 137.546 101.339 137.274 101.347V100.187ZM136.602 104.107C136.914 104.123 137.29 104.155 137.61 104.155C138.114 104.155 141.698 104.155 142.202 104.155C142.466 104.155 142.81 104.131 143.082 104.107V105.331C142.794 105.299 142.434 105.275 142.202 105.275C141.698 105.275 138.114 105.275 137.61 105.275C137.29 105.275 136.906 105.299 136.602 105.331V104.107ZM144.65 101.915C144.946 101.939 145.522 101.971 145.938 101.971C146.882 101.971 149.522 101.971 150.234 101.971C150.61 101.971 150.962 101.931 151.178 101.915V103.179C150.986 103.171 150.578 103.131 150.242 103.131C149.514 103.131 146.882 103.131 145.938 103.131C145.49 103.131 144.954 103.155 144.65 103.179V101.915Z" fill="#2C893A"/>
</svg>
