<svg width="347" height="133" viewBox="0 0 347 133" fill="none" xmlns="http://www.w3.org/2000/svg">
<path d="M11.0792 49.4223L6.53959 52.4487L37.8123 60.409M11.0792 49.4223L2 46.3959L19.654 36.3079M11.0792 49.4223L30.2463 39.5423M19.654 36.3079L8.55718 33.2815L11.761 31.6796M19.654 36.3079L22.176 36.8123M19.654 36.3079L22.176 34.8689M60.0059 24.2023L37.8123 18.654L29.2375 22.9413M60.0059 24.2023L105.906 1L135.666 8.68996M60.0059 24.2023L47.9003 30.4423M172.991 94.8182L37.8123 60.409M172.991 94.8182L157.396 125.587M172.991 94.8182L206.786 103.897L204.164 108.941M37.8123 25.2111L40.3343 26.2199L37.3079 27.9853M37.8123 25.2111L34.2815 27.3919M37.8123 25.2111L29.2375 22.9413M37.8123 25.2111L25.2023 32.9997M22.176 36.8123L30.2463 39.5423M22.176 36.8123L25.2023 35.0469M30.2463 39.5423L34.2815 37.4623M25.2023 35.0469L34.2815 37.4623M25.2023 35.0469L28.2287 33.2815M34.2815 37.4623L37.4996 35.8035M28.2287 33.2815L37.4996 35.8035M28.2287 33.2815L31.6875 31.2639M37.4996 35.8035L41.0914 33.9521M31.6875 31.2639L41.0914 33.9521M31.6875 31.2639L34.2815 29.7507M41.0914 33.9521L44.3695 32.2623M34.2815 29.7507L44.3695 32.2623M34.2815 29.7507L37.3079 27.9853M44.3695 32.2623L47.9003 30.4423M37.3079 27.9853L47.9003 30.4423M11.761 31.6796L22.176 34.8689M11.761 31.6796L15.6188 29.7507M22.176 34.8689L25.2023 32.9997M15.6188 29.7507L25.2023 32.9997M15.6188 29.7507L18.1408 28.4897M25.2023 32.9997L28.2287 31.1304M18.1408 28.4897L28.2287 31.1304M18.1408 28.4897L22.176 26.4721M28.2287 31.1304L31.6875 28.9941M22.176 26.4721L31.6875 28.9941M22.176 26.4721L25.2023 24.9589M31.6875 28.9941L34.2815 27.3919M25.2023 24.9589L34.2815 27.3919M25.2023 24.9589L29.2375 22.9413M54.9619 38.3255L44.3695 35.8035L41.8475 37.1433M54.9619 38.3255L51.9355 39.9184M54.9619 38.3255L57.4839 39.0191L55.4663 40.1437M37.8123 47.3516L35.7947 48.4135L38.8211 49.4223L42.2265 47.524M37.8123 47.3516L28.2287 44.3783L31.2551 42.7705M37.8123 47.3516L41.0914 45.6258M31.2551 42.7705L41.0914 45.6258M31.2551 42.7705L34.8749 40.8475M41.0914 45.6258L44.3695 43.9004M34.8749 40.8475L44.3695 43.9004M34.8749 40.8475L38.3167 39.0191M44.3695 43.9004L47.9003 42.0421M38.3167 39.0191L47.9003 42.0421M38.3167 39.0191L41.8475 37.1433M47.9003 42.0421L51.9355 39.9184M41.8475 37.1433L51.9355 39.9184M39.3255 49.4223L47.9003 51.9443L50.9267 50.3254M55.4663 40.1437L65.0499 42.7705L61.1013 44.8827M55.4663 40.1437L48.9091 43.7989M52.4399 42.0421L61.1013 44.8827M61.1013 44.8827L57.9883 46.548M48.9091 43.7989L57.9883 46.548M48.9091 43.7989L45.6319 45.6258M57.9883 46.548L54.9619 48.1669M45.6319 45.6258L54.9619 48.1669M45.6319 45.6258L42.2265 47.524M54.9619 48.1669L50.9267 50.3254M42.2265 47.524L50.9267 50.3254M37.8123 60.409L53.8277 51.9443M135.666 8.68996L53.8277 51.9443M135.666 8.68996L167.947 17.0316M53.8277 51.9443L84.7214 59.9012M231.501 33.4542L167.947 17.0316M231.501 33.4542L207.795 45.9892M231.501 33.4542L261.765 41.2746M84.7214 59.9012L149.789 76.6598L157.355 72.6593M84.7214 59.9012L167.947 17.0316M157.355 72.6593L177.026 78.173L191.654 69.5982L174 63.8582M157.355 72.6593L174 63.8582M174 63.8582L190.141 55.3237M190.141 55.3237L203.255 59.5103M190.141 55.3237L193.419 53.5902M203.255 59.5103L206.786 57.6468M203.255 59.5103L201.742 61.0235H204.164M221.413 49.9267L207.795 45.9892M221.413 49.9267L216.874 52.3226M221.413 49.9267L222.422 50.9355L220.755 51.8566M207.795 45.9892L204.164 47.9091M204.164 47.9091L216.874 52.3226M204.164 47.9091L200.348 49.9267M216.874 52.3226L213.343 54.1861M200.348 49.9267L213.343 54.1861M200.348 49.9267L196.698 51.8566M213.343 54.1861L210.317 55.7833M196.698 51.8566L210.317 55.7833M196.698 51.8566L193.419 53.5902M210.317 55.7833L206.786 57.6468M193.419 53.5902L206.786 57.6468M204.164 61.0235L216.874 65.0587M204.164 61.0235L207.795 59.0173M216.874 65.0587L220.405 63.188M216.874 65.0587L201.742 73.129L251.677 85.739M261.765 41.2746L346 63.0411L333.824 87.7566M261.765 41.2746L234.381 55.7833M207.795 59.0173L220.405 63.188M207.795 59.0173L210.317 57.6239M220.405 63.188L224.49 61.0235M210.317 57.6239L224.49 61.0235M210.317 57.6239L213.648 55.7833M224.49 61.0235L227.346 59.5103M213.648 55.7833L227.346 59.5103M213.648 55.7833L216.874 54.001M227.346 59.5103L230.863 57.6468M216.874 54.001L230.863 57.6468M216.874 54.001L220.755 51.8566M230.863 57.6468L234.381 55.7833M220.755 51.8566L234.381 55.7833M251.677 85.739L234.381 94.1855M251.677 85.739L333.824 87.7566M204.164 108.941L196.285 125.587M204.164 108.941L234.381 94.1855M193.419 131.639H312.205L327.115 101.375M193.419 131.639H154.328L157.396 125.587M193.419 131.639L196.285 125.587M196.285 125.587H157.396M234.381 94.1855L251.677 101.375H327.115M327.115 101.375L333.824 87.7566" stroke="#6FBA2D"/>
<path d="M178.856 98.8788C178.232 98.9915 177.729 99.3904 177.486 99.9627C177.379 100.212 177.339 100.438 177.349 100.726C177.354 100.887 177.368 101.003 177.393 101.1C177.533 101.631 177.87 102.051 178.346 102.286C179.248 102.73 180.327 102.365 180.769 101.463C180.878 101.239 180.927 101.071 180.949 100.835C181.01 100.174 180.701 99.5239 180.153 99.1615C179.763 98.9048 179.288 98.8008 178.856 98.8788Z" fill="#EF4444"/>
<path d="M176.95 102.884C176.293 102.987 175.743 103.353 175.35 103.947C175.164 104.227 175.213 104.084 174.5 106.431C174.219 107.355 173.914 108.359 173.695 109.081C173.603 109.381 173.52 109.675 173.51 109.74C173.439 110.142 173.65 110.517 174.009 110.628C174.288 110.714 174.571 110.636 174.765 110.421C174.911 110.258 174.89 110.317 175.419 108.538C175.535 108.146 175.704 107.584 175.792 107.289C175.879 106.993 176.043 106.441 176.156 106.061L176.363 105.373H176.741C177.054 105.373 177.119 105.376 177.119 105.397C177.119 105.411 177.063 105.619 176.996 105.862C176.874 106.297 176.512 107.603 175.567 111C174.847 113.59 174.83 113.65 174.819 113.683C174.81 113.713 174.871 113.714 175.929 113.714H177.049V117.013C177.049 120.606 177.044 120.419 177.146 120.62C177.237 120.799 177.417 120.946 177.625 121.01C177.762 121.055 178.05 121.05 178.183 121C178.438 120.908 178.605 120.736 178.692 120.478C178.721 120.388 178.723 120.228 178.728 117.03L178.731 113.68H179.156H179.581V117.035C179.581 120.388 179.581 120.393 179.618 120.5C179.727 120.826 179.987 121.019 180.353 121.045C180.792 121.074 181.161 120.792 181.227 120.374C181.239 120.299 181.246 119.161 181.246 116.987V113.714H182.356C183.079 113.714 183.466 113.709 183.466 113.697C183.466 113.688 183.341 113.232 183.187 112.688C183.034 112.141 182.84 111.448 182.755 111.148C182.67 110.848 182.476 110.152 182.321 109.604C181.844 107.905 181.733 107.511 181.61 107.072C181.544 106.838 181.412 106.368 181.317 106.027C181.22 105.685 181.142 105.399 181.142 105.39C181.142 105.38 181.298 105.373 181.541 105.373H181.938L181.974 105.498C181.995 105.567 182.026 105.671 182.044 105.728C182.061 105.786 182.139 106.048 182.217 106.309C182.295 106.571 182.425 107.008 182.507 107.281C182.587 107.553 182.708 107.957 182.774 108.177C183.027 109.027 183.141 109.415 183.233 109.726C183.285 109.903 183.346 110.09 183.365 110.142C183.509 110.515 183.837 110.725 184.178 110.662C184.572 110.591 184.827 110.239 184.796 109.812C184.785 109.682 184.772 109.632 184.383 108.356C184.036 107.216 183.48 105.383 183.332 104.896C183.258 104.646 183.169 104.395 183.126 104.303C183.024 104.088 182.833 103.84 182.599 103.616C182.172 103.207 181.683 102.961 181.151 102.884C180.91 102.85 177.171 102.85 176.95 102.884Z" fill="#EF4444"/>
<path d="M172.407 62.1128C171.875 62.1128 171.443 62.5441 171.443 63.0765C171.443 63.6089 171.875 64.0402 172.407 64.0402C172.939 64.0402 173.371 63.6089 173.371 63.0765C173.371 62.5441 172.939 62.1128 172.407 62.1128Z" fill="black"/>
<path d="M176.522 62.1128C175.989 62.1128 175.558 62.5441 175.558 63.0765C175.558 63.6089 175.989 64.0402 176.522 64.0402C177.054 64.0402 177.486 63.6089 177.486 63.0765C177.486 62.5441 177.054 62.1128 176.522 62.1128Z" fill="black"/>
<path d="M180.636 62.1128C180.103 62.1128 179.672 62.5441 179.672 63.0765C179.672 63.6089 180.103 64.0402 180.636 64.0402C181.168 64.0402 181.6 63.6089 181.6 63.0765C181.6 62.5441 181.168 62.1128 180.636 62.1128Z" fill="black"/>
<path d="M182.833 57.5244H170.211C169.241 57.5244 168.451 58.3137 168.451 59.2835V72.7975C168.451 73.7676 169.241 74.5569 170.211 74.5569H182.833C183.803 74.5569 184.592 73.7676 184.592 72.7975V59.2835C184.592 58.3137 183.803 57.5244 182.833 57.5244ZM172.236 73.4467L172.407 69.5836L172.579 73.4467H172.236ZM176.35 73.4467L176.522 69.5836L176.693 73.4467H176.35ZM180.464 73.4467L180.636 69.5836L180.808 73.4467H180.464ZM183.482 72.7975C183.482 73.1555 183.191 73.4467 182.833 73.4467H181.694L181.726 68.9363C181.797 69.0403 181.913 69.1104 182.048 69.104C182.255 69.0941 182.415 68.9184 182.405 68.7114L182.565 65.5032C182.565 64.2414 181.286 64.1793 180.636 64.1793C179.986 64.1793 178.707 64.2414 178.707 65.5032L178.815 68.7114C178.805 68.9184 178.965 69.0941 179.172 69.104C179.353 69.1126 179.503 68.9885 179.546 68.8199L179.578 73.4466H177.58L177.611 68.9363C177.682 69.0402 177.799 69.1103 177.934 69.104C178.14 69.094 178.3 68.9184 178.291 68.7114L178.45 65.5032C178.45 64.2413 177.172 64.1793 176.522 64.1793C175.871 64.1793 174.593 64.2413 174.593 65.5032L174.7 68.7114C174.691 68.9184 174.85 69.094 175.057 69.104C175.238 69.1126 175.389 68.9881 175.432 68.8189L175.463 73.4466H173.466L173.497 68.9363C173.568 69.0402 173.684 69.1103 173.82 69.1039C174.027 69.094 174.186 68.9183 174.176 68.7113L174.336 65.5032C174.336 64.2413 173.058 64.1792 172.407 64.1792C171.757 64.1792 170.479 64.2413 170.479 65.5032L170.586 68.7113C170.576 68.9183 170.736 69.094 170.943 69.1039C171.125 69.1125 171.275 68.9881 171.317 68.8188L171.349 73.4465H170.211C169.853 73.4465 169.561 73.1554 169.561 72.7974V59.2835C169.561 58.9258 169.853 58.6346 170.211 58.6346H182.833C183.191 58.6346 183.482 58.9258 183.482 59.2835V72.7975H183.482Z" fill="black"/>
<path d="M177.782 54.634L179.101 53.3152V56.2805C179.101 56.5508 179.321 56.77 179.591 56.77C179.862 56.77 180.081 56.5508 180.081 56.2805V53.3152L181.4 54.634C181.496 54.7297 181.621 54.7777 181.746 54.7777C181.872 54.7777 181.997 54.7297 182.093 54.634C182.284 54.4427 182.284 54.1327 182.093 53.9416L179.938 51.7862L179.591 51.4399L179.245 51.7862L177.09 53.9416C176.898 54.1326 176.898 54.4427 177.09 54.634C177.281 54.8253 177.591 54.8253 177.782 54.634Z" fill="black"/>
<path d="M173.106 56.6254C173.106 56.6258 173.106 56.6258 173.106 56.6258L173.453 56.9719L173.799 56.6258C173.799 56.6258 173.799 56.6258 173.799 56.6254L175.954 54.4702C176.146 54.2789 176.146 53.9686 175.954 53.7776C175.763 53.5863 175.453 53.5863 175.262 53.7776L173.943 55.0967V52.1315C173.943 51.8608 173.723 51.6416 173.453 51.6416C173.183 51.6416 172.963 51.8608 172.963 52.1315V55.0967L171.644 53.7776C171.453 53.5863 171.142 53.5863 170.951 53.7776C170.76 53.9686 170.76 54.2789 170.951 54.4702L173.106 56.6254Z" fill="black"/>
<rect x="124.5" y="51.5957" width="19" height="13" fill="white" stroke="#2C893A"/>
<path d="M130.437 61.0957H129.229V57.7917C129.229 57.701 129.229 57.589 129.229 57.4557C129.234 57.3224 129.239 57.1837 129.245 57.0397C129.25 56.8957 129.255 56.7677 129.261 56.6557C129.234 56.6877 129.175 56.7464 129.085 56.8317C128.999 56.9117 128.919 56.9837 128.845 57.0477L128.189 57.5757L127.605 56.8477L129.445 55.3837H130.437V61.0957ZM131.991 58.6717C131.991 58.341 132.015 58.0157 132.063 57.6957C132.111 57.3757 132.194 57.0744 132.311 56.7917C132.434 56.5037 132.602 56.2504 132.815 56.0317C133.034 55.8077 133.308 55.6344 133.639 55.5117C133.975 55.3837 134.38 55.3197 134.855 55.3197C134.967 55.3197 135.098 55.325 135.247 55.3357C135.396 55.341 135.522 55.3544 135.623 55.3757V56.3437C135.522 56.317 135.41 56.2984 135.287 56.2877C135.17 56.2717 135.052 56.2637 134.935 56.2637C134.578 56.2637 134.282 56.3064 134.047 56.3917C133.818 56.477 133.636 56.5997 133.503 56.7597C133.37 56.9197 133.271 57.109 133.207 57.3277C133.148 57.541 133.114 57.781 133.103 58.0477H133.151C133.226 57.9197 133.316 57.8077 133.423 57.7117C133.535 57.6104 133.671 57.5304 133.831 57.4717C133.991 57.413 134.178 57.3837 134.391 57.3837C134.727 57.3837 135.015 57.4557 135.255 57.5997C135.5 57.7384 135.69 57.9437 135.823 58.2157C135.956 58.4824 136.023 58.8077 136.023 59.1917C136.023 59.6024 135.943 59.957 135.783 60.2557C135.628 60.5544 135.404 60.7837 135.111 60.9437C134.823 61.0984 134.479 61.1757 134.079 61.1757C133.786 61.1757 133.511 61.125 133.255 61.0237C133.004 60.9224 132.783 60.7704 132.591 60.5677C132.404 60.3597 132.258 60.0984 132.151 59.7837C132.044 59.469 131.991 59.0984 131.991 58.6717ZM134.055 60.2077C134.29 60.2077 134.482 60.1277 134.631 59.9677C134.78 59.8024 134.855 59.549 134.855 59.2077C134.855 58.9304 134.791 58.7117 134.663 58.5517C134.535 58.3917 134.34 58.3117 134.079 58.3117C133.903 58.3117 133.748 58.3517 133.615 58.4317C133.482 58.5064 133.378 58.605 133.303 58.7277C133.228 58.8504 133.191 58.9757 133.191 59.1037C133.191 59.237 133.21 59.3704 133.247 59.5037C133.284 59.6317 133.338 59.749 133.407 59.8557C133.482 59.9624 133.572 60.0477 133.679 60.1117C133.786 60.1757 133.911 60.2077 134.055 60.2077ZM139.593 61.0957H138.385V57.7917C138.385 57.701 138.385 57.589 138.385 57.4557C138.39 57.3224 138.396 57.1837 138.401 57.0397C138.406 56.8957 138.412 56.7677 138.417 56.6557C138.39 56.6877 138.332 56.7464 138.241 56.8317C138.156 56.9117 138.076 56.9837 138.001 57.0477L137.345 57.5757L136.761 56.8477L138.601 55.3837H139.593V61.0957Z" fill="#259333"/>
<rect x="224.5" y="60.5957" width="19" height="13" fill="white" stroke="#2C893A"/>
<path d="M230.437 70.0957H229.229V66.7917C229.229 66.701 229.229 66.589 229.229 66.4557C229.234 66.3224 229.239 66.1837 229.245 66.0397C229.25 65.8957 229.255 65.7677 229.261 65.6557C229.234 65.6877 229.175 65.7464 229.085 65.8317C228.999 65.9117 228.919 65.9837 228.845 66.0477L228.189 66.5757L227.605 65.8477L229.445 64.3837H230.437V70.0957ZM231.991 67.6717C231.991 67.341 232.015 67.0157 232.063 66.6957C232.111 66.3757 232.194 66.0744 232.311 65.7917C232.434 65.5037 232.602 65.2504 232.815 65.0317C233.034 64.8077 233.308 64.6344 233.639 64.5117C233.975 64.3837 234.38 64.3197 234.855 64.3197C234.967 64.3197 235.098 64.325 235.247 64.3357C235.396 64.341 235.522 64.3544 235.623 64.3757V65.3437C235.522 65.317 235.41 65.2984 235.287 65.2877C235.17 65.2717 235.052 65.2637 234.935 65.2637C234.578 65.2637 234.282 65.3064 234.047 65.3917C233.818 65.477 233.636 65.5997 233.503 65.7597C233.37 65.9197 233.271 66.109 233.207 66.3277C233.148 66.541 233.114 66.781 233.103 67.0477H233.151C233.226 66.9197 233.316 66.8077 233.423 66.7117C233.535 66.6104 233.671 66.5304 233.831 66.4717C233.991 66.413 234.178 66.3837 234.391 66.3837C234.727 66.3837 235.015 66.4557 235.255 66.5997C235.5 66.7384 235.69 66.9437 235.823 67.2157C235.956 67.4824 236.023 67.8077 236.023 68.1917C236.023 68.6024 235.943 68.957 235.783 69.2557C235.628 69.5544 235.404 69.7837 235.111 69.9437C234.823 70.0984 234.479 70.1757 234.079 70.1757C233.786 70.1757 233.511 70.125 233.255 70.0237C233.004 69.9224 232.783 69.7704 232.591 69.5677C232.404 69.3597 232.258 69.0984 232.151 68.7837C232.044 68.469 231.991 68.0984 231.991 67.6717ZM234.055 69.2077C234.29 69.2077 234.482 69.1277 234.631 68.9677C234.78 68.8024 234.855 68.549 234.855 68.2077C234.855 67.9304 234.791 67.7117 234.663 67.5517C234.535 67.3917 234.34 67.3117 234.079 67.3117C233.903 67.3117 233.748 67.3517 233.615 67.4317C233.482 67.5064 233.378 67.605 233.303 67.7277C233.228 67.8504 233.191 67.9757 233.191 68.1037C233.191 68.237 233.21 68.3704 233.247 68.5037C233.284 68.6317 233.338 68.749 233.407 68.8557C233.482 68.9624 233.572 69.0477 233.679 69.1117C233.786 69.1757 233.911 69.2077 234.055 69.2077ZM240.601 70.0957H236.609V69.2557L238.041 67.8077C238.329 67.509 238.561 67.261 238.737 67.0637C238.913 66.861 239.041 66.6797 239.121 66.5197C239.201 66.3544 239.241 66.1784 239.241 65.9917C239.241 65.7624 239.177 65.5917 239.049 65.4797C238.926 65.3677 238.758 65.3117 238.545 65.3117C238.326 65.3117 238.113 65.3624 237.905 65.4637C237.697 65.565 237.478 65.709 237.249 65.8957L236.593 65.1197C236.758 64.9757 236.932 64.8424 237.113 64.7197C237.3 64.597 237.513 64.4984 237.753 64.4237C237.998 64.3437 238.292 64.3037 238.633 64.3037C239.006 64.3037 239.326 64.373 239.593 64.5117C239.865 64.645 240.073 64.829 240.217 65.0637C240.366 65.293 240.441 65.5544 240.441 65.8477C240.441 66.0877 240.404 66.309 240.329 66.5117C240.26 66.7144 240.156 66.9117 240.017 67.1037C239.884 67.2904 239.718 67.485 239.521 67.6877C239.324 67.885 239.1 68.101 238.849 68.3357L238.113 69.0237V69.0797H240.601V70.0957Z" fill="#259333"/>
<rect x="219.5" y="108.596" width="80" height="17" fill="white" stroke="#2C893A"/>
<path d="M226.906 120.096H225.698V116.792C225.698 116.701 225.698 116.589 225.698 116.456C225.703 116.322 225.708 116.184 225.714 116.04C225.719 115.896 225.724 115.768 225.73 115.656C225.703 115.688 225.644 115.746 225.554 115.832C225.468 115.912 225.388 115.984 225.314 116.048L224.658 116.576L224.074 115.848L225.914 114.384H226.906V120.096ZM228.46 117.672C228.46 117.341 228.484 117.016 228.532 116.696C228.58 116.376 228.662 116.074 228.78 115.792C228.902 115.504 229.07 115.25 229.284 115.032C229.502 114.808 229.777 114.634 230.108 114.512C230.444 114.384 230.849 114.32 231.324 114.32C231.436 114.32 231.566 114.325 231.716 114.336C231.865 114.341 231.99 114.354 232.092 114.376V115.344C231.99 115.317 231.878 115.298 231.756 115.288C231.638 115.272 231.521 115.264 231.404 115.264C231.046 115.264 230.75 115.306 230.516 115.392C230.286 115.477 230.105 115.6 229.972 115.76C229.838 115.92 229.74 116.109 229.676 116.328C229.617 116.541 229.582 116.781 229.572 117.048H229.62C229.694 116.92 229.785 116.808 229.892 116.712C230.004 116.61 230.14 116.53 230.3 116.472C230.46 116.413 230.646 116.384 230.86 116.384C231.196 116.384 231.484 116.456 231.724 116.6C231.969 116.738 232.158 116.944 232.292 117.216C232.425 117.482 232.492 117.808 232.492 118.192C232.492 118.602 232.412 118.957 232.252 119.256C232.097 119.554 231.873 119.784 231.58 119.944C231.292 120.098 230.948 120.176 230.548 120.176C230.254 120.176 229.98 120.125 229.724 120.024C229.473 119.922 229.252 119.77 229.06 119.568C228.873 119.36 228.726 119.098 228.62 118.784C228.513 118.469 228.46 118.098 228.46 117.672ZM230.524 119.208C230.758 119.208 230.95 119.128 231.1 118.968C231.249 118.802 231.324 118.549 231.324 118.208C231.324 117.93 231.26 117.712 231.132 117.552C231.004 117.392 230.809 117.312 230.548 117.312C230.372 117.312 230.217 117.352 230.084 117.432C229.95 117.506 229.846 117.605 229.772 117.728C229.697 117.85 229.66 117.976 229.66 118.104C229.66 118.237 229.678 118.37 229.716 118.504C229.753 118.632 229.806 118.749 229.876 118.856C229.95 118.962 230.041 119.048 230.148 119.112C230.254 119.176 230.38 119.208 230.524 119.208ZM236.846 115.664C236.846 115.925 236.79 116.152 236.678 116.344C236.571 116.536 236.424 116.693 236.238 116.816C236.056 116.938 235.848 117.029 235.614 117.088V117.112C236.072 117.165 236.419 117.304 236.654 117.528C236.894 117.752 237.014 118.053 237.014 118.432C237.014 118.762 236.931 119.061 236.766 119.328C236.606 119.589 236.355 119.797 236.014 119.952C235.678 120.101 235.243 120.176 234.71 120.176C234.395 120.176 234.102 120.149 233.83 120.096C233.558 120.042 233.302 119.965 233.062 119.864V118.84C233.307 118.962 233.563 119.056 233.83 119.12C234.102 119.184 234.352 119.216 234.582 119.216C235.014 119.216 235.315 119.141 235.486 118.992C235.662 118.842 235.75 118.632 235.75 118.36C235.75 118.2 235.71 118.066 235.63 117.96C235.55 117.848 235.408 117.765 235.206 117.712C235.008 117.653 234.731 117.624 234.374 117.624H233.942V116.696H234.382C234.734 116.696 235 116.664 235.182 116.6C235.368 116.53 235.494 116.44 235.558 116.328C235.627 116.21 235.662 116.077 235.662 115.928C235.662 115.725 235.598 115.568 235.47 115.456C235.347 115.338 235.139 115.28 234.846 115.28C234.664 115.28 234.499 115.304 234.35 115.352C234.2 115.394 234.064 115.448 233.942 115.512C233.824 115.576 233.72 115.637 233.63 115.696L233.07 114.864C233.219 114.757 233.384 114.661 233.566 114.576C233.752 114.49 233.958 114.424 234.182 114.376C234.406 114.328 234.656 114.304 234.934 114.304C235.52 114.304 235.984 114.424 236.326 114.664C236.672 114.898 236.846 115.232 236.846 115.664ZM240.6 114.384L238.472 120.096H237.392L239.52 114.384H240.6ZM247.833 115.128C247.745 115.28 247.633 115.496 247.569 115.696C247.353 116.416 246.897 117.48 246.169 118.368C245.409 119.296 244.449 120.032 242.945 120.624L242.001 119.784C243.633 119.288 244.521 118.592 245.225 117.8C245.769 117.176 246.233 116.216 246.361 115.624H243.665L244.033 114.712C244.385 114.712 246.065 114.712 246.313 114.712C246.561 114.712 246.833 114.68 247.009 114.616L247.833 115.128ZM245.225 113.856C245.033 114.136 244.825 114.504 244.737 114.672C244.193 115.64 243.241 116.768 242.089 117.552L241.193 116.888C242.593 116.032 243.297 115 243.689 114.312C243.809 114.12 243.977 113.752 244.049 113.472L245.225 113.856ZM250.425 113.96C250.641 113.992 250.985 114.008 251.257 114.008C251.761 114.008 253.865 114.008 254.329 114.008C254.585 114.008 254.977 113.992 255.193 113.96V115C254.985 114.984 254.609 114.968 254.313 114.968C253.873 114.968 251.729 114.968 251.257 114.968C250.993 114.968 250.657 114.976 250.425 115V113.96ZM255.873 116.288C255.817 116.392 255.745 116.536 255.721 116.616C255.473 117.392 255.129 118.176 254.537 118.832C253.729 119.736 252.705 120.272 251.681 120.568L250.881 119.664C252.089 119.408 253.041 118.888 253.657 118.256C254.081 117.824 254.337 117.32 254.473 116.88C254.073 116.88 251.329 116.88 250.617 116.88C250.417 116.88 250.017 116.888 249.681 116.912V115.872C250.025 115.904 250.361 115.928 250.617 115.928C251.161 115.928 254.025 115.928 254.569 115.928C254.833 115.928 255.049 115.896 255.161 115.84L255.873 116.288ZM263.753 114.776C263.673 114.928 263.617 115.16 263.577 115.328C263.393 116.112 263.041 117.352 262.369 118.248C261.649 119.2 260.585 120 259.153 120.456L258.281 119.496C259.873 119.128 260.769 118.432 261.417 117.624C261.953 116.952 262.249 116.048 262.361 115.36C261.873 115.36 259.233 115.36 258.633 115.36C258.265 115.36 257.889 115.384 257.681 115.392V114.264C257.921 114.296 258.369 114.328 258.633 114.328C259.233 114.328 261.889 114.328 262.337 114.328C262.489 114.328 262.745 114.32 262.961 114.272L263.753 114.776ZM267.145 119.336C267.145 118.72 267.145 115.408 267.145 114.736C267.145 114.448 267.121 114.056 267.065 113.768H268.313C268.281 114.056 268.241 114.4 268.241 114.736C268.241 115.616 268.249 118.744 268.249 119.336C268.249 119.56 268.281 120.12 268.321 120.448H267.065C267.121 120.136 267.145 119.648 267.145 119.336ZM268.009 115.84C269.073 116.136 270.801 116.768 271.585 117.152L271.137 118.264C270.225 117.792 268.881 117.28 268.009 116.992V115.84ZM276.657 119.92C276.697 119.768 276.721 119.552 276.721 119.336C276.721 118.912 276.721 115.32 276.721 114.672C276.721 114.312 276.665 114 276.665 113.984H277.849C277.849 114 277.793 114.32 277.793 114.68C277.793 115.32 277.793 118.368 277.793 118.856C278.449 118.576 279.233 117.944 279.777 117.168L280.385 118.056C279.721 118.92 278.577 119.784 277.673 120.24C277.505 120.328 277.409 120.416 277.329 120.472L276.657 119.92ZM272.953 119.808C273.665 119.312 274.097 118.576 274.313 117.888C274.545 117.208 274.553 115.688 274.553 114.728C274.553 114.4 274.521 114.192 274.473 113.992H275.649C275.649 114.024 275.593 114.384 275.593 114.712C275.593 115.664 275.569 117.352 275.361 118.16C275.113 119.056 274.617 119.848 273.929 120.456L272.953 119.808ZM281.369 116.392C281.665 116.416 282.241 116.448 282.657 116.448C283.601 116.448 286.241 116.448 286.953 116.448C287.329 116.448 287.681 116.408 287.897 116.392V117.656C287.705 117.648 287.297 117.608 286.961 117.608C286.233 117.608 283.601 117.608 282.657 117.608C282.209 117.608 281.673 117.632 281.369 117.656V116.392ZM292.83 114.064C292.726 114.304 292.614 114.6 292.494 114.96C292.198 115.856 291.366 118.432 291.022 119.264L289.846 119.304C290.278 118.28 291.11 115.656 291.374 114.728C291.486 114.328 291.526 114.072 291.558 113.808L292.83 114.064ZM294.262 116.648C294.838 117.512 295.654 119.088 296.022 119.976L294.942 120.456C294.582 119.488 293.838 117.832 293.27 117.064L294.262 116.648ZM289.766 118.944C290.878 118.904 293.494 118.608 294.614 118.456L294.846 119.48C293.662 119.632 290.91 119.92 289.83 120.032C289.63 120.056 289.326 120.096 289.078 120.128L288.886 118.952C289.158 118.96 289.51 118.952 289.766 118.944Z" fill="#259333"/>
<path d="M160.75 60C160.44 60 159.157 60 159.157 60V60.9293C159.157 60.9293 160.042 60.9293 160.971 60.9293C162.697 60.9293 163.14 61.7698 163.14 61.7698C163.14 61.7698 163.14 61.7698 163.449 61.5486C162.918 60.177 161.06 60 160.75 60Z" fill="black"/>
<path d="M157.157 67.167L157 67.958H158.08L157.923 67.167H157.157Z" fill="black"/>
<path d="M160.559 62.2514V61.4747C160.559 61.3169 160.431 61.189 160.272 61.189H159.739C159.58 61.189 159.453 61.3169 159.453 61.4747V62.2666C158.782 62.5033 158.302 63.1425 158.302 63.8937V69.3363C158.302 69.7027 158.599 69.9998 158.966 69.9998H161.09C161.456 69.9998 161.753 69.7027 161.753 69.3363V63.8937C161.753 63.1258 161.252 62.4754 160.559 62.2514ZM160.946 67.9423H159.109V65.6978H160.946V67.9423Z" fill="black"/>
<path d="M157.745 63.9246C157.745 63.169 158.132 62.4763 158.746 62.0743L158.748 62.0729L158.748 62.0731C158.751 62.0701 158.875 61.9924 159.071 61.9258V61.5C158.747 61.5873 158.542 61.7204 158.522 61.7329C158.522 61.7331 158.522 61.7331 158.522 61.7331C158.522 61.7333 158.52 61.7345 158.52 61.7347L158.52 61.7349C157.794 62.2115 157.337 63.0299 157.337 63.9246V67.027H157.745V63.9246ZM158.751 62.0709L158.749 62.0727L158.749 62.0725L158.751 62.0709Z" fill="black"/>
<path d="M177.75 84C177.44 84 176.157 84 176.157 84V84.9293C176.157 84.9293 177.042 84.9293 177.971 84.9293C179.697 84.9293 180.14 85.7698 180.14 85.7698C180.14 85.7698 180.14 85.7698 180.449 85.5486C179.918 84.177 178.06 84 177.75 84Z" fill="black"/>
<path d="M174.157 91.167L174 91.958H175.08L174.923 91.167H174.157Z" fill="black"/>
<path d="M177.559 86.2514V85.4747C177.559 85.3169 177.431 85.189 177.272 85.189H176.739C176.58 85.189 176.453 85.3169 176.453 85.4747V86.2666C175.782 86.5033 175.302 87.1425 175.302 87.8937V93.3363C175.302 93.7027 175.599 93.9998 175.966 93.9998H178.09C178.456 93.9998 178.753 93.7027 178.753 93.3363V87.8937C178.753 87.1258 178.252 86.4754 177.559 86.2514ZM177.946 91.9423H176.109V89.6978H177.946V91.9423Z" fill="black"/>
<path d="M174.745 87.9246C174.745 87.169 175.132 86.4763 175.746 86.0743L175.748 86.0729L175.748 86.0731C175.751 86.0701 175.875 85.9924 176.071 85.9258V85.5C175.747 85.5873 175.542 85.7204 175.522 85.7329C175.522 85.7331 175.522 85.7331 175.522 85.7331C175.522 85.7333 175.52 85.7345 175.52 85.7347L175.52 85.7349C174.794 86.2115 174.337 87.0299 174.337 87.9246V91.027H174.745V87.9246ZM175.751 86.0709L175.749 86.0727L175.749 86.0725L175.751 86.0709Z" fill="black"/>
<path d="M15.3301 64.5336C15.3301 65.2824 15.9401 65.889 16.6854 65.889C17.4344 65.889 18.0408 65.2824 18.0408 64.5336C18.0408 63.7882 17.4345 63.1782 16.6854 63.1782C15.9401 63.1782 15.3301 63.7882 15.3301 64.5336Z" fill="black"/>
<path d="M16.0001 78.4602L15.5024 78.4575L15.5034 78.4602H15.4961L16.1195 79.9952H17.9899L17.3021 78.4602H16.0001Z" fill="black"/>
<path d="M11.0586 60H11.0068H11V79.9272V79.9881V79.995H13.3571L15.0818 80L15.0765 79.995H15.0864L13.3177 78.3381V70.1584H15.5031L16.6823 69.0949L17.0254 68.788L18.0309 70.9547L16.1498 75.5726L15.4388 77.3112H15.4416L15.4388 77.318H17.2448L18.6871 74.1098L19.8289 71.5833L20.7924 75.6409H25.6108C25.8886 75.6409 26.0547 75.336 25.9021 75.1055L25.3059 74.2042C25.2923 74.1873 25.2787 74.1738 25.2652 74.1567C25.2008 74.089 25.1126 74.0483 25.0178 74.0483H22.2123L21.504 70.3312L20.5457 68.2613L20.1518 67.4037H21.6327L22.6052 69.2402C22.6662 69.3554 22.7847 69.4164 22.9 69.4164C22.9611 69.4164 23.022 69.3994 23.0762 69.3656L23.7504 68.9488C23.8995 68.8539 23.9505 68.6575 23.8623 68.5049L22.429 65.9636H18.8103C17.9902 65.9636 17.2109 66.3058 16.6586 66.909L15.1168 68.5862H13.3178V61.8772H25.6274H25.6583V73.6484C25.8243 73.7027 25.97 73.8112 26.0683 73.9603L26.6646 74.8582C26.8239 75.102 26.8408 75.4104 26.702 75.6679C26.563 75.9255 26.2986 76.0848 26.0073 76.0848H25.6583V78.3381L27.4304 79.995H27.9792V60H11.0586Z" fill="black"/>
</svg>
