<svg width="347" height="128" viewBox="0 0 347 128" fill="none" xmlns="http://www.w3.org/2000/svg">
<path d="M26.1478 55.6502L18.0985 53.1084L24.0296 41.67L26.5276 40.399M26.1478 55.6502L42.9241 47.1773M26.1478 55.6502L23.1823 57.6273M68.0887 34.468L48.1773 29.3842L38.1852 34.468M68.0887 34.468L57.9212 39.6031M68.0887 34.468L106.217 14.5202M231.192 31.9261L238.394 28.1133L132.059 1L106.217 14.5202M231.192 31.9261L337.103 59.8867L346 67.936L325.241 109.877H285.842L278.64 125.552H175.695M231.192 31.9261L212.128 41.852M136.296 107.01L132.483 117.291M136.296 107.01L151.547 106.911L146.887 117.661M136.296 107.01L130.365 106.488L123.163 106.064L71.0542 92.0837L60.0394 98.0148H2L22.335 58.1921L23.1823 57.6273M42.9241 47.1773L34.6207 44.6355M42.9241 47.1773L45.9575 45.6453M34.6207 44.6355L32.9261 44.2118L34.6207 43.3199M34.6207 44.6355L37.7557 42.903M26.5276 40.399L34.6207 43.3199M26.5276 40.399L29.5369 38.8679M34.6207 43.3199L37.7557 41.67M29.5369 38.8679L37.7557 41.67M29.5369 38.8679L32.3564 37.4335M37.7557 41.67L40.5517 40.1983M32.3564 37.4335L40.5517 40.1983M32.3564 37.4335L35.0443 36.0659M40.5517 40.1983L43.5172 38.6375M35.0443 36.0659L43.5172 38.6375M35.0443 36.0659L38.1852 34.468M43.5172 38.6375L46.2709 37.1882M38.1852 34.468L46.2709 37.1882M46.2709 37.1882L49.0246 35.7389H50.7192L48.3384 37.0546M37.7557 42.903L45.9575 45.6453M37.7557 42.903L40.5517 41.3578M45.9575 45.6453L48.7959 44.2118M40.5517 41.3578L48.7959 44.2118M40.5517 41.3578L42.9241 40.0467M48.7959 44.2118L51.9901 42.5985M42.9241 40.0467L51.9901 42.5985M42.9241 40.0467L45.9575 38.3704M51.9901 42.5985L54.532 41.3148M45.9575 38.3704L54.532 41.3148M45.9575 38.3704L48.3384 37.0546M54.532 41.3148L57.9212 39.6031M48.3384 37.0546L57.9212 39.6031M23.1823 57.6273L128.67 85.3054L143.074 77.8058M106.217 14.5202L180.778 33.7618M212.128 41.852L180.778 33.7618M212.128 41.852L237.123 48.2474M212.128 41.852L190.946 52.8808M143.074 77.8058L112.995 69.2069L148.581 50.5982M143.074 77.8058L148.198 75.1379M180.778 33.7618L148.581 50.5982M148.581 50.5982L178.66 59.2775M178.66 59.2775L176.542 60.3804M178.66 59.2775L179.507 58.8363M175.695 125.552L189.675 97.5911L224.414 80.2217L300.67 80.6453L307.448 66.2414L241.783 49.4398M175.695 125.552H153.241M237.123 48.2474L241.783 49.4398M237.123 48.2474L212.975 61.0204M241.783 49.4398L223.567 59.0239M212.975 64.9704L223.143 68.3596L226.264 66.665M223.567 59.0239L227.379 57.3448L237.97 60.3103L234.849 62.0049M223.567 59.0239L234.849 62.0049M223.567 59.0239L221.121 60.3103M234.849 62.0049L232.039 63.5301M221.121 60.3103L232.039 63.5301M221.121 60.3103L217.9 62.0049M232.039 63.5301L229.386 64.9704M217.9 62.0049L229.386 64.9704M217.9 62.0049L215.001 63.5301M229.386 64.9704L226.264 66.665M215.001 63.5301L190.522 76.4089L186.286 75.1379L198.995 68.4153M215.001 63.5301L226.264 66.665M148.198 75.1379L165.103 79.798L177.813 72.1724L161.714 68.1005M148.198 75.1379L161.714 68.1005M161.714 68.1005L176.542 60.3804M176.542 60.3804L187.98 63.6995M187.98 63.6995L186.709 64.5468L187.98 65.3941L188.805 64.9704M187.98 63.6995L190.522 62.3923M202.808 56.0739L203.655 57.3448L202.736 57.8169M202.808 56.0739L199.419 57.8169M202.808 56.0739L190.946 52.8808M179.507 58.8363L190.522 62.3923M179.507 58.8363L182.049 57.5129M190.522 62.3923L193.747 60.734M182.049 57.5129L193.747 60.734M182.049 57.5129L184.813 56.0739M193.747 60.734L196.579 59.2775M184.813 56.0739L196.579 59.2775M184.813 56.0739L187.557 54.6454M196.579 59.2775L199.419 57.8169M187.557 54.6454L199.419 57.8169M187.557 54.6454L190.946 52.8808M188.805 64.9704L198.995 68.4153M188.805 64.9704L191.28 63.6995M198.995 68.4153L201.537 67.0708M201.537 67.0708L191.28 63.6995M201.537 67.0708L204.502 65.5022M191.28 63.6995L193.747 62.433M204.502 65.5022L193.747 62.433M204.502 65.5022L207.468 63.9336M193.747 62.433L197.055 60.734M207.468 63.9336L197.055 60.734M207.468 63.9336L210.305 62.433M197.055 60.734L199.892 59.2775M210.305 62.433L199.892 59.2775M210.305 62.433L212.975 61.0204M199.892 59.2775L202.736 57.8169M212.975 61.0204L202.736 57.8169M153.241 125.552H128.67L132.483 117.291M153.241 125.552L157.207 117.926M164.256 104.369L157.207 117.926M157.207 117.926L146.887 117.661M132.483 117.291L146.887 117.661" stroke="#6FBA2D"/>
<path d="M159.53 68.4268C159.083 68.4268 158.721 68.789 158.721 69.2362C158.721 69.6833 159.083 70.0455 159.53 70.0455C159.977 70.0455 160.34 69.6833 160.34 69.2362C160.34 68.789 159.977 68.4268 159.53 68.4268Z" fill="black"/>
<path d="M162.985 68.4268C162.538 68.4268 162.176 68.789 162.176 69.2362C162.176 69.6833 162.538 70.0455 162.985 70.0455C163.432 70.0455 163.795 69.6833 163.795 69.2362C163.795 68.789 163.432 68.4268 162.985 68.4268Z" fill="black"/>
<path d="M166.441 68.4268C165.994 68.4268 165.632 68.789 165.632 69.2362C165.632 69.6833 165.994 70.0455 166.441 70.0455C166.889 70.0455 167.251 69.6833 167.251 69.2362C167.251 68.789 166.889 68.4268 166.441 68.4268Z" fill="black"/>
<path d="M168.286 64.5732H157.685C156.87 64.5732 156.207 65.2362 156.207 66.0507V77.4011C156.207 78.2159 156.87 78.8788 157.685 78.8788H168.286C169.101 78.8788 169.764 78.2159 169.764 77.4011V66.0507C169.764 65.2362 169.101 64.5732 168.286 64.5732ZM159.386 77.9464L159.53 74.7018L159.674 77.9464H159.386ZM162.841 77.9464L162.986 74.7018L163.13 77.9464H162.841ZM166.297 77.9464L166.441 74.7018L166.585 77.9464H166.297ZM168.831 77.4011C168.831 77.7018 168.587 77.9464 168.286 77.9464H167.33L167.356 74.1581C167.416 74.2454 167.514 74.3043 167.627 74.2989C167.801 74.2906 167.935 74.1431 167.927 73.9692L168.061 71.2747C168.061 70.2148 166.987 70.1627 166.441 70.1627C165.895 70.1627 164.821 70.2148 164.821 71.2747L164.912 73.9692C164.904 74.1431 165.037 74.2906 165.211 74.2989C165.363 74.3062 165.489 74.2019 165.526 74.0603L165.552 77.9463H163.874L163.901 74.1581C163.96 74.2454 164.058 74.3043 164.172 74.2989C164.345 74.2906 164.479 74.143 164.471 73.9692L164.605 71.2746C164.605 70.2148 163.531 70.1626 162.986 70.1626C162.439 70.1626 161.365 70.2148 161.365 71.2746L161.456 73.9692C161.448 74.143 161.582 74.2906 161.756 74.2989C161.908 74.3062 162.034 74.2016 162.07 74.0595L162.096 77.9463H160.419L160.445 74.1581C160.504 74.2454 160.602 74.3042 160.716 74.2989C160.89 74.2905 161.024 74.143 161.016 73.9691L161.15 71.2746C161.15 70.2148 160.076 70.1626 159.53 70.1626C158.984 70.1626 157.91 70.2148 157.91 71.2746L158 73.9691C157.992 74.143 158.126 74.2905 158.3 74.2989C158.452 74.3061 158.579 74.2016 158.614 74.0594L158.641 77.9463H157.685C157.384 77.9463 157.14 77.7017 157.14 77.401V66.0507C157.14 65.7503 157.384 65.5057 157.685 65.5057H168.286C168.587 65.5057 168.831 65.7503 168.831 66.0507V77.4011H168.831Z" fill="black"/>
<path d="M164.044 62.1456L165.152 61.0379V63.5285C165.152 63.7555 165.336 63.9396 165.563 63.9396C165.79 63.9396 165.975 63.7555 165.975 63.5285V61.0379L167.083 62.1456C167.163 62.2259 167.268 62.2663 167.373 62.2663C167.479 62.2663 167.584 62.2259 167.664 62.1456C167.825 61.9849 167.825 61.7245 167.664 61.5641L165.854 59.7537L165.563 59.4629L165.272 59.7537L163.462 61.5641C163.302 61.7245 163.302 61.9849 163.462 62.1456C163.623 62.3063 163.884 62.3063 164.044 62.1456Z" fill="black"/>
<path d="M160.116 63.8183C160.116 63.8185 160.116 63.8185 160.116 63.8185L160.407 64.1093L160.698 63.8185C160.698 63.8185 160.698 63.8185 160.698 63.8183L162.508 62.0081C162.669 61.8474 162.669 61.5868 162.508 61.4263C162.348 61.2656 162.087 61.2656 161.926 61.4263L160.819 62.5343V60.0438C160.819 59.8164 160.634 59.6323 160.407 59.6323C160.18 59.6323 159.996 59.8164 159.996 60.0438V62.5343L158.888 61.4263C158.727 61.2656 158.467 61.2656 158.306 61.4263C158.145 61.5867 158.145 61.8474 158.306 62.0081L160.116 63.8183Z" fill="black"/>
<path d="M135.07 107.017C134.788 107.069 134.56 107.191 134.366 107.396C133.894 107.895 133.917 108.687 134.418 109.158C134.733 109.457 135.178 109.567 135.607 109.455C135.738 109.422 135.944 109.315 136.059 109.223C136.45 108.91 136.615 108.387 136.476 107.905C136.362 107.511 136.066 107.2 135.684 107.07C135.487 107.003 135.257 106.983 135.07 107.017Z" fill="black"/>
<path d="M133.473 109.769C133.268 109.784 133.088 109.834 132.895 109.93C132.392 110.182 132.062 110.673 132.01 111.247C132.001 111.348 131.998 112.006 132.001 113.377L132.004 115.361L132.031 115.439C132.08 115.582 132.177 115.694 132.305 115.753C132.355 115.777 132.384 115.78 132.496 115.78C132.617 115.78 132.634 115.778 132.7 115.745C132.835 115.678 132.935 115.548 132.972 115.388C132.984 115.339 132.987 114.904 132.987 113.41V111.494H133.285H133.581V116.598C133.581 121.042 133.583 121.713 133.599 121.786C133.666 122.108 133.955 122.343 134.283 122.344C134.378 122.344 134.523 122.307 134.615 122.257C134.723 122.2 134.849 122.07 134.904 121.96C134.988 121.787 134.984 122.021 134.984 118.726V115.75H135.277H135.571V118.732C135.572 122.016 135.566 121.79 135.649 121.955C135.728 122.116 135.865 122.236 136.048 122.305C136.118 122.332 136.146 122.337 136.272 122.337C136.398 122.337 136.427 122.332 136.496 122.305C136.68 122.236 136.817 122.116 136.894 121.958C136.98 121.785 136.974 122.243 136.974 116.598V111.494H137.267H137.561V113.398C137.561 114.714 137.565 115.325 137.574 115.374C137.605 115.543 137.701 115.676 137.846 115.747C137.931 115.79 137.943 115.792 138.045 115.791C138.127 115.791 138.17 115.784 138.218 115.766C138.388 115.697 138.502 115.543 138.532 115.335C138.548 115.222 138.548 111.464 138.532 111.279C138.467 110.547 137.961 109.958 137.267 109.802C137.191 109.785 137.101 109.777 136.956 109.773C136.59 109.765 133.591 109.761 133.473 109.769Z" fill="black"/>
<path d="M142.832 107.018C142.395 107.097 142.042 107.377 141.872 107.778C141.796 107.953 141.768 108.111 141.776 108.313C141.779 108.426 141.789 108.508 141.806 108.576C141.904 108.948 142.14 109.242 142.475 109.408C143.107 109.719 143.864 109.463 144.174 108.83C144.25 108.673 144.284 108.555 144.3 108.39C144.343 107.927 144.126 107.471 143.742 107.216C143.468 107.036 143.135 106.963 142.832 107.018Z" fill="black"/>
<path d="M141.497 109.827C141.036 109.899 140.65 110.155 140.374 110.572C140.244 110.768 140.278 110.669 139.778 112.314C139.581 112.962 139.367 113.666 139.214 114.172C139.149 114.383 139.091 114.589 139.084 114.634C139.034 114.916 139.182 115.179 139.434 115.257C139.63 115.318 139.828 115.263 139.964 115.112C140.066 114.998 140.052 115.039 140.423 113.791C140.504 113.517 140.622 113.123 140.684 112.916C140.745 112.708 140.861 112.321 140.94 112.055L141.084 111.572H141.349C141.57 111.572 141.615 111.575 141.615 111.589C141.615 111.599 141.576 111.745 141.528 111.915C141.443 112.22 141.189 113.136 140.526 115.518C140.021 117.334 140.009 117.377 140.002 117.4C139.996 117.42 140.038 117.422 140.78 117.422H141.566V119.735C141.566 122.254 141.562 122.123 141.634 122.264C141.697 122.389 141.824 122.493 141.97 122.538C142.066 122.569 142.268 122.566 142.361 122.53C142.54 122.466 142.657 122.346 142.718 122.164C142.738 122.101 142.739 121.989 142.743 119.747L142.745 117.397H143.043H143.341V119.75C143.341 122.101 143.341 122.105 143.367 122.18C143.444 122.409 143.626 122.544 143.883 122.562C144.19 122.583 144.449 122.384 144.495 122.091C144.504 122.039 144.509 121.241 144.509 119.716V117.422H145.287C145.794 117.422 146.065 117.418 146.065 117.409C146.065 117.403 145.978 117.083 145.87 116.702C145.763 116.319 145.626 115.832 145.567 115.622C145.507 115.411 145.371 114.924 145.263 114.539C144.928 113.348 144.851 113.072 144.764 112.764C144.718 112.6 144.626 112.27 144.559 112.031C144.491 111.791 144.436 111.59 144.436 111.584C144.436 111.577 144.545 111.572 144.716 111.572H144.994L145.02 111.66C145.034 111.708 145.056 111.781 145.068 111.821C145.08 111.862 145.135 112.045 145.19 112.229C145.245 112.412 145.336 112.719 145.393 112.91C145.449 113.101 145.534 113.384 145.58 113.539C145.758 114.134 145.838 114.407 145.902 114.625C145.939 114.749 145.982 114.88 145.995 114.916C146.096 115.178 146.326 115.325 146.565 115.281C146.841 115.231 147.02 114.984 146.998 114.685C146.991 114.594 146.981 114.559 146.709 113.664C146.466 112.865 146.075 111.579 145.972 111.238C145.92 111.063 145.857 110.886 145.827 110.822C145.755 110.671 145.622 110.497 145.457 110.34C145.158 110.053 144.815 109.881 144.442 109.827C144.273 109.803 141.651 109.803 141.497 109.827Z" fill="black"/>
<path d="M152.279 112.036C153.116 112.036 153.797 111.355 153.797 110.518C153.797 109.681 153.116 109 152.279 109C151.443 109 150.762 109.681 150.762 110.518C150.762 111.355 151.443 112.036 152.279 112.036Z" fill="black"/>
<path d="M155.448 119.275C155.449 119.274 155.449 119.272 155.45 119.271L153.905 119.273C153.859 119.366 153.804 119.457 153.738 119.551C153.563 119.8 153.343 120.011 153.084 120.179C152.827 120.344 152.544 120.457 152.244 120.515C152.101 120.542 151.955 120.556 151.81 120.556C151.643 120.556 151.474 120.537 151.307 120.502C150.993 120.433 150.704 120.307 150.448 120.126C150.197 119.949 149.987 119.729 149.821 119.473C149.656 119.216 149.543 118.933 149.486 118.632C149.427 118.324 149.432 118.008 149.499 117.696C149.567 117.382 149.693 117.093 149.874 116.836C150.051 116.586 150.271 116.375 150.528 116.21C150.787 116.043 151.07 115.93 151.371 115.869L151.099 114.455C150.616 114.546 150.16 114.727 149.745 114.995C149.329 115.264 148.975 115.603 148.693 116.005C148.4 116.422 148.196 116.887 148.086 117.39C147.978 117.892 147.972 118.401 148.066 118.901C148.157 119.385 148.339 119.84 148.607 120.255C148.876 120.672 149.216 121.026 149.617 121.307C150.033 121.6 150.499 121.805 151.001 121.914C151.269 121.971 151.54 122 151.809 122C152.045 122 152.282 121.978 152.512 121.934C152.999 121.841 153.455 121.659 153.867 121.393C154.282 121.125 154.636 120.786 154.919 120.383C155.133 120.079 155.296 119.748 155.409 119.395C155.422 119.355 155.438 119.316 155.45 119.275H155.448V119.275Z" fill="black"/>
<path d="M158.733 116.726L153.859 116.729L153.65 115.498L153.617 115.299L156.907 115.297L157.467 114.393L157.769 113.911H157.766L157.769 113.907L153.392 113.91L153.158 112.507L151.922 112.511H151.727L151.727 112.512H151.723L152.656 118.146L157.531 118.142L158.094 121.534H159.532L158.733 116.726Z" fill="black"/>
<path d="M34.7501 49C34.4404 49 33.1572 49 33.1572 49V49.9293C33.1572 49.9293 34.0423 49.9293 34.9715 49.9293C36.6973 49.9293 37.1396 50.7698 37.1396 50.7698C37.1396 50.7698 37.1396 50.7698 37.4493 50.5486C36.9184 49.177 35.0601 49 34.7501 49Z" fill="black"/>
<path d="M31.1568 56.167L31 56.958H32.0798L31.9229 56.167H31.1568Z" fill="black"/>
<path d="M34.5586 51.2514V50.4747C34.5586 50.3169 34.4306 50.189 34.2724 50.189H33.7388C33.5804 50.189 33.4527 50.3169 33.4527 50.4747V51.2666C32.7824 51.5033 32.3018 52.1425 32.3018 52.8937V58.3363C32.3018 58.7027 32.5995 58.9998 32.9657 58.9998H35.0898C35.4564 58.9998 35.7533 58.7027 35.7533 58.3363V52.8937C35.7533 52.1258 35.252 51.4754 34.5586 51.2514ZM34.9457 56.9423H33.1094V54.6978H34.9457V56.9423Z" fill="black"/>
<path d="M31.745 52.9246C31.7448 52.169 32.1321 51.4763 32.7461 51.0743L32.7481 51.0729L32.7483 51.0731C32.7514 51.0701 32.875 50.9924 33.0708 50.9258V50.5C32.7469 50.5873 32.5422 50.7204 32.5225 50.7329C32.5223 50.7331 32.5223 50.7331 32.5223 50.7331C32.5219 50.7333 32.5199 50.7345 32.5197 50.7347L32.5199 50.7349C31.794 51.2115 31.3371 52.0299 31.3369 52.9246V56.027H31.745V52.9246ZM32.7513 51.0709L32.7489 51.0727L32.7487 51.0725L32.7513 51.0709Z" fill="black"/>
<path d="M142.75 95C142.44 95 141.157 95 141.157 95V95.9293C141.157 95.9293 142.042 95.9293 142.971 95.9293C144.697 95.9293 145.14 96.7698 145.14 96.7698C145.14 96.7698 145.14 96.7698 145.449 96.5486C144.918 95.177 143.06 95 142.75 95Z" fill="black"/>
<path d="M139.157 102.167L139 102.958H140.08L139.923 102.167H139.157Z" fill="black"/>
<path d="M142.559 97.2514V96.4747C142.559 96.3169 142.431 96.189 142.272 96.189H141.739C141.58 96.189 141.453 96.3169 141.453 96.4747V97.2666C140.782 97.5033 140.302 98.1425 140.302 98.8937V104.336C140.302 104.703 140.599 105 140.966 105H143.09C143.456 105 143.753 104.703 143.753 104.336V98.8937C143.753 98.1258 143.252 97.4754 142.559 97.2514ZM142.946 102.942H141.109V100.698H142.946V102.942Z" fill="black"/>
<path d="M139.745 98.9246C139.745 98.169 140.132 97.4763 140.746 97.0743L140.748 97.0729L140.748 97.0731C140.751 97.0701 140.875 96.9924 141.071 96.9258V96.5C140.747 96.5873 140.542 96.7204 140.522 96.7329C140.522 96.7331 140.522 96.7331 140.522 96.7331C140.522 96.7333 140.52 96.7345 140.52 96.7347L140.52 96.7349C139.794 97.2115 139.337 98.0299 139.337 98.9246V102.027H139.745V98.9246ZM140.751 97.0709L140.749 97.0727L140.749 97.0725L140.751 97.0709Z" fill="black"/>
<rect x="41.5" y="49.5" width="46" height="17" fill="white" stroke="#2C893A"/>
<path d="M48.7771 54.528H52.1611V55.392H48.7771V54.528ZM48.8411 55.864H51.3691V56.624H48.8411V55.864ZM49.0011 57.096H49.7691V60.416H49.0011V57.096ZM49.5291 57.096H51.2091V59.792H49.5291V59.008H50.4651V57.88H49.5291V57.096ZM51.7211 54.528H52.6331V60.616C52.6331 61.104 52.5371 61.384 52.2251 61.544C51.9211 61.704 51.4891 61.728 50.8251 61.728C50.7851 61.464 50.6251 61.016 50.4891 60.768C50.9371 60.792 51.3931 60.784 51.5371 60.784C51.6651 60.784 51.7211 60.736 51.7211 60.6V54.528ZM46.9771 55.728H47.7611V56.728H46.9771V55.728ZM45.8571 56.392H46.7131V60.848H45.8571V56.392ZM46.3451 57.472H48.0971V58.088H46.3451V57.472ZM45.3771 60.616C46.0651 60.48 47.0971 60.248 48.0891 60.008L48.1851 60.784C47.3051 61.04 46.3691 61.296 45.6331 61.488L45.3771 60.616ZM47.3051 59.56L48.0651 59.24C48.4491 59.824 48.8411 60.592 48.9851 61.112L48.1611 61.472C48.0411 60.96 47.6731 60.16 47.3051 59.56ZM46.4011 56.392H48.6251V59.168H46.4011V58.488H47.7691V57.08H46.4011V56.392ZM46.7291 54.208H47.2491V54.384H47.5291V54.648C47.2011 55.272 46.6891 56.128 45.8491 56.848C45.7131 56.656 45.4171 56.36 45.2171 56.232C45.9691 55.648 46.4571 54.864 46.7291 54.208ZM46.9691 54.208H47.6091C48.0811 54.584 48.6731 55.136 48.9611 55.536L48.3691 56.232C48.1211 55.84 47.5771 55.208 47.1291 54.856H46.9691V54.208ZM54.6331 57.6H58.9451V58.376H55.6011V61.728H54.6331V57.6ZM58.6491 57.6H59.6251V60.824C59.6251 61.272 59.5131 61.48 59.1771 61.6C58.8491 61.72 58.3771 61.728 57.7211 61.728C57.6731 61.496 57.5451 61.176 57.4331 60.96C57.8171 60.976 58.3371 60.976 58.4651 60.968C58.6011 60.968 58.6491 60.928 58.6491 60.816V57.6ZM55.2251 58.752H59.0011V59.408H55.2251V58.752ZM53.5451 54.888H60.6731V55.728H53.5451V54.888ZM55.5451 55.392L56.6251 55.672C56.2411 56.168 55.8011 56.672 55.4731 57.008L54.7051 56.736C55.0011 56.36 55.3451 55.8 55.5451 55.392ZM57.9611 55.96L58.7451 55.488C59.4011 55.936 60.2571 56.616 60.6811 57.104L59.8411 57.648C59.4651 57.168 58.6411 56.448 57.9611 55.96ZM53.8251 56.424C55.3051 56.416 57.6331 56.376 59.7771 56.336L59.7291 57.112C57.6251 57.192 55.3451 57.256 53.8571 57.288L53.8251 56.424ZM55.2251 59.792H58.9931V60.448H55.2251V59.792ZM56.6091 54.2H57.6011V55.312H56.6091V54.2ZM65.1371 60.824C65.1771 60.672 65.2011 60.456 65.2011 60.24C65.2011 59.816 65.2011 56.224 65.2011 55.576C65.2011 55.216 65.1451 54.904 65.1451 54.888H66.3291C66.3291 54.904 66.2731 55.224 66.2731 55.584C66.2731 56.224 66.2731 59.272 66.2731 59.76C66.9291 59.48 67.7131 58.848 68.2571 58.072L68.8651 58.96C68.2011 59.824 67.0571 60.688 66.1531 61.144C65.9851 61.232 65.8891 61.32 65.8091 61.376L65.1371 60.824ZM61.4331 60.712C62.1451 60.216 62.5771 59.48 62.7931 58.792C63.0251 58.112 63.0331 56.592 63.0331 55.632C63.0331 55.304 63.0011 55.096 62.9531 54.896H64.1291C64.1291 54.928 64.0731 55.288 64.0731 55.616C64.0731 56.568 64.0491 58.256 63.8411 59.064C63.5931 59.96 63.0971 60.752 62.4091 61.36L61.4331 60.712ZM69.8491 57.296C70.1451 57.32 70.7211 57.352 71.1371 57.352C72.0811 57.352 74.7211 57.352 75.4331 57.352C75.8091 57.352 76.1611 57.312 76.3771 57.296V58.56C76.1851 58.552 75.7771 58.512 75.4411 58.512C74.7131 58.512 72.0811 58.512 71.1371 58.512C70.6891 58.512 70.1531 58.536 69.8491 58.56V57.296ZM81.3109 54.968C81.2069 55.208 81.0949 55.504 80.9749 55.864C80.6789 56.76 79.8469 59.336 79.5029 60.168L78.3269 60.208C78.7589 59.184 79.5909 56.56 79.8549 55.632C79.9669 55.232 80.0069 54.976 80.0389 54.712L81.3109 54.968ZM82.7429 57.552C83.3189 58.416 84.1349 59.992 84.5029 60.88L83.4229 61.36C83.0629 60.392 82.3189 58.736 81.7509 57.968L82.7429 57.552ZM78.2469 59.848C79.3589 59.808 81.9749 59.512 83.0949 59.36L83.3269 60.384C82.1429 60.536 79.3909 60.824 78.3109 60.936C78.1109 60.96 77.8069 61 77.5589 61.032L77.3669 59.856C77.6389 59.864 77.9909 59.856 78.2469 59.848Z" fill="#2C893A"/>
<rect x="191.5" y="109.5" width="51" height="17" fill="white" stroke="#2C893A"/>
<path d="M200.991 115.592C200.911 115.696 200.759 115.888 200.687 116C200.311 116.624 199.551 117.64 198.759 118.2L197.927 117.536C198.575 117.144 199.199 116.44 199.407 116.048C198.919 116.048 195.735 116.048 195.231 116.048C194.903 116.048 194.631 116.064 194.255 116.104V114.984C194.567 115.032 194.903 115.072 195.231 115.072C195.735 115.072 199.127 115.072 199.543 115.072C199.767 115.072 200.207 115.04 200.359 115L200.991 115.592ZM197.735 116.664C197.735 118.648 197.687 120.28 195.511 121.456L194.575 120.696C194.839 120.608 195.127 120.472 195.423 120.248C196.431 119.544 196.623 118.704 196.623 117.392C196.623 117.136 196.615 116.928 196.575 116.664H197.735ZM208.153 116.032C208.065 116.184 207.953 116.4 207.889 116.6C207.673 117.32 207.217 118.384 206.489 119.272C205.729 120.2 204.769 120.936 203.265 121.528L202.321 120.688C203.953 120.192 204.841 119.496 205.545 118.704C206.089 118.08 206.553 117.12 206.681 116.528H203.985L204.353 115.616C204.705 115.616 206.385 115.616 206.633 115.616C206.881 115.616 207.153 115.584 207.329 115.52L208.153 116.032ZM205.545 114.76C205.353 115.04 205.145 115.408 205.057 115.576C204.513 116.544 203.561 117.672 202.409 118.456L201.513 117.792C202.913 116.936 203.617 115.904 204.009 115.216C204.129 115.024 204.297 114.656 204.369 114.376L205.545 114.76ZM216.593 115.592C216.513 115.696 216.361 115.888 216.289 116C215.913 116.624 215.153 117.64 214.361 118.2L213.529 117.536C214.177 117.144 214.801 116.44 215.009 116.048C214.521 116.048 211.337 116.048 210.833 116.048C210.505 116.048 210.233 116.064 209.857 116.104V114.984C210.169 115.032 210.505 115.072 210.833 115.072C211.337 115.072 214.729 115.072 215.145 115.072C215.369 115.072 215.809 115.04 215.961 115L216.593 115.592ZM213.337 116.664C213.337 118.648 213.289 120.28 211.113 121.456L210.177 120.696C210.441 120.608 210.729 120.472 211.025 120.248C212.033 119.544 212.225 118.704 212.225 117.392C212.225 117.136 212.217 116.928 212.177 116.664H213.337ZM220.899 120.824C220.939 120.672 220.963 120.456 220.963 120.24C220.963 119.816 220.963 116.224 220.963 115.576C220.963 115.216 220.907 114.904 220.907 114.888H222.091C222.091 114.904 222.035 115.224 222.035 115.584C222.035 116.224 222.035 119.272 222.035 119.76C222.691 119.48 223.475 118.848 224.019 118.072L224.627 118.96C223.963 119.824 222.819 120.688 221.915 121.144C221.747 121.232 221.651 121.32 221.571 121.376L220.899 120.824ZM217.195 120.712C217.907 120.216 218.339 119.48 218.555 118.792C218.787 118.112 218.795 116.592 218.795 115.632C218.795 115.304 218.763 115.096 218.715 114.896H219.891C219.891 114.928 219.835 115.288 219.835 115.616C219.835 116.568 219.811 118.256 219.603 119.064C219.355 119.96 218.859 120.752 218.171 121.36L217.195 120.712ZM225.611 117.296C225.907 117.32 226.483 117.352 226.899 117.352C227.843 117.352 230.483 117.352 231.195 117.352C231.571 117.352 231.923 117.312 232.139 117.296V118.56C231.947 118.552 231.539 118.512 231.203 118.512C230.475 118.512 227.843 118.512 226.899 118.512C226.451 118.512 225.915 118.536 225.611 118.56V117.296ZM237.073 114.968C236.969 115.208 236.857 115.504 236.737 115.864C236.441 116.76 235.609 119.336 235.265 120.168L234.089 120.208C234.521 119.184 235.353 116.56 235.617 115.632C235.729 115.232 235.769 114.976 235.801 114.712L237.073 114.968ZM238.505 117.552C239.081 118.416 239.897 119.992 240.265 120.88L239.185 121.36C238.825 120.392 238.081 118.736 237.513 117.968L238.505 117.552ZM234.009 119.848C235.121 119.808 237.737 119.512 238.857 119.36L239.089 120.384C237.905 120.536 235.153 120.824 234.073 120.936C233.873 120.96 233.569 121 233.321 121.032L233.129 119.856C233.401 119.864 233.753 119.856 234.009 119.848Z" fill="#2C893A"/>
<path d="M4.33008 55.5336C4.33008 56.2824 4.94008 56.889 5.68543 56.889C6.43441 56.889 7.04082 56.2824 7.04082 55.5336C7.04082 54.7882 6.43445 54.1782 5.68543 54.1782C4.94008 54.1782 4.33008 54.7882 4.33008 55.5336Z" fill="black"/>
<path d="M5.00008 69.4602L4.50238 69.4575L4.50336 69.4602H4.49609L5.11949 70.9952H6.98992L6.30215 69.4602H5.00008Z" fill="black"/>
<path d="M0.0585547 51H0.00679687H0V70.9272V70.9881V70.995H2.35715L4.0818 71L4.07648 70.995H4.08641L2.31773 69.3381V61.1584H4.50312L5.68227 60.0949L6.02543 59.788L7.03086 61.9547L5.14977 66.5726L4.43883 68.3112H4.44164L4.43883 68.318H6.24484L7.68707 65.1098L8.82887 62.5833L9.79242 66.6409H14.6108C14.8886 66.6409 15.0547 66.336 14.9021 66.1055L14.3059 65.2042C14.2923 65.1873 14.2787 65.1738 14.2652 65.1567C14.2008 65.089 14.1126 65.0483 14.0178 65.0483H11.2123L10.504 61.3312L9.5457 59.2613L9.15176 58.4037H10.6327L11.6052 60.2402C11.6662 60.3554 11.7847 60.4164 11.9 60.4164C11.9611 60.4164 12.022 60.3994 12.0762 60.3656L12.7504 59.9488C12.8995 59.8539 12.9505 59.6575 12.8623 59.5049L11.429 56.9636H7.81031C6.99016 56.9636 6.2109 57.3058 5.65863 57.909L4.11684 59.5862H2.31777V52.8772H14.6274H14.6583V64.6484C14.8243 64.7027 14.97 64.8112 15.0683 64.9603L15.6646 65.8582C15.8239 66.102 15.8408 66.4104 15.702 66.6679C15.563 66.9255 15.2986 67.0848 15.0073 67.0848H14.6583V69.3381L16.4304 70.995H16.9792V51H0.0585547Z" fill="black"/>
</svg>
