<svg width="346" height="134" viewBox="0 0 346 134" fill="none" xmlns="http://www.w3.org/2000/svg">
<path d="M10.0659 50.3587L6.0366 53.3807L172.748 95.1845M10.0659 50.3587L1 46.8331L8.05124 34.2416L10.9221 32.7306M10.0659 50.3587L21.6501 44.5069M58.9209 25.6794L36.7599 19.1318L28.7013 23.3731M58.9209 25.6794L105.258 1L168.48 17.4697L231.702 33.9394M58.9209 25.6794L48.2683 31.0606M172.748 95.1845L157.791 125.908M172.748 95.1845L205.99 104.754L203.352 110.294M10.9221 32.7306L20.6428 35.7526M10.9221 32.7306L14.0952 31.0606M20.6428 35.7526L18.1245 36.7599L20.6428 37.7672L21.6501 37.2506M20.6428 35.7526L24.1684 33.9394M38.2709 26.6867L40.2855 27.694L38.1248 28.802M38.2709 26.6867L34.8432 28.4495M38.2709 26.6867L28.7013 23.3731M14.0952 31.0606L24.1684 33.9394M14.0952 31.0606L18.1245 28.9399M24.1684 33.9394L27.694 32.1262M18.1245 28.9399L27.694 32.1262M18.1245 28.9399L21.6501 27.0843M27.694 32.1262L31.4155 30.2123M21.6501 27.0843L31.4155 30.2123M21.6501 27.0843L25.1757 25.2287M31.4155 30.2123L34.8432 28.4495M25.1757 25.2287L34.8432 28.4495M25.1757 25.2287L28.7013 23.3731M21.6501 37.2506L30.2123 40.1817M21.6501 37.2506L25.1757 35.4426M30.2123 40.1817L33.7379 38.4007M30.2123 40.1817L21.6501 44.5069M25.1757 35.4426L33.7379 38.4007M25.1757 35.4426L28.7013 33.6346M33.7379 38.4007L36.986 36.7599M28.7013 33.6346L36.986 36.7599M28.7013 33.6346L31.6427 32.1262M36.986 36.7599L40.2855 35.0931M31.6427 32.1262L40.2855 35.0931M31.6427 32.1262L33.8034 31.0182L34.8837 30.4641M40.2855 35.0931L44.9624 32.7306M34.8837 30.4641L35.9641 29.9101L38.1248 28.802M34.8837 30.4641L44.9624 32.7306M44.9624 32.7306L48.2683 31.0606M38.1248 28.802L48.2683 31.0606M21.6501 44.5069L85.1113 60.7798L148.572 77.0527L155.624 73.3958M231.702 33.9394L205.99 47.2746M231.702 33.9394L260.889 41.5425M155.624 73.3958L176.274 79.0674L190.376 70.5051L172.748 64.5146M155.624 73.3958L172.748 64.5146M172.748 64.5146L188.865 56.1558M188.865 56.1558L202.968 59.9283M188.865 56.1558L192.391 54.3273M202.968 59.9283L200.953 61.4392L202.968 62.4466M202.968 59.9283L205.99 58.3284M220.092 50.8624L222.611 51.8697L219.832 53.3659M220.092 50.8624L216.315 52.8622M220.092 50.8624L205.99 47.2746M202.968 62.4466L216.315 65.4685M202.968 62.4466L207.501 60.0057M192.391 54.3273L205.99 58.3284M192.391 54.3273L195.917 52.4989M205.99 58.3284L209.012 56.7285M195.917 52.4989L209.012 56.7285M195.917 52.4989L199.072 50.8624M209.012 56.7285L212.537 54.862M199.072 50.8624L212.537 54.862M199.072 50.8624L202.968 48.8419M212.537 54.862L216.315 52.8622M202.968 48.8419L216.315 52.8622M202.968 48.8419L205.99 47.2746M216.315 65.4685L219.085 63.9816M216.315 65.4685L200.953 73.3958L248.801 86.3235M260.889 41.5425L345 63.4539L332.499 88.6369M260.889 41.5425L232.597 56.7285M207.501 60.0057L219.085 63.9816M207.501 60.0057L210.616 58.3284M219.085 63.9816L222.611 62.0891M210.616 58.3284L222.611 62.0891M210.616 58.3284L213.587 56.7285M222.611 62.0891L226.492 60.0057M213.587 56.7285L226.492 60.0057M213.587 56.7285L217.053 54.862M226.492 60.0057L229.617 58.3284M217.053 54.862L229.617 58.3284M217.053 54.862L219.832 53.3659M229.617 58.3284L232.597 56.7285M219.832 53.3659L232.597 56.7285M332.499 88.6369L310.247 133.463H192.391M332.499 88.6369H257.363L248.801 86.3235M192.391 133.463H154.113L157.791 125.908M192.391 133.463L195.917 125.908M195.917 125.908H157.791M195.917 125.908L203.352 110.294M203.352 110.294L248.801 86.3235" stroke="#6FBA2D"/>
<path d="M178.63 101.756C178.229 101.829 177.905 102.003 177.628 102.295C176.956 103.005 176.988 104.134 177.702 104.805C178.151 105.23 178.784 105.387 179.395 105.228C179.581 105.18 179.875 105.028 180.039 104.897C180.595 104.451 180.831 103.707 180.633 103.021C180.471 102.459 180.049 102.017 179.504 101.831C179.224 101.735 178.897 101.708 178.63 101.756Z" fill="#3B82F6"/>
<path d="M176.356 105.675C176.064 105.695 175.808 105.767 175.533 105.904C174.817 106.262 174.347 106.962 174.274 107.78C174.26 107.923 174.257 108.86 174.26 110.811L174.265 113.637L174.303 113.748C174.373 113.952 174.511 114.111 174.694 114.195C174.764 114.229 174.806 114.234 174.965 114.234C175.137 114.234 175.161 114.231 175.255 114.185C175.448 114.089 175.59 113.903 175.643 113.676C175.66 113.606 175.665 112.986 175.665 110.859V108.131H176.088H176.51V115.398C176.51 121.726 176.513 122.682 176.536 122.786C176.631 123.244 177.042 123.578 177.51 123.58C177.645 123.58 177.852 123.527 177.983 123.457C178.137 123.375 178.316 123.191 178.394 123.034C178.514 122.788 178.507 123.121 178.507 118.428V114.191H178.925H179.344V118.437C179.345 123.114 179.337 122.791 179.455 123.027C179.567 123.256 179.762 123.426 180.023 123.525C180.122 123.563 180.163 123.57 180.342 123.57C180.521 123.57 180.562 123.563 180.661 123.525C180.923 123.426 181.117 123.256 181.228 123.03C181.349 122.785 181.341 123.437 181.341 115.398V108.131H181.759H182.177V110.842C182.177 112.716 182.182 113.585 182.196 113.655C182.24 113.896 182.377 114.086 182.584 114.186C182.705 114.248 182.722 114.251 182.867 114.249C182.983 114.249 183.044 114.239 183.113 114.214C183.355 114.116 183.517 113.896 183.56 113.601C183.582 113.439 183.582 108.089 183.56 107.824C183.468 106.783 182.747 105.943 181.759 105.721C181.65 105.697 181.522 105.685 181.315 105.68C180.795 105.668 176.524 105.663 176.356 105.675Z" fill="#3B82F6"/>
<path d="M169.144 67.0601C168.612 67.0601 168.182 67.4907 168.182 68.0223C168.182 68.5539 168.612 68.9846 169.144 68.9846C169.676 68.9846 170.107 68.5539 170.107 68.0223C170.107 67.4907 169.676 67.0601 169.144 67.0601Z" fill="black"/>
<path d="M173.252 67.0601C172.72 67.0601 172.289 67.4907 172.289 68.0223C172.289 68.5539 172.72 68.9846 173.252 68.9846C173.783 68.9846 174.214 68.5539 174.214 68.0223C174.214 67.4907 173.783 67.0601 173.252 67.0601Z" fill="black"/>
<path d="M177.36 67.0601C176.828 67.0601 176.397 67.4907 176.397 68.0223C176.397 68.5539 176.828 68.9846 177.36 68.9846C177.892 68.9846 178.323 68.5539 178.323 68.0223C178.323 67.4907 177.892 67.0601 177.36 67.0601Z" fill="black"/>
<path d="M179.554 62.478H166.95C165.982 62.478 165.193 63.2662 165.193 64.2345V77.7287C165.193 78.6974 165.982 79.4856 166.95 79.4856H179.554C180.523 79.4856 181.31 78.6974 181.31 77.7287V64.2345C181.311 63.2662 180.523 62.478 179.554 62.478ZM168.973 78.377L169.144 74.5196L169.315 78.377H168.973ZM173.08 78.377L173.252 74.5196L173.423 78.377H173.08ZM177.189 78.377L177.36 74.5196L177.532 78.377H177.189ZM180.202 77.7287C180.202 78.0863 179.911 78.377 179.554 78.377H178.417L178.448 73.8733C178.519 73.977 178.636 74.047 178.77 74.0407C178.977 74.0307 179.136 73.8554 179.127 73.6486L179.286 70.4452C179.286 69.1852 178.01 69.1232 177.36 69.1232C176.711 69.1232 175.435 69.1852 175.435 70.4452L175.542 73.6486C175.532 73.8554 175.691 74.0307 175.898 74.0407C176.079 74.0493 176.229 73.9253 176.272 73.7569L176.304 78.3769H174.309L174.34 73.8732C174.411 73.977 174.527 74.047 174.662 74.0406C174.868 74.0307 175.028 73.8553 175.019 73.6486L175.178 70.4451C175.178 69.1851 173.901 69.1231 173.252 69.1231C172.603 69.1231 171.326 69.1851 171.326 70.4451L171.433 73.6486C171.424 73.8553 171.583 74.0307 171.79 74.0406C171.971 74.0492 172.121 73.925 172.164 73.7559L172.195 78.3769H170.201L170.231 73.8732C170.302 73.977 170.419 74.0469 170.554 74.0406C170.761 74.0306 170.92 73.8553 170.91 73.6485L171.07 70.4451C171.07 69.1851 169.793 69.1231 169.144 69.1231C168.495 69.1231 167.218 69.1851 167.218 70.4451L167.325 73.6485C167.315 73.8553 167.475 74.0306 167.681 74.0406C167.863 74.0492 168.013 73.9249 168.055 73.7559L168.087 78.3769H166.95C166.593 78.3769 166.302 78.0861 166.302 77.7286V64.2345C166.302 63.8774 166.593 63.5866 166.95 63.5866H179.554C179.911 63.5866 180.202 63.8774 180.202 64.2345V77.7287H180.202Z" fill="black"/>
<path d="M174.511 59.5922L175.828 58.2753V61.2363C175.828 61.5063 176.047 61.7251 176.317 61.7251C176.587 61.7251 176.806 61.5063 176.806 61.2363V58.2753L178.123 59.5922C178.219 59.6878 178.344 59.7357 178.469 59.7357C178.594 59.7357 178.72 59.6878 178.815 59.5922C179.006 59.4012 179.006 59.0916 178.815 58.9009L176.663 56.7486L176.317 56.4028L175.971 56.7486L173.819 58.9009C173.628 59.0916 173.628 59.4012 173.819 59.5922C174.01 59.7832 174.32 59.7832 174.511 59.5922Z" fill="black"/>
<path d="M169.841 61.581C169.841 61.5814 169.841 61.5814 169.841 61.5814L170.187 61.927L170.533 61.5814C170.533 61.5814 170.533 61.5814 170.533 61.581L172.685 59.429C172.876 59.238 172.876 58.9281 172.685 58.7373C172.494 58.5463 172.184 58.5463 171.993 58.7373L170.676 60.0546V57.0936C170.676 56.8233 170.457 56.6045 170.187 56.6045C169.917 56.6045 169.698 56.8233 169.698 57.0936V60.0546L168.381 58.7373C168.19 58.5463 167.88 58.5463 167.689 58.7373C167.498 58.928 167.498 59.238 167.689 59.429L169.841 61.581Z" fill="black"/>
<rect x="70.5" y="28.5" width="19" height="13" fill="white" stroke="#2C893A"/>
<path d="M76.4368 38H75.2288V34.696C75.2288 34.6053 75.2288 34.4933 75.2288 34.36C75.2341 34.2267 75.2395 34.088 75.2448 33.944C75.2501 33.8 75.2555 33.672 75.2608 33.56C75.2341 33.592 75.1755 33.6507 75.0848 33.736C74.9995 33.816 74.9195 33.888 74.8448 33.952L74.1888 34.48L73.6048 33.752L75.4448 32.288H76.4368V38ZM81.7989 33.568C81.7989 33.8293 81.7429 34.056 81.6309 34.248C81.5243 34.44 81.3776 34.5973 81.1909 34.72C81.0096 34.8427 80.8016 34.9333 80.5669 34.992V35.016C81.0256 35.0693 81.3723 35.208 81.6069 35.432C81.8469 35.656 81.9669 35.9573 81.9669 36.336C81.9669 36.6667 81.8843 36.9653 81.7189 37.232C81.5589 37.4933 81.3083 37.7013 80.9669 37.856C80.6309 38.0053 80.1963 38.08 79.6629 38.08C79.3483 38.08 79.0549 38.0533 78.7829 38C78.5109 37.9467 78.2549 37.8693 78.0149 37.768V36.744C78.2603 36.8667 78.5163 36.96 78.7829 37.024C79.0549 37.088 79.3056 37.12 79.5349 37.12C79.9669 37.12 80.2683 37.0453 80.4389 36.896C80.6149 36.7467 80.7029 36.536 80.7029 36.264C80.7029 36.104 80.6629 35.9707 80.5829 35.864C80.5029 35.752 80.3616 35.6693 80.1589 35.616C79.9616 35.5573 79.6843 35.528 79.3269 35.528H78.8949V34.6H79.3349C79.6869 34.6 79.9536 34.568 80.1349 34.504C80.3216 34.4347 80.4469 34.344 80.5109 34.232C80.5803 34.1147 80.6149 33.9813 80.6149 33.832C80.6149 33.6293 80.5509 33.472 80.4229 33.36C80.3003 33.2427 80.0923 33.184 79.7989 33.184C79.6176 33.184 79.4523 33.208 79.3029 33.256C79.1536 33.2987 79.0176 33.352 78.8949 33.416C78.7776 33.48 78.6736 33.5413 78.5829 33.6L78.0229 32.768C78.1723 32.6613 78.3376 32.5653 78.5189 32.48C78.7056 32.3947 78.9109 32.328 79.1349 32.28C79.3589 32.232 79.6096 32.208 79.8869 32.208C80.4736 32.208 80.9376 32.328 81.2789 32.568C81.6256 32.8027 81.7989 33.136 81.7989 33.568ZM85.5931 38H84.3851V34.696C84.3851 34.6053 84.3851 34.4933 84.3851 34.36C84.3904 34.2267 84.3957 34.088 84.4011 33.944C84.4064 33.8 84.4117 33.672 84.4171 33.56C84.3904 33.592 84.3317 33.6507 84.2411 33.736C84.1557 33.816 84.0757 33.888 84.0011 33.952L83.3451 34.48L82.7611 33.752L84.6011 32.288H85.5931V38Z" fill="#259333"/>
<rect x="138.5" y="35.5" width="19" height="13" fill="white" stroke="#2C893A"/>
<path d="M144.437 45H143.229V41.696C143.229 41.6053 143.229 41.4933 143.229 41.36C143.234 41.2267 143.239 41.088 143.245 40.944C143.25 40.8 143.255 40.672 143.261 40.56C143.234 40.592 143.175 40.6507 143.085 40.736C142.999 40.816 142.919 40.888 142.845 40.952L142.189 41.48L141.605 40.752L143.445 39.288H144.437V45ZM149.799 40.568C149.799 40.8293 149.743 41.056 149.631 41.248C149.524 41.44 149.378 41.5973 149.191 41.72C149.01 41.8427 148.802 41.9333 148.567 41.992V42.016C149.026 42.0693 149.372 42.208 149.607 42.432C149.847 42.656 149.967 42.9573 149.967 43.336C149.967 43.6667 149.884 43.9653 149.719 44.232C149.559 44.4933 149.308 44.7013 148.967 44.856C148.631 45.0053 148.196 45.08 147.663 45.08C147.348 45.08 147.055 45.0533 146.783 45C146.511 44.9467 146.255 44.8693 146.015 44.768V43.744C146.26 43.8667 146.516 43.96 146.783 44.024C147.055 44.088 147.306 44.12 147.535 44.12C147.967 44.12 148.268 44.0453 148.439 43.896C148.615 43.7467 148.703 43.536 148.703 43.264C148.703 43.104 148.663 42.9707 148.583 42.864C148.503 42.752 148.362 42.6693 148.159 42.616C147.962 42.5573 147.684 42.528 147.327 42.528H146.895V41.6H147.335C147.687 41.6 147.954 41.568 148.135 41.504C148.322 41.4347 148.447 41.344 148.511 41.232C148.58 41.1147 148.615 40.9813 148.615 40.832C148.615 40.6293 148.551 40.472 148.423 40.36C148.3 40.2427 148.092 40.184 147.799 40.184C147.618 40.184 147.452 40.208 147.303 40.256C147.154 40.2987 147.018 40.352 146.895 40.416C146.778 40.48 146.674 40.5413 146.583 40.6L146.023 39.768C146.172 39.6613 146.338 39.5653 146.519 39.48C146.706 39.3947 146.911 39.328 147.135 39.28C147.359 39.232 147.61 39.208 147.887 39.208C148.474 39.208 148.938 39.328 149.279 39.568C149.626 39.8027 149.799 40.136 149.799 40.568ZM154.601 45H150.609V44.16L152.041 42.712C152.329 42.4133 152.561 42.1653 152.737 41.968C152.913 41.7653 153.041 41.584 153.121 41.424C153.201 41.2587 153.241 41.0827 153.241 40.896C153.241 40.6667 153.177 40.496 153.049 40.384C152.926 40.272 152.758 40.216 152.545 40.216C152.326 40.216 152.113 40.2667 151.905 40.368C151.697 40.4693 151.478 40.6133 151.249 40.8L150.593 40.024C150.758 39.88 150.932 39.7467 151.113 39.624C151.3 39.5013 151.513 39.4027 151.753 39.328C151.998 39.248 152.292 39.208 152.633 39.208C153.006 39.208 153.326 39.2773 153.593 39.416C153.865 39.5493 154.073 39.7333 154.217 39.968C154.366 40.1973 154.441 40.4587 154.441 40.752C154.441 40.992 154.404 41.2133 154.329 41.416C154.26 41.6187 154.156 41.816 154.017 42.008C153.884 42.1947 153.718 42.3893 153.521 42.592C153.324 42.7893 153.1 43.0053 152.849 43.24L152.113 43.928V43.984H154.601V45Z" fill="#259333"/>
<rect x="227.5" y="62.5" width="19" height="13" fill="white" stroke="#2C893A"/>
<path d="M233.437 72H232.229V68.696C232.229 68.6053 232.229 68.4933 232.229 68.36C232.234 68.2267 232.239 68.088 232.245 67.944C232.25 67.8 232.255 67.672 232.261 67.56C232.234 67.592 232.175 67.6507 232.085 67.736C231.999 67.816 231.919 67.888 231.845 67.952L231.189 68.48L230.605 67.752L232.445 66.288H233.437V72ZM238.799 67.568C238.799 67.8293 238.743 68.056 238.631 68.248C238.524 68.44 238.378 68.5973 238.191 68.72C238.01 68.8427 237.802 68.9333 237.567 68.992V69.016C238.026 69.0693 238.372 69.208 238.607 69.432C238.847 69.656 238.967 69.9573 238.967 70.336C238.967 70.6667 238.884 70.9653 238.719 71.232C238.559 71.4933 238.308 71.7013 237.967 71.856C237.631 72.0053 237.196 72.08 236.663 72.08C236.348 72.08 236.055 72.0533 235.783 72C235.511 71.9467 235.255 71.8693 235.015 71.768V70.744C235.26 70.8667 235.516 70.96 235.783 71.024C236.055 71.088 236.306 71.12 236.535 71.12C236.967 71.12 237.268 71.0453 237.439 70.896C237.615 70.7467 237.703 70.536 237.703 70.264C237.703 70.104 237.663 69.9707 237.583 69.864C237.503 69.752 237.362 69.6693 237.159 69.616C236.962 69.5573 236.684 69.528 236.327 69.528H235.895V68.6H236.335C236.687 68.6 236.954 68.568 237.135 68.504C237.322 68.4347 237.447 68.344 237.511 68.232C237.58 68.1147 237.615 67.9813 237.615 67.832C237.615 67.6293 237.551 67.472 237.423 67.36C237.3 67.2427 237.092 67.184 236.799 67.184C236.618 67.184 236.452 67.208 236.303 67.256C236.154 67.2987 236.018 67.352 235.895 67.416C235.778 67.48 235.674 67.5413 235.583 67.6L235.023 66.768C235.172 66.6613 235.338 66.5653 235.519 66.48C235.706 66.3947 235.911 66.328 236.135 66.28C236.359 66.232 236.61 66.208 236.887 66.208C237.474 66.208 237.938 66.328 238.279 66.568C238.626 66.8027 238.799 67.136 238.799 67.568ZM243.377 67.568C243.377 67.8293 243.321 68.056 243.209 68.248C243.102 68.44 242.956 68.5973 242.769 68.72C242.588 68.8427 242.38 68.9333 242.145 68.992V69.016C242.604 69.0693 242.95 69.208 243.185 69.432C243.425 69.656 243.545 69.9573 243.545 70.336C243.545 70.6667 243.462 70.9653 243.297 71.232C243.137 71.4933 242.886 71.7013 242.545 71.856C242.209 72.0053 241.774 72.08 241.241 72.08C240.926 72.08 240.633 72.0533 240.361 72C240.089 71.9467 239.833 71.8693 239.593 71.768V70.744C239.838 70.8667 240.094 70.96 240.361 71.024C240.633 71.088 240.884 71.12 241.113 71.12C241.545 71.12 241.846 71.0453 242.017 70.896C242.193 70.7467 242.281 70.536 242.281 70.264C242.281 70.104 242.241 69.9707 242.161 69.864C242.081 69.752 241.94 69.6693 241.737 69.616C241.54 69.5573 241.262 69.528 240.905 69.528H240.473V68.6H240.913C241.265 68.6 241.532 68.568 241.713 68.504C241.9 68.4347 242.025 68.344 242.089 68.232C242.158 68.1147 242.193 67.9813 242.193 67.832C242.193 67.6293 242.129 67.472 242.001 67.36C241.878 67.2427 241.67 67.184 241.377 67.184C241.196 67.184 241.03 67.208 240.881 67.256C240.732 67.2987 240.596 67.352 240.473 67.416C240.356 67.48 240.252 67.5413 240.161 67.6L239.601 66.768C239.75 66.6613 239.916 66.5653 240.097 66.48C240.284 66.3947 240.489 66.328 240.713 66.28C240.937 66.232 241.188 66.208 241.465 66.208C242.052 66.208 242.516 66.328 242.857 66.568C243.204 66.8027 243.377 67.136 243.377 67.568Z" fill="#259333"/>
<rect x="220" y="97" width="86" height="24" fill="white" stroke="#2C893A" stroke-width="2"/>
<path d="M233.409 110.624C233.409 111.128 233.285 111.568 233.037 111.944C232.789 112.32 232.429 112.612 231.957 112.82C231.493 113.02 230.925 113.12 230.253 113.12C229.957 113.12 229.665 113.1 229.377 113.06C229.097 113.02 228.825 112.964 228.561 112.892C228.305 112.812 228.061 112.716 227.829 112.604V110.912C228.237 111.088 228.657 111.252 229.089 111.404C229.529 111.548 229.965 111.62 230.397 111.62C230.693 111.62 230.929 111.58 231.105 111.5C231.289 111.42 231.421 111.312 231.501 111.176C231.589 111.04 231.633 110.884 231.633 110.708C231.633 110.492 231.557 110.308 231.405 110.156C231.261 110.004 231.065 109.864 230.817 109.736C230.569 109.6 230.285 109.456 229.965 109.304C229.765 109.208 229.549 109.096 229.317 108.968C229.085 108.832 228.861 108.668 228.645 108.476C228.437 108.276 228.265 108.036 228.129 107.756C227.993 107.476 227.925 107.14 227.925 106.748C227.925 106.236 228.041 105.8 228.273 105.44C228.513 105.072 228.849 104.792 229.281 104.6C229.721 104.408 230.237 104.312 230.829 104.312C231.277 104.312 231.701 104.364 232.101 104.468C232.509 104.572 232.933 104.72 233.373 104.912L232.785 106.328C232.393 106.168 232.041 106.044 231.729 105.956C231.417 105.868 231.097 105.824 230.769 105.824C230.545 105.824 230.353 105.86 230.193 105.932C230.033 106.004 229.909 106.104 229.821 106.232C229.741 106.36 229.701 106.512 229.701 106.688C229.701 106.888 229.761 107.06 229.881 107.204C230.001 107.34 230.181 107.472 230.421 107.6C230.661 107.728 230.961 107.88 231.321 108.056C231.761 108.264 232.133 108.48 232.437 108.704C232.749 108.928 232.989 109.192 233.157 109.496C233.325 109.8 233.409 110.176 233.409 110.624ZM238.267 113H236.455V105.944H234.127V104.432H240.595V105.944H238.267V113ZM246.316 113L245.692 110.96H242.572L241.948 113H239.992L243.016 104.396H245.236L248.272 113H246.316ZM244.636 107.444C244.596 107.308 244.544 107.136 244.48 106.928C244.416 106.72 244.352 106.508 244.288 106.292C244.224 106.076 244.172 105.888 244.132 105.728C244.092 105.888 244.036 106.088 243.964 106.328C243.9 106.56 243.836 106.784 243.772 107C243.716 107.208 243.672 107.356 243.64 107.444L243.028 109.436H245.26L244.636 107.444ZM251.145 113H249.357V104.432H254.265V105.92H251.145V108.128H254.049V109.616H251.145V113ZM257.731 113H255.943V104.432H260.851V105.92H257.731V108.128H260.635V109.616H257.731V113ZM273.422 108.704C273.422 109.368 273.338 109.972 273.17 110.516C273.01 111.052 272.762 111.516 272.426 111.908C272.098 112.3 271.674 112.6 271.154 112.808C270.642 113.016 270.038 113.12 269.342 113.12C268.646 113.12 268.038 113.016 267.518 112.808C267.006 112.592 266.582 112.292 266.246 111.908C265.918 111.516 265.67 111.048 265.502 110.504C265.342 109.96 265.262 109.356 265.262 108.692C265.262 107.804 265.406 107.032 265.694 106.376C265.99 105.72 266.438 105.212 267.038 104.852C267.646 104.484 268.418 104.3 269.354 104.3C270.282 104.3 271.046 104.484 271.646 104.852C272.246 105.212 272.69 105.724 272.978 106.388C273.274 107.044 273.422 107.816 273.422 108.704ZM267.17 108.704C267.17 109.304 267.246 109.82 267.398 110.252C267.55 110.684 267.786 111.016 268.106 111.248C268.426 111.48 268.838 111.596 269.342 111.596C269.862 111.596 270.278 111.48 270.59 111.248C270.91 111.016 271.142 110.684 271.286 110.252C271.438 109.82 271.514 109.304 271.514 108.704C271.514 107.8 271.346 107.092 271.01 106.58C270.674 106.068 270.122 105.812 269.354 105.812C268.842 105.812 268.426 105.928 268.106 106.16C267.786 106.392 267.55 106.724 267.398 107.156C267.246 107.588 267.17 108.104 267.17 108.704ZM282.793 113H280.489L276.757 106.52H276.709C276.717 106.72 276.725 106.924 276.733 107.132C276.741 107.332 276.749 107.536 276.757 107.744C276.773 107.944 276.785 108.148 276.793 108.356C276.801 108.556 276.809 108.76 276.817 108.968V113H275.197V104.432H277.489L281.209 110.852H281.245C281.237 110.652 281.229 110.456 281.221 110.264C281.213 110.064 281.205 109.868 281.197 109.676C281.197 109.476 281.193 109.28 281.185 109.088C281.177 108.888 281.169 108.688 281.161 108.488V104.432H282.793V113ZM284.959 113V104.432H286.771V111.5H290.251V113H284.959ZM294.045 107.96L295.833 104.432H297.789L294.945 109.664V113H293.145V109.724L290.301 104.432H292.269L294.045 107.96Z" fill="#259333"/>
<path d="M181.75 87C181.44 87 180.157 87 180.157 87V87.9293C180.157 87.9293 181.042 87.9293 181.971 87.9293C183.697 87.9293 184.14 88.7698 184.14 88.7698C184.14 88.7698 184.14 88.7698 184.449 88.5486C183.918 87.177 182.06 87 181.75 87Z" fill="black"/>
<path d="M178.157 94.167L178 94.958H179.08L178.923 94.167H178.157Z" fill="black"/>
<path d="M181.559 89.2514V88.4747C181.559 88.3169 181.431 88.189 181.272 88.189H180.739C180.58 88.189 180.453 88.3169 180.453 88.4747V89.2666C179.782 89.5033 179.302 90.1425 179.302 90.8937V96.3363C179.302 96.7027 179.599 96.9998 179.966 96.9998H182.09C182.456 96.9998 182.753 96.7027 182.753 96.3363V90.8937C182.753 90.1258 182.252 89.4754 181.559 89.2514ZM181.946 94.9423H180.109V92.6978H181.946V94.9423Z" fill="black"/>
<path d="M178.745 90.9246C178.745 90.169 179.132 89.4763 179.746 89.0743L179.748 89.0729L179.748 89.0731C179.751 89.0701 179.875 88.9924 180.071 88.9258V88.5C179.747 88.5873 179.542 88.7204 179.522 88.7329C179.522 88.7331 179.522 88.7331 179.522 88.7331C179.522 88.7333 179.52 88.7345 179.52 88.7347L179.52 88.7349C178.794 89.2115 178.337 90.0299 178.337 90.9246V94.027H178.745V90.9246ZM179.751 89.0709L179.749 89.0727L179.749 89.0725L179.751 89.0709Z" fill="black"/>
<path d="M29.3301 71.5336C29.3301 72.2824 29.9401 72.889 30.6854 72.889C31.4344 72.889 32.0408 72.2824 32.0408 71.5336C32.0408 70.7882 31.4345 70.1782 30.6854 70.1782C29.9401 70.1782 29.3301 70.7882 29.3301 71.5336Z" fill="black"/>
<path d="M30.0001 85.4602L29.5024 85.4575L29.5034 85.4602H29.4961L30.1195 86.9952H31.9899L31.3021 85.4602H30.0001Z" fill="black"/>
<path d="M25.0586 67H25.0068H25V86.9272V86.9881V86.995H27.3571L29.0818 87L29.0765 86.995H29.0864L27.3177 85.3381V77.1584H29.5031L30.6823 76.0949L31.0254 75.788L32.0309 77.9547L30.1498 82.5726L29.4388 84.3112H29.4416L29.4388 84.318H31.2448L32.6871 81.1098L33.8289 78.5833L34.7924 82.6409H39.6108C39.8886 82.6409 40.0547 82.336 39.9021 82.1055L39.3059 81.2042C39.2923 81.1873 39.2787 81.1738 39.2652 81.1567C39.2008 81.089 39.1126 81.0483 39.0178 81.0483H36.2123L35.504 77.3312L34.5457 75.2613L34.1518 74.4037H35.6327L36.6052 76.2402C36.6662 76.3554 36.7847 76.4164 36.9 76.4164C36.9611 76.4164 37.022 76.3994 37.0762 76.3656L37.7504 75.9488C37.8995 75.8539 37.9505 75.6575 37.8623 75.5049L36.429 72.9636H32.8103C31.9902 72.9636 31.2109 73.3058 30.6586 73.909L29.1168 75.5862H27.3178V68.8772H39.6274H39.6583V80.6484C39.8243 80.7027 39.97 80.8112 40.0683 80.9603L40.6646 81.8582C40.8239 82.102 40.8408 82.4104 40.702 82.6679C40.563 82.9255 40.2986 83.0848 40.0073 83.0848H39.6583V85.3381L41.4304 86.995H41.9792V67H25.0586Z" fill="black"/>
<path d="M155.75 62C155.44 62 154.157 62 154.157 62V62.9293C154.157 62.9293 155.042 62.9293 155.971 62.9293C157.697 62.9293 158.14 63.7698 158.14 63.7698C158.14 63.7698 158.14 63.7698 158.449 63.5486C157.918 62.177 156.06 62 155.75 62Z" fill="black"/>
<path d="M152.157 69.167L152 69.958H153.08L152.923 69.167H152.157Z" fill="black"/>
<path d="M155.559 64.2514V63.4747C155.559 63.3169 155.431 63.189 155.272 63.189H154.739C154.58 63.189 154.453 63.3169 154.453 63.4747V64.2666C153.782 64.5033 153.302 65.1425 153.302 65.8937V71.3363C153.302 71.7027 153.599 71.9998 153.966 71.9998H156.09C156.456 71.9998 156.753 71.7027 156.753 71.3363V65.8937C156.753 65.1258 156.252 64.4754 155.559 64.2514ZM155.946 69.9423H154.109V67.6978H155.946V69.9423Z" fill="black"/>
<path d="M152.745 65.9246C152.745 65.169 153.132 64.4763 153.746 64.0743L153.748 64.0729L153.748 64.0731C153.751 64.0701 153.875 63.9924 154.071 63.9258V63.5C153.747 63.5873 153.542 63.7204 153.522 63.7329C153.522 63.7331 153.522 63.7331 153.522 63.7331C153.522 63.7333 153.52 63.7345 153.52 63.7347L153.52 63.7349C152.794 64.2115 152.337 65.0299 152.337 65.9246V69.027H152.745V65.9246ZM153.751 64.0709L153.749 64.0727L153.749 64.0725L153.751 64.0709Z" fill="black"/>
</svg>
