<svg width="346" height="114" viewBox="0 0 346 114" fill="none" xmlns="http://www.w3.org/2000/svg">
<path d="M209.809 13.939L218.287 1H68.8184L61.253 13.4929M209.809 13.939H277.182L262.012 38.4786M209.809 13.939L169.654 13.8184M262.012 38.4786H279.859M262.012 38.4786L256.093 48.2944M298.598 62.1258L303.876 53.6485M298.598 62.1258H294.805M298.598 62.1258H303.876M61.253 13.4929L169.654 13.8184M61.253 13.4929L9.37598 99.1582M169.654 13.8184L117.898 99.1582M117.898 99.1582H94.2503M117.898 99.1582H225.425L234.841 83.5422M9.37598 99.1582L1 112.99H50.9715M9.37598 99.1582H59.8949M50.9715 112.99L59.8949 99.1582M50.9715 112.99H85.773M59.8949 99.1582H94.2503M85.773 112.99L94.2503 99.1582M85.773 112.99H272.885M234.841 83.5422H268.258L281.643 62.1258M234.841 83.5422L247.754 62.1258M281.643 62.1258H280.751M281.643 62.1258H284.32M247.754 62.1258H265.581M247.754 62.1258L252.865 53.6485M265.581 62.1258L270.935 53.6485H252.865M265.581 62.1258H269.597M252.865 53.6485L253.981 51.7985M275.397 47.4021V46.5097L279.859 38.4786M275.397 47.4021H278.743M275.397 47.4021L274.632 48.7406M279.859 38.4786H283.428M289.228 47.4021H285.659M289.228 47.4021L289.764 46.5097M289.228 47.4021L288.718 48.2944M294.582 38.4786H313.322L308.321 46.5097M294.582 38.4786H291.013M294.582 38.4786L289.764 46.5097M285.659 47.4021L291.013 38.4786M285.659 47.4021H282.089M291.013 38.4786H286.997M282.089 47.4021L286.997 38.4786M282.089 47.4021H278.743M286.997 38.4786H283.428M278.743 47.4021L283.428 38.4786M253.981 51.7985H272.885M253.981 51.7985L255.017 50.0791M272.885 51.7985L271.827 53.6485H274.632M272.885 51.7985L273.867 50.0791M255.017 50.0791H273.867M255.017 50.0791L256.093 48.2944M273.867 50.0791L274.632 48.7406M256.093 48.2944L274.632 48.7406M285.659 53.6485L286.679 51.8638M285.659 53.6485H282.201M285.659 53.6485L280.751 62.1258M285.659 53.6485H288.718M303.876 53.6485L304.987 51.8638M303.876 53.6485H298.598M289.764 46.5097H308.321M308.321 46.5097L307.21 48.2944M288.718 48.2944H307.21M288.718 48.2944L287.699 50.0791M307.21 48.2944L306.099 50.0791M287.699 50.0791H306.099M287.699 50.0791L286.679 51.8638M306.099 50.0791L304.987 51.8638M286.679 51.8638H304.987M269.597 62.1258L274.632 53.6485M269.597 62.1258H273.867M274.632 53.6485H278.743M273.867 62.1258L278.743 53.6485M273.867 62.1258H277.182M278.743 53.6485H282.201M277.182 62.1258L282.201 53.6485M277.182 62.1258H280.751M284.32 62.1258L288.718 53.6485M284.32 62.1258H287.699M288.718 53.6485H291.905M287.699 62.1258L291.905 53.6485M287.699 62.1258H291.013M291.905 53.6485H294.582M291.013 62.1258L294.582 53.6485M291.013 62.1258H294.805M294.582 53.6485H298.598M294.805 62.1258L298.598 53.6485M303.876 62.1258H345L313.322 112.99H272.885M303.876 62.1258L272.885 112.99" stroke="#F3858E"/>
<path d="M253.911 70.228C253.44 70.228 253.059 70.6095 253.059 71.0805C253.059 71.5514 253.44 71.9329 253.911 71.9329C254.382 71.9329 254.764 71.5514 254.764 71.0805C254.764 70.6095 254.382 70.228 253.911 70.228Z" fill="black"/>
<path d="M257.55 70.228C257.079 70.228 256.697 70.6095 256.697 71.0805C256.697 71.5514 257.079 71.9329 257.55 71.9329C258.021 71.9329 258.403 71.5514 258.403 71.0805C258.403 70.6095 258.021 70.228 257.55 70.228Z" fill="black"/>
<path d="M261.19 70.228C260.719 70.228 260.337 70.6095 260.337 71.0805C260.337 71.5514 260.719 71.9329 261.19 71.9329C261.661 71.9329 262.042 71.5514 262.042 71.0805C262.042 70.6095 261.661 70.228 261.19 70.228Z" fill="black"/>
<path d="M263.133 66.1689H251.967C251.11 66.1689 250.411 66.8671 250.411 67.725V79.679C250.411 80.5371 251.11 81.2353 251.967 81.2353H263.133C263.991 81.2353 264.689 80.5371 264.689 79.679V67.725C264.689 66.8671 263.991 66.1689 263.133 66.1689ZM253.759 80.2532L253.911 76.8361L254.062 80.2532H253.759ZM257.398 80.2532L257.55 76.8361L257.702 80.2532H257.398ZM261.038 80.2532L261.19 76.8361L261.341 80.2532H261.038ZM263.707 79.679C263.707 79.9957 263.449 80.2532 263.133 80.2532H262.125L262.153 76.2635C262.216 76.3555 262.319 76.4175 262.438 76.4118C262.622 76.4031 262.763 76.2477 262.754 76.0646L262.896 73.2267C262.896 72.1105 261.765 72.0556 261.19 72.0556C260.614 72.0556 259.484 72.1105 259.484 73.2267L259.579 76.0646C259.57 76.2477 259.711 76.4031 259.894 76.4118C260.054 76.4195 260.187 76.3096 260.225 76.1605L260.253 80.2532H258.486L258.514 76.2635C258.577 76.3555 258.68 76.4174 258.799 76.4118C258.982 76.403 259.123 76.2477 259.115 76.0645L259.256 73.2267C259.256 72.1105 258.125 72.0556 257.55 72.0556C256.975 72.0556 255.844 72.1105 255.844 73.2267L255.939 76.0645C255.93 76.2477 256.071 76.403 256.255 76.4118C256.415 76.4194 256.548 76.3094 256.586 76.1596L256.614 80.2532H254.847L254.874 76.2635C254.937 76.3554 255.04 76.4174 255.16 76.4118C255.343 76.403 255.484 76.2476 255.475 76.0645L255.617 73.2267C255.617 72.1105 254.486 72.0555 253.911 72.0555C253.336 72.0555 252.205 72.1105 252.205 73.2267L252.3 76.0645C252.291 76.2476 252.432 76.403 252.615 76.4118C252.776 76.4194 252.909 76.3093 252.947 76.1596L252.975 80.2531H251.967C251.651 80.2531 251.393 79.9956 251.393 79.6789V67.725C251.393 67.4086 251.651 67.151 251.967 67.151H263.133C263.449 67.151 263.707 67.4086 263.707 67.725V79.679H263.707Z" fill="black"/>
<path d="M258.665 63.6125L259.832 62.4459V65.0689C259.832 65.308 260.026 65.5019 260.265 65.5019C260.505 65.5019 260.699 65.308 260.699 65.0689V62.4459L261.865 63.6125C261.95 63.6971 262.061 63.7396 262.172 63.7396C262.283 63.7396 262.394 63.6971 262.478 63.6125C262.648 63.4432 262.648 63.169 262.478 63L260.572 61.0934L260.265 60.7871L259.959 61.0934L258.053 63C257.883 63.169 257.883 63.4432 258.053 63.6125C258.222 63.7817 258.496 63.7817 258.665 63.6125Z" fill="black"/>
<path d="M254.528 65.3744C254.528 65.3746 254.528 65.3746 254.528 65.3746L254.835 65.6809L255.141 65.3746C255.141 65.3746 255.142 65.3746 255.142 65.3744L257.047 63.4679C257.217 63.2987 257.217 63.0242 257.047 62.8552C256.879 62.686 256.604 62.686 256.435 62.8552L255.268 64.0221V61.3991C255.268 61.1597 255.074 60.9658 254.835 60.9658C254.596 60.9658 254.402 61.1597 254.402 61.3991V64.0221L253.235 62.8552C253.066 62.686 252.791 62.686 252.622 62.8552C252.453 63.0242 252.453 63.2987 252.622 63.4679L254.528 65.3744Z" fill="black"/>
<path d="M306.909 76.8716C306.356 76.9713 305.912 77.3241 305.697 77.8303C305.602 78.0512 305.566 78.2507 305.576 78.5053C305.58 78.648 305.593 78.7507 305.614 78.8366C305.738 79.3061 306.036 79.6773 306.458 79.8859C307.255 80.2786 308.21 79.9549 308.601 79.1573C308.697 78.9594 308.74 78.8106 308.76 78.6019C308.814 78.0175 308.541 77.4422 308.056 77.1216C307.711 76.8946 307.291 76.8026 306.909 76.8716Z" fill="#EF4444"/>
<path d="M305.223 80.415C304.641 80.5055 304.155 80.8292 303.807 81.3554C303.643 81.6024 303.685 81.4766 303.055 83.5521C302.807 84.3697 302.537 85.2579 302.343 85.896C302.262 86.1614 302.188 86.4222 302.179 86.4789C302.116 86.8348 302.303 87.1662 302.621 87.2644C302.868 87.3411 303.118 87.272 303.29 87.0818C303.419 86.9376 303.4 86.9898 303.868 85.4159C303.971 85.0692 304.12 84.5722 304.198 84.3114C304.275 84.0491 304.42 83.5613 304.52 83.2253L304.703 82.6163H305.037C305.315 82.6163 305.371 82.6194 305.371 82.6378C305.371 82.6501 305.322 82.8342 305.262 83.0489C305.155 83.434 304.834 84.5891 303.998 87.5942C303.362 89.8844 303.346 89.9381 303.337 89.9673C303.33 89.9933 303.383 89.9949 304.319 89.9949H305.31V92.9125C305.31 96.091 305.305 95.9253 305.396 96.1033C305.476 96.2613 305.635 96.3917 305.819 96.4484C305.94 96.4883 306.195 96.4837 306.313 96.4392C306.539 96.3579 306.686 96.206 306.763 95.9775C306.789 95.8977 306.79 95.7566 306.795 92.9279L306.798 89.9642H307.174H307.55V92.9325C307.55 95.8977 307.55 95.9023 307.582 95.9974C307.678 96.2858 307.909 96.4561 308.232 96.4791C308.62 96.5052 308.947 96.2551 309.005 95.8854C309.016 95.8195 309.022 94.8132 309.022 92.8895V89.9949H310.004C310.644 89.9949 310.986 89.9903 310.986 89.9795C310.986 89.9719 310.875 89.5684 310.739 89.0867C310.604 88.6035 310.432 87.9899 310.357 87.7246C310.282 87.4592 310.11 86.844 309.973 86.3593C309.551 84.856 309.453 84.5078 309.344 84.1196C309.286 83.9126 309.17 83.4968 309.085 83.1946C308.999 82.8924 308.93 82.6393 308.93 82.6317C308.93 82.6225 309.068 82.6163 309.283 82.6163H309.634L309.667 82.7268C309.685 82.7881 309.713 82.8802 309.728 82.9308C309.743 82.9814 309.812 83.2131 309.881 83.4447C309.95 83.6763 310.065 84.0629 310.137 84.3037C310.208 84.5446 310.315 84.902 310.374 85.0968C310.598 85.8485 310.699 86.1921 310.78 86.4667C310.826 86.6231 310.88 86.7888 310.897 86.8348C311.024 87.1646 311.314 87.3503 311.616 87.295C311.964 87.2321 312.19 86.9207 312.162 86.5434C312.153 86.4283 312.141 86.3838 311.797 85.2548C311.49 84.247 310.998 82.6255 310.868 82.1945C310.802 81.9736 310.723 81.7512 310.685 81.6699C310.595 81.4796 310.426 81.2603 310.219 81.0624C309.841 80.7004 309.409 80.4825 308.938 80.415C308.725 80.3844 305.417 80.3844 305.223 80.415Z" fill="#EF4444"/>
<rect x="105" y="50" width="86" height="24" fill="white" stroke="#34B9F0" stroke-width="2"/>
<path d="M118.409 63.624C118.409 64.128 118.285 64.568 118.037 64.944C117.789 65.32 117.429 65.612 116.957 65.82C116.493 66.02 115.925 66.12 115.253 66.12C114.957 66.12 114.665 66.1 114.377 66.06C114.097 66.02 113.825 65.964 113.561 65.892C113.305 65.812 113.061 65.716 112.829 65.604V63.912C113.237 64.088 113.657 64.252 114.089 64.404C114.529 64.548 114.965 64.62 115.397 64.62C115.693 64.62 115.929 64.58 116.105 64.5C116.289 64.42 116.421 64.312 116.501 64.176C116.589 64.04 116.633 63.884 116.633 63.708C116.633 63.492 116.557 63.308 116.405 63.156C116.261 63.004 116.065 62.864 115.817 62.736C115.569 62.6 115.285 62.456 114.965 62.304C114.765 62.208 114.549 62.096 114.317 61.968C114.085 61.832 113.861 61.668 113.645 61.476C113.437 61.276 113.265 61.036 113.129 60.756C112.993 60.476 112.925 60.14 112.925 59.748C112.925 59.236 113.041 58.8 113.273 58.44C113.513 58.072 113.849 57.792 114.281 57.6C114.721 57.408 115.237 57.312 115.829 57.312C116.277 57.312 116.701 57.364 117.101 57.468C117.509 57.572 117.933 57.72 118.373 57.912L117.785 59.328C117.393 59.168 117.041 59.044 116.729 58.956C116.417 58.868 116.097 58.824 115.769 58.824C115.545 58.824 115.353 58.86 115.193 58.932C115.033 59.004 114.909 59.104 114.821 59.232C114.741 59.36 114.701 59.512 114.701 59.688C114.701 59.888 114.761 60.06 114.881 60.204C115.001 60.34 115.181 60.472 115.421 60.6C115.661 60.728 115.961 60.88 116.321 61.056C116.761 61.264 117.133 61.48 117.437 61.704C117.749 61.928 117.989 62.192 118.157 62.496C118.325 62.8 118.409 63.176 118.409 63.624ZM123.267 66H121.455V58.944H119.127V57.432H125.595V58.944H123.267V66ZM131.316 66L130.692 63.96H127.572L126.948 66H124.992L128.016 57.396H130.236L133.272 66H131.316ZM129.636 60.444C129.596 60.308 129.544 60.136 129.48 59.928C129.416 59.72 129.352 59.508 129.288 59.292C129.224 59.076 129.172 58.888 129.132 58.728C129.092 58.888 129.036 59.088 128.964 59.328C128.9 59.56 128.836 59.784 128.772 60C128.716 60.208 128.672 60.356 128.64 60.444L128.028 62.436H130.26L129.636 60.444ZM136.145 66H134.357V57.432H139.265V58.92H136.145V61.128H139.049V62.616H136.145V66ZM142.731 66H140.943V57.432H145.851V58.92H142.731V61.128H145.635V62.616H142.731V66ZM158.422 61.704C158.422 62.368 158.338 62.972 158.17 63.516C158.01 64.052 157.762 64.516 157.426 64.908C157.098 65.3 156.674 65.6 156.154 65.808C155.642 66.016 155.038 66.12 154.342 66.12C153.646 66.12 153.038 66.016 152.518 65.808C152.006 65.592 151.582 65.292 151.246 64.908C150.918 64.516 150.67 64.048 150.502 63.504C150.342 62.96 150.262 62.356 150.262 61.692C150.262 60.804 150.406 60.032 150.694 59.376C150.99 58.72 151.438 58.212 152.038 57.852C152.646 57.484 153.418 57.3 154.354 57.3C155.282 57.3 156.046 57.484 156.646 57.852C157.246 58.212 157.69 58.724 157.978 59.388C158.274 60.044 158.422 60.816 158.422 61.704ZM152.17 61.704C152.17 62.304 152.246 62.82 152.398 63.252C152.55 63.684 152.786 64.016 153.106 64.248C153.426 64.48 153.838 64.596 154.342 64.596C154.862 64.596 155.278 64.48 155.59 64.248C155.91 64.016 156.142 63.684 156.286 63.252C156.438 62.82 156.514 62.304 156.514 61.704C156.514 60.8 156.346 60.092 156.01 59.58C155.674 59.068 155.122 58.812 154.354 58.812C153.842 58.812 153.426 58.928 153.106 59.16C152.786 59.392 152.55 59.724 152.398 60.156C152.246 60.588 152.17 61.104 152.17 61.704ZM167.793 66H165.489L161.757 59.52H161.709C161.717 59.72 161.725 59.924 161.733 60.132C161.741 60.332 161.749 60.536 161.757 60.744C161.773 60.944 161.785 61.148 161.793 61.356C161.801 61.556 161.809 61.76 161.817 61.968V66H160.197V57.432H162.489L166.209 63.852H166.245C166.237 63.652 166.229 63.456 166.221 63.264C166.213 63.064 166.205 62.868 166.197 62.676C166.197 62.476 166.193 62.28 166.185 62.088C166.177 61.888 166.169 61.688 166.161 61.488V57.432H167.793V66ZM169.959 66V57.432H171.771V64.5H175.251V66H169.959ZM179.045 60.96L180.833 57.432H182.789L179.945 62.664V66H178.145V62.724L175.301 57.432H177.269L179.045 60.96Z" fill="#F3858E"/>
<path d="M320.33 42.5336C320.33 43.2824 320.94 43.889 321.685 43.889C322.434 43.889 323.041 43.2824 323.041 42.5336C323.041 41.7882 322.434 41.1782 321.685 41.1782C320.94 41.1782 320.33 41.7882 320.33 42.5336Z" fill="black"/>
<path d="M321 56.4602L320.502 56.4575L320.503 56.4602H320.496L321.119 57.9952H322.99L322.302 56.4602H321Z" fill="black"/>
<path d="M316.059 38H316.007H316V57.9272V57.9881V57.995H318.357L320.082 58L320.076 57.995H320.086L318.318 56.3381V48.1584H320.503L321.682 47.0949L322.025 46.788L323.031 48.9547L321.15 53.5726L320.439 55.3112H320.442L320.439 55.318H322.245L323.687 52.1098L324.829 49.5833L325.792 53.6409H330.611C330.889 53.6409 331.055 53.336 330.902 53.1055L330.306 52.2042C330.292 52.1873 330.279 52.1738 330.265 52.1567C330.201 52.089 330.113 52.0483 330.018 52.0483H327.212L326.504 48.3312L325.546 46.2613L325.152 45.4037H326.633L327.605 47.2402C327.666 47.3554 327.785 47.4164 327.9 47.4164C327.961 47.4164 328.022 47.3994 328.076 47.3656L328.75 46.9488C328.9 46.8539 328.95 46.6575 328.862 46.5049L327.429 43.9636H323.81C322.99 43.9636 322.211 44.3058 321.659 44.909L320.117 46.5862H318.318V39.8772H330.627H330.658V51.6484C330.824 51.7027 330.97 51.8112 331.068 51.9603L331.665 52.8582C331.824 53.102 331.841 53.4104 331.702 53.6679C331.563 53.9255 331.299 54.0848 331.007 54.0848H330.658V56.3381L332.43 57.995H332.979V38H316.059Z" fill="black"/>
<path d="M26.7501 77C26.4404 77 25.1572 77 25.1572 77V77.9293C25.1572 77.9293 26.0423 77.9293 26.9715 77.9293C28.6973 77.9293 29.1396 78.7698 29.1396 78.7698C29.1396 78.7698 29.1396 78.7698 29.4493 78.5486C28.9184 77.177 27.0601 77 26.7501 77Z" fill="black"/>
<path d="M23.1568 84.167L23 84.958H24.0798L23.9229 84.167H23.1568Z" fill="black"/>
<path d="M26.5586 79.2514V78.4747C26.5586 78.3169 26.4306 78.189 26.2724 78.189H25.7388C25.5804 78.189 25.4527 78.3169 25.4527 78.4747V79.2666C24.7824 79.5033 24.3018 80.1425 24.3018 80.8937V86.3363C24.3018 86.7027 24.5995 86.9998 24.9657 86.9998H27.0898C27.4564 86.9998 27.7533 86.7027 27.7533 86.3363V80.8937C27.7533 80.1258 27.252 79.4754 26.5586 79.2514ZM26.9457 84.9423H25.1094V82.6978H26.9457V84.9423Z" fill="black"/>
<path d="M23.745 80.9246C23.7448 80.169 24.1321 79.4763 24.7461 79.0743L24.7481 79.0729L24.7483 79.0731C24.7514 79.0701 24.875 78.9924 25.0708 78.9258V78.5C24.7469 78.5873 24.5422 78.7204 24.5225 78.7329C24.5223 78.7331 24.5223 78.7331 24.5223 78.7331C24.5219 78.7333 24.5199 78.7345 24.5197 78.7347L24.5199 78.7349C23.794 79.2115 23.3371 80.0299 23.3369 80.9246V84.027H23.745V80.9246ZM24.7513 79.0709L24.7489 79.0727L24.7487 79.0725L24.7513 79.0709Z" fill="black"/>
<path d="M300.75 62C300.44 62 299.157 62 299.157 62V62.9293C299.157 62.9293 300.042 62.9293 300.971 62.9293C302.697 62.9293 303.14 63.7698 303.14 63.7698C303.14 63.7698 303.14 63.7698 303.449 63.5486C302.918 62.177 301.06 62 300.75 62Z" fill="black"/>
<path d="M297.157 69.167L297 69.958H298.08L297.923 69.167H297.157Z" fill="black"/>
<path d="M300.559 64.2514V63.4747C300.559 63.3169 300.431 63.189 300.272 63.189H299.739C299.58 63.189 299.453 63.3169 299.453 63.4747V64.2666C298.782 64.5033 298.302 65.1425 298.302 65.8937V71.3363C298.302 71.7027 298.599 71.9998 298.966 71.9998H301.09C301.456 71.9998 301.753 71.7027 301.753 71.3363V65.8937C301.753 65.1258 301.252 64.4754 300.559 64.2514ZM300.946 69.9423H299.109V67.6978H300.946V69.9423Z" fill="black"/>
<path d="M297.745 65.9246C297.745 65.169 298.132 64.4763 298.746 64.0743L298.748 64.0729L298.748 64.0731C298.751 64.0701 298.875 63.9924 299.071 63.9258V63.5C298.747 63.5873 298.542 63.7204 298.522 63.7329C298.522 63.7331 298.522 63.7331 298.522 63.7331C298.522 63.7333 298.52 63.7345 298.52 63.7347L298.52 63.7349C297.794 64.2115 297.337 65.0299 297.337 65.9246V69.027H297.745V65.9246ZM298.751 64.0709L298.749 64.0727L298.749 64.0725L298.751 64.0709Z" fill="black"/>
</svg>
