<svg width="282" height="157" viewBox="0 0 282 157" fill="none" xmlns="http://www.w3.org/2000/svg">
<path d="M228.557 82.1726H254.094L256.286 75.5603M228.557 82.1726L203.476 156.505L102.238 155.821M228.557 82.1726L230.661 75.5603M102.238 155.821L1 155.137L44.336 21.9772M102.238 155.821L146.472 21.9772M146.472 21.9772H44.336M146.472 21.9772H247.71L243.357 35.658M44.336 21.9772L51.1629 1H281L269.512 35.658M243.357 35.658H269.512M243.357 35.658L241.181 42.4984M269.512 35.658L267.245 42.4984M241.181 42.4984H267.245M241.181 42.4984L239.149 48.8827M267.245 42.4984L265.129 48.8827M239.149 48.8827H265.129M239.149 48.8827L237.118 55.2671M265.129 48.8827L263.013 55.2671M237.118 55.2671H263.013M237.118 55.2671L235.086 61.6515M263.013 55.2671L260.896 61.6515M235.086 61.6515H260.896M235.086 61.6515L232.765 68.9479M260.896 61.6515L258.478 68.9479M232.765 68.9479H258.478M232.765 68.9479L230.661 75.5603M258.478 68.9479L256.286 75.5603M230.661 75.5603H256.286" stroke="#965045"/>
<rect x="45.5" y="79.5" width="32" height="13" fill="white" stroke="#E2B953"/>
<path d="M51.16 85.264H56.296V86.064H51.16V85.264ZM50.944 86.608H56.656V87.416H50.944V86.608ZM52.176 84.6H53.056V86.984H52.176V84.6ZM51.776 86.904H52.656V88.92H51.776V86.904ZM54.248 84.6H55.144V86.976H54.248V84.6ZM50.032 82.552H51V84.928C51 86.336 50.872 88.424 50.032 89.744C49.84 89.592 49.408 89.344 49.168 89.248C49.968 88.016 50.032 86.208 50.032 84.928V82.552ZM50.624 82.552H56.224V84.736H50.624V83.928H55.256V83.36H50.624V82.552ZM50.952 88.736C51.736 88.656 52.912 88.496 54.04 88.328L54.08 89.152C53.04 89.328 51.92 89.488 51.088 89.616L50.952 88.736ZM54.024 86.944C54.448 87.976 55.352 88.68 56.744 88.936C56.552 89.128 56.296 89.488 56.176 89.728C54.664 89.352 53.752 88.472 53.232 87.112L54.024 86.944ZM55.648 87.312L56.368 87.8C55.936 88.112 55.4 88.408 54.992 88.6L54.376 88.144C54.776 87.936 55.328 87.576 55.648 87.312ZM60.496 85.184H61.552V88.592C61.552 89.128 61.432 89.4 61.064 89.56C60.688 89.704 60.16 89.72 59.456 89.72C59.416 89.424 59.264 88.992 59.12 88.704C59.576 88.728 60.144 88.728 60.296 88.72C60.448 88.72 60.496 88.688 60.496 88.568V85.184ZM58.576 86.192L59.584 86.456C59.224 87.408 58.632 88.376 58.064 88.984C57.864 88.808 57.424 88.536 57.176 88.408C57.752 87.88 58.28 87.024 58.576 86.192ZM62.368 86.536L63.272 86.16C63.8 86.904 64.384 87.888 64.6 88.568L63.608 89.008C63.424 88.344 62.88 87.312 62.368 86.536ZM58.16 82.72H63.832V83.672H58.16V82.72ZM57.432 84.648H64.584V85.608H57.432V84.648ZM68.48 86.48H69.472V88.984H68.48V86.48ZM66.376 84.168H71.648V84.992H66.376V84.168ZM65.456 88.656H72.576V89.504H65.456V88.656ZM66.168 87.216H71.944V88.04H66.168V87.216ZM67.656 84.64L68.68 84.888C68.368 85.424 68.016 85.976 67.744 86.352L66.952 86.112C67.2 85.704 67.496 85.088 67.656 84.64ZM66.024 85.752C67.368 85.744 69.44 85.696 71.352 85.656L71.304 86.456C69.424 86.528 67.416 86.576 66.064 86.608L66.024 85.752ZM69.784 85.328L70.48 84.864C71.088 85.296 71.872 85.936 72.24 86.4L71.488 86.912C71.152 86.464 70.4 85.792 69.784 85.328ZM68.48 82.216H69.472V83.328H68.48V82.216ZM65.48 82.728H72.536V84.4H71.552V83.6H66.416V84.4H65.48V82.728Z" fill="#954D2B"/>
<rect x="162.5" y="78.5" width="48" height="21" fill="white" stroke="#E2B953"/>
<path d="M174.49 84.088C174.49 84.728 174.367 85.264 174.122 85.696C173.877 86.128 173.519 86.4533 173.05 86.672C172.586 86.8907 172.026 87 171.37 87H169.754V81.288H171.546C172.143 81.288 172.661 81.3947 173.098 81.608C173.541 81.8213 173.882 82.136 174.122 82.552C174.367 82.9627 174.49 83.4747 174.49 84.088ZM173.234 84.12C173.234 83.6987 173.173 83.352 173.05 83.08C172.927 82.808 172.743 82.608 172.498 82.48C172.258 82.3467 171.962 82.28 171.61 82.28H170.962V86H171.482C172.074 86 172.514 85.8427 172.802 85.528C173.09 85.2133 173.234 84.744 173.234 84.12ZM176.772 82.632V87H175.58V82.632H176.772ZM176.18 80.92C176.356 80.92 176.508 80.9627 176.636 81.048C176.764 81.128 176.828 81.28 176.828 81.504C176.828 81.7227 176.764 81.8747 176.636 81.96C176.508 82.0453 176.356 82.088 176.18 82.088C175.999 82.088 175.844 82.0453 175.716 81.96C175.593 81.8747 175.532 81.7227 175.532 81.504C175.532 81.28 175.593 81.128 175.716 81.048C175.844 80.9627 175.999 80.92 176.18 80.92ZM180.497 82.552C180.967 82.552 181.343 82.68 181.625 82.936C181.908 83.1867 182.049 83.592 182.049 84.152V87H180.857V84.448C180.857 84.1333 180.801 83.8987 180.689 83.744C180.577 83.584 180.399 83.504 180.153 83.504C179.791 83.504 179.543 83.6293 179.409 83.88C179.276 84.1253 179.209 84.48 179.209 84.944V87H178.017V82.632H178.929L179.089 83.192H179.153C179.249 83.0427 179.367 82.9227 179.505 82.832C179.644 82.736 179.799 82.6667 179.969 82.624C180.14 82.576 180.316 82.552 180.497 82.552ZM187.243 84.808C187.243 85.1707 187.192 85.4933 187.091 85.776C186.995 86.0587 186.854 86.2987 186.667 86.496C186.486 86.688 186.264 86.8347 186.003 86.936C185.742 87.032 185.446 87.08 185.115 87.08C184.811 87.08 184.528 87.032 184.267 86.936C184.011 86.8347 183.79 86.688 183.603 86.496C183.416 86.2987 183.27 86.0587 183.163 85.776C183.062 85.4933 183.011 85.1707 183.011 84.808C183.011 84.3227 183.096 83.9147 183.267 83.584C183.438 83.248 183.683 82.992 184.003 82.816C184.323 82.64 184.702 82.552 185.139 82.552C185.55 82.552 185.912 82.64 186.227 82.816C186.542 82.992 186.79 83.248 186.971 83.584C187.152 83.9147 187.243 84.3227 187.243 84.808ZM184.227 84.808C184.227 85.096 184.256 85.3387 184.315 85.536C184.379 85.728 184.478 85.8747 184.611 85.976C184.744 86.072 184.918 86.12 185.131 86.12C185.344 86.12 185.515 86.072 185.643 85.976C185.776 85.8747 185.872 85.728 185.931 85.536C185.995 85.3387 186.027 85.096 186.027 84.808C186.027 84.52 185.995 84.28 185.931 84.088C185.872 83.896 185.776 83.752 185.643 83.656C185.51 83.56 185.336 83.512 185.123 83.512C184.808 83.512 184.579 83.6213 184.435 83.84C184.296 84.0533 184.227 84.376 184.227 84.808ZM191.276 85.704C191.276 85.9973 191.207 86.248 191.068 86.456C190.93 86.6587 190.722 86.8133 190.444 86.92C190.167 87.0267 189.823 87.08 189.412 87.08C189.108 87.08 188.847 87.0587 188.628 87.016C188.41 86.9787 188.191 86.9147 187.972 86.824V85.84C188.207 85.9467 188.46 86.0347 188.732 86.104C189.004 86.1733 189.244 86.208 189.452 86.208C189.687 86.208 189.852 86.1733 189.948 86.104C190.05 86.0347 190.1 85.944 190.1 85.832C190.1 85.7573 190.079 85.6907 190.036 85.632C189.999 85.5733 189.914 85.5067 189.78 85.432C189.647 85.3573 189.439 85.2613 189.156 85.144C188.884 85.0267 188.66 84.912 188.484 84.8C188.308 84.6827 188.178 84.544 188.092 84.384C188.007 84.2187 187.964 84.0133 187.964 83.768C187.964 83.3627 188.122 83.0587 188.436 82.856C188.751 82.6533 189.17 82.552 189.692 82.552C189.964 82.552 190.223 82.5787 190.468 82.632C190.714 82.6853 190.967 82.7733 191.228 82.896L190.868 83.752C190.724 83.688 190.586 83.632 190.452 83.584C190.319 83.536 190.188 83.4987 190.06 83.472C189.938 83.4453 189.81 83.432 189.676 83.432C189.5 83.432 189.367 83.456 189.276 83.504C189.191 83.552 189.148 83.624 189.148 83.72C189.148 83.7893 189.17 83.8533 189.212 83.912C189.26 83.9653 189.348 84.024 189.476 84.088C189.61 84.152 189.804 84.2373 190.06 84.344C190.311 84.4453 190.527 84.552 190.708 84.664C190.89 84.7707 191.028 84.9067 191.124 85.072C191.226 85.232 191.276 85.4427 191.276 85.704ZM193.997 82.544C194.584 82.544 195.032 82.672 195.341 82.928C195.656 83.1787 195.813 83.5653 195.813 84.088V87H194.981L194.749 86.408H194.717C194.594 86.5627 194.466 86.6907 194.333 86.792C194.205 86.8933 194.056 86.9653 193.885 87.008C193.72 87.056 193.514 87.08 193.269 87.08C193.013 87.08 192.781 87.032 192.573 86.936C192.37 86.8347 192.21 86.6827 192.093 86.48C191.976 86.272 191.917 86.0107 191.917 85.696C191.917 85.232 192.08 84.8907 192.405 84.672C192.73 84.448 193.218 84.3253 193.869 84.304L194.629 84.28V84.088C194.629 83.8587 194.568 83.6907 194.445 83.584C194.328 83.4773 194.162 83.424 193.949 83.424C193.736 83.424 193.528 83.456 193.325 83.52C193.122 83.5787 192.92 83.6533 192.717 83.744L192.325 82.936C192.56 82.8133 192.818 82.7173 193.101 82.648C193.389 82.5787 193.688 82.544 193.997 82.544ZM194.165 84.992C193.781 85.0027 193.514 85.072 193.365 85.2C193.216 85.328 193.141 85.496 193.141 85.704C193.141 85.8853 193.194 86.016 193.301 86.096C193.408 86.1707 193.546 86.208 193.717 86.208C193.973 86.208 194.189 86.1333 194.365 85.984C194.541 85.8293 194.629 85.6133 194.629 85.336V84.976L194.165 84.992ZM201.041 82.632V87H200.129L199.969 86.44H199.905C199.814 86.5893 199.697 86.712 199.553 86.808C199.414 86.8987 199.26 86.9653 199.089 87.008C198.918 87.056 198.742 87.08 198.561 87.08C198.252 87.08 197.98 87.024 197.745 86.912C197.51 86.8 197.329 86.6267 197.201 86.392C197.073 86.1573 197.009 85.8533 197.009 85.48V82.632H198.201V85.184C198.201 85.4933 198.257 85.728 198.369 85.888C198.481 86.048 198.66 86.128 198.905 86.128C199.15 86.128 199.34 86.072 199.473 85.96C199.612 85.848 199.708 85.6853 199.761 85.472C199.82 85.2587 199.849 84.9973 199.849 84.688V82.632H201.041ZM204.731 82.552C204.789 82.552 204.859 82.5547 204.939 82.56C205.019 82.5653 205.083 82.5733 205.131 82.584L205.043 83.704C205.005 83.6933 204.949 83.6853 204.875 83.68C204.805 83.6693 204.744 83.664 204.691 83.664C204.536 83.664 204.387 83.6853 204.243 83.728C204.099 83.7653 203.968 83.8267 203.851 83.912C203.739 83.9973 203.648 84.112 203.579 84.256C203.515 84.3947 203.483 84.568 203.483 84.776V87H202.291V82.632H203.195L203.371 83.368H203.427C203.512 83.2187 203.619 83.0827 203.747 82.96C203.875 82.8373 204.021 82.7387 204.187 82.664C204.357 82.5893 204.539 82.552 204.731 82.552ZM177.376 93.416C177.376 93.752 177.293 94.0453 177.128 94.296C176.963 94.5467 176.723 94.7413 176.408 94.88C176.099 95.0133 175.72 95.08 175.272 95.08C175.075 95.08 174.88 95.0667 174.688 95.04C174.501 95.0133 174.32 94.976 174.144 94.928C173.973 94.8747 173.811 94.8107 173.656 94.736V93.608C173.928 93.7253 174.208 93.8347 174.496 93.936C174.789 94.032 175.08 94.08 175.368 94.08C175.565 94.08 175.723 94.0533 175.84 94C175.963 93.9467 176.051 93.8747 176.104 93.784C176.163 93.6933 176.192 93.5893 176.192 93.472C176.192 93.328 176.141 93.2053 176.04 93.104C175.944 93.0027 175.813 92.9093 175.648 92.824C175.483 92.7333 175.293 92.6373 175.08 92.536C174.947 92.472 174.803 92.3973 174.648 92.312C174.493 92.2213 174.344 92.112 174.2 91.984C174.061 91.8507 173.947 91.6907 173.856 91.504C173.765 91.3173 173.72 91.0933 173.72 90.832C173.72 90.4907 173.797 90.2 173.952 89.96C174.112 89.7147 174.336 89.528 174.624 89.4C174.917 89.272 175.261 89.208 175.656 89.208C175.955 89.208 176.237 89.2427 176.504 89.312C176.776 89.3813 177.059 89.48 177.352 89.608L176.96 90.552C176.699 90.4453 176.464 90.3627 176.256 90.304C176.048 90.2453 175.835 90.216 175.616 90.216C175.467 90.216 175.339 90.24 175.232 90.288C175.125 90.336 175.043 90.4027 174.984 90.488C174.931 90.5733 174.904 90.6747 174.904 90.792C174.904 90.9253 174.944 91.04 175.024 91.136C175.104 91.2267 175.224 91.3147 175.384 91.4C175.544 91.4853 175.744 91.5867 175.984 91.704C176.277 91.8427 176.525 91.9867 176.728 92.136C176.936 92.2853 177.096 92.4613 177.208 92.664C177.32 92.8667 177.376 93.1173 177.376 93.416ZM180.942 95.088C180.942 94.9813 180.945 94.872 180.95 94.76C180.961 94.648 180.974 94.5387 180.99 94.432H180.942C180.83 94.6133 180.675 94.768 180.478 94.896C180.281 95.0187 180.022 95.08 179.702 95.08C179.211 95.08 178.814 94.8907 178.51 94.512C178.206 94.128 178.054 93.5653 178.054 92.824C178.054 92.328 178.123 91.912 178.262 91.576C178.406 91.2347 178.603 90.9787 178.854 90.808C179.105 90.6373 179.395 90.552 179.726 90.552C180.046 90.552 180.305 90.6133 180.502 90.736C180.705 90.8587 180.867 91.0107 180.99 91.192H181.022L181.126 90.632H182.134V96.92H180.942V95.088ZM180.126 94.144C180.345 94.144 180.518 94.1013 180.646 94.016C180.774 93.9307 180.867 93.8027 180.926 93.632C180.985 93.456 181.017 93.2373 181.022 92.976V92.832C181.022 92.4053 180.955 92.08 180.822 91.856C180.694 91.632 180.457 91.52 180.11 91.52C179.827 91.52 179.617 91.6347 179.478 91.864C179.339 92.088 179.27 92.4133 179.27 92.84C179.27 93.2773 179.339 93.6053 179.478 93.824C179.617 94.0373 179.833 94.144 180.126 94.144ZM187.389 90.632V95H186.477L186.317 94.44H186.253C186.162 94.5893 186.045 94.712 185.901 94.808C185.762 94.8987 185.607 94.9653 185.437 95.008C185.266 95.056 185.09 95.08 184.909 95.08C184.599 95.08 184.327 95.024 184.093 94.912C183.858 94.8 183.677 94.6267 183.549 94.392C183.421 94.1573 183.357 93.8533 183.357 93.48V90.632H184.549V93.184C184.549 93.4933 184.605 93.728 184.717 93.888C184.829 94.048 185.007 94.128 185.253 94.128C185.498 94.128 185.687 94.072 185.821 93.96C185.959 93.848 186.055 93.6853 186.109 93.472C186.167 93.2587 186.197 92.9973 186.197 92.688V90.632H187.389ZM190.43 90.544C191.017 90.544 191.465 90.672 191.774 90.928C192.089 91.1787 192.246 91.5653 192.246 92.088V95H191.414L191.182 94.408H191.15C191.028 94.5627 190.9 94.6907 190.766 94.792C190.638 94.8933 190.489 94.9653 190.318 95.008C190.153 95.056 189.948 95.08 189.702 95.08C189.446 95.08 189.214 95.032 189.006 94.936C188.804 94.8347 188.644 94.6827 188.526 94.48C188.409 94.272 188.35 94.0107 188.35 93.696C188.35 93.232 188.513 92.8907 188.838 92.672C189.164 92.448 189.652 92.3253 190.302 92.304L191.062 92.28V92.088C191.062 91.8587 191.001 91.6907 190.878 91.584C190.761 91.4773 190.596 91.424 190.382 91.424C190.169 91.424 189.961 91.456 189.758 91.52C189.556 91.5787 189.353 91.6533 189.15 91.744L188.758 90.936C188.993 90.8133 189.252 90.7173 189.534 90.648C189.822 90.5787 190.121 90.544 190.43 90.544ZM190.598 92.992C190.214 93.0027 189.948 93.072 189.798 93.2C189.649 93.328 189.574 93.496 189.574 93.704C189.574 93.8853 189.628 94.016 189.734 94.096C189.841 94.1707 189.98 94.208 190.15 94.208C190.406 94.208 190.622 94.1333 190.798 93.984C190.974 93.8293 191.062 93.6133 191.062 93.336V92.976L190.598 92.992ZM195.907 90.552C195.965 90.552 196.035 90.5547 196.115 90.56C196.195 90.5653 196.259 90.5733 196.307 90.584L196.219 91.704C196.181 91.6933 196.125 91.6853 196.051 91.68C195.981 91.6693 195.92 91.664 195.867 91.664C195.712 91.664 195.563 91.6853 195.419 91.728C195.275 91.7653 195.144 91.8267 195.027 91.912C194.915 91.9973 194.824 92.112 194.755 92.256C194.691 92.3947 194.659 92.568 194.659 92.776V95H193.467V90.632H194.371L194.547 91.368H194.603C194.688 91.2187 194.795 91.0827 194.923 90.96C195.051 90.8373 195.197 90.7387 195.363 90.664C195.533 90.5893 195.715 90.552 195.907 90.552ZM198.743 90.552C199.148 90.552 199.495 90.6293 199.783 90.784C200.076 90.9387 200.303 91.1627 200.463 91.456C200.623 91.7493 200.703 92.1093 200.703 92.536V93.112H197.887C197.898 93.448 197.996 93.712 198.183 93.904C198.375 94.096 198.639 94.192 198.975 94.192C199.258 94.192 199.514 94.1653 199.743 94.112C199.972 94.0533 200.21 93.9653 200.455 93.848V94.768C200.242 94.8747 200.015 94.952 199.775 95C199.54 95.0533 199.255 95.08 198.919 95.08C198.482 95.08 198.095 95 197.759 94.84C197.423 94.6747 197.159 94.4267 196.967 94.096C196.775 93.7653 196.679 93.3493 196.679 92.848C196.679 92.336 196.764 91.912 196.935 91.576C197.111 91.2347 197.354 90.9787 197.663 90.808C197.972 90.6373 198.332 90.552 198.743 90.552ZM198.751 91.4C198.522 91.4 198.33 91.4747 198.175 91.624C198.026 91.7733 197.938 92.0053 197.911 92.32H199.583C199.583 92.144 199.551 91.9867 199.487 91.848C199.428 91.7093 199.338 91.6 199.215 91.52C199.092 91.44 198.938 91.4 198.751 91.4Z" fill="#954D2B"/>
<path d="M139.75 10C139.44 10 138.157 10 138.157 10V10.9293C138.157 10.9293 139.042 10.9293 139.971 10.9293C141.697 10.9293 142.14 11.7698 142.14 11.7698C142.14 11.7698 142.14 11.7698 142.449 11.5486C141.918 10.177 140.06 10 139.75 10Z" fill="black"/>
<path d="M136.157 17.167L136 17.958H137.08L136.923 17.167H136.157Z" fill="black"/>
<path d="M139.559 12.2514V11.4747C139.559 11.3169 139.431 11.189 139.272 11.189H138.739C138.58 11.189 138.453 11.3169 138.453 11.4747V12.2666C137.782 12.5033 137.302 13.1425 137.302 13.8937V19.3363C137.302 19.7027 137.599 19.9998 137.966 19.9998H140.09C140.456 19.9998 140.753 19.7027 140.753 19.3363V13.8937C140.753 13.1258 140.252 12.4754 139.559 12.2514ZM139.946 17.9423H138.109V15.6978H139.946V17.9423Z" fill="black"/>
<path d="M136.745 13.9246C136.745 13.169 137.132 12.4763 137.746 12.0743L137.748 12.0729L137.748 12.0731C137.751 12.0701 137.875 11.9924 138.071 11.9258V11.5C137.747 11.5873 137.542 11.7204 137.522 11.7329C137.522 11.7331 137.522 11.7331 137.522 11.7331C137.522 11.7333 137.52 11.7345 137.52 11.7347L137.52 11.7349C136.794 12.2115 136.337 13.0299 136.337 13.9246V17.027H136.745V13.9246ZM137.751 12.0709L137.749 12.0727L137.749 12.0725L137.751 12.0709Z" fill="black"/>
</svg>
