<svg width="346" height="115" viewBox="0 0 346 115" fill="none" xmlns="http://www.w3.org/2000/svg">
<path d="M260.901 32.3134L265.515 23.814M260.901 32.3134H277.9M260.901 32.3134L255.509 42.184M23.4601 70.3368L1 112.386L159.804 113.068M23.4601 70.3368H69.8895L86.0224 41.2601M23.4601 70.3368L38.9911 41.2601M108.36 1H72.1261M108.36 1L90.4899 33.2081M108.36 1H130.28M72.1261 1H60.4954L38.9911 41.2601M72.1261 1L55.1274 33.2081H90.4899M90.4899 33.2081L86.0224 41.2601M38.9911 41.2601H86.0224M130.28 1L88.6775 77.9415H123.122M130.28 1H164.277M164.277 1H221.088M164.277 1L123.122 77.9415M168.303 97.1769H112.834L123.122 77.9415M168.303 97.1769L159.804 113.068M168.303 97.1769L208.567 23.814M221.088 1H277.9L265.515 23.814M221.088 1L208.567 23.814M159.804 113.068L313.687 113.728L331.511 80.6255M208.567 23.814H265.515M331.511 80.6255L345 55.5748H301.161M331.511 80.6255H286.399M286.399 80.6255L301.161 55.5748M286.399 80.6255H268.059M301.161 55.5748H298.925L303.35 47.0527M301.161 55.5748H293.557M268.059 80.6255H234.508L248.194 55.5748M268.059 80.6255L281.479 55.5748M281.479 55.5748H280.584M281.479 55.5748H283.715M248.194 55.5748H264.836M248.194 55.5748L252.849 47.0527M264.836 55.5748L270.462 47.0527M264.836 55.5748H269.401M274.321 39.9181V41.2601L273.705 42.184M274.321 39.9181L277.9 32.3134M274.321 39.9181H277.9M277.9 32.3134H281.702M273.705 42.184H255.509M273.705 42.184L272.83 43.4967M255.509 42.184L254.792 43.4967M272.83 43.4967H254.792M272.83 43.4967L271.551 45.415M254.792 43.4967L253.744 45.415M253.744 45.415H271.551M253.744 45.415L252.849 47.0527M271.551 45.415L270.743 46.6281L270.462 47.0527M252.849 47.0527H270.462M270.462 47.0527H274.321M303.35 47.0527H298.925M303.35 47.0527L304.2 45.415M269.401 55.5748L274.321 47.0527M269.401 55.5748H272.83M274.321 47.0527H277.9M272.83 55.5748L277.9 47.0527M272.83 55.5748H277.154M277.9 47.0527H281.479M277.154 55.5748L281.479 47.0527M277.154 55.5748H280.584M281.479 47.0527H284.61M280.584 55.5748L284.61 47.0527M284.61 47.0527H288.189M283.715 55.5748L288.189 47.0527M283.715 55.5748H286.847M288.189 47.0527H291.767M286.847 55.5748L291.767 47.0527M286.847 55.5748H290.425M291.767 47.0527H294.899M290.425 55.5748L294.899 47.0527M290.425 55.5748H293.557M294.899 47.0527H298.925M293.557 55.5748L298.925 47.0527M288.189 39.9181L292.662 32.3134M288.189 39.9181H285.505M288.189 39.9181L286.98 42.184M288.189 39.9181H307.054M292.662 32.3134H311.003L307.054 39.9181M292.662 32.3134H289.083M285.505 39.9181L289.083 32.3134M285.505 39.9181H281.479M289.083 32.3134H285.505M281.479 39.9181L285.505 32.3134M281.479 39.9181H277.9M285.505 32.3134H281.702M277.9 39.9181L281.702 32.3134M284.61 46.6281L285.257 45.415M285.257 45.415H304.2M285.257 45.415L286.28 43.4967M304.2 45.415L305.196 43.4967M286.28 43.4967H305.196M286.28 43.4967L286.98 42.184M305.196 43.4967L305.877 42.184M305.877 42.184H286.98M305.877 42.184L307.054 39.9181" stroke="#F3858E"/>
<path d="M254.121 66.8296C253.649 66.8296 253.267 67.2121 253.267 67.6842C253.267 68.1564 253.649 68.5389 254.121 68.5389C254.593 68.5389 254.976 68.1564 254.976 67.6842C254.976 67.2121 254.593 66.8296 254.121 66.8296Z" fill="black"/>
<path d="M257.77 66.8296C257.298 66.8296 256.915 67.2121 256.915 67.6842C256.915 68.1564 257.298 68.5389 257.77 68.5389C258.242 68.5389 258.625 68.1564 258.625 67.6842C258.625 67.2121 258.242 66.8296 257.77 66.8296Z" fill="black"/>
<path d="M261.418 66.8296C260.946 66.8296 260.563 67.2121 260.563 67.6842C260.563 68.1564 260.946 68.5389 261.418 68.5389C261.891 68.5389 262.273 68.1564 262.273 67.6842C262.273 67.2121 261.891 66.8296 261.418 66.8296Z" fill="black"/>
<path d="M263.367 62.7603H252.173C251.313 62.7603 250.612 63.4603 250.612 64.3203V76.3054C250.612 77.1658 251.313 77.8658 252.173 77.8658H263.367C264.227 77.8658 264.927 77.1658 264.927 76.3054V64.3203C264.927 63.4603 264.227 62.7603 263.367 62.7603ZM253.969 76.8812L254.121 73.4551L254.273 76.8812H253.969ZM257.617 76.8812L257.77 73.4551L257.922 76.8812H257.617ZM261.266 76.8812L261.419 73.4551L261.571 76.8812H261.266ZM263.942 76.3054C263.942 76.623 263.684 76.8812 263.367 76.8812H262.357L262.385 72.8811C262.448 72.9733 262.551 73.0354 262.671 73.0298C262.854 73.021 262.996 72.8652 262.987 72.6816L263.129 69.8364C263.129 68.7173 261.995 68.6622 261.419 68.6622C260.842 68.6622 259.708 68.7173 259.708 69.8364L259.804 72.6816C259.795 72.8652 259.936 73.021 260.12 73.0298C260.28 73.0374 260.414 72.9273 260.452 72.7778L260.48 76.8811H258.708L258.736 72.8811C258.799 72.9733 258.902 73.0354 259.022 73.0298C259.205 73.0209 259.347 72.8652 259.339 72.6816L259.48 69.8364C259.48 68.7173 258.346 68.6622 257.77 68.6622C257.193 68.6622 256.059 68.7173 256.059 69.8364L256.155 72.6816C256.146 72.8652 256.287 73.0209 256.471 73.0298C256.632 73.0374 256.765 72.927 256.803 72.7769L256.831 76.8811H255.06L255.087 72.881C255.15 72.9732 255.253 73.0354 255.373 73.0297C255.557 73.0209 255.698 72.8651 255.69 72.6815L255.831 69.8363C255.831 68.7172 254.698 68.6622 254.121 68.6622C253.545 68.6622 252.411 68.7172 252.411 69.8363L252.506 72.6815C252.497 72.8651 252.639 73.0209 252.822 73.0297C252.983 73.0374 253.116 72.927 253.154 72.7769L253.182 76.8811H252.173C251.855 76.8811 251.597 76.6229 251.597 76.3053V64.3203C251.597 64.0031 251.855 63.7449 252.173 63.7449H263.367C263.684 63.7449 263.942 64.0031 263.942 64.3203V76.3054H263.942Z" fill="black"/>
<path d="M258.888 60.197L260.058 59.0273V61.6572C260.058 61.8969 260.252 62.0913 260.492 62.0913C260.732 62.0913 260.927 61.8969 260.927 61.6572V59.0273L262.096 60.197C262.182 60.2818 262.292 60.3244 262.403 60.3244C262.515 60.3244 262.626 60.2818 262.711 60.197C262.881 60.0273 262.881 59.7524 262.711 59.5829L260.799 57.6713L260.492 57.3643L260.185 57.6713L258.274 59.5829C258.104 59.7523 258.104 60.0273 258.274 60.197C258.443 60.3666 258.719 60.3666 258.888 60.197Z" fill="black"/>
<path d="M254.741 61.963C254.741 61.9633 254.741 61.9633 254.741 61.9633L255.048 62.2703L255.355 61.9633C255.355 61.9633 255.355 61.9633 255.355 61.963L257.266 60.0516C257.436 59.8819 257.436 59.6067 257.266 59.4373C257.097 59.2676 256.822 59.2676 256.652 59.4373L255.483 60.6072V57.9774C255.483 57.7373 255.288 57.543 255.048 57.543C254.808 57.543 254.614 57.7373 254.614 57.9774V60.6072L253.444 59.4373C253.274 59.2676 252.999 59.2676 252.829 59.4373C252.66 59.6067 252.66 59.8819 252.829 60.0516L254.741 61.963Z" fill="black"/>
<path d="M309.07 57.3853C308.713 57.4505 308.425 57.6051 308.18 57.8644C307.582 58.4951 307.611 59.4973 308.245 60.0931C308.644 60.4706 309.206 60.6101 309.749 60.4691C309.914 60.4266 310.175 60.2917 310.321 60.175C310.815 59.7793 311.024 59.1182 310.848 58.5087C310.704 58.0099 310.33 57.6172 309.846 57.452C309.597 57.3671 309.306 57.3428 309.07 57.3853Z" fill="black"/>
<path d="M307.05 60.8663C306.791 60.8845 306.564 60.9482 306.32 61.0694C305.683 61.3878 305.266 62.0094 305.201 62.7357C305.189 62.863 305.186 63.6954 305.189 65.4283L305.193 67.9375L305.226 68.0361C305.289 68.218 305.411 68.359 305.574 68.4333C305.636 68.4636 305.674 68.4682 305.815 68.4682C305.968 68.4682 305.989 68.4652 306.073 68.4242C306.244 68.3393 306.37 68.1741 306.417 67.9724C306.432 67.9103 306.436 67.3599 306.436 65.4708V63.048H306.812H307.187V69.5022C307.187 75.1225 307.19 75.9716 307.21 76.064C307.295 76.4704 307.66 76.7675 308.075 76.769C308.195 76.769 308.379 76.722 308.495 76.6599C308.632 76.5871 308.791 76.4234 308.861 76.2839C308.967 76.0656 308.961 76.3612 308.961 72.1933V68.4303H309.332H309.704V72.2009C309.705 76.3551 309.698 76.0686 309.802 76.2778C309.902 76.481 310.075 76.6326 310.307 76.7205C310.395 76.7539 310.431 76.7599 310.591 76.7599C310.75 76.7599 310.786 76.7539 310.874 76.7205C311.106 76.6326 311.279 76.481 311.377 76.2808C311.485 76.0625 311.478 76.6417 311.478 69.5022V63.048H311.849H312.22V65.4556C312.22 67.1203 312.225 67.8921 312.237 67.9542C312.277 68.168 312.398 68.3363 312.581 68.4257C312.689 68.4803 312.704 68.4834 312.833 68.4818C312.936 68.4818 312.991 68.4727 313.051 68.45C313.267 68.3636 313.411 68.168 313.449 67.9057C313.468 67.7617 313.468 63.0101 313.449 62.7751C313.367 61.8503 312.727 61.1043 311.849 60.9072C311.752 60.886 311.638 60.8754 311.455 60.8708C310.992 60.8602 307.199 60.8557 307.05 60.8663Z" fill="black"/>
<path d="M318.888 57.3868C318.334 57.4867 317.888 57.8405 317.673 58.348C317.577 58.5695 317.542 58.7694 317.551 59.0247C317.556 59.1678 317.568 59.2708 317.59 59.3569C317.714 59.8275 318.013 60.1997 318.436 60.4089C319.235 60.8026 320.192 60.4781 320.584 59.6784C320.681 59.48 320.724 59.3308 320.744 59.1216C320.798 58.5356 320.524 57.9589 320.038 57.6375C319.692 57.4098 319.271 57.3176 318.888 57.3868Z" fill="black"/>
<path d="M317.197 60.9392C316.614 61.0299 316.127 61.3544 315.778 61.882C315.613 62.1296 315.656 62.0035 315.024 64.0844C314.775 64.9041 314.504 65.7946 314.311 66.4344C314.229 66.7005 314.155 66.9619 314.146 67.0189C314.083 67.3757 314.271 67.7079 314.589 67.8063C314.836 67.8832 315.087 67.814 315.259 67.6233C315.389 67.4787 315.37 67.531 315.839 65.953C315.942 65.6054 316.091 65.1071 316.17 64.8457C316.247 64.5827 316.393 64.0936 316.493 63.7568L316.676 63.1462H317.011C317.29 63.1462 317.346 63.1493 317.346 63.1677C317.346 63.18 317.297 63.3646 317.237 63.5799C317.13 63.9659 316.808 65.124 315.97 68.137C315.332 70.4332 315.316 70.487 315.307 70.5162C315.299 70.5424 315.353 70.5439 316.291 70.5439H317.285V73.4692C317.285 76.6559 317.28 76.4898 317.371 76.6682C317.451 76.8266 317.611 76.9573 317.796 77.0142C317.917 77.0542 318.172 77.0496 318.291 77.005C318.517 76.9235 318.665 76.7712 318.741 76.5421C318.768 76.4621 318.769 76.3206 318.774 73.4846L318.777 70.5132H319.154H319.53V73.4892C319.53 76.4621 319.53 76.4667 319.563 76.5621C319.66 76.8512 319.89 77.0219 320.215 77.045C320.604 77.0712 320.932 76.8205 320.99 76.4498C321.001 76.3837 321.007 75.3747 321.007 73.4461V70.5439H321.991C322.633 70.5439 322.976 70.5393 322.976 70.5285C322.976 70.5209 322.865 70.1164 322.728 69.6334C322.593 69.149 322.42 68.5338 322.345 68.2677C322.27 68.0016 322.097 67.3849 321.96 66.8989C321.538 65.3917 321.439 65.0425 321.33 64.6534C321.271 64.4458 321.155 64.029 321.07 63.726C320.984 63.423 320.915 63.1693 320.915 63.1616C320.915 63.1523 321.053 63.1462 321.268 63.1462H321.621L321.653 63.2569C321.671 63.3184 321.699 63.4107 321.714 63.4615C321.73 63.5122 321.799 63.7445 321.868 63.9767C321.937 64.2089 322.053 64.5965 322.125 64.838C322.196 65.0794 322.303 65.4378 322.362 65.6331C322.586 66.3867 322.688 66.7312 322.769 67.0065C322.816 67.1634 322.869 67.3295 322.886 67.3757C323.014 67.7063 323.305 67.8924 323.608 67.8371C323.957 67.774 324.183 67.4618 324.155 67.0834C324.146 66.9681 324.134 66.9235 323.789 65.7915C323.482 64.7811 322.988 63.1554 322.857 62.7232C322.791 62.5018 322.713 62.2788 322.674 62.1973C322.583 62.0065 322.414 61.7866 322.207 61.5882C321.828 61.2252 321.394 61.0068 320.922 60.9392C320.709 60.9084 317.393 60.9084 317.197 60.9392Z" fill="black"/>
</svg>
