<?xml version="1.0" encoding="UTF-8"?>
<svg id="_トレース" data-name="トレース" xmlns="http://www.w3.org/2000/svg" viewBox="0 0 595 842">
  <defs>
    <style>
      .cls-1, .cls-2, .cls-3, .cls-4, .cls-5, .cls-6, .cls-7, .cls-8, .cls-9 {
        stroke-miterlimit: 10;
      }

      .cls-1, .cls-3, .cls-4, .cls-8, .cls-9 {
        fill: none;
      }

      .cls-1, .cls-3, .cls-7, .cls-9 {
        stroke: #6fba2d;
      }

      .cls-2 {
        font-size: 18px;
      }

      .cls-2, .cls-5, .cls-6 {
        fill: #028760;
        font-family: BIZ-UDGothic, 'BIZ UDGothic';
        stroke: #028760;
      }

      .cls-3 {
        stroke-width: 3px;
      }

      .cls-4, .cls-8 {
        stroke: #3b7960;
      }

      .cls-5 {
        letter-spacing: .1em;
      }

      .cls-5, .cls-6 {
        font-size: 21px;
      }

      .cls-6 {
        letter-spacing: .1em;
      }

      .cls-7 {
        fill: #6fba2d;
      }

      .cls-8, .cls-9 {
        stroke-width: 2px;
      }
    </style>
  </defs>
  <g>
    <g>
      <polyline class="cls-9" points="166.65 155.79 166.65 274.44 217.21 274.44 181.48 337.13 100.04 290.21 17.25 290.21"/>
      <line class="cls-9" x1="266.29" y1="257.58" x2="166.92" y2="257.58"/>
      <line class="cls-9" x1="134.69" y1="368.55" x2="134.69" y2="310.3"/>
      <polyline class="cls-9" points="17.39 368.69 153.84 368.69 189.03 390.39 189.03 411.29 156.94 467.38"/>
      <polyline class="cls-9" points="157.75 518.21 231.9 392.28 239.19 396.73 166.65 522.93"/>
      <line class="cls-9" x1="226.24" y1="557.69" x2="328.58" y2="380.42"/>
      <polyline class="cls-9" points="298.14 431.79 259.31 408.63 281.25 371.11 319.78 394.47"/>
    </g>
    <g>
      <polyline class="cls-3" points="346.38 351.16 398.02 258.26 327.9 217.13 302.15 217 302.15 155.52 17.25 155.52 17.25 437.31 448.17 686.62 567.23 479.25 266.29 304.64 266.29 155.38"/>
      <polyline class="cls-3" points="497.66 601.67 535.68 624.93 577.75 554.15 577.75 504.19 559.95 492.46"/>
    </g>
    <g>
      <line class="cls-1" x1="189.23" y1="396.19" x2="229.17" y2="396.19"/>
      <line class="cls-1" x1="189.43" y1="402.26" x2="225.74" y2="402.26"/>
      <line class="cls-1" x1="189.43" y1="407.82" x2="222.7" y2="407.82"/>
      <line class="cls-1" x1="188.72" y1="412.47" x2="211.58" y2="426.12"/>
      <line class="cls-1" x1="185.79" y1="417.33" x2="208.95" y2="430.78"/>
      <line class="cls-1" x1="182.76" y1="422.08" x2="206.02" y2="435.63"/>
      <line class="cls-1" x1="179.93" y1="427.44" x2="203.19" y2="440.48"/>
      <line class="cls-1" x1="177.3" y1="431.69" x2="200.25" y2="445.84"/>
      <line class="cls-1" x1="174.77" y1="436.64" x2="197.52" y2="449.89"/>
      <line class="cls-1" x1="171.94" y1="441.6" x2="194.79" y2="454.74"/>
      <line class="cls-1" x1="169.11" y1="446.45" x2="191.96" y2="459.6"/>
      <line class="cls-1" x1="166.48" y1="450.7" x2="189.23" y2="464.15"/>
      <line class="cls-1" x1="163.65" y1="455.96" x2="186.2" y2="469.61"/>
      <line class="cls-1" x1="160.61" y1="460.81" x2="183.37" y2="474.36"/>
      <line class="cls-1" x1="199.34" y1="467.18" x2="223.61" y2="481.64"/>
      <line class="cls-1" x1="201.57" y1="462.83" x2="226.04" y2="477.49"/>
      <line class="cls-1" x1="204.1" y1="458.48" x2="228.57" y2="472.94"/>
      <line class="cls-1" x1="206.72" y1="454.44" x2="230.89" y2="468.39"/>
      <line class="cls-1" x1="209.56" y1="449.79" x2="233.22" y2="464.04"/>
      <line class="cls-1" x1="211.88" y1="445.84" x2="235.95" y2="459.49"/>
      <line class="cls-1" x1="214.81" y1="440.89" x2="238.88" y2="454.64"/>
      <line class="cls-1" x1="217.24" y1="437.04" x2="241.61" y2="450.39"/>
      <line class="cls-1" x1="229.68" y1="479.31" x2="259.92" y2="497.72"/>
      <line class="cls-1" x1="232.21" y1="475.07" x2="262.65" y2="492.66"/>
      <line class="cls-1" x1="234.74" y1="470.72" x2="265.28" y2="488.72"/>
      <line class="cls-1" x1="237.26" y1="465.97" x2="267.8" y2="484.07"/>
      <line class="cls-1" x1="239.89" y1="461.72" x2="270.63" y2="479.52"/>
      <line class="cls-1" x1="242.12" y1="457.78" x2="273.06" y2="475.17"/>
      <line class="cls-1" x1="245.05" y1="453.02" x2="275.49" y2="470.92"/>
      <line class="cls-1" x1="247.07" y1="448.88" x2="278.32" y2="466.57"/>
      <polygon class="cls-1" points="223.51 483.16 244.54 446.35 247.38 448.07 226.34 484.98 223.51 483.16"/>
      <line class="cls-1" x1="509.66" y1="581.04" x2="528.7" y2="592.17"/>
      <line class="cls-1" x1="512.42" y1="576.49" x2="530.83" y2="587.82"/>
      <line class="cls-1" x1="514.95" y1="572.45" x2="533.35" y2="583.57"/>
      <line class="cls-1" x1="517.38" y1="568.4" x2="535.98" y2="579.43"/>
      <line class="cls-1" x1="520.21" y1="563.85" x2="538.31" y2="574.88"/>
      <line class="cls-1" x1="522.13" y1="559.3" x2="540.84" y2="570.73"/>
      <line class="cls-1" x1="524.66" y1="555.36" x2="543.37" y2="566.28"/>
      <line class="cls-1" x1="527.49" y1="551.72" x2="545.99" y2="562.24"/>
      <line class="cls-1" x1="530.22" y1="547.37" x2="547.92" y2="557.28"/>
      <polygon class="cls-1" points="526.07 597.22 552.57 551.21 555.5 552.83 529.31 599.04 526.07 597.22"/>
      <line class="cls-1" x1="542.35" y1="576.9" x2="558.33" y2="586"/>
      <line class="cls-1" x1="539.52" y1="581.45" x2="555.6" y2="590.55"/>
      <line class="cls-1" x1="537.2" y1="585.49" x2="552.87" y2="594.7"/>
      <path class="cls-1" d="M534.77,590.15c.1.4,15.47,9,15.47,9"/>
      <line class="cls-1" x1="532.34" y1="595" x2="547.71" y2="604"/>
      <line class="cls-1" x1="529.31" y1="599.04" x2="544.88" y2="608.15"/>
    </g>
    <circle class="cls-7" cx="260.35" cy="348.46" r="6.74"/>
  </g>
  <g>
    <text class="cls-2" transform="translate(368.3 595.16)"><tspan x="0" y="0">学生ラウンジ</tspan></text>
    <rect class="cls-4" x="356.78" y="568.33" width="131.06" height="40" rx="20" ry="20"/>
  </g>
  <g>
    <text class="cls-2" transform="translate(289.63 282.45)"><tspan x="0" y="0">バルコニー</tspan></text>
    <rect class="cls-4" x="275.57" y="255.61" width="118.11" height="40" rx="20" ry="20"/>
  </g>
  <g>
    <text class="cls-6" transform="translate(339.07 540.61)"><tspan x="0" y="0">高校生受付</tspan></text>
    <rect class="cls-8" x="330.24" y="512.64" width="131.06" height="40"/>
  </g>
  <g>
    <text class="cls-5" transform="translate(49.11 230.94)"><tspan x="0" y="0">STAFF ONLY</tspan></text>
    <rect class="cls-8" x="39.44" y="202.96" width="143.23" height="40"/>
  </g>
  <g>
    <path d="M282.97,398.37c-.8,0-1.44.65-1.44,1.44s.65,1.44,1.44,1.44,1.44-.65,1.44-1.44-.65-1.44-1.44-1.44Z"/>
    <path d="M289.12,398.37c-.8,0-1.44.65-1.44,1.44s.65,1.44,1.44,1.44,1.44-.65,1.44-1.44c0-.8-.65-1.44-1.44-1.44Z"/>
    <path d="M295.28,398.37c-.8,0-1.44.65-1.44,1.44s.65,1.44,1.44,1.44,1.44-.65,1.44-1.44-.65-1.44-1.44-1.44Z"/>
    <path d="M298.57,391.5h-18.88c-1.45,0-2.63,1.18-2.63,2.63v20.22c0,1.45,1.18,2.63,2.63,2.63h18.88c1.45,0,2.63-1.18,2.63-2.63v-20.22c0-1.45-1.18-2.63-2.63-2.63ZM282.71,415.32l.26-5.78.26,5.78h-.51ZM288.87,415.32l.26-5.78.26,5.78h-.51ZM295.02,415.32l.26-5.78.26,5.78h-.51ZM299.54,414.35c0,.54-.44.97-.97.97h-1.7l.05-6.75c.11.16.28.26.48.25.31-.01.55-.28.53-.59l.24-4.8c0-1.89-1.91-1.98-2.89-1.98s-2.89.09-2.89,1.98l.16,4.8c-.01.31.22.57.53.59.27.01.5-.17.56-.43l.05,6.92h-2.99l.05-6.75c.11.16.28.26.48.25.31-.01.55-.28.53-.59l.24-4.8c0-1.89-1.91-1.98-2.88-1.98s-2.89.09-2.89,1.98l.16,4.8c-.01.31.22.57.53.59.27.01.5-.17.56-.43l.05,6.92h-2.99l.05-6.75c.11.16.28.26.48.25.31-.01.55-.28.53-.59l.24-4.8c0-1.89-1.91-1.98-2.89-1.98s-2.88.09-2.88,1.98l.16,4.8c-.01.31.22.57.53.59.27.01.5-.17.56-.43l.05,6.92h-1.7c-.54,0-.97-.44-.97-.97v-20.22c0-.54.44-.97.97-.97h18.88c.54,0,.97.44.97.97v20.22h0Z"/>
    <path d="M291.01,387.18l1.97-1.97v4.44c0,.4.33.73.73.73s.73-.33.73-.73v-4.44l1.97,1.97c.14.14.33.21.52.21s.38-.07.52-.21c.29-.29.29-.75,0-1.04l-3.22-3.22-.52-.52-.52.52-3.22,3.22c-.29.29-.29.75,0,1.04.29.29.75.29,1.04,0Z"/>
    <path d="M284.01,390.16h0s.52.52.52.52l.52-.52s0,0,0,0l3.22-3.22c.29-.29.29-.75,0-1.04-.29-.29-.75-.29-1.04,0l-1.97,1.97v-4.44c0-.4-.33-.73-.73-.73s-.73.33-.73.73v4.44l-1.97-1.97c-.29-.29-.75-.29-1.04,0-.29.29-.29.75,0,1.04l3.22,3.22Z"/>
  </g>
  <g>
    <path d="M326.63,412.55c-.19.02-1.07.07-1.96.1-1.17.05-1.67.09-1.84.15-.3.11-.74.55-.97.98-.09.18-.32.47-.49.65l-.33.32h-.61c-.69,0-.88.06-1.01.32-.18.35-.01.83.35.95.1.04.44.06.75.06h.56s.22.24.22.24c.32.33.57.44,1.02.44.42,0,.67-.1.95-.36.16-.15.17-.16.47-.09.84.17,2.32.76,3.75,1.5.46.23.83.42.84.42,0,0,0-.25-.02-.55-.02-.41-.04-.57-.11-.65-.12-.14-1.24-.87-2.26-1.47l-.84-.49h-.7q-.7,0-.77-.13c-.04-.09-.04-.16-.01-.19.11-.11,3.06-1.16,3.93-1.39l.22-.06-.14-.25c-.2-.35-.4-.55-.53-.54-.06,0-.27.02-.46.04ZM322.49,414.91c.34.12.44.56.2.84-.11.12-.17.15-.38.15s-.27-.03-.38-.15c-.24-.27-.13-.71.19-.84.18-.07.17-.07.36,0Z"/>
    <path d="M318.34,414.86c-2.11.31-3.28,2.01-3.03,4.44.07.73.23,1.47.64,3.16.44,1.76.54,2.35.57,3.32.02.63,0,.95-.06,1.33-.05.28-.08.51-.08.51.01,0,.15.05.31.11s.39.14.5.2c.12.06.21.1.23.09.06-.06.19-.76.25-1.3.12-1.14-.03-2.27-.62-4.62-.48-1.91-.57-2.42-.61-3.17-.05-1.07.12-1.7.61-2.22.14-.15.35-.33.48-.4.28-.17.9-.35,1.16-.35.2,0,.21-.01.17-.12-.05-.15-.05-.78,0-.94.05-.13.02-.14-.53-.06Z"/>
    <path d="M321.05,417.53v.64l-.46.23c-.87.43-1.6,1.34-1.82,2.26-.05.23-.08.63-.08,1.21v.87h7.24v-.87c0-.97-.06-1.3-.32-1.83-.32-.64-.86-1.17-1.59-1.54l-.44-.22v-.57c0-.31-.02-.62-.03-.69-.03-.11-.04-.11-.12-.04-.16.14-.58.3-.9.33-.41.04-.85-.05-1.16-.25-.14-.09-.26-.16-.27-.16-.02,0-.03.28-.03.63Z"/>
    <path d="M318.69,426.3v3.03h7.24v-6.06h-7.24v3.03ZM324.59,426.33v1.45h-4.56v-2.9h4.56v1.45Z"/>
    <path d="M315.6,428.22c-.07.03-.51.75-1.14,1.88l-1.03,1.82.15.16c.19.19,1.17.68,1.84.9.28.09.67.18.87.2.34.02.36.02.41-.1.03-.07.28-.97.55-1.99.34-1.29.48-1.9.45-2.01-.13-.52-1.58-1.12-2.1-.86ZM314.94,431.66c.56.12,1.09.42,1.29.72.12.19.12.28,0,.28-.33,0-2.17-.76-2.13-.88.02-.05.32-.18.44-.19.03,0,.21.03.41.07Z"/>
    <path d="M318.69,432.56c0,3.06,0,3,.41,3.46.14.16.37.33.55.42l.31.15h4.72l.31-.15c.18-.09.41-.26.55-.42.41-.46.41-.41.41-3.46v-2.7h-7.24v2.7Z"/>
  </g>
  <g>
    <path d="M546.38,534.89v13.59h27.41v-27.19h-27.41v13.59ZM568.38,531.44v8.34l.42.07c.49.08,1.12.36,1.38.63.43.43,1.2,1.82,1.21,2.21.01.17,0,.19-.21.23-.12.02-.8.04-1.51.04h-1.29v3.58l.61.63c.63.65.83.91.78.97-.07.06-3.37.12-6.97.12h-3.63s-.96-.93-.96-.93l-.96-.93h-2.49l.87.85c.79.77.86.85.77.91-.07.05-.63.08-1.55.1l-1.43.03-.81-.81-.81-.81v-11.48h3.53s.73-.86.73-.86c1.02-1.18,1.27-1.46,1.35-1.46.06,0,.73,1.35,1.34,2.72l.23.5-1.97,3.98c-2.39,4.82-2.66,5.41-2.54,5.49.11.07.85.06,1.39-.01.47-.07.94-.25,1.13-.46.18-.19.87-1.48,2.37-4.42,1.53-3,1.88-3.64,1.96-3.62.08.03.13.41.19,1.84.07,1.42.17,2.36.32,2.86.15.52-.11.5,4.4.5,4.02,0,4.25-.01,4.34-.23.04-.11-.29-.73-.55-1.03-.12-.14-.3-.29-.39-.33-.33-.17-1.03-.24-2.92-.3-1.04-.03-2.12-.07-2.4-.09l-.51-.03-.16-2.35-.16-2.35-.21-.48c-.12-.27-.51-1.09-.87-1.85-.36-.75-.65-1.4-.65-1.45,0-.12.27-.15,1.26-.13l.9.02.54.94c.89,1.56,1.33,2.08,1.74,2.08.19,0,.59-.27.7-.46.17-.34-.05-.98-.8-2.28-.82-1.42-1.12-1.75-1.78-1.96-.38-.12-.46-.12-3.24-.12-2.22,0-2.92.02-3.16.08-.28.07-.36.13-.9.68-.33.33-1,1.09-1.49,1.69l-.9,1.08h-1.39s-1.4,0-1.4,0v-10.27h16.58v8.34Z"/>
    <path d="M557.21,525.74c-.63.18-1.13.91-1.15,1.65-.01.55.53,1.44,1.05,1.73.14.07.31.1.69.1.44,0,.55-.02.83-.16.69-.34,1.01-.87,1.03-1.73,0-.42-.01-.51-.15-.73-.19-.32-.66-.77-.92-.88-.25-.11-.99-.1-1.38.02Z"/>
  </g>
</svg>