<svg width="302" height="175" viewBox="0 0 302 175" fill="none" xmlns="http://www.w3.org/2000/svg">
<path d="M51.8663 19.1931L82.6832 1H134.663L127.98 19.1931M51.8663 19.1931L33.8131 74.1436M51.8663 19.1931H96.0495M127.98 19.1931H134.663L124.267 48.5247H241.594L215.975 125.752M127.98 19.1931H96.0495M215.975 125.752H301L284.663 174.391L199.639 174.28M215.975 125.752L199.639 174.28M33.8131 74.1436L1 174.02L93.4505 174.141M33.8131 74.1436H77.8564M155.827 174.222L188.5 74.1436H126.495M155.827 174.222L93.4505 174.141M155.827 174.222L199.639 174.28M93.4505 174.141L126.495 74.1436M126.495 74.1436H77.8564M77.8564 74.1436L96.0495 19.1931M187.015 109.326L185.53 113.871H202.238L203.723 109.326M187.015 109.326H203.723M187.015 109.326L188.5 104.78M203.723 109.326L205.208 104.78M188.5 104.78H205.208M188.5 104.78L190.018 100.134M205.208 104.78L206.726 100.134M190.018 100.134H206.726M190.018 100.134L191.595 95.3069M206.726 100.134L208.303 95.3069M191.595 95.3069H208.303M191.595 95.3069L193.172 90.4802M208.303 95.3069L209.88 90.4802M193.172 90.4802H209.88M193.172 90.4802L194.749 85.6535M209.88 90.4802L211.457 85.6535M194.749 85.6535H211.457M194.749 85.6535L196.266 81.0124M211.457 85.6535L214.49 76.3713H197.782L196.266 81.0124M196.266 81.0124H212.634" stroke="#965045"/>
<rect x="203" y="138" width="86" height="24" fill="white" stroke="#E2B953" stroke-width="2"/>
<path d="M216.409 151.624C216.409 152.128 216.285 152.568 216.037 152.944C215.789 153.32 215.429 153.612 214.957 153.82C214.493 154.02 213.925 154.12 213.253 154.12C212.957 154.12 212.665 154.1 212.377 154.06C212.097 154.02 211.825 153.964 211.561 153.892C211.305 153.812 211.061 153.716 210.829 153.604V151.912C211.237 152.088 211.657 152.252 212.089 152.404C212.529 152.548 212.965 152.62 213.397 152.62C213.693 152.62 213.929 152.58 214.105 152.5C214.289 152.42 214.421 152.312 214.501 152.176C214.589 152.04 214.633 151.884 214.633 151.708C214.633 151.492 214.557 151.308 214.405 151.156C214.261 151.004 214.065 150.864 213.817 150.736C213.569 150.6 213.285 150.456 212.965 150.304C212.765 150.208 212.549 150.096 212.317 149.968C212.085 149.832 211.861 149.668 211.645 149.476C211.437 149.276 211.265 149.036 211.129 148.756C210.993 148.476 210.925 148.14 210.925 147.748C210.925 147.236 211.041 146.8 211.273 146.44C211.513 146.072 211.849 145.792 212.281 145.6C212.721 145.408 213.237 145.312 213.829 145.312C214.277 145.312 214.701 145.364 215.101 145.468C215.509 145.572 215.933 145.72 216.373 145.912L215.785 147.328C215.393 147.168 215.041 147.044 214.729 146.956C214.417 146.868 214.097 146.824 213.769 146.824C213.545 146.824 213.353 146.86 213.193 146.932C213.033 147.004 212.909 147.104 212.821 147.232C212.741 147.36 212.701 147.512 212.701 147.688C212.701 147.888 212.761 148.06 212.881 148.204C213.001 148.34 213.181 148.472 213.421 148.6C213.661 148.728 213.961 148.88 214.321 149.056C214.761 149.264 215.133 149.48 215.437 149.704C215.749 149.928 215.989 150.192 216.157 150.496C216.325 150.8 216.409 151.176 216.409 151.624ZM221.267 154H219.455V146.944H217.127V145.432H223.595V146.944H221.267V154ZM229.316 154L228.692 151.96H225.572L224.948 154H222.992L226.016 145.396H228.236L231.272 154H229.316ZM227.636 148.444C227.596 148.308 227.544 148.136 227.48 147.928C227.416 147.72 227.352 147.508 227.288 147.292C227.224 147.076 227.172 146.888 227.132 146.728C227.092 146.888 227.036 147.088 226.964 147.328C226.9 147.56 226.836 147.784 226.772 148C226.716 148.208 226.672 148.356 226.64 148.444L226.028 150.436H228.26L227.636 148.444ZM234.145 154H232.357V145.432H237.265V146.92H234.145V149.128H237.049V150.616H234.145V154ZM240.731 154H238.943V145.432H243.851V146.92H240.731V149.128H243.635V150.616H240.731V154ZM256.422 149.704C256.422 150.368 256.338 150.972 256.17 151.516C256.01 152.052 255.762 152.516 255.426 152.908C255.098 153.3 254.674 153.6 254.154 153.808C253.642 154.016 253.038 154.12 252.342 154.12C251.646 154.12 251.038 154.016 250.518 153.808C250.006 153.592 249.582 153.292 249.246 152.908C248.918 152.516 248.67 152.048 248.502 151.504C248.342 150.96 248.262 150.356 248.262 149.692C248.262 148.804 248.406 148.032 248.694 147.376C248.99 146.72 249.438 146.212 250.038 145.852C250.646 145.484 251.418 145.3 252.354 145.3C253.282 145.3 254.046 145.484 254.646 145.852C255.246 146.212 255.69 146.724 255.978 147.388C256.274 148.044 256.422 148.816 256.422 149.704ZM250.17 149.704C250.17 150.304 250.246 150.82 250.398 151.252C250.55 151.684 250.786 152.016 251.106 152.248C251.426 152.48 251.838 152.596 252.342 152.596C252.862 152.596 253.278 152.48 253.59 152.248C253.91 152.016 254.142 151.684 254.286 151.252C254.438 150.82 254.514 150.304 254.514 149.704C254.514 148.8 254.346 148.092 254.01 147.58C253.674 147.068 253.122 146.812 252.354 146.812C251.842 146.812 251.426 146.928 251.106 147.16C250.786 147.392 250.55 147.724 250.398 148.156C250.246 148.588 250.17 149.104 250.17 149.704ZM265.793 154H263.489L259.757 147.52H259.709C259.717 147.72 259.725 147.924 259.733 148.132C259.741 148.332 259.749 148.536 259.757 148.744C259.773 148.944 259.785 149.148 259.793 149.356C259.801 149.556 259.809 149.76 259.817 149.968V154H258.197V145.432H260.489L264.209 151.852H264.245C264.237 151.652 264.229 151.456 264.221 151.264C264.213 151.064 264.205 150.868 264.197 150.676C264.197 150.476 264.193 150.28 264.185 150.088C264.177 149.888 264.169 149.688 264.161 149.488V145.432H265.793V154ZM267.959 154V145.432H269.771V152.5H273.251V154H267.959ZM277.045 148.96L278.833 145.432H280.789L277.945 150.664V154H276.145V150.724L273.301 145.432H275.269L277.045 148.96Z" fill="#954D2B"/>
<rect x="36.5" y="142.5" width="19" height="13" fill="white" stroke="#E2B953"/>
<path d="M43.2208 147.568C43.2208 147.829 43.1648 148.056 43.0528 148.248C42.9461 148.44 42.7995 148.597 42.6128 148.72C42.4315 148.843 42.2235 148.933 41.9888 148.992V149.016C42.4475 149.069 42.7941 149.208 43.0288 149.432C43.2688 149.656 43.3888 149.957 43.3888 150.336C43.3888 150.667 43.3061 150.965 43.1408 151.232C42.9808 151.493 42.7301 151.701 42.3888 151.856C42.0528 152.005 41.6181 152.08 41.0848 152.08C40.7701 152.08 40.4768 152.053 40.2048 152C39.9328 151.947 39.6768 151.869 39.4368 151.768V150.744C39.6821 150.867 39.9381 150.96 40.2048 151.024C40.4768 151.088 40.7275 151.12 40.9568 151.12C41.3888 151.12 41.6901 151.045 41.8608 150.896C42.0368 150.747 42.1248 150.536 42.1248 150.264C42.1248 150.104 42.0848 149.971 42.0048 149.864C41.9248 149.752 41.7835 149.669 41.5808 149.616C41.3835 149.557 41.1061 149.528 40.7488 149.528H40.3168V148.6H40.7568C41.1088 148.6 41.3755 148.568 41.5568 148.504C41.7435 148.435 41.8688 148.344 41.9328 148.232C42.0021 148.115 42.0368 147.981 42.0368 147.832C42.0368 147.629 41.9728 147.472 41.8448 147.36C41.7221 147.243 41.5141 147.184 41.2208 147.184C41.0395 147.184 40.8741 147.208 40.7248 147.256C40.5755 147.299 40.4395 147.352 40.3168 147.416C40.1995 147.48 40.0955 147.541 40.0048 147.6L39.4448 146.768C39.5941 146.661 39.7595 146.565 39.9408 146.48C40.1275 146.395 40.3328 146.328 40.5568 146.28C40.7808 146.232 41.0315 146.208 41.3088 146.208C41.8955 146.208 42.3595 146.328 42.7008 146.568C43.0475 146.803 43.2208 147.136 43.2208 147.568ZM47.0149 152H45.8069V148.696C45.8069 148.605 45.8069 148.493 45.8069 148.36C45.8123 148.227 45.8176 148.088 45.8229 147.944C45.8283 147.8 45.8336 147.672 45.8389 147.56C45.8123 147.592 45.7536 147.651 45.6629 147.736C45.5776 147.816 45.4976 147.888 45.4229 147.952L44.7669 148.48L44.1829 147.752L46.0229 146.288H47.0149V152ZM51.5931 152H50.3851V148.696C50.3851 148.605 50.3851 148.493 50.3851 148.36C50.3904 148.227 50.3957 148.088 50.4011 147.944C50.4064 147.8 50.4117 147.672 50.4171 147.56C50.3904 147.592 50.3317 147.651 50.2411 147.736C50.1557 147.816 50.0757 147.888 50.0011 147.952L49.3451 148.48L48.7611 147.752L50.6011 146.288H51.5931V152Z" fill="#954D2B"/>
</svg>
