<svg width="302" height="156" viewBox="0 0 302 156" fill="none" xmlns="http://www.w3.org/2000/svg">
<path d="M123.509 30.5203L133.841 1H51.9225L42.1766 30.5203M123.509 30.5203H240.483L215.76 106.904M123.509 30.5203H103.583M215.76 106.904H301L284.764 155.244H199.524M215.76 106.904L199.524 155.244M76.6458 155.244H1L42.1766 30.5203M76.6458 155.244L112.439 48.2325M76.6458 155.244H164.469M112.439 48.2325H98.417L103.583 30.5203M112.439 48.2325H199.524L196.26 58.1956M103.583 30.5203H42.1766M164.469 155.244H199.524M164.469 155.244L184.051 95.4649M184.051 95.4649H201.369L202.922 90.8524M184.051 95.4649L185.562 90.8524M196.26 58.1956H213.915L212.3 62.9926M196.26 58.1956L194.689 62.9926M194.689 62.9926H212.3M194.689 62.9926L193.238 67.4207M212.3 62.9926L210.81 67.4207M193.238 67.4207H210.81M193.238 67.4207L191.667 72.2177M210.81 67.4207L209.195 72.2177M191.667 72.2177H209.195M191.667 72.2177L190.095 77.0148M209.195 72.2177L207.58 77.0148M190.095 77.0148H207.58M190.095 77.0148L188.645 81.4428M207.58 77.0148L206.089 81.4428M188.645 81.4428H206.089M188.645 81.4428L187.073 86.2399M206.089 81.4428L204.474 86.2399M187.073 86.2399H204.474M187.073 86.2399L185.562 90.8524M204.474 86.2399L202.922 90.8524M185.562 90.8524H202.922" stroke="#965045"/>
<path d="M83.8878 5.81536C83.4311 5.89782 83.0632 6.18962 82.8856 6.60828C82.8069 6.79097 82.7777 6.9559 82.7853 7.1665C82.7892 7.28449 82.7993 7.36949 82.8171 7.44054C82.9198 7.82875 83.166 8.13577 83.5148 8.30832C84.1746 8.6331 84.9637 8.36541 85.2872 7.70569C85.3671 7.54203 85.4026 7.41897 85.4191 7.24643C85.4635 6.76306 85.2377 6.28731 84.8368 6.02215C84.5514 5.83439 84.2037 5.75827 83.8878 5.81536Z" fill="black"/>
<path d="M82.4939 8.74604C82.013 8.82089 81.6109 9.08859 81.3229 9.52374C81.1871 9.728 81.2227 9.62397 80.7012 11.3405C80.4957 12.0167 80.2724 12.7513 80.1126 13.279C80.0453 13.4985 79.9844 13.7142 79.9768 13.7611C79.9248 14.0555 80.0796 14.3295 80.3422 14.4107C80.5465 14.4741 80.7532 14.417 80.8953 14.2597C81.0019 14.1405 80.9867 14.1836 81.3736 12.8819C81.4586 12.5952 81.5817 12.1842 81.6464 11.9685C81.7098 11.7515 81.8304 11.3481 81.9128 11.0703L82.0638 10.5666H82.3404C82.57 10.5666 82.6169 10.5691 82.6169 10.5844C82.6169 10.5945 82.5763 10.7468 82.5269 10.9244C82.4381 11.2428 82.1729 12.1981 81.4815 14.6835C80.955 16.5776 80.9423 16.622 80.9347 16.6461C80.9283 16.6677 80.9727 16.669 81.7466 16.669H82.5662V19.082C82.5662 21.7107 82.5624 21.5737 82.6372 21.7208C82.7032 21.8515 82.8352 21.9593 82.9874 22.0063C83.0876 22.0393 83.2982 22.0355 83.3959 21.9987C83.5824 21.9314 83.7042 21.8058 83.7676 21.6168C83.7892 21.5508 83.7905 21.4341 83.7943 19.0947L83.7968 16.6436H84.1076H84.4185V19.0985C84.4185 21.5508 84.4185 21.5546 84.4451 21.6333C84.525 21.8718 84.7153 22.0126 84.983 22.0317C85.304 22.0532 85.5742 21.8464 85.6224 21.5407C85.6313 21.4861 85.6364 20.6539 85.6364 19.0629V16.669H86.4484C86.9774 16.669 87.2603 16.6651 87.2603 16.6563C87.2603 16.6499 87.169 16.3163 87.0561 15.9179C86.9444 15.5183 86.8023 15.0108 86.7402 14.7913C86.678 14.5718 86.5359 14.0631 86.423 13.6622C86.0741 12.4189 85.9929 12.1309 85.9028 11.8099C85.8546 11.6386 85.7582 11.2948 85.6884 11.0449C85.6174 10.795 85.5603 10.5856 85.5603 10.5793C85.5603 10.5717 85.6745 10.5666 85.8521 10.5666H86.1426L86.1692 10.6579C86.1845 10.7087 86.2073 10.7848 86.22 10.8267C86.2327 10.8685 86.2898 11.0601 86.3469 11.2517C86.404 11.4433 86.4991 11.763 86.5587 11.9621C86.6171 12.1613 86.7059 12.4569 86.7541 12.6181C86.9393 13.2397 87.0231 13.5239 87.0903 13.751C87.1284 13.8804 87.1728 14.0174 87.1867 14.0555C87.292 14.3282 87.5318 14.4817 87.7817 14.4361C88.0697 14.3841 88.2562 14.1265 88.2334 13.8144C88.2258 13.7193 88.2156 13.6825 87.9314 12.7487C87.6777 11.9152 87.2705 10.5742 87.1626 10.2177C87.1081 10.035 87.0434 9.85106 87.0116 9.78382C86.9368 9.62651 86.7972 9.44509 86.626 9.28143C86.3139 8.98202 85.9561 8.80186 85.5666 8.74604C85.3903 8.72067 82.655 8.72067 82.4939 8.74604Z" fill="black"/>
</svg>
