<?xml version="1.0" encoding="UTF-8"?>
<svg id="_トレース" data-name="トレース" xmlns="http://www.w3.org/2000/svg" viewBox="0 0 595 842">
  <defs>
    <style>
      .cls-1 {
        fill: #965045;
        font-family: BIZ-UDGothic, 'BIZ UDGothic';
        font-size: 24.72px;
        letter-spacing: .2em;
      }

      .cls-1, .cls-2, .cls-3, .cls-4 {
        stroke: #965045;
      }

      .cls-1, .cls-2, .cls-3, .cls-4, .cls-5 {
        stroke-miterlimit: 10;
      }

      .cls-2 {
        stroke-width: 3px;
      }

      .cls-2, .cls-3, .cls-4 {
        fill: none;
      }

      .cls-6 {
        fill: #3b82f6;
      }

      .cls-3 {
        stroke-width: 2px;
      }

      .cls-5 {
        fill: #fff;
        stroke: #e2b953;
      }
    </style>
  </defs>
  <g>
    <polyline class="cls-2" points="21.28 577.04 21.28 264.96 182.2 264.96 182.2 322.97 407.55 322.97 407.55 477.2 573.78 477.2 573.78 575.37 406.44 575.37 406.44 512.34 336.16 512.34 336.16 574.81 21.83 574.81"/>
    <g>
      <line class="cls-4" x1="336.16" y1="385.58" x2="366.14" y2="385.58"/>
      <line class="cls-4" x1="336.16" y1="391.58" x2="366.14" y2="391.58"/>
      <line class="cls-4" x1="336.16" y1="397.29" x2="366.42" y2="397.29"/>
      <line class="cls-4" x1="336.02" y1="403.43" x2="366.56" y2="403.43"/>
      <line class="cls-4" x1="336.3" y1="409.84" x2="366.42" y2="409.84"/>
      <line class="cls-4" x1="336.16" y1="415.84" x2="366.14" y2="415.84"/>
      <line class="cls-4" x1="336.43" y1="421.56" x2="366.28" y2="421.56"/>
      <line class="cls-4" x1="336.3" y1="427.55" x2="366.42" y2="427.55"/>
      <line class="cls-4" x1="336.16" y1="433.41" x2="366.28" y2="433.41"/>
      <line class="cls-4" x1="336.16" y1="439.41" x2="366.28" y2="439.41"/>
      <line class="cls-4" x1="336.43" y1="445.68" x2="366.42" y2="445.68"/>
      <line class="cls-4" x1="336.16" y1="450.98" x2="366.14" y2="450.98"/>
      <line class="cls-4" x1="336.16" y1="457.26" x2="366.42" y2="457.26"/>
      <line class="cls-4" x1="336.3" y1="463.25" x2="366.14" y2="463.25"/>
      <rect class="cls-4" x="366.42" y="378.89" width="3.21" height="90.5"/>
    </g>
    <g>
      <line class="cls-3" x1="407.11" y1="478" x2="407.11" y2="512.38"/>
      <line class="cls-3" x1="408.12" y1="478" x2="572.75" y2="574.47"/>
      <line class="cls-3" x1="366.05" y1="379.51" x2="335.72" y2="379.51"/>
      <polyline class="cls-3" points="335.51 511.37 335.51 358.88 98.88 358.88"/>
      <line class="cls-3" x1="165.42" y1="359.48" x2="165.42" y2="574.27"/>
      <line class="cls-3" x1="164.82" y1="478.61" x2="21.63" y2="478.61"/>
      <line class="cls-3" x1="98.48" y1="478" x2="98.48" y2="323.08"/>
      <line class="cls-3" x1="97.87" y1="387.8" x2="21.22" y2="387.8"/>
      <line class="cls-3" x1="97.67" y1="430.88" x2="22.84" y2="430.88"/>
      <line class="cls-3" x1="22.43" y1="322.88" x2="155.31" y2="322.88"/>
      <line class="cls-3" x1="134.48" y1="323.48" x2="134.48" y2="358.67"/>
      <line class="cls-3" x1="175.74" y1="323.28" x2="185.04" y2="323.28"/>
    </g>
  </g>
  <g>
    <path class="cls-6" d="M96.28,274.51c-.64.12-1.15.39-1.59.86-1.07,1.13-1.02,2.92.12,3.98.71.67,1.72.92,2.69.67.3-.08.76-.32,1.02-.53.88-.71,1.26-1.89.94-2.98-.26-.89-.93-1.59-1.79-1.89-.44-.15-.96-.19-1.39-.12Z"/>
    <path class="cls-6" d="M92.67,280.72c-.46.03-.87.15-1.3.36-1.14.57-1.88,1.68-2,2.98-.02.23-.03,1.71-.02,4.81v4.48s.07.18.07.18c.11.32.33.58.62.71.11.05.18.06.43.06.27,0,.31,0,.46-.08.31-.15.53-.45.61-.81.03-.11.04-1.09.04-4.47v-4.33h1.34v11.52c0,10.03,0,11.55.04,11.72.15.73.8,1.26,1.55,1.26.21,0,.54-.08.75-.2.24-.13.53-.42.65-.67.19-.39.18.14.18-7.3v-6.72h1.33v6.73c0,7.42-.01,6.91.18,7.28.18.36.49.63.9.79.16.06.22.07.51.07s.35-.01.51-.07c.41-.16.72-.43.9-.78.19-.39.18.64.18-12.1v-11.52h1.33v4.3c0,2.97,0,4.35.03,4.46.07.38.29.68.61.84.19.1.22.1.45.1.18,0,.28-.02.39-.06.38-.15.64-.5.71-.97.04-.26.04-8.74,0-9.16-.15-1.65-1.29-2.98-2.86-3.34-.17-.04-.38-.06-.7-.06-.83-.02-7.6-.03-7.86,0Z"/>
  </g>
  <g>
    <rect class="cls-5" x="79.28" y="441.27" width="194.67" height="47.09"/>
    <text class="cls-1" transform="translate(92.57 474.21)"><tspan x="0" y="0">STAFF ONLY</tspan></text>
  </g>
  <g>
    <path d="M349.1,358.05c-.15.02-.83.05-1.51.08-.9.04-1.29.07-1.42.12-.23.08-.57.43-.75.76-.07.14-.24.36-.38.5l-.25.25h-.47c-.54,0-.68.05-.78.25-.14.27,0,.64.27.73.08.03.34.05.58.05h.43s.17.18.17.18c.24.25.44.34.79.34.32,0,.52-.07.73-.28.12-.12.13-.12.36-.07.65.13,1.8.59,2.91,1.16.35.18.64.33.65.33,0,0,0-.19-.01-.43-.01-.32-.03-.44-.09-.5-.09-.11-.96-.67-1.75-1.14l-.65-.38h-.54q-.54,0-.59-.1c-.03-.07-.03-.12,0-.15.09-.09,2.37-.9,3.04-1.08l.17-.05-.11-.2c-.15-.27-.31-.42-.41-.42-.05,0-.21.02-.36.03ZM345.89,359.88c.26.09.34.43.16.65-.08.1-.13.12-.29.12s-.21-.02-.29-.12c-.18-.21-.1-.55.15-.65.14-.05.13-.05.28,0Z"/>
    <path d="M342.69,359.84c-1.64.24-2.54,1.56-2.34,3.44.05.57.17,1.14.5,2.45.34,1.36.42,1.82.44,2.57.02.49,0,.74-.05,1.03-.04.22-.06.39-.06.4,0,0,.12.04.24.08s.3.11.39.15c.09.05.17.07.17.07.05-.05.15-.59.19-1,.09-.88-.02-1.76-.48-3.57-.37-1.48-.44-1.87-.47-2.45-.04-.83.1-1.32.47-1.72.11-.12.27-.25.37-.31.22-.13.69-.27.9-.27.15,0,.16,0,.13-.1-.04-.12-.04-.6,0-.73.04-.1.02-.11-.41-.05Z"/>
    <path d="M344.78,361.9v.49l-.36.17c-.67.34-1.24,1.04-1.41,1.75-.04.18-.06.49-.06.94v.68h5.6v-.68c0-.75-.05-1-.25-1.42-.24-.5-.67-.91-1.23-1.19l-.34-.17v-.44c0-.24-.01-.48-.02-.54-.02-.09-.03-.09-.1-.03-.12.11-.45.23-.7.26-.32.03-.66-.04-.9-.19-.11-.07-.2-.12-.21-.12-.01,0-.02.22-.02.49Z"/>
    <path d="M342.95,368.7v2.34h5.6v-4.69h-5.6v2.34ZM347.52,368.72v1.12h-3.53v-2.24h3.53v1.12Z"/>
    <path d="M340.56,370.18c-.05.02-.39.58-.88,1.46l-.8,1.41.12.12c.15.15.9.52,1.42.7.22.07.52.14.67.15.27.02.28.01.32-.08.02-.05.22-.75.42-1.54.26-1,.37-1.47.35-1.55-.1-.4-1.22-.86-1.62-.67ZM340.05,372.84c.43.09.85.32,1,.56.1.15.1.22,0,.22-.25,0-1.68-.59-1.65-.68.01-.04.25-.14.34-.15.02,0,.17.02.32.05Z"/>
    <path d="M342.95,373.54c0,2.37,0,2.32.32,2.68.11.12.29.26.42.32l.24.12h3.65l.24-.12c.14-.07.32-.2.42-.32.32-.36.32-.32.32-2.68v-2.09h-5.6v2.09Z"/>
  </g>
</svg>