<?xml version="1.0" encoding="UTF-8"?>
<svg id="_トレース" data-name="トレース" xmlns="http://www.w3.org/2000/svg" viewBox="0 0 595 842">
  <defs>
    <style>
      .cls-1, .cls-2 {
        stroke: #34b9f0;
      }

      .cls-1, .cls-2, .cls-3, .cls-4, .cls-5, .cls-6, .cls-7 {
        stroke-miterlimit: 10;
      }

      .cls-1, .cls-5, .cls-6, .cls-7 {
        fill: none;
      }

      .cls-2 {
        fill: #fff;
      }

      .cls-3 {
        letter-spacing: .25em;
      }

      .cls-3, .cls-4 {
        fill: #f3858e;
        font-family: BIZ-UDGothic, 'BIZ UDGothic';
        font-size: 18px;
      }

      .cls-3, .cls-4, .cls-5, .cls-6, .cls-7 {
        stroke: #f3858e;
      }

      .cls-4 {
        letter-spacing: .3em;
      }

      .cls-6 {
        stroke-width: 3px;
      }

      .cls-7 {
        stroke-width: 2px;
      }
    </style>
  </defs>
  <g>
    <g>
      <line class="cls-5" x1="139.71" y1="411.76" x2="139.71" y2="444.06"/>
      <line class="cls-5" x1="146.63" y1="410.4" x2="146.63" y2="444.21"/>
      <line class="cls-5" x1="153.09" y1="411.01" x2="153.09" y2="444.51"/>
      <line class="cls-5" x1="160" y1="410.86" x2="160" y2="444.66"/>
      <line class="cls-5" x1="161.95" y1="446.77" x2="198.17" y2="446.77"/>
      <line class="cls-5" x1="162.25" y1="452.33" x2="197.87" y2="452.33"/>
      <line class="cls-5" x1="162.1" y1="457.89" x2="198.02" y2="457.89"/>
      <line class="cls-5" x1="157.14" y1="458.94" x2="157.14" y2="487.49"/>
      <line class="cls-5" x1="150.08" y1="458.94" x2="150.08" y2="487.34"/>
      <line class="cls-5" x1="143.32" y1="458.79" x2="143.32" y2="486.74"/>
      <line class="cls-5" x1="136.41" y1="458.94" x2="136.41" y2="486.59"/>
      <line class="cls-5" x1="134.61" y1="455.78" x2="103.95" y2="455.78"/>
      <line class="cls-5" x1="103.65" y1="450.37" x2="135.66" y2="450.37"/>
      <line class="cls-5" x1="103.95" y1="444.96" x2="135.36" y2="444.96"/>
    </g>
    <g>
      <polyline class="cls-6" points="197.29 549.02 197.29 410.01 32.66 410.01 32.66 261.97 562.28 261.29 562.28 580.71 313.24 580.71 313.24 546.73 197.29 546.73"/>
      <line class="cls-6" x1="102.9" y1="410.69" x2="102.9" y2="488.48"/>
      <line class="cls-6" x1="103.58" y1="487.67" x2="196.75" y2="487.67"/>
    </g>
    <g>
      <line class="cls-7" x1="134.99" y1="443.85" x2="134.99" y2="459.63"/>
      <line class="cls-7" x1="133.68" y1="457.91" x2="162.7" y2="457.91"/>
      <line class="cls-7" x1="161.39" y1="459.33" x2="161.39" y2="444.16"/>
      <line class="cls-7" x1="134.19" y1="444.56" x2="162.3" y2="444.56"/>
      <line class="cls-7" x1="102.74" y1="408.97" x2="102.74" y2="262.84"/>
      <polyline class="cls-7" points="139.75 408.87 139.75 339.6 197.59 339.6"/>
      <polyline class="cls-7" points="197.99 408.87 197.99 302.48 214.88 302.48"/>
      <line class="cls-7" x1="240.26" y1="302.58" x2="389.72" y2="302.58"/>
      <line class="cls-7" x1="416.02" y1="301.98" x2="562.04" y2="301.98"/>
      <line class="cls-7" x1="427.34" y1="262.54" x2="427.34" y2="301.37"/>
      <line class="cls-7" x1="376.58" y1="302.69" x2="376.58" y2="546.8"/>
      <line class="cls-7" x1="313.78" y1="546.49" x2="562.34" y2="546.49"/>
    </g>
  </g>
  <g>
    <path d="M159.09,374.32c-1.2,0-2.17.97-2.17,2.17s.97,2.17,2.17,2.17,2.17-.97,2.17-2.17-.97-2.17-2.17-2.17Z"/>
    <path d="M168.36,374.32c-1.2,0-2.17.97-2.17,2.17s.97,2.17,2.17,2.17,2.17-.97,2.17-2.17c0-1.2-.97-2.17-2.17-2.17Z"/>
    <path d="M177.62,374.32c-1.2,0-2.17.97-2.17,2.17s.97,2.17,2.17,2.17,2.17-.97,2.17-2.17-.97-2.17-2.17-2.17Z"/>
    <path d="M182.56,363.98h-28.42c-2.18,0-3.96,1.78-3.96,3.96v30.42c0,2.18,1.78,3.96,3.96,3.96h28.42c2.18,0,3.96-1.78,3.96-3.96v-30.42c0-2.18-1.78-3.96-3.96-3.96ZM158.71,399.83l.39-8.7.39,8.7h-.77ZM167.97,399.83l.39-8.7.39,8.7h-.77ZM177.23,399.83l.39-8.7.39,8.7h-.77ZM184.03,398.37c0,.81-.66,1.46-1.46,1.46h-2.56l.07-10.15c.16.23.42.39.73.38.47-.02.83-.42.8-.88l.36-7.22c0-2.84-2.88-2.98-4.34-2.98s-4.34.14-4.34,2.98l.24,7.22c-.02.47.34.86.8.88.41.02.75-.26.84-.64l.07,10.42h-4.5l.07-10.15c.16.23.42.39.73.38.47-.02.83-.42.8-.88l.36-7.22c0-2.84-2.88-2.98-4.34-2.98s-4.34.14-4.34,2.98l.24,7.22c-.02.47.34.86.8.88.41.02.75-.26.84-.64l.07,10.42h-4.5l.07-10.15c.16.23.42.39.73.38.47-.02.82-.42.8-.88l.36-7.22c0-2.84-2.88-2.98-4.34-2.98s-4.34.14-4.34,2.98l.24,7.22c-.02.47.34.86.8.88.41.02.75-.26.84-.64l.07,10.42h-2.56c-.81,0-1.46-.66-1.46-1.46v-30.42c0-.81.66-1.46,1.46-1.46h28.42c.81,0,1.46.66,1.46,1.46v30.42h0Z"/>
    <path d="M171.19,357.48l2.97-2.97v6.68c0,.61.49,1.1,1.1,1.1s1.1-.49,1.1-1.1v-6.68l2.97,2.97c.22.22.5.32.78.32s.57-.11.78-.32c.43-.43.43-1.13,0-1.56l-4.85-4.85-.78-.78-.78.78-4.85,4.85c-.43.43-.43,1.13,0,1.56.43.43,1.13.43,1.56,0Z"/>
    <path d="M160.67,361.96h0s.78.78.78.78l.78-.78s0,0,0,0l4.85-4.85c.43-.43.43-1.13,0-1.56-.43-.43-1.13-.43-1.56,0l-2.97,2.97v-6.68c0-.61-.49-1.1-1.1-1.1s-1.1.49-1.1,1.1v6.68l-2.97-2.97c-.43-.43-1.13-.43-1.56,0-.43.43-.43,1.13,0,1.56l4.85,4.85Z"/>
  </g>
  <g>
    <path d="M126.45,376.68c-.24.03-1.34.09-2.45.13-1.46.06-2.09.11-2.3.19-.38.13-.92.69-1.21,1.22-.11.22-.4.58-.62.81l-.41.4h-.76c-.86,0-1.1.07-1.27.4-.23.44-.01,1.03.44,1.19.13.05.55.08.93.08h.7s.27.29.27.29c.4.41.72.55,1.28.55.52,0,.84-.12,1.19-.45.2-.19.21-.19.58-.11,1.05.21,2.9.95,4.69,1.88.57.29,1.04.53,1.05.53,0,0,0-.31-.02-.69-.02-.51-.05-.72-.14-.81-.15-.17-1.56-1.09-2.83-1.84l-1.05-.62h-.88q-.88,0-.96-.17c-.05-.11-.05-.19-.01-.23.14-.14,3.83-1.45,4.91-1.74l.27-.07-.17-.32c-.25-.44-.5-.68-.66-.67-.08,0-.34.03-.58.05ZM121.28,379.64c.42.15.56.7.25,1.05-.13.15-.21.19-.48.19s-.34-.03-.48-.19c-.29-.34-.17-.88.24-1.05.22-.09.21-.09.46,0Z"/>
    <path d="M116.1,379.57c-2.64.39-4.1,2.51-3.79,5.56.09.92.28,1.84.8,3.95.55,2.2.68,2.94.72,4.16.03.79,0,1.19-.07,1.67-.06.35-.1.64-.09.64.01,0,.19.07.39.13s.48.17.62.25c.15.07.27.12.28.11.07-.07.24-.95.31-1.62.15-1.43-.04-2.84-.77-5.77-.6-2.39-.72-3.02-.76-3.96-.06-1.34.15-2.12.76-2.78.18-.19.44-.41.6-.5.36-.21,1.12-.44,1.45-.44.25,0,.26-.01.21-.15-.07-.19-.06-.97,0-1.17.06-.17.03-.17-.66-.07Z"/>
    <path d="M119.48,382.9v.8l-.58.28c-1.09.54-2,1.68-2.27,2.83-.07.29-.1.78-.1,1.51v1.09h9.05v-1.09c0-1.21-.07-1.62-.4-2.29-.4-.8-1.08-1.47-1.99-1.92l-.56-.27v-.71c0-.39-.02-.78-.04-.86-.04-.14-.05-.14-.15-.05-.2.18-.72.38-1.13.42-.51.05-1.07-.07-1.45-.31-.17-.11-.33-.2-.34-.2-.02,0-.03.36-.03.79Z"/>
    <path d="M116.53,393.88v3.79h9.05v-7.57h-9.05v3.79ZM123.9,393.91v1.81h-5.7v-3.62h5.7v1.81Z"/>
    <path d="M112.67,396.27c-.09.04-.64.94-1.43,2.35l-1.29,2.28.19.2c.23.24,1.46.84,2.3,1.13.35.11.84.23,1.09.25.43.03.46.02.52-.13.04-.09.35-1.21.68-2.49.42-1.61.6-2.38.56-2.51-.16-.65-1.97-1.39-2.62-1.08ZM111.85,400.57c.7.15,1.37.52,1.62.9.15.23.15.35,0,.35-.41,0-2.71-.95-2.67-1.1.02-.07.4-.23.55-.23.04,0,.27.04.51.09Z"/>
    <path d="M116.53,401.71c0,3.82,0,3.75.51,4.33.17.19.46.42.68.52l.38.19h5.9l.38-.19c.22-.11.51-.33.68-.52.52-.58.51-.51.51-4.33v-3.37h-9.05v3.37Z"/>
  </g>
  <g>
    <path d="M554.81,539.29c-.24.03-1.34.09-2.45.13-1.46.06-2.09.11-2.3.19-.38.13-.92.69-1.21,1.22-.11.22-.4.58-.62.81l-.41.4h-.76c-.86,0-1.1.07-1.27.4-.23.44-.01,1.03.44,1.19.13.05.55.08.93.08h.7s.27.29.27.29c.4.41.72.55,1.28.55.52,0,.84-.12,1.19-.45.2-.19.21-.19.58-.11,1.05.21,2.9.95,4.69,1.88.57.29,1.04.53,1.05.53,0,0,0-.31-.02-.69-.02-.51-.05-.72-.14-.81-.15-.17-1.56-1.09-2.83-1.84l-1.05-.62h-.88q-.88,0-.96-.17c-.05-.11-.05-.19-.01-.23.14-.14,3.83-1.45,4.91-1.74l.27-.07-.17-.32c-.25-.44-.5-.68-.66-.67-.08,0-.34.03-.58.05ZM549.64,542.25c.42.15.56.7.25,1.05-.13.15-.21.19-.48.19s-.34-.03-.48-.19c-.29-.34-.17-.88.24-1.05.22-.09.21-.09.46,0Z"/>
    <path d="M544.46,542.18c-2.64.39-4.1,2.51-3.79,5.56.09.92.28,1.84.8,3.95.55,2.2.68,2.94.72,4.16.03.79,0,1.19-.07,1.67-.06.35-.1.64-.09.64.01,0,.19.07.39.13s.48.17.62.25c.15.07.27.12.28.11.07-.07.24-.95.31-1.62.15-1.43-.04-2.84-.77-5.77-.6-2.39-.72-3.02-.76-3.96-.06-1.34.15-2.12.76-2.78.18-.19.44-.41.6-.5.36-.21,1.12-.44,1.45-.44.25,0,.26-.01.21-.15-.07-.19-.06-.97,0-1.17.06-.17.03-.17-.66-.07Z"/>
    <path d="M547.84,545.51v.8l-.58.28c-1.09.54-2,1.68-2.27,2.83-.07.29-.1.78-.1,1.51v1.09h9.05v-1.09c0-1.21-.07-1.62-.4-2.29-.4-.8-1.08-1.47-1.99-1.92l-.56-.27v-.71c0-.39-.02-.78-.04-.86-.04-.14-.05-.14-.15-.05-.2.18-.72.38-1.13.42-.51.05-1.07-.07-1.45-.31-.17-.11-.33-.2-.34-.2-.02,0-.03.36-.03.79Z"/>
    <path d="M544.89,556.48v3.79h9.05v-7.57h-9.05v3.79ZM552.26,556.52v1.81h-5.7v-3.62h5.7v1.81Z"/>
    <path d="M541.03,558.88c-.09.04-.64.94-1.43,2.35l-1.29,2.28.19.2c.23.24,1.46.84,2.3,1.13.35.11.84.23,1.09.25.43.03.46.02.52-.13.04-.09.35-1.21.68-2.49.42-1.61.6-2.38.56-2.51-.16-.65-1.97-1.39-2.62-1.08ZM540.21,563.18c.7.15,1.37.52,1.62.9.15.23.15.35,0,.35-.41,0-2.71-.95-2.67-1.1.02-.07.4-.23.55-.23.04,0,.27.04.51.09Z"/>
    <path d="M544.89,564.31c0,3.82,0,3.75.51,4.33.17.19.46.42.68.52l.38.19h5.9l.38-.19c.22-.11.51-.33.68-.52.52-.58.51-.51.51-4.33v-3.37h-9.05v3.37Z"/>
  </g>
  <g>
    <path d="M67.11,470.89v15.65h31.55v-31.29h-31.55v15.65ZM92.42,466.92v9.6l.48.08c.56.09,1.29.42,1.58.72.49.49,1.38,2.1,1.4,2.54.01.2,0,.22-.25.27-.14.03-.92.05-1.73.05h-1.48v4.12l.71.73c.73.75.96,1.05.9,1.12-.08.07-3.88.14-8.02.14h-4.18s-1.11-1.06-1.11-1.06l-1.11-1.07h-2.86l1.01.97c.91.88.99.98.88,1.05-.08.05-.72.09-1.78.11l-1.65.03-.93-.93-.93-.93v-13.21h4.06s.84-.99.84-.99c1.17-1.36,1.46-1.67,1.56-1.67.07,0,.84,1.56,1.54,3.14l.26.58-2.27,4.58c-2.75,5.54-3.06,6.23-2.93,6.32.12.08.98.07,1.6-.01.55-.08,1.08-.29,1.3-.53.21-.22,1-1.7,2.73-5.08,1.76-3.45,2.17-4.19,2.26-4.17.1.03.15.47.22,2.12.08,1.63.2,2.72.36,3.29.18.6-.12.57,5.06.57,4.62,0,4.89-.01,4.99-.26.05-.13-.33-.84-.63-1.18-.14-.16-.34-.33-.45-.38-.38-.19-1.19-.28-3.36-.35-1.19-.04-2.44-.08-2.76-.1l-.59-.04-.18-2.7-.19-2.71-.24-.55c-.14-.31-.58-1.26-1-2.13-.42-.86-.75-1.62-.75-1.67,0-.14.31-.17,1.45-.15l1.03.02.62,1.08c1.03,1.79,1.53,2.39,2,2.39.22,0,.68-.31.8-.53.2-.39-.05-1.13-.92-2.63-.94-1.63-1.29-2.01-2.04-2.25-.44-.14-.53-.14-3.73-.14-2.56,0-3.36.02-3.64.09-.32.08-.42.15-1.04.78-.38.38-1.15,1.26-1.72,1.94l-1.04,1.24h-1.6s-1.61,0-1.61,0v-11.82h19.09v9.6Z"/>
    <path d="M79.57,460.36c-.72.21-1.3,1.05-1.32,1.9-.01.64.61,1.66,1.21,1.99.16.08.36.12.79.12.51,0,.64-.03.95-.18.8-.39,1.16-1.01,1.18-1.99,0-.49-.01-.58-.17-.84-.21-.36-.76-.88-1.06-1.01-.29-.12-1.14-.11-1.59.03Z"/>
  </g>
  <g>
    <text class="cls-4" transform="translate(267.19 503.3)"><tspan x="0" y="0">222</tspan></text>
    <rect class="cls-1" x="256.83" y="480.46" width="58.52" height="32" rx="16" ry="16"/>
  </g>
  <g>
    <rect class="cls-2" x="384.22" y="469.05" width="170.21" height="57.25" rx="15" ry="15"/>
    <text class="cls-3" transform="translate(451.33 493.71)"><tspan x="0" y="0">221</tspan><tspan x="-58.5" y="21.6">グルーミング室</tspan></text>
  </g>
</svg>