<?xml version="1.0" encoding="UTF-8"?>
<svg id="_レイヤー_1" data-name="レイヤー 1" xmlns="http://www.w3.org/2000/svg" viewBox="0 0 497.39 415.7">
  <defs>
    <style>
      .cls-1, .cls-2, .cls-3, .cls-4, .cls-5, .cls-6, .cls-7 {
        stroke-miterlimit: 10;
      }

      .cls-1, .cls-2, .cls-4, .cls-6 {
        fill: none;
      }

      .cls-1, .cls-7 {
        stroke: #e2b953;
      }

      .cls-2 {
        stroke-width: 3px;
      }

      .cls-2, .cls-3, .cls-4, .cls-5, .cls-6 {
        stroke: #965045;
      }

      .cls-3 {
        font-size: 16.65px;
        letter-spacing: .2em;
      }

      .cls-3, .cls-5 {
        fill: #965045;
        font-family: BIZ-UDGothic, 'BIZ UDGothic';
      }

      .cls-4 {
        stroke-width: 2px;
      }

      .cls-5 {
        font-size: 17.28px;
        letter-spacing: .3em;
      }

      .cls-7 {
        fill: #fff;
      }
    </style>
  </defs>
  <g>
    <g>
      <polyline class="cls-2" points="294.98 277.68 283.04 277.68 283.04 311.77 277.51 311.77 277.51 333.92 347.07 333.92 347.07 277.68 327.52 277.68"/>
      <polyline class="cls-2" points="347.42 311.25 495.89 311.25 495.89 224.21 347.42 224.21 347.42 86.12 145.13 86.12 145.13 1.5 47.53 1.5 1.5 34.21 1.5 313.5 284.6 311.94"/>
    </g>
    <g>
      <line class="cls-4" x1="347.07" y1="225.07" x2="347.07" y2="276.64"/>
      <polyline class="cls-4" points="282.7 276.81 282.7 117.44 130.59 117.44"/>
      <line class="cls-4" x1="136.48" y1="35.07" x2="145.13" y2="35.07"/>
      <line class="cls-4" x1="115.54" y1="35.07" x2="2.02" y2="35.07"/>
      <line class="cls-4" x1="77.29" y1="35.76" x2="77.29" y2="118.48"/>
      <line class="cls-4" x1="99.62" y1="118.13" x2="2.02" y2="118.13"/>
      <line class="cls-4" x1="162.43" y1="117.96" x2="162.43" y2="311.94"/>
      <line class="cls-4" x1="163.12" y1="118.48" x2="282.18" y2="310.9"/>
      <line class="cls-4" x1="282.93" y1="136.94" x2="310.15" y2="136.94"/>
      <line class="cls-4" x1="144.15" y1="86.52" x2="139.76" y2="86.52"/>
    </g>
    <g>
      <line class="cls-6" x1="283.16" y1="142.36" x2="310.15" y2="142.36"/>
      <line class="cls-6" x1="283.16" y1="147.55" x2="310.39" y2="147.55"/>
      <line class="cls-6" x1="283.27" y1="153.2" x2="310.27" y2="153.2"/>
      <line class="cls-6" x1="283.27" y1="158.51" x2="310.39" y2="158.51"/>
      <line class="cls-6" x1="283.27" y1="163.82" x2="310.27" y2="163.82"/>
      <line class="cls-6" x1="283.27" y1="169.47" x2="310.27" y2="169.47"/>
      <line class="cls-6" x1="283.39" y1="174.78" x2="310.27" y2="174.78"/>
      <line class="cls-6" x1="283.27" y1="179.85" x2="310.27" y2="179.85"/>
      <line class="cls-6" x1="283.27" y1="185.04" x2="310.15" y2="185.04"/>
      <line class="cls-6" x1="283.39" y1="190.81" x2="310.15" y2="190.81"/>
      <line class="cls-6" x1="283.27" y1="196.23" x2="310.27" y2="196.23"/>
      <line class="cls-6" x1="283.16" y1="201.19" x2="310.15" y2="201.19"/>
      <line class="cls-6" x1="283.39" y1="206.62" x2="310.5" y2="206.62"/>
      <line class="cls-6" x1="283.16" y1="211.92" x2="310.39" y2="211.92"/>
      <rect class="cls-6" x="310.27" y="136.48" width="3.23" height="81.1"/>
    </g>
    <g>
      <polygon class="cls-2" points="313.11 354.79 299.27 368.86 327.88 368.86 313.11 354.79"/>
      <line class="cls-2" x1="313.11" y1="415.7" x2="313.11" y2="355.25"/>
    </g>
  </g>
  <g>
    <rect class="cls-7" x="355.1" y="251.6" width="131.16" height="31.72" rx="1" ry="1"/>
    <text class="cls-3" transform="translate(364.06 273.78)"><tspan x="0" y="0">STAFF ONLY</tspan></text>
  </g>
  <g>
    <text class="cls-5" transform="translate(62.02 283.72)"><tspan x="0" y="0">311</tspan></text>
    <rect class="cls-1" x="52.07" y="261.79" width="56.18" height="30.72" rx="15.36" ry="15.36"/>
  </g>
  <g>
    <path d="M298.09,112.57c-.43.06-.79.14-1.08.23-1.44.47-2.61,1.63-3.09,3.04-.14.43-.19.74-.21,1.28-.03.86.1,1.48.48,2.24.37.76.39.77,3.8,4.08,1.72,1.67,3.14,3.02,3.2,3.05.14.06.29.06.42,0,.15-.06,1.7-1.59,1.76-1.73.06-.15.06-.29-.02-.45-.08-.15-.17-.23-.34-.27-.26-.07-.35-.01-1,.61-.33.31-.6.57-.61.57-.01,0-1.31-1.25-2.88-2.77-1.93-1.88-2.92-2.85-3.05-3.03-.25-.33-.47-.79-.58-1.19-.11-.4-.15-1.07-.08-1.47.13-.83.6-1.67,1.2-2.19,1.41-1.2,3.38-1.27,4.88-.18.43.31.58.32,1.01,0,1.17-.84,2.6-1.01,3.9-.45,1.17.5,2,1.57,2.2,2.81.06.39.03,1.07-.08,1.47-.11.41-.34.87-.59,1.2-.11.15-.61.67-1.13,1.17-.68.67-.94.93-.97,1.02-.08.26.04.54.29.65.17.08.27.08.43,0,.19-.09,1.91-1.77,2.21-2.16.29-.39.64-1.07.76-1.5.15-.52.2-.91.17-1.5-.04-1.23-.49-2.26-1.37-3.13-.72-.72-1.6-1.18-2.61-1.37-.45-.09-1.35-.09-1.78,0-.61.12-1.22.36-1.69.65l-.25.15-.24-.15c-.46-.29-1.09-.53-1.68-.64-.27-.05-1.18-.09-1.4-.06Z"/>
    <path d="M301.19,115.83c-.05.02-.13.08-.17.12-.04.04-.41.84-.82,1.76-.81,1.82-.82,1.86-.68,2.1.04.06.12.14.18.19.11.06.19.07,1.21.08l1.1.02-.57,1.28c-.36.8-.57,1.32-.57,1.39,0,.46.56.72.89.4.09-.09.27-.45.86-1.79.82-1.84.83-1.87.67-2.11-.14-.24-.16-.24-1.39-.26l-1.1-.02.57-1.28c.52-1.18.57-1.29.56-1.44-.02-.27-.22-.46-.48-.48-.09,0-.21,0-.26.04Z"/>
  </g>
  <g>
    <path d="M291.14,106.84c-.16.02-.91.06-1.66.09-.99.04-1.42.08-1.56.13-.25.09-.63.47-.82.83-.08.15-.27.4-.42.55l-.28.27h-.52c-.59,0-.75.05-.86.27-.15.3,0,.7.3.81.09.03.37.05.63.05h.47s.19.2.19.2c.27.28.49.37.87.37.36,0,.57-.08.81-.3.14-.13.15-.13.4-.08.71.14,1.97.65,3.19,1.27.39.2.71.36.71.36,0,0,0-.21-.01-.47-.01-.35-.04-.49-.1-.55-.1-.12-1.06-.74-1.92-1.25l-.71-.42h-.6q-.6,0-.65-.11c-.03-.07-.04-.13,0-.16.1-.1,2.6-.98,3.34-1.18l.19-.05-.12-.21c-.17-.3-.34-.46-.45-.46-.05,0-.23.02-.39.04ZM287.63,108.85c.29.1.38.47.17.71-.09.1-.15.13-.32.13s-.23-.02-.32-.13c-.2-.23-.11-.6.16-.71.15-.06.15-.06.31,0Z"/>
    <path d="M284.11,108.8c-1.79.26-2.78,1.71-2.57,3.77.06.62.19,1.25.55,2.69.37,1.49.46,1.99.49,2.82.02.54,0,.81-.05,1.13-.04.24-.07.43-.06.44,0,0,.13.05.26.09s.33.12.42.17c.1.05.18.08.19.07.05-.05.16-.64.21-1.1.1-.97-.03-1.93-.52-3.92-.41-1.63-.49-2.05-.51-2.69-.04-.91.1-1.44.51-1.89.12-.13.3-.28.41-.34.24-.14.76-.3.99-.3.17,0,.18,0,.14-.1-.05-.13-.04-.66,0-.8.04-.11.02-.12-.45-.05Z"/>
    <path d="M286.41,111.06v.54l-.39.19c-.74.37-1.36,1.14-1.54,1.92-.05.2-.07.53-.07,1.03v.74h6.15v-.74c0-.82-.05-1.1-.27-1.56-.27-.55-.73-1-1.35-1.31l-.38-.19v-.48c0-.26-.01-.53-.03-.59-.03-.1-.04-.1-.1-.04-.14.12-.49.25-.76.28-.35.04-.72-.05-.99-.21-.12-.08-.22-.14-.23-.14-.01,0-.02.24-.02.54Z"/>
    <path d="M284.4,118.52v2.57h6.15v-5.14h-6.15v2.57ZM289.41,118.54v1.23h-3.87v-2.46h3.87v1.23Z"/>
    <path d="M281.78,120.14c-.06.03-.43.64-.97,1.6l-.87,1.55.13.14c.16.16.99.57,1.56.76.24.08.57.15.74.17.29.02.31.01.35-.09.03-.06.24-.82.46-1.69.29-1.09.41-1.62.38-1.7-.11-.44-1.34-.95-1.78-.73ZM281.22,123.06c.47.1.93.36,1.1.61.1.16.1.24,0,.24-.28,0-1.84-.65-1.81-.75.01-.05.27-.15.37-.16.03,0,.18.03.35.06Z"/>
    <path d="M284.4,123.83c0,2.59,0,2.55.35,2.94.12.13.31.28.46.36l.26.13h4.01l.26-.13c.15-.07.35-.22.46-.36.35-.39.35-.35.35-2.94v-2.29h-6.15v2.29Z"/>
  </g>
</svg>