<?xml version="1.0" encoding="UTF-8"?>
<svg id="_レイヤー_1" data-name="レイヤー 1" xmlns="http://www.w3.org/2000/svg" viewBox="0 0 587.83 355.72">
  <defs>
    <style>
      .cls-1, .cls-2 {
        stroke: #34b9f0;
      }

      .cls-1, .cls-2, .cls-3, .cls-4, .cls-5, .cls-6, .cls-7 {
        stroke-miterlimit: 10;
      }

      .cls-1, .cls-3, .cls-4, .cls-5, .cls-6, .cls-7 {
        fill: none;
      }

      .cls-2 {
        fill: #fff;
      }

      .cls-8, .cls-9, .cls-3, .cls-5, .cls-10 {
        isolation: isolate;
      }

      .cls-8, .cls-3 {
        letter-spacing: .3em;
      }

      .cls-8, .cls-3, .cls-5, .cls-10 {
        font-family: BIZ-UDGothic, 'BIZ UDGothic';
        font-size: 19.88px;
      }

      .cls-8, .cls-10 {
        fill: #f3858e;
      }

      .cls-3, .cls-4, .cls-5, .cls-6, .cls-7 {
        stroke: #f3858e;
      }

      .cls-5, .cls-10 {
        letter-spacing: .25em;
      }

      .cls-6 {
        stroke-width: 3px;
      }

      .cls-7 {
        stroke-width: 2px;
      }
    </style>
  </defs>
  <g>
    <g>
      <line class="cls-4" x1="119.71" y1="167.66" x2="119.71" y2="203.33"/>
      <line class="cls-4" x1="127.35" y1="166.16" x2="127.35" y2="203.49"/>
      <line class="cls-4" x1="134.48" y1="166.83" x2="134.48" y2="203.82"/>
      <line class="cls-4" x1="142.12" y1="166.66" x2="142.12" y2="203.99"/>
      <line class="cls-4" x1="144.27" y1="206.32" x2="184.26" y2="206.32"/>
      <line class="cls-4" x1="144.6" y1="212.46" x2="183.93" y2="212.46"/>
      <line class="cls-4" x1="144.43" y1="218.6" x2="184.1" y2="218.6"/>
      <line class="cls-4" x1="138.96" y1="219.76" x2="138.96" y2="251.28"/>
      <line class="cls-4" x1="131.16" y1="219.76" x2="131.16" y2="251.12"/>
      <line class="cls-4" x1="123.7" y1="219.59" x2="123.7" y2="250.45"/>
      <line class="cls-4" x1="116.07" y1="219.76" x2="116.07" y2="250.29"/>
      <line class="cls-4" x1="114.08" y1="216.27" x2="80.22" y2="216.27"/>
      <line class="cls-4" x1="79.89" y1="210.29" x2="115.24" y2="210.29"/>
      <line class="cls-4" x1="80.22" y1="204.32" x2="114.91" y2="204.32"/>
    </g>
    <g>
      <polyline class="cls-6" points="183.29 319.23 183.29 165.73 1.5 165.73 1.5 2.25 586.33 1.5 586.33 354.22 311.33 354.22 311.33 316.7 183.29 316.7"/>
      <line class="cls-6" x1="79.06" y1="166.48" x2="79.06" y2="252.38"/>
      <line class="cls-6" x1="79.81" y1="251.48" x2="182.7" y2="251.48"/>
    </g>
    <g>
      <line class="cls-7" x1="114.5" y1="203.09" x2="114.5" y2="220.52"/>
      <line class="cls-7" x1="113.05" y1="218.62" x2="145.1" y2="218.62"/>
      <line class="cls-7" x1="143.65" y1="220.19" x2="143.65" y2="203.44"/>
      <line class="cls-7" x1="113.61" y1="203.88" x2="144.65" y2="203.88"/>
      <line class="cls-7" x1="78.89" y1="164.58" x2="78.89" y2="3.21"/>
      <polyline class="cls-7" points="119.75 164.47 119.75 87.98 183.62 87.98"/>
      <polyline class="cls-7" points="184.07 164.47 184.07 46.99 202.72 46.99"/>
      <line class="cls-7" x1="230.74" y1="47.1" x2="395.78" y2="47.1"/>
      <line class="cls-7" x1="424.82" y1="46.43" x2="586.07" y2="46.43"/>
      <line class="cls-7" x1="437.32" y1="2.88" x2="437.32" y2="45.76"/>
      <line class="cls-7" x1="381.27" y1="47.22" x2="381.27" y2="316.78"/>
      <line class="cls-7" x1="311.93" y1="316.43" x2="586.4" y2="316.43"/>
    </g>
  </g>
  <g>
    <path d="M141.11,126.32c-1.33,0-2.4,1.07-2.4,2.4s1.07,2.4,2.4,2.4,2.4-1.07,2.4-2.4-1.07-2.4-2.4-2.4Z"/>
    <path d="M151.35,126.32c-1.33,0-2.4,1.07-2.4,2.4s1.07,2.4,2.4,2.4,2.4-1.07,2.4-2.4-1.07-2.4-2.4-2.4Z"/>
    <path d="M161.57,126.32c-1.33,0-2.4,1.07-2.4,2.4s1.07,2.4,2.4,2.4,2.4-1.07,2.4-2.4-1.07-2.4-2.4-2.4Z"/>
    <path d="M167.03,114.9h-31.38c-2.41,0-4.37,1.97-4.37,4.37v33.59c0,2.41,1.97,4.37,4.37,4.37h31.38c2.41,0,4.37-1.97,4.37-4.37v-33.59c0-2.41-1.97-4.37-4.37-4.37ZM140.69,154.48l.43-9.61.43,9.61h-.86ZM150.92,154.48l.43-9.61.43,9.61h-.86ZM161.14,154.48l.43-9.61.43,9.61h-.86ZM168.65,152.87c0,.89-.73,1.61-1.61,1.61h-2.83l.08-11.21c.18.25.46.43.81.42.52-.02.92-.46.88-.97l.4-7.97c0-3.14-3.18-3.29-4.79-3.29s-4.79.15-4.79,3.29l.27,7.97c-.02.52.38.95.88.97.45.02.83-.29.93-.71l.08,11.51h-4.97l.08-11.21c.18.25.46.43.81.42.52-.02.92-.46.88-.97l.4-7.97c0-3.14-3.18-3.29-4.79-3.29s-4.79.15-4.79,3.29l.27,7.97c-.02.52.38.95.88.97.45.02.83-.29.93-.71l.08,11.51h-4.97l.08-11.21c.18.25.46.43.81.42.52-.02.91-.46.88-.97l.4-7.97c0-3.14-3.18-3.29-4.79-3.29s-4.79.15-4.79,3.29l.27,7.97c-.02.52.38.95.88.97.45.02.83-.29.93-.71l.08,11.51h-2.83c-.89,0-1.61-.73-1.61-1.61v-33.59c0-.89.73-1.61,1.61-1.61h31.38c.89,0,1.61.73,1.61,1.61v33.59h0v-.03Z"/>
    <path d="M154.47,107.72l3.28-3.28v7.38c0,.67.54,1.21,1.21,1.21s1.21-.54,1.21-1.21v-7.38l3.28,3.28c.24.24.55.35.86.35s.63-.12.86-.35c.47-.47.47-1.25,0-1.72l-5.36-5.36-.86-.86-.86.86-5.36,5.36c-.47.47-.47,1.25,0,1.72s1.25.47,1.72,0Z"/>
    <path d="M142.85,112.67h0l.86.86.86-.86h0l5.36-5.36c.47-.47.47-1.25,0-1.72s-1.25-.47-1.72,0l-3.28,3.28v-7.38c0-.67-.54-1.21-1.21-1.21s-1.21.54-1.21,1.21v7.38l-3.28-3.28c-.47-.47-1.25-.47-1.72,0s-.47,1.25,0,1.72l5.36,5.36Z"/>
  </g>
  <g>
    <path d="M105.07,128.92c-.27.03-1.48.1-2.71.14-1.61.07-2.31.12-2.54.21-.42.14-1.02.76-1.34,1.35-.12.24-.44.64-.68.89l-.45.44h-.84c-.95,0-1.21.08-1.4.44-.25.49-.01,1.14.49,1.31.14.06.61.09,1.03.09h.77l.3.32c.44.45.8.61,1.41.61.57,0,.93-.13,1.31-.5.22-.21.23-.21.64-.12,1.16.23,3.2,1.05,5.18,2.08.63.32,1.15.59,1.16.59,0,0,0-.34-.02-.76-.02-.56-.06-.8-.15-.89-.17-.19-1.72-1.2-3.13-2.03l-1.16-.68h-.97c-.65,0-1-.06-1.06-.19-.06-.12-.06-.21-.01-.25.15-.15,4.23-1.6,5.42-1.92l.3-.08-.19-.35c-.28-.49-.55-.75-.73-.74-.09,0-.38.03-.64.06h.01ZM99.36,132.19c.46.17.62.77.28,1.16-.14.17-.23.21-.53.21s-.38-.03-.53-.21c-.32-.38-.19-.97.27-1.16.24-.1.23-.1.51,0h.01Z"/>
    <path d="M93.64,132.11c-2.92.43-4.53,2.77-4.19,6.14.1,1.02.31,2.03.88,4.36.61,2.43.75,3.25.8,4.59.03.87,0,1.31-.08,1.84-.07.39-.11.71-.1.71s.21.08.43.14.53.19.68.28c.17.08.3.13.31.12.08-.08.27-1.05.34-1.79.17-1.58-.04-3.14-.85-6.37-.66-2.64-.8-3.33-.84-4.37-.07-1.48.17-2.34.84-3.07.2-.21.49-.45.66-.55.4-.23,1.24-.49,1.6-.49.28,0,.29-.01.23-.17-.08-.21-.07-1.07,0-1.29.07-.19.03-.19-.73-.08h0Z"/>
    <path d="M97.37,135.79v.88l-.64.31c-1.2.6-2.21,1.86-2.51,3.13-.08.32-.11.86-.11,1.67v1.2h9.99v-1.2c0-1.34-.08-1.79-.44-2.53-.44-.88-1.19-1.62-2.2-2.12l-.62-.3v-.78c0-.43-.02-.86-.04-.95-.04-.15-.06-.15-.17-.06-.22.2-.8.42-1.25.46-.56.06-1.18-.08-1.6-.34-.19-.12-.36-.22-.38-.22-.02,0-.03.4-.03.87v-.02Z"/>
    <path d="M94.11,147.91v4.19h9.99v-8.36h-9.99v4.19h0ZM102.25,147.95v2h-6.29v-4h6.29v2Z"/>
    <path d="M89.85,150.55c-.1.04-.71,1.04-1.58,2.59l-1.42,2.52.21.22c.25.27,1.61.93,2.54,1.25.39.12.93.25,1.2.28.47.03.51.02.57-.14.04-.1.39-1.34.75-2.75.46-1.78.66-2.63.62-2.77-.18-.72-2.18-1.53-2.89-1.19h0ZM88.95,155.3c.77.17,1.51.57,1.79.99.17.25.17.39,0,.39-.45,0-2.99-1.05-2.95-1.21.02-.08.44-.25.61-.25.04,0,.3.04.56.1h-.01Z"/>
    <path d="M94.11,156.56c0,4.22,0,4.14.56,4.78.19.21.51.46.75.57l.42.21h6.52l.42-.21c.24-.12.56-.36.75-.57.57-.64.56-.56.56-4.78v-3.72h-9.99v3.72h.01Z"/>
  </g>
  <g>
    <path d="M578.08,308.48c-.27.03-1.48.1-2.71.14-1.61.07-2.31.12-2.54.21-.42.14-1.02.76-1.34,1.35-.12.24-.44.64-.68.89l-.45.44h-.84c-.95,0-1.21.08-1.4.44-.25.49-.01,1.14.49,1.31.14.06.61.09,1.03.09h.77l.3.32c.44.45.8.61,1.41.61.57,0,.93-.13,1.31-.5.22-.21.23-.21.64-.12,1.16.23,3.2,1.05,5.18,2.08.63.32,1.15.59,1.16.59,0,0,0-.34-.02-.76-.02-.56-.06-.8-.15-.89-.17-.19-1.72-1.2-3.13-2.03l-1.16-.68h-.97c-.65,0-1-.06-1.06-.19-.06-.12-.06-.21-.01-.25.15-.15,4.23-1.6,5.42-1.92l.3-.08-.19-.35c-.28-.49-.55-.75-.73-.74-.09,0-.38.03-.64.06h.01ZM572.37,311.75c.46.17.62.77.28,1.16-.14.17-.23.21-.53.21s-.38-.03-.53-.21c-.32-.38-.19-.97.27-1.16.24-.1.23-.1.51,0h.01Z"/>
    <path d="M566.65,311.67c-2.92.43-4.53,2.77-4.19,6.14.1,1.02.31,2.03.88,4.36.61,2.43.75,3.25.8,4.59.03.87,0,1.31-.08,1.84-.07.39-.11.71-.1.71s.21.08.43.14.53.19.68.28c.17.08.3.13.31.12.08-.08.27-1.05.34-1.79.17-1.58-.04-3.14-.85-6.37-.66-2.64-.8-3.33-.84-4.37-.07-1.48.17-2.34.84-3.07.2-.21.49-.45.66-.55.4-.23,1.24-.49,1.6-.49.28,0,.29-.01.23-.17-.08-.21-.07-1.07,0-1.29.07-.19.03-.19-.73-.08h0Z"/>
    <path d="M570.39,315.35v.88l-.64.31c-1.2.6-2.21,1.86-2.51,3.13-.08.32-.11.86-.11,1.67v1.2h9.99v-1.2c0-1.34-.08-1.79-.44-2.53-.44-.88-1.19-1.62-2.2-2.12l-.62-.3v-.78c0-.43-.02-.86-.04-.95-.04-.15-.06-.15-.17-.06-.22.2-.8.42-1.25.46-.56.06-1.18-.08-1.6-.34-.19-.12-.36-.22-.38-.22-.02,0-.03.4-.03.87v-.02Z"/>
    <path d="M567.13,327.47v4.19h9.99v-8.36h-9.99v4.19h0ZM575.27,327.51v2h-6.29v-4h6.29v2Z"/>
    <path d="M562.87,330.12c-.1.04-.71,1.04-1.58,2.59l-1.42,2.52.21.22c.25.27,1.61.93,2.54,1.25.39.12.93.25,1.2.28.47.03.51.02.57-.14.04-.1.39-1.34.75-2.75.46-1.78.66-2.63.62-2.77-.18-.72-2.18-1.53-2.89-1.19h0ZM561.96,334.86c.77.17,1.51.57,1.79.99.17.25.17.39,0,.39-.45,0-2.99-1.05-2.95-1.21.02-.08.44-.25.61-.25.04,0,.3.04.56.1h-.01Z"/>
    <path d="M567.13,336.11c0,4.22,0,4.14.56,4.78.19.21.51.46.75.57l.42.21h6.52l.42-.21c.24-.12.56-.36.75-.57.57-.64.56-.56.56-4.78v-3.72h-9.99v3.72h.01Z"/>
  </g>
  <g>
    <path d="M39.54,232.95v17.28h34.84v-34.55h-34.84v17.28h0ZM67.49,228.57v10.6l.53.09c.62.1,1.42.46,1.74.8.54.54,1.52,2.32,1.55,2.8.01.22,0,.24-.28.3-.15.03-1.02.06-1.91.06h-1.63v4.55l.78.81c.81.83,1.06,1.16.99,1.24-.09.08-4.28.15-8.86.15h-4.62l-1.23-1.17-1.23-1.18h-3.16l1.12,1.07c1,.97,1.09,1.08.97,1.16-.09.06-.8.1-1.97.12l-1.82.03-1.03-1.03-1.03-1.03v-14.59h4.48l.93-1.09c1.29-1.5,1.61-1.84,1.72-1.84.08,0,.93,1.72,1.7,3.47l.29.64-2.51,5.06c-3.04,6.12-3.38,6.88-3.24,6.98.13.09,1.08.08,1.77-.01.61-.09,1.19-.32,1.44-.59.23-.24,1.1-1.88,3.01-5.61,1.94-3.81,2.4-4.63,2.5-4.6.11.03.17.52.24,2.34.09,1.8.22,3,.4,3.63.2.66-.13.63,5.59.63,5.1,0,5.4-.01,5.51-.29.06-.14-.36-.93-.7-1.3-.15-.18-.38-.36-.5-.42-.42-.21-1.31-.31-3.71-.39-1.31-.04-2.69-.09-3.05-.11l-.65-.04-.2-2.98-.21-2.99-.27-.61c-.15-.34-.64-1.39-1.1-2.35-.46-.95-.83-1.79-.83-1.84,0-.15.34-.19,1.6-.17l1.14.02.68,1.19c1.14,1.98,1.69,2.64,2.21,2.64.24,0,.75-.34.88-.59.22-.43-.06-1.25-1.02-2.9-1.04-1.8-1.42-2.22-2.25-2.48-.49-.15-.59-.15-4.12-.15-2.83,0-3.71.02-4.02.1-.35.09-.46.17-1.15.86-.42.42-1.27,1.39-1.9,2.14l-1.15,1.37h-3.54v-13.05h21.08v10.6-.03Z"/>
    <path d="M53.3,221.32c-.8.23-1.44,1.16-1.46,2.1-.01.71.67,1.83,1.34,2.2.18.09.4.13.87.13.56,0,.71-.03,1.05-.2.88-.43,1.28-1.12,1.3-2.2,0-.54-.01-.64-.19-.93-.23-.4-.84-.97-1.17-1.12-.32-.13-1.26-.12-1.76.03v-.02Z"/>
  </g>
  <g>
    <g class="cls-9">
      <text class="cls-8" transform="translate(260.48 268.74)"><tspan x="0" y="0">222</tspan></text>
      <text class="cls-3" transform="translate(260.48 268.74)"><tspan x="0" y="0">222</tspan></text>
    </g>
    <path class="cls-1" d="M266.71,243.52h29.28c9.76,0,17.67,7.91,17.67,17.67h0c0,9.76-7.91,17.67-17.67,17.67h-29.28c-9.76,0-17.67-7.91-17.67-17.67h0c0-9.76,7.91-17.67,17.67-17.67Z"/>
  </g>
  <g>
    <rect class="cls-2" x="389.71" y="230.92" width="187.95" height="63.22" rx="15" ry="15"/>
    <g class="cls-9">
      <text class="cls-10" transform="translate(463.81 258.15)"><tspan x="0" y="0">221</tspan></text>
      <text class="cls-5" transform="translate(463.81 258.15)"><tspan x="0" y="0">221</tspan></text>
      <text class="cls-10" transform="translate(399.22 282)"><tspan x="0" y="0">グルーミング室</tspan></text>
      <text class="cls-5" transform="translate(399.22 282)"><tspan x="0" y="0">グルーミング室</tspan></text>
    </g>
  </g>
</svg>