<svg width="346" height="113" viewBox="0 0 346 113" fill="none" xmlns="http://www.w3.org/2000/svg">
<path d="M262.565 37.9845L266.913 30.4093M262.565 37.9845H279.943M262.565 37.9845L256.753 47.7876M298.658 61.1554H345L314.254 112.399H218.451M298.658 61.1554L303.509 53.0177M298.658 61.1554H294.202M98.5855 112.399H1L68.7306 1H218.451L210.43 13.9223H276.378L266.913 30.4093M98.5855 112.399L148.938 30.4093H266.913M98.5855 112.399H218.451M218.451 112.399L248.829 61.1554M248.829 61.1554H265.684M248.829 61.1554L253.653 53.0177M265.684 61.1554L270.692 53.0177M265.684 61.1554H269.694M279.943 37.9845L275.007 46.0052M279.943 37.9845H283.285M256.753 47.7876H273.91M256.753 47.7876L255.697 49.5699M273.91 47.7876L272.813 49.5699M273.91 47.7876L275.007 46.0052M255.697 49.5699H272.813M255.697 49.5699L254.64 51.3523M272.813 49.5699L271.717 51.3523M254.64 51.3523H271.717M254.64 51.3523L253.653 53.0177M271.717 51.3523L270.692 53.0177M253.653 53.0177H270.692M270.692 53.0177H274.596M275.007 46.0052H278.589M289.301 46.0052L294.202 37.9845M289.301 46.0052H285.736M289.301 46.0052H307.69M289.301 46.0052L287.262 50.0155M294.202 37.9845H312.472L307.69 46.0052M294.202 37.9845H290.192M285.736 46.0052L290.192 37.9845M285.736 46.0052H282.171M290.192 37.9845H286.627M282.171 46.0052L286.627 37.9845M282.171 46.0052H278.589M286.627 37.9845H283.285M278.589 46.0052L283.285 37.9845M307.69 46.0052L306.627 47.7876M288.409 47.7583L306.627 47.7876M306.627 47.7876L305.565 49.5699M305.565 49.5699L287.518 49.5114L287.262 50.0155M305.565 49.5699L304.672 51.0675M286.627 51.3523L304.672 51.0675M304.672 51.0675L303.509 53.0177M303.509 53.0177H295.539M303.509 53.0177L298.658 52.6891L294.202 61.1554M285.736 53.0177L287.262 50.0155M285.736 53.0177H285.29M285.736 53.0177H288.855M269.694 61.1554L274.596 53.0177M269.694 61.1554H273.259M274.596 53.0177H278.161M273.259 61.1554L278.161 53.0177M273.259 61.1554H277.269M278.161 53.0177H281.725M277.269 61.1554L281.725 53.0177M277.269 61.1554H280.834M281.725 53.0177H285.29M280.834 61.1554L285.29 53.0177M280.834 61.1554H284.399M284.399 61.1554L288.855 53.0177M284.399 61.1554H287.518M288.855 53.0177H291.974M287.518 61.1554L291.974 53.0177M287.518 61.1554H291.083M291.974 53.0177H295.539M291.083 61.1554L295.539 53.0177M291.083 61.1554H294.202" stroke="#F3858E"/>
<rect x="108" y="49" width="86" height="24" fill="white" stroke="#34B9F0" stroke-width="2"/>
<path d="M121.409 62.624C121.409 63.128 121.285 63.568 121.037 63.944C120.789 64.32 120.429 64.612 119.957 64.82C119.493 65.02 118.925 65.12 118.253 65.12C117.957 65.12 117.665 65.1 117.377 65.06C117.097 65.02 116.825 64.964 116.561 64.892C116.305 64.812 116.061 64.716 115.829 64.604V62.912C116.237 63.088 116.657 63.252 117.089 63.404C117.529 63.548 117.965 63.62 118.397 63.62C118.693 63.62 118.929 63.58 119.105 63.5C119.289 63.42 119.421 63.312 119.501 63.176C119.589 63.04 119.633 62.884 119.633 62.708C119.633 62.492 119.557 62.308 119.405 62.156C119.261 62.004 119.065 61.864 118.817 61.736C118.569 61.6 118.285 61.456 117.965 61.304C117.765 61.208 117.549 61.096 117.317 60.968C117.085 60.832 116.861 60.668 116.645 60.476C116.437 60.276 116.265 60.036 116.129 59.756C115.993 59.476 115.925 59.14 115.925 58.748C115.925 58.236 116.041 57.8 116.273 57.44C116.513 57.072 116.849 56.792 117.281 56.6C117.721 56.408 118.237 56.312 118.829 56.312C119.277 56.312 119.701 56.364 120.101 56.468C120.509 56.572 120.933 56.72 121.373 56.912L120.785 58.328C120.393 58.168 120.041 58.044 119.729 57.956C119.417 57.868 119.097 57.824 118.769 57.824C118.545 57.824 118.353 57.86 118.193 57.932C118.033 58.004 117.909 58.104 117.821 58.232C117.741 58.36 117.701 58.512 117.701 58.688C117.701 58.888 117.761 59.06 117.881 59.204C118.001 59.34 118.181 59.472 118.421 59.6C118.661 59.728 118.961 59.88 119.321 60.056C119.761 60.264 120.133 60.48 120.437 60.704C120.749 60.928 120.989 61.192 121.157 61.496C121.325 61.8 121.409 62.176 121.409 62.624ZM126.267 65H124.455V57.944H122.127V56.432H128.595V57.944H126.267V65ZM134.316 65L133.692 62.96H130.572L129.948 65H127.992L131.016 56.396H133.236L136.272 65H134.316ZM132.636 59.444C132.596 59.308 132.544 59.136 132.48 58.928C132.416 58.72 132.352 58.508 132.288 58.292C132.224 58.076 132.172 57.888 132.132 57.728C132.092 57.888 132.036 58.088 131.964 58.328C131.9 58.56 131.836 58.784 131.772 59C131.716 59.208 131.672 59.356 131.64 59.444L131.028 61.436H133.26L132.636 59.444ZM139.145 65H137.357V56.432H142.265V57.92H139.145V60.128H142.049V61.616H139.145V65ZM145.731 65H143.943V56.432H148.851V57.92H145.731V60.128H148.635V61.616H145.731V65ZM161.422 60.704C161.422 61.368 161.338 61.972 161.17 62.516C161.01 63.052 160.762 63.516 160.426 63.908C160.098 64.3 159.674 64.6 159.154 64.808C158.642 65.016 158.038 65.12 157.342 65.12C156.646 65.12 156.038 65.016 155.518 64.808C155.006 64.592 154.582 64.292 154.246 63.908C153.918 63.516 153.67 63.048 153.502 62.504C153.342 61.96 153.262 61.356 153.262 60.692C153.262 59.804 153.406 59.032 153.694 58.376C153.99 57.72 154.438 57.212 155.038 56.852C155.646 56.484 156.418 56.3 157.354 56.3C158.282 56.3 159.046 56.484 159.646 56.852C160.246 57.212 160.69 57.724 160.978 58.388C161.274 59.044 161.422 59.816 161.422 60.704ZM155.17 60.704C155.17 61.304 155.246 61.82 155.398 62.252C155.55 62.684 155.786 63.016 156.106 63.248C156.426 63.48 156.838 63.596 157.342 63.596C157.862 63.596 158.278 63.48 158.59 63.248C158.91 63.016 159.142 62.684 159.286 62.252C159.438 61.82 159.514 61.304 159.514 60.704C159.514 59.8 159.346 59.092 159.01 58.58C158.674 58.068 158.122 57.812 157.354 57.812C156.842 57.812 156.426 57.928 156.106 58.16C155.786 58.392 155.55 58.724 155.398 59.156C155.246 59.588 155.17 60.104 155.17 60.704ZM170.793 65H168.489L164.757 58.52H164.709C164.717 58.72 164.725 58.924 164.733 59.132C164.741 59.332 164.749 59.536 164.757 59.744C164.773 59.944 164.785 60.148 164.793 60.356C164.801 60.556 164.809 60.76 164.817 60.968V65H163.197V56.432H165.489L169.209 62.852H169.245C169.237 62.652 169.229 62.456 169.221 62.264C169.213 62.064 169.205 61.868 169.197 61.676C169.197 61.476 169.193 61.28 169.185 61.088C169.177 60.888 169.169 60.688 169.161 60.488V56.432H170.793V65ZM172.959 65V56.432H174.771V63.5H178.251V65H172.959ZM182.045 59.96L183.833 56.432H185.789L182.945 61.664V65H181.145V61.724L178.301 56.432H180.269L182.045 59.96Z" fill="#F3858E"/>
<path d="M320.33 42.5336C320.33 43.2824 320.94 43.889 321.685 43.889C322.434 43.889 323.041 43.2824 323.041 42.5336C323.041 41.7882 322.434 41.1782 321.685 41.1782C320.94 41.1782 320.33 41.7882 320.33 42.5336Z" fill="black"/>
<path d="M321 56.4602L320.502 56.4575L320.503 56.4602H320.496L321.119 57.9952H322.99L322.302 56.4602H321Z" fill="black"/>
<path d="M316.059 38H316.007H316V57.9272V57.9881V57.995H318.357L320.082 58L320.076 57.995H320.086L318.318 56.3381V48.1584H320.503L321.682 47.0949L322.025 46.788L323.031 48.9547L321.15 53.5726L320.439 55.3112H320.442L320.439 55.318H322.245L323.687 52.1098L324.829 49.5833L325.792 53.6409H330.611C330.889 53.6409 331.055 53.336 330.902 53.1055L330.306 52.2042C330.292 52.1873 330.279 52.1738 330.265 52.1567C330.201 52.089 330.113 52.0483 330.018 52.0483H327.212L326.504 48.3312L325.546 46.2613L325.152 45.4037H326.633L327.605 47.2402C327.666 47.3554 327.785 47.4164 327.9 47.4164C327.961 47.4164 328.022 47.3994 328.076 47.3656L328.75 46.9488C328.9 46.8539 328.95 46.6575 328.862 46.5049L327.429 43.9636H323.81C322.99 43.9636 322.211 44.3058 321.659 44.909L320.117 46.5862H318.318V39.8772H330.627H330.658V51.6484C330.824 51.7027 330.97 51.8112 331.068 51.9603L331.665 52.8582C331.824 53.102 331.841 53.4104 331.702 53.6679C331.563 53.9255 331.299 54.0848 331.007 54.0848H330.658V56.3381L332.43 57.995H332.979V38H316.059Z" fill="black"/>
<path d="M119.75 85C119.44 85 118.157 85 118.157 85V85.9293C118.157 85.9293 119.042 85.9293 119.971 85.9293C121.697 85.9293 122.14 86.7698 122.14 86.7698C122.14 86.7698 122.14 86.7698 122.449 86.5486C121.918 85.177 120.06 85 119.75 85Z" fill="black"/>
<path d="M116.157 92.167L116 92.958H117.08L116.923 92.167H116.157Z" fill="black"/>
<path d="M119.559 87.2514V86.4747C119.559 86.3169 119.431 86.189 119.272 86.189H118.739C118.58 86.189 118.453 86.3169 118.453 86.4747V87.2666C117.782 87.5033 117.302 88.1425 117.302 88.8937V94.3363C117.302 94.7027 117.599 94.9998 117.966 94.9998H120.09C120.456 94.9998 120.753 94.7027 120.753 94.3363V88.8937C120.753 88.1258 120.252 87.4754 119.559 87.2514ZM119.946 92.9423H118.109V90.6978H119.946V92.9423Z" fill="black"/>
<path d="M116.745 88.9246C116.745 88.169 117.132 87.4763 117.746 87.0743L117.748 87.0729L117.748 87.0731C117.751 87.0701 117.875 86.9924 118.071 86.9258V86.5C117.747 86.5873 117.542 86.7204 117.522 86.7329C117.522 86.7331 117.522 86.7331 117.522 86.7331C117.522 86.7333 117.52 86.7345 117.52 86.7347L117.52 86.7349C116.794 87.2115 116.337 88.0299 116.337 88.9246V92.027H116.745V88.9246ZM117.751 87.0709L117.749 87.0727L117.749 87.0725L117.751 87.0709Z" fill="black"/>
</svg>
