<?xml version="1.0" encoding="UTF-8"?>
<svg id="_レイヤー_1" data-name="レイヤー 1" xmlns="http://www.w3.org/2000/svg" viewBox="0 0 438.83 416.15">
  <defs>
    <style>
      .cls-1, .cls-2, .cls-3, .cls-4, .cls-5, .cls-6, .cls-7, .cls-8 {
        stroke-miterlimit: 10;
      }

      .cls-1, .cls-2, .cls-3, .cls-4, .cls-7, .cls-8 {
        fill: none;
      }

      .cls-1, .cls-9, .cls-8, .cls-10, .cls-11 {
        isolation: isolate;
      }

      .cls-1, .cls-8 {
        stroke: #028760;
      }

      .cls-1, .cls-8, .cls-10, .cls-11 {
        font-family: BIZ-UDGothic, 'BIZ UDGothic';
      }

      .cls-1, .cls-11 {
        font-size: 15.28px;
        letter-spacing: .3em;
      }

      .cls-2, .cls-3, .cls-5, .cls-7 {
        stroke: #6fba2d;
      }

      .cls-3 {
        stroke-width: 3px;
      }

      .cls-4, .cls-6 {
        stroke: #3b7960;
      }

      .cls-12 {
        fill: #3b82f6;
      }

      .cls-5 {
        fill: #6fba2d;
      }

      .cls-6 {
        fill: #fff;
      }

      .cls-7 {
        stroke-width: 2px;
      }

      .cls-8, .cls-10 {
        font-size: 17.83px;
        letter-spacing: .2em;
      }

      .cls-10, .cls-11 {
        fill: #028760;
      }
    </style>
  </defs>
  <g>
    <g>
      <polygon class="cls-3" points="1.5 1.5 1.5 217.67 335.8 414.09 429.88 250.29 195.69 116.02 195.69 1.67 1.5 1.5"/>
      <polyline class="cls-3" points="377.46 341.75 406.77 359.26 437.33 307.52 437.33 270.67 423.7 261.74"/>
    </g>
    <g>
      <line class="cls-7" x1="415.12" y1="275.18" x2="261.96" y2="185.9"/>
      <polyline class="cls-7" points="248.23 178.34 237.24 171.65 158.6 309.87"/>
      <polyline class="cls-7" points="214.41 210.8 189.34 195.17 205.99 166.33 231.58 181.26"/>
      <polyline class="cls-7" points="117.06 285.49 174.4 187.27 167.02 182.81"/>
      <polyline class="cls-7" points="153.28 174.74 99.71 144.01 1.68 144.01"/>
      <polyline class="cls-7" points="113.97 133.19 146.41 77.22 146.41 2.02"/>
      <line class="cls-7" x1="146.76" y1="15.24" x2="195.69" y2="15.24"/>
      <line class="cls-7" x1="141.61" y1="86.15" x2="150.36" y2="91.12"/>
      <line class="cls-7" x1="166.33" y1="99.37" x2="195.69" y2="116.02"/>
    </g>
    <g>
      <line class="cls-2" x1="143.15" y1="242.05" x2="161.24" y2="252.8"/>
      <line class="cls-2" x1="145.45" y1="238.5" x2="163.53" y2="249.48"/>
      <line class="cls-2" x1="147.16" y1="235.18" x2="165.59" y2="245.94"/>
      <line class="cls-2" x1="149.22" y1="231.97" x2="167.42" y2="242.74"/>
      <line class="cls-2" x1="151.17" y1="228.31" x2="169.59" y2="238.96"/>
      <line class="cls-2" x1="153.34" y1="224.99" x2="171.42" y2="235.87"/>
      <line class="cls-2" x1="155.51" y1="221.67" x2="173.03" y2="232.09"/>
      <line class="cls-2" x1="157.35" y1="218.46" x2="175.32" y2="228.88"/>
      <polygon class="cls-2" points="177.95 225.1 161.36 254.41 163.18 255.55 179.9 226.25 177.95 225.1"/>
      <line class="cls-2" x1="184.93" y1="261.85" x2="166.04" y2="250.63"/>
      <line class="cls-2" x1="168.56" y1="247.2" x2="186.76" y2="258.19"/>
      <line class="cls-2" x1="170.4" y1="243.99" x2="188.71" y2="254.75"/>
      <line class="cls-2" x1="172.23" y1="240.79" x2="190.19" y2="251.43"/>
      <line class="cls-2" x1="174.51" y1="237.58" x2="192.38" y2="247.88"/>
      <line class="cls-2" x1="176.35" y1="233.58" x2="194.55" y2="244.45"/>
      <line class="cls-2" x1="177.95" y1="230.49" x2="196.49" y2="241.13"/>
      <line class="cls-2" x1="180.01" y1="227.17" x2="198.67" y2="237.92"/>
      <line class="cls-2" x1="387.3" y1="326.61" x2="401.47" y2="335.19"/>
      <line class="cls-2" x1="389.19" y1="323.34" x2="403.35" y2="332.02"/>
      <line class="cls-2" x1="390.99" y1="320.17" x2="404.39" y2="328.5"/>
      <line class="cls-2" x1="392.89" y1="317.68" x2="406.62" y2="325.58"/>
      <line class="cls-2" x1="394.52" y1="314.24" x2="408.25" y2="322.23"/>
      <line class="cls-2" x1="396.4" y1="311.07" x2="410.48" y2="319.48"/>
      <line class="cls-2" x1="398.12" y1="307.89" x2="412.45" y2="316.3"/>
      <line class="cls-2" x1="399.67" y1="304.97" x2="413.91" y2="313.21"/>
      <line class="cls-2" x1="401.64" y1="301.63" x2="416.06" y2="309.87"/>
      <polygon class="cls-2" points="399.58 338.54 401.72 339.83 421.22 306.35 418.98 305.06 399.58 338.54"/>
      <line class="cls-2" x1="413.23" y1="346.61" x2="401.72" y2="339.83"/>
      <line class="cls-2" x1="403.62" y1="336.91" x2="414.86" y2="343.52"/>
      <line class="cls-2" x1="405.67" y1="333.47" x2="417.09" y2="340.08"/>
      <line class="cls-2" x1="407.82" y1="330.13" x2="418.98" y2="336.82"/>
      <line class="cls-2" x1="409.54" y1="327.04" x2="420.87" y2="333.73"/>
      <line class="cls-2" x1="411.26" y1="323.95" x2="422.59" y2="330.38"/>
    </g>
    <circle class="cls-5" cx="189.85" cy="149.79" r="5.26"/>
  </g>
  <g>
    <g class="cls-9">
      <text class="cls-11" transform="translate(304.14 371.23)"><tspan x="0" y="0">131</tspan></text>
      <text class="cls-1" transform="translate(304.14 371.23)"><tspan x="0" y="0">131</tspan></text>
    </g>
    <path class="cls-4" d="M308.93,351.84h22.51c7.5,0,13.58,6.08,13.58,13.58h0c0,7.5-6.08,13.58-13.58,13.58h-22.51c-7.5,0-13.58-6.08-13.58-13.58h0c0-7.5,6.08-13.58,13.58-13.58Z"/>
  </g>
  <g>
    <g class="cls-9">
      <text class="cls-11" transform="translate(233.86 236.45)"><tspan x="0" y="0">132</tspan></text>
      <text class="cls-1" transform="translate(233.86 236.45)"><tspan x="0" y="0">132</tspan></text>
    </g>
    <path class="cls-4" d="M238.65,217.06h22.51c7.5,0,13.58,6.08,13.58,13.58h0c0,7.5-6.08,13.58-13.58,13.58h-22.51c-7.5,0-13.58-6.08-13.58-13.58h0c0-7.5,6.08-13.58,13.58-13.58Z"/>
  </g>
  <g>
    <g class="cls-9">
      <text class="cls-11" transform="translate(92.34 246.55)"><tspan x="0" y="0">133</tspan></text>
      <text class="cls-1" transform="translate(92.34 246.55)"><tspan x="0" y="0">133</tspan></text>
    </g>
    <path class="cls-4" d="M97.13,227.16h22.51c7.5,0,13.58,6.08,13.58,13.58h0c0,7.5-6.08,13.58-13.58,13.58h-22.51c-7.5,0-13.58-6.08-13.58-13.58h0c0-7.5,6.08-13.58,13.58-13.58Z"/>
  </g>
  <g>
    <rect class="cls-6" x="14.88" y="37.51" width="140.4" height="33.96" rx="1" ry="1"/>
    <g>
      <text class="cls-10" transform="translate(24.46 61.26)"><tspan x="0" y="0">STAFF ONLY</tspan></text>
      <text class="cls-8" transform="translate(24.46 61.26)"><tspan x="0" y="0">STAFF ONLY</tspan></text>
    </g>
  </g>
  <g>
    <path d="M205,186.06c-.64,0-1.15.52-1.15,1.15s.52,1.15,1.15,1.15,1.15-.52,1.15-1.15-.52-1.15-1.15-1.15Z"/>
    <path d="M209.91,186.06c-.64,0-1.15.52-1.15,1.15s.52,1.15,1.15,1.15,1.15-.52,1.15-1.15-.52-1.15-1.15-1.15Z"/>
    <path d="M214.83,186.06c-.64,0-1.15.52-1.15,1.15s.52,1.15,1.15,1.15,1.15-.52,1.15-1.15-.52-1.15-1.15-1.15Z"/>
    <path d="M217.46,180.58h-15.09c-1.16,0-2.11.94-2.11,2.11v16.16c0,1.16.94,2.11,2.11,2.11h15.09c1.16,0,2.11-.94,2.11-2.11v-16.16c0-1.16-.94-2.11-2.11-2.11ZM204.79,199.61l.2-4.62.2,4.62h-.41,0ZM209.71,199.61l.2-4.62.2,4.62h-.41,0ZM214.63,199.61l.2-4.62.2,4.62h-.41,0ZM218.23,198.83c0,.42-.35.77-.77.77h-1.36l.03-5.39c.08.13.22.2.38.2.25,0,.44-.22.42-.47l.2-3.84c0-1.51-1.53-1.58-2.31-1.58s-2.31.08-2.31,1.58l.13,3.84c0,.25.18.46.42.47.21,0,.4-.14.45-.34l.03,5.53h-2.39l.03-5.39c.08.13.22.21.38.2.25,0,.44-.22.42-.47l.19-3.84c0-1.51-1.53-1.58-2.31-1.58s-2.31.08-2.31,1.58l.13,3.84c0,.25.18.46.42.47.21,0,.4-.14.45-.34l.03,5.54h-2.39l.03-5.39c.08.13.22.21.38.2.25,0,.44-.22.42-.47l.19-3.84c0-1.51-1.53-1.58-2.31-1.58s-2.31.08-2.31,1.58l.13,3.84c0,.25.18.46.42.47.22,0,.4-.14.45-.34l.03,5.54h-1.36c-.42,0-.77-.35-.77-.77v-16.16c0-.42.35-.77.77-.77h15.09c.42,0,.77.35.77.77v16.16h0l.06-.02Z"/>
    <path d="M211.42,177.12l1.58-1.58v3.55c0,.32.26.59.59.59s.59-.26.59-.59v-3.55l1.58,1.58c.12.11.26.17.42.17s.3-.06.42-.17c.23-.23.23-.6,0-.82l-2.57-2.58-.42-.42-.42.42-2.57,2.58c-.23.23-.23.6,0,.82.23.23.6.23.83,0h-.02Z"/>
    <path d="M205.83,179.5h0l.42.42.42-.42h0l2.57-2.57c.23-.23.23-.6,0-.83-.23-.23-.6-.23-.82,0l-1.58,1.58v-3.55c0-.32-.26-.59-.59-.59s-.59.26-.59.59v3.55l-1.58-1.58c-.23-.23-.6-.23-.83,0-.23.23-.23.6,0,.83l2.57,2.57h0Z"/>
  </g>
  <g>
    <path d="M243.93,179.4c-.14.02-.81.05-1.49.08-.89.03-1.27.07-1.4.11-.23.08-.56.42-.74.75-.07.14-.24.36-.37.49l-.25.25h-.47c-.53,0-.67.04-.77.25-.14.27,0,.63.26.72.08.03.33.05.57.05h.42l.17.18c.24.25.43.33.78.33.32,0,.51-.08.72-.27.12-.11.13-.12.36-.07.64.13,1.77.58,2.86,1.15.35.18.64.32.64.32,0,0,0-.19,0-.42,0-.31-.03-.43-.08-.49-.09-.11-.95-.66-1.72-1.12l-.64-.37h-.53c-.36,0-.55-.03-.59-.1-.03-.07-.03-.12,0-.14.08-.08,2.33-.88,2.99-1.06l.17-.04-.11-.2c-.15-.26-.31-.42-.4-.41-.05,0-.2.02-.35.03h-.02ZM240.78,181.2c.25.09.34.42.15.64-.08.09-.13.11-.29.11s-.21-.02-.29-.11c-.18-.21-.1-.53.14-.64.14-.05.13-.05.28,0Z"/>
    <path d="M237.62,181.16c-1.6.24-2.5,1.53-2.31,3.39.05.56.17,1.12.49,2.41.33,1.34.42,1.79.43,2.53.02.48,0,.73-.04,1.02-.03.21-.06.39-.06.39,0,0,.11.04.24.08s.3.11.38.15c.09.04.16.08.17.07.04-.04.14-.58.19-.98.09-.87-.03-1.73-.47-3.51-.37-1.46-.43-1.84-.46-2.41-.03-.81.09-1.29.46-1.7.11-.11.27-.25.37-.31.21-.13.68-.26.88-.26.15,0,.16,0,.13-.09-.04-.11-.03-.59,0-.71.03-.1.02-.11-.41-.04v-.02Z"/>
    <path d="M239.69,183.19v.48l-.35.17c-.66.33-1.21,1.02-1.38,1.72-.04.18-.06.48-.06.93v.66h5.51v-.66c0-.74-.04-.98-.25-1.39-.24-.49-.65-.89-1.21-1.17l-.34-.17v-.43c0-.24,0-.48-.03-.53-.03-.08-.03-.08-.09-.03-.12.11-.44.23-.69.25-.31.03-.65-.04-.88-.19-.11-.07-.2-.12-.21-.12s-.02.21-.02.48h0Z"/>
    <path d="M237.89,189.87v2.31h5.51v-4.61h-5.51v2.31h0ZM242.38,189.9v1.1h-3.47v-2.21h3.47v1.1h0Z"/>
    <path d="M235.54,191.33c-.05.03-.39.57-.87,1.43l-.78,1.38.11.12c.14.14.89.52,1.4.69.21.07.51.14.66.15.26.02.28,0,.31-.08.03-.05.21-.74.42-1.52.25-.98.37-1.45.34-1.53-.1-.4-1.2-.85-1.6-.65h0ZM235.03,193.96c.42.09.83.32.98.54.09.14.09.21,0,.21-.25,0-1.66-.58-1.62-.67,0-.04.25-.14.33-.14.03,0,.16.03.31.05h0Z"/>
    <path d="M237.89,194.64c0,2.33,0,2.28.31,2.64.11.12.28.25.42.32l.23.11h3.59l.23-.11c.14-.07.31-.2.42-.32.31-.35.31-.31.31-2.64v-2.05h-5.51v2.05h0Z"/>
  </g>
  <g>
    <path d="M179.7,98.67c-.14.02-.81.05-1.49.08-.89.03-1.27.07-1.4.11-.23.08-.56.42-.74.75-.07.14-.24.36-.37.49l-.25.25h-.47c-.53,0-.67.04-.77.25-.14.27,0,.63.26.72.08.03.33.05.57.05h.42l.17.18c.24.25.43.33.78.33.32,0,.51-.08.72-.27.12-.11.13-.12.36-.07.64.13,1.77.58,2.86,1.15.35.18.64.32.64.32,0,0,0-.19,0-.42,0-.31-.03-.43-.08-.49-.09-.11-.95-.66-1.72-1.12l-.64-.37h-.53c-.36,0-.55-.03-.59-.1-.03-.07-.03-.12,0-.14.08-.08,2.33-.88,2.99-1.06l.17-.04-.11-.2c-.15-.26-.31-.42-.4-.41-.05,0-.2.02-.35.03h-.02ZM176.55,100.47c.25.09.34.42.15.64-.08.09-.13.11-.29.11s-.21-.02-.29-.11c-.18-.21-.1-.53.14-.64.14-.05.13-.05.28,0Z"/>
    <path d="M173.4,100.43c-1.6.24-2.5,1.53-2.31,3.39.05.56.17,1.12.49,2.41.33,1.34.42,1.79.43,2.53.02.48,0,.73-.04,1.02-.03.21-.06.39-.06.39,0,0,.11.04.24.08s.3.11.38.15c.09.04.16.08.17.07.04-.04.14-.58.19-.98.09-.87-.03-1.73-.47-3.51-.37-1.46-.43-1.84-.46-2.41-.03-.81.09-1.29.46-1.7.11-.11.27-.25.37-.31.21-.13.68-.26.88-.26.15,0,.16,0,.13-.09-.04-.11-.03-.59,0-.71.03-.1.02-.11-.41-.04v-.02Z"/>
    <path d="M175.46,102.46v.48l-.35.17c-.66.33-1.21,1.02-1.38,1.72-.04.18-.06.48-.06.93v.66h5.51v-.66c0-.74-.04-.98-.25-1.39-.24-.49-.65-.89-1.21-1.17l-.34-.17v-.43c0-.24,0-.48-.03-.53-.03-.08-.03-.08-.09-.03-.12.11-.44.23-.69.25-.31.03-.65-.04-.88-.19-.11-.07-.2-.12-.21-.12s-.02.21-.02.48h0Z"/>
    <path d="M173.66,109.14v2.31h5.51v-4.61h-5.51v2.31h0ZM178.16,109.16v1.1h-3.47v-2.21h3.47v1.1h0Z"/>
    <path d="M171.31,110.6c-.05.03-.39.57-.87,1.43l-.78,1.38.11.12c.14.14.89.52,1.4.69.21.07.51.14.66.15.26.02.28,0,.31-.08.03-.05.21-.74.42-1.52.25-.98.37-1.45.34-1.53-.1-.4-1.2-.85-1.6-.65h0ZM170.81,113.21c.42.09.83.32.98.54.09.14.09.21,0,.21-.25,0-1.66-.58-1.62-.67,0-.04.25-.14.33-.14.03,0,.16.03.31.05h0Z"/>
    <path d="M173.66,113.91c0,2.33,0,2.28.31,2.64.11.12.28.25.42.32l.23.11h3.59l.23-.11c.14-.07.31-.2.42-.32.31-.35.31-.31.31-2.64v-2.05h-5.51v2.05Z"/>
  </g>
  <g>
    <path class="cls-12" d="M171.92,21.54c-.48.08-.86.3-1.19.64-.8.84-.76,2.18.08,2.97.53.5,1.28.69,2,.5.22-.06.57-.24.76-.39.66-.53.94-1.41.7-2.22-.2-.66-.69-1.19-1.33-1.41-.33-.11-.72-.14-1.04-.08h0Z"/>
    <path class="cls-12" d="M169.23,26.18c-.35.03-.65.11-.98.27-.85.42-1.41,1.26-1.49,2.22-.02.17-.02,1.28-.02,3.59v3.34l.05.13c.08.25.25.43.47.53.08.04.14.04.32.04.2,0,.23,0,.35-.06.23-.11.4-.33.46-.6.02-.08.03-.81.03-3.34v-3.23h1v8.61c0,7.5,0,8.63.03,8.75.11.54.6.94,1.15.94.16,0,.41-.06.56-.14.18-.09.39-.31.48-.5.14-.29.14.1.14-5.46v-5.02h.99v5.03c0,5.54,0,5.16.13,5.44.14.27.37.48.67.59.12.04.17.05.38.05s.26,0,.38-.05c.31-.12.54-.32.67-.59.14-.29.14.48.14-9.04v-8.61h.99v3.21c0,2.22,0,3.25.03,3.34.05.29.21.51.46.63.14.08.16.08.34.08.14,0,.21,0,.29-.04.29-.12.48-.37.53-.73.03-.2.03-6.53,0-6.84-.11-1.23-.96-2.23-2.13-2.5-.13-.03-.28-.04-.53-.05-.62-.02-5.68-.02-5.87,0h-.02Z"/>
  </g>
  <g>
    <path d="M413.53,292.01v10.71h21.59v-21.41h-21.59v10.71ZM430.86,289.29v6.56l.33.05c.39.06.88.28,1.09.49.34.34.94,1.43.96,1.74,0,.14,0,.15-.17.18-.1.02-.63.03-1.19.03h-1.01v2.82l.48.5c.5.52.65.71.61.76-.05.05-2.66.1-5.48.1h-2.86l-.76-.73-.76-.73h-1.96l.69.67c.62.6.68.67.6.71-.05.03-.49.06-1.21.08l-1.13.03-.64-.64-.64-.64v-9.04h2.78l.58-.68c.8-.93,1-1.15,1.07-1.15.05,0,.58,1.07,1.05,2.15l.18.4-1.55,3.13c-1.88,3.79-2.1,4.26-2,4.32.08.05.67.05,1.1,0,.37-.05.74-.2.89-.36.14-.15.69-1.16,1.87-3.48,1.21-2.36,1.49-2.87,1.55-2.85.07.03.1.32.15,1.45.05,1.11.14,1.86.25,2.25.12.42-.08.39,3.46.39,3.17,0,3.35,0,3.41-.18.03-.08-.23-.58-.43-.81-.1-.11-.24-.23-.31-.26-.25-.14-.81-.2-2.3-.24-.81-.03-1.67-.06-1.88-.07l-.41-.03-.13-1.85-.13-1.85-.16-.37c-.09-.21-.4-.87-.69-1.46-.28-.59-.52-1.1-.52-1.14,0-.09.21-.12.99-.1l.7.02.42.74c.7,1.22,1.05,1.64,1.37,1.64.15,0,.47-.21.55-.36.14-.26-.03-.77-.63-1.8-.65-1.11-.88-1.38-1.4-1.55-.31-.09-.37-.1-2.56-.1-1.75,0-2.3.02-2.49.06-.22.05-.28.1-.71.53-.25.26-.79.87-1.18,1.32l-.71.85h-2.2v-8.08h13.07v6.57-.02Z"/>
    <path d="M422.06,284.8c-.49.14-.89.72-.91,1.3,0,.43.42,1.14.83,1.36.11.06.25.08.54.08.35,0,.43-.02.65-.13.54-.26.8-.69.81-1.37,0-.33,0-.4-.12-.58-.14-.25-.52-.6-.72-.7-.2-.08-.78-.08-1.09.02v.02Z"/>
  </g>
</svg>