<?xml version="1.0" encoding="UTF-8"?>
<svg id="_レイヤー_1" data-name="レイヤー 1" xmlns="http://www.w3.org/2000/svg" viewBox="0 0 452.44 419.75">
  <defs>
    <style>
      .cls-1 {
        letter-spacing: .2em;
      }

      .cls-1, .cls-2, .cls-3, .cls-4, .cls-5, .cls-6, .cls-7, .cls-8 {
        stroke-miterlimit: 10;
      }

      .cls-1, .cls-5 {
        font-size: 15.27px;
      }

      .cls-1, .cls-5, .cls-8 {
        fill: #028760;
        font-family: BIZ-UDGothic, 'BIZ UDGothic';
        stroke: #028760;
      }

      .cls-2, .cls-3, .cls-4, .cls-7 {
        fill: none;
      }

      .cls-2, .cls-3, .cls-6, .cls-7 {
        stroke: #6fba2d;
      }

      .cls-3 {
        stroke-width: 3px;
      }

      .cls-4 {
        stroke: #3b7960;
      }

      .cls-5 {
        letter-spacing: .05em;
      }

      .cls-9 {
        fill: #ef4444;
      }

      .cls-10 {
        fill: #3b82f6;
      }

      .cls-6 {
        fill: #6fba2d;
      }

      .cls-7 {
        stroke-width: 2px;
      }

      .cls-8 {
        font-size: 15.27px;
        letter-spacing: .1em;
      }
    </style>
  </defs>
  <g>
    <g>
      <polygon class="cls-3" points="1.5 31.63 1.5 202.28 20.37 202.28 31.91 224.53 142.58 288.45 142.58 307.88 332.94 417.71 443.33 229.6 443.33 1.5 33.88 1.5 1.5 31.63"/>
      <polyline class="cls-3" points="394.62 315.2 421.65 331.82 450.94 282.26 450.94 247.34 437.98 239.17"/>
    </g>
    <g>
      <line class="cls-7" x1="62.61" y1="1.08" x2="62.61" y2="201.72"/>
      <polyline class="cls-7" points="21.21 201.72 62.4 201.72 86.47 215.02"/>
      <line class="cls-7" x1="113.93" y1="231.71" x2="357.87" y2="372.37"/>
      <line class="cls-7" x1="142.86" y1="287.25" x2="142.86" y2="248.39"/>
      <line class="cls-7" x1="177.5" y1="326.96" x2="276.77" y2="157.37"/>
      <polyline class="cls-7" points="177.92 240.58 246.14 280.07 304.43 178.06 274.86 161.17"/>
      <line class="cls-7" x1="238.12" y1="224.53" x2="267.26" y2="241.42"/>
      <polyline class="cls-7" points="159.55 257.05 210.45 170.46 215.73 173.42 165.25 260.43"/>
      <polyline class="cls-7" points="62.82 153.56 161.87 153.56 172.85 135.61"/>
      <polyline class="cls-7" points="84.78 152.72 84.78 125.9 141.39 125.9 141.39 152.72"/>
      <polyline class="cls-7" points="184.68 114.91 195.66 96.33 195.66 93.16"/>
      <line class="cls-7" x1="195.24" y1="79.43" x2="195.24" y2="24.31"/>
      <line class="cls-7" x1="195.03" y1="9.1" x2="195.03" y2="2.13"/>
      <polyline class="cls-7" points="196.51 96.33 226.08 96.33 226.08 2.98"/>
      <line class="cls-7" x1="226.5" y1="39.3" x2="258.39" y2="39.3"/>
      <line class="cls-7" x1="258.81" y1="2.13" x2="258.81" y2="66.97"/>
      <polyline class="cls-7" points="243.18 39.94 243.18 67.39 272.33 67.39 284.58 74.36"/>
      <polyline class="cls-7" points="305.49 84.92 356.18 116.82 368 97.6 442.35 97.39"/>
      <line class="cls-7" x1="315.63" y1="92.32" x2="283.73" y2="144.91"/>
      <line class="cls-7" x1="287.75" y1="139.84" x2="442.14" y2="230.02"/>
      <polyline class="cls-7" points="357.23 2.56 357.23 75 441.71 75"/>
      <polyline class="cls-7" points="253.32 196.02 229.67 181.87 245.09 155.68 268.95 169.62"/>
    </g>
    <g>
      <polyline class="cls-2" points="335.8 2.24 335.8 62.33 357.23 62.33"/>
      <line class="cls-2" x1="188.27" y1="222.42" x2="205.27" y2="232.45"/>
      <line class="cls-2" x1="190.08" y1="219.34" x2="207.03" y2="229.14"/>
      <line class="cls-2" x1="191.86" y1="216.17" x2="208.83" y2="226.2"/>
      <line class="cls-2" x1="193.52" y1="213.37" x2="210.54" y2="223.07"/>
      <line class="cls-2" x1="195.24" y1="210.31" x2="212.33" y2="220.13"/>
      <line class="cls-2" x1="196.9" y1="207.42" x2="214.02" y2="217.07"/>
      <line class="cls-2" x1="198.8" y1="204.18" x2="215.78" y2="213.97"/>
      <line class="cls-2" x1="200.59" y1="201.1" x2="217.72" y2="210.8"/>
      <line class="cls-2" x1="202.21" y1="198.06" x2="219.55" y2="208.09"/>
      <line class="cls-2" x1="203.94" y1="195.1" x2="221.06" y2="204.92"/>
      <polygon class="cls-2" points="204.94 233.31 221.69 204.57 223.23 205.45 206.51 234.24 204.94 233.31"/>
      <line class="cls-2" x1="209.15" y1="230.37" x2="227.2" y2="240.88"/>
      <line class="cls-2" x1="210.94" y1="227.38" x2="229" y2="237.9"/>
      <line class="cls-2" x1="212.67" y1="224.19" x2="230.93" y2="235"/>
      <line class="cls-2" x1="402.96" y1="300.88" x2="416.74" y2="308.9"/>
      <line class="cls-2" x1="404.65" y1="297.55" x2="418.69" y2="306.05"/>
      <line class="cls-2" x1="406.39" y1="294.75" x2="420.17" y2="302.99"/>
      <line class="cls-2" x1="407.97" y1="291.69" x2="422.07" y2="300.03"/>
      <line class="cls-2" x1="409.87" y1="288.68" x2="423.87" y2="296.86"/>
      <line class="cls-2" x1="411.56" y1="285.78" x2="425.56" y2="293.86"/>
      <line class="cls-2" x1="413.41" y1="282.98" x2="427.14" y2="290.9"/>
      <line class="cls-2" x1="415.15" y1="280.02" x2="428.88" y2="287.73"/>
      <line class="cls-2" x1="417.06" y1="276.96" x2="430.68" y2="284.61"/>
      <polygon class="cls-2" points="414.94 312.39 433.53 280.23 435.32 281.24 416.95 313.66 414.94 312.39"/>
      <line class="cls-2" x1="417.43" y1="313.6" x2="427.62" y2="319.62"/>
      <line class="cls-2" x1="419.01" y1="310.54" x2="429.36" y2="316.4"/>
      <line class="cls-2" x1="420.8" y1="307.42" x2="431.36" y2="313.44"/>
      <line class="cls-2" x1="422.71" y1="304.2" x2="433.27" y2="310.38"/>
      <line class="cls-2" x1="424.5" y1="301.19" x2="435.06" y2="307.27"/>
      <line class="cls-2" x1="426.08" y1="298.18" x2="436.91" y2="304.26"/>
    </g>
    <circle class="cls-6" cx="230.41" cy="140.15" r="4.44"/>
    <g>
      <polygon class="cls-3" points="74.15 291.13 58.38 298.52 75.77 308.59 74.15 291.13"/>
      <line class="cls-3" x1="45.71" y1="340.34" x2="74.15" y2="291.13"/>
    </g>
  </g>
  <g>
    <text class="cls-5" transform="translate(77.8 105.99)"><tspan x="0" y="0">アクアルーム</tspan></text>
    <rect class="cls-4" x="73.02" y="83.22" width="105" height="33.93" rx="16.97" ry="16.97"/>
  </g>
  <g>
    <text class="cls-1" transform="translate(373.97 58.45)"><tspan x="0" y="0">駐車場</tspan></text>
    <rect class="cls-4" x="364.11" y="35.68" width="71.65" height="33.93" rx="16.97" ry="16.97"/>
  </g>
  <g>
    <text class="cls-8" transform="translate(292.5 311.4)"><tspan x="0" y="0">飼育ルーム</tspan></text>
    <rect class="cls-4" x="281.23" y="288.63" width="105" height="33.93" rx="16.97" ry="16.97"/>
  </g>
  <g>
    <g>
      <path d="M248.29,14.86c-.19.05-.27.08-.44.19-.5.32-.75.94-.6,1.51.1.39.38.74.73.9.12.06.2.11.2.14,0,.03.17,1.1.37,2.38.39,2.52.38,2.47.57,2.61.05.04.14.07.19.09.06.02.87.03,2.16.03h2.07l.64,2.05c.35,1.13.66,2.09.68,2.14.05.1.16.21.28.26.2.09.3.06,1.14-.28.43-.17.82-.35.86-.38.2-.18.23-.51.08-.74-.09-.13-.3-.25-.46-.25-.05,0-.3.08-.57.19-.31.13-.48.18-.49.16,0-.02-.29-.92-.63-2-.45-1.44-.63-2-.68-2.07-.04-.05-.13-.12-.19-.15-.12-.06-.14-.06-2.19-.06h-2.08l-.08-.5c-.04-.27-.08-.53-.09-.56v-.06s1.18,0,1.18,0h1.2s.13-.09.13-.09c.36-.23.35-.76-.03-.97-.07-.04-.24-.05-1.37-.06h-1.29s-.15-.95-.15-.95c-.12-.77-.14-.94-.11-.95.24-.13.48-.43.6-.73.07-.19.1-.54.05-.75-.08-.37-.36-.75-.7-.94-.29-.16-.68-.22-.99-.14Z"/>
      <path d="M246.9,19.92c-.05.02-.2.1-.33.19-1.17.76-1.92,1.93-2.13,3.32-.05.36-.05,1.04,0,1.39.16,1.04.62,1.94,1.35,2.67.74.74,1.65,1.2,2.69,1.36.34.05,1.15.05,1.48-.01.57-.1,1.1-.29,1.58-.57.42-.24.66-.43,1.02-.79.37-.38.62-.72.86-1.18.15-.3.17-.35.17-.49,0-.18-.05-.29-.19-.41-.2-.17-.48-.19-.68-.04-.09.06-.15.14-.27.37-.2.39-.38.65-.64.92-.51.53-1.15.89-1.89,1.05-.38.09-1.07.09-1.43.02-.75-.16-1.36-.48-1.87-.97-.74-.73-1.11-1.61-1.11-2.65,0-.74.2-1.39.63-2.03.2-.31.66-.76.98-.97.34-.22.42-.3.47-.48.05-.18.03-.29-.07-.46-.13-.2-.42-.31-.63-.23Z"/>
    </g>
    <g>
      <path class="cls-10" d="M230.62,13.32c-.29.05-.52.18-.72.39-.49.51-.46,1.33.05,1.81.32.31.78.42,1.22.31.13-.03.35-.14.46-.24.4-.32.57-.86.43-1.36-.12-.41-.42-.73-.82-.86-.2-.07-.44-.09-.63-.05Z"/>
      <path class="cls-10" d="M228.97,16.15c-.21.01-.4.07-.59.17-.52.26-.86.76-.91,1.36,0,.1-.01.78,0,2.19v2.04s.03.08.03.08c.05.15.15.26.28.32.05.02.08.03.2.03.12,0,.14,0,.21-.04.14-.07.24-.2.28-.37.01-.05.02-.5.02-2.03v-1.97h.61v5.25c0,4.57,0,5.26.02,5.34.07.33.37.57.7.57.1,0,.25-.04.34-.09.11-.06.24-.19.3-.31.09-.18.08.06.08-3.33v-3.06h.6v3.07c0,3.38,0,3.15.08,3.32.08.17.22.29.41.36.07.03.1.03.23.03s.16,0,.23-.03c.19-.07.33-.19.41-.36.09-.18.08.29.08-5.51v-5.25h.6v1.96c0,1.35,0,1.98.01,2.03.03.17.13.31.28.38.09.04.1.05.2.05.08,0,.13,0,.18-.03.18-.07.29-.23.32-.44.02-.12.02-3.98,0-4.17-.07-.75-.59-1.36-1.3-1.52-.08-.02-.17-.03-.32-.03-.38,0-3.46-.01-3.58,0Z"/>
      <path class="cls-9" d="M238.6,13.32c-.45.08-.81.37-.99.78-.08.18-.11.34-.1.55,0,.12.01.2.03.27.1.38.34.69.69.86.65.32,1.43.06,1.75-.59.08-.16.11-.28.13-.45.04-.48-.18-.95-.57-1.21-.28-.19-.62-.26-.94-.2Z"/>
      <path class="cls-9" d="M237.23,16.21c-.47.07-.87.34-1.15.77-.13.2-.1.1-.61,1.79-.2.67-.42,1.39-.58,1.91-.07.22-.13.43-.13.48-.05.29.1.56.36.64.2.06.41,0,.55-.15.11-.12.09-.08.47-1.36.08-.28.21-.69.27-.9.06-.21.18-.61.26-.89l.15-.5h.27c.23,0,.27,0,.27.02,0,.01-.04.16-.09.34-.09.31-.35,1.26-1.03,3.71-.52,1.87-.53,1.91-.54,1.94,0,.02.04.02.8.02h.81v2.38c0,2.59,0,2.46.07,2.6.07.13.2.24.35.28.1.03.31.03.4,0,.18-.07.3-.19.37-.38.02-.07.02-.18.03-2.49v-2.42h.62v2.42c0,2.42,0,2.42.03,2.5.08.24.27.37.53.39.32.02.58-.18.63-.48,0-.05.01-.87.01-2.44v-2.36h.8c.52,0,.8,0,.8-.01,0,0-.09-.34-.2-.73-.11-.39-.25-.89-.31-1.11-.06-.22-.2-.72-.31-1.11-.34-1.23-.42-1.51-.51-1.83-.05-.17-.14-.51-.21-.75-.07-.25-.13-.45-.13-.46,0,0,.11-.01.29-.01h.29l.03.09c.02.05.04.13.05.17.01.04.07.23.13.42.06.19.15.5.21.7.06.2.15.49.19.65.18.61.27.89.33,1.12.04.13.08.26.1.3.1.27.34.42.59.38.28-.05.47-.31.45-.61,0-.09-.02-.13-.3-1.05-.25-.82-.65-2.14-.76-2.5-.05-.18-.12-.36-.15-.43-.07-.16-.21-.33-.38-.5-.31-.3-.66-.47-1.04-.53-.17-.03-2.87-.03-3.03,0Z"/>
    </g>
  </g>
  <g>
    <path d="M259.63,66.98c-.12.01-.66.04-1.21.06-.72.03-1.03.06-1.13.09-.19.07-.46.34-.6.6-.06.11-.2.29-.3.4l-.2.2h-.38c-.43,0-.54.04-.63.2-.11.22,0,.51.22.59.06.02.27.04.46.04h.34s.14.15.14.15c.2.2.35.27.63.27.26,0,.41-.06.59-.22.1-.09.11-.1.29-.06.52.1,1.43.47,2.32.93.28.14.51.26.52.26,0,0,0-.15,0-.34,0-.25-.03-.35-.07-.4-.07-.09-.77-.54-1.4-.91l-.52-.3h-.43q-.43,0-.47-.08c-.02-.05-.03-.1,0-.12.07-.07,1.89-.71,2.42-.86l.14-.04-.09-.16c-.12-.22-.24-.34-.32-.33-.04,0-.17.01-.28.03ZM257.08,68.44c.21.07.27.34.13.52-.07.08-.11.09-.23.09s-.17-.02-.23-.09c-.15-.17-.08-.44.12-.52.11-.04.11-.04.22,0Z"/>
    <path d="M254.52,68.41c-1.3.19-2.02,1.24-1.87,2.74.04.45.14.91.4,1.95.27,1.09.33,1.45.35,2.05.01.39,0,.59-.04.82-.03.17-.05.31-.05.32,0,0,.09.03.19.07s.24.09.31.12c.07.04.13.06.14.05.04-.04.12-.47.15-.8.07-.7-.02-1.4-.38-2.85-.29-1.18-.35-1.49-.37-1.96-.03-.66.08-1.05.37-1.37.09-.09.22-.2.29-.24.18-.1.55-.22.72-.22.12,0,.13,0,.1-.08-.03-.09-.03-.48,0-.58.03-.08.01-.09-.33-.04Z"/>
    <path d="M256.19,70.05v.39l-.28.14c-.54.27-.99.83-1.12,1.4-.03.14-.05.39-.05.75v.54h4.47v-.54c0-.6-.04-.8-.2-1.13-.2-.4-.53-.72-.98-.95l-.27-.14v-.35c0-.19,0-.38-.02-.43-.02-.07-.03-.07-.08-.03-.1.09-.36.19-.56.21-.25.03-.53-.03-.72-.15-.09-.06-.16-.1-.17-.1,0,0-.02.18-.02.39Z"/>
    <path d="M254.74,75.47v1.87h4.47v-3.74h-4.47v1.87ZM258.38,75.49v.89h-2.81v-1.79h2.81v.89Z"/>
    <path d="M252.83,76.65s-.31.46-.7,1.16l-.64,1.12.09.1c.12.12.72.42,1.13.56.17.06.41.11.54.12.21.01.22,0,.25-.06.02-.04.17-.6.34-1.23.21-.79.29-1.17.28-1.24-.08-.32-.97-.69-1.29-.53ZM252.43,78.77c.34.07.67.26.8.44.08.12.08.17,0,.17-.2,0-1.34-.47-1.32-.54,0-.03.2-.11.27-.12.02,0,.13.02.25.04Z"/>
    <path d="M254.74,79.33c0,1.89,0,1.85.25,2.14.09.1.23.21.34.26l.19.09h2.91l.19-.09c.11-.05.25-.16.34-.26.25-.28.25-.25.25-2.14v-1.66h-4.47v1.66Z"/>
  </g>
  <g>
    <path d="M431.41,227.88c-.12.01-.66.04-1.21.06-.72.03-1.03.06-1.13.09-.19.07-.46.34-.6.6-.06.11-.2.29-.3.4l-.2.2h-.38c-.43,0-.54.04-.63.2-.11.22,0,.51.22.59.06.02.27.04.46.04h.34s.14.15.14.15c.2.2.35.27.63.27.26,0,.41-.06.59-.22.1-.09.11-.1.29-.06.52.1,1.43.47,2.32.93.28.14.51.26.52.26,0,0,0-.15,0-.34,0-.25-.03-.35-.07-.4-.07-.09-.77-.54-1.4-.91l-.52-.3h-.43q-.43,0-.47-.08c-.02-.05-.03-.1,0-.12.07-.07,1.89-.71,2.42-.86l.14-.04-.09-.16c-.12-.22-.24-.34-.32-.33-.04,0-.17.01-.28.03ZM428.86,229.34c.21.07.27.34.13.52-.07.08-.11.09-.23.09s-.17-.02-.23-.09c-.15-.17-.08-.44.12-.52.11-.04.11-.04.22,0Z"/>
    <path d="M426.3,229.31c-1.3.19-2.02,1.24-1.87,2.74.04.45.14.91.4,1.95.27,1.09.33,1.45.35,2.05.01.39,0,.59-.04.82-.03.17-.05.31-.05.32,0,0,.09.03.19.07s.24.09.31.12c.07.04.13.06.14.05.04-.04.12-.47.15-.8.07-.7-.02-1.4-.38-2.85-.29-1.18-.35-1.49-.37-1.96-.03-.66.08-1.05.37-1.37.09-.09.22-.2.29-.24.18-.1.55-.22.72-.22.12,0,.13,0,.1-.08-.03-.09-.03-.48,0-.58.03-.08.01-.09-.33-.04Z"/>
    <path d="M427.97,230.95v.39l-.28.14c-.54.27-.99.83-1.12,1.4-.03.14-.05.39-.05.75v.54h4.47v-.54c0-.6-.04-.8-.2-1.13-.2-.4-.53-.72-.98-.95l-.27-.14v-.35c0-.19,0-.38-.02-.43-.02-.07-.03-.07-.08-.03-.1.09-.36.19-.56.21-.25.03-.53-.03-.72-.15-.09-.06-.16-.1-.17-.1,0,0-.02.18-.02.39Z"/>
    <path d="M426.51,236.37v1.87h4.47v-3.74h-4.47v1.87ZM430.15,236.39v.89h-2.81v-1.79h2.81v.89Z"/>
    <path d="M424.61,237.55s-.31.46-.7,1.16l-.64,1.12.09.1c.12.12.72.42,1.13.56.17.06.41.11.54.12.21.01.22,0,.25-.06.02-.04.17-.6.34-1.23.21-.79.29-1.17.28-1.24-.08-.32-.97-.69-1.29-.53ZM424.2,239.67c.34.07.67.26.8.44.08.12.08.17,0,.17-.2,0-1.34-.47-1.32-.54,0-.03.2-.11.27-.12.02,0,.13.02.25.04Z"/>
    <path d="M426.51,240.23c0,1.89,0,1.85.25,2.14.09.1.23.21.34.26l.19.09h2.91l.19-.09c.11-.05.25-.16.34-.26.25-.28.25-.25.25-2.14v-1.66h-4.47v1.66Z"/>
  </g>
  <g>
    <path d="M244.8,173.93c-.56,0-1.02.46-1.02,1.02s.46,1.02,1.02,1.02,1.02-.46,1.02-1.02-.46-1.02-1.02-1.02Z"/>
    <path d="M249.16,173.93c-.56,0-1.02.46-1.02,1.02s.46,1.02,1.02,1.02,1.02-.46,1.02-1.02c0-.56-.46-1.02-1.02-1.02Z"/>
    <path d="M253.52,173.93c-.56,0-1.02.46-1.02,1.02s.46,1.02,1.02,1.02,1.02-.46,1.02-1.02-.46-1.02-1.02-1.02Z"/>
    <path d="M255.85,169.07h-13.38c-1.03,0-1.86.84-1.86,1.86v14.32c0,1.03.84,1.86,1.86,1.86h13.38c1.03,0,1.86-.84,1.86-1.86v-14.32c0-1.03-.84-1.86-1.86-1.86ZM244.62,185.94l.18-4.09.18,4.09h-.36ZM248.98,185.94l.18-4.09.18,4.09h-.36ZM253.34,185.94l.18-4.09.18,4.09h-.36ZM256.54,185.25c0,.38-.31.69-.69.69h-1.21l.03-4.78c.08.11.2.18.34.18.22-.01.39-.2.38-.42l.17-3.4c0-1.34-1.36-1.4-2.04-1.4s-2.04.07-2.04,1.4l.11,3.4c-.01.22.16.41.38.42.19,0,.35-.12.4-.3l.03,4.9h-2.12l.03-4.78c.08.11.2.18.34.18.22-.01.39-.2.38-.42l.17-3.4c0-1.34-1.36-1.4-2.04-1.4s-2.04.07-2.04,1.4l.11,3.4c-.01.22.16.41.38.42.19,0,.35-.12.4-.3l.03,4.91h-2.12l.03-4.78c.08.11.2.18.34.18.22-.01.39-.2.38-.42l.17-3.4c0-1.34-1.35-1.4-2.04-1.4s-2.04.07-2.04,1.4l.11,3.4c-.01.22.16.41.38.42.19,0,.35-.12.4-.3l.03,4.91h-1.21c-.38,0-.69-.31-.69-.69v-14.32c0-.38.31-.69.69-.69h13.38c.38,0,.69.31.69.69v14.32h0Z"/>
    <path d="M250.49,166l1.4-1.4v3.14c0,.29.23.52.52.52s.52-.23.52-.52v-3.14l1.4,1.4c.1.1.23.15.37.15s.27-.05.37-.15c.2-.2.2-.53,0-.73l-2.28-2.28-.37-.37-.37.37-2.28,2.28c-.2.2-.2.53,0,.73.2.2.53.2.73,0Z"/>
    <path d="M245.54,168.11h0s.37.37.37.37l.37-.37s0,0,0,0l2.28-2.28c.2-.2.2-.53,0-.73-.2-.2-.53-.2-.73,0l-1.4,1.4v-3.14c0-.29-.23-.52-.52-.52s-.52.23-.52.52v3.14l-1.4-1.4c-.2-.2-.53-.2-.73,0-.2.2-.2.53,0,.73l2.28,2.28Z"/>
  </g>
  <g>
    <path d="M428.42,269.05v10.01h20.18v-20.01h-20.18v10.01ZM444.61,266.52v6.14l.31.05c.36.06.82.27,1.01.46.32.32.88,1.34.89,1.62,0,.13,0,.14-.16.17-.09.02-.59.03-1.11.03h-.95v2.63l.45.46c.46.48.61.67.57.71-.05.05-2.48.09-5.13.09h-2.67s-.71-.68-.71-.68l-.71-.68h-1.83l.64.62c.58.56.64.63.56.67-.05.03-.46.06-1.14.07l-1.05.02-.6-.6-.6-.6v-8.45h2.59s.54-.63.54-.63c.75-.87.93-1.07,1-1.07.05,0,.54,1,.98,2.01l.17.37-1.45,2.93c-1.76,3.55-1.96,3.99-1.87,4.04.08.05.63.05,1.02,0,.35-.05.69-.19.83-.34.13-.14.64-1.09,1.74-3.25,1.13-2.2,1.39-2.68,1.44-2.67.06.02.1.3.14,1.36.05,1.04.13,1.74.23,2.1.11.39-.08.37,3.24.37,2.96,0,3.13,0,3.19-.17.03-.08-.21-.54-.4-.76-.09-.1-.22-.21-.29-.24-.24-.12-.76-.18-2.15-.22-.76-.02-1.56-.05-1.76-.07l-.38-.02-.12-1.73-.12-1.73-.15-.35c-.09-.2-.37-.81-.64-1.36-.27-.55-.48-1.03-.48-1.07,0-.09.2-.11.93-.1h.66s.4.71.4.71c.66,1.15.98,1.53,1.28,1.53.14,0,.44-.2.51-.34.13-.25-.03-.72-.59-1.68-.6-1.04-.83-1.29-1.31-1.44-.28-.09-.34-.09-2.39-.09-1.64,0-2.15.01-2.32.06-.21.05-.27.1-.66.5-.24.24-.73.81-1.1,1.24l-.66.79h-1.03s-1.03,0-1.03,0v-7.56h12.21v6.14Z"/>
    <path d="M436.39,262.32c-.46.13-.83.67-.85,1.22,0,.41.39,1.06.78,1.27.1.05.23.07.51.07.32,0,.41-.02.61-.12.51-.25.74-.64.76-1.27,0-.31,0-.37-.11-.54-.14-.23-.49-.56-.68-.65-.19-.08-.73-.07-1.02.02Z"/>
  </g>
</svg>