<?xml version="1.0" encoding="UTF-8"?>
<svg id="_レイヤー_1" data-name="レイヤー 1" xmlns="http://www.w3.org/2000/svg" viewBox="0 0 455.1 421.29">
  <defs>
    <style>
      .cls-1, .cls-2, .cls-3, .cls-4, .cls-5, .cls-6 {
        stroke-miterlimit: 10;
      }

      .cls-1, .cls-2, .cls-3, .cls-6 {
        fill: none;
      }

      .cls-1, .cls-2, .cls-4, .cls-6 {
        stroke: #6fba2d;
      }

      .cls-2 {
        stroke-width: 3px;
      }

      .cls-3 {
        stroke: #3b7960;
      }

      .cls-7 {
        fill: #ef4444;
      }

      .cls-8 {
        fill: #3b82f6;
      }

      .cls-4 {
        fill: #6fba2d;
      }

      .cls-5 {
        fill: #028760;
        font-family: BIZ-UDGothic, 'BIZ UDGothic';
        font-size: 14.56px;
        stroke: #028760;
      }

      .cls-6 {
        stroke-width: 2px;
      }
    </style>
  </defs>
  <g>
    <path d="M431.71,268.93v9.85h19.87v-19.7h-19.87v9.85ZM447.65,266.43v6.04l.3.05c.36.06.81.26,1,.45.31.31.87,1.32.88,1.6,0,.13,0,.14-.16.17-.09.02-.58.03-1.09.03h-.93v2.59l.45.46c.46.47.6.66.56.7-.05.04-2.44.09-5.05.09h-2.63s-.7-.67-.7-.67l-.7-.67h-1.8l.63.61c.57.56.63.62.56.66-.05.03-.45.06-1.12.07l-1.04.02-.59-.59-.59-.59v-8.32h2.55s.53-.62.53-.62c.74-.86.92-1.05.98-1.05.04,0,.53.98.97,1.97l.16.36-1.43,2.89c-1.73,3.49-1.93,3.92-1.84,3.98.08.05.62.04,1.01,0,.34-.05.68-.18.82-.33.13-.14.63-1.07,1.72-3.2,1.11-2.17,1.37-2.64,1.42-2.62.06.02.09.3.14,1.34.05,1.03.13,1.71.23,2.07.11.38-.08.36,3.19.36,2.91,0,3.08,0,3.14-.16.03-.08-.21-.53-.4-.74-.09-.1-.22-.21-.29-.24-.24-.12-.75-.18-2.11-.22-.75-.02-1.54-.05-1.74-.07l-.37-.02-.11-1.7-.12-1.7-.15-.35c-.09-.19-.37-.79-.63-1.34-.26-.54-.47-1.02-.47-1.05,0-.09.2-.11.92-.09h.65s.39.69.39.69c.65,1.13.96,1.5,1.26,1.5.14,0,.43-.19.51-.33.13-.25-.03-.71-.58-1.66-.59-1.03-.81-1.27-1.29-1.42-.28-.09-.34-.09-2.35-.09-1.61,0-2.11.01-2.29.06-.2.05-.26.09-.65.49-.24.24-.72.79-1.08,1.22l-.65.78h-1.01s-1.01,0-1.01,0v-7.44h12.02v6.05Z"/>
    <path d="M439.56,262.3c-.45.13-.82.66-.83,1.2,0,.4.38,1.05.76,1.25.1.05.22.07.5.07.32,0,.4-.02.6-.11.5-.25.73-.63.74-1.25,0-.31,0-.37-.11-.53-.13-.23-.48-.56-.67-.64-.18-.08-.72-.07-1,.02Z"/>
  </g>
  <g>
    <path d="M433.62,227.1c-.13.01-.71.05-1.3.07-.78.03-1.11.06-1.22.1-.2.07-.49.37-.65.65-.06.12-.21.31-.33.43l-.22.21h-.41c-.46,0-.58.04-.67.21-.12.24,0,.55.23.63.07.02.29.04.5.04h.37s.15.16.15.16c.21.22.38.29.68.29.28,0,.45-.06.63-.24.11-.1.11-.1.31-.06.56.11,1.54.51,2.5,1,.3.15.55.28.56.28,0,0,0-.16-.01-.37-.01-.27-.03-.38-.07-.43-.08-.09-.83-.58-1.5-.98l-.56-.33h-.47q-.47,0-.51-.09c-.02-.06-.03-.1,0-.12.07-.07,2.04-.77,2.61-.93l.15-.04-.09-.17c-.13-.23-.26-.36-.35-.36-.04,0-.18.01-.31.03ZM430.86,228.67c.22.08.3.37.14.56-.07.08-.11.1-.25.1s-.18-.02-.25-.1c-.16-.18-.09-.47.13-.56.12-.05.11-.05.24,0Z"/>
    <path d="M428.11,228.64c-1.4.21-2.18,1.34-2.01,2.95.05.49.15.98.43,2.1.29,1.17.36,1.56.38,2.21.01.42,0,.63-.04.89-.03.19-.05.34-.05.34,0,0,.1.04.21.07s.26.09.33.13c.08.04.14.06.15.06.04-.04.13-.5.16-.86.08-.76-.02-1.51-.41-3.07-.32-1.27-.38-1.61-.4-2.11-.03-.71.08-1.13.4-1.48.1-.1.24-.22.32-.26.19-.11.6-.23.77-.23.13,0,.14,0,.11-.08-.04-.1-.03-.52,0-.62.03-.09.01-.09-.35-.04Z"/>
    <path d="M429.91,230.41v.42l-.31.15c-.58.29-1.06.89-1.21,1.5-.04.15-.05.42-.05.81v.58h4.81v-.58c0-.64-.04-.86-.21-1.22-.21-.43-.57-.78-1.06-1.02l-.3-.15v-.38c0-.21-.01-.41-.02-.46-.02-.07-.03-.07-.08-.03-.11.1-.38.2-.6.22-.27.03-.57-.04-.77-.16-.09-.06-.17-.11-.18-.11-.01,0-.02.19-.02.42Z"/>
    <path d="M428.34,236.24v2.01h4.81v-4.03h-4.81v2.01ZM432.26,236.26v.96h-3.03v-1.92h3.03v.96Z"/>
    <path d="M426.29,237.52s-.34.5-.76,1.25l-.68,1.21.1.11c.12.13.78.45,1.22.6.19.06.45.12.58.13.23.01.24.01.27-.07.02-.05.19-.64.36-1.33.22-.86.32-1.27.3-1.33-.09-.35-1.05-.74-1.39-.57ZM425.85,239.8c.37.08.73.28.86.48.08.12.08.19,0,.19-.22,0-1.44-.51-1.42-.58.01-.04.21-.12.29-.12.02,0,.14.02.27.05Z"/>
    <path d="M428.34,240.41c0,2.03,0,2,.27,2.3.09.1.25.22.36.28l.2.1h3.14l.2-.1c.12-.06.27-.17.36-.28.27-.31.27-.27.27-2.3v-1.79h-4.81v1.79Z"/>
  </g>
  <g>
    <path d="M258.6,68.86c-.13.01-.71.05-1.3.07-.78.03-1.11.06-1.22.1-.2.07-.49.37-.65.65-.06.12-.21.31-.33.43l-.22.21h-.41c-.46,0-.58.04-.67.21-.12.24,0,.55.23.63.07.02.29.04.5.04h.37s.15.16.15.16c.21.22.38.29.68.29.28,0,.45-.06.63-.24.11-.1.11-.1.31-.06.56.11,1.54.51,2.5,1,.3.15.55.28.56.28,0,0,0-.16-.01-.37-.01-.27-.03-.38-.07-.43-.08-.09-.83-.58-1.5-.98l-.56-.33h-.47q-.47,0-.51-.09c-.02-.06-.03-.1,0-.12.07-.07,2.04-.77,2.61-.93l.15-.04-.09-.17c-.13-.23-.26-.36-.35-.36-.04,0-.18.01-.31.03ZM255.85,70.43c.22.08.3.37.14.56-.07.08-.11.1-.25.1s-.18-.02-.25-.1c-.16-.18-.09-.47.13-.56.12-.05.11-.05.24,0Z"/>
    <path d="M253.09,70.4c-1.4.21-2.18,1.34-2.01,2.95.05.49.15.98.43,2.1.29,1.17.36,1.56.38,2.21.01.42,0,.63-.04.89-.03.19-.05.34-.05.34,0,0,.1.04.21.07s.26.09.33.13c.08.04.14.06.15.06.04-.04.13-.5.16-.86.08-.76-.02-1.51-.41-3.07-.32-1.27-.38-1.61-.4-2.11-.03-.71.08-1.13.4-1.48.1-.1.24-.22.32-.26.19-.11.6-.23.77-.23.13,0,.14,0,.11-.08-.04-.1-.03-.52,0-.62.03-.09.01-.09-.35-.04Z"/>
    <path d="M254.89,72.17v.42l-.31.15c-.58.29-1.06.89-1.21,1.5-.04.15-.05.42-.05.81v.58h4.81v-.58c0-.64-.04-.86-.21-1.22-.21-.43-.57-.78-1.06-1.02l-.3-.15v-.38c0-.21-.01-.41-.02-.46-.02-.07-.03-.07-.08-.03-.11.1-.38.2-.6.22-.27.03-.57-.04-.77-.16-.09-.06-.17-.11-.18-.11-.01,0-.02.19-.02.42Z"/>
    <path d="M253.33,78v2.01h4.81v-4.03h-4.81v2.01ZM257.25,78.02v.96h-3.03v-1.92h3.03v.96Z"/>
    <path d="M251.27,79.28s-.34.5-.76,1.25l-.68,1.21.1.11c.12.13.78.45,1.22.6.19.06.45.12.58.13.23.01.24.01.27-.07.02-.05.19-.64.36-1.33.22-.86.32-1.27.3-1.33-.09-.35-1.05-.74-1.39-.57ZM250.83,81.56c.37.08.73.28.86.48.08.12.08.19,0,.19-.22,0-1.44-.51-1.42-.58.01-.04.21-.12.29-.12.02,0,.14.02.27.05Z"/>
    <path d="M253.33,82.17c0,2.03,0,2,.27,2.3.09.1.25.22.36.28l.2.1h3.14l.2-.1c.12-.06.27-.17.36-.28.27-.31.27-.27.27-2.3v-1.79h-4.81v1.79Z"/>
  </g>
  <g>
    <path d="M249.57,15.88c-.18.05-.25.08-.41.18-.47.3-.7.88-.56,1.4.09.36.36.69.68.84.11.05.18.1.19.13,0,.03.16,1.02.34,2.2.36,2.33.35,2.3.53,2.42.05.03.13.07.18.08.06.02.8.03,2.01.03h1.92l.59,1.91c.33,1.05.61,1.94.63,1.98.05.1.15.19.26.24.18.08.28.05,1.06-.26.4-.16.76-.32.8-.35.18-.17.21-.47.07-.68-.08-.12-.28-.23-.42-.23-.05,0-.28.08-.53.18-.29.12-.45.17-.45.15,0-.02-.27-.85-.58-1.86-.42-1.34-.59-1.85-.64-1.92-.04-.05-.12-.11-.18-.14-.11-.05-.13-.05-2.04-.05h-1.93l-.07-.47c-.04-.26-.08-.49-.08-.52v-.06s1.09,0,1.09,0h1.11s.12-.08.12-.08c.34-.21.32-.71-.03-.9-.07-.04-.22-.05-1.28-.06h-1.2s-.14-.88-.14-.88c-.11-.72-.13-.87-.1-.89.22-.13.45-.4.55-.68.07-.18.09-.5.05-.7-.07-.34-.33-.7-.65-.87-.27-.15-.63-.2-.92-.13Z"/>
    <path d="M248.28,20.57s-.19.1-.31.18c-1.08.71-1.78,1.79-1.97,3.08-.05.33-.05.97,0,1.29.15.96.57,1.8,1.25,2.47.69.69,1.53,1.11,2.5,1.27.32.05,1.07.04,1.38-.01.53-.1,1.02-.27,1.47-.53.39-.22.61-.4.94-.73.35-.35.58-.67.8-1.09.14-.28.16-.33.16-.46,0-.17-.05-.27-.17-.38-.18-.16-.44-.18-.64-.04-.08.06-.14.13-.25.34-.19.36-.35.6-.6.86-.47.49-1.07.83-1.75.98-.35.08-.99.08-1.32.02-.7-.15-1.26-.44-1.73-.9-.69-.67-1.03-1.49-1.03-2.46,0-.68.19-1.29.58-1.89.19-.29.61-.71.91-.9.31-.2.39-.28.44-.44.05-.16.03-.27-.07-.43-.12-.19-.39-.29-.59-.21Z"/>
  </g>
  <g>
    <path class="cls-8" d="M233.17,14.44c-.27.05-.49.17-.67.36-.45.48-.43,1.23.05,1.68.3.28.73.39,1.14.28.12-.03.32-.13.43-.22.37-.3.53-.8.4-1.26-.11-.38-.39-.67-.76-.8-.19-.06-.41-.08-.59-.05Z"/>
    <path class="cls-8" d="M231.65,17.07c-.2.01-.37.06-.55.15-.48.24-.8.71-.84,1.26,0,.1-.01.72,0,2.03v1.89s.03.07.03.07c.05.14.14.24.26.3.05.02.08.03.18.03.12,0,.13,0,.19-.03.13-.06.22-.19.26-.34.01-.05.01-.46.01-1.89v-1.83h.57v4.87c0,4.24,0,4.88.02,4.95.06.31.34.53.65.53.09,0,.23-.04.32-.08.1-.05.22-.18.28-.28.08-.16.08.06.08-3.09v-2.84h.56v2.85c0,3.14,0,2.92.07,3.08.08.15.21.27.38.33.07.03.09.03.21.03s.15,0,.21-.03c.18-.07.31-.18.38-.33.08-.16.08.27.08-5.12v-4.87h.56v1.82c0,1.26,0,1.84.01,1.89.03.16.12.29.26.36.08.04.09.04.19.04.08,0,.12,0,.16-.02.16-.07.27-.21.3-.41.01-.11.01-3.69,0-3.87-.06-.7-.54-1.26-1.21-1.41-.07-.02-.16-.02-.3-.03-.35,0-3.21-.01-3.32,0Z"/>
    <path class="cls-7" d="M240.58,14.44c-.42.08-.75.34-.92.73-.07.17-.1.32-.09.51,0,.11.01.19.03.25.09.36.32.64.64.79.6.3,1.33.05,1.62-.55.07-.15.11-.26.12-.42.04-.44-.17-.88-.53-1.12-.26-.17-.58-.24-.87-.19Z"/>
    <path class="cls-7" d="M239.31,17.12c-.44.07-.81.31-1.07.71-.12.19-.09.09-.57,1.66-.19.62-.39,1.29-.54,1.77-.06.2-.12.4-.12.44-.05.27.09.52.33.59.19.06.38,0,.51-.14.1-.11.08-.07.44-1.26.08-.26.19-.64.25-.84.06-.2.17-.57.24-.82l.14-.46h.25c.21,0,.25,0,.25.02,0,0-.04.15-.08.31-.08.29-.32,1.17-.96,3.44-.48,1.73-.49,1.77-.5,1.8,0,.02.03.02.74.02h.75v2.21c0,2.4,0,2.28.07,2.41.06.12.18.22.32.26.09.03.28.03.37,0,.17-.06.28-.18.34-.35.02-.06.02-.17.02-2.31v-2.24h.57v2.25c0,2.24,0,2.25.02,2.32.07.22.25.35.49.36.29.02.54-.17.58-.45,0-.05.01-.81.01-2.27v-2.19h.74c.48,0,.74,0,.74-.01,0,0-.08-.31-.19-.68-.1-.37-.23-.83-.29-1.03-.06-.2-.19-.67-.29-1.03-.32-1.14-.39-1.4-.48-1.69-.04-.16-.13-.47-.2-.7-.07-.23-.12-.42-.12-.43,0,0,.1-.01.27-.01h.27l.02.08s.03.12.05.15c.01.04.06.21.12.39.05.18.14.47.19.65.05.18.13.45.18.6.17.57.25.83.31,1.04.03.12.08.24.09.28.1.25.32.39.54.35.26-.05.43-.28.41-.57,0-.09-.02-.12-.28-.98-.23-.76-.6-1.99-.7-2.32-.05-.17-.11-.34-.14-.4-.07-.14-.2-.31-.35-.46-.29-.27-.61-.44-.97-.49-.16-.02-2.66-.02-2.81,0Z"/>
  </g>
  <g>
    <path d="M246.84,172.95c-.52,0-.95.42-.95.95s.42.95.95.95.95-.42.95-.95-.43-.95-.95-.95Z"/>
    <path d="M250.89,172.95c-.52,0-.95.42-.95.95s.43.95.95.95.95-.42.95-.95c0-.52-.43-.95-.95-.95Z"/>
    <path d="M254.94,172.95c-.52,0-.95.42-.95.95s.43.95.95.95.95-.42.95-.95-.43-.95-.95-.95Z"/>
    <path d="M257.11,168.43h-12.44c-.96,0-1.73.78-1.73,1.73v13.31c0,.96.78,1.73,1.73,1.73h12.44c.96,0,1.73-.78,1.73-1.73v-13.31c0-.96-.78-1.73-1.73-1.73ZM246.67,184.12l.17-3.81.17,3.81h-.34ZM250.72,184.12l.17-3.81.17,3.81h-.34ZM254.78,184.12l.17-3.81.17,3.81h-.34ZM257.75,183.48c0,.35-.29.64-.64.64h-1.12l.03-4.44c.07.1.18.17.32.17.2,0,.36-.18.35-.39l.16-3.16c0-1.24-1.26-1.3-1.9-1.3s-1.9.06-1.9,1.3l.11,3.16c0,.2.15.38.35.39.18,0,.33-.11.37-.28l.03,4.56h-1.97l.03-4.44c.07.1.18.17.32.17.2,0,.36-.18.35-.39l.16-3.16c0-1.24-1.26-1.3-1.9-1.3s-1.9.06-1.9,1.3l.11,3.16c0,.2.15.38.35.39.18,0,.33-.11.37-.28l.03,4.56h-1.97l.03-4.44c.07.1.18.17.32.17.2,0,.36-.18.35-.39l.16-3.16c0-1.24-1.26-1.3-1.9-1.3s-1.9.06-1.9,1.3l.11,3.16c0,.2.15.38.35.39.18,0,.33-.11.37-.28l.03,4.56h-1.12c-.35,0-.64-.29-.64-.64v-13.31c0-.35.29-.64.64-.64h12.44c.35,0,.64.29.64.64v13.31h0Z"/>
    <path d="M252.13,165.58l1.3-1.3v2.92c0,.27.22.48.48.48s.48-.22.48-.48v-2.92l1.3,1.3c.09.09.22.14.34.14s.25-.05.34-.14c.19-.19.19-.49,0-.68l-2.12-2.12-.34-.34-.34.34-2.12,2.12c-.19.19-.19.49,0,.68.19.19.49.19.68,0Z"/>
    <path d="M247.53,167.55h0s.34.34.34.34l.34-.34s0,0,0,0l2.12-2.12c.19-.19.19-.49,0-.68-.19-.19-.49-.19-.68,0l-1.3,1.3v-2.92c0-.27-.22-.48-.48-.48s-.48.22-.48.48v2.92l-1.3-1.3c-.19-.19-.49-.19-.68,0-.19.19-.19.49,0,.68l2.12,2.12Z"/>
  </g>
  <g>
    <polyline class="cls-2" points="285.43 72.93 274.71 66.47 260.72 66.47 260.72 4.62 34.1 1.51 1.51 30.33 3.25 202.25 21.25 202.44 32.38 224.82 143.64 288.88 143.89 308.68 335.17 419.25 446.27 230.12 445.29 96.22 370.68 96.77 358.65 116.29 318.53 91.01 307.84 85.01"/>
    <g>
      <polyline class="cls-6" points="21.5 202.6 62.98 202.11 62.89 1.51"/>
      <line class="cls-6" x1="86.7" y1="214.47" x2="62.98" y2="201.38"/>
      <polyline class="cls-6" points="62.7 152.94 163.06 153.05 173.86 135.6"/>
      <polyline class="cls-6" points="85.61 152.62 85.72 125.59 142.31 126.14 142.39 152.89"/>
      <polyline class="cls-6" points="186.08 113.89 196.99 95.46 227.53 95.78 227.75 4.04 196.54 3.98 196.56 7.17"/>
      <line class="cls-6" x1="196.86" y1="92.87" x2="196.88" y2="95.45"/>
      <line class="cls-6" x1="196.9" y1="77.86" x2="196.92" y2="23.47"/>
      <line class="cls-6" x1="227.83" y1="38.04" x2="260.68" y2="38.08"/>
      <line class="cls-6" x1="244.97" y1="38.2" x2="245.01" y2="66.47"/>
      <line class="cls-6" x1="244.44" y1="66.43" x2="259.86" y2="66.51"/>
      <line class="cls-6" x1="115.5" y1="231.76" x2="360.72" y2="373.24"/>
      <line class="cls-6" x1="178.46" y1="328.56" x2="278.64" y2="157.48"/>
      <polyline class="cls-6" points="160.74 257.5 212.07 170.26 217.3 173.23 166.47 260.91"/>
      <polyline class="cls-6" points="178.52 240.4 247.93 280.55 306.59 177.98 276.97 160.72"/>
      <line class="cls-6" x1="143.48" y1="288.35" x2="143.75" y2="248.26"/>
      <polyline class="cls-6" points="255.59 196.33 231.13 181.55 246.46 155.24 271.38 169.53"/>
      <path class="cls-6" d="M239.69,224.45c.12.04,30.23,17.59,30.23,17.59"/>
      <line class="cls-6" x1="286.14" y1="144.16" x2="318.53" y2="91.09"/>
      <line class="cls-6" x1="289.3" y1="139.25" x2="445.92" y2="230.53"/>
      <polyline class="cls-6" points="396.5 315.7 424.54 332.93 454.1 283.08 454.1 247.3 440.9 238.9"/>
    </g>
    <g>
      <polygon class="cls-1" points="206.64 233.04 223 204.81 224.64 205.55 208.28 234.27 206.64 233.04"/>
      <line class="cls-1" x1="189.21" y1="222.32" x2="206.48" y2="232.47"/>
      <line class="cls-1" x1="190.77" y1="219.13" x2="208.28" y2="229.28"/>
      <line class="cls-1" x1="192.65" y1="215.94" x2="210.4" y2="226.41"/>
      <line class="cls-1" x1="194.29" y1="213.16" x2="211.88" y2="223.14"/>
      <line class="cls-1" x1="195.84" y1="210.13" x2="213.84" y2="220.28"/>
      <line class="cls-1" x1="197.56" y1="207.1" x2="215.48" y2="217"/>
      <line class="cls-1" x1="199.44" y1="203.83" x2="217.28" y2="213.98"/>
      <line class="cls-1" x1="201.24" y1="200.48" x2="219.16" y2="210.79"/>
      <line class="cls-1" x1="203.04" y1="197.7" x2="220.96" y2="207.84"/>
      <line class="cls-1" x1="205.17" y1="194.91" x2="223" y2="204.81"/>
      <line class="cls-1" x1="210.24" y1="230.34" x2="229.3" y2="241.38"/>
      <line class="cls-1" x1="212.04" y1="227.39" x2="230.78" y2="238.19"/>
      <line class="cls-1" x1="214.17" y1="224.37" x2="232.66" y2="235.33"/>
      <line class="cls-1" x1="405.2" y1="300.86" x2="419.6" y2="309.7"/>
      <line class="cls-1" x1="406.18" y1="297.59" x2="421.65" y2="306.75"/>
      <line class="cls-1" x1="407.66" y1="294.64" x2="423.2" y2="303.48"/>
      <line class="cls-1" x1="409.78" y1="291.45" x2="424.67" y2="300.54"/>
      <line class="cls-1" x1="411.91" y1="288.92" x2="426.39" y2="297.43"/>
      <line class="cls-1" x1="413.63" y1="285.81" x2="428.44" y2="294.56"/>
      <line class="cls-1" x1="415.43" y1="283.03" x2="429.83" y2="291.21"/>
      <line class="cls-1" x1="417.15" y1="279.75" x2="431.87" y2="288.35"/>
      <line class="cls-1" x1="419.19" y1="277.06" x2="433.84" y2="285.24"/>
      <polygon class="cls-1" points="417.8 312.81 436.78 280.98 438.5 281.72 419.93 314.12 417.8 312.81"/>
      <line class="cls-1" x1="431.38" y1="320.74" x2="419.93" y2="314.12"/>
      <line class="cls-1" x1="432.94" y1="317.88" x2="421.89" y2="311.25"/>
      <line class="cls-1" x1="434.82" y1="314.61" x2="423.53" y2="308.06"/>
      <line class="cls-1" x1="436.7" y1="311.42" x2="425.41" y2="304.95"/>
      <line class="cls-1" x1="438.66" y1="308.31" x2="427.29" y2="301.84"/>
      <line class="cls-1" x1="440.46" y1="305.28" x2="429.01" y2="298.82"/>
    </g>
    <circle class="cls-4" cx="232.06" cy="139.55" r="4.85"/>
    <g>
      <polygon class="cls-2" points="74.68 292.27 60.6 298.57 76.56 307.74 74.68 292.27"/>
      <line class="cls-2" x1="46.7" y1="340.62" x2="74.68" y2="292.27"/>
    </g>
  </g>
  <g>
    <text class="cls-5" transform="translate(83.79 103.98)"><tspan x="0" y="0">アクアルーム</tspan></text>
    <rect class="cls-3" x="77.4" y="82.27" width="100.14" height="32.36" rx="14.67" ry="14.67"/>
  </g>
  <g>
    <text class="cls-5" transform="translate(301.39 312.82)"><tspan x="0" y="0">飼育ルーム</tspan></text>
    <rect class="cls-3" x="287.73" y="291.1" width="100.14" height="32.36" rx="14.67" ry="14.67"/>
  </g>
</svg>