<svg width="346" height="115" viewBox="0 0 346 115" fill="none" xmlns="http://www.w3.org/2000/svg">
<path d="M260.901 32.3134L265.515 23.814M260.901 32.3134H277.9M260.901 32.3134L255.509 42.184M23.4601 70.3368L1 112.386L159.804 113.068M23.4601 70.3368H69.8895L86.0224 41.2601M23.4601 70.3368L38.9911 41.2601M108.36 1H72.1261M108.36 1L90.4899 33.2081M108.36 1H130.28M72.1261 1H60.4954L38.9911 41.2601M72.1261 1L55.1274 33.2081H90.4899M90.4899 33.2081L86.0224 41.2601M38.9911 41.2601H86.0224M130.28 1L88.6775 77.9415H123.122M130.28 1H164.277M164.277 1H221.088M164.277 1L123.122 77.9415M168.303 97.1769H112.834L123.122 77.9415M168.303 97.1769L159.804 113.068M168.303 97.1769L208.567 23.814M221.088 1H277.9L265.515 23.814M221.088 1L208.567 23.814M159.804 113.068L313.687 113.728L331.511 80.6255M208.567 23.814H265.515M331.511 80.6255L345 55.5748H301.161M331.511 80.6255H286.399M286.399 80.6255L301.161 55.5748M286.399 80.6255H268.059M301.161 55.5748H298.925L303.35 47.0527M301.161 55.5748H293.557M268.059 80.6255H234.508L248.194 55.5748M268.059 80.6255L281.479 55.5748M281.479 55.5748H280.584M281.479 55.5748H283.715M248.194 55.5748H264.836M248.194 55.5748L252.849 47.0527M264.836 55.5748L270.462 47.0527M264.836 55.5748H269.401M274.321 39.9181V41.2601L273.705 42.184M274.321 39.9181L277.9 32.3134M274.321 39.9181H277.9M277.9 32.3134H281.702M273.705 42.184H255.509M273.705 42.184L272.83 43.4967M255.509 42.184L254.792 43.4967M272.83 43.4967H254.792M272.83 43.4967L271.551 45.415M254.792 43.4967L253.744 45.415M253.744 45.415H271.551M253.744 45.415L252.849 47.0527M271.551 45.415L270.743 46.6281L270.462 47.0527M252.849 47.0527H270.462M270.462 47.0527H274.321M303.35 47.0527H298.925M303.35 47.0527L304.2 45.415M269.401 55.5748L274.321 47.0527M269.401 55.5748H272.83M274.321 47.0527H277.9M272.83 55.5748L277.9 47.0527M272.83 55.5748H277.154M277.9 47.0527H281.479M277.154 55.5748L281.479 47.0527M277.154 55.5748H280.584M281.479 47.0527H284.61M280.584 55.5748L284.61 47.0527M284.61 47.0527H288.189M283.715 55.5748L288.189 47.0527M283.715 55.5748H286.847M288.189 47.0527H291.767M286.847 55.5748L291.767 47.0527M286.847 55.5748H290.425M291.767 47.0527H294.899M290.425 55.5748L294.899 47.0527M290.425 55.5748H293.557M294.899 47.0527H298.925M293.557 55.5748L298.925 47.0527M288.189 39.9181L292.662 32.3134M288.189 39.9181H285.505M288.189 39.9181L286.98 42.184M288.189 39.9181H307.054M292.662 32.3134H311.003L307.054 39.9181M292.662 32.3134H289.083M285.505 39.9181L289.083 32.3134M285.505 39.9181H281.479M289.083 32.3134H285.505M281.479 39.9181L285.505 32.3134M281.479 39.9181H277.9M285.505 32.3134H281.702M277.9 39.9181L281.702 32.3134M284.61 46.6281L285.257 45.415M285.257 45.415H304.2M285.257 45.415L286.28 43.4967M304.2 45.415L305.196 43.4967M286.28 43.4967H305.196M286.28 43.4967L286.98 42.184M305.196 43.4967L305.877 42.184M305.877 42.184H286.98M305.877 42.184L307.054 39.9181" stroke="#F3858E"/>
<path d="M254.121 66.8296C253.649 66.8296 253.267 67.2121 253.267 67.6842C253.267 68.1564 253.649 68.5389 254.121 68.5389C254.593 68.5389 254.976 68.1564 254.976 67.6842C254.976 67.2121 254.593 66.8296 254.121 66.8296Z" fill="black"/>
<path d="M257.77 66.8296C257.298 66.8296 256.915 67.2121 256.915 67.6842C256.915 68.1564 257.298 68.5389 257.77 68.5389C258.242 68.5389 258.625 68.1564 258.625 67.6842C258.625 67.2121 258.242 66.8296 257.77 66.8296Z" fill="black"/>
<path d="M261.418 66.8296C260.946 66.8296 260.563 67.2121 260.563 67.6842C260.563 68.1564 260.946 68.5389 261.418 68.5389C261.891 68.5389 262.273 68.1564 262.273 67.6842C262.273 67.2121 261.891 66.8296 261.418 66.8296Z" fill="black"/>
<path d="M263.367 62.7603H252.173C251.313 62.7603 250.612 63.4603 250.612 64.3203V76.3054C250.612 77.1658 251.313 77.8658 252.173 77.8658H263.367C264.227 77.8658 264.927 77.1658 264.927 76.3054V64.3203C264.927 63.4603 264.227 62.7603 263.367 62.7603ZM253.969 76.8812L254.121 73.4551L254.273 76.8812H253.969ZM257.617 76.8812L257.77 73.4551L257.922 76.8812H257.617ZM261.266 76.8812L261.419 73.4551L261.571 76.8812H261.266ZM263.942 76.3054C263.942 76.623 263.684 76.8812 263.367 76.8812H262.357L262.385 72.8811C262.448 72.9733 262.551 73.0354 262.671 73.0298C262.854 73.021 262.996 72.8652 262.987 72.6816L263.129 69.8364C263.129 68.7173 261.995 68.6622 261.419 68.6622C260.842 68.6622 259.708 68.7173 259.708 69.8364L259.804 72.6816C259.795 72.8652 259.936 73.021 260.12 73.0298C260.28 73.0374 260.414 72.9273 260.452 72.7778L260.48 76.8811H258.708L258.736 72.8811C258.799 72.9733 258.902 73.0354 259.022 73.0298C259.205 73.0209 259.347 72.8652 259.339 72.6816L259.48 69.8364C259.48 68.7173 258.346 68.6622 257.77 68.6622C257.193 68.6622 256.059 68.7173 256.059 69.8364L256.155 72.6816C256.146 72.8652 256.287 73.0209 256.471 73.0298C256.632 73.0374 256.765 72.927 256.803 72.7769L256.831 76.8811H255.06L255.087 72.881C255.15 72.9732 255.253 73.0354 255.373 73.0297C255.557 73.0209 255.698 72.8651 255.69 72.6815L255.831 69.8363C255.831 68.7172 254.698 68.6622 254.121 68.6622C253.545 68.6622 252.411 68.7172 252.411 69.8363L252.506 72.6815C252.497 72.8651 252.639 73.0209 252.822 73.0297C252.983 73.0374 253.116 72.927 253.154 72.7769L253.182 76.8811H252.173C251.855 76.8811 251.597 76.6229 251.597 76.3053V64.3203C251.597 64.0031 251.855 63.7449 252.173 63.7449H263.367C263.684 63.7449 263.942 64.0031 263.942 64.3203V76.3054H263.942Z" fill="black"/>
<path d="M258.888 60.197L260.058 59.0273V61.6572C260.058 61.8969 260.252 62.0913 260.492 62.0913C260.732 62.0913 260.927 61.8969 260.927 61.6572V59.0273L262.096 60.197C262.182 60.2818 262.292 60.3244 262.403 60.3244C262.515 60.3244 262.626 60.2818 262.711 60.197C262.881 60.0273 262.881 59.7524 262.711 59.5829L260.799 57.6713L260.492 57.3643L260.185 57.6713L258.274 59.5829C258.104 59.7523 258.104 60.0273 258.274 60.197C258.443 60.3666 258.719 60.3666 258.888 60.197Z" fill="black"/>
<path d="M254.741 61.963C254.741 61.9633 254.741 61.9633 254.741 61.9633L255.048 62.2703L255.355 61.9633C255.355 61.9633 255.355 61.9633 255.355 61.963L257.266 60.0516C257.436 59.8819 257.436 59.6067 257.266 59.4373C257.097 59.2676 256.822 59.2676 256.652 59.4373L255.483 60.6072V57.9774C255.483 57.7373 255.288 57.543 255.048 57.543C254.808 57.543 254.614 57.7373 254.614 57.9774V60.6072L253.444 59.4373C253.274 59.2676 252.999 59.2676 252.829 59.4373C252.66 59.6067 252.66 59.8819 252.829 60.0516L254.741 61.963Z" fill="black"/>
<path d="M309.07 57.3853C308.713 57.4505 308.425 57.6051 308.18 57.8644C307.582 58.4951 307.611 59.4973 308.245 60.0931C308.644 60.4706 309.206 60.6101 309.749 60.4691C309.914 60.4266 310.175 60.2917 310.321 60.175C310.815 59.7793 311.024 59.1182 310.848 58.5087C310.704 58.0099 310.33 57.6172 309.846 57.452C309.597 57.3671 309.306 57.3428 309.07 57.3853Z" fill="black"/>
<path d="M307.05 60.8663C306.791 60.8845 306.564 60.9482 306.32 61.0694C305.683 61.3878 305.266 62.0094 305.201 62.7357C305.189 62.863 305.186 63.6954 305.189 65.4283L305.193 67.9375L305.226 68.0361C305.289 68.218 305.411 68.359 305.574 68.4333C305.636 68.4636 305.674 68.4682 305.815 68.4682C305.968 68.4682 305.989 68.4652 306.073 68.4242C306.244 68.3393 306.37 68.1741 306.417 67.9724C306.432 67.9103 306.436 67.3599 306.436 65.4708V63.048H306.812H307.187V69.5022C307.187 75.1225 307.19 75.9716 307.21 76.064C307.295 76.4704 307.66 76.7675 308.075 76.769C308.195 76.769 308.379 76.722 308.495 76.6599C308.632 76.5871 308.791 76.4234 308.861 76.2839C308.967 76.0656 308.961 76.3612 308.961 72.1933V68.4303H309.332H309.704V72.2009C309.705 76.3551 309.698 76.0686 309.802 76.2778C309.902 76.481 310.075 76.6326 310.307 76.7205C310.395 76.7539 310.431 76.7599 310.591 76.7599C310.75 76.7599 310.786 76.7539 310.874 76.7205C311.106 76.6326 311.279 76.481 311.377 76.2808C311.485 76.0625 311.478 76.6417 311.478 69.5022V63.048H311.849H312.22V65.4556C312.22 67.1203 312.225 67.8921 312.237 67.9542C312.277 68.168 312.398 68.3363 312.581 68.4257C312.689 68.4803 312.704 68.4834 312.833 68.4818C312.936 68.4818 312.991 68.4727 313.051 68.45C313.267 68.3636 313.411 68.168 313.449 67.9057C313.468 67.7617 313.468 63.0101 313.449 62.7751C313.367 61.8503 312.727 61.1043 311.849 60.9072C311.752 60.886 311.638 60.8754 311.455 60.8708C310.992 60.8602 307.199 60.8557 307.05 60.8663Z" fill="black"/>
<path d="M318.888 57.3868C318.334 57.4867 317.888 57.8405 317.673 58.348C317.577 58.5695 317.542 58.7694 317.551 59.0247C317.556 59.1678 317.568 59.2708 317.59 59.3569C317.714 59.8275 318.013 60.1997 318.436 60.4089C319.235 60.8026 320.192 60.4781 320.584 59.6784C320.681 59.48 320.724 59.3308 320.744 59.1216C320.798 58.5356 320.524 57.9589 320.038 57.6375C319.692 57.4098 319.271 57.3176 318.888 57.3868Z" fill="black"/>
<path d="M317.197 60.9392C316.614 61.0299 316.127 61.3544 315.778 61.882C315.613 62.1296 315.656 62.0035 315.024 64.0844C314.775 64.9041 314.504 65.7946 314.311 66.4344C314.229 66.7005 314.155 66.9619 314.146 67.0189C314.083 67.3757 314.271 67.7079 314.589 67.8063C314.836 67.8832 315.087 67.814 315.259 67.6233C315.389 67.4787 315.37 67.531 315.839 65.953C315.942 65.6054 316.091 65.1071 316.17 64.8457C316.247 64.5827 316.393 64.0936 316.493 63.7568L316.676 63.1462H317.011C317.29 63.1462 317.346 63.1493 317.346 63.1677C317.346 63.18 317.297 63.3646 317.237 63.5799C317.13 63.9659 316.808 65.124 315.97 68.137C315.332 70.4332 315.316 70.487 315.307 70.5162C315.299 70.5424 315.353 70.5439 316.291 70.5439H317.285V73.4692C317.285 76.6559 317.28 76.4898 317.371 76.6682C317.451 76.8266 317.611 76.9573 317.796 77.0142C317.917 77.0542 318.172 77.0496 318.291 77.005C318.517 76.9235 318.665 76.7712 318.741 76.5421C318.768 76.4621 318.769 76.3206 318.774 73.4846L318.777 70.5132H319.154H319.53V73.4892C319.53 76.4621 319.53 76.4667 319.563 76.5621C319.66 76.8512 319.89 77.0219 320.215 77.045C320.604 77.0712 320.932 76.8205 320.99 76.4498C321.001 76.3837 321.007 75.3747 321.007 73.4461V70.5439H321.991C322.633 70.5439 322.976 70.5393 322.976 70.5285C322.976 70.5209 322.865 70.1164 322.728 69.6334C322.593 69.149 322.42 68.5338 322.345 68.2677C322.27 68.0016 322.097 67.3849 321.96 66.8989C321.538 65.3917 321.439 65.0425 321.33 64.6534C321.271 64.4458 321.155 64.029 321.07 63.726C320.984 63.423 320.915 63.1693 320.915 63.1616C320.915 63.1523 321.053 63.1462 321.268 63.1462H321.621L321.653 63.2569C321.671 63.3184 321.699 63.4107 321.714 63.4615C321.73 63.5122 321.799 63.7445 321.868 63.9767C321.937 64.2089 322.053 64.5965 322.125 64.838C322.196 65.0794 322.303 65.4378 322.362 65.6331C322.586 66.3867 322.688 66.7312 322.769 67.0065C322.816 67.1634 322.869 67.3295 322.886 67.3757C323.014 67.7063 323.305 67.8924 323.608 67.8371C323.957 67.774 324.183 67.4618 324.155 67.0834C324.146 66.9681 324.134 66.9235 323.789 65.7915C323.482 64.7811 322.988 63.1554 322.857 62.7232C322.791 62.5018 322.713 62.2788 322.674 62.1973C322.583 62.0065 322.414 61.7866 322.207 61.5882C321.828 61.2252 321.394 61.0068 320.922 60.9392C320.709 60.9084 317.393 60.9084 317.197 60.9392Z" fill="black"/>
<rect x="120.5" y="59.5" width="19" height="13" fill="white" stroke="#34B9F0"/>
<path d="M127.445 69H123.453V68.16L124.885 66.712C125.173 66.4133 125.405 66.1653 125.581 65.968C125.757 65.7653 125.885 65.584 125.965 65.424C126.045 65.2587 126.085 65.0827 126.085 64.896C126.085 64.6667 126.021 64.496 125.893 64.384C125.77 64.272 125.602 64.216 125.389 64.216C125.17 64.216 124.957 64.2667 124.749 64.368C124.541 64.4693 124.322 64.6133 124.093 64.8L123.437 64.024C123.602 63.88 123.775 63.7467 123.957 63.624C124.143 63.5013 124.357 63.4027 124.597 63.328C124.842 63.248 125.135 63.208 125.477 63.208C125.85 63.208 126.17 63.2773 126.437 63.416C126.709 63.5493 126.917 63.7333 127.061 63.968C127.21 64.1973 127.285 64.4587 127.285 64.752C127.285 64.992 127.247 65.2133 127.173 65.416C127.103 65.6187 126.999 65.816 126.861 66.008C126.727 66.1947 126.562 66.3893 126.365 66.592C126.167 66.7893 125.943 67.0053 125.693 67.24L124.957 67.928V67.984H127.445V69ZM131.015 69H129.807V65.696C129.807 65.6053 129.807 65.4933 129.807 65.36C129.812 65.2267 129.818 65.088 129.823 64.944C129.828 64.8 129.834 64.672 129.839 64.56C129.812 64.592 129.754 64.6507 129.663 64.736C129.578 64.816 129.498 64.888 129.423 64.952L128.767 65.48L128.183 64.752L130.023 63.288H131.015V69ZM135.593 69H134.385V65.696C134.385 65.6053 134.385 65.4933 134.385 65.36C134.39 65.2267 134.396 65.088 134.401 64.944C134.406 64.8 134.412 64.672 134.417 64.56C134.39 64.592 134.332 64.6507 134.241 64.736C134.156 64.816 134.076 64.888 134.001 64.952L133.345 65.48L132.761 64.752L134.601 63.288H135.593V69Z" fill="#F3858E"/>
<rect x="34.5" y="86.5" width="27" height="13" fill="white" stroke="#34B9F0"/>
<path d="M40.464 91.68C40.976 93.568 42.032 95.104 43.832 95.776C43.592 95.984 43.264 96.408 43.112 96.696C41.2 95.84 40.176 94.16 39.552 91.896L40.464 91.68ZM36.384 91.464H43.616V92.456H36.384V91.464ZM39.472 89.208H40.52C40.488 91.768 40.48 95.064 37.008 96.688C36.856 96.408 36.552 96.048 36.264 95.832C39.584 94.424 39.44 91.472 39.472 89.208ZM40.992 89.92L41.64 89.344C42.184 89.688 42.872 90.208 43.2 90.6L42.488 91.24C42.2 90.856 41.536 90.296 40.992 89.92ZM45.848 91.456H50.12V92.232H45.848V91.456ZM44.72 92.8H51.28V93.616H44.72V92.8ZM45.952 95.696H50.064V96.496H45.952V95.696ZM45.536 94.056H50.496V96.704H49.504V94.856H46.48V96.72H45.536V94.056ZM47.968 90.032C47.28 90.856 46.008 91.776 44.712 92.352C44.6 92.136 44.36 91.776 44.168 91.576C45.512 91.048 46.816 90.048 47.448 89.184H48.4C49.288 90.24 50.592 91.072 51.856 91.496C51.632 91.728 51.416 92.048 51.256 92.328C50.08 91.808 48.696 90.88 47.968 90.032ZM47.488 90.832H48.48V93.32H47.488V90.832ZM55.48 93.48H56.472V95.984H55.48V93.48ZM53.376 91.168H58.648V91.992H53.376V91.168ZM52.456 95.656H59.576V96.504H52.456V95.656ZM53.168 94.216H58.944V95.04H53.168V94.216ZM54.656 91.64L55.68 91.888C55.368 92.424 55.016 92.976 54.744 93.352L53.952 93.112C54.2 92.704 54.496 92.088 54.656 91.64ZM53.024 92.752C54.368 92.744 56.44 92.696 58.352 92.656L58.304 93.456C56.424 93.528 54.416 93.576 53.064 93.608L53.024 92.752ZM56.784 92.328L57.48 91.864C58.088 92.296 58.872 92.936 59.24 93.4L58.488 93.912C58.152 93.464 57.4 92.792 56.784 92.328ZM55.48 89.216H56.472V90.328H55.48V89.216ZM52.48 89.728H59.536V91.4H58.552V90.6H53.416V91.4H52.48V89.728Z" fill="#F3858E"/>
<rect x="23.5" y="13.5" width="68" height="23" fill="white" stroke="#34B9F0"/>
<path d="M35.504 22.24C35.504 21.624 35.504 18.312 35.504 17.64C35.504 17.352 35.48 16.96 35.424 16.672H36.672C36.64 16.96 36.6 17.304 36.6 17.64C36.6 18.52 36.608 21.648 36.608 22.24C36.608 22.464 36.64 23.024 36.68 23.352H35.424C35.48 23.04 35.504 22.552 35.504 22.24ZM36.368 18.744C37.432 19.04 39.16 19.672 39.944 20.056L39.496 21.168C38.584 20.696 37.24 20.184 36.368 19.896V18.744ZM47.416 16.792C47.4 17.016 47.392 17.272 47.392 17.6C47.392 18.008 47.392 18.784 47.392 19.176C47.392 20.904 47.056 21.64 46.456 22.296C45.928 22.88 45.104 23.264 44.52 23.456L43.68 22.568C44.48 22.384 45.12 22.08 45.608 21.56C46.152 20.96 46.264 20.36 46.264 19.112C46.264 18.712 46.264 17.944 46.264 17.6C46.264 17.272 46.24 17.016 46.208 16.792H47.416ZM43.712 16.864C43.696 17.048 43.68 17.224 43.68 17.472C43.68 17.824 43.68 19.728 43.68 20.176C43.68 20.376 43.696 20.688 43.712 20.872H42.544C42.56 20.728 42.584 20.416 42.584 20.168C42.584 19.712 42.584 17.824 42.584 17.472C42.584 17.328 42.576 17.048 42.552 16.864H43.712ZM51.272 16.736C52.328 16.864 54.632 17.336 55.64 17.688L55.232 18.68C54.296 18.336 52.032 17.832 50.904 17.688L51.272 16.736ZM50.912 18.888C52.056 19.08 54.088 19.52 55.088 19.864L54.696 20.864C53.784 20.512 51.728 20.048 50.536 19.856L50.912 18.888ZM50.496 21.184C51.872 21.392 54.328 21.968 55.432 22.376L54.992 23.376C53.912 22.936 51.376 22.384 50.096 22.184L50.496 21.184ZM58.928 16.92C59.48 17.296 60.52 18.128 60.992 18.616L60.176 19.448C59.76 19 58.752 18.128 58.168 17.728L58.928 16.92ZM57.92 22.248C59.176 22.072 60.208 21.664 60.984 21.208C62.352 20.392 63.392 19.176 63.904 18.096L64.52 19.216C63.92 20.304 62.856 21.408 61.568 22.184C60.752 22.672 59.72 23.112 58.6 23.304L57.92 22.248ZM71.232 16.448C71.432 16.744 71.712 17.248 71.864 17.544L71.224 17.824C71.056 17.496 70.808 17.016 70.592 16.712L71.232 16.448ZM72.176 16.088C72.384 16.392 72.68 16.896 72.824 17.176L72.184 17.448C72.016 17.12 71.76 16.648 71.544 16.352L72.176 16.088ZM71.944 18.208C71.856 18.368 71.744 18.584 71.68 18.784C71.464 19.496 71.008 20.568 70.288 21.456C69.528 22.384 68.56 23.12 67.056 23.712L66.112 22.872C67.752 22.376 68.64 21.68 69.336 20.888C69.88 20.264 70.344 19.304 70.472 18.712H67.776L68.144 17.8C68.504 17.8 70.176 17.8 70.432 17.8C70.68 17.8 70.944 17.768 71.128 17.704L71.944 18.208ZM69.336 16.944C69.152 17.224 68.944 17.592 68.848 17.76C68.312 18.728 67.352 19.856 66.208 20.64L65.304 19.976C66.712 19.12 67.408 18.088 67.808 17.4C67.928 17.208 68.096 16.832 68.168 16.56L69.336 16.944ZM76.44 23.096C75.104 23.096 74.392 22.424 74.392 21.448C74.392 19.696 77.2 19.52 77.2 18.32C77.2 17.976 76.992 17.744 76.64 17.744C76.264 17.744 76.016 17.984 76.016 18.432C76.016 19.352 77.616 20.56 78.68 21.4C79.152 21.768 79.616 22.048 79.872 22.184L79.352 23.104C78.92 22.856 78.528 22.616 77.952 22.136C76.616 21 75.08 19.76 75.08 18.472C75.08 17.544 75.736 16.96 76.616 16.96C77.512 16.96 78.096 17.456 78.096 18.28C78.096 19.952 75.44 20.184 75.44 21.416C75.44 21.936 75.904 22.2 76.544 22.2C77.048 22.2 77.536 21.848 77.936 21.32C78.28 20.88 78.512 20.368 78.608 19.696H79.648C79.48 20.504 79.176 21.2 78.704 21.872C78.168 22.624 77.504 23.096 76.44 23.096ZM27.504 32.24C27.504 31.624 27.504 28.312 27.504 27.64C27.504 27.352 27.48 26.96 27.424 26.672H28.672C28.64 26.96 28.6 27.304 28.6 27.64C28.6 28.52 28.608 31.648 28.608 32.24C28.608 32.464 28.64 33.024 28.68 33.352H27.424C27.48 33.04 27.504 32.552 27.504 32.24ZM28.368 28.744C29.432 29.04 31.16 29.672 31.944 30.056L31.496 31.168C30.584 30.696 29.24 30.184 28.368 29.896V28.744ZM34.56 32.688C34.648 32.488 34.664 32.352 34.664 32.168C34.664 31.56 34.664 28.72 34.664 27.824C34.664 27.528 34.616 27.144 34.568 26.92H35.824C35.784 27.224 35.752 27.52 35.752 27.824C35.752 28.712 35.752 31.376 35.752 31.984C37.056 31.616 38.84 30.592 39.864 29.336L40.432 30.248C39.336 31.552 37.672 32.512 35.784 33.128C35.68 33.16 35.504 33.216 35.312 33.344L34.56 32.688ZM41.728 29.296C42.024 29.32 42.6 29.352 43.016 29.352C43.96 29.352 46.6 29.352 47.312 29.352C47.688 29.352 48.04 29.312 48.256 29.296V30.56C48.064 30.552 47.656 30.512 47.32 30.512C46.592 30.512 43.96 30.512 43.016 30.512C42.568 30.512 42.032 30.536 41.728 30.56V29.296ZM50.352 27.568C50.648 27.6 51.016 27.616 51.296 27.616C51.968 27.616 54.168 27.616 54.608 27.616C54.928 27.616 55.264 27.6 55.496 27.568V28.728C55.264 28.72 54.888 28.704 54.608 28.704C54.184 28.704 51.744 28.704 51.296 28.704C50.992 28.704 50.624 28.72 50.352 28.728V27.568ZM49.68 31.488C49.992 31.504 50.368 31.536 50.688 31.536C51.192 31.536 54.776 31.536 55.28 31.536C55.544 31.536 55.888 31.512 56.16 31.488V32.712C55.872 32.68 55.512 32.656 55.28 32.656C54.776 32.656 51.192 32.656 50.688 32.656C50.368 32.656 49.984 32.68 49.68 32.712V31.488ZM58.928 26.92C59.48 27.296 60.52 28.128 60.992 28.616L60.176 29.448C59.76 29 58.752 28.128 58.168 27.728L58.928 26.92ZM57.92 32.248C59.176 32.072 60.208 31.664 60.984 31.208C62.352 30.392 63.392 29.176 63.904 28.096L64.52 29.216C63.92 30.304 62.856 31.408 61.568 32.184C60.752 32.672 59.72 33.112 58.6 33.304L57.92 32.248ZM71.232 26.448C71.432 26.744 71.712 27.248 71.864 27.544L71.224 27.824C71.056 27.496 70.808 27.016 70.592 26.712L71.232 26.448ZM72.176 26.088C72.384 26.392 72.68 26.896 72.824 27.176L72.184 27.448C72.016 27.12 71.76 26.648 71.544 26.352L72.176 26.088ZM71.944 28.208C71.856 28.368 71.744 28.584 71.68 28.784C71.464 29.496 71.008 30.568 70.288 31.456C69.528 32.384 68.56 33.12 67.056 33.712L66.112 32.872C67.752 32.376 68.64 31.68 69.336 30.888C69.88 30.264 70.344 29.304 70.472 28.712H67.776L68.144 27.8C68.504 27.8 70.176 27.8 70.432 27.8C70.68 27.8 70.944 27.768 71.128 27.704L71.944 28.208ZM69.336 26.944C69.152 27.224 68.944 27.592 68.848 27.76C68.312 28.728 67.352 29.856 66.208 30.64L65.304 29.976C66.712 29.12 67.408 28.088 67.808 27.4C67.928 27.208 68.096 26.832 68.168 26.56L69.336 26.944ZM73.496 28.504H80.512V30.256H79.568V29.336H74.392V30.256H73.496V28.504ZM74.656 29.952H78.872V30.832H74.656V29.952ZM79.568 26.16L80.216 26.936C78.408 27.288 75.912 27.464 73.784 27.528C73.768 27.288 73.656 26.92 73.568 26.712C75.688 26.64 78.096 26.448 79.568 26.16ZM74.272 27.68L75.112 27.448C75.296 27.736 75.496 28.12 75.568 28.384L74.688 28.648C74.624 28.384 74.44 27.984 74.272 27.68ZM76.384 27.512L77.232 27.32C77.4 27.64 77.56 28.072 77.6 28.36L76.704 28.576C76.672 28.296 76.536 27.848 76.384 27.512ZM78.928 27.304L79.944 27.544C79.664 28.04 79.344 28.56 79.104 28.904L78.32 28.672C78.536 28.288 78.792 27.72 78.928 27.304ZM78.52 29.952H78.72L78.888 29.92L79.536 30.304C78.584 32.4 76.392 33.288 73.872 33.648C73.776 33.408 73.504 32.984 73.312 32.784C75.776 32.536 77.8 31.808 78.52 30.104V29.952ZM75.6 30.6C76.496 31.816 78.328 32.512 80.656 32.728C80.456 32.944 80.192 33.36 80.072 33.632C77.664 33.32 75.88 32.48 74.76 30.944L75.6 30.6ZM83.8 27.936H88.744V28.912H83.8V27.936ZM86.864 26.296H87.856V32.56C87.856 33.168 87.712 33.424 87.328 33.568C86.936 33.72 86.328 33.736 85.44 33.728C85.392 33.464 85.216 33.032 85.072 32.776C85.696 32.808 86.392 32.808 86.584 32.8C86.784 32.792 86.864 32.736 86.864 32.552V26.296ZM84.16 29.88L85.008 29.48C85.368 30.064 85.872 30.856 86.112 31.344L85.2 31.808C84.992 31.32 84.52 30.496 84.16 29.88ZM82.328 28.56L83.296 27.592L83.304 27.608V33.704H82.328V28.56ZM83.128 26.248L84.072 26.552C83.536 27.944 82.672 29.408 81.768 30.328C81.664 30.088 81.376 29.56 81.2 29.32C81.968 28.592 82.696 27.424 83.128 26.248Z" fill="#F3858E"/>
</svg>
