<svg width="302" height="157" viewBox="0 0 302 157" fill="none" xmlns="http://www.w3.org/2000/svg">
<path d="M124.048 29.9963L133.342 1H51.5576L42.1234 29.9963M124.048 29.9963H241.52L216.242 107.32M124.048 29.9963H103.974M216.242 107.32H301M216.242 107.32L200.257 156.39M301 107.32L286.13 156.39H200.257M301 107.32L200.257 156.39M42.1234 29.9963H103.974M42.1234 29.9963L31.4797 62.71M16.9656 107.32L1 156.39H82.4126M16.9656 107.32H58.0534M16.9656 107.32L24.2226 85.0149M99.1413 107.32L82.4126 156.39M99.1413 107.32H58.0534M99.1413 107.32L118.844 48.2119M82.4126 156.39H164.569M58.0534 107.32L65.2816 85.0149M164.569 156.39H200.257M164.569 156.39L184.559 95.7955M118.844 48.2119H200.257L196.823 58.6208M118.844 48.2119H98.026M98.026 48.2119H77.2082L72.5098 62.71M98.026 48.2119L103.974 29.9963M72.5098 62.71H31.4797M72.5098 62.71L65.2816 85.0149M31.4797 62.71L24.2226 85.0149M65.2816 85.0149H24.2226M184.559 95.7955H202.487L204.033 90.9628M184.559 95.7955L186.153 90.9628M196.823 58.6208H214.383L212.955 63.0818M196.823 58.6208L195.351 63.0818M195.351 63.0818H212.955M195.351 63.0818L193.879 67.5428M212.955 63.0818L211.528 67.5428M193.879 67.5428H211.528M193.879 67.5428L192.285 72.3755M211.528 67.5428L209.981 72.3755M192.285 72.3755H209.981M192.285 72.3755L190.813 76.8364M209.981 72.3755L208.554 76.8364M190.813 76.8364H208.554M190.813 76.8364L189.104 82.0177M208.554 76.8364L206.896 82.0177M189.104 82.0177H206.896M189.104 82.0177L187.747 86.1301M206.896 82.0177L205.58 86.1301M187.747 86.1301H205.58M187.747 86.1301L186.153 90.9628M205.58 86.1301L204.033 90.9628M186.153 90.9628H204.033" stroke="#965045"/>
<path d="M83.4092 5.85002C83.1131 5.9042 82.8737 6.03271 82.6696 6.24817C82.1732 6.77231 82.1971 7.60514 82.7238 8.1003C83.0552 8.41402 83.5226 8.52994 83.9737 8.41276C84.111 8.37749 84.3277 8.26535 84.4487 8.16833C84.8594 7.83949 85.0333 7.29015 84.8871 6.78365C84.7674 6.36912 84.4562 6.04279 84.0543 5.90546C83.8477 5.8349 83.6058 5.81474 83.4092 5.85002Z" fill="black"/>
<path d="M81.7307 8.74286C81.5153 8.75798 81.3263 8.81089 81.1235 8.91169C80.5943 9.17628 80.2478 9.69286 80.1936 10.2964C80.1835 10.4022 80.181 11.0939 80.1835 12.5341L80.1873 14.6193L80.215 14.7012C80.2667 14.8524 80.3687 14.9695 80.5036 15.0313C80.5552 15.0565 80.5867 15.0603 80.7039 15.0603C80.8311 15.0603 80.8488 15.0577 80.9181 15.0237C81.0605 14.9532 81.165 14.8158 81.2041 14.6483C81.2167 14.5966 81.2205 14.1392 81.2205 12.5693V10.5559H81.5329H81.8441V15.9195C81.8441 20.5902 81.8467 21.2958 81.863 21.3726C81.9336 21.7103 82.2372 21.9572 82.5825 21.9585C82.682 21.9585 82.8345 21.9194 82.9315 21.8678C83.0449 21.8073 83.1772 21.6712 83.2351 21.5553C83.3233 21.3739 83.3183 21.6196 83.3183 18.156V15.0288H83.627H83.9357V18.1623C83.9369 21.6145 83.9306 21.3764 84.0176 21.5503C84.1007 21.7191 84.2444 21.8451 84.4371 21.9182C84.5102 21.9459 84.5404 21.9509 84.6727 21.9509C84.805 21.9509 84.8353 21.9459 84.9083 21.9182C85.1011 21.8451 85.2448 21.7191 85.3266 21.5528C85.4161 21.3714 85.4098 21.8527 85.4098 15.9195V10.5559H85.7185H86.0272V12.5567C86.0272 13.9402 86.031 14.5815 86.041 14.6331C86.0738 14.8108 86.1746 14.9506 86.3271 15.025C86.4165 15.0703 86.4291 15.0729 86.5362 15.0716C86.6219 15.0716 86.6672 15.064 86.7176 15.0451C86.8965 14.9733 87.0162 14.8108 87.0477 14.5928C87.0641 14.4731 87.0641 10.5244 87.0477 10.3291C86.9797 9.56057 86.448 8.94067 85.7185 8.77688C85.6379 8.75924 85.5434 8.75042 85.3909 8.74664C85.0066 8.73782 81.8542 8.73404 81.7307 8.74286Z" fill="black"/>
<rect x="94" y="88" width="86" height="24" fill="white" stroke="#E2B953" stroke-width="2"/>
<path d="M107.409 101.624C107.409 102.128 107.285 102.568 107.037 102.944C106.789 103.32 106.429 103.612 105.957 103.82C105.493 104.02 104.925 104.12 104.253 104.12C103.957 104.12 103.665 104.1 103.377 104.06C103.097 104.02 102.825 103.964 102.561 103.892C102.305 103.812 102.061 103.716 101.829 103.604V101.912C102.237 102.088 102.657 102.252 103.089 102.404C103.529 102.548 103.965 102.62 104.397 102.62C104.693 102.62 104.929 102.58 105.105 102.5C105.289 102.42 105.421 102.312 105.501 102.176C105.589 102.04 105.633 101.884 105.633 101.708C105.633 101.492 105.557 101.308 105.405 101.156C105.261 101.004 105.065 100.864 104.817 100.736C104.569 100.6 104.285 100.456 103.965 100.304C103.765 100.208 103.549 100.096 103.317 99.968C103.085 99.832 102.861 99.668 102.645 99.476C102.437 99.276 102.265 99.036 102.129 98.756C101.993 98.476 101.925 98.14 101.925 97.748C101.925 97.236 102.041 96.8 102.273 96.44C102.513 96.072 102.849 95.792 103.281 95.6C103.721 95.408 104.237 95.312 104.829 95.312C105.277 95.312 105.701 95.364 106.101 95.468C106.509 95.572 106.933 95.72 107.373 95.912L106.785 97.328C106.393 97.168 106.041 97.044 105.729 96.956C105.417 96.868 105.097 96.824 104.769 96.824C104.545 96.824 104.353 96.86 104.193 96.932C104.033 97.004 103.909 97.104 103.821 97.232C103.741 97.36 103.701 97.512 103.701 97.688C103.701 97.888 103.761 98.06 103.881 98.204C104.001 98.34 104.181 98.472 104.421 98.6C104.661 98.728 104.961 98.88 105.321 99.056C105.761 99.264 106.133 99.48 106.437 99.704C106.749 99.928 106.989 100.192 107.157 100.496C107.325 100.8 107.409 101.176 107.409 101.624ZM112.267 104H110.455V96.944H108.127V95.432H114.595V96.944H112.267V104ZM120.316 104L119.692 101.96H116.572L115.948 104H113.992L117.016 95.396H119.236L122.272 104H120.316ZM118.636 98.444C118.596 98.308 118.544 98.136 118.48 97.928C118.416 97.72 118.352 97.508 118.288 97.292C118.224 97.076 118.172 96.888 118.132 96.728C118.092 96.888 118.036 97.088 117.964 97.328C117.9 97.56 117.836 97.784 117.772 98C117.716 98.208 117.672 98.356 117.64 98.444L117.028 100.436H119.26L118.636 98.444ZM125.145 104H123.357V95.432H128.265V96.92H125.145V99.128H128.049V100.616H125.145V104ZM131.731 104H129.943V95.432H134.851V96.92H131.731V99.128H134.635V100.616H131.731V104ZM147.422 99.704C147.422 100.368 147.338 100.972 147.17 101.516C147.01 102.052 146.762 102.516 146.426 102.908C146.098 103.3 145.674 103.6 145.154 103.808C144.642 104.016 144.038 104.12 143.342 104.12C142.646 104.12 142.038 104.016 141.518 103.808C141.006 103.592 140.582 103.292 140.246 102.908C139.918 102.516 139.67 102.048 139.502 101.504C139.342 100.96 139.262 100.356 139.262 99.692C139.262 98.804 139.406 98.032 139.694 97.376C139.99 96.72 140.438 96.212 141.038 95.852C141.646 95.484 142.418 95.3 143.354 95.3C144.282 95.3 145.046 95.484 145.646 95.852C146.246 96.212 146.69 96.724 146.978 97.388C147.274 98.044 147.422 98.816 147.422 99.704ZM141.17 99.704C141.17 100.304 141.246 100.82 141.398 101.252C141.55 101.684 141.786 102.016 142.106 102.248C142.426 102.48 142.838 102.596 143.342 102.596C143.862 102.596 144.278 102.48 144.59 102.248C144.91 102.016 145.142 101.684 145.286 101.252C145.438 100.82 145.514 100.304 145.514 99.704C145.514 98.8 145.346 98.092 145.01 97.58C144.674 97.068 144.122 96.812 143.354 96.812C142.842 96.812 142.426 96.928 142.106 97.16C141.786 97.392 141.55 97.724 141.398 98.156C141.246 98.588 141.17 99.104 141.17 99.704ZM156.793 104H154.489L150.757 97.52H150.709C150.717 97.72 150.725 97.924 150.733 98.132C150.741 98.332 150.749 98.536 150.757 98.744C150.773 98.944 150.785 99.148 150.793 99.356C150.801 99.556 150.809 99.76 150.817 99.968V104H149.197V95.432H151.489L155.209 101.852H155.245C155.237 101.652 155.229 101.456 155.221 101.264C155.213 101.064 155.205 100.868 155.197 100.676C155.197 100.476 155.193 100.28 155.185 100.088C155.177 99.888 155.169 99.688 155.161 99.488V95.432H156.793V104ZM158.959 104V95.432H160.771V102.5H164.251V104H158.959ZM168.045 98.96L169.833 95.432H171.789L168.945 100.664V104H167.145V100.724L164.301 95.432H166.269L168.045 98.96Z" fill="#954D2B"/>
<path d="M205.75 45C205.44 45 204.157 45 204.157 45V45.9293C204.157 45.9293 205.042 45.9293 205.971 45.9293C207.697 45.9293 208.14 46.7698 208.14 46.7698C208.14 46.7698 208.14 46.7698 208.449 46.5486C207.918 45.177 206.06 45 205.75 45Z" fill="black"/>
<path d="M202.157 52.167L202 52.958H203.08L202.923 52.167H202.157Z" fill="black"/>
<path d="M205.559 47.2514V46.4747C205.559 46.3169 205.431 46.189 205.272 46.189H204.739C204.58 46.189 204.453 46.3169 204.453 46.4747V47.2666C203.782 47.5033 203.302 48.1425 203.302 48.8937V54.3363C203.302 54.7027 203.599 54.9998 203.966 54.9998H206.09C206.456 54.9998 206.753 54.7027 206.753 54.3363V48.8937C206.753 48.1258 206.252 47.4754 205.559 47.2514ZM205.946 52.9423H204.109V50.6978H205.946V52.9423Z" fill="black"/>
<path d="M202.745 48.9246C202.745 48.169 203.132 47.4763 203.746 47.0743L203.748 47.0729L203.748 47.0731C203.751 47.0701 203.875 46.9924 204.071 46.9258V46.5C203.747 46.5873 203.542 46.7204 203.522 46.7329C203.522 46.7331 203.522 46.7331 203.522 46.7331C203.522 46.7333 203.52 46.7345 203.52 46.7347L203.52 46.7349C202.794 47.2115 202.337 48.0299 202.337 48.9246V52.027H202.745V48.9246ZM203.751 47.0709L203.749 47.0727L203.749 47.0725L203.751 47.0709Z" fill="black"/>
</svg>
