<?xml version="1.0" encoding="UTF-8"?>
<svg id="_トレース" data-name="トレース" xmlns="http://www.w3.org/2000/svg" viewBox="0 0 595 842">
  <defs>
    <style>
      .cls-1 {
        stroke: #34b9f0;
      }

      .cls-1, .cls-2, .cls-3, .cls-4, .cls-5 {
        stroke-miterlimit: 10;
      }

      .cls-1, .cls-2, .cls-4, .cls-5 {
        fill: none;
      }

      .cls-2, .cls-3, .cls-4, .cls-5 {
        stroke: #f3858e;
      }

      .cls-6 {
        fill: #3b82f6;
      }

      .cls-3 {
        fill: #f3858e;
        font-family: BIZ-UDGothic, 'BIZ UDGothic';
        font-size: 20.2px;
        letter-spacing: .3em;
      }

      .cls-4 {
        stroke-width: 3px;
      }

      .cls-5 {
        stroke-width: 2px;
      }
    </style>
  </defs>
  <g>
    <g>
      <line class="cls-2" x1="131.28" y1="411.26" x2="131.28" y2="445.3"/>
      <line class="cls-2" x1="138.56" y1="409.84" x2="138.56" y2="445.45"/>
      <line class="cls-2" x1="145.37" y1="410.47" x2="145.37" y2="445.77"/>
      <line class="cls-2" x1="152.65" y1="410.31" x2="152.65" y2="445.93"/>
      <line class="cls-2" x1="154.71" y1="448.15" x2="192.86" y2="448.15"/>
      <line class="cls-2" x1="155.02" y1="454" x2="192.54" y2="454"/>
      <line class="cls-2" x1="154.87" y1="459.86" x2="192.7" y2="459.86"/>
      <line class="cls-2" x1="149.64" y1="460.97" x2="149.64" y2="491.04"/>
      <line class="cls-2" x1="142.2" y1="460.97" x2="142.2" y2="490.88"/>
      <line class="cls-2" x1="135.08" y1="460.81" x2="135.08" y2="490.25"/>
      <line class="cls-2" x1="127.8" y1="460.97" x2="127.8" y2="490.09"/>
      <line class="cls-2" x1="125.9" y1="457.64" x2="93.61" y2="457.64"/>
      <line class="cls-2" x1="93.29" y1="451.94" x2="127.01" y2="451.94"/>
      <line class="cls-2" x1="93.61" y1="446.25" x2="126.69" y2="446.25"/>
    </g>
    <g>
      <polyline class="cls-4" points="191.93 555.87 191.93 409.42 18.5 409.42 18.5 253.47 576.43 252.75 576.43 589.25 314.08 589.25 314.08 553.45 191.93 553.45"/>
      <line class="cls-4" x1="92.5" y1="410.13" x2="92.5" y2="492.09"/>
      <line class="cls-4" x1="93.21" y1="491.24" x2="191.36" y2="491.24"/>
    </g>
    <g>
      <line class="cls-5" x1="126.31" y1="445.08" x2="126.31" y2="461.69"/>
      <line class="cls-5" x1="124.92" y1="459.88" x2="155.5" y2="459.88"/>
      <line class="cls-5" x1="154.11" y1="461.37" x2="154.11" y2="445.4"/>
      <line class="cls-5" x1="125.46" y1="445.82" x2="155.07" y2="445.82"/>
      <polyline class="cls-5" points="131.31 408.22 131.31 335.24 192.25 335.24"/>
      <polyline class="cls-5" points="192.68 408.22 192.68 296.15 210.47 296.15"/>
      <line class="cls-5" x1="314.65" y1="553.2" x2="576.5" y2="553.2"/>
      <line class="cls-5" x1="92.62" y1="255.63" x2="92.62" y2="360.03"/>
      <line class="cls-5" x1="92.62" y1="389.72" x2="92.62" y2="408.88"/>
      <line class="cls-5" x1="234.85" y1="295.38" x2="575.83" y2="295.38"/>
    </g>
  </g>
  <g>
    <path class="cls-6" d="M54.45,298.95c-.77.14-1.39.47-1.92,1.03-1.29,1.36-1.23,3.52.14,4.81.86.81,2.07,1.11,3.24.81.36-.09.92-.38,1.23-.63,1.07-.85,1.52-2.28,1.14-3.59-.31-1.08-1.12-1.92-2.16-2.28-.54-.18-1.16-.24-1.67-.14Z"/>
    <path class="cls-6" d="M50.1,306.46c-.56.04-1.05.18-1.58.44-1.37.69-2.27,2.03-2.41,3.59-.03.27-.03,2.07-.03,5.81v5.41s.08.21.08.21c.13.39.4.7.75.86.13.07.22.08.52.08.33,0,.38,0,.56-.09.37-.18.64-.54.74-.97.03-.13.04-1.32.04-5.4v-5.23h1.62v13.92c0,12.12,0,13.95.05,14.15.18.88.97,1.52,1.87,1.52.26,0,.65-.1.91-.24.29-.16.64-.51.79-.81.23-.47.22.17.22-8.82v-8.12h1.6v8.13c0,8.96-.01,8.34.21,8.79.22.44.59.77,1.09.95.19.07.27.09.61.09s.42-.01.61-.09c.5-.19.87-.52,1.09-.95.23-.47.22.78.22-14.62v-13.92h1.6v5.19c0,3.59,0,5.25.04,5.39.09.46.35.82.74,1.02.23.12.26.12.54.12.22,0,.34-.02.47-.07.46-.19.77-.61.86-1.17.04-.31.04-10.56,0-11.06-.18-1.99-1.56-3.6-3.45-4.03-.21-.05-.45-.07-.85-.08-1-.02-9.18-.03-9.5,0Z"/>
  </g>
  <g>
    <path d="M118.96,368.55c-.3.03-1.66.11-3.02.16-1.8.07-2.58.14-2.84.23-.46.17-1.14.85-1.5,1.51-.14.27-.49.72-.76,1l-.5.5h-.94c-1.07,0-1.36.09-1.56.5-.28.55-.02,1.27.54,1.46.16.06.68.1,1.15.1h.86s.34.36.34.36c.49.5.89.68,1.58.68.65,0,1.03-.15,1.46-.55.25-.23.26-.24.72-.14,1.29.26,3.58,1.18,5.79,2.32.7.36,1.28.65,1.29.65,0,0,0-.38-.02-.85-.02-.63-.07-.89-.17-1-.18-.22-1.92-1.34-3.49-2.27l-1.3-.76h-1.08q-1.08,0-1.18-.21c-.06-.13-.07-.24-.02-.29.17-.17,4.73-1.79,6.07-2.15l.34-.09-.22-.39c-.31-.54-.61-.84-.81-.83-.1,0-.41.03-.71.07ZM112.57,372.2c.52.18.69.86.31,1.29-.17.19-.26.23-.59.23s-.42-.04-.59-.23c-.36-.42-.21-1.09.3-1.29.27-.11.26-.11.56,0Z"/>
    <path d="M106.18,372.11c-3.26.48-5.06,3.1-4.68,6.86.11,1.13.35,2.28.99,4.88.68,2.71.84,3.63.89,5.13.03.98,0,1.47-.09,2.06-.07.43-.12.79-.12.79.02,0,.23.08.48.17s.6.22.77.31c.18.09.33.15.35.13.09-.09.3-1.17.38-2,.18-1.76-.05-3.51-.95-7.13-.74-2.95-.89-3.73-.94-4.89-.07-1.66.19-2.62.94-3.43.22-.23.55-.5.74-.61.44-.26,1.38-.54,1.8-.54.31,0,.32-.02.26-.19-.08-.23-.07-1.2,0-1.45.07-.21.03-.22-.82-.09Z"/>
    <path d="M110.36,376.23v.98l-.71.35c-1.34.67-2.47,2.07-2.81,3.49-.08.36-.12.97-.12,1.87v1.35h11.17v-1.35c0-1.49-.09-2-.5-2.83-.49-.99-1.33-1.81-2.46-2.38l-.69-.34v-.88c0-.48-.02-.96-.05-1.07-.05-.17-.07-.17-.19-.07-.25.22-.89.46-1.39.51-.63.07-1.32-.08-1.8-.38-.22-.14-.41-.25-.42-.25-.02,0-.04.44-.04.98Z"/>
    <path d="M106.72,389.78v4.68h11.17v-9.35h-11.17v4.68ZM115.82,389.82v2.23h-7.04v-4.47h7.04v2.23Z"/>
    <path d="M101.95,392.73c-.11.05-.79,1.16-1.76,2.91l-1.59,2.81.23.25c.29.3,1.8,1.04,2.84,1.39.43.14,1.03.28,1.34.31.53.03.56.02.64-.16.05-.11.43-1.49.84-3.08.52-1.99.74-2.94.7-3.1-.2-.8-2.43-1.72-3.24-1.33ZM100.93,398.04c.86.18,1.69.65,1.99,1.11.19.29.19.43,0,.43-.5,0-3.35-1.18-3.29-1.36.02-.08.5-.28.68-.29.05,0,.33.05.63.11Z"/>
    <path d="M106.72,399.44c0,4.72,0,4.63.63,5.35.22.24.57.51.84.65l.47.23h7.28l.47-.23c.27-.13.63-.41.84-.65.64-.71.63-.63.63-5.35v-4.16h-11.17v4.16Z"/>
  </g>
  <g>
    <path d="M566.88,300.64c-.3.03-1.66.11-3.02.16-1.8.07-2.58.14-2.84.23-.46.17-1.14.85-1.5,1.51-.14.27-.49.72-.76,1l-.5.5h-.94c-1.07,0-1.36.09-1.56.5-.28.55-.02,1.27.54,1.46.16.06.68.1,1.15.1h.86s.34.36.34.36c.49.5.89.68,1.58.68.65,0,1.03-.15,1.46-.55.25-.23.26-.24.72-.14,1.29.26,3.58,1.18,5.79,2.32.7.36,1.28.65,1.29.65,0,0,0-.38-.02-.85-.02-.63-.07-.89-.17-1-.18-.22-1.92-1.34-3.49-2.27l-1.3-.76h-1.08q-1.08,0-1.18-.21c-.06-.13-.07-.24-.02-.29.17-.17,4.73-1.79,6.07-2.15l.34-.09-.22-.39c-.31-.54-.61-.84-.81-.83-.1,0-.41.03-.71.07ZM560.49,304.29c.52.18.69.86.31,1.29-.17.19-.26.23-.59.23s-.42-.04-.59-.23c-.36-.42-.21-1.09.3-1.29.27-.11.26-.11.56,0Z"/>
    <path d="M554.09,304.21c-3.26.48-5.06,3.1-4.68,6.86.11,1.13.35,2.28.99,4.88.68,2.71.84,3.63.89,5.13.03.98,0,1.47-.09,2.06-.07.43-.12.79-.12.79.02,0,.23.08.48.17s.6.22.77.31c.18.09.33.15.35.13.09-.09.3-1.17.38-2,.18-1.76-.05-3.51-.95-7.13-.74-2.95-.89-3.73-.94-4.89-.07-1.66.19-2.62.94-3.43.22-.23.55-.5.74-.61.44-.26,1.38-.54,1.8-.54.31,0,.32-.02.26-.19-.08-.23-.07-1.2,0-1.45.07-.21.03-.22-.82-.09Z"/>
    <path d="M558.27,308.32v.98l-.71.35c-1.34.67-2.47,2.07-2.81,3.49-.08.36-.12.97-.12,1.87v1.35h11.17v-1.35c0-1.49-.09-2-.5-2.83-.49-.99-1.33-1.81-2.46-2.38l-.69-.34v-.88c0-.48-.02-.96-.05-1.07-.05-.17-.07-.17-.19-.07-.25.22-.89.46-1.39.51-.63.07-1.32-.08-1.8-.38-.22-.14-.41-.25-.42-.25-.02,0-.04.44-.04.98Z"/>
    <path d="M554.63,321.87v4.68h11.17v-9.35h-11.17v4.68ZM563.73,321.91v2.23h-7.04v-4.47h7.04v2.23Z"/>
    <path d="M549.86,324.82c-.11.05-.79,1.16-1.76,2.91l-1.59,2.81.23.25c.29.3,1.8,1.04,2.84,1.39.43.14,1.03.28,1.34.31.53.03.56.02.64-.16.05-.11.43-1.49.84-3.08.52-1.99.74-2.94.7-3.1-.2-.8-2.43-1.72-3.24-1.33ZM548.84,330.14c.86.18,1.69.65,1.99,1.11.19.29.19.43,0,.43-.5,0-3.35-1.18-3.29-1.36.02-.08.5-.28.68-.29.05,0,.33.05.63.11Z"/>
    <path d="M554.63,331.54c0,4.72,0,4.63.63,5.35.22.24.57.51.84.65l.47.23h7.28l.47-.23c.27-.13.63-.41.84-.65.64-.71.63-.63.63-5.35v-4.16h-11.17v4.16Z"/>
  </g>
  <g>
    <path d="M150.39,369.87c-1.39,0-2.51,1.12-2.51,2.51s1.12,2.51,2.51,2.51,2.51-1.12,2.51-2.51-1.13-2.51-2.51-2.51Z"/>
    <path d="M161.12,369.87c-1.39,0-2.51,1.12-2.51,2.51s1.13,2.51,2.51,2.51,2.51-1.12,2.51-2.51c0-1.39-1.13-2.51-2.51-2.51Z"/>
    <path d="M171.84,369.87c-1.39,0-2.51,1.12-2.51,2.51s1.13,2.51,2.51,2.51,2.51-1.12,2.51-2.51-1.13-2.51-2.51-2.51Z"/>
    <path d="M177.57,357.9h-32.91c-2.53,0-4.59,2.06-4.59,4.59v35.24c0,2.53,2.06,4.59,4.59,4.59h32.91c2.53,0,4.59-2.06,4.59-4.59v-35.24c0-2.53-2.06-4.59-4.59-4.59ZM149.94,399.41l.45-10.07.45,10.07h-.89ZM160.67,399.41l.45-10.07.45,10.07h-.9ZM171.4,399.41l.45-10.07.45,10.07h-.9ZM179.26,397.72c0,.93-.76,1.69-1.69,1.69h-2.97l.08-11.76c.19.27.49.45.84.44.54-.03.96-.48.93-1.02l.42-8.36c0-3.29-3.33-3.45-5.03-3.45s-5.03.16-5.03,3.45l.28,8.36c-.02.54.39,1,.93,1.02.47.02.86-.3.98-.74l.08,12.06h-5.21l.08-11.76c.19.27.49.45.84.44.54-.03.96-.48.93-1.02l.42-8.36c0-3.29-3.33-3.45-5.03-3.45s-5.03.16-5.03,3.45l.28,8.36c-.03.54.39,1,.93,1.02.47.02.86-.3.98-.74l.08,12.07h-5.21l.08-11.76c.19.27.49.45.84.44.54-.03.96-.48.93-1.02l.42-8.37c0-3.29-3.33-3.45-5.03-3.45s-5.03.16-5.03,3.45l.28,8.37c-.03.54.39,1,.93,1.02.47.02.87-.3.98-.74l.08,12.07h-2.97c-.93,0-1.69-.76-1.69-1.69v-35.24c0-.93.76-1.69,1.69-1.69h32.91c.93,0,1.69.76,1.69,1.69v35.24h0Z"/>
    <path d="M164.4,350.36l3.44-3.44v7.73c0,.7.57,1.28,1.28,1.28s1.28-.57,1.28-1.28v-7.73l3.44,3.44c.25.25.58.37.9.37s.65-.13.9-.37c.5-.5.5-1.31,0-1.81l-5.62-5.62-.9-.9-.9.9-5.62,5.62c-.5.5-.5,1.31,0,1.81.5.5,1.31.5,1.81,0Z"/>
    <path d="M152.21,355.56h0s.9.9.9.9l.9-.9s0,0,0,0l5.62-5.62c.5-.5.5-1.31,0-1.81-.5-.5-1.31-.5-1.81,0l-3.44,3.44v-7.73c0-.71-.57-1.28-1.28-1.28s-1.28.57-1.28,1.28v7.73l-3.44-3.44c-.5-.5-1.31-.5-1.81,0-.5.5-.5,1.31,0,1.81l5.62,5.62Z"/>
  </g>
  <g>
    <path d="M52.8,472.73v17.97h36.24v-35.94h-36.24v17.97ZM81.88,468.17v11.02l.55.09c.65.1,1.48.48,1.82.83.57.57,1.58,2.41,1.6,2.92.01.23,0,.25-.28.31-.16.03-1.06.05-1.99.05h-1.7v4.73l.81.84c.84.86,1.1,1.2,1.03,1.28-.09.08-4.46.16-9.21.16h-4.8s-1.28-1.22-1.28-1.22l-1.28-1.23h-3.29l1.16,1.12c1.04,1.01,1.14,1.13,1.01,1.2-.09.06-.83.1-2.04.13l-1.89.04-1.07-1.07-1.07-1.07v-15.17h4.66s.97-1.13.97-1.13c1.34-1.57,1.68-1.92,1.79-1.92.08,0,.96,1.79,1.77,3.6l.3.66-2.61,5.26c-3.15,6.37-3.52,7.16-3.36,7.26.14.09,1.13.08,1.83-.01.63-.09,1.25-.34,1.49-.6.24-.25,1.15-1.95,3.13-5.84,2.02-3.96,2.49-4.82,2.59-4.79.11.04.17.54.25,2.44.09,1.87.23,3.12.42,3.78.2.69-.14.66,5.82.66,5.31,0,5.62-.01,5.73-.3.05-.15-.38-.96-.72-1.36-.16-.18-.4-.38-.52-.44-.43-.22-1.36-.32-3.85-.4-1.37-.04-2.8-.1-3.17-.12l-.68-.04-.21-3.1-.22-3.11-.28-.63c-.16-.35-.67-1.45-1.15-2.45-.48-.99-.86-1.86-.86-1.92,0-.16.36-.19,1.67-.17l1.19.02.72,1.25c1.18,2.06,1.76,2.74,2.3,2.74.25,0,.78-.35.92-.6.23-.45-.06-1.3-1.05-3.02-1.08-1.87-1.48-2.31-2.35-2.59-.51-.16-.61-.16-4.29-.16-2.94,0-3.85.02-4.18.1-.37.09-.48.17-1.19.89-.43.44-1.32,1.45-1.98,2.23l-1.19,1.42h-1.84s-1.85,0-1.85,0v-13.57h21.92v11.03Z"/>
    <path d="M67.12,460.63c-.83.24-1.5,1.21-1.52,2.18-.01.73.7,1.91,1.39,2.28.18.1.41.13.91.13.58,0,.73-.03,1.1-.21.92-.45,1.33-1.16,1.36-2.29,0-.56-.01-.67-.19-.97-.25-.42-.87-1.01-1.22-1.16-.34-.14-1.3-.13-1.83.03Z"/>
  </g>
  <g>
    <text class="cls-3" transform="translate(492.57 524.95)"><tspan x="0" y="0">241</tspan></text>
    <rect class="cls-1" x="480.95" y="499.32" width="65.66" height="35.91" rx="16" ry="16"/>
  </g>
  <g>
    <text class="cls-3" transform="translate(238.24 525.18)"><tspan x="0" y="0">242</tspan></text>
    <rect class="cls-1" x="226.62" y="499.55" width="65.66" height="35.91" rx="16" ry="16"/>
  </g>
</svg>