<?xml version="1.0" encoding="UTF-8"?>
<svg id="_トレース" data-name="トレース" xmlns="http://www.w3.org/2000/svg" viewBox="0 0 595 842">
  <defs>
    <style>
      .cls-1 {
        font-size: 18px;
        letter-spacing: .3em;
      }

      .cls-1, .cls-2, .cls-3, .cls-4, .cls-5, .cls-6, .cls-7 {
        stroke-miterlimit: 10;
      }

      .cls-1, .cls-7 {
        fill: #028760;
        font-family: BIZ-UDGothic, 'BIZ UDGothic';
        stroke: #028760;
      }

      .cls-2, .cls-3, .cls-4, .cls-6 {
        fill: none;
      }

      .cls-2, .cls-3, .cls-5, .cls-6 {
        stroke: #6fba2d;
      }

      .cls-3 {
        stroke-width: 3px;
      }

      .cls-4 {
        stroke: #3b7960;
      }

      .cls-8 {
        fill: #ef4444;
      }

      .cls-5 {
        fill: #6fba2d;
      }

      .cls-6 {
        stroke-width: 2px;
      }

      .cls-7 {
        font-size: 14px;
        letter-spacing: .25em;
      }
    </style>
  </defs>
  <g>
    <g>
      <polygon class="cls-3" points="18.3 158.04 18.3 434.62 445.93 684.34 567.79 475.97 266.4 304.6 266.4 158.25 18.3 158.04"/>
      <polyline class="cls-3" points="500.2 592.8 537.53 615.14 576.91 549.24 576.91 502.11 559.36 490.59"/>
    </g>
    <g>
      <line class="cls-2" x1="199.43" y1="465.85" x2="222.7" y2="479.22"/>
      <line class="cls-2" x1="202.08" y1="460.74" x2="225.45" y2="474.62"/>
      <line class="cls-2" x1="204.42" y1="456.96" x2="227.8" y2="470.03"/>
      <line class="cls-2" x1="207.08" y1="452.47" x2="230.36" y2="465.95"/>
      <line class="cls-2" x1="209.53" y1="447.58" x2="233.11" y2="461.56"/>
      <line class="cls-2" x1="212.19" y1="443.8" x2="234.95" y2="456.96"/>
      <line class="cls-2" x1="214.94" y1="439.61" x2="237.81" y2="452.77"/>
      <line class="cls-2" x1="217.18" y1="435.12" x2="240.46" y2="448.49"/>
      <line class="cls-2" x1="246.28" y1="446.34" x2="270.68" y2="459.82"/>
      <line class="cls-2" x1="243.83" y1="450.63" x2="267.92" y2="464.51"/>
      <line class="cls-2" x1="241.78" y1="455.13" x2="265.48" y2="468.91"/>
      <line class="cls-2" x1="239.44" y1="459.42" x2="262.82" y2="473.2"/>
      <line class="cls-2" x1="236.69" y1="464.01" x2="259.96" y2="477.79"/>
      <line class="cls-2" x1="234.03" y1="467.89" x2="257.51" y2="481.56"/>
      <line class="cls-2" x1="231.68" y1="472.28" x2="255.16" y2="485.96"/>
      <line class="cls-2" x1="229.02" y1="476.67" x2="252.82" y2="490.45"/>
      <polygon class="cls-2" points="243.83 443.8 222.81 480.54 225.25 482.08 246.38 445.53 243.83 443.8"/>
      <polyline class="cls-2" points="499.52 478.06 468.1 532.54 503.16 553.57 534.44 500.45 517.99 491.55"/>
      <line class="cls-2" x1="530.93" y1="505.03" x2="515.43" y2="496.27"/>
      <line class="cls-2" x1="528.37" y1="509.08" x2="513.54" y2="500.58"/>
      <line class="cls-2" x1="525.81" y1="513.26" x2="511.11" y2="504.76"/>
      <line class="cls-2" x1="523.65" y1="517.3" x2="508.42" y2="508.54"/>
      <line class="cls-2" x1="520.96" y1="521.75" x2="505.86" y2="513.12"/>
      <line class="cls-2" x1="517.99" y1="526.33" x2="503.29" y2="517.57"/>
      <line class="cls-2" x1="515.56" y1="531.19" x2="500.6" y2="522.56"/>
      <line class="cls-2" x1="478.75" y1="515.55" x2="493.72" y2="524.58"/>
      <line class="cls-2" x1="481.18" y1="510.83" x2="496.55" y2="520"/>
      <line class="cls-2" x1="484.01" y1="506.51" x2="498.98" y2="515.28"/>
      <line class="cls-2" x1="486.44" y1="502.06" x2="501.81" y2="511.1"/>
      <line class="cls-2" x1="489.27" y1="497.89" x2="504.24" y2="506.78"/>
      <line class="cls-2" x1="491.56" y1="493.84" x2="506.13" y2="502.6"/>
      <line class="cls-2" x1="494.26" y1="489.26" x2="508.42" y2="497.89"/>
      <line class="cls-2" x1="496.42" y1="485.08" x2="511.25" y2="493.71"/>
      <polygon class="cls-2" points="514.89 488.31 493.59 525.8 496.82 527.82 518.4 490.2 514.89 488.31"/>
      <polyline class="cls-2" points="576.91 502.11 528.37 585.12 531.47 587.14 556.55 544.4 553.86 542.38"/>
      <line class="cls-2" x1="533.36" y1="534.83" x2="550.89" y2="545.62"/>
      <line class="cls-2" x1="530.53" y1="540.09" x2="548.06" y2="550.47"/>
      <line class="cls-2" x1="528.1" y1="544.54" x2="545.77" y2="554.78"/>
      <line class="cls-2" x1="525.54" y1="548.72" x2="543.2" y2="559.1"/>
      <line class="cls-2" x1="523.11" y1="553.03" x2="540.91" y2="563.01"/>
      <line class="cls-2" x1="520.69" y1="557.08" x2="538.35" y2="567.46"/>
      <line class="cls-2" x1="518.53" y1="561.12" x2="536.06" y2="571.5"/>
      <line class="cls-2" x1="515.7" y1="565.57" x2="533.09" y2="575.95"/>
      <line class="cls-2" x1="532.15" y1="586.33" x2="548.33" y2="595.91"/>
      <line class="cls-2" x1="534.71" y1="582.42" x2="550.62" y2="592.13"/>
      <line class="cls-2" x1="537" y1="578.24" x2="553.59" y2="587.68"/>
      <line class="cls-2" x1="539.43" y1="573.93" x2="556.01" y2="583.64"/>
    </g>
    <g>
      <polyline class="cls-6" points="203.88 157.66 203.88 255.71 179.8 297.43"/>
      <line class="cls-6" x1="205.17" y1="174.86" x2="266.24" y2="174.86"/>
      <polyline class="cls-6" points="18.52 305.17 142.81 305.17 166.46 319.36"/>
      <polyline class="cls-6" points="18.09 340.44 143.67 340.44 212.05 379.58"/>
      <line class="cls-6" x1="169.69" y1="315.71" x2="152.7" y2="345.38"/>
      <line class="cls-6" x1="208.72" y1="272.38" x2="198.18" y2="266.14"/>
      <line class="cls-6" x1="228.93" y1="282.7" x2="265.92" y2="303.99"/>
      <polyline class="cls-6" points="229.4 389.47 239.29 395.34 166.61 521.07"/>
      <polyline class="cls-6" points="219.08 551.75 320.29 375.7 334.2 384.45"/>
      <polyline class="cls-6" points="312.55 387.75 279.86 368.54 258.64 406.1 290.76 425.88"/>
      <line class="cls-6" x1="352.37" y1="393.55" x2="405.37" y2="424.63"/>
      <line class="cls-6" x1="434.12" y1="441.51" x2="332.33" y2="617.84"/>
      <line class="cls-6" x1="509.5" y1="443.89" x2="390.58" y2="651.19"/>
      <line class="cls-6" x1="421.32" y1="433.77" x2="491.7" y2="475.03"/>
    </g>
    <circle class="cls-5" cx="260.51" cy="347.32" r="6.45"/>
  </g>
  <g>
    <text class="cls-1" transform="translate(299.56 579.14)"><tspan x="0" y="0">161</tspan></text>
    <rect class="cls-4" x="289.2" y="556.3" width="58.52" height="32" rx="16" ry="16"/>
  </g>
  <g>
    <text class="cls-1" transform="translate(136.02 482.82)"><tspan x="0" y="0">162</tspan></text>
    <rect class="cls-4" x="125.66" y="459.98" width="58.52" height="32" rx="16" ry="16"/>
  </g>
  <g>
    <text class="cls-7" transform="translate(30.85 221.46)"><tspan x="0" y="0">163 クラフトルーム</tspan></text>
    <rect class="cls-4" x="19.94" y="203.73" width="182.82" height="24.84" rx="11.43" ry="11.43"/>
  </g>
  <g>
    <path d="M327.82,383.86c-.17.02-.92.06-1.67.09-1,.04-1.43.08-1.57.13-.26.09-.63.47-.83.83-.08.15-.27.4-.42.56l-.28.28h-.52c-.59,0-.75.05-.87.28-.16.3,0,.71.3.81.09.03.38.06.64.06h.48s.19.2.19.2c.27.28.49.38.88.38.36,0,.57-.08.81-.31.14-.13.15-.13.4-.08.72.14,1.99.65,3.21,1.28.39.2.71.36.72.36,0,0,0-.21-.01-.47-.01-.35-.04-.49-.1-.56-.1-.12-1.06-.74-1.94-1.26l-.72-.42h-.6q-.6,0-.66-.11c-.03-.07-.04-.13,0-.16.1-.1,2.62-.99,3.36-1.19l.19-.05-.12-.22c-.17-.3-.34-.47-.45-.46-.06,0-.23.02-.39.04ZM324.28,385.88c.29.1.38.48.17.72-.09.11-.15.13-.33.13s-.23-.02-.33-.13c-.2-.23-.11-.61.17-.72.15-.06.15-.06.31,0Z"/>
    <path d="M320.73,385.84c-1.81.27-2.8,1.72-2.59,3.8.06.63.19,1.26.55,2.71.38,1.5.46,2.01.49,2.84.02.54,0,.82-.05,1.14-.04.24-.07.44-.06.44,0,0,.13.05.27.09s.33.12.43.17c.1.05.18.08.19.07.05-.05.17-.65.21-1.11.1-.98-.03-1.94-.53-3.95-.41-1.64-.49-2.07-.52-2.71-.04-.92.11-1.45.52-1.9.12-.13.3-.28.41-.34.24-.14.77-.3,1-.3.17,0,.18,0,.14-.11-.05-.13-.04-.67,0-.8.04-.11.02-.12-.45-.05Z"/>
    <path d="M323.05,388.12v.55l-.39.19c-.74.37-1.37,1.15-1.55,1.94-.05.2-.07.54-.07,1.04v.75h6.19v-.75c0-.83-.05-1.11-.28-1.57-.27-.55-.74-1-1.36-1.32l-.38-.19v-.49c0-.27-.01-.53-.03-.59-.03-.1-.04-.1-.11-.04-.14.12-.5.26-.77.28-.35.04-.73-.05-1-.21-.12-.08-.22-.14-.23-.14-.01,0-.02.24-.02.54Z"/>
    <path d="M321.03,395.63v2.59h6.19v-5.18h-6.19v2.59ZM326.08,395.65v1.24h-3.9v-2.48h3.9v1.24Z"/>
    <path d="M318.39,397.26c-.06.03-.44.64-.98,1.61l-.88,1.56.13.14c.16.17,1,.58,1.57.77.24.08.57.16.74.17.29.02.31.01.35-.09.03-.06.24-.83.47-1.71.29-1.1.41-1.63.39-1.72-.11-.44-1.35-.95-1.79-.74ZM317.83,400.21c.48.1.94.36,1.11.61.11.16.11.24,0,.24-.28,0-1.86-.65-1.83-.75.01-.05.28-.16.38-.16.03,0,.18.03.35.06Z"/>
    <path d="M321.03,400.98c0,2.61,0,2.57.35,2.96.12.13.32.28.47.36l.26.13h4.04l.26-.13c.15-.07.35-.22.47-.36.35-.39.35-.35.35-2.96v-2.31h-6.19v2.31Z"/>
  </g>
  <g>
    <path d="M239.64,286.17c-.17.02-.92.06-1.67.09-1,.04-1.43.08-1.57.13-.26.09-.63.47-.83.83-.08.15-.27.4-.42.56l-.28.28h-.52c-.59,0-.75.05-.87.28-.16.3,0,.71.3.81.09.03.38.06.64.06h.48s.19.2.19.2c.27.28.49.38.88.38.36,0,.57-.08.81-.31.14-.13.15-.13.4-.08.72.14,1.99.65,3.21,1.28.39.2.71.36.72.36,0,0,0-.21-.01-.47-.01-.35-.04-.49-.1-.56-.1-.12-1.06-.74-1.94-1.26l-.72-.42h-.6q-.6,0-.66-.11c-.03-.07-.04-.13,0-.16.1-.1,2.62-.99,3.36-1.19l.19-.05-.12-.22c-.17-.3-.34-.47-.45-.46-.06,0-.23.02-.39.04ZM236.1,288.2c.29.1.38.48.17.72-.09.11-.15.13-.33.13s-.23-.02-.33-.13c-.2-.23-.11-.61.17-.72.15-.06.15-.06.31,0Z"/>
    <path d="M232.55,288.15c-1.81.27-2.8,1.72-2.59,3.8.06.63.19,1.26.55,2.71.38,1.5.46,2.01.49,2.84.02.54,0,.82-.05,1.14-.04.24-.07.44-.06.44,0,0,.13.05.27.09s.33.12.43.17c.1.05.18.08.19.07.05-.05.17-.65.21-1.11.1-.98-.03-1.94-.53-3.95-.41-1.64-.49-2.07-.52-2.71-.04-.92.11-1.45.52-1.9.12-.13.3-.28.41-.34.24-.14.77-.3,1-.3.17,0,.18,0,.14-.11-.05-.13-.04-.67,0-.8.04-.11.02-.12-.45-.05Z"/>
    <path d="M234.87,290.43v.55l-.39.19c-.74.37-1.37,1.15-1.55,1.94-.05.2-.07.54-.07,1.04v.75h6.19v-.75c0-.83-.05-1.11-.28-1.57-.27-.55-.74-1-1.36-1.32l-.38-.19v-.49c0-.27-.01-.53-.03-.59-.03-.1-.04-.1-.11-.04-.14.12-.5.26-.77.28-.35.04-.73-.05-1-.21-.12-.08-.22-.14-.23-.14-.01,0-.02.24-.02.54Z"/>
    <path d="M232.85,297.94v2.59h6.19v-5.18h-6.19v2.59ZM237.9,297.96v1.24h-3.9v-2.48h3.9v1.24Z"/>
    <path d="M230.21,299.58c-.06.03-.44.64-.98,1.61l-.88,1.56.13.14c.16.17,1,.58,1.57.77.24.08.57.16.74.17.29.02.31.01.35-.09.03-.06.24-.83.47-1.71.29-1.1.41-1.63.39-1.72-.11-.44-1.35-.95-1.79-.74ZM229.65,302.52c.48.1.94.36,1.11.61.11.16.11.24,0,.24-.28,0-1.86-.65-1.83-.75.01-.05.28-.16.38-.16.03,0,.18.03.35.06Z"/>
    <path d="M232.85,303.3c0,2.61,0,2.57.35,2.96.12.13.32.28.47.36l.26.13h4.04l.26-.13c.15-.07.35-.22.47-.36.35-.39.35-.35.35-2.96v-2.31h-6.19v2.31Z"/>
  </g>
  <g>
    <path d="M278.98,393.77c-.76,0-1.38.62-1.38,1.38s.62,1.38,1.38,1.38,1.38-.62,1.38-1.38-.62-1.38-1.38-1.38Z"/>
    <path d="M284.88,393.77c-.76,0-1.38.62-1.38,1.38s.62,1.38,1.38,1.38,1.38-.62,1.38-1.38c0-.76-.62-1.38-1.38-1.38Z"/>
    <path d="M290.78,393.77c-.76,0-1.38.62-1.38,1.38s.62,1.38,1.38,1.38,1.38-.62,1.38-1.38-.62-1.38-1.38-1.38Z"/>
    <path d="M293.93,387.18h-18.1c-1.39,0-2.52,1.13-2.52,2.52v19.38c0,1.39,1.13,2.52,2.52,2.52h18.1c1.39,0,2.52-1.13,2.52-2.52v-19.38c0-1.39-1.13-2.52-2.52-2.52ZM278.73,410.02l.25-5.54.25,5.54h-.49ZM284.63,410.02l.25-5.54.25,5.54h-.49ZM290.53,410.02l.25-5.54.25,5.54h-.49ZM294.86,409.08c0,.51-.42.93-.93.93h-1.63l.05-6.47c.1.15.27.25.46.24.3-.01.53-.27.51-.56l.23-4.6c0-1.81-1.83-1.9-2.77-1.9s-2.77.09-2.77,1.9l.15,4.6c-.01.3.21.55.51.56.26.01.47-.17.54-.41l.05,6.63h-2.86l.04-6.47c.1.15.27.25.46.24.3-.01.53-.27.51-.56l.23-4.6c0-1.81-1.83-1.9-2.77-1.9s-2.77.09-2.77,1.9l.15,4.6c-.01.3.21.55.51.56.26.01.48-.17.54-.41l.05,6.64h-2.86l.04-6.47c.1.15.27.25.46.24.3-.01.53-.27.51-.56l.23-4.6c0-1.81-1.83-1.9-2.77-1.9s-2.77.09-2.77,1.9l.15,4.6c-.01.3.22.55.51.56.26.01.48-.17.54-.41l.05,6.64h-1.63c-.51,0-.93-.42-.93-.93v-19.38c0-.51.42-.93.93-.93h18.1c.51,0,.93.42.93.93v19.38h0Z"/>
    <path d="M286.68,383.04l1.89-1.89v4.25c0,.39.31.7.7.7s.7-.31.7-.7v-4.25l1.89,1.89c.14.14.32.21.5.21s.36-.07.5-.21c.27-.27.27-.72,0-.99l-3.09-3.09-.5-.5-.5.5-3.09,3.09c-.27.27-.27.72,0,.99.27.27.72.27.99,0Z"/>
    <path d="M279.98,385.9h0s.5.5.5.5l.5-.5s0,0,0,0l3.09-3.09c.27-.27.27-.72,0-.99-.27-.27-.72-.27-.99,0l-1.89,1.89v-4.25c0-.39-.31-.7-.7-.7s-.7.31-.7.7v4.25l-1.89-1.89c-.27-.27-.72-.27-.99,0-.27.27-.27.72,0,.99l3.09,3.09Z"/>
  </g>
  <g>
    <path d="M548.69,526.29v12.35h24.91v-24.7h-24.91v12.35ZM568.68,523.16v7.57l.38.06c.45.07,1.01.33,1.25.57.39.39,1.09,1.66,1.1,2,.01.16,0,.17-.19.21-.11.02-.73.04-1.37.04h-1.17v3.25l.56.57c.57.59.76.83.71.88-.06.06-3.06.11-6.33.11h-3.3s-.88-.84-.88-.84l-.88-.85h-2.26l.79.77c.72.7.78.77.7.83-.06.04-.57.07-1.4.09l-1.3.03-.74-.74-.74-.74v-10.43h3.2s.67-.78.67-.78c.92-1.08,1.15-1.32,1.23-1.32.06,0,.66,1.23,1.21,2.48l.2.46-1.79,3.62c-2.17,4.38-2.42,4.92-2.31,4.99.1.06.77.06,1.26-.01.43-.06.86-.23,1.02-.42.16-.17.79-1.34,2.15-4.01,1.39-2.72,1.71-3.31,1.78-3.29.08.03.12.37.17,1.68.06,1.29.16,2.15.29,2.6.14.48-.1.45,4,.45,3.65,0,3.86-.01,3.94-.2.04-.1-.26-.66-.5-.93-.11-.12-.27-.26-.36-.3-.3-.15-.94-.22-2.65-.28-.94-.03-1.93-.07-2.18-.08l-.47-.03-.14-2.13-.15-2.14-.19-.44c-.11-.24-.46-.99-.79-1.68-.33-.68-.59-1.28-.59-1.32,0-.11.25-.13,1.15-.12l.81.02.49.86c.81,1.41,1.21,1.89,1.58,1.89.17,0,.54-.24.64-.42.16-.31-.04-.89-.72-2.08-.74-1.29-1.02-1.59-1.61-1.78-.35-.11-.42-.11-2.95-.11-2.02,0-2.65.02-2.87.07-.26.06-.33.12-.82.61-.3.3-.91.99-1.36,1.53l-.82.98h-1.27s-1.27,0-1.27,0v-9.33h15.07v7.58Z"/>
    <path d="M558.53,517.98c-.57.16-1.03.83-1.05,1.5-.01.5.48,1.31.96,1.57.12.07.28.09.63.09.4,0,.5-.02.75-.14.63-.31.92-.79.93-1.57,0-.38-.01-.46-.13-.67-.17-.29-.6-.7-.84-.8-.23-.1-.9-.09-1.26.02Z"/>
  </g>
  <g>
    <path class="cls-8" d="M234.11,187.31c-.88.16-1.59.72-1.94,1.53-.15.35-.21.67-.19,1.08,0,.23.03.39.06.53.2.75.67,1.34,1.35,1.68,1.27.63,2.8.11,3.42-1.16.15-.32.22-.55.25-.89.09-.93-.35-1.85-1.12-2.36-.55-.36-1.22-.51-1.83-.4Z"/>
    <path class="cls-8" d="M231.42,192.97c-.93.14-1.7.66-2.26,1.5-.26.39-.19.19-1.2,3.51-.4,1.31-.83,2.72-1.14,3.74-.13.42-.25.84-.26.93-.1.57.2,1.1.71,1.25.39.12.79.01,1.07-.29.21-.23.18-.15.92-2.66.16-.55.4-1.35.53-1.76.12-.42.36-1.2.51-1.73l.29-.97h.53c.44,0,.53,0,.53.03,0,.02-.08.31-.17.66-.17.61-.68,2.46-2.02,7.26-1.02,3.66-1.04,3.74-1.06,3.79-.01.04.07.04,1.57.04h1.58v4.66c0,5.08,0,4.81.14,5.1.13.25.38.46.68.55.19.06.6.06.79-.01.36-.13.6-.37.72-.74.04-.13.04-.35.05-4.87v-4.73h1.21v4.74c0,4.74,0,4.74.05,4.89.15.46.52.73,1.04.77.62.04,1.14-.36,1.23-.95.02-.11.03-1.71.03-4.78v-4.62h1.57c1.02,0,1.57,0,1.57-.02,0-.01-.18-.66-.39-1.43-.22-.77-.49-1.75-.61-2.18-.12-.42-.39-1.41-.61-2.18-.67-2.4-.83-2.96-1-3.58-.09-.33-.28-.99-.41-1.48-.14-.48-.25-.89-.25-.9,0-.01.22-.02.56-.02h.56l.05.18c.03.1.07.24.1.33.02.08.13.45.24.82.11.37.29.99.41,1.37.11.38.28.96.38,1.27.36,1.2.52,1.75.65,2.19.07.25.16.51.19.59.2.53.67.82,1.15.73.56-.1.92-.6.87-1.2-.01-.18-.03-.25-.58-2.06-.49-1.61-1.28-4.2-1.48-4.89-.11-.35-.23-.71-.29-.84-.14-.3-.41-.65-.74-.97-.6-.58-1.29-.93-2.05-1.03-.34-.05-5.62-.05-5.93,0Z"/>
  </g>
</svg>