<?xml version="1.0" encoding="UTF-8"?>
<svg id="_レイヤー_1" xmlns="http://www.w3.org/2000/svg" version="1.1" viewBox="0 0 594.23 335.46">
  <!-- Generator: Adobe Illustrator 29.5.1, SVG Export Plug-In . SVG Version: 2.1.0 Build 141)  -->
  <defs>
    <style>
      .st0 {
        stroke-width: 3px;
      }

      .st0, .st1, .st2, .st3 {
        fill: none;
        stroke: #965045;
        stroke-miterlimit: 10;
      }

      .st1, .st4 {
        font-family: BIZ-UDGothic, 'BIZ UDGothic';
        font-size: 26.45px;
        letter-spacing: .2em;
      }

      .st1, .st4, .st5 {
        isolation: isolate;
      }

      .st4 {
        fill: #965045;
      }

      .st6 {
        fill: #3b82f6;
      }

      .st2 {
        stroke-width: 2px;
      }
    </style>
  </defs>
  <g>
    <polyline class="st0" points="1.5 335.46 1.5 1.5 173.7 1.5 173.7 63.58 414.85 63.58 414.85 228.62 592.73 228.62 592.73 333.67 413.66 333.67 413.66 266.22 338.45 266.22 338.45 333.08 2.1 333.08"/>
    <g>
      <line class="st3" x1="338.45" y1="130.58" x2="370.53" y2="130.58"/>
      <line class="st3" x1="338.45" y1="137" x2="370.53" y2="137"/>
      <line class="st3" x1="338.45" y1="143.11" x2="370.83" y2="143.11"/>
      <line class="st3" x1="338.3" y1="149.68" x2="370.98" y2="149.68"/>
      <line class="st3" x1="338.6" y1="156.54" x2="370.83" y2="156.54"/>
      <line class="st3" x1="338.45" y1="162.96" x2="370.53" y2="162.96"/>
      <line class="st3" x1="338.75" y1="169.08" x2="370.68" y2="169.08"/>
      <line class="st3" x1="338.6" y1="175.5" x2="370.83" y2="175.5"/>
      <line class="st3" x1="338.45" y1="181.76" x2="370.68" y2="181.76"/>
      <line class="st3" x1="338.45" y1="188.18" x2="370.68" y2="188.18"/>
      <line class="st3" x1="338.75" y1="194.89" x2="370.83" y2="194.89"/>
      <line class="st3" x1="338.45" y1="200.56" x2="370.53" y2="200.56"/>
      <line class="st3" x1="338.45" y1="207.28" x2="370.83" y2="207.28"/>
      <line class="st3" x1="338.6" y1="213.7" x2="370.53" y2="213.7"/>
      <rect class="st3" x="370.83" y="123.42" width="3.43" height="96.85"/>
    </g>
    <g>
      <line class="st2" x1="414.37" y1="229.48" x2="414.37" y2="266.27"/>
      <line class="st2" x1="415.46" y1="229.48" x2="591.62" y2="332.71"/>
      <line class="st2" x1="370.44" y1="124.08" x2="337.98" y2="124.08"/>
      <polyline class="st2" points="337.76 265.19 337.76 102 84.55 102"/>
      <line class="st2" x1="155.75" y1="102.65" x2="155.75" y2="332.49"/>
      <line class="st2" x1="155.1" y1="230.13" x2="1.87" y2="230.13"/>
      <line class="st2" x1="84.11" y1="229.48" x2="84.11" y2="63.7"/>
      <line class="st2" x1="83.46" y1="132.95" x2="1.44" y2="132.95"/>
      <line class="st2" x1="83.25" y1="179.05" x2="3.17" y2="179.05"/>
      <line class="st2" x1="2.74" y1="63.48" x2="144.93" y2="63.48"/>
      <line class="st2" x1="122.64" y1="64.13" x2="122.64" y2="101.79"/>
      <line class="st2" x1="166.79" y1="63.91" x2="176.74" y2="63.91"/>
    </g>
  </g>
  <g>
    <path class="st6" d="M81.76,11.72c-.68.12-1.23.42-1.7.92-1.14,1.21-1.09,3.12.12,4.26.76.72,1.84.99,2.87.72.32-.08.81-.34,1.09-.56.94-.76,1.34-2.02,1.01-3.18-.28-.95-.99-1.7-1.91-2.02-.48-.16-1.03-.21-1.48-.13h0Z"/>
    <path class="st6" d="M77.9,18.37c-.5.03-.93.16-1.4.39-1.22.61-2.01,1.8-2.14,3.18-.02.24-.03,1.83-.02,5.14v4.79l.07.19c.12.35.35.62.66.76.12.06.19.07.46.07.29,0,.33,0,.49-.08.33-.16.57-.48.66-.86.03-.12.04-1.17.04-4.78v-4.63h1.43v12.33c0,10.74,0,12.36.04,12.54.16.78.86,1.34,1.65,1.35.23,0,.58-.09.8-.21.26-.14.56-.45.7-.72.2-.42.19.15.19-7.82v-7.19h1.42v7.2c0,7.94-.01,7.39.19,7.79.19.39.52.68.96.85.17.06.24.08.54.08s.37,0,.54-.08c.44-.17.77-.46.96-.84.21-.42.19.69.19-12.95v-12.33h1.42v4.6c0,3.18,0,4.66.03,4.77.08.41.31.73.66.9.21.1.23.11.48.11.2,0,.3-.02.42-.06.41-.17.69-.54.76-1.04.04-.28.04-9.35,0-9.8-.16-1.77-1.38-3.19-3.06-3.57-.19-.04-.4-.06-.75-.07-.88-.02-8.13-.03-8.42,0h.03Z"/>
  </g>
  <g class="st5">
    <text class="st4" transform="translate(54.79 278.42)"><tspan x="0" y="0">STAFF ONLY</tspan></text>
    <text class="st1" transform="translate(54.79 278.42)"><tspan x="0" y="0">STAFF ONLY</tspan></text>
  </g>
  <g>
    <path d="M352.3,101.12c-.16.02-.89.06-1.62.08-.97.04-1.39.08-1.52.12-.25.09-.61.46-.8.81-.08.15-.26.39-.41.54l-.27.27h-.51c-.57,0-.73.05-.84.27-.15.29,0,.68.29.79.08.03.36.05.62.05h.46l.18.2c.26.27.48.36.85.36.35,0,.56-.08.79-.3.13-.12.14-.13.39-.08.69.14,1.92.63,3.11,1.24.38.19.69.35.69.35,0,0,0-.2-.01-.46-.01-.34-.04-.48-.09-.54-.1-.12-1.03-.72-1.87-1.22l-.7-.41h-.58c-.39,0-.6-.04-.64-.11-.03-.07-.04-.13,0-.16.09-.09,2.54-.96,3.26-1.15l.18-.05-.12-.21c-.16-.29-.33-.45-.44-.44-.05,0-.22.02-.38.04h-.02ZM348.87,103.08c.28.1.37.46.17.69-.09.1-.14.12-.32.12s-.23-.02-.32-.12c-.2-.23-.11-.59.16-.69.15-.06.14-.06.3,0h.01Z"/>
    <path d="M345.43,103.04c-1.75.26-2.71,1.67-2.51,3.68.06.61.19,1.22.53,2.62.36,1.46.45,1.95.48,2.75.02.52,0,.79-.05,1.11-.04.23-.07.42-.06.43,0,0,.12.04.26.09s.32.12.41.16c.1.05.18.08.19.07.05-.05.16-.63.2-1.07.1-.95-.03-1.88-.51-3.82-.4-1.59-.48-2-.5-2.62-.04-.89.1-1.41.5-1.84.12-.12.29-.27.4-.33.24-.14.74-.29.96-.29.16,0,.17,0,.14-.1-.04-.12-.04-.64,0-.78.04-.11.02-.12-.44-.05h0Z"/>
    <path d="M347.68,105.24v.53l-.38.19c-.72.36-1.32,1.11-1.51,1.87-.04.19-.07.52-.07,1v.72h6v-.72c0-.8-.05-1.07-.27-1.52-.26-.53-.72-.97-1.32-1.27l-.37-.18v-.47c0-.26-.01-.52-.03-.57-.03-.09-.04-.09-.1-.04-.13.12-.48.25-.75.28-.34.04-.71-.04-.96-.2-.12-.08-.22-.13-.23-.13s-.02.24-.02.52h.01Z"/>
    <path d="M345.72,112.51v2.51h6v-5.02h-6s0,2.51,0,2.51ZM350.61,112.54v1.2h-3.77v-2.4h3.77v1.2Z"/>
    <path d="M343.17,114.1c-.06.03-.42.62-.95,1.56l-.85,1.51.12.13c.16.16.97.56,1.52.75.23.08.56.15.72.16.28.02.3.01.34-.08.03-.06.23-.8.45-1.65.28-1.07.4-1.58.37-1.66-.11-.43-1.31-.92-1.74-.72h.02ZM342.62,116.95c.46.1.91.35,1.07.6.1.16.1.23,0,.23-.27,0-1.8-.63-1.77-.73.01-.04.27-.15.36-.16.03,0,.18.03.34.06Z"/>
    <path d="M345.72,117.7c0,2.53,0,2.49.34,2.87.12.13.31.28.45.35l.25.12h3.91l.25-.12c.15-.07.34-.22.45-.35.34-.38.34-.34.34-2.87v-2.23h-6v2.23h0Z"/>
  </g>
</svg>