<svg width="346" height="128" viewBox="0 0 346 128" fill="none" xmlns="http://www.w3.org/2000/svg">
<path d="M25.1478 55.6502L17.0985 53.1084L23.0296 41.67L25.5276 40.399M25.1478 55.6502L41.9241 47.1773M25.1478 55.6502L22.1823 57.6273M67.0887 34.468L47.1773 29.3842L37.1852 34.468M67.0887 34.468L56.9212 39.6031M67.0887 34.468L105.217 14.5202M230.192 31.9261L237.394 28.1133L131.059 1L105.217 14.5202M230.192 31.9261L336.103 59.8867L345 67.936L324.241 109.877H284.842L277.64 125.552H174.695M230.192 31.9261L211.128 41.852M135.296 107.01L131.483 117.291M135.296 107.01L150.547 106.911L145.887 117.661M135.296 107.01L129.365 106.488L122.163 106.064L70.0542 92.0837L59.0394 98.0148H1L21.335 58.1921L22.1823 57.6273M41.9241 47.1773L33.6207 44.6355M41.9241 47.1773L44.9575 45.6453M33.6207 44.6355L31.9261 44.2118L33.6207 43.3199M33.6207 44.6355L36.7557 42.903M25.5276 40.399L33.6207 43.3199M25.5276 40.399L28.5369 38.8679M33.6207 43.3199L36.7557 41.67M28.5369 38.8679L36.7557 41.67M28.5369 38.8679L31.3564 37.4335M36.7557 41.67L39.5517 40.1983M31.3564 37.4335L39.5517 40.1983M31.3564 37.4335L34.0443 36.0659M39.5517 40.1983L42.5172 38.6375M34.0443 36.0659L42.5172 38.6375M34.0443 36.0659L37.1852 34.468M42.5172 38.6375L45.2709 37.1882M37.1852 34.468L45.2709 37.1882M45.2709 37.1882L48.0246 35.7389H49.7192L47.3384 37.0546M36.7557 42.903L44.9575 45.6453M36.7557 42.903L39.5517 41.3578M44.9575 45.6453L47.7959 44.2118M39.5517 41.3578L47.7959 44.2118M39.5517 41.3578L41.9241 40.0467M47.7959 44.2118L50.9901 42.5985M41.9241 40.0467L50.9901 42.5985M41.9241 40.0467L44.9575 38.3704M50.9901 42.5985L53.532 41.3148M44.9575 38.3704L53.532 41.3148M44.9575 38.3704L47.3384 37.0546M53.532 41.3148L56.9212 39.6031M47.3384 37.0546L56.9212 39.6031M22.1823 57.6273L127.67 85.3054L142.074 77.8058M105.217 14.5202L179.778 33.7618M211.128 41.852L179.778 33.7618M211.128 41.852L236.123 48.2474M211.128 41.852L189.946 52.8808M142.074 77.8058L111.995 69.2069L147.581 50.5982M142.074 77.8058L147.198 75.1379M179.778 33.7618L147.581 50.5982M147.581 50.5982L177.66 59.2775M177.66 59.2775L175.542 60.3804M177.66 59.2775L178.507 58.8363M174.695 125.552L188.675 97.5911L223.414 80.2217L299.67 80.6453L306.448 66.2414L240.783 49.4398M174.695 125.552H152.241M236.123 48.2474L240.783 49.4398M236.123 48.2474L211.975 61.0204M240.783 49.4398L222.567 59.0239M211.975 64.9704L222.143 68.3596L225.264 66.665M222.567 59.0239L226.379 57.3448L236.97 60.3103L233.849 62.0049M222.567 59.0239L233.849 62.0049M222.567 59.0239L220.121 60.3103M233.849 62.0049L231.039 63.5301M220.121 60.3103L231.039 63.5301M220.121 60.3103L216.9 62.0049M231.039 63.5301L228.386 64.9704M216.9 62.0049L228.386 64.9704M216.9 62.0049L214.001 63.5301M228.386 64.9704L225.264 66.665M214.001 63.5301L189.522 76.4089L185.286 75.1379L197.995 68.4153M214.001 63.5301L225.264 66.665M147.198 75.1379L164.103 79.798L176.813 72.1724L160.714 68.1005M147.198 75.1379L160.714 68.1005M160.714 68.1005L175.542 60.3804M175.542 60.3804L186.98 63.6995M186.98 63.6995L185.709 64.5468L186.98 65.3941L187.805 64.9704M186.98 63.6995L189.522 62.3923M201.808 56.0739L202.655 57.3448L201.736 57.8169M201.808 56.0739L198.419 57.8169M201.808 56.0739L189.946 52.8808M178.507 58.8363L189.522 62.3923M178.507 58.8363L181.049 57.5129M189.522 62.3923L192.747 60.734M181.049 57.5129L192.747 60.734M181.049 57.5129L183.813 56.0739M192.747 60.734L195.579 59.2775M183.813 56.0739L195.579 59.2775M183.813 56.0739L186.557 54.6454M195.579 59.2775L198.419 57.8169M186.557 54.6454L198.419 57.8169M186.557 54.6454L189.946 52.8808M187.805 64.9704L197.995 68.4153M187.805 64.9704L190.28 63.6995M197.995 68.4153L200.537 67.0708M200.537 67.0708L190.28 63.6995M200.537 67.0708L203.502 65.5022M190.28 63.6995L192.747 62.433M203.502 65.5022L192.747 62.433M203.502 65.5022L206.468 63.9336M192.747 62.433L196.055 60.734M206.468 63.9336L196.055 60.734M206.468 63.9336L209.305 62.433M196.055 60.734L198.892 59.2775M209.305 62.433L198.892 59.2775M209.305 62.433L211.975 61.0204M198.892 59.2775L201.736 57.8169M211.975 61.0204L201.736 57.8169M152.241 125.552H127.67L131.483 117.291M152.241 125.552L156.207 117.926M163.256 104.369L156.207 117.926M156.207 117.926L145.887 117.661M131.483 117.291L145.887 117.661" stroke="#6FBA2D"/>
<path d="M158.53 68.4268C158.083 68.4268 157.721 68.789 157.721 69.2362C157.721 69.6833 158.083 70.0455 158.53 70.0455C158.977 70.0455 159.34 69.6833 159.34 69.2362C159.34 68.789 158.977 68.4268 158.53 68.4268Z" fill="black"/>
<path d="M161.985 68.4268C161.538 68.4268 161.176 68.789 161.176 69.2362C161.176 69.6833 161.538 70.0455 161.985 70.0455C162.432 70.0455 162.795 69.6833 162.795 69.2362C162.795 68.789 162.432 68.4268 161.985 68.4268Z" fill="black"/>
<path d="M165.441 68.4268C164.994 68.4268 164.632 68.789 164.632 69.2362C164.632 69.6833 164.994 70.0455 165.441 70.0455C165.889 70.0455 166.251 69.6833 166.251 69.2362C166.251 68.789 165.889 68.4268 165.441 68.4268Z" fill="black"/>
<path d="M167.286 64.5732H156.685C155.87 64.5732 155.207 65.2362 155.207 66.0507V77.4011C155.207 78.2159 155.87 78.8788 156.685 78.8788H167.286C168.101 78.8788 168.764 78.2159 168.764 77.4011V66.0507C168.764 65.2362 168.101 64.5732 167.286 64.5732ZM158.386 77.9464L158.53 74.7018L158.674 77.9464H158.386ZM161.841 77.9464L161.986 74.7018L162.13 77.9464H161.841ZM165.297 77.9464L165.441 74.7018L165.585 77.9464H165.297ZM167.831 77.4011C167.831 77.7018 167.587 77.9464 167.286 77.9464H166.33L166.356 74.1581C166.416 74.2454 166.514 74.3043 166.627 74.2989C166.801 74.2906 166.935 74.1431 166.927 73.9692L167.061 71.2747C167.061 70.2148 165.987 70.1627 165.441 70.1627C164.895 70.1627 163.821 70.2148 163.821 71.2747L163.912 73.9692C163.904 74.1431 164.037 74.2906 164.211 74.2989C164.363 74.3062 164.489 74.2019 164.526 74.0603L164.552 77.9463H162.874L162.901 74.1581C162.96 74.2454 163.058 74.3043 163.172 74.2989C163.345 74.2906 163.479 74.143 163.471 73.9692L163.605 71.2746C163.605 70.2148 162.531 70.1626 161.986 70.1626C161.439 70.1626 160.365 70.2148 160.365 71.2746L160.456 73.9692C160.448 74.143 160.582 74.2906 160.756 74.2989C160.908 74.3062 161.034 74.2016 161.07 74.0595L161.096 77.9463H159.419L159.445 74.1581C159.504 74.2454 159.602 74.3042 159.716 74.2989C159.89 74.2905 160.024 74.143 160.016 73.9691L160.15 71.2746C160.15 70.2148 159.076 70.1626 158.53 70.1626C157.984 70.1626 156.91 70.2148 156.91 71.2746L157 73.9691C156.992 74.143 157.126 74.2905 157.3 74.2989C157.452 74.3061 157.579 74.2016 157.614 74.0594L157.641 77.9463H156.685C156.384 77.9463 156.14 77.7017 156.14 77.401V66.0507C156.14 65.7503 156.384 65.5057 156.685 65.5057H167.286C167.587 65.5057 167.831 65.7503 167.831 66.0507V77.4011H167.831Z" fill="black"/>
<path d="M163.044 62.1456L164.152 61.0379V63.5285C164.152 63.7555 164.336 63.9396 164.563 63.9396C164.79 63.9396 164.975 63.7555 164.975 63.5285V61.0379L166.083 62.1456C166.163 62.2259 166.268 62.2663 166.373 62.2663C166.479 62.2663 166.584 62.2259 166.664 62.1456C166.825 61.9849 166.825 61.7245 166.664 61.5641L164.854 59.7537L164.563 59.4629L164.272 59.7537L162.462 61.5641C162.302 61.7245 162.302 61.9849 162.462 62.1456C162.623 62.3063 162.884 62.3063 163.044 62.1456Z" fill="black"/>
<path d="M159.116 63.8183C159.116 63.8185 159.116 63.8185 159.116 63.8185L159.407 64.1093L159.698 63.8185C159.698 63.8185 159.698 63.8185 159.698 63.8183L161.508 62.0081C161.669 61.8474 161.669 61.5868 161.508 61.4263C161.348 61.2656 161.087 61.2656 160.926 61.4263L159.819 62.5343V60.0438C159.819 59.8164 159.634 59.6323 159.407 59.6323C159.18 59.6323 158.996 59.8164 158.996 60.0438V62.5343L157.888 61.4263C157.727 61.2656 157.467 61.2656 157.306 61.4263C157.145 61.5867 157.145 61.8474 157.306 62.0081L159.116 63.8183Z" fill="black"/>
<path d="M134.07 107.017C133.788 107.069 133.56 107.191 133.366 107.396C132.894 107.895 132.917 108.687 133.418 109.158C133.733 109.457 134.178 109.567 134.607 109.455C134.738 109.422 134.944 109.315 135.059 109.223C135.45 108.91 135.615 108.387 135.476 107.905C135.362 107.511 135.066 107.2 134.684 107.07C134.487 107.003 134.257 106.983 134.07 107.017Z" fill="black"/>
<path d="M132.473 109.769C132.268 109.784 132.088 109.834 131.895 109.93C131.392 110.182 131.062 110.673 131.01 111.247C131.001 111.348 130.998 112.006 131.001 113.377L131.004 115.361L131.031 115.439C131.08 115.582 131.177 115.694 131.305 115.753C131.355 115.777 131.384 115.78 131.496 115.78C131.617 115.78 131.634 115.778 131.7 115.745C131.835 115.678 131.935 115.548 131.972 115.388C131.984 115.339 131.987 114.904 131.987 113.41V111.494H132.285H132.581V116.598C132.581 121.042 132.583 121.713 132.599 121.786C132.666 122.108 132.955 122.343 133.283 122.344C133.378 122.344 133.523 122.307 133.615 122.257C133.723 122.2 133.849 122.07 133.904 121.96C133.988 121.787 133.984 122.021 133.984 118.726V115.75H134.277H134.571V118.732C134.572 122.016 134.566 121.79 134.649 121.955C134.728 122.116 134.865 122.236 135.048 122.305C135.118 122.332 135.146 122.337 135.272 122.337C135.398 122.337 135.427 122.332 135.496 122.305C135.68 122.236 135.817 122.116 135.894 121.958C135.98 121.785 135.974 122.243 135.974 116.598V111.494H136.267H136.561V113.398C136.561 114.714 136.565 115.325 136.574 115.374C136.605 115.543 136.701 115.676 136.846 115.747C136.931 115.79 136.943 115.792 137.045 115.791C137.127 115.791 137.17 115.784 137.218 115.766C137.388 115.697 137.502 115.543 137.532 115.335C137.548 115.222 137.548 111.464 137.532 111.279C137.467 110.547 136.961 109.958 136.267 109.802C136.191 109.785 136.101 109.777 135.956 109.773C135.59 109.765 132.591 109.761 132.473 109.769Z" fill="black"/>
<path d="M141.832 107.018C141.395 107.097 141.042 107.377 140.872 107.778C140.796 107.953 140.768 108.111 140.776 108.313C140.779 108.426 140.789 108.508 140.806 108.576C140.904 108.948 141.14 109.242 141.475 109.408C142.107 109.719 142.864 109.463 143.174 108.83C143.25 108.673 143.284 108.555 143.3 108.39C143.343 107.927 143.126 107.471 142.742 107.216C142.468 107.036 142.135 106.963 141.832 107.018Z" fill="black"/>
<path d="M140.497 109.827C140.036 109.899 139.65 110.155 139.374 110.572C139.244 110.768 139.278 110.669 138.778 112.314C138.581 112.962 138.367 113.666 138.214 114.172C138.149 114.383 138.091 114.589 138.084 114.634C138.034 114.916 138.182 115.179 138.434 115.257C138.63 115.318 138.828 115.263 138.964 115.112C139.066 114.998 139.052 115.039 139.423 113.791C139.504 113.517 139.622 113.123 139.684 112.916C139.745 112.708 139.861 112.321 139.94 112.055L140.084 111.572H140.349C140.57 111.572 140.615 111.575 140.615 111.589C140.615 111.599 140.576 111.745 140.528 111.915C140.443 112.22 140.189 113.136 139.526 115.518C139.021 117.334 139.009 117.377 139.002 117.4C138.996 117.42 139.038 117.422 139.78 117.422H140.566V119.735C140.566 122.254 140.562 122.123 140.634 122.264C140.697 122.389 140.824 122.493 140.97 122.538C141.066 122.569 141.268 122.566 141.361 122.53C141.54 122.466 141.657 122.346 141.718 122.164C141.738 122.101 141.739 121.989 141.743 119.747L141.745 117.397H142.043H142.341V119.75C142.341 122.101 142.341 122.105 142.367 122.18C142.444 122.409 142.626 122.544 142.883 122.562C143.19 122.583 143.449 122.384 143.495 122.091C143.504 122.039 143.509 121.241 143.509 119.716V117.422H144.287C144.794 117.422 145.065 117.418 145.065 117.409C145.065 117.403 144.978 117.083 144.87 116.702C144.763 116.319 144.626 115.832 144.567 115.622C144.507 115.411 144.371 114.924 144.263 114.539C143.928 113.348 143.851 113.072 143.764 112.764C143.718 112.6 143.626 112.27 143.559 112.031C143.491 111.791 143.436 111.59 143.436 111.584C143.436 111.577 143.545 111.572 143.716 111.572H143.994L144.02 111.66C144.034 111.708 144.056 111.781 144.068 111.821C144.08 111.862 144.135 112.045 144.19 112.229C144.245 112.412 144.336 112.719 144.393 112.91C144.449 113.101 144.534 113.384 144.58 113.539C144.758 114.134 144.838 114.407 144.902 114.625C144.939 114.749 144.982 114.88 144.995 114.916C145.096 115.178 145.326 115.325 145.565 115.281C145.841 115.231 146.02 114.984 145.998 114.685C145.991 114.594 145.981 114.559 145.709 113.664C145.466 112.865 145.075 111.579 144.972 111.238C144.92 111.063 144.857 110.886 144.827 110.822C144.755 110.671 144.622 110.497 144.457 110.34C144.158 110.053 143.815 109.881 143.442 109.827C143.273 109.803 140.651 109.803 140.497 109.827Z" fill="black"/>
<path d="M151.279 112.036C152.116 112.036 152.797 111.355 152.797 110.518C152.797 109.681 152.116 109 151.279 109C150.443 109 149.762 109.681 149.762 110.518C149.762 111.355 150.443 112.036 151.279 112.036Z" fill="black"/>
<path d="M154.448 119.275C154.449 119.274 154.449 119.272 154.45 119.271L152.905 119.273C152.859 119.366 152.804 119.457 152.738 119.551C152.563 119.8 152.343 120.011 152.084 120.179C151.827 120.344 151.544 120.457 151.244 120.515C151.101 120.542 150.955 120.556 150.81 120.556C150.643 120.556 150.474 120.537 150.307 120.502C149.993 120.433 149.704 120.307 149.448 120.126C149.197 119.949 148.987 119.729 148.821 119.473C148.656 119.216 148.543 118.933 148.486 118.632C148.427 118.324 148.432 118.008 148.499 117.696C148.567 117.382 148.693 117.093 148.874 116.836C149.051 116.586 149.271 116.375 149.528 116.21C149.787 116.043 150.07 115.93 150.371 115.869L150.099 114.455C149.616 114.546 149.16 114.727 148.745 114.995C148.329 115.264 147.975 115.603 147.693 116.005C147.4 116.422 147.196 116.887 147.086 117.39C146.978 117.892 146.972 118.401 147.066 118.901C147.157 119.385 147.339 119.84 147.607 120.255C147.876 120.672 148.216 121.026 148.617 121.307C149.033 121.6 149.499 121.805 150.001 121.914C150.269 121.971 150.54 122 150.809 122C151.045 122 151.282 121.978 151.512 121.934C151.999 121.841 152.455 121.659 152.867 121.393C153.282 121.125 153.636 120.786 153.919 120.383C154.133 120.079 154.296 119.748 154.409 119.395C154.422 119.355 154.438 119.316 154.45 119.275H154.448V119.275Z" fill="black"/>
<path d="M157.733 116.726L152.859 116.729L152.65 115.498L152.617 115.299L155.907 115.297L156.467 114.393L156.769 113.911H156.766L156.769 113.907L152.392 113.91L152.158 112.507L150.922 112.511H150.727L150.727 112.512H150.723L151.656 118.146L156.531 118.142L157.094 121.534H158.532L157.733 116.726Z" fill="black"/>
<path d="M33.7501 49C33.4404 49 32.1572 49 32.1572 49V49.9293C32.1572 49.9293 33.0423 49.9293 33.9715 49.9293C35.6973 49.9293 36.1396 50.7698 36.1396 50.7698C36.1396 50.7698 36.1396 50.7698 36.4493 50.5486C35.9184 49.177 34.0601 49 33.7501 49Z" fill="black"/>
<path d="M30.1568 56.167L30 56.958H31.0798L30.9229 56.167H30.1568Z" fill="black"/>
<path d="M33.5586 51.2514V50.4747C33.5586 50.3169 33.4306 50.189 33.2724 50.189H32.7388C32.5804 50.189 32.4527 50.3169 32.4527 50.4747V51.2666C31.7824 51.5033 31.3018 52.1425 31.3018 52.8937V58.3363C31.3018 58.7027 31.5995 58.9998 31.9657 58.9998H34.0898C34.4564 58.9998 34.7533 58.7027 34.7533 58.3363V52.8937C34.7533 52.1258 34.252 51.4754 33.5586 51.2514ZM33.9457 56.9423H32.1094V54.6978H33.9457V56.9423Z" fill="black"/>
<path d="M30.745 52.9246C30.7448 52.169 31.1321 51.4763 31.7461 51.0743L31.7481 51.0729L31.7483 51.0731C31.7514 51.0701 31.875 50.9924 32.0708 50.9258V50.5C31.7469 50.5873 31.5422 50.7204 31.5225 50.7329C31.5223 50.7331 31.5223 50.7331 31.5223 50.7331C31.5219 50.7333 31.5199 50.7345 31.5197 50.7347L31.5199 50.7349C30.794 51.2115 30.3371 52.0299 30.3369 52.9246V56.027H30.745V52.9246ZM31.7513 51.0709L31.7489 51.0727L31.7487 51.0725L31.7513 51.0709Z" fill="black"/>
<path d="M141.75 95C141.44 95 140.157 95 140.157 95V95.9293C140.157 95.9293 141.042 95.9293 141.971 95.9293C143.697 95.9293 144.14 96.7698 144.14 96.7698C144.14 96.7698 144.14 96.7698 144.449 96.5486C143.918 95.177 142.06 95 141.75 95Z" fill="black"/>
<path d="M138.157 102.167L138 102.958H139.08L138.923 102.167H138.157Z" fill="black"/>
<path d="M141.559 97.2514V96.4747C141.559 96.3169 141.431 96.189 141.272 96.189H140.739C140.58 96.189 140.453 96.3169 140.453 96.4747V97.2666C139.782 97.5033 139.302 98.1425 139.302 98.8937V104.336C139.302 104.703 139.599 105 139.966 105H142.09C142.456 105 142.753 104.703 142.753 104.336V98.8937C142.753 98.1258 142.252 97.4754 141.559 97.2514ZM141.946 102.942H140.109V100.698H141.946V102.942Z" fill="black"/>
<path d="M138.745 98.9246C138.745 98.169 139.132 97.4763 139.746 97.0743L139.748 97.0729L139.748 97.0731C139.751 97.0701 139.875 96.9924 140.071 96.9258V96.5C139.747 96.5873 139.542 96.7204 139.522 96.7329C139.522 96.7331 139.522 96.7331 139.522 96.7331C139.522 96.7333 139.52 96.7345 139.52 96.7347L139.52 96.7349C138.794 97.2115 138.337 98.0299 138.337 98.9246V102.027H138.745V98.9246ZM139.751 97.0709L139.749 97.0727L139.749 97.0725L139.751 97.0709Z" fill="black"/>
<rect x="40.5" y="49.5" width="46" height="17" fill="white" stroke="#2C893A"/>
<path d="M47.7771 54.528H51.1611V55.392H47.7771V54.528ZM47.8411 55.864H50.3691V56.624H47.8411V55.864ZM48.0011 57.096H48.7691V60.416H48.0011V57.096ZM48.5291 57.096H50.2091V59.792H48.5291V59.008H49.4651V57.88H48.5291V57.096ZM50.7211 54.528H51.6331V60.616C51.6331 61.104 51.5371 61.384 51.2251 61.544C50.9211 61.704 50.4891 61.728 49.8251 61.728C49.7851 61.464 49.6251 61.016 49.4891 60.768C49.9371 60.792 50.3931 60.784 50.5371 60.784C50.6651 60.784 50.7211 60.736 50.7211 60.6V54.528ZM45.9771 55.728H46.7611V56.728H45.9771V55.728ZM44.8571 56.392H45.7131V60.848H44.8571V56.392ZM45.3451 57.472H47.0971V58.088H45.3451V57.472ZM44.3771 60.616C45.0651 60.48 46.0971 60.248 47.0891 60.008L47.1851 60.784C46.3051 61.04 45.3691 61.296 44.6331 61.488L44.3771 60.616ZM46.3051 59.56L47.0651 59.24C47.4491 59.824 47.8411 60.592 47.9851 61.112L47.1611 61.472C47.0411 60.96 46.6731 60.16 46.3051 59.56ZM45.4011 56.392H47.6251V59.168H45.4011V58.488H46.7691V57.08H45.4011V56.392ZM45.7291 54.208H46.2491V54.384H46.5291V54.648C46.2011 55.272 45.6891 56.128 44.8491 56.848C44.7131 56.656 44.4171 56.36 44.2171 56.232C44.9691 55.648 45.4571 54.864 45.7291 54.208ZM45.9691 54.208H46.6091C47.0811 54.584 47.6731 55.136 47.9611 55.536L47.3691 56.232C47.1211 55.84 46.5771 55.208 46.1291 54.856H45.9691V54.208ZM53.6331 57.6H57.9451V58.376H54.6011V61.728H53.6331V57.6ZM57.6491 57.6H58.6251V60.824C58.6251 61.272 58.5131 61.48 58.1771 61.6C57.8491 61.72 57.3771 61.728 56.7211 61.728C56.6731 61.496 56.5451 61.176 56.4331 60.96C56.8171 60.976 57.3371 60.976 57.4651 60.968C57.6011 60.968 57.6491 60.928 57.6491 60.816V57.6ZM54.2251 58.752H58.0011V59.408H54.2251V58.752ZM52.5451 54.888H59.6731V55.728H52.5451V54.888ZM54.5451 55.392L55.6251 55.672C55.2411 56.168 54.8011 56.672 54.4731 57.008L53.7051 56.736C54.0011 56.36 54.3451 55.8 54.5451 55.392ZM56.9611 55.96L57.7451 55.488C58.4011 55.936 59.2571 56.616 59.6811 57.104L58.8411 57.648C58.4651 57.168 57.6411 56.448 56.9611 55.96ZM52.8251 56.424C54.3051 56.416 56.6331 56.376 58.7771 56.336L58.7291 57.112C56.6251 57.192 54.3451 57.256 52.8571 57.288L52.8251 56.424ZM54.2251 59.792H57.9931V60.448H54.2251V59.792ZM55.6091 54.2H56.6011V55.312H55.6091V54.2ZM64.1371 60.824C64.1771 60.672 64.2011 60.456 64.2011 60.24C64.2011 59.816 64.2011 56.224 64.2011 55.576C64.2011 55.216 64.1451 54.904 64.1451 54.888H65.3291C65.3291 54.904 65.2731 55.224 65.2731 55.584C65.2731 56.224 65.2731 59.272 65.2731 59.76C65.9291 59.48 66.7131 58.848 67.2571 58.072L67.8651 58.96C67.2011 59.824 66.0571 60.688 65.1531 61.144C64.9851 61.232 64.8891 61.32 64.8091 61.376L64.1371 60.824ZM60.4331 60.712C61.1451 60.216 61.5771 59.48 61.7931 58.792C62.0251 58.112 62.0331 56.592 62.0331 55.632C62.0331 55.304 62.0011 55.096 61.9531 54.896H63.1291C63.1291 54.928 63.0731 55.288 63.0731 55.616C63.0731 56.568 63.0491 58.256 62.8411 59.064C62.5931 59.96 62.0971 60.752 61.4091 61.36L60.4331 60.712ZM68.8491 57.296C69.1451 57.32 69.7211 57.352 70.1371 57.352C71.0811 57.352 73.7211 57.352 74.4331 57.352C74.8091 57.352 75.1611 57.312 75.3771 57.296V58.56C75.1851 58.552 74.7771 58.512 74.4411 58.512C73.7131 58.512 71.0811 58.512 70.1371 58.512C69.6891 58.512 69.1531 58.536 68.8491 58.56V57.296ZM80.3109 54.968C80.2069 55.208 80.0949 55.504 79.9749 55.864C79.6789 56.76 78.8469 59.336 78.5029 60.168L77.3269 60.208C77.7589 59.184 78.5909 56.56 78.8549 55.632C78.9669 55.232 79.0069 54.976 79.0389 54.712L80.3109 54.968ZM81.7429 57.552C82.3189 58.416 83.1349 59.992 83.5029 60.88L82.4229 61.36C82.0629 60.392 81.3189 58.736 80.7509 57.968L81.7429 57.552ZM77.2469 59.848C78.3589 59.808 80.9749 59.512 82.0949 59.36L82.3269 60.384C81.1429 60.536 78.3909 60.824 77.3109 60.936C77.1109 60.96 76.8069 61 76.5589 61.032L76.3669 59.856C76.6389 59.864 76.9909 59.856 77.2469 59.848Z" fill="#2C893A"/>
<rect x="190.5" y="109.5" width="51" height="17" fill="white" stroke="#2C893A"/>
<path d="M199.991 115.592C199.911 115.696 199.759 115.888 199.687 116C199.311 116.624 198.551 117.64 197.759 118.2L196.927 117.536C197.575 117.144 198.199 116.44 198.407 116.048C197.919 116.048 194.735 116.048 194.231 116.048C193.903 116.048 193.631 116.064 193.255 116.104V114.984C193.567 115.032 193.903 115.072 194.231 115.072C194.735 115.072 198.127 115.072 198.543 115.072C198.767 115.072 199.207 115.04 199.359 115L199.991 115.592ZM196.735 116.664C196.735 118.648 196.687 120.28 194.511 121.456L193.575 120.696C193.839 120.608 194.127 120.472 194.423 120.248C195.431 119.544 195.623 118.704 195.623 117.392C195.623 117.136 195.615 116.928 195.575 116.664H196.735ZM207.153 116.032C207.065 116.184 206.953 116.4 206.889 116.6C206.673 117.32 206.217 118.384 205.489 119.272C204.729 120.2 203.769 120.936 202.265 121.528L201.321 120.688C202.953 120.192 203.841 119.496 204.545 118.704C205.089 118.08 205.553 117.12 205.681 116.528H202.985L203.353 115.616C203.705 115.616 205.385 115.616 205.633 115.616C205.881 115.616 206.153 115.584 206.329 115.52L207.153 116.032ZM204.545 114.76C204.353 115.04 204.145 115.408 204.057 115.576C203.513 116.544 202.561 117.672 201.409 118.456L200.513 117.792C201.913 116.936 202.617 115.904 203.009 115.216C203.129 115.024 203.297 114.656 203.369 114.376L204.545 114.76ZM215.593 115.592C215.513 115.696 215.361 115.888 215.289 116C214.913 116.624 214.153 117.64 213.361 118.2L212.529 117.536C213.177 117.144 213.801 116.44 214.009 116.048C213.521 116.048 210.337 116.048 209.833 116.048C209.505 116.048 209.233 116.064 208.857 116.104V114.984C209.169 115.032 209.505 115.072 209.833 115.072C210.337 115.072 213.729 115.072 214.145 115.072C214.369 115.072 214.809 115.04 214.961 115L215.593 115.592ZM212.337 116.664C212.337 118.648 212.289 120.28 210.113 121.456L209.177 120.696C209.441 120.608 209.729 120.472 210.025 120.248C211.033 119.544 211.225 118.704 211.225 117.392C211.225 117.136 211.217 116.928 211.177 116.664H212.337ZM219.899 120.824C219.939 120.672 219.963 120.456 219.963 120.24C219.963 119.816 219.963 116.224 219.963 115.576C219.963 115.216 219.907 114.904 219.907 114.888H221.091C221.091 114.904 221.035 115.224 221.035 115.584C221.035 116.224 221.035 119.272 221.035 119.76C221.691 119.48 222.475 118.848 223.019 118.072L223.627 118.96C222.963 119.824 221.819 120.688 220.915 121.144C220.747 121.232 220.651 121.32 220.571 121.376L219.899 120.824ZM216.195 120.712C216.907 120.216 217.339 119.48 217.555 118.792C217.787 118.112 217.795 116.592 217.795 115.632C217.795 115.304 217.763 115.096 217.715 114.896H218.891C218.891 114.928 218.835 115.288 218.835 115.616C218.835 116.568 218.811 118.256 218.603 119.064C218.355 119.96 217.859 120.752 217.171 121.36L216.195 120.712ZM224.611 117.296C224.907 117.32 225.483 117.352 225.899 117.352C226.843 117.352 229.483 117.352 230.195 117.352C230.571 117.352 230.923 117.312 231.139 117.296V118.56C230.947 118.552 230.539 118.512 230.203 118.512C229.475 118.512 226.843 118.512 225.899 118.512C225.451 118.512 224.915 118.536 224.611 118.56V117.296ZM236.073 114.968C235.969 115.208 235.857 115.504 235.737 115.864C235.441 116.76 234.609 119.336 234.265 120.168L233.089 120.208C233.521 119.184 234.353 116.56 234.617 115.632C234.729 115.232 234.769 114.976 234.801 114.712L236.073 114.968ZM237.505 117.552C238.081 118.416 238.897 119.992 239.265 120.88L238.185 121.36C237.825 120.392 237.081 118.736 236.513 117.968L237.505 117.552ZM233.009 119.848C234.121 119.808 236.737 119.512 237.857 119.36L238.089 120.384C236.905 120.536 234.153 120.824 233.073 120.936C232.873 120.96 232.569 121 232.321 121.032L232.129 119.856C232.401 119.864 232.753 119.856 233.009 119.848Z" fill="#2C893A"/>
<path d="M91.3301 106.534C91.3301 107.282 91.9401 107.889 92.6854 107.889C93.4344 107.889 94.0408 107.282 94.0408 106.534C94.0408 105.788 93.4345 105.178 92.6854 105.178C91.9401 105.178 91.3301 105.788 91.3301 106.534Z" fill="black"/>
<path d="M92.0001 120.46L91.5024 120.458L91.5034 120.46H91.4961L92.1195 121.995H93.9899L93.3021 120.46H92.0001Z" fill="black"/>
<path d="M87.0586 102H87.0068H87V121.927V121.988V121.995H89.3571L91.0818 122L91.0765 121.995H91.0864L89.3177 120.338V112.158H91.5031L92.6823 111.095L93.0254 110.788L94.0309 112.955L92.1498 117.573L91.4388 119.311H91.4416L91.4388 119.318H93.2448L94.6871 116.11L95.8289 113.583L96.7924 117.641H101.611C101.889 117.641 102.055 117.336 101.902 117.106L101.306 116.204C101.292 116.187 101.279 116.174 101.265 116.157C101.201 116.089 101.113 116.048 101.018 116.048H98.2123L97.504 112.331L96.5457 110.261L96.1518 109.404H97.6327L98.6052 111.24C98.6662 111.355 98.7847 111.416 98.9 111.416C98.9611 111.416 99.022 111.399 99.0762 111.366L99.7504 110.949C99.8995 110.854 99.9505 110.657 99.8623 110.505L98.429 107.964H94.8103C93.9902 107.964 93.2109 108.306 92.6586 108.909L91.1168 110.586H89.3178V103.877H101.627H101.658V115.648C101.824 115.703 101.97 115.811 102.068 115.96L102.665 116.858C102.824 117.102 102.841 117.41 102.702 117.668C102.563 117.925 102.299 118.085 102.007 118.085H101.658V120.338L103.43 121.995H103.979V102H87.0586Z" fill="black"/>
<path d="M298.33 27.5336C298.33 28.2824 298.94 28.889 299.685 28.889C300.434 28.889 301.041 28.2824 301.041 27.5336C301.041 26.7882 300.434 26.1782 299.685 26.1782C298.94 26.1782 298.33 26.7882 298.33 27.5336Z" fill="black"/>
<path d="M299 41.4602L298.502 41.4575L298.503 41.4602H298.496L299.119 42.9952H300.99L300.302 41.4602H299Z" fill="black"/>
<path d="M294.059 23H294.007H294V42.9272V42.9881V42.995H296.357L298.082 43L298.076 42.995H298.086L296.318 41.3381V33.1584H298.503L299.682 32.0949L300.025 31.788L301.031 33.9547L299.15 38.5726L298.439 40.3112H298.442L298.439 40.318H300.245L301.687 37.1098L302.829 34.5833L303.792 38.6409H308.611C308.889 38.6409 309.055 38.336 308.902 38.1055L308.306 37.2042C308.292 37.1873 308.279 37.1738 308.265 37.1567C308.201 37.089 308.113 37.0483 308.018 37.0483H305.212L304.504 33.3312L303.546 31.2613L303.152 30.4037H304.633L305.605 32.2402C305.666 32.3554 305.785 32.4164 305.9 32.4164C305.961 32.4164 306.022 32.3994 306.076 32.3656L306.75 31.9488C306.9 31.8539 306.95 31.6575 306.862 31.5049L305.429 28.9636H301.81C300.99 28.9636 300.211 29.3058 299.659 29.909L298.117 31.5862H296.318V24.8772H308.627H308.658V36.6484C308.824 36.7027 308.97 36.8112 309.068 36.9603L309.665 37.8582C309.824 38.102 309.841 38.4104 309.702 38.6679C309.563 38.9255 309.299 39.0848 309.007 39.0848H308.658V41.3381L310.43 42.995H310.979V23H294.059Z" fill="black"/>
</svg>
