<?xml version="1.0" encoding="UTF-8"?>
<svg id="_レイヤー_1" data-name="レイヤー 1" xmlns="http://www.w3.org/2000/svg" viewBox="0 0 590.42 357.28">
  <defs>
    <style>
      .cls-1 {
        fill: #f3858e;
        font-family: BIZ-UDGothic, 'BIZ UDGothic';
        font-size: 21.07px;
        letter-spacing: .3em;
      }

      .cls-1, .cls-2, .cls-3, .cls-4, .cls-5 {
        stroke-miterlimit: 10;
      }

      .cls-1, .cls-3, .cls-4, .cls-5 {
        stroke: #f3858e;
      }

      .cls-2 {
        stroke: #34b9f0;
      }

      .cls-2, .cls-3, .cls-4, .cls-5 {
        fill: none;
      }

      .cls-6 {
        fill: #ef4444;
      }

      .cls-4 {
        stroke-width: 3px;
      }

      .cls-5 {
        stroke-width: 2px;
      }
    </style>
  </defs>
  <g>
    <g>
      <line class="cls-3" x1="120.24" y1="168.39" x2="120.24" y2="204.22"/>
      <line class="cls-3" x1="127.91" y1="166.89" x2="127.91" y2="204.39"/>
      <line class="cls-3" x1="135.08" y1="167.56" x2="135.08" y2="204.72"/>
      <line class="cls-3" x1="142.74" y1="167.39" x2="142.74" y2="204.89"/>
      <line class="cls-3" x1="144.91" y1="207.22" x2="185.07" y2="207.22"/>
      <line class="cls-3" x1="145.24" y1="213.39" x2="184.74" y2="213.39"/>
      <line class="cls-3" x1="145.07" y1="219.55" x2="184.91" y2="219.55"/>
      <line class="cls-3" x1="139.57" y1="220.72" x2="139.57" y2="252.39"/>
      <line class="cls-3" x1="131.74" y1="220.72" x2="131.74" y2="252.22"/>
      <line class="cls-3" x1="124.24" y1="220.55" x2="124.24" y2="251.55"/>
      <line class="cls-3" x1="116.58" y1="220.72" x2="116.58" y2="251.39"/>
      <line class="cls-3" x1="114.58" y1="217.22" x2="80.58" y2="217.22"/>
      <line class="cls-3" x1="80.24" y1="211.22" x2="115.74" y2="211.22"/>
      <line class="cls-3" x1="80.58" y1="205.22" x2="115.41" y2="205.22"/>
    </g>
    <g>
      <polyline class="cls-4" points="184.1 320.64 184.1 166.45 1.5 166.45 1.5 2.25 588.92 1.5 588.92 355.78 312.71 355.78 312.71 318.09 184.1 318.09"/>
      <line class="cls-4" x1="79.41" y1="167.2" x2="79.41" y2="253.49"/>
      <line class="cls-4" x1="80.16" y1="252.59" x2="183.5" y2="252.59"/>
    </g>
    <g>
      <line class="cls-5" x1="115.01" y1="203.99" x2="115.01" y2="221.49"/>
      <line class="cls-5" x1="113.55" y1="219.58" x2="145.74" y2="219.58"/>
      <line class="cls-5" x1="144.28" y1="221.15" x2="144.28" y2="204.33"/>
      <line class="cls-5" x1="114.11" y1="204.77" x2="145.29" y2="204.77"/>
      <polyline class="cls-5" points="120.28 165.18 120.28 88.35 184.43 88.35"/>
      <polyline class="cls-5" points="184.88 165.18 184.88 47.19 203.61 47.19"/>
      <line class="cls-5" x1="313.31" y1="317.83" x2="589" y2="317.83"/>
      <line class="cls-5" x1="79.54" y1="4.53" x2="79.54" y2="114.45"/>
      <line class="cls-5" x1="79.54" y1="145.71" x2="79.54" y2="165.88"/>
      <line class="cls-5" x1="229.29" y1="46.38" x2="588.29" y2="46.38"/>
      <line class="cls-5" x1="387.18" y1="47.49" x2="387.18" y2="317.8"/>
      <line class="cls-5" x1="388.03" y1="219.63" x2="589.14" y2="219.63"/>
      <line class="cls-5" x1="535.13" y1="166.19" x2="535.13" y2="218.79"/>
      <line class="cls-5" x1="534.01" y1="165.07" x2="588.85" y2="165.07"/>
    </g>
  </g>
  <g>
    <text class="cls-1" transform="translate(439.76 203.33)"><tspan x="0" y="0">251</tspan></text>
    <rect class="cls-2" x="427.64" y="176.6" width="68.49" height="37.45" rx="16" ry="16"/>
  </g>
  <g>
    <text class="cls-1" transform="translate(238.51 298.26)"><tspan x="0" y="0">252</tspan></text>
    <rect class="cls-2" x="226.39" y="271.53" width="68.49" height="37.45" rx="16" ry="16"/>
  </g>
  <g>
    <text class="cls-1" transform="translate(450.54 293.2)"><tspan x="0" y="0">手術室</tspan></text>
    <rect class="cls-2" x="437.8" y="266.47" width="101.33" height="37.45" rx="16" ry="16"/>
  </g>
  <g>
    <path d="M107.47,124.06c-.31.03-1.73.11-3.15.16-1.88.08-2.69.15-2.96.24-.48.17-1.19.89-1.56,1.57-.15.28-.51.75-.79,1.04l-.53.52h-.98c-1.11,0-1.42.09-1.63.52-.29.57-.02,1.33.56,1.53.16.06.71.1,1.2.1h.9s.35.38.35.38c.51.53.92.71,1.65.71.67,0,1.08-.16,1.53-.58.26-.24.28-.25.75-.15,1.35.27,3.74,1.23,6.04,2.42.73.37,1.34.68,1.35.68,0,0,0-.4-.03-.89-.03-.66-.07-.92-.18-1.04-.19-.22-2-1.4-3.64-2.37l-1.36-.79h-1.13q-1.13,0-1.23-.22c-.06-.14-.07-.25-.02-.3.18-.18,4.93-1.86,6.33-2.24l.35-.09-.22-.41c-.32-.56-.64-.88-.85-.86-.1,0-.43.03-.74.07ZM100.81,127.87c.54.19.72.9.33,1.35-.17.2-.28.24-.61.24s-.44-.04-.61-.24c-.38-.44-.22-1.14.31-1.35.28-.11.28-.11.59,0Z"/>
    <path d="M94.13,127.78c-3.4.5-5.27,3.24-4.88,7.16.11,1.18.36,2.37,1.04,5.09.71,2.83.87,3.78.92,5.35.03,1.02,0,1.54-.09,2.15-.08.45-.13.82-.12.83.02,0,.24.09.5.17s.62.22.8.32c.19.09.35.16.36.14.09-.09.31-1.22.4-2.09.19-1.84-.05-3.66-.99-7.43-.77-3.08-.92-3.89-.98-5.1-.08-1.73.2-2.74.98-3.58.23-.24.57-.53.77-.64.46-.27,1.44-.56,1.87-.56.32,0,.34-.02.27-.2-.09-.24-.08-1.25,0-1.51.08-.22.03-.22-.85-.09Z"/>
    <path d="M98.49,132.07v1.03l-.74.36c-1.4.7-2.57,2.16-2.93,3.64-.09.37-.13,1.01-.13,1.95v1.41h11.65v-1.41c0-1.55-.09-2.09-.52-2.95-.51-1.04-1.39-1.89-2.56-2.48l-.72-.35v-.92c0-.5-.03-1-.05-1.11-.05-.18-.07-.18-.2-.07-.26.23-.93.48-1.45.54-.66.07-1.37-.09-1.87-.4-.22-.15-.42-.26-.44-.26-.03,0-.04.46-.04,1.02Z"/>
    <path d="M94.69,146.21v4.88h11.65v-9.76h-11.65v4.88ZM104.19,146.25v2.33h-7.34v-4.66h7.34v2.33Z"/>
    <path d="M89.72,149.29c-.11.05-.82,1.21-1.84,3.03l-1.66,2.94.24.26c.3.31,1.88,1.09,2.96,1.45.45.15,1.08.29,1.4.32.55.03.59.03.66-.16.05-.11.45-1.55.88-3.21.54-2.07.77-3.06.73-3.23-.21-.84-2.54-1.8-3.38-1.39ZM88.66,154.83c.9.19,1.76.67,2.08,1.16.2.3.2.45,0,.45-.53,0-3.5-1.23-3.44-1.42.03-.09.52-.29.71-.3.05,0,.35.05.66.11Z"/>
    <path d="M94.69,156.29c0,4.92,0,4.83.66,5.58.22.25.6.54.88.67l.49.24h7.6l.49-.24c.28-.14.66-.42.88-.67.66-.74.66-.66.66-5.58v-4.34h-11.65v4.34Z"/>
  </g>
  <g>
    <path d="M578.95,122.37c-.31.03-1.73.11-3.15.16-1.88.08-2.69.15-2.96.24-.48.17-1.19.89-1.56,1.57-.15.28-.51.75-.79,1.04l-.53.52h-.98c-1.11,0-1.42.09-1.63.52-.29.57-.02,1.33.56,1.53.16.06.71.1,1.2.1h.9s.35.38.35.38c.51.53.92.71,1.65.71.67,0,1.08-.16,1.53-.58.26-.24.28-.25.75-.15,1.35.27,3.74,1.23,6.04,2.42.73.37,1.34.68,1.35.68,0,0,0-.4-.03-.89-.03-.66-.07-.92-.18-1.04-.19-.22-2-1.4-3.64-2.37l-1.36-.79h-1.13q-1.13,0-1.23-.22c-.06-.14-.07-.25-.02-.3.18-.18,4.93-1.86,6.33-2.24l.35-.09-.22-.41c-.32-.56-.64-.88-.85-.86-.1,0-.43.03-.74.07ZM572.29,126.18c.54.19.72.9.33,1.35-.17.2-.28.24-.61.24s-.44-.04-.61-.24c-.38-.44-.22-1.14.31-1.35.28-.11.28-.11.59,0Z"/>
    <path d="M565.61,126.09c-3.4.5-5.27,3.24-4.88,7.16.11,1.18.36,2.37,1.04,5.09.71,2.83.87,3.78.92,5.35.03,1.02,0,1.54-.09,2.15-.08.45-.13.82-.12.83.02,0,.24.09.5.17s.62.22.8.32c.19.09.35.16.36.14.09-.09.31-1.22.4-2.09.19-1.84-.05-3.66-.99-7.43-.77-3.08-.92-3.89-.98-5.1-.08-1.73.2-2.74.98-3.58.23-.24.57-.53.77-.64.46-.27,1.44-.56,1.87-.56.32,0,.34-.02.27-.2-.09-.24-.08-1.25,0-1.51.08-.22.03-.22-.85-.09Z"/>
    <path d="M569.97,130.38v1.03l-.74.36c-1.4.7-2.57,2.16-2.93,3.64-.09.37-.13,1.01-.13,1.95v1.41h11.65v-1.41c0-1.55-.09-2.09-.52-2.95-.51-1.04-1.39-1.89-2.56-2.48l-.72-.35v-.92c0-.5-.03-1-.05-1.11-.05-.18-.07-.18-.2-.07-.26.23-.93.48-1.45.54-.66.07-1.37-.09-1.87-.4-.22-.15-.42-.26-.44-.26-.03,0-.04.46-.04,1.02Z"/>
    <path d="M566.17,144.52v4.88h11.65v-9.76h-11.65v4.88ZM575.67,144.56v2.33h-7.34v-4.66h7.34v2.33Z"/>
    <path d="M561.2,147.6c-.11.05-.82,1.21-1.84,3.03l-1.66,2.94.24.26c.3.31,1.88,1.09,2.96,1.45.45.15,1.08.29,1.4.32.55.03.59.03.66-.16.05-.11.45-1.55.88-3.21.54-2.07.77-3.06.73-3.23-.21-.84-2.54-1.8-3.38-1.39ZM560.14,153.14c.9.19,1.76.67,2.08,1.16.2.3.2.45,0,.45-.53,0-3.5-1.23-3.44-1.42.03-.09.52-.29.71-.3.05,0,.35.05.66.11Z"/>
    <path d="M566.17,154.6c0,4.92,0,4.83.66,5.58.22.25.6.54.88.67l.49.24h7.6l.49-.24c.28-.14.66-.42.88-.67.66-.74.66-.66.66-5.58v-4.34h-11.65v4.34Z"/>
  </g>
  <g>
    <path d="M143.51,125.36c-1.45,0-2.62,1.17-2.62,2.62s1.17,2.62,2.62,2.62,2.62-1.17,2.62-2.62-1.17-2.62-2.62-2.62Z"/>
    <path d="M154.7,125.36c-1.45,0-2.62,1.17-2.62,2.62s1.17,2.62,2.62,2.62,2.62-1.17,2.62-2.62c0-1.45-1.17-2.62-2.62-2.62Z"/>
    <path d="M165.89,125.36c-1.45,0-2.62,1.17-2.62,2.62s1.17,2.62,2.62,2.62,2.62-1.17,2.62-2.62-1.17-2.62-2.62-2.62Z"/>
    <path d="M171.86,112.88h-34.33c-2.64,0-4.78,2.15-4.78,4.78v36.75c0,2.64,2.15,4.79,4.78,4.79h34.33c2.64,0,4.78-2.15,4.78-4.79v-36.75c0-2.64-2.15-4.78-4.78-4.78ZM143.04,156.18l.47-10.51.47,10.51h-.93ZM154.23,156.18l.47-10.51.47,10.51h-.93ZM165.42,156.18l.47-10.51.47,10.51h-.93ZM173.63,154.41c0,.97-.79,1.77-1.76,1.77h-3.1l.09-12.27c.19.28.51.47.88.46.56-.03,1-.5.97-1.07l.44-8.72c0-3.43-3.48-3.6-5.24-3.6s-5.25.17-5.25,3.6l.29,8.72c-.03.56.41,1.04.97,1.07.49.02.9-.31,1.02-.77l.09,12.58h-5.43l.08-12.27c.19.28.51.47.88.46.56-.03,1-.5.97-1.07l.43-8.72c0-3.43-3.48-3.6-5.24-3.6s-5.25.17-5.25,3.6l.29,8.72c-.03.56.41,1.04.97,1.07.49.02.9-.31,1.02-.78l.09,12.59h-5.43l.08-12.27c.19.28.51.47.88.46.56-.03,1-.5.97-1.07l.43-8.73c0-3.43-3.48-3.6-5.25-3.6s-5.24.17-5.24,3.6l.29,8.73c-.03.56.41,1.04.97,1.07.49.02.9-.32,1.02-.78l.09,12.59h-3.1c-.97,0-1.77-.79-1.77-1.77v-36.75c0-.97.79-1.76,1.77-1.76h34.33c.97,0,1.76.79,1.76,1.76v36.75h0Z"/>
    <path d="M158.12,105.02l3.59-3.59v8.06c0,.74.6,1.33,1.33,1.33s1.33-.6,1.33-1.33v-8.06l3.59,3.59c.26.26.6.39.94.39s.68-.13.94-.39c.52-.52.52-1.36,0-1.88l-5.86-5.86-.94-.94-.94.94-5.86,5.86c-.52.52-.52,1.36,0,1.88.52.52,1.36.52,1.88,0Z"/>
    <path d="M145.41,110.44h0s.94.94.94.94l.94-.94s0,0,0,0l5.86-5.86c.52-.52.52-1.36,0-1.88-.52-.52-1.36-.52-1.88,0l-3.59,3.59v-8.06c0-.74-.6-1.33-1.33-1.33s-1.33.6-1.33,1.33v8.06l-3.59-3.59c-.52-.52-1.36-.52-1.88,0-.52.52-.52,1.36,0,1.88l5.86,5.86Z"/>
  </g>
  <g>
    <path d="M37.9,233.93v18.74h37.8v-37.49h-37.8v18.74ZM68.23,229.18v11.5l.58.09c.68.11,1.54.5,1.9.86.59.59,1.65,2.51,1.67,3.04.02.24,0,.26-.3.32-.17.03-1.1.05-2.08.05h-1.77v4.93l.85.87c.87.9,1.15,1.25,1.07,1.34-.09.09-4.65.17-9.61.17h-5.01s-1.33-1.28-1.33-1.28l-1.33-1.28h-3.43l1.21,1.17c1.09,1.06,1.19,1.17,1.06,1.25-.09.06-.86.11-2.13.13l-1.98.04-1.12-1.12-1.12-1.12v-15.83h4.86s1.01-1.18,1.01-1.18c1.4-1.63,1.75-2.01,1.87-2.01.09,0,1,1.87,1.84,3.76l.31.69-2.72,5.49c-3.29,6.64-3.67,7.47-3.51,7.57.15.09,1.17.09,1.91-.02.65-.09,1.3-.35,1.56-.63.25-.26,1.2-2.04,3.27-6.09,2.11-4.13,2.6-5.02,2.71-4.99.12.04.18.57.26,2.54.09,1.95.24,3.26.44,3.94.21.72-.15.68,6.07.68,5.54,0,5.86-.02,5.98-.31.05-.16-.4-1-.75-1.42-.17-.19-.41-.4-.54-.46-.45-.23-1.42-.33-4.02-.42-1.43-.05-2.92-.1-3.31-.12l-.71-.05-.22-3.24-.23-3.24-.29-.66c-.16-.37-.7-1.51-1.2-2.55-.5-1.03-.9-1.94-.9-2,0-.16.37-.2,1.74-.18l1.24.02.75,1.3c1.23,2.15,1.84,2.86,2.4,2.86.26,0,.82-.37.96-.63.24-.47-.06-1.35-1.1-3.15-1.13-1.95-1.55-2.41-2.45-2.7-.53-.16-.64-.17-4.47-.17-3.06,0-4.02.02-4.36.11-.39.09-.5.18-1.24.93-.45.46-1.38,1.51-2.06,2.33l-1.24,1.49h-1.92s-1.93,0-1.93,0v-14.15h22.87v11.5Z"/>
    <path d="M52.83,221.32c-.86.25-1.56,1.26-1.59,2.28-.02.76.73,1.99,1.45,2.38.19.1.43.14.95.14.61,0,.76-.03,1.14-.22.96-.47,1.39-1.21,1.42-2.39,0-.58-.02-.7-.2-1.01-.26-.44-.91-1.06-1.27-1.21-.35-.15-1.36-.13-1.91.03Z"/>
  </g>
  <g>
    <path class="cls-6" d="M39.38,49.22c-1.23.22-2.23,1.01-2.71,2.14-.21.49-.29.94-.27,1.51.01.32.04.55.09.74.28,1.05.94,1.88,1.88,2.34,1.78.88,3.91.15,4.78-1.63.22-.44.31-.77.36-1.24.12-1.3-.49-2.59-1.57-3.3-.77-.51-1.71-.71-2.56-.56Z"/>
    <path class="cls-6" d="M35.62,57.13c-1.3.2-2.38.92-3.16,2.1-.37.55-.27.27-1.68,4.9-.55,1.83-1.16,3.81-1.59,5.23-.18.59-.35,1.17-.37,1.3-.14.79.28,1.53.99,1.75.55.17,1.11.02,1.49-.41.29-.32.25-.21,1.29-3.72.23-.77.56-1.88.74-2.47.17-.59.5-1.67.72-2.42l.41-1.36h.75c.62,0,.75,0,.75.05,0,.03-.11.44-.24.92-.24.86-.96,3.44-2.82,10.15-1.42,5.11-1.46,5.23-1.48,5.3-.02.06.1.06,2.19.06h2.21v6.51c0,7.1-.01,6.73.19,7.12.18.35.53.64.95.77.27.09.84.08,1.1-.02.5-.18.83-.52,1-1.03.06-.18.06-.49.07-6.81v-6.62h1.68v6.63c0,6.62,0,6.63.07,6.84.22.64.73,1.02,1.45,1.08.87.06,1.6-.5,1.73-1.33.02-.15.04-2.39.04-6.69v-6.46h2.19c1.43,0,2.19-.01,2.19-.03,0-.02-.25-.92-.55-1.99-.3-1.08-.68-2.45-.85-3.04-.17-.59-.55-1.97-.86-3.05-.94-3.36-1.16-4.13-1.4-5-.13-.46-.39-1.39-.58-2.06-.19-.67-.35-1.24-.35-1.26,0-.02.31-.03.79-.03h.78l.07.25c.04.14.1.34.14.46.03.11.19.63.34,1.15.15.52.41,1.38.57,1.92.16.54.4,1.34.53,1.77.5,1.68.73,2.45.91,3.06.1.35.22.72.26.82.28.74.93,1.15,1.61,1.03.78-.14,1.28-.84,1.22-1.68-.02-.26-.05-.36-.81-2.88-.68-2.25-1.78-5.87-2.08-6.83-.15-.49-.32-.99-.41-1.17-.2-.42-.58-.91-1.04-1.36-.84-.81-1.81-1.29-2.86-1.45-.48-.07-7.86-.07-8.29,0Z"/>
  </g>
</svg>