<?xml version="1.0" encoding="UTF-8"?>
<svg id="_トレース" data-name="トレース" xmlns="http://www.w3.org/2000/svg" viewBox="0 0 595 842">
  <defs>
    <style>
      .cls-1 {
        font-size: 21px;
        letter-spacing: .2em;
      }

      .cls-1, .cls-2, .cls-3, .cls-4, .cls-5, .cls-6, .cls-7, .cls-8 {
        stroke-miterlimit: 10;
      }

      .cls-1, .cls-4, .cls-5, .cls-6, .cls-7, .cls-8 {
        stroke: #f3858e;
      }

      .cls-1, .cls-4, .cls-8 {
        fill: #f3858e;
        font-family: BIZ-UDGothic, 'BIZ UDGothic';
      }

      .cls-2, .cls-3 {
        stroke: #34b9f0;
      }

      .cls-2, .cls-5, .cls-6, .cls-7 {
        fill: none;
      }

      .cls-3 {
        fill: #fff;
      }

      .cls-4 {
        font-size: 18px;
        letter-spacing: .3em;
      }

      .cls-9 {
        fill: #ef4444;
      }

      .cls-10 {
        fill: #3b82f6;
      }

      .cls-6 {
        stroke-width: 3px;
      }

      .cls-7 {
        stroke-width: 2px;
      }

      .cls-8 {
        font-size: 15.08px;
        letter-spacing: .25em;
      }
    </style>
  </defs>
  <g>
    <g>
      <line class="cls-6" x1="218.02" y1="502.17" x2="204.47" y2="502.17"/>
      <line class="cls-6" x1="207.1" y1="504.39" x2="207.1" y2="378.8"/>
      <line class="cls-6" x1="209.12" y1="380.42" x2="55.61" y2="380.42"/>
      <line class="cls-6" x1="57.84" y1="382.44" x2="57.84" y2="245.92"/>
      <line class="cls-6" x1="55.41" y1="248.55" x2="538.38" y2="247.94"/>
      <line class="cls-6" x1="537.57" y1="245.72" x2="537.57" y2="504.39"/>
      <line class="cls-6" x1="539.59" y1="501.97" x2="282.74" y2="501.97"/>
      <line class="cls-6" x1="121.95" y1="406.91" x2="121.95" y2="451.4"/>
      <line class="cls-6" x1="120.53" y1="449.99" x2="206.89" y2="449.99"/>
    </g>
    <g>
      <line class="cls-7" x1="208.44" y1="449.52" x2="230.29" y2="449.52"/>
      <line class="cls-7" x1="268.44" y1="450.19" x2="292.98" y2="450.19"/>
      <line class="cls-7" x1="293.12" y1="501.16" x2="293.12" y2="387.63"/>
      <line class="cls-7" x1="292.98" y1="347.58" x2="292.98" y2="249.02"/>
      <line class="cls-7" x1="293.79" y1="285.56" x2="380.08" y2="285.56"/>
      <line class="cls-7" x1="379.01" y1="286.24" x2="379.01" y2="501.02"/>
      <line class="cls-7" x1="463.28" y1="346.91" x2="463.28" y2="501.7"/>
      <line class="cls-7" x1="463.81" y1="348.53" x2="536.62" y2="348.53"/>
      <line class="cls-7" x1="463.54" y1="413.11" x2="537.16" y2="413.11"/>
      <polyline class="cls-7" points="207.5 379.27 207.5 317.65 58.24 317.65"/>
      <line class="cls-7" x1="121.07" y1="318.19" x2="121.07" y2="379.94"/>
      <line class="cls-7" x1="155.19" y1="317.79" x2="155.19" y2="379.81"/>
      <line class="cls-7" x1="174.6" y1="412.17" x2="174.6" y2="424.03"/>
      <line class="cls-7" x1="176.08" y1="411.63" x2="149.79" y2="411.63"/>
      <line class="cls-7" x1="150.6" y1="411.49" x2="150.6" y2="423.36"/>
      <line class="cls-7" x1="149.39" y1="423.49" x2="175.54" y2="423.49"/>
    </g>
    <g>
      <line class="cls-5" x1="154.78" y1="381.7" x2="154.78" y2="410.69"/>
      <line class="cls-5" x1="160.98" y1="380.48" x2="160.98" y2="410.82"/>
      <line class="cls-5" x1="166.78" y1="381.02" x2="166.78" y2="411.09"/>
      <line class="cls-5" x1="172.98" y1="380.89" x2="172.98" y2="411.22"/>
      <line class="cls-5" x1="174.74" y1="413.11" x2="207.23" y2="413.11"/>
      <line class="cls-5" x1="175.01" y1="418.1" x2="206.96" y2="418.1"/>
      <line class="cls-5" x1="174.87" y1="423.09" x2="207.1" y2="423.09"/>
      <line class="cls-5" x1="170.42" y1="424.03" x2="170.42" y2="449.65"/>
      <line class="cls-5" x1="164.08" y1="424.03" x2="164.08" y2="449.52"/>
      <line class="cls-5" x1="158.02" y1="423.9" x2="158.02" y2="448.98"/>
      <line class="cls-5" x1="151.81" y1="424.03" x2="151.81" y2="448.84"/>
      <line class="cls-5" x1="150.2" y1="421.2" x2="122.69" y2="421.2"/>
      <line class="cls-5" x1="122.42" y1="416.35" x2="151.14" y2="416.35"/>
      <line class="cls-5" x1="122.69" y1="411.49" x2="150.87" y2="411.49"/>
    </g>
    <g>
      <polygon class="cls-6" points="236.49 543.7 250.04 526.91 263.19 543.7 236.49 543.7"/>
      <line class="cls-6" x1="250.04" y1="596.28" x2="250.04" y2="527.72"/>
    </g>
  </g>
  <g>
    <path d="M85.31,402.93v15.65h31.55v-31.29h-31.55v15.65ZM110.63,398.97v9.6l.48.08c.56.09,1.29.42,1.58.72.49.49,1.38,2.1,1.4,2.54.01.2,0,.22-.25.27-.14.03-.92.05-1.73.05h-1.48v4.12l.71.73c.73.75.96,1.05.9,1.12-.08.07-3.88.14-8.02.14h-4.18s-1.11-1.06-1.11-1.06l-1.11-1.07h-2.86l1.01.97c.91.88.99.98.88,1.05-.08.05-.72.09-1.78.11l-1.65.03-.93-.93-.93-.93v-13.21h4.06s.84-.99.84-.99c1.17-1.36,1.46-1.67,1.56-1.67.07,0,.84,1.56,1.54,3.14l.26.58-2.27,4.58c-2.75,5.54-3.06,6.23-2.93,6.32.12.08.98.07,1.6-.01.55-.08,1.08-.29,1.3-.53.21-.22,1-1.7,2.73-5.08,1.76-3.45,2.17-4.19,2.26-4.17.1.03.15.47.22,2.12.08,1.63.2,2.72.36,3.29.18.6-.12.57,5.06.57,4.62,0,4.89-.01,4.99-.26.05-.13-.33-.84-.63-1.18-.14-.16-.34-.33-.45-.38-.38-.19-1.19-.28-3.36-.35-1.19-.04-2.44-.08-2.76-.1l-.59-.04-.18-2.7-.19-2.71-.24-.55c-.14-.31-.58-1.26-1-2.13-.42-.86-.75-1.62-.75-1.67,0-.14.31-.17,1.45-.15l1.03.02.62,1.08c1.03,1.79,1.53,2.39,2,2.39.22,0,.68-.31.8-.53.2-.39-.05-1.13-.92-2.63-.94-1.63-1.29-2.01-2.04-2.25-.44-.14-.53-.14-3.73-.14-2.56,0-3.36.02-3.64.09-.32.08-.42.15-1.04.78-.38.38-1.15,1.26-1.72,1.94l-1.04,1.24h-1.6s-1.61,0-1.61,0v-11.82h19.09v9.6Z"/>
    <path d="M97.77,392.4c-.72.21-1.3,1.05-1.32,1.9-.01.64.61,1.66,1.21,1.99.16.08.36.12.79.12.51,0,.64-.03.95-.18.8-.39,1.16-1.01,1.18-1.99,0-.49-.01-.58-.17-.84-.21-.36-.76-.88-1.06-1.01-.29-.12-1.14-.11-1.59.03Z"/>
  </g>
  <g>
    <path d="M172.33,346.56c-1.2,0-2.17.97-2.17,2.17s.97,2.17,2.17,2.17,2.17-.97,2.17-2.17-.97-2.17-2.17-2.17Z"/>
    <path d="M181.59,346.56c-1.2,0-2.17.97-2.17,2.17s.97,2.17,2.17,2.17,2.17-.97,2.17-2.17c0-1.2-.97-2.17-2.17-2.17Z"/>
    <path d="M190.86,346.56c-1.2,0-2.17.97-2.17,2.17s.97,2.17,2.17,2.17,2.17-.97,2.17-2.17-.97-2.17-2.17-2.17Z"/>
    <path d="M195.8,336.22h-28.42c-2.18,0-3.96,1.78-3.96,3.96v30.42c0,2.18,1.78,3.96,3.96,3.96h28.42c2.18,0,3.96-1.78,3.96-3.96v-30.42c0-2.18-1.78-3.96-3.96-3.96ZM171.94,372.07l.39-8.7.39,8.7h-.77ZM181.21,372.07l.39-8.7.39,8.7h-.77ZM190.47,372.07l.39-8.7.39,8.7h-.77ZM197.26,370.61c0,.81-.66,1.46-1.46,1.46h-2.56l.07-10.15c.16.23.42.39.73.38.47-.02.83-.42.8-.88l.36-7.22c0-2.84-2.88-2.98-4.34-2.98s-4.34.14-4.34,2.98l.24,7.22c-.02.47.34.86.8.88.41.02.75-.26.84-.64l.07,10.42h-4.5l.07-10.15c.16.23.42.39.73.38.47-.02.83-.42.8-.88l.36-7.22c0-2.84-2.88-2.98-4.34-2.98s-4.34.14-4.34,2.98l.24,7.22c-.02.47.34.86.8.88.41.02.75-.26.84-.64l.07,10.42h-4.5l.07-10.15c.16.23.42.39.73.38.47-.02.82-.42.8-.88l.36-7.22c0-2.84-2.88-2.98-4.34-2.98s-4.34.14-4.34,2.98l.24,7.22c-.02.47.34.86.8.88.41.02.75-.26.84-.64l.07,10.42h-2.56c-.81,0-1.46-.66-1.46-1.46v-30.42c0-.81.66-1.46,1.46-1.46h28.42c.81,0,1.46.66,1.46,1.46v30.42h0Z"/>
    <path d="M184.43,329.72l2.97-2.97v6.68c0,.61.49,1.1,1.1,1.1s1.1-.49,1.1-1.1v-6.68l2.97,2.97c.22.22.5.32.78.32s.57-.11.78-.32c.43-.43.43-1.13,0-1.56l-4.85-4.85-.78-.78-.78.78-4.85,4.85c-.43.43-.43,1.13,0,1.56.43.43,1.13.43,1.56,0Z"/>
    <path d="M173.9,334.2h0s.78.78.78.78l.78-.78s0,0,0,0l4.85-4.85c.43-.43.43-1.13,0-1.56-.43-.43-1.13-.43-1.56,0l-2.97,2.97v-6.68c0-.61-.49-1.1-1.1-1.1s-1.1.49-1.1,1.1v6.68l-2.97-2.97c-.43-.43-1.13-.43-1.56,0-.43.43-.43,1.13,0,1.56l4.85,4.85Z"/>
  </g>
  <g>
    <path class="cls-10" d="M68.13,334.82c-.51.09-.93.32-1.28.69-.86.91-.82,2.34.09,3.2.57.54,1.38.74,2.16.54.24-.06.61-.25.82-.42.71-.57,1.01-1.52.76-2.39-.21-.72-.74-1.28-1.44-1.52-.36-.12-.78-.16-1.11-.1Z"/>
    <path class="cls-10" d="M65.23,339.82c-.37.03-.7.12-1.05.29-.91.46-1.51,1.35-1.61,2.39-.02.18-.02,1.38-.02,3.87v3.6s.05.14.05.14c.09.26.27.46.5.57.09.04.14.05.35.05.22,0,.25,0,.37-.06.25-.12.43-.36.49-.65.02-.09.03-.88.03-3.59v-3.48h1.08v9.27c0,8.07,0,9.29.03,9.42.12.58.65,1.01,1.24,1.01.17,0,.44-.07.6-.16.2-.1.42-.34.52-.54.15-.31.14.11.14-5.87v-5.4h1.07v5.41c0,5.97,0,5.55.14,5.85.14.29.39.51.73.64.13.05.18.06.41.06s.28,0,.41-.06c.33-.13.58-.34.72-.63.15-.31.14.52.14-9.73v-9.27h1.07v3.46c0,2.39,0,3.5.02,3.59.06.31.23.55.49.68.15.08.18.08.36.08.15,0,.23-.01.31-.05.31-.12.52-.4.57-.78.03-.21.03-7.03,0-7.37-.12-1.33-1.04-2.4-2.3-2.68-.14-.03-.3-.05-.57-.05-.66-.02-6.11-.02-6.32,0Z"/>
    <path class="cls-9" d="M82.23,334.82c-.8.14-1.44.65-1.74,1.38-.14.32-.19.61-.17.97,0,.21.02.35.06.48.18.68.61,1.21,1.21,1.51,1.15.57,2.52.1,3.09-1.05.14-.28.2-.5.23-.8.08-.84-.32-1.67-1.01-2.13-.5-.33-1.1-.46-1.65-.36Z"/>
    <path class="cls-9" d="M79.8,339.92c-.84.13-1.54.6-2.04,1.35-.24.36-.17.17-1.08,3.16-.36,1.18-.75,2.46-1.02,3.37-.12.38-.22.76-.24.84-.09.51.18.99.64,1.13.36.11.72.01.96-.26.19-.21.16-.13.83-2.4.15-.5.36-1.21.47-1.59.11-.38.32-1.08.46-1.56l.26-.88h.48c.4,0,.48,0,.48.03,0,.02-.07.28-.16.59-.15.55-.62,2.22-1.82,6.54-.92,3.3-.94,3.37-.95,3.42-.01.04.07.04,1.41.04h1.43v4.2c0,4.58,0,4.34.12,4.59.11.23.34.42.61.5.17.06.54.05.71-.01.32-.12.54-.34.65-.66.04-.11.04-.32.05-4.39v-4.27h1.09v4.27c0,4.27,0,4.28.05,4.41.14.42.47.66.94.69.56.04,1.03-.32,1.11-.85.02-.1.02-1.54.02-4.31v-4.17h1.41c.92,0,1.41,0,1.41-.02,0-.01-.16-.59-.36-1.29-.19-.7-.44-1.58-.55-1.96-.11-.38-.36-1.27-.55-1.97-.61-2.16-.75-2.67-.91-3.22-.08-.3-.25-.9-.37-1.33-.12-.44-.22-.8-.22-.81,0-.01.2-.02.51-.02h.51l.05.16c.03.09.07.22.09.29.02.07.12.41.22.74.1.33.27.89.37,1.24.1.35.26.86.34,1.14.32,1.08.47,1.58.59,1.97.07.23.14.46.17.53.18.47.6.74,1.04.66.5-.09.83-.54.79-1.08-.01-.17-.03-.23-.53-1.86-.44-1.45-1.15-3.79-1.34-4.41-.09-.32-.21-.64-.26-.76-.13-.27-.37-.59-.67-.87-.54-.52-1.17-.83-1.84-.93-.31-.04-5.07-.04-5.35,0Z"/>
  </g>
  <g>
    <path d="M99.54,335.34c-.37.1-.52.16-.85.37-.98.62-1.46,1.83-1.17,2.93.2.76.75,1.44,1.41,1.75.24.11.38.21.39.28.02.06.34,2.13.72,4.61.75,4.88.74,4.8,1.11,5.06.1.07.27.14.37.18.12.03,1.68.05,4.2.05h4.01l1.24,3.98c.68,2.2,1.28,4.06,1.32,4.14.1.2.31.4.54.5.38.17.59.11,2.22-.54.84-.34,1.59-.67,1.66-.74.38-.35.45-.99.15-1.43-.17-.26-.58-.48-.89-.48-.11,0-.59.16-1.11.37-.61.25-.93.35-.95.31-.01-.04-.56-1.79-1.22-3.89-.87-2.8-1.23-3.88-1.33-4.01-.08-.1-.25-.23-.37-.29-.23-.11-.27-.11-4.26-.11h-4.03l-.15-.98c-.08-.53-.16-1.02-.18-1.09l-.03-.12,2.31-.02,2.32-.02.26-.16c.7-.44.67-1.48-.05-1.88-.14-.08-.47-.1-2.67-.12l-2.5-.03-.28-1.81c-.23-1.5-.27-1.82-.21-1.85.46-.26.93-.84,1.16-1.42.14-.37.19-1.05.1-1.46-.15-.72-.69-1.46-1.36-1.82-.57-.32-1.32-.42-1.92-.27Z"/>
    <path d="M96.85,345.15c-.1.04-.39.2-.64.37-2.26,1.48-3.72,3.75-4.13,6.43-.11.69-.11,2.03,0,2.7.32,2.02,1.2,3.76,2.61,5.17,1.44,1.43,3.19,2.33,5.23,2.65.67.11,2.24.09,2.88-.03,1.11-.2,2.13-.57,3.07-1.11.81-.46,1.28-.83,1.97-1.53.73-.74,1.21-1.4,1.66-2.29.3-.59.34-.68.33-.96,0-.35-.1-.57-.36-.79-.38-.34-.93-.37-1.33-.09-.18.12-.29.28-.52.72-.39.76-.74,1.26-1.25,1.79-.99,1.03-2.24,1.73-3.66,2.04-.73.17-2.07.18-2.77.03-1.46-.31-2.63-.92-3.62-1.89-1.43-1.41-2.15-3.11-2.15-5.14,0-1.43.39-2.69,1.22-3.95.39-.6,1.29-1.48,1.9-1.89.66-.43.82-.59.91-.92.1-.34.06-.57-.14-.89-.25-.39-.81-.6-1.23-.44Z"/>
  </g>
  <g>
    <path d="M83.14,281.82c-.24.03-1.34.09-2.45.13-1.46.06-2.09.11-2.3.19-.38.13-.92.69-1.21,1.22-.11.22-.4.58-.62.81l-.41.4h-.76c-.86,0-1.1.07-1.27.4-.23.44-.01,1.03.44,1.19.13.05.55.08.93.08h.7s.27.29.27.29c.4.41.72.55,1.28.55.52,0,.84-.12,1.19-.45.2-.19.21-.19.58-.11,1.05.21,2.9.95,4.69,1.88.57.29,1.04.53,1.05.53,0,0,0-.31-.02-.69-.02-.51-.05-.72-.14-.81-.15-.17-1.56-1.09-2.83-1.84l-1.05-.62h-.88q-.88,0-.96-.17c-.05-.11-.05-.19-.01-.23.14-.14,3.83-1.45,4.91-1.74l.27-.07-.17-.32c-.25-.44-.5-.68-.66-.67-.08,0-.34.03-.58.05ZM77.96,284.78c.42.15.56.7.25,1.05-.13.15-.21.19-.48.19s-.34-.03-.48-.19c-.29-.34-.17-.88.24-1.05.22-.09.21-.09.46,0Z"/>
    <path d="M72.78,284.71c-2.64.39-4.1,2.51-3.79,5.56.09.92.28,1.84.8,3.95.55,2.2.68,2.94.72,4.16.03.79,0,1.19-.07,1.67-.06.35-.1.64-.09.64.01,0,.19.07.39.13s.48.17.62.25c.15.07.27.12.28.11.07-.07.24-.95.31-1.62.15-1.43-.04-2.84-.77-5.77-.6-2.39-.72-3.02-.76-3.96-.06-1.34.15-2.12.76-2.78.18-.19.44-.41.6-.5.36-.21,1.12-.44,1.45-.44.25,0,.26-.01.21-.15-.07-.19-.06-.97,0-1.17.06-.17.03-.17-.66-.07Z"/>
    <path d="M76.17,288.04v.8l-.58.28c-1.09.54-2,1.68-2.27,2.83-.07.29-.1.78-.1,1.51v1.09h9.05v-1.09c0-1.21-.07-1.62-.4-2.29-.4-.8-1.08-1.47-1.99-1.92l-.56-.27v-.71c0-.39-.02-.78-.04-.86-.04-.14-.05-.14-.15-.05-.2.18-.72.38-1.13.42-.51.05-1.07-.07-1.45-.31-.17-.11-.33-.2-.34-.2-.02,0-.03.36-.03.79Z"/>
    <path d="M73.22,299.02v3.79h9.05v-7.57h-9.05v3.79ZM80.59,299.05v1.81h-5.7v-3.62h5.7v1.81Z"/>
    <path d="M69.36,301.41c-.09.04-.64.94-1.43,2.35l-1.29,2.28.19.2c.23.24,1.46.84,2.3,1.13.35.11.84.23,1.09.25.43.03.46.02.52-.13.04-.09.35-1.21.68-2.49.42-1.61.6-2.38.56-2.51-.16-.65-1.97-1.39-2.62-1.08ZM68.53,305.71c.7.15,1.37.52,1.62.9.15.23.15.35,0,.35-.41,0-2.71-.95-2.67-1.1.02-.07.4-.23.55-.23.04,0,.27.04.51.09Z"/>
    <path d="M73.22,306.85c0,3.82,0,3.75.51,4.33.17.19.46.42.68.52l.38.19h5.9l.38-.19c.22-.11.51-.33.68-.52.52-.58.51-.51.51-4.33v-3.37h-9.05v3.37Z"/>
  </g>
  <g>
    <path d="M531.68,325.45c-.24.03-1.34.09-2.45.13-1.46.06-2.09.11-2.3.19-.38.13-.92.69-1.21,1.22-.11.22-.4.58-.62.81l-.41.4h-.76c-.86,0-1.1.07-1.27.4-.23.44-.01,1.03.44,1.19.13.05.55.08.93.08h.7s.27.29.27.29c.4.41.72.55,1.28.55.52,0,.84-.12,1.19-.45.2-.19.21-.19.58-.11,1.05.21,2.9.95,4.69,1.88.57.29,1.04.53,1.05.53,0,0,0-.31-.02-.69-.02-.51-.05-.72-.14-.81-.15-.17-1.56-1.09-2.83-1.84l-1.05-.62h-.88q-.88,0-.96-.17c-.05-.11-.05-.19-.01-.23.14-.14,3.83-1.45,4.91-1.74l.27-.07-.17-.32c-.25-.44-.5-.68-.66-.67-.08,0-.34.03-.58.05ZM526.51,328.4c.42.15.56.7.25,1.05-.13.15-.21.19-.48.19s-.34-.03-.48-.19c-.29-.34-.17-.88.24-1.05.22-.09.21-.09.46,0Z"/>
    <path d="M521.32,328.34c-2.64.39-4.1,2.51-3.79,5.56.09.92.28,1.84.8,3.95.55,2.2.68,2.94.72,4.16.03.79,0,1.19-.07,1.67-.06.35-.1.64-.09.64.01,0,.19.07.39.13s.48.17.62.25c.15.07.27.12.28.11.07-.07.24-.95.31-1.62.15-1.43-.04-2.84-.77-5.77-.6-2.39-.72-3.02-.76-3.96-.06-1.34.15-2.12.76-2.78.18-.19.44-.41.6-.5.36-.21,1.12-.44,1.45-.44.25,0,.26-.01.21-.15-.07-.19-.06-.97,0-1.17.06-.17.03-.17-.66-.07Z"/>
    <path d="M524.71,331.67v.8l-.58.28c-1.09.54-2,1.68-2.27,2.83-.07.29-.1.78-.1,1.51v1.09h9.05v-1.09c0-1.21-.07-1.62-.4-2.29-.4-.8-1.08-1.47-1.99-1.92l-.56-.27v-.71c0-.39-.02-.78-.04-.86-.04-.14-.05-.14-.15-.05-.2.18-.72.38-1.13.42-.51.05-1.07-.07-1.45-.31-.17-.11-.33-.2-.34-.2-.02,0-.03.36-.03.79Z"/>
    <path d="M521.76,342.64v3.79h9.05v-7.57h-9.05v3.79ZM529.13,342.67v1.81h-5.7v-3.62h5.7v1.81Z"/>
    <path d="M517.9,345.03c-.09.04-.64.94-1.43,2.35l-1.29,2.28.19.2c.23.24,1.46.84,2.3,1.13.35.11.84.23,1.09.25.43.03.46.02.52-.13.04-.09.35-1.21.68-2.49.42-1.61.6-2.38.56-2.51-.16-.65-1.97-1.39-2.62-1.08ZM517.08,349.34c.7.15,1.37.52,1.62.9.15.23.15.35,0,.35-.41,0-2.71-.95-2.67-1.1.02-.07.4-.23.55-.23.04,0,.27.04.51.09Z"/>
    <path d="M521.76,350.47c0,3.82,0,3.75.51,4.33.17.19.46.42.68.52l.38.19h5.9l.38-.19c.22-.11.51-.33.68-.52.52-.58.51-.51.51-4.33v-3.37h-9.05v3.37Z"/>
  </g>
  <g>
    <path d="M72.49,254.68c-.71.1-1.3.23-1.78.38-2.38.78-4.31,2.68-5.09,5.02-.23.7-.32,1.21-.35,2.11-.05,1.41.17,2.44.79,3.69.62,1.25.64,1.28,6.27,6.73,2.83,2.75,5.18,4.99,5.28,5.03.23.1.47.1.7,0,.24-.11,2.81-2.62,2.9-2.85.11-.25.09-.48-.03-.74-.13-.25-.28-.37-.57-.45-.42-.11-.58-.02-1.64,1.01-.54.52-.99.94-1.01.94-.02,0-2.16-2.06-4.75-4.57-3.19-3.1-4.81-4.7-5.03-5-.41-.55-.77-1.3-.95-1.97-.18-.65-.24-1.77-.14-2.42.22-1.36.98-2.75,1.99-3.61,2.32-1.97,5.57-2.1,8.05-.3.72.52.96.52,1.66.01,1.92-1.39,4.29-1.66,6.42-.74,1.92.83,3.29,2.58,3.62,4.63.11.65.04,1.77-.13,2.42-.19.68-.56,1.44-.97,1.99-.18.24-1.01,1.1-1.86,1.92-1.13,1.1-1.54,1.54-1.59,1.68-.14.43.06.89.47,1.08.28.13.44.13.71,0,.32-.14,3.15-2.92,3.64-3.56.48-.64,1.06-1.76,1.26-2.47.25-.87.32-1.5.29-2.47-.07-2.02-.82-3.73-2.26-5.16-1.18-1.18-2.63-1.94-4.3-2.25-.75-.14-2.23-.14-2.94,0-1,.2-2.02.59-2.78,1.07l-.4.25-.4-.25c-.77-.48-1.79-.87-2.76-1.06-.45-.09-1.95-.16-2.3-.11Z"/>
    <path d="M77.59,260.04c-.09.04-.22.13-.29.21-.06.07-.67,1.38-1.35,2.91-1.34,3.01-1.36,3.07-1.13,3.47.06.11.19.24.3.31.18.11.31.11,2,.14l1.81.03-.94,2.11c-.59,1.33-.94,2.17-.94,2.29,0,.77.92,1.18,1.47.66.15-.14.44-.74,1.42-2.95,1.35-3.04,1.36-3.08,1.11-3.48-.24-.39-.27-.39-2.29-.43l-1.81-.03.94-2.11c.87-1.95.94-2.13.92-2.37-.04-.45-.36-.76-.8-.8-.16-.01-.34.01-.43.06Z"/>
  </g>
  <g>
    <text class="cls-1" transform="translate(387.54 294.64)"><tspan x="0" y="0">STAFF ONLY</tspan></text>
    <rect class="cls-2" x="376.25" y="266.66" width="165.38" height="40"/>
  </g>
  <g>
    <text class="cls-4" transform="translate(318.9 483.65)"><tspan x="0" y="0">211</tspan></text>
    <rect class="cls-2" x="308.54" y="460.81" width="58.52" height="32" rx="16" ry="16"/>
  </g>
  <g>
    <rect class="cls-3" x="419.33" y="439.43" width="166.43" height="40.84" rx="15" ry="15"/>
    <text class="cls-8" transform="translate(429.01 456.53)"><tspan x="0" y="0">トリミング＆</tspan><tspan x="0" y="18.1">トレーニング受付</tspan></text>
  </g>
</svg>