<svg width="346" height="134" viewBox="0 0 346 134" fill="none" xmlns="http://www.w3.org/2000/svg">
<path d="M10.0659 50.3587L6.0366 53.3807L172.748 95.1845M10.0659 50.3587L1 46.8331L8.05124 34.2416L10.9221 32.7306M10.0659 50.3587L21.6501 44.5069M58.9209 25.6794L36.7599 19.1318L28.7013 23.3731M58.9209 25.6794L105.258 1L168.48 17.4697M58.9209 25.6794L48.2683 31.0606M172.748 95.1845L157.791 125.908M172.748 95.1845L205.99 104.754L203.352 110.294M10.9221 32.7306L20.6428 35.7526M10.9221 32.7306L14.0952 31.0606M20.6428 35.7526L18.1245 36.7599L20.6428 37.7672L21.6501 37.2506M20.6428 35.7526L24.1684 33.9394M38.2709 26.6867L40.2855 27.694L38.1248 28.8021M38.2709 26.6867L34.8432 28.4495M38.2709 26.6867L28.7013 23.3731M14.0952 31.0606L24.1684 33.9394M14.0952 31.0606L18.1245 28.9399M24.1684 33.9394L27.694 32.1262M18.1245 28.9399L27.694 32.1262M18.1245 28.9399L21.6501 27.0843M27.694 32.1262L31.4155 30.2123M21.6501 27.0843L31.4155 30.2123M21.6501 27.0843L25.1757 25.2287M31.4155 30.2123L34.8432 28.4495M25.1757 25.2287L34.8432 28.4495M25.1757 25.2287L28.7013 23.3731M21.6501 37.2506L30.2123 40.1817M21.6501 37.2506L25.1757 35.4426M30.2123 40.1817L33.7379 38.4007M30.2123 40.1817L21.6501 44.5069M25.1757 35.4426L33.7379 38.4007M25.1757 35.4426L28.7013 33.6346M33.7379 38.4007L36.986 36.7599M28.7013 33.6346L36.986 36.7599M28.7013 33.6346L31.6427 32.1262M36.986 36.7599L40.2855 35.0931M31.6427 32.1262L40.2855 35.0931M31.6427 32.1262L33.8034 31.0182L34.8837 30.4641M40.2855 35.0931L44.9624 32.7306M34.8837 30.4641L35.9641 29.9101L38.1248 28.8021M34.8837 30.4641L44.9624 32.7306M44.9624 32.7306L48.2683 31.0606M38.1248 28.8021L48.2683 31.0606M21.6501 44.5069L85.1113 60.7798M231.702 33.9394L168.48 17.4697M231.702 33.9394L205.99 47.2746M231.702 33.9394L260.889 41.5425M85.1113 60.7798L148.572 77.0527L155.624 73.3958M85.1113 60.7798L168.48 17.4697M155.624 73.3958L176.274 79.0673L190.376 70.5051L172.748 64.5146M155.624 73.3958L172.748 64.5146M172.748 64.5146L188.865 56.1558M188.865 56.1558L202.968 59.9283M188.865 56.1558L192.391 54.3273M202.968 59.9283L200.953 61.4392L202.968 62.4466M202.968 59.9283L205.99 58.3284M220.092 50.8624L222.611 51.8697L219.832 53.3659M220.092 50.8624L216.315 52.8622M220.092 50.8624L205.99 47.2746M202.968 62.4466L216.315 65.4685M202.968 62.4466L207.501 60.0057M192.391 54.3273L205.99 58.3284M192.391 54.3273L195.917 52.4989M205.99 58.3284L209.012 56.7285M195.917 52.4989L209.012 56.7285M195.917 52.4989L199.072 50.8624M209.012 56.7285L212.537 54.862M199.072 50.8624L212.537 54.862M199.072 50.8624L202.968 48.8419M212.537 54.862L216.315 52.8622M202.968 48.8419L216.315 52.8622M202.968 48.8419L205.99 47.2746M216.315 65.4685L219.085 63.9816M216.315 65.4685L200.953 73.3958L248.801 86.3235M260.889 41.5425L345 63.4539L332.499 88.6369M260.889 41.5425L232.597 56.7285M207.501 60.0057L219.085 63.9816M207.501 60.0057L210.616 58.3284M219.085 63.9816L222.611 62.0891M210.616 58.3284L222.611 62.0891M210.616 58.3284L213.587 56.7285M222.611 62.0891L226.492 60.0057M213.587 56.7285L226.492 60.0057M213.587 56.7285L217.053 54.862M226.492 60.0057L229.617 58.3284M217.053 54.862L229.617 58.3284M217.053 54.862L219.832 53.3659M229.617 58.3284L232.597 56.7285M219.832 53.3659L232.597 56.7285M332.499 88.6369L310.247 133.463H192.391M332.499 88.6369H257.363L248.801 86.3235M192.391 133.463H154.113L157.791 125.908M192.391 133.463L195.917 125.908M195.917 125.908H157.791M195.917 125.908L203.352 110.294M203.352 110.294L248.801 86.3235" stroke="#6FBA2D"/>
<path d="M178.63 101.756C178.229 101.829 177.905 102.003 177.628 102.295C176.956 103.005 176.988 104.134 177.702 104.805C178.151 105.23 178.784 105.387 179.395 105.228C179.581 105.18 179.875 105.028 180.039 104.897C180.595 104.451 180.831 103.707 180.633 103.021C180.471 102.459 180.049 102.017 179.504 101.831C179.224 101.735 178.897 101.708 178.63 101.756Z" fill="black"/>
<path d="M176.356 105.675C176.064 105.695 175.808 105.767 175.533 105.904C174.817 106.262 174.347 106.962 174.274 107.78C174.26 107.923 174.257 108.86 174.26 110.811L174.265 113.637L174.303 113.748C174.373 113.952 174.511 114.111 174.694 114.195C174.764 114.229 174.806 114.234 174.965 114.234C175.137 114.234 175.161 114.231 175.255 114.185C175.448 114.089 175.59 113.903 175.643 113.676C175.66 113.606 175.665 112.986 175.665 110.859V108.131H176.088H176.51V115.398C176.51 121.726 176.513 122.682 176.536 122.786C176.631 123.244 177.042 123.578 177.51 123.58C177.645 123.58 177.852 123.527 177.983 123.457C178.137 123.375 178.316 123.191 178.394 123.034C178.514 122.788 178.507 123.121 178.507 118.428V114.191H178.925H179.344V118.437C179.345 123.114 179.337 122.791 179.455 123.027C179.567 123.256 179.762 123.426 180.023 123.525C180.122 123.563 180.163 123.57 180.342 123.57C180.521 123.57 180.562 123.563 180.661 123.525C180.923 123.426 181.117 123.256 181.228 123.03C181.349 122.785 181.341 123.437 181.341 115.398V108.131H181.759H182.177V110.842C182.177 112.716 182.182 113.585 182.196 113.655C182.24 113.896 182.377 114.086 182.584 114.186C182.705 114.248 182.722 114.251 182.867 114.249C182.983 114.249 183.044 114.239 183.113 114.214C183.355 114.116 183.517 113.896 183.56 113.601C183.582 113.439 183.582 108.089 183.56 107.824C183.468 106.783 182.747 105.943 181.759 105.721C181.65 105.697 181.522 105.685 181.315 105.68C180.795 105.668 176.524 105.663 176.356 105.675Z" fill="black"/>
<path d="M169.144 67.0601C168.612 67.0601 168.182 67.4907 168.182 68.0223C168.182 68.5539 168.612 68.9846 169.144 68.9846C169.676 68.9846 170.107 68.5539 170.107 68.0223C170.107 67.4907 169.676 67.0601 169.144 67.0601Z" fill="black"/>
<path d="M173.252 67.0601C172.72 67.0601 172.289 67.4907 172.289 68.0223C172.289 68.5539 172.72 68.9846 173.252 68.9846C173.783 68.9846 174.214 68.5539 174.214 68.0223C174.214 67.4907 173.783 67.0601 173.252 67.0601Z" fill="black"/>
<path d="M177.36 67.0601C176.828 67.0601 176.397 67.4907 176.397 68.0223C176.397 68.5539 176.828 68.9846 177.36 68.9846C177.892 68.9846 178.323 68.5539 178.323 68.0223C178.323 67.4907 177.892 67.0601 177.36 67.0601Z" fill="black"/>
<path d="M179.554 62.478H166.95C165.982 62.478 165.193 63.2662 165.193 64.2345V77.7287C165.193 78.6974 165.982 79.4856 166.95 79.4856H179.554C180.523 79.4856 181.31 78.6974 181.31 77.7287V64.2345C181.311 63.2662 180.523 62.478 179.554 62.478ZM168.973 78.377L169.144 74.5196L169.315 78.377H168.973ZM173.08 78.377L173.252 74.5196L173.423 78.377H173.08ZM177.189 78.377L177.36 74.5196L177.532 78.377H177.189ZM180.202 77.7287C180.202 78.0863 179.911 78.377 179.554 78.377H178.417L178.448 73.8733C178.519 73.977 178.636 74.047 178.77 74.0407C178.977 74.0307 179.136 73.8554 179.127 73.6486L179.286 70.4452C179.286 69.1852 178.01 69.1232 177.36 69.1232C176.711 69.1232 175.435 69.1852 175.435 70.4452L175.542 73.6486C175.532 73.8554 175.691 74.0307 175.898 74.0407C176.079 74.0493 176.229 73.9253 176.272 73.7569L176.304 78.3769H174.309L174.34 73.8732C174.411 73.977 174.527 74.047 174.662 74.0406C174.868 74.0307 175.028 73.8553 175.019 73.6486L175.178 70.4451C175.178 69.1851 173.901 69.1231 173.252 69.1231C172.603 69.1231 171.326 69.1851 171.326 70.4451L171.433 73.6486C171.424 73.8553 171.583 74.0307 171.79 74.0406C171.971 74.0492 172.121 73.925 172.164 73.7559L172.195 78.3769H170.201L170.231 73.8732C170.302 73.977 170.419 74.0469 170.554 74.0406C170.761 74.0306 170.92 73.8553 170.91 73.6485L171.07 70.4451C171.07 69.1851 169.793 69.1231 169.144 69.1231C168.495 69.1231 167.218 69.1851 167.218 70.4451L167.325 73.6485C167.315 73.8553 167.475 74.0306 167.681 74.0406C167.863 74.0492 168.013 73.9249 168.055 73.7559L168.087 78.3769H166.95C166.593 78.3769 166.302 78.0861 166.302 77.7286V64.2345C166.302 63.8774 166.593 63.5866 166.95 63.5866H179.554C179.911 63.5866 180.202 63.8774 180.202 64.2345V77.7287H180.202Z" fill="black"/>
<path d="M174.511 59.5922L175.828 58.2753V61.2363C175.828 61.5063 176.047 61.7251 176.317 61.7251C176.587 61.7251 176.806 61.5063 176.806 61.2363V58.2753L178.123 59.5922C178.219 59.6878 178.344 59.7357 178.469 59.7357C178.594 59.7357 178.72 59.6878 178.815 59.5922C179.006 59.4012 179.006 59.0916 178.815 58.9009L176.663 56.7486L176.317 56.4028L175.971 56.7486L173.819 58.9009C173.628 59.0916 173.628 59.4012 173.819 59.5922C174.01 59.7832 174.32 59.7832 174.511 59.5922Z" fill="black"/>
<path d="M169.841 61.581C169.841 61.5814 169.841 61.5814 169.841 61.5814L170.187 61.927L170.533 61.5814C170.533 61.5814 170.533 61.5814 170.533 61.581L172.685 59.429C172.876 59.238 172.876 58.9281 172.685 58.7373C172.494 58.5463 172.184 58.5463 171.993 58.7373L170.676 60.0546V57.0936C170.676 56.8233 170.457 56.6045 170.187 56.6045C169.917 56.6045 169.698 56.8233 169.698 57.0936V60.0546L168.381 58.7373C168.19 58.5463 167.88 58.5463 167.689 58.7373C167.498 58.928 167.498 59.238 167.689 59.429L169.841 61.581Z" fill="black"/>
<rect x="82.5" y="24.7383" width="19" height="13" fill="white" stroke="#2C893A"/>
<path d="M88.4368 34.2383H87.2288V30.9343C87.2288 30.8436 87.2288 30.7316 87.2288 30.5983C87.2341 30.4649 87.2395 30.3263 87.2448 30.1823C87.2501 30.0383 87.2555 29.9103 87.2608 29.7983C87.2341 29.8303 87.1755 29.8889 87.0848 29.9743C86.9995 30.0543 86.9195 30.1263 86.8448 30.1903L86.1888 30.7183L85.6048 29.9903L87.4448 28.5263H88.4368V34.2383ZM93.7989 29.8063C93.7989 30.0676 93.7429 30.2943 93.6309 30.4863C93.5243 30.6783 93.3776 30.8356 93.1909 30.9583C93.0096 31.0809 92.8016 31.1716 92.5669 31.2303V31.2543C93.0256 31.3076 93.3723 31.4463 93.6069 31.6703C93.8469 31.8943 93.9669 32.1956 93.9669 32.5743C93.9669 32.9049 93.8843 33.2036 93.7189 33.4703C93.5589 33.7316 93.3083 33.9396 92.9669 34.0943C92.6309 34.2436 92.1963 34.3183 91.6629 34.3183C91.3483 34.3183 91.0549 34.2916 90.7829 34.2383C90.5109 34.1849 90.2549 34.1076 90.0149 34.0063V32.9823C90.2603 33.1049 90.5163 33.1983 90.7829 33.2623C91.0549 33.3263 91.3056 33.3583 91.5349 33.3583C91.9669 33.3583 92.2683 33.2836 92.4389 33.1343C92.6149 32.9849 92.7029 32.7743 92.7029 32.5023C92.7029 32.3423 92.6629 32.2089 92.5829 32.1023C92.5029 31.9903 92.3616 31.9076 92.1589 31.8543C91.9616 31.7956 91.6843 31.7663 91.3269 31.7663H90.8949V30.8383H91.3349C91.6869 30.8383 91.9536 30.8063 92.1349 30.7423C92.3216 30.6729 92.4469 30.5823 92.5109 30.4703C92.5803 30.3529 92.6149 30.2196 92.6149 30.0703C92.6149 29.8676 92.5509 29.7103 92.4229 29.5983C92.3003 29.4809 92.0923 29.4223 91.7989 29.4223C91.6176 29.4223 91.4523 29.4463 91.3029 29.4943C91.1536 29.5369 91.0176 29.5903 90.8949 29.6543C90.7776 29.7183 90.6736 29.7796 90.5829 29.8383L90.0229 29.0063C90.1723 28.8996 90.3376 28.8036 90.5189 28.7183C90.7056 28.6329 90.9109 28.5663 91.1349 28.5183C91.3589 28.4703 91.6096 28.4463 91.8869 28.4463C92.4736 28.4463 92.9376 28.5663 93.2789 28.8063C93.6256 29.0409 93.7989 29.3743 93.7989 29.8063ZM97.5931 34.2383H96.3851V30.9343C96.3851 30.8436 96.3851 30.7316 96.3851 30.5983C96.3904 30.4649 96.3957 30.3263 96.4011 30.1823C96.4064 30.0383 96.4117 29.9103 96.4171 29.7983C96.3904 29.8303 96.3317 29.8889 96.2411 29.9743C96.1557 30.0543 96.0757 30.1263 96.0011 30.1903L95.3451 30.7183L94.7611 29.9903L96.6011 28.5263H97.5931V34.2383Z" fill="#259333"/>
<rect x="143.5" y="38.7383" width="19" height="13" fill="white" stroke="#2C893A"/>
<path d="M149.437 48.2383H148.229V44.9343C148.229 44.8436 148.229 44.7316 148.229 44.5983C148.234 44.4649 148.239 44.3263 148.245 44.1823C148.25 44.0383 148.255 43.9103 148.261 43.7983C148.234 43.8303 148.175 43.8889 148.085 43.9743C147.999 44.0543 147.919 44.1263 147.845 44.1903L147.189 44.7183L146.605 43.9903L148.445 42.5263H149.437V48.2383ZM154.799 43.8063C154.799 44.0676 154.743 44.2943 154.631 44.4863C154.524 44.6783 154.378 44.8356 154.191 44.9583C154.01 45.0809 153.802 45.1716 153.567 45.2303V45.2543C154.026 45.3076 154.372 45.4463 154.607 45.6703C154.847 45.8943 154.967 46.1956 154.967 46.5743C154.967 46.9049 154.884 47.2036 154.719 47.4703C154.559 47.7316 154.308 47.9396 153.967 48.0943C153.631 48.2436 153.196 48.3183 152.663 48.3183C152.348 48.3183 152.055 48.2916 151.783 48.2383C151.511 48.1849 151.255 48.1076 151.015 48.0063V46.9823C151.26 47.1049 151.516 47.1983 151.783 47.2623C152.055 47.3263 152.306 47.3583 152.535 47.3583C152.967 47.3583 153.268 47.2836 153.439 47.1343C153.615 46.9849 153.703 46.7743 153.703 46.5023C153.703 46.3423 153.663 46.2089 153.583 46.1023C153.503 45.9903 153.362 45.9076 153.159 45.8543C152.962 45.7956 152.684 45.7663 152.327 45.7663H151.895V44.8383H152.335C152.687 44.8383 152.954 44.8063 153.135 44.7423C153.322 44.6729 153.447 44.5823 153.511 44.4703C153.58 44.3529 153.615 44.2196 153.615 44.0703C153.615 43.8676 153.551 43.7103 153.423 43.5983C153.3 43.4809 153.092 43.4223 152.799 43.4223C152.618 43.4223 152.452 43.4463 152.303 43.4943C152.154 43.5369 152.018 43.5903 151.895 43.6543C151.778 43.7183 151.674 43.7796 151.583 43.8383L151.023 43.0063C151.172 42.8996 151.338 42.8036 151.519 42.7183C151.706 42.6329 151.911 42.5663 152.135 42.5183C152.359 42.4703 152.61 42.4463 152.887 42.4463C153.474 42.4463 153.938 42.5663 154.279 42.8063C154.626 43.0409 154.799 43.3743 154.799 43.8063ZM159.601 48.2383H155.609V47.3983L157.041 45.9503C157.329 45.6516 157.561 45.4036 157.737 45.2063C157.913 45.0036 158.041 44.8223 158.121 44.6623C158.201 44.4969 158.241 44.3209 158.241 44.1343C158.241 43.9049 158.177 43.7343 158.049 43.6223C157.926 43.5103 157.758 43.4543 157.545 43.4543C157.326 43.4543 157.113 43.5049 156.905 43.6063C156.697 43.7076 156.478 43.8516 156.249 44.0383L155.593 43.2623C155.758 43.1183 155.932 42.9849 156.113 42.8623C156.3 42.7396 156.513 42.6409 156.753 42.5663C156.998 42.4863 157.292 42.4463 157.633 42.4463C158.006 42.4463 158.326 42.5156 158.593 42.6543C158.865 42.7876 159.073 42.9716 159.217 43.2063C159.366 43.4356 159.441 43.6969 159.441 43.9903C159.441 44.2303 159.404 44.4516 159.329 44.6543C159.26 44.8569 159.156 45.0543 159.017 45.2463C158.884 45.4329 158.718 45.6276 158.521 45.8303C158.324 46.0276 158.1 46.2436 157.849 46.4783L157.113 47.1663V47.2223H159.601V48.2383Z" fill="#259333"/>
<rect x="229.5" y="62.7383" width="19" height="13" fill="white" stroke="#2C893A"/>
<path d="M235.437 72.2383H234.229V68.9343C234.229 68.8436 234.229 68.7316 234.229 68.5983C234.234 68.4649 234.239 68.3263 234.245 68.1823C234.25 68.0383 234.255 67.9103 234.261 67.7983C234.234 67.8303 234.175 67.8889 234.085 67.9743C233.999 68.0543 233.919 68.1263 233.845 68.1903L233.189 68.7183L232.605 67.9903L234.445 66.5263H235.437V72.2383ZM240.799 67.8063C240.799 68.0676 240.743 68.2943 240.631 68.4863C240.524 68.6783 240.378 68.8356 240.191 68.9583C240.01 69.0809 239.802 69.1716 239.567 69.2303V69.2543C240.026 69.3076 240.372 69.4463 240.607 69.6703C240.847 69.8943 240.967 70.1956 240.967 70.5743C240.967 70.9049 240.884 71.2036 240.719 71.4703C240.559 71.7316 240.308 71.9396 239.967 72.0943C239.631 72.2436 239.196 72.3183 238.663 72.3183C238.348 72.3183 238.055 72.2916 237.783 72.2383C237.511 72.1849 237.255 72.1076 237.015 72.0063V70.9823C237.26 71.1049 237.516 71.1983 237.783 71.2623C238.055 71.3263 238.306 71.3583 238.535 71.3583C238.967 71.3583 239.268 71.2836 239.439 71.1343C239.615 70.9849 239.703 70.7743 239.703 70.5023C239.703 70.3423 239.663 70.2089 239.583 70.1023C239.503 69.9903 239.362 69.9076 239.159 69.8543C238.962 69.7956 238.684 69.7663 238.327 69.7663H237.895V68.8383H238.335C238.687 68.8383 238.954 68.8063 239.135 68.7423C239.322 68.6729 239.447 68.5823 239.511 68.4703C239.58 68.3529 239.615 68.2196 239.615 68.0703C239.615 67.8676 239.551 67.7103 239.423 67.5983C239.3 67.4809 239.092 67.4223 238.799 67.4223C238.618 67.4223 238.452 67.4463 238.303 67.4943C238.154 67.5369 238.018 67.5903 237.895 67.6543C237.778 67.7183 237.674 67.7796 237.583 67.8383L237.023 67.0063C237.172 66.8996 237.338 66.8036 237.519 66.7183C237.706 66.6329 237.911 66.5663 238.135 66.5183C238.359 66.4703 238.61 66.4463 238.887 66.4463C239.474 66.4463 239.938 66.5663 240.279 66.8063C240.626 67.0409 240.799 67.3743 240.799 67.8063ZM245.377 67.8063C245.377 68.0676 245.321 68.2943 245.209 68.4863C245.102 68.6783 244.956 68.8356 244.769 68.9583C244.588 69.0809 244.38 69.1716 244.145 69.2303V69.2543C244.604 69.3076 244.95 69.4463 245.185 69.6703C245.425 69.8943 245.545 70.1956 245.545 70.5743C245.545 70.9049 245.462 71.2036 245.297 71.4703C245.137 71.7316 244.886 71.9396 244.545 72.0943C244.209 72.2436 243.774 72.3183 243.241 72.3183C242.926 72.3183 242.633 72.2916 242.361 72.2383C242.089 72.1849 241.833 72.1076 241.593 72.0063V70.9823C241.838 71.1049 242.094 71.1983 242.361 71.2623C242.633 71.3263 242.884 71.3583 243.113 71.3583C243.545 71.3583 243.846 71.2836 244.017 71.1343C244.193 70.9849 244.281 70.7743 244.281 70.5023C244.281 70.3423 244.241 70.2089 244.161 70.1023C244.081 69.9903 243.94 69.9076 243.737 69.8543C243.54 69.7956 243.262 69.7663 242.905 69.7663H242.473V68.8383H242.913C243.265 68.8383 243.532 68.8063 243.713 68.7423C243.9 68.6729 244.025 68.5823 244.089 68.4703C244.158 68.3529 244.193 68.2196 244.193 68.0703C244.193 67.8676 244.129 67.7103 244.001 67.5983C243.878 67.4809 243.67 67.4223 243.377 67.4223C243.196 67.4223 243.03 67.4463 242.881 67.4943C242.732 67.5369 242.596 67.5903 242.473 67.6543C242.356 67.7183 242.252 67.7796 242.161 67.8383L241.601 67.0063C241.75 66.8996 241.916 66.8036 242.097 66.7183C242.284 66.6329 242.489 66.5663 242.713 66.5183C242.937 66.4703 243.188 66.4463 243.465 66.4463C244.052 66.4463 244.516 66.5663 244.857 66.8063C245.204 67.0409 245.377 67.3743 245.377 67.8063Z" fill="#259333"/>
<rect x="253.5" y="103.738" width="19" height="13" fill="white" stroke="#2C893A"/>
<path d="M259.437 113.238H258.229V109.934C258.229 109.844 258.229 109.732 258.229 109.598C258.234 109.465 258.239 109.326 258.245 109.182C258.25 109.038 258.255 108.91 258.261 108.798C258.234 108.83 258.175 108.889 258.085 108.974C257.999 109.054 257.919 109.126 257.845 109.19L257.189 109.718L256.605 108.99L258.445 107.526H259.437V113.238ZM264.799 108.806C264.799 109.068 264.743 109.294 264.631 109.486C264.524 109.678 264.378 109.836 264.191 109.958C264.01 110.081 263.802 110.172 263.567 110.23V110.254C264.026 110.308 264.372 110.446 264.607 110.67C264.847 110.894 264.967 111.196 264.967 111.574C264.967 111.905 264.884 112.204 264.719 112.47C264.559 112.732 264.308 112.94 263.967 113.094C263.631 113.244 263.196 113.318 262.663 113.318C262.348 113.318 262.055 113.292 261.783 113.238C261.511 113.185 261.255 113.108 261.015 113.006V111.982C261.26 112.105 261.516 112.198 261.783 112.262C262.055 112.326 262.306 112.358 262.535 112.358C262.967 112.358 263.268 112.284 263.439 112.134C263.615 111.985 263.703 111.774 263.703 111.502C263.703 111.342 263.663 111.209 263.583 111.102C263.503 110.99 263.362 110.908 263.159 110.854C262.962 110.796 262.684 110.766 262.327 110.766H261.895V109.838H262.335C262.687 109.838 262.954 109.806 263.135 109.742C263.322 109.673 263.447 109.582 263.511 109.47C263.58 109.353 263.615 109.22 263.615 109.07C263.615 108.868 263.551 108.71 263.423 108.598C263.3 108.481 263.092 108.422 262.799 108.422C262.618 108.422 262.452 108.446 262.303 108.494C262.154 108.537 262.018 108.59 261.895 108.654C261.778 108.718 261.674 108.78 261.583 108.838L261.023 108.006C261.172 107.9 261.338 107.804 261.519 107.718C261.706 107.633 261.911 107.566 262.135 107.518C262.359 107.47 262.61 107.446 262.887 107.446C263.474 107.446 263.938 107.566 264.279 107.806C264.626 108.041 264.799 108.374 264.799 108.806ZM269.729 112.054H269.041V113.238H267.865V112.054H265.425V111.214L267.929 107.526H269.041V111.118H269.729V112.054ZM267.865 110.15C267.865 110.06 267.865 109.953 267.865 109.83C267.87 109.702 267.876 109.577 267.881 109.454C267.886 109.326 267.892 109.214 267.897 109.118C267.902 109.017 267.908 108.948 267.913 108.91H267.881C267.833 109.017 267.782 109.121 267.729 109.222C267.676 109.324 267.612 109.428 267.537 109.534L266.489 111.118H267.865V110.15Z" fill="#259333"/>
</svg>
