<svg width="346" height="116" viewBox="0 0 346 116" fill="none" xmlns="http://www.w3.org/2000/svg">
<path d="M212.417 14.4375L220.479 1H70.875L62.622 14.4375M212.417 14.4375H279.156L263.479 39.5208M212.417 14.4375H169.865M263.479 39.5208H281.396M263.479 39.5208L257.938 48.9271M301.104 62.8125L305.915 53.8542M301.104 62.8125H296.849M301.104 62.8125H305.915M9.52805 100.885L1 114.771H78.0417M9.52805 100.885L62.622 14.4375M9.52805 100.885H87M118.139 100.885H226.75L236.765 84.3125M118.139 100.885L169.865 14.4375M118.139 100.885H87M169.865 14.4375H62.622M78.0417 114.771L87 100.885M78.0417 114.771H272.885M236.765 84.3125H270.646L283.187 62.8125M236.765 84.3125L249.758 62.8125M283.187 62.8125H282.292M283.187 62.8125H285.875M249.758 62.8125H267.958M249.758 62.8125L255.563 52.9583M267.958 62.8125L272.885 53.8542H276.917M267.958 62.8125H271.542M305.915 53.8542H300.208M305.915 53.8542L306.81 52.2865M271.542 62.8125L276.917 53.8542M271.542 62.8125H275.125M276.917 53.8542H280.052M275.125 62.8125L280.052 53.8542M275.125 62.8125H279.156M280.052 53.8542H283.187M279.156 62.8125L283.187 53.8542M279.156 62.8125H282.292M283.187 53.8542H286.771M282.292 62.8125L286.771 53.8542M286.771 53.8542H287.667M285.875 62.8125L290.354 53.8542M285.875 62.8125H289.01M290.354 53.8542H293.937M290.354 53.8542H287.667M289.01 62.8125L293.937 53.8542M289.01 62.8125H292.594M293.937 53.8542H297.073M292.594 62.8125L297.073 53.8542M292.594 62.8125H296.849M297.073 53.8542H300.208M296.849 62.8125L300.208 53.8542M273.781 53.4063L274.095 52.9583M276.917 48.9271V47.8073M276.917 48.9271H257.938M276.917 48.9271L275.349 51.1667M281.396 39.5208L276.917 46.6875V47.8073M281.396 39.5208H285.203M276.917 47.8073H280.5M290.802 47.8073H287.667M290.802 47.8073L291.238 47.1354M290.802 47.8073L290.221 48.9271M296.177 39.5208H314.094L309.749 47.1354M296.177 39.5208H292.594M296.177 39.5208L291.238 47.1354M287.667 47.8073L292.594 39.5208M287.667 47.8073H284.083M292.594 39.5208H289.01M284.083 47.8073L289.01 39.5208M284.083 47.8073H280.5M289.01 39.5208H285.203M280.5 47.8073L285.203 39.5208M287.667 53.8542L288.48 52.2865M291.238 47.1354H309.749M309.749 47.1354L308.727 48.9271M290.221 48.9271H308.727M290.221 48.9271L289.292 50.7188M308.727 48.9271L307.704 50.7188M289.292 50.7188H307.704M289.292 50.7188L288.48 52.2865M307.704 50.7188L306.81 52.2865M288.48 52.2865H306.81M257.938 48.9271L256.619 51.1667M256.619 51.1667H275.349M256.619 51.1667L255.563 52.9583M275.349 51.1667L274.095 52.9583M255.563 52.9583H274.095M305.915 62.8125H345L314.094 114.771H272.885M305.915 62.8125L272.885 114.771" stroke="#F3858E"/>
<path d="M255.794 70.4985C255.321 70.4985 254.938 70.8815 254.938 71.3543C254.938 71.8271 255.321 72.2101 255.794 72.2101C256.267 72.2101 256.65 71.8271 256.65 71.3543C256.65 70.8815 256.267 70.4985 255.794 70.4985Z" fill="black"/>
<path d="M259.448 70.4985C258.975 70.4985 258.592 70.8815 258.592 71.3543C258.592 71.8271 258.975 72.2101 259.448 72.2101C259.92 72.2101 260.304 71.8271 260.304 71.3543C260.304 70.8815 259.92 70.4985 259.448 70.4985Z" fill="black"/>
<path d="M263.102 70.4985C262.629 70.4985 262.246 70.8815 262.246 71.3543C262.246 71.8271 262.629 72.2101 263.102 72.2101C263.575 72.2101 263.958 71.8271 263.958 71.3543C263.958 70.8815 263.575 70.4985 263.102 70.4985Z" fill="black"/>
<path d="M265.053 66.4238H253.844C252.982 66.4238 252.281 67.1247 252.281 67.9859V79.9866C252.281 80.8481 252.982 81.549 253.844 81.549H265.053C265.914 81.549 266.615 80.8481 266.615 79.9866V67.9859C266.615 67.1247 265.914 66.4238 265.053 66.4238ZM255.642 80.5631L255.794 77.1326L255.947 80.5631H255.642ZM259.295 80.5631L259.448 77.1326L259.601 80.5631H259.295ZM262.949 80.5631L263.102 77.1326L263.254 80.5631H262.949ZM265.629 79.9866C265.629 80.3046 265.37 80.5631 265.053 80.5631H264.041L264.069 76.5579C264.132 76.6502 264.236 76.7124 264.356 76.7067C264.539 76.6979 264.681 76.5419 264.672 76.3581L264.814 73.5092C264.814 72.3886 263.679 72.3335 263.102 72.3335C262.524 72.3335 261.389 72.3886 261.389 73.5092L261.485 76.3581C261.476 76.5419 261.617 76.6979 261.801 76.7067C261.962 76.7144 262.095 76.6041 262.134 76.4544L262.162 80.5631H260.388L260.416 76.5578C260.479 76.6501 260.582 76.7124 260.702 76.7067C260.886 76.6979 261.028 76.5419 261.019 76.3581L261.161 73.5092C261.161 72.3886 260.025 72.3335 259.448 72.3335C258.871 72.3335 257.735 72.3886 257.735 73.5092L257.831 76.3581C257.822 76.5419 257.964 76.6979 258.148 76.7067C258.308 76.7144 258.442 76.6039 258.48 76.4535L258.508 80.5631H256.734L256.762 76.5578C256.825 76.6501 256.928 76.7123 257.048 76.7067C257.232 76.6978 257.374 76.5419 257.365 76.358L257.507 73.5091C257.507 72.3886 256.372 72.3334 255.794 72.3334C255.217 72.3334 254.082 72.3886 254.082 73.5091L254.177 76.358C254.168 76.5419 254.31 76.6978 254.494 76.7067C254.655 76.7143 254.789 76.6038 254.827 76.4535L254.855 80.563H253.844C253.526 80.563 253.267 80.3045 253.267 79.9865V67.9859C253.267 67.6683 253.526 67.4097 253.844 67.4097H265.053C265.37 67.4097 265.629 67.6683 265.629 67.9859V79.9866H265.629Z" fill="black"/>
<path d="M260.568 63.8574L261.739 62.6862V65.3195C261.739 65.5596 261.934 65.7542 262.174 65.7542C262.414 65.7542 262.609 65.5596 262.609 65.3195V62.6862L263.78 63.8574C263.866 63.9424 263.977 63.985 264.088 63.985C264.199 63.985 264.311 63.9424 264.395 63.8574C264.566 63.6875 264.566 63.4122 264.395 63.2426L262.482 61.3285L262.174 61.021L261.866 61.3285L259.953 63.2426C259.783 63.4122 259.783 63.6875 259.953 63.8574C260.122 64.0273 260.398 64.0273 260.568 63.8574Z" fill="black"/>
<path d="M256.414 65.626C256.414 65.6262 256.414 65.6262 256.414 65.6262L256.722 65.9337L257.03 65.6262C257.03 65.6262 257.03 65.6262 257.03 65.626L258.943 63.7121C259.113 63.5422 259.113 63.2666 258.943 63.097C258.774 62.9271 258.498 62.9271 258.328 63.097L257.157 64.2684V61.6352C257.157 61.3948 256.962 61.2002 256.722 61.2002C256.482 61.2002 256.287 61.3948 256.287 61.6352V64.2684L255.116 63.097C254.946 62.9271 254.67 62.9271 254.5 63.097C254.331 63.2666 254.331 63.5422 254.5 63.7121L256.414 65.626Z" fill="black"/>
</svg>
