<?xml version="1.0" encoding="UTF-8"?>
<svg id="_トレース" data-name="トレース" xmlns="http://www.w3.org/2000/svg" viewBox="0 0 595 842">
  <defs>
    <style>
      .cls-1 {
        fill: #f3858e;
        font-family: BIZ-UDGothic, 'BIZ UDGothic';
        font-size: 21px;
        letter-spacing: .2em;
      }

      .cls-1, .cls-2, .cls-3, .cls-4, .cls-5 {
        stroke-miterlimit: 10;
      }

      .cls-1, .cls-3, .cls-4, .cls-5 {
        stroke: #f3858e;
      }

      .cls-2 {
        stroke: #34b9f0;
      }

      .cls-2, .cls-3, .cls-4, .cls-5 {
        fill: none;
      }

      .cls-6 {
        fill: #ef4444;
      }

      .cls-4 {
        stroke-width: 3px;
      }

      .cls-5 {
        stroke-width: 2px;
      }
    </style>
  </defs>
  <g>
    <g>
      <line class="cls-3" x1="157.11" y1="412.78" x2="157.11" y2="441.52"/>
      <line class="cls-3" x1="163.26" y1="411.57" x2="163.26" y2="441.65"/>
      <line class="cls-3" x1="169.01" y1="412.11" x2="169.01" y2="441.92"/>
      <line class="cls-3" x1="175.16" y1="411.97" x2="175.16" y2="442.06"/>
      <line class="cls-3" x1="176.89" y1="443.93" x2="209.12" y2="443.93"/>
      <line class="cls-3" x1="177.16" y1="448.87" x2="208.85" y2="448.87"/>
      <line class="cls-3" x1="177.03" y1="453.82" x2="208.98" y2="453.82"/>
      <line class="cls-3" x1="172.62" y1="454.76" x2="172.62" y2="480.16"/>
      <line class="cls-3" x1="166.33" y1="454.76" x2="166.33" y2="480.03"/>
      <line class="cls-3" x1="160.31" y1="454.62" x2="160.31" y2="479.49"/>
      <line class="cls-3" x1="154.16" y1="454.76" x2="154.16" y2="479.36"/>
      <line class="cls-3" x1="152.56" y1="451.95" x2="125.29" y2="451.95"/>
      <line class="cls-3" x1="125.02" y1="447.14" x2="153.5" y2="447.14"/>
      <line class="cls-3" x1="125.29" y1="442.32" x2="153.23" y2="442.32"/>
    </g>
    <g>
      <polyline class="cls-4" points="208.33 534.91 208.33 411.22 61.85 411.22 61.85 279.5 533.09 278.9 533.09 563.1 311.51 563.1 311.51 532.87 208.33 532.87"/>
      <line class="cls-4" x1="124.35" y1="411.82" x2="124.35" y2="481.04"/>
      <line class="cls-4" x1="124.95" y1="480.33" x2="207.85" y2="480.33"/>
    </g>
    <g>
      <line class="cls-5" x1="152.91" y1="441.33" x2="152.91" y2="455.37"/>
      <line class="cls-5" x1="151.74" y1="453.84" x2="177.56" y2="453.84"/>
      <line class="cls-5" x1="176.39" y1="455.1" x2="176.39" y2="441.6"/>
      <line class="cls-5" x1="152.19" y1="441.96" x2="177.2" y2="441.96"/>
      <polyline class="cls-5" points="157.14 410.2 157.14 348.57 208.6 348.57"/>
      <polyline class="cls-5" points="208.96 410.2 208.96 315.55 223.99 315.55"/>
      <line class="cls-5" x1="413.03" y1="280.01" x2="413.03" y2="314.56"/>
      <line class="cls-5" x1="367.86" y1="315.73" x2="367.86" y2="532.93"/>
      <line class="cls-5" x1="311.99" y1="532.66" x2="533.15" y2="532.66"/>
      <line class="cls-5" x1="124.45" y1="281.32" x2="124.45" y2="369.5"/>
      <line class="cls-5" x1="124.45" y1="394.58" x2="124.45" y2="410.76"/>
      <line class="cls-5" x1="244.58" y1="314.9" x2="532.58" y2="314.9"/>
      <line class="cls-5" x1="439.55" y1="280.51" x2="439.55" y2="313.28"/>
    </g>
  </g>
  <g>
    <text class="cls-1" transform="translate(291.14 451.45)"><tspan x="0" y="0">STAFF ONLY</tspan></text>
    <rect class="cls-2" x="279.85" y="423.47" width="165.38" height="40"/>
  </g>
  <g>
    <path class="cls-6" d="M91.46,317.16c-.93.17-1.68.76-2.05,1.62-.16.37-.22.71-.2,1.14,0,.24.03.41.06.56.21.79.71,1.42,1.43,1.77,1.35.66,2.96.12,3.62-1.23.16-.33.24-.59.27-.94.09-.99-.37-1.96-1.19-2.5-.58-.38-1.29-.54-1.94-.42Z"/>
    <path class="cls-6" d="M88.61,323.15c-.98.15-1.8.7-2.39,1.59-.28.42-.2.2-1.27,3.71-.42,1.38-.88,2.88-1.2,3.96-.14.45-.26.89-.28.98-.11.6.21,1.16.75,1.33.42.13.84.01,1.13-.31.22-.24.19-.16.98-2.81.17-.59.43-1.43.56-1.87.13-.44.38-1.27.54-1.83l.31-1.03h.57c.47,0,.57,0,.57.04,0,.02-.08.33-.18.69-.18.65-.72,2.6-2.14,7.68-1.08,3.87-1.1,3.96-1.12,4.01-.01.04.08.05,1.66.05h1.67v4.93c0,5.37,0,5.09.15,5.39.13.27.4.49.72.58.2.07.63.06.83-.02.38-.14.63-.39.76-.78.04-.13.05-.37.05-5.15v-5.01h1.28v5.02c0,5.01,0,5.02.05,5.18.16.49.55.77,1.1.81.66.04,1.21-.38,1.31-1,.02-.11.03-1.81.03-5.06v-4.89h1.66c1.08,0,1.66,0,1.66-.03,0-.01-.19-.69-.42-1.51-.23-.82-.52-1.85-.65-2.3-.13-.45-.42-1.49-.65-2.31-.71-2.54-.88-3.13-1.06-3.78-.1-.35-.3-1.05-.44-1.56-.15-.51-.26-.94-.26-.95,0-.02.23-.03.6-.03h.59l.05.19c.03.1.08.26.1.34.03.09.14.48.26.87.12.39.31,1.04.43,1.45.12.41.3,1.01.4,1.34.38,1.27.55,1.85.69,2.31.08.26.17.54.2.62.22.56.7.87,1.22.78.59-.11.97-.63.92-1.27-.02-.19-.04-.27-.62-2.18-.52-1.7-1.35-4.44-1.57-5.17-.11-.37-.24-.75-.31-.89-.15-.32-.44-.69-.79-1.03-.64-.61-1.37-.98-2.16-1.09-.36-.05-5.95-.05-6.28,0Z"/>
  </g>
  <g>
    <path d="M147.89,378.29c-.24.03-1.34.09-2.45.13-1.46.06-2.09.11-2.3.19-.38.13-.92.69-1.21,1.22-.11.22-.4.58-.62.81l-.41.4h-.76c-.86,0-1.1.07-1.27.4-.23.44-.01,1.03.44,1.19.13.05.55.08.93.08h.7s.27.29.27.29c.4.41.72.55,1.28.55.52,0,.84-.12,1.19-.45.2-.19.21-.19.58-.11,1.05.21,2.9.95,4.69,1.88.57.29,1.04.53,1.05.53,0,0,0-.31-.02-.69-.02-.51-.05-.72-.14-.81-.15-.17-1.56-1.09-2.83-1.84l-1.05-.62h-.88q-.88,0-.96-.17c-.05-.11-.05-.19-.01-.23.14-.14,3.83-1.45,4.91-1.74l.27-.07-.17-.32c-.25-.44-.5-.68-.66-.67-.08,0-.34.03-.58.05ZM142.72,381.25c.42.15.56.7.25,1.05-.13.15-.21.19-.48.19s-.34-.03-.48-.19c-.29-.34-.17-.88.24-1.05.22-.09.21-.09.46,0Z"/>
    <path d="M137.53,381.18c-2.64.39-4.1,2.51-3.79,5.56.09.92.28,1.84.8,3.95.55,2.2.68,2.94.72,4.16.03.79,0,1.19-.07,1.67-.06.35-.1.64-.09.64.01,0,.19.07.39.13s.48.17.62.25c.15.07.27.12.28.11.07-.07.24-.95.31-1.62.15-1.43-.04-2.84-.77-5.77-.6-2.39-.72-3.02-.76-3.96-.06-1.34.15-2.12.76-2.78.18-.19.44-.41.6-.5.36-.21,1.12-.44,1.45-.44.25,0,.26-.01.21-.15-.07-.19-.06-.97,0-1.17.06-.17.03-.17-.66-.07Z"/>
    <path d="M140.92,384.51v.8l-.58.28c-1.09.54-2,1.68-2.27,2.83-.07.29-.1.78-.1,1.51v1.09h9.05v-1.09c0-1.21-.07-1.62-.4-2.29-.4-.8-1.08-1.47-1.99-1.92l-.56-.27v-.71c0-.39-.02-.78-.04-.86-.04-.14-.05-.14-.15-.05-.2.18-.72.38-1.13.42-.51.05-1.07-.07-1.45-.31-.17-.11-.33-.2-.34-.2-.02,0-.03.36-.03.79Z"/>
    <path d="M137.97,395.48v3.79h9.05v-7.57h-9.05v3.79ZM145.34,395.52v1.81h-5.7v-3.62h5.7v1.81Z"/>
    <path d="M134.11,397.88c-.09.04-.64.94-1.43,2.35l-1.29,2.28.19.2c.23.24,1.46.84,2.3,1.13.35.11.84.23,1.09.25.43.03.46.02.52-.13.04-.09.35-1.21.68-2.49.42-1.61.6-2.38.56-2.51-.16-.65-1.97-1.39-2.62-1.08ZM133.28,402.18c.7.15,1.37.52,1.62.9.15.23.15.35,0,.35-.41,0-2.71-.95-2.67-1.1.02-.07.4-.23.55-.23.04,0,.27.04.51.09Z"/>
    <path d="M137.97,403.31c0,3.82,0,3.75.51,4.33.17.19.46.42.68.52l.38.19h5.9l.38-.19c.22-.11.51-.33.68-.52.52-.58.51-.51.51-4.33v-3.37h-9.05v3.37Z"/>
  </g>
  <g>
    <path d="M528.54,318.84c-.24.03-1.34.09-2.45.13-1.46.06-2.09.11-2.3.19-.38.13-.92.69-1.21,1.22-.11.22-.4.58-.62.81l-.41.4h-.76c-.86,0-1.1.07-1.27.4-.23.44-.01,1.03.44,1.19.13.05.55.08.93.08h.7s.27.29.27.29c.4.41.72.55,1.28.55.52,0,.84-.12,1.19-.45.2-.19.21-.19.58-.11,1.05.21,2.9.95,4.69,1.88.57.29,1.04.53,1.05.53,0,0,0-.31-.02-.69-.02-.51-.05-.72-.14-.81-.15-.17-1.56-1.09-2.83-1.84l-1.05-.62h-.88q-.88,0-.96-.17c-.05-.11-.05-.19-.01-.23.14-.14,3.83-1.45,4.91-1.74l.27-.07-.17-.32c-.25-.44-.5-.68-.66-.67-.08,0-.34.03-.58.05ZM523.36,321.8c.42.15.56.7.25,1.05-.13.15-.21.19-.48.19s-.34-.03-.48-.19c-.29-.34-.17-.88.24-1.05.22-.09.21-.09.46,0Z"/>
    <path d="M518.18,321.73c-2.64.39-4.1,2.51-3.79,5.56.09.92.28,1.84.8,3.95.55,2.2.68,2.94.72,4.16.03.79,0,1.19-.07,1.67-.06.35-.1.64-.09.64.01,0,.19.07.39.13s.48.17.62.25c.15.07.27.12.28.11.07-.07.24-.95.31-1.62.15-1.43-.04-2.84-.77-5.77-.6-2.39-.72-3.02-.76-3.96-.06-1.34.15-2.12.76-2.78.18-.19.44-.41.6-.5.36-.21,1.12-.44,1.45-.44.25,0,.26-.01.21-.15-.07-.19-.06-.97,0-1.17.06-.17.03-.17-.66-.07Z"/>
    <path d="M521.57,325.06v.8l-.58.28c-1.09.54-2,1.68-2.27,2.83-.07.29-.1.78-.1,1.51v1.09h9.05v-1.09c0-1.21-.07-1.62-.4-2.29-.4-.8-1.08-1.47-1.99-1.92l-.56-.27v-.71c0-.39-.02-.78-.04-.86-.04-.14-.05-.14-.15-.05-.2.18-.72.38-1.13.42-.51.05-1.07-.07-1.45-.31-.17-.11-.33-.2-.34-.2-.02,0-.03.36-.03.79Z"/>
    <path d="M518.62,336.03v3.79h9.05v-7.57h-9.05v3.79ZM525.99,336.07v1.81h-5.7v-3.62h5.7v1.81Z"/>
    <path d="M514.76,338.43c-.09.04-.64.94-1.43,2.35l-1.29,2.28.19.2c.23.24,1.46.84,2.3,1.13.35.11.84.23,1.09.25.43.03.46.02.52-.13.04-.09.35-1.21.68-2.49.42-1.61.6-2.38.56-2.51-.16-.65-1.97-1.39-2.62-1.08ZM513.93,342.73c.7.15,1.37.52,1.62.9.15.23.15.35,0,.35-.41,0-2.71-.95-2.67-1.1.02-.07.4-.23.55-.23.04,0,.27.04.51.09Z"/>
    <path d="M518.62,343.86c0,3.82,0,3.75.51,4.33.17.19.46.42.68.52l.38.19h5.9l.38-.19c.22-.11.51-.33.68-.52.52-.58.51-.51.51-4.33v-3.37h-9.05v3.37Z"/>
  </g>
  <g>
    <path d="M174.09,377.17c-1.2,0-2.17.97-2.17,2.17s.97,2.17,2.17,2.17,2.17-.97,2.17-2.17-.97-2.17-2.17-2.17Z"/>
    <path d="M183.35,377.17c-1.2,0-2.17.97-2.17,2.17s.97,2.17,2.17,2.17,2.17-.97,2.17-2.17c0-1.2-.97-2.17-2.17-2.17Z"/>
    <path d="M192.61,377.17c-1.2,0-2.17.97-2.17,2.17s.97,2.17,2.17,2.17,2.17-.97,2.17-2.17-.97-2.17-2.17-2.17Z"/>
    <path d="M197.56,366.83h-28.42c-2.18,0-3.96,1.78-3.96,3.96v30.42c0,2.18,1.78,3.96,3.96,3.96h28.42c2.18,0,3.96-1.78,3.96-3.96v-30.42c0-2.18-1.78-3.96-3.96-3.96ZM173.7,402.68l.39-8.7.39,8.7h-.77ZM182.96,402.68l.39-8.7.39,8.7h-.77ZM192.22,402.68l.39-8.7.39,8.7h-.77ZM199.02,401.22c0,.81-.66,1.46-1.46,1.46h-2.56l.07-10.15c.16.23.42.39.73.38.47-.02.83-.42.8-.88l.36-7.22c0-2.84-2.88-2.98-4.34-2.98s-4.34.14-4.34,2.98l.24,7.22c-.02.47.34.86.8.88.41.02.75-.26.84-.64l.07,10.42h-4.5l.07-10.15c.16.23.42.39.73.38.47-.02.83-.42.8-.88l.36-7.22c0-2.84-2.88-2.98-4.34-2.98s-4.34.14-4.34,2.98l.24,7.22c-.02.47.34.86.8.88.41.02.75-.26.84-.64l.07,10.42h-4.5l.07-10.15c.16.23.42.39.73.38.47-.02.82-.42.8-.88l.36-7.22c0-2.84-2.88-2.98-4.34-2.98s-4.34.14-4.34,2.98l.24,7.22c-.02.47.34.86.8.88.41.02.75-.26.84-.64l.07,10.42h-2.56c-.81,0-1.46-.66-1.46-1.46v-30.42c0-.81.66-1.46,1.46-1.46h28.42c.81,0,1.46.66,1.46,1.46v30.42h0Z"/>
    <path d="M186.19,360.33l2.97-2.97v6.68c0,.61.49,1.1,1.1,1.1s1.1-.49,1.1-1.1v-6.68l2.97,2.97c.22.22.5.32.78.32s.57-.11.78-.32c.43-.43.43-1.13,0-1.56l-4.85-4.85-.78-.78-.78.78-4.85,4.85c-.43.43-.43,1.13,0,1.56.43.43,1.13.43,1.56,0Z"/>
    <path d="M175.66,364.81h0s.78.78.78.78l.78-.78s0,0,0,0l4.85-4.85c.43-.43.43-1.13,0-1.56-.43-.43-1.13-.43-1.56,0l-2.97,2.97v-6.68c0-.61-.49-1.1-1.1-1.1s-1.1.49-1.1,1.1v6.68l-2.97-2.97c-.43-.43-1.13-.43-1.56,0-.43.43-.43,1.13,0,1.56l4.85,4.85Z"/>
  </g>
  <g>
    <path d="M88.87,462.95v15.65h31.55v-31.29h-31.55v15.65ZM114.18,458.98v9.6l.48.08c.56.09,1.29.42,1.58.72.49.49,1.38,2.1,1.4,2.54.01.2,0,.22-.25.27-.14.03-.92.05-1.73.05h-1.48v4.12l.71.73c.73.75.96,1.05.9,1.12-.08.07-3.88.14-8.02.14h-4.18s-1.11-1.06-1.11-1.06l-1.11-1.07h-2.86l1.01.97c.91.88.99.98.88,1.05-.08.05-.72.09-1.78.11l-1.65.03-.93-.93-.93-.93v-13.21h4.06s.84-.99.84-.99c1.17-1.36,1.46-1.67,1.56-1.67.07,0,.84,1.56,1.54,3.14l.26.58-2.27,4.58c-2.75,5.54-3.06,6.23-2.93,6.32.12.08.98.07,1.6-.01.55-.08,1.08-.29,1.3-.53.21-.22,1-1.7,2.73-5.08,1.76-3.45,2.17-4.19,2.26-4.17.1.03.15.47.22,2.12.08,1.63.2,2.72.36,3.29.18.6-.12.57,5.06.57,4.62,0,4.89-.01,4.99-.26.05-.13-.33-.84-.63-1.18-.14-.16-.34-.33-.45-.38-.38-.19-1.19-.28-3.36-.35-1.19-.04-2.44-.08-2.76-.1l-.59-.04-.18-2.7-.19-2.71-.24-.55c-.14-.31-.58-1.26-1-2.13-.42-.86-.75-1.62-.75-1.67,0-.14.31-.17,1.45-.15l1.03.02.62,1.08c1.03,1.79,1.53,2.39,2,2.39.22,0,.68-.31.8-.53.2-.39-.05-1.13-.92-2.63-.94-1.63-1.29-2.01-2.04-2.25-.44-.14-.53-.14-3.73-.14-2.56,0-3.36.02-3.64.09-.32.08-.42.15-1.04.78-.38.38-1.15,1.26-1.72,1.94l-1.04,1.24h-1.6s-1.61,0-1.61,0v-11.82h19.09v9.6Z"/>
    <path d="M101.33,452.42c-.72.21-1.3,1.05-1.32,1.9-.01.64.61,1.66,1.21,1.99.16.08.36.12.79.12.51,0,.64-.03.95-.18.8-.39,1.16-1.01,1.18-1.99,0-.49-.01-.58-.17-.84-.21-.36-.76-.88-1.06-1.01-.29-.12-1.14-.11-1.59.03Z"/>
  </g>
</svg>