<svg width="346" height="134" viewBox="0 0 346 134" fill="none" xmlns="http://www.w3.org/2000/svg">
<path d="M10.5416 49.7124L6.52409 53.7299L171.745 94.9095M10.5416 49.7124L1 46.6993L8.53285 33.1401L11.0438 31.8162M10.5416 49.7124L21.5898 44.0175M59.254 24.6029L36.1533 18.5766L28.1182 22.8133M59.254 24.6029L104.451 1L167.978 17.3128M59.254 24.6029L47.7036 30.5567M171.745 94.9095L206.145 104.451L204.207 108.469M171.745 94.9095L156.478 125.041M11.0438 31.8162L20.5854 34.6467M11.0438 31.8162L14.0569 30.2274M20.5854 34.6467L23.5985 33.0515M20.5854 34.6467L18.0745 36.1533L21.5898 37.1577M37.6599 25.6073L28.1182 22.8133M37.6599 25.6073L33.6423 27.7342M37.6599 25.6073L40.1708 26.5204L37.4594 28.0726M28.1182 22.8133L24.1007 24.9316M24.1007 24.9316L33.6423 27.7342M24.1007 24.9316L21.0876 26.5204M33.6423 27.7342L30.0712 29.6248M21.0876 26.5204L30.0712 29.6248M21.0876 26.5204L17.0701 28.6387M30.0712 29.6248L26.6117 31.4563M17.0701 28.6387L26.6117 31.4563M17.0701 28.6387L14.0569 30.2274M26.6117 31.4563L23.5985 33.0515M14.0569 30.2274L23.5985 33.0515M21.5898 37.1577L30.0712 39.6456M21.5898 37.1577L25.1051 35.1452M30.0712 39.6456L33.6423 37.8048M30.0712 39.6456L21.5898 44.0175M33.6423 37.8048L25.1051 35.1452M33.6423 37.8048L36.8463 36.1533M25.1051 35.1452L28.1182 33.4202M28.1182 33.4202L36.8463 36.1533M28.1182 33.4202L31.5488 31.4563M36.8463 36.1533L40.1708 34.4396M31.5488 31.4563L40.1708 34.4396M31.5488 31.4563L34.748 29.6248M40.1708 34.4396L43.6861 32.6276M34.748 29.6248L43.6861 32.6276M34.748 29.6248L37.4594 28.0726M43.6861 32.6276L47.7036 30.5567M37.4594 28.0726L47.7036 30.5567M21.5898 44.0175L85.3679 60.4241M231.505 33.6256L167.978 17.3128M231.505 33.6256L206.584 46.6993M231.505 33.6256L260.632 41.1049M85.3679 60.4241L149.146 76.8307L155.847 73.3153M85.3679 60.4241L167.978 17.3128M155.847 73.3153L175.26 78.3372L190.326 69.8L172.749 64.4487M155.847 73.3153L172.749 64.4487M172.749 64.4487L189.321 55.755M189.321 55.755L201.876 59.7562M189.321 55.755L192.585 54.0426M201.876 59.7562L205.642 57.8192M201.876 59.7562L200.369 60.7606L202.88 61.765L206.145 59.9123M219.453 50.7168L206.584 46.6993M219.453 50.7168L215.547 52.7255M219.453 50.7168L221.461 51.219L219.453 52.3591M206.584 46.6993L202.88 48.642M202.88 48.642L215.547 52.7255M202.88 48.642L199.365 50.4861M215.547 52.7255L212.617 54.2321M199.365 50.4861L212.617 54.2321M199.365 50.4861L195.85 52.3302M212.617 54.2321L209.409 55.8822M195.85 52.3302L209.409 55.8822M195.85 52.3302L192.585 54.0426M209.409 55.8822L205.642 57.8192M192.585 54.0426L205.642 57.8192M203.382 61.765L214.933 65.2803M214.933 65.2803L218.95 63.155M214.933 65.2803L200.369 73.3153L248.58 85.6571M260.632 41.1049L345 62.7693L332.445 88.0608M260.632 41.1049L232.509 55.9821M219.453 52.3591L232.509 55.9821M219.453 52.3591L216.152 54.2321M232.509 55.9821L229.037 57.8192M216.152 54.2321L229.037 57.8192M216.152 54.2321L213.069 55.9821M229.037 57.8192L225.981 59.4357M213.069 55.9821L225.981 59.4357M213.069 55.9821L209.409 58.0596M225.981 59.4357L221.963 61.561M209.409 58.0596L221.963 61.561M209.409 58.0596L206.145 59.9123M221.963 61.561L218.95 63.155M206.145 59.9123L218.95 63.155M332.445 88.0608L263.143 89.3854L248.58 85.6571M332.445 88.0608L325.805 101.438M192.585 132.574H310.349L325.805 101.438M192.585 132.574H152.661L156.478 125.041M192.585 132.574L195.85 125.803M156.478 125.041L195.85 125.803M195.85 125.803L204.207 108.469M204.207 108.469L231.505 94.435M248.58 85.6571L231.505 94.435M231.505 94.435L251.09 101.438H325.805" stroke="#6FBA2D"/>
<path d="M180.12 100.457C179.72 100.53 179.397 100.704 179.121 100.995C178.45 101.703 178.483 102.828 179.194 103.497C179.642 103.921 180.273 104.077 180.883 103.919C181.068 103.871 181.361 103.72 181.524 103.589C182.079 103.145 182.314 102.403 182.117 101.718C181.955 101.158 181.535 100.717 180.992 100.532C180.713 100.437 180.386 100.409 180.12 100.457Z" fill="black"/>
<path d="M177.853 104.365C177.562 104.385 177.307 104.457 177.033 104.593C176.318 104.95 175.85 105.648 175.777 106.464C175.763 106.607 175.76 107.541 175.763 109.486L175.768 112.303L175.805 112.414C175.875 112.618 176.013 112.776 176.195 112.86C176.265 112.894 176.308 112.899 176.466 112.899C176.638 112.899 176.662 112.896 176.755 112.85C176.948 112.754 177.089 112.569 177.142 112.342C177.159 112.273 177.164 111.655 177.164 109.534V106.814H177.586H178.006V114.06C178.006 120.369 178.01 121.322 178.032 121.426C178.127 121.882 178.537 122.216 179.004 122.218C179.138 122.218 179.344 122.165 179.475 122.095C179.628 122.014 179.807 121.83 179.885 121.673C180.004 121.428 179.998 121.76 179.998 117.081V112.856H180.415H180.832V117.089C180.833 121.753 180.825 121.431 180.942 121.666C181.055 121.894 181.249 122.065 181.509 122.163C181.608 122.201 181.649 122.208 181.827 122.208C182.006 122.208 182.047 122.201 182.146 122.163C182.406 122.065 182.6 121.894 182.711 121.67C182.832 121.425 182.823 122.075 182.823 114.06V106.814H183.24H183.657V109.517C183.657 111.386 183.662 112.252 183.676 112.322C183.72 112.562 183.856 112.751 184.062 112.851C184.183 112.913 184.2 112.916 184.345 112.914C184.46 112.914 184.522 112.904 184.59 112.879C184.832 112.782 184.993 112.562 185.036 112.268C185.058 112.106 185.058 106.772 185.036 106.508C184.944 105.47 184.226 104.632 183.24 104.411C183.131 104.387 183.004 104.375 182.798 104.37C182.278 104.358 178.02 104.353 177.853 104.365Z" fill="black"/>
<path d="M170.662 63.8535C170.132 63.8535 169.702 64.2829 169.702 64.813C169.702 65.343 170.132 65.7724 170.662 65.7724C171.192 65.7724 171.621 65.343 171.621 64.813C171.621 64.2829 171.192 63.8535 170.662 63.8535Z" fill="black"/>
<path d="M174.758 63.8535C174.228 63.8535 173.798 64.2829 173.798 64.813C173.798 65.343 174.228 65.7724 174.758 65.7724C175.287 65.7724 175.717 65.343 175.717 64.813C175.717 64.2829 175.287 63.8535 174.758 63.8535Z" fill="black"/>
<path d="M178.854 63.8535C178.324 63.8535 177.895 64.2829 177.895 64.813C177.895 65.343 178.324 65.7724 178.854 65.7724C179.384 65.7724 179.814 65.343 179.814 64.813C179.814 64.2829 179.384 63.8535 178.854 63.8535Z" fill="black"/>
<path d="M181.041 59.2852H168.474C167.509 59.2852 166.723 60.071 166.723 61.0365V74.4913C166.723 75.4572 167.509 76.243 168.474 76.243H181.041C182.007 76.243 182.793 75.4572 182.793 74.4913V61.0365C182.793 60.071 182.007 59.2852 181.041 59.2852ZM170.491 75.1377L170.662 71.2915L170.832 75.1377H170.491ZM174.587 75.1377L174.758 71.2915L174.929 75.1377H174.587ZM178.683 75.1377L178.854 71.2915L179.025 75.1377H178.683ZM181.687 74.4913C181.687 74.8478 181.398 75.1377 181.041 75.1377H179.908L179.939 70.6471C180.01 70.7506 180.126 70.8204 180.26 70.814C180.466 70.8041 180.625 70.6293 180.615 70.4231L180.774 67.229C180.774 65.9727 179.501 65.9109 178.854 65.9109C178.207 65.9109 176.934 65.9727 176.934 67.229L177.041 70.4231C177.032 70.6293 177.19 70.8041 177.396 70.814C177.576 70.8226 177.726 70.699 177.769 70.5311L177.801 75.1376H175.812L175.843 70.6471C175.913 70.7505 176.029 70.8203 176.164 70.814C176.37 70.8041 176.529 70.6292 176.519 70.4231L176.678 67.229C176.678 65.9727 175.405 65.9108 174.758 65.9108C174.11 65.9108 172.837 65.9727 172.837 67.229L172.944 70.4231C172.935 70.6292 173.094 70.8041 173.3 70.814C173.48 70.8226 173.63 70.6987 173.673 70.5301L173.704 75.1376H171.715L171.746 70.647C171.817 70.7505 171.933 70.8203 172.068 70.8139C172.274 70.804 172.432 70.6292 172.423 70.4231L172.582 67.229C172.582 65.9726 171.309 65.9108 170.661 65.9108C170.014 65.9108 168.742 65.9726 168.742 67.229L168.848 70.4231C168.838 70.6292 168.998 70.804 169.204 70.8139C169.384 70.8225 169.534 70.6986 169.576 70.5301L169.608 75.1376H168.474C168.118 75.1376 167.828 74.8477 167.828 74.4912V61.0365C167.828 60.6804 168.118 60.3905 168.474 60.3905H181.041C181.398 60.3905 181.687 60.6804 181.687 61.0365V74.4913H181.687Z" fill="black"/>
<path d="M176.013 56.4076L177.326 55.0945V58.0469C177.326 58.3161 177.545 58.5343 177.814 58.5343C178.083 58.5343 178.302 58.3161 178.302 58.0469V55.0945L179.615 56.4076C179.711 56.5029 179.835 56.5507 179.96 56.5507C180.084 56.5507 180.21 56.5029 180.305 56.4076C180.495 56.2171 180.495 55.9085 180.305 55.7183L178.159 53.5722L177.814 53.2275L177.469 53.5722L175.324 55.7183C175.133 55.9084 175.133 56.2171 175.324 56.4076C175.514 56.5981 175.823 56.5981 176.013 56.4076Z" fill="black"/>
<path d="M171.357 58.3902C171.357 58.3906 171.357 58.3906 171.357 58.3906L171.702 58.7352L172.047 58.3906C172.047 58.3906 172.047 58.3906 172.047 58.3902L174.192 56.2445C174.383 56.054 174.383 55.745 174.192 55.5548C174.002 55.3644 173.693 55.3644 173.503 55.5548L172.19 56.8682V53.9159C172.19 53.6464 171.971 53.4282 171.702 53.4282C171.433 53.4282 171.214 53.6464 171.214 53.9159V56.8682L169.901 55.5548C169.711 55.3644 169.402 55.3644 169.211 55.5548C169.021 55.745 169.021 56.054 169.211 56.2445L171.357 58.3902Z" fill="black"/>
</svg>
