<?xml version="1.0" encoding="UTF-8"?>
<svg id="_レイヤー_1" data-name="レイヤー 1" xmlns="http://www.w3.org/2000/svg" viewBox="0 0 434.48 418.57">
  <defs>
    <style>
      .cls-1, .cls-2, .cls-3, .cls-4, .cls-5, .cls-6, .cls-7, .cls-8 {
        stroke-miterlimit: 10;
      }

      .cls-1, .cls-2, .cls-4, .cls-8 {
        stroke: #6fba2d;
      }

      .cls-1, .cls-3, .cls-4, .cls-5, .cls-6, .cls-7, .cls-8 {
        fill: none;
      }

      .cls-2 {
        fill: #6fba2d;
      }

      .cls-2, .cls-8 {
        stroke-width: 2px;
      }

      .cls-3, .cls-6, .cls-7 {
        stroke: #028760;
      }

      .cls-3, .cls-6, .cls-7, .cls-9, .cls-10, .cls-11, .cls-12 {
        isolation: isolate;
      }

      .cls-3, .cls-6, .cls-7, .cls-10, .cls-11, .cls-12 {
        font-family: BIZ-UDGothic, 'BIZ UDGothic';
      }

      .cls-3, .cls-6, .cls-11, .cls-12 {
        font-size: 16.38px;
      }

      .cls-3, .cls-11 {
        letter-spacing: .2em;
      }

      .cls-4 {
        stroke-width: 3px;
      }

      .cls-5 {
        stroke: #3b7960;
      }

      .cls-6, .cls-12 {
        letter-spacing: .25em;
      }

      .cls-7, .cls-10 {
        font-size: 14.04px;
        letter-spacing: .3em;
      }

      .cls-10, .cls-11, .cls-12 {
        fill: #028760;
      }
    </style>
  </defs>
  <g>
    <g>
      <line class="cls-1" x1="143.25" y1="243.98" x2="161.76" y2="254.65"/>
      <line class="cls-1" x1="145.3" y1="240.67" x2="163.91" y2="251.06"/>
      <line class="cls-1" x1="147.03" y1="236.88" x2="165.74" y2="247.47"/>
      <line class="cls-1" x1="149.41" y1="233.72" x2="167.73" y2="244.3"/>
      <line class="cls-1" x1="150.83" y1="229.78" x2="169.89" y2="240.86"/>
      <line class="cls-1" x1="153.19" y1="226.94" x2="171.97" y2="237.67"/>
      <line class="cls-1" x1="154.77" y1="223.63" x2="174.02" y2="234.04"/>
      <line class="cls-1" x1="156.66" y1="220.31" x2="175.62" y2="230.67"/>
      <line class="cls-1" x1="180.15" y1="229" x2="200.61" y2="239.67"/>
      <line class="cls-1" x1="178.25" y1="232.34" x2="198.46" y2="243.33"/>
      <line class="cls-1" x1="176.07" y1="235.78" x2="196.55" y2="246.76"/>
      <line class="cls-1" x1="174.33" y1="239.09" x2="194.49" y2="250.11"/>
      <line class="cls-1" x1="172.12" y1="242.41" x2="192.25" y2="253.69"/>
      <line class="cls-1" x1="170.6" y1="245.8" x2="190.34" y2="256.63"/>
      <line class="cls-1" x1="168.76" y1="249.23" x2="188.51" y2="260.06"/>
      <line class="cls-1" x1="166.69" y1="252.66" x2="186.68" y2="263.57"/>
      <polygon class="cls-1" points="178.25 227.01 161.84 255.68 163.75 256.88 180.23 228.36 178.25 227.01"/>
      <polyline class="cls-1" points="379.15 253.9 354.65 296.41 381.99 312.81 406.41 271.37 393.57 264.43"/>
      <line class="cls-1" x1="403.67" y1="274.94" x2="391.57" y2="268.11"/>
      <line class="cls-1" x1="401.67" y1="278.1" x2="390.1" y2="271.47"/>
      <line class="cls-1" x1="399.67" y1="281.36" x2="388.21" y2="274.73"/>
      <line class="cls-1" x1="397.99" y1="284.52" x2="386.1" y2="277.68"/>
      <line class="cls-1" x1="395.88" y1="287.99" x2="384.1" y2="281.25"/>
      <line class="cls-1" x1="393.57" y1="291.56" x2="382.1" y2="284.73"/>
      <line class="cls-1" x1="391.68" y1="295.35" x2="380" y2="288.62"/>
      <line class="cls-1" x1="362.96" y1="283.15" x2="374.64" y2="290.2"/>
      <line class="cls-1" x1="364.85" y1="279.47" x2="376.85" y2="286.62"/>
      <line class="cls-1" x1="367.06" y1="276.1" x2="378.73" y2="282.94"/>
      <line class="cls-1" x1="368.96" y1="272.63" x2="380.95" y2="279.68"/>
      <line class="cls-1" x1="371.17" y1="269.36" x2="382.84" y2="276.31"/>
      <line class="cls-1" x1="372.95" y1="266.21" x2="384.31" y2="273.05"/>
      <line class="cls-1" x1="375.06" y1="262.64" x2="386.1" y2="269.36"/>
      <line class="cls-1" x1="376.74" y1="259.38" x2="388.31" y2="266.11"/>
      <polygon class="cls-1" points="391.15 261.9 374.53 291.15 377.06 292.72 393.89 263.37 391.15 261.9"/>
    </g>
    <polygon class="cls-4" points="1.5 1.5 1.5 219.18 336.51 416.51 432.43 252.51 196.76 116.85 196.76 1.67 1.5 1.5"/>
    <g>
      <line class="cls-8" x1="2.18" y1="116.8" x2="128.73" y2="116.8"/>
      <line class="cls-8" x1="126.68" y1="125.63" x2="126.68" y2="116.64"/>
      <polyline class="cls-8" points="126.84 140.63 126.84 161.62 153.67 176.13"/>
      <polyline class="cls-8" points="166.92 184.02 174.49 188.28 117.85 286.9"/>
      <polyline class="cls-8" points="372.69 251.4 237.3 173.92 159.19 311.21"/>
      <polyline class="cls-8" points="214.73 212.42 189.33 196.64 206.52 167.13 232.08 182.44"/>
      <line class="cls-8" x1="220.26" y1="204.22" x2="355.33" y2="282.17"/>
      <line class="cls-8" x1="387.2" y1="226.62" x2="293.47" y2="390.41"/>
      <line class="cls-8" x1="157.45" y1="116.8" x2="195.74" y2="116.8"/>
    </g>
    <circle class="cls-2" cx="190.58" cy="151.72" r="4.63"/>
  </g>
  <g>
    <g class="cls-9">
      <text class="cls-12" transform="translate(28.6 61.08)"><tspan x="0" y="0">屋上ビオトープ</tspan></text>
      <text class="cls-6" transform="translate(28.6 61.08)"><tspan x="0" y="0">屋上ビオトープ</tspan></text>
    </g>
    <path class="cls-5" d="M28.36,43.16h139.75c6.46,0,11.7,5.24,11.7,11.7h0c0,6.46-5.24,11.7-11.7,11.7H28.36c-6.46,0-11.7-5.24-11.7-11.7h0c0-6.46,5.24-11.7,11.7-11.7Z"/>
  </g>
  <g>
    <g class="cls-9">
      <text class="cls-11" transform="translate(200.84 303.93)"><tspan x="0" y="0">STAFF ONLY</tspan></text>
      <text class="cls-3" transform="translate(200.84 303.93)"><tspan x="0" y="0">STAFF ONLY</tspan></text>
    </g>
    <rect class="cls-5" x="192.03" y="282.11" width="129.03" height="31.21" rx="1" ry="1"/>
  </g>
  <g>
    <g class="cls-9">
      <text class="cls-10" transform="translate(90.76 251.92)"><tspan x="0" y="0">171</tspan></text>
      <text class="cls-7" transform="translate(90.76 251.92)"><tspan x="0" y="0">171</tspan></text>
    </g>
    <path class="cls-5" d="M95.16,234.1h20.69c6.89,0,12.48,5.59,12.48,12.48h0c0,6.89-5.59,12.48-12.48,12.48h-20.69c-6.89,0-12.48-5.59-12.48-12.48h0c0-6.89,5.59-12.48,12.48-12.48Z"/>
  </g>
  <g>
    <path d="M205.82,186.68c-.59,0-1.08.48-1.08,1.08s.48,1.08,1.08,1.08,1.08-.48,1.08-1.08-.48-1.08-1.08-1.08Z"/>
    <path d="M210.43,186.68c-.59,0-1.08.48-1.08,1.08s.48,1.08,1.08,1.08,1.08-.48,1.08-1.08-.48-1.08-1.08-1.08Z"/>
    <path d="M215.03,186.68c-.59,0-1.08.48-1.08,1.08s.48,1.08,1.08,1.08,1.08-.48,1.08-1.08-.48-1.08-1.08-1.08Z"/>
    <path d="M217.49,181.54h-14.12c-1.08,0-1.97.88-1.97,1.97v15.12c0,1.08.88,1.97,1.97,1.97h14.12c1.08,0,1.97-.88,1.97-1.97v-15.12c0-1.08-.88-1.97-1.97-1.97ZM205.64,199.36l.2-4.32.2,4.32h-.39ZM210.24,199.36l.2-4.32.2,4.32h-.39ZM214.84,199.36l.2-4.32.2,4.32h-.39ZM218.21,198.63c0,.4-.33.73-.73.73h-1.27l.04-5.05c.08.12.21.2.36.19.23,0,.41-.21.4-.44l.18-3.59c0-1.41-1.43-1.48-2.16-1.48s-2.16.07-2.16,1.48l.12,3.59c0,.23.16.43.4.44.2,0,.37-.13.42-.32l.04,5.17h-2.23l.03-5.05c.08.12.21.2.36.19.23,0,.41-.21.4-.44l.18-3.59c0-1.41-1.43-1.48-2.16-1.48s-2.16.07-2.16,1.48l.12,3.59c0,.23.16.43.4.44.2,0,.37-.13.42-.32l.04,5.18h-2.23l.03-5.05c.08.12.21.2.36.19.23,0,.41-.21.4-.44l.18-3.59c0-1.41-1.43-1.48-2.16-1.48s-2.16.07-2.16,1.48l.12,3.59c0,.23.17.43.4.44.2,0,.37-.13.42-.32l.04,5.18h-1.27c-.4,0-.73-.33-.73-.73v-15.12c0-.4.33-.73.73-.73h14.12c.4,0,.73.33.73.73v15.12h.02Z"/>
    <path d="M211.84,178.31l1.47-1.47v3.32c0,.3.24.55.55.55s.55-.24.55-.55v-3.32l1.47,1.47c.11.11.25.16.39.16s.28-.05.39-.16c.21-.21.21-.56,0-.77l-2.41-2.41-.39-.39-.39.39-2.41,2.41c-.21.21-.21.56,0,.77s.56.21.77,0h0Z"/>
    <path d="M206.6,180.54h0l.39.39.39-.39h0l2.41-2.41c.21-.21.21-.56,0-.77s-.56-.21-.77,0l-1.47,1.47v-3.32c0-.3-.24-.55-.55-.55s-.55.24-.55.55v3.32l-1.47-1.47c-.21-.21-.56-.21-.77,0s-.21.56,0,.77l2.41,2.41h-.02Z"/>
  </g>
  <g>
    <path d="M234.14,159.92c-.13.02-.72.05-1.3.07-.78.03-1.12.06-1.22.1-.2.07-.49.37-.65.65-.06.12-.21.31-.33.44l-.22.22h-.41c-.46,0-.59.04-.68.22-.12.23,0,.55.23.63.07.02.3.05.5.05h.37l.15.16c.21.22.38.3.69.3.28,0,.44-.06.63-.24.11-.1.12-.1.31-.06.56.11,1.55.51,2.5,1,.3.16.55.28.56.28,0,0,0-.16,0-.37,0-.27-.03-.38-.08-.44-.08-.09-.83-.58-1.51-.98l-.56-.33h-.47c-.31,0-.48-.03-.51-.09-.02-.05-.03-.1,0-.12.08-.08,2.04-.77,2.62-.93l.15-.04-.09-.17c-.13-.23-.27-.37-.35-.36-.05,0-.18.02-.3.03h-.02ZM231.37,161.5c.23.08.3.37.13.56-.07.09-.12.1-.26.1s-.18-.02-.26-.1c-.16-.18-.09-.48.13-.56q.12-.05.24,0h0Z"/>
    <path d="M228.61,161.47c-1.41.21-2.18,1.34-2.02,2.96.05.49.15.98.43,2.11.3,1.17.36,1.57.38,2.22.02.42,0,.64-.04.89-.03.19-.05.34-.05.34,0,0,.1.04.21.07s.26.09.34.13c.08.04.14.06.15.05.04-.04.13-.51.16-.87.08-.76-.02-1.51-.41-3.08-.32-1.28-.38-1.62-.41-2.11-.03-.72.09-1.13.41-1.48.09-.1.23-.22.32-.27.19-.11.6-.23.78-.23.13,0,.14,0,.11-.09-.04-.1-.03-.52,0-.62.03-.09.02-.09-.35-.04h0Z"/>
    <path d="M230.41,163.25v.43l-.3.15c-.58.29-1.07.9-1.21,1.51-.04.16-.05.42-.05.81v.59h4.83v-.59c0-.65-.04-.87-.22-1.22-.21-.43-.58-.78-1.06-1.03l-.3-.15v-.38c0-.21,0-.41-.02-.46-.02-.08-.03-.08-.09-.03-.11.09-.39.2-.6.22-.27.03-.57-.04-.78-.16-.09-.06-.17-.11-.18-.11s-.02.19-.02.42h0Z"/>
    <path d="M228.84,169.11v2.02h4.83v-4.04h-4.83v2.02ZM232.78,169.12v.97h-3.04v-1.93h3.04v.97h0Z"/>
    <path d="M226.78,170.38s-.34.5-.76,1.26l-.69,1.22.1.11c.12.13.78.45,1.22.6.19.06.44.12.58.13.23.02.24,0,.27-.07.02-.05.19-.65.37-1.33.23-.86.32-1.27.3-1.34-.09-.34-1.05-.74-1.4-.58h0ZM226.34,172.68c.37.08.73.28.87.48.09.12.09.19,0,.19-.22,0-1.45-.51-1.43-.59,0-.04.22-.12.3-.12.02,0,.14.02.27.05h0Z"/>
    <path d="M228.84,173.28c0,2.04,0,2.01.27,2.31.09.1.25.22.37.28l.2.1h3.15l.2-.1c.12-.05.27-.17.37-.28.27-.3.27-.27.27-2.31v-1.8h-4.83v1.8h0Z"/>
  </g>
  <g>
    <path d="M400.99,257.68v9.64h19.44v-19.27h-19.44v9.64ZM416.59,255.24v5.91l.3.05c.35.05.79.26.98.44.3.3.85,1.3.86,1.56,0,.12,0,.13-.15.16-.09.02-.57.03-1.07.03h-.91v2.54l.44.44c.44.46.59.65.55.69-.05.05-2.39.09-4.94.09h-2.57l-.69-.66-.69-.66h-1.76l.62.6c.56.55.61.6.55.65-.05.03-.44.05-1.09.07l-1.01.02-.58-.58-.58-.58v-8.14h2.5l.52-.61c.72-.84.9-1.03.96-1.03.05,0,.51.96.94,1.93l.16.36-1.4,2.82c-1.69,3.42-1.89,3.84-1.8,3.89.08.05.6.05.98,0,.34-.05.67-.18.8-.33.12-.13.62-1.05,1.68-3.13,1.08-2.12,1.33-2.58,1.39-2.57.06.02.09.29.13,1.31.05,1.01.12,1.68.23,2.03.11.37-.08.35,3.12.35,2.85,0,3.01,0,3.07-.16.03-.08-.2-.51-.39-.73-.09-.09-.21-.2-.28-.23-.23-.12-.73-.17-2.07-.22-.73-.02-1.51-.05-1.7-.06l-.37-.02-.11-1.66-.12-1.67-.15-.34c-.09-.19-.36-.77-.62-1.31-.26-.53-.46-1-.46-1.03,0-.09.2-.1.9-.09l.63.02.38.67c.63,1.1.94,1.47,1.23,1.47.13,0,.42-.19.5-.33.12-.24-.03-.69-.56-1.62-.58-1.01-.8-1.24-1.26-1.39-.27-.09-.33-.09-2.3-.09-1.58,0-2.07.02-2.24.05-.2.05-.26.09-.64.48-.23.23-.71.77-1.06,1.19l-.64.76h-1.98v-7.28h11.76v5.91h.02Z"/>
    <path d="M408.67,251.2c-.44.12-.8.65-.82,1.17,0,.39.37,1.02.75,1.22.09.05.22.07.49.07.31,0,.39-.02.59-.11.49-.24.72-.62.73-1.22,0-.3,0-.36-.1-.52-.13-.23-.47-.55-.66-.62-.18-.08-.7-.07-.98.02h0Z"/>
  </g>
</svg>