<svg width="346" height="114" viewBox="0 0 346 114" fill="none" xmlns="http://www.w3.org/2000/svg">
<path d="M209.714 14.3506L218.169 1H69.533L61.0776 14.3506M209.714 14.3506H169.217M209.714 14.3506H243.091H277.357L262.671 38.3816M262.671 38.3816H279.582M262.671 38.3816L256.669 48.1721M298.718 61.9677H303.613M298.718 61.9677L303.504 53.5123M298.718 61.9677H293.823M272.462 113.145H313.849L345 61.9677H303.613M272.462 113.145H1L9.43065 99.3493M272.462 113.145L303.613 61.9677M9.43065 99.3493H117.36M9.43065 99.3493L31.6037 62.8577M117.36 99.3493H225.29L234.567 84.2186M117.36 99.3493L149.941 45.947M169.217 14.3506H114.925H61.0776M169.217 14.3506L149.941 45.947M61.0776 14.3506L41.879 45.947M41.879 45.947L31.6037 62.8577M41.879 45.947H70.868M149.941 45.947H70.868M31.6037 62.8577H60.1876L70.868 45.947M234.567 84.2186H268.457L281.362 61.9677M234.567 84.2186L248.431 61.9677M281.362 61.9677H280.472M281.362 61.9677H284.032M248.431 61.9677H266.232M248.431 61.9677L252.881 54.3493M266.232 61.9677L270.494 54.3493M266.232 61.9677L273.129 49.9521M266.232 61.9677H269.347M271.127 53.5123L270.494 54.3493M271.127 53.5123L271.377 53.0673M271.127 53.5123H274.131M275.132 46.392L279.582 38.3816M275.132 46.392H278.692M275.132 46.392L274.131 48.1721M279.582 38.3816H283.142M289.373 46.392L293.823 38.3816M289.373 46.392H285.812M289.373 46.392H307.534M289.373 46.392L288.371 48.1721M293.823 38.3816H312.069L307.534 46.392M293.823 38.3816H290.708M285.812 46.392L290.708 38.3816M285.812 46.392H282.252M290.708 38.3816H286.702M282.252 46.392L286.702 38.3816M282.252 46.392H278.692M286.702 38.3816H283.142M278.692 46.392L283.142 38.3816M252.881 54.3493H270.494M252.881 54.3493L253.667 53.0673M253.667 53.0673H271.377M253.667 53.0673L254.486 51.7322M271.377 53.0673L272.128 51.7322M254.486 51.7322H272.128M254.486 51.7322L255.577 49.9521M272.128 51.7322L273.129 49.9521M255.577 49.9521H273.129M255.577 49.9521L256.669 48.1721M273.129 49.9521L274.131 48.1721M256.669 48.1721H274.131M303.504 53.5123L304.512 51.7322M303.504 53.5123H297.383M285.367 53.5123L286.369 51.7322M285.367 53.5123H284.477M285.367 53.5123H288.038M307.534 46.392L306.527 48.1721M288.371 48.1721H306.527M288.371 48.1721L287.37 49.9521M306.527 48.1721L305.519 49.9521M287.37 49.9521H305.519M287.37 49.9521L286.369 51.7322M305.519 49.9521L304.512 51.7322M286.369 51.7322H304.512M269.347 61.9677L274.131 53.5123M269.347 61.9677H273.129M274.131 53.5123H277.357M273.129 61.9677L277.357 53.5123M273.129 61.9677H277.246M277.357 53.5123H281.362M277.246 61.9677L281.362 53.5123M277.246 61.9677H280.472M281.362 53.5123H284.477M280.472 61.9677L284.477 53.5123M284.032 61.9677L288.038 53.5123M284.032 61.9677H287.37M288.038 53.5123H291.153M287.37 61.9677L291.153 53.5123M287.37 61.9677H290.708M291.153 53.5123H294.268M290.708 61.9677L294.268 53.5123M290.708 61.9677H293.823M294.268 53.5123H297.383M293.823 61.9677L297.383 53.5123" stroke="#F3858E"/>
<path d="M254.147 66.4888C253.677 66.4888 253.297 66.8693 253.297 67.339C253.297 67.8087 253.677 68.1892 254.147 68.1892C254.617 68.1892 254.998 67.8087 254.998 67.339C254.998 66.8693 254.617 66.4888 254.147 66.4888Z" fill="black"/>
<path d="M257.776 66.4888C257.307 66.4888 256.926 66.8693 256.926 67.339C256.926 67.8087 257.307 68.1892 257.776 68.1892C258.246 68.1892 258.627 67.8087 258.627 67.339C258.627 66.8693 258.246 66.4888 257.776 66.4888Z" fill="black"/>
<path d="M261.407 66.4888C260.937 66.4888 260.557 66.8693 260.557 67.339C260.557 67.8087 260.937 68.1892 261.407 68.1892C261.877 68.1892 262.258 67.8087 262.258 67.339C262.258 66.8693 261.877 66.4888 261.407 66.4888Z" fill="black"/>
<path d="M263.345 62.4404H252.209C251.353 62.4404 250.656 63.1368 250.656 63.9924V75.9155C250.656 76.7714 251.353 77.4678 252.209 77.4678H263.345C264.201 77.4678 264.897 76.7714 264.897 75.9155V63.9924C264.897 63.1368 264.201 62.4404 263.345 62.4404ZM253.995 76.4883L254.147 73.08L254.298 76.4883H253.995ZM257.625 76.4883L257.777 73.08L257.928 76.4883H257.625ZM261.255 76.4883L261.407 73.08L261.558 76.4883H261.255ZM263.917 75.9155C263.917 76.2314 263.661 76.4883 263.345 76.4883H262.34L262.368 72.5089C262.431 72.6006 262.533 72.6624 262.652 72.6568C262.835 72.6481 262.976 72.4931 262.967 72.3105L263.108 69.48C263.108 68.3667 261.98 68.3119 261.407 68.3119C260.833 68.3119 259.705 68.3667 259.705 69.48L259.8 72.3105C259.792 72.4931 259.932 72.6481 260.115 72.6568C260.274 72.6644 260.407 72.5549 260.445 72.4061L260.473 76.4882H258.711L258.738 72.5089C258.801 72.6006 258.903 72.6624 259.023 72.6568C259.205 72.648 259.346 72.4931 259.338 72.3104L259.478 69.4799C259.478 68.3666 258.35 68.3118 257.777 68.3118C257.203 68.3118 256.075 68.3666 256.075 69.4799L256.17 72.3104C256.161 72.4931 256.302 72.648 256.485 72.6568C256.644 72.6644 256.777 72.5546 256.815 72.4053L256.843 76.4882H255.081L255.108 72.5088C255.17 72.6005 255.273 72.6624 255.393 72.6568C255.575 72.648 255.716 72.493 255.707 72.3104L255.848 69.4799C255.848 68.3666 254.721 68.3118 254.147 68.3118C253.573 68.3118 252.445 68.3666 252.445 69.4799L252.54 72.3104C252.531 72.493 252.672 72.648 252.855 72.6568C253.015 72.6644 253.147 72.5546 253.185 72.4052L253.213 76.4882H252.209C251.893 76.4882 251.636 76.2313 251.636 75.9154V63.9924C251.636 63.6768 251.893 63.4199 252.209 63.4199H263.345C263.661 63.4199 263.917 63.6768 263.917 63.9924V75.9155H263.917Z" fill="black"/>
<path d="M258.889 59.8903L260.053 58.7267V61.343C260.053 61.5815 260.246 61.7749 260.485 61.7749C260.724 61.7749 260.917 61.5815 260.917 61.343V58.7267L262.081 59.8903C262.166 59.9747 262.276 60.0171 262.386 60.0171C262.497 60.0171 262.608 59.9747 262.692 59.8903C262.861 59.7215 262.861 59.448 262.692 59.2795L260.791 57.3777L260.485 57.0723L260.179 57.3777L258.278 59.2795C258.109 59.448 258.109 59.7215 258.278 59.8903C258.447 60.0591 258.721 60.0591 258.889 59.8903Z" fill="black"/>
<path d="M254.763 61.6476C254.763 61.6479 254.763 61.6479 254.763 61.6479L255.069 61.9533L255.375 61.6479C255.375 61.6479 255.375 61.6479 255.375 61.6476L257.276 59.7461C257.445 59.5773 257.445 59.3036 257.276 59.135C257.108 58.9662 256.834 58.9662 256.665 59.135L255.501 60.2989V57.6827C255.501 57.4439 255.308 57.2505 255.069 57.2505C254.831 57.2505 254.637 57.4439 254.637 57.6827V60.2989L253.473 59.135C253.305 58.9662 253.031 58.9662 252.862 59.135C252.693 59.3035 252.693 59.5773 252.862 59.7461L254.763 61.6476Z" fill="black"/>
<path d="M307.008 77.5654C306.457 77.6648 306.013 78.0167 305.799 78.5216C305.704 78.742 305.669 78.9409 305.678 79.1949C305.683 79.3371 305.695 79.4397 305.716 79.5253C305.84 79.9935 306.137 80.3638 306.558 80.5719C307.354 80.9636 308.305 80.6407 308.695 79.8451C308.792 79.6477 308.835 79.4993 308.855 79.2912C308.908 78.7083 308.636 78.1345 308.152 77.8148C307.808 77.5883 307.389 77.4965 307.008 77.5654Z" fill="#EF4444"/>
<path d="M305.326 81.0997C304.746 81.1899 304.261 81.5128 303.914 82.0376C303.75 82.2839 303.793 82.1585 303.164 84.2286C302.916 85.0441 302.647 85.93 302.454 86.5665C302.373 86.8312 302.3 87.0913 302.29 87.1479C302.228 87.5029 302.414 87.8333 302.731 87.9313C302.977 88.0078 303.227 87.9389 303.398 87.7492C303.527 87.6054 303.508 87.6574 303.975 86.0876C304.077 85.7418 304.226 85.2461 304.304 84.986C304.38 84.7243 304.526 84.2378 304.625 83.9027L304.807 83.2953H305.141C305.418 83.2953 305.474 83.2983 305.474 83.3167C305.474 83.3289 305.425 83.5125 305.366 83.7267C305.259 84.1108 304.939 85.2629 304.105 88.2602C303.47 90.5446 303.455 90.5981 303.446 90.6272C303.438 90.6532 303.491 90.6547 304.425 90.6547H305.413V93.5648C305.413 96.7351 305.409 96.5698 305.499 96.7473C305.578 96.9049 305.738 97.035 305.921 97.0916C306.042 97.1313 306.296 97.1268 306.414 97.0824C306.639 97.0013 306.786 96.8498 306.862 96.6218C306.888 96.5423 306.89 96.4015 306.894 93.5801L306.897 90.6241H307.272H307.647V93.5847C307.647 96.5423 307.647 96.5469 307.679 96.6417C307.776 96.9294 308.005 97.0992 308.328 97.1222C308.715 97.1482 309.041 96.8988 309.099 96.53C309.11 96.4643 309.116 95.4605 309.116 93.5419V90.6547H310.095C310.733 90.6547 311.074 90.6501 311.074 90.6394C311.074 90.6318 310.964 90.2294 310.828 89.7489C310.693 89.267 310.522 88.655 310.447 88.3903C310.372 88.1256 310.201 87.512 310.064 87.0285C309.644 85.5291 309.546 85.1818 309.437 84.7947C309.379 84.5881 309.263 84.1735 309.179 83.8721C309.093 83.5707 309.024 83.3182 309.024 83.3106C309.024 83.3014 309.162 83.2953 309.376 83.2953H309.726L309.758 83.4054C309.777 83.4666 309.804 83.5584 309.82 83.6089C309.835 83.6594 309.904 83.8904 309.973 84.1215C310.042 84.3525 310.156 84.7381 310.228 84.9783C310.299 85.2185 310.406 85.575 310.464 85.7693C310.687 86.519 310.788 86.8618 310.869 87.1356C310.915 87.2917 310.969 87.457 310.986 87.5029C311.113 87.8318 311.402 88.0169 311.703 87.9619C312.05 87.8991 312.275 87.5885 312.248 87.2121C312.239 87.0974 312.226 87.053 311.884 85.9269C311.578 84.9217 311.087 83.3044 310.957 82.8745C310.891 82.6542 310.813 82.4323 310.774 82.3512C310.684 82.1615 310.516 81.9427 310.309 81.7453C309.933 81.3843 309.501 81.167 309.032 81.0997C308.819 81.0691 305.52 81.0691 305.326 81.0997Z" fill="#EF4444"/>
<rect x="25.5" y="79.5" width="19" height="13" fill="white" stroke="#34B9F0"/>
<path d="M32.4448 89H28.4528V88.16L29.8848 86.712C30.1728 86.4133 30.4048 86.1653 30.5808 85.968C30.7568 85.7653 30.8848 85.584 30.9648 85.424C31.0448 85.2587 31.0848 85.0827 31.0848 84.896C31.0848 84.6667 31.0208 84.496 30.8928 84.384C30.7701 84.272 30.6021 84.216 30.3888 84.216C30.1701 84.216 29.9568 84.2667 29.7488 84.368C29.5408 84.4693 29.3221 84.6133 29.0928 84.8L28.4368 84.024C28.6021 83.88 28.7755 83.7467 28.9568 83.624C29.1435 83.5013 29.3568 83.4027 29.5968 83.328C29.8421 83.248 30.1355 83.208 30.4768 83.208C30.8501 83.208 31.1701 83.2773 31.4368 83.416C31.7088 83.5493 31.9168 83.7333 32.0608 83.968C32.2101 84.1973 32.2848 84.4587 32.2848 84.752C32.2848 84.992 32.2475 85.2133 32.1728 85.416C32.1035 85.6187 31.9995 85.816 31.8608 86.008C31.7275 86.1947 31.5621 86.3893 31.3648 86.592C31.1675 86.7893 30.9435 87.0053 30.6928 87.24L29.9568 87.928V87.984H32.4448V89ZM35.1109 85.352C35.4576 85.352 35.7669 85.4187 36.0389 85.552C36.3109 85.6853 36.5243 85.88 36.6789 86.136C36.8389 86.392 36.9189 86.7093 36.9189 87.088C36.9189 87.4987 36.8336 87.8533 36.6629 88.152C36.4923 88.4507 36.2363 88.68 35.8949 88.84C35.5589 89 35.1403 89.08 34.6389 89.08C34.3403 89.08 34.0576 89.0533 33.7909 89C33.5296 88.9467 33.3003 88.8693 33.1029 88.768V87.728C33.3003 87.8293 33.5376 87.9173 33.8149 87.992C34.0923 88.0613 34.3536 88.096 34.5989 88.096C34.8389 88.096 35.0389 88.064 35.1989 88C35.3643 87.936 35.4896 87.8373 35.5749 87.704C35.6603 87.5707 35.7029 87.4 35.7029 87.192C35.7029 86.9093 35.6096 86.696 35.4229 86.552C35.2363 86.4027 34.9483 86.328 34.5589 86.328C34.4096 86.328 34.2549 86.344 34.0949 86.376C33.9349 86.4027 33.8016 86.4293 33.6949 86.456L33.2149 86.2L33.4309 83.288H36.5269V84.312H34.4869L34.3829 85.432C34.4736 85.416 34.5696 85.4 34.6709 85.384C34.7776 85.3627 34.9243 85.352 35.1109 85.352ZM40.5931 89H39.3851V85.696C39.3851 85.6053 39.3851 85.4933 39.3851 85.36C39.3904 85.2267 39.3957 85.088 39.4011 84.944C39.4064 84.8 39.4117 84.672 39.4171 84.56C39.3904 84.592 39.3317 84.6507 39.2411 84.736C39.1557 84.816 39.0757 84.888 39.0011 84.952L38.3451 85.48L37.7611 84.752L39.6011 83.288H40.5931V89Z" fill="#F3858E"/>
<rect x="141.5" y="78.5" width="19" height="13" fill="white" stroke="#34B9F0"/>
<path d="M148.445 88H144.453V87.16L145.885 85.712C146.173 85.4133 146.405 85.1653 146.581 84.968C146.757 84.7653 146.885 84.584 146.965 84.424C147.045 84.2587 147.085 84.0827 147.085 83.896C147.085 83.6667 147.021 83.496 146.893 83.384C146.77 83.272 146.602 83.216 146.389 83.216C146.17 83.216 145.957 83.2667 145.749 83.368C145.541 83.4693 145.322 83.6133 145.093 83.8L144.437 83.024C144.602 82.88 144.775 82.7467 144.957 82.624C145.143 82.5013 145.357 82.4027 145.597 82.328C145.842 82.248 146.135 82.208 146.477 82.208C146.85 82.208 147.17 82.2773 147.437 82.416C147.709 82.5493 147.917 82.7333 148.061 82.968C148.21 83.1973 148.285 83.4587 148.285 83.752C148.285 83.992 148.247 84.2133 148.173 84.416C148.103 84.6187 147.999 84.816 147.861 85.008C147.727 85.1947 147.562 85.3893 147.365 85.592C147.167 85.7893 146.943 86.0053 146.693 86.24L145.957 86.928V86.984H148.445V88ZM151.111 84.352C151.458 84.352 151.767 84.4187 152.039 84.552C152.311 84.6853 152.524 84.88 152.679 85.136C152.839 85.392 152.919 85.7093 152.919 86.088C152.919 86.4987 152.834 86.8533 152.663 87.152C152.492 87.4507 152.236 87.68 151.895 87.84C151.559 88 151.14 88.08 150.639 88.08C150.34 88.08 150.058 88.0533 149.791 88C149.53 87.9467 149.3 87.8693 149.103 87.768V86.728C149.3 86.8293 149.538 86.9173 149.815 86.992C150.092 87.0613 150.354 87.096 150.599 87.096C150.839 87.096 151.039 87.064 151.199 87C151.364 86.936 151.49 86.8373 151.575 86.704C151.66 86.5707 151.703 86.4 151.703 86.192C151.703 85.9093 151.61 85.696 151.423 85.552C151.236 85.4027 150.948 85.328 150.559 85.328C150.41 85.328 150.255 85.344 150.095 85.376C149.935 85.4027 149.802 85.4293 149.695 85.456L149.215 85.2L149.431 82.288H152.527V83.312H150.487L150.383 84.432C150.474 84.416 150.57 84.4 150.671 84.384C150.778 84.3627 150.924 84.352 151.111 84.352ZM157.601 88H153.609V87.16L155.041 85.712C155.329 85.4133 155.561 85.1653 155.737 84.968C155.913 84.7653 156.041 84.584 156.121 84.424C156.201 84.2587 156.241 84.0827 156.241 83.896C156.241 83.6667 156.177 83.496 156.049 83.384C155.926 83.272 155.758 83.216 155.545 83.216C155.326 83.216 155.113 83.2667 154.905 83.368C154.697 83.4693 154.478 83.6133 154.249 83.8L153.593 83.024C153.758 82.88 153.932 82.7467 154.113 82.624C154.3 82.5013 154.513 82.4027 154.753 82.328C154.998 82.248 155.292 82.208 155.633 82.208C156.006 82.208 156.326 82.2773 156.593 82.416C156.865 82.5493 157.073 82.7333 157.217 82.968C157.366 83.1973 157.441 83.4587 157.441 83.752C157.441 83.992 157.404 84.2133 157.329 84.416C157.26 84.6187 157.156 84.816 157.017 85.008C156.884 85.1947 156.718 85.3893 156.521 85.592C156.324 85.7893 156.1 86.0053 155.849 86.24L155.113 86.928V86.984H157.601V88Z" fill="#F3858E"/>
<rect x="86.5" y="21.5" width="29" height="13" fill="white" stroke="#34B9F0"/>
<path d="M95.256 24.192L95.952 24.984C94.304 25.408 92 25.608 90.04 25.672C90.016 25.432 89.896 25.04 89.808 24.832C91.736 24.752 93.944 24.544 95.256 24.192ZM89.88 26.464H96.208V27.384H89.88V26.464ZM89.328 28.328H96.68V29.264H89.328V28.328ZM92.512 25.32H93.512V30.576C93.512 31.144 93.368 31.4 92.984 31.544C92.6 31.696 92.016 31.72 91.2 31.712C91.136 31.44 90.952 31.008 90.808 30.76C91.4 30.784 92.072 30.776 92.256 30.776C92.44 30.776 92.512 30.72 92.512 30.56V25.32ZM99.52 27.568L100.288 27.68C100.208 28.792 100.048 29.92 99.72 30.648C99.584 30.528 99.264 30.304 99.08 30.2C99.368 29.56 99.472 28.552 99.52 27.568ZM99.448 25.912H102.44V26.792H99.448V25.912ZM100.512 24.328H101.408V31.592H100.512V24.328ZM101.552 27.72L102.256 27.584C102.424 28.352 102.568 29.312 102.608 29.968L101.872 30.112C101.84 29.464 101.704 28.48 101.552 27.72ZM102.72 24.64H104.632V25.48H102.72V24.64ZM102.52 26.904H104.752V27.76H102.52V26.904ZM101.464 24.688L102.088 24.424C102.304 24.76 102.544 25.216 102.64 25.512L101.976 25.808C101.888 25.512 101.664 25.04 101.464 24.688ZM103.216 27.144H104.128V30.688C104.128 31.136 104.064 31.4 103.776 31.552C103.496 31.696 103.112 31.712 102.576 31.712C102.552 31.448 102.44 31.056 102.32 30.784C102.64 30.8 102.976 30.8 103.08 30.8C103.184 30.792 103.216 30.768 103.216 30.672V27.144ZM98.528 24.208L99.392 24.528C98.968 25.224 98.296 25.984 97.672 26.464C97.56 26.264 97.328 25.92 97.176 25.744C97.696 25.36 98.256 24.72 98.528 24.208ZM98.096 27.64L98.848 26.888L98.976 26.928V31.72H98.096V27.64ZM98.712 25.896L99.568 26.192C99.104 27.216 98.344 28.296 97.608 28.976C97.512 28.776 97.256 28.304 97.088 28.096C97.72 27.56 98.344 26.736 98.712 25.896ZM108.48 28.48H109.472V30.984H108.48V28.48ZM106.376 26.168H111.648V26.992H106.376V26.168ZM105.456 30.656H112.576V31.504H105.456V30.656ZM106.168 29.216H111.944V30.04H106.168V29.216ZM107.656 26.64L108.68 26.888C108.368 27.424 108.016 27.976 107.744 28.352L106.952 28.112C107.2 27.704 107.496 27.088 107.656 26.64ZM106.024 27.752C107.368 27.744 109.44 27.696 111.352 27.656L111.304 28.456C109.424 28.528 107.416 28.576 106.064 28.608L106.024 27.752ZM109.784 27.328L110.48 26.864C111.088 27.296 111.872 27.936 112.24 28.4L111.488 28.912C111.152 28.464 110.4 27.792 109.784 27.328ZM108.48 24.216H109.472V25.328H108.48V24.216ZM105.48 24.728H112.536V26.4H111.552V25.6H106.416V26.4H105.48V24.728Z" fill="#F3858E"/>
<path d="M320.33 42.5336C320.33 43.2824 320.94 43.889 321.685 43.889C322.434 43.889 323.041 43.2824 323.041 42.5336C323.041 41.7882 322.434 41.1782 321.685 41.1782C320.94 41.1782 320.33 41.7882 320.33 42.5336Z" fill="black"/>
<path d="M321 56.4602L320.502 56.4575L320.503 56.4602H320.496L321.119 57.9952H322.99L322.302 56.4602H321Z" fill="black"/>
<path d="M316.059 38H316.007H316V57.9272V57.9881V57.995H318.357L320.082 58L320.076 57.995H320.086L318.318 56.3381V48.1584H320.503L321.682 47.0949L322.025 46.788L323.031 48.9547L321.15 53.5726L320.439 55.3112H320.442L320.439 55.318H322.245L323.687 52.1098L324.829 49.5833L325.792 53.6409H330.611C330.889 53.6409 331.055 53.336 330.902 53.1055L330.306 52.2042C330.292 52.1873 330.279 52.1738 330.265 52.1567C330.201 52.089 330.113 52.0483 330.018 52.0483H327.212L326.504 48.3312L325.546 46.2613L325.152 45.4037H326.633L327.605 47.2402C327.666 47.3554 327.785 47.4164 327.9 47.4164C327.961 47.4164 328.022 47.3994 328.076 47.3656L328.75 46.9488C328.9 46.8539 328.95 46.6575 328.862 46.5049L327.429 43.9636H323.81C322.99 43.9636 322.211 44.3058 321.659 44.909L320.117 46.5862H318.318V39.8772H330.627H330.658V51.6484C330.824 51.7027 330.97 51.8112 331.068 51.9603L331.665 52.8582C331.824 53.102 331.841 53.4104 331.702 53.6679C331.563 53.9255 331.299 54.0848 331.007 54.0848H330.658V56.3381L332.43 57.995H332.979V38H316.059Z" fill="black"/>
<path d="M33.7501 65C33.4404 65 32.1572 65 32.1572 65V65.9293C32.1572 65.9293 33.0423 65.9293 33.9715 65.9293C35.6973 65.9293 36.1396 66.7698 36.1396 66.7698C36.1396 66.7698 36.1396 66.7698 36.4493 66.5486C35.9184 65.177 34.0601 65 33.7501 65Z" fill="black"/>
<path d="M30.1568 72.167L30 72.958H31.0798L30.9229 72.167H30.1568Z" fill="black"/>
<path d="M33.5586 67.2514V66.4747C33.5586 66.3169 33.4306 66.189 33.2724 66.189H32.7388C32.5804 66.189 32.4527 66.3169 32.4527 66.4747V67.2666C31.7824 67.5033 31.3018 68.1425 31.3018 68.8937V74.3363C31.3018 74.7027 31.5995 74.9998 31.9657 74.9998H34.0898C34.4564 74.9998 34.7533 74.7027 34.7533 74.3363V68.8937C34.7533 68.1258 34.252 67.4754 33.5586 67.2514ZM33.9457 72.9423H32.1094V70.6978H33.9457V72.9423Z" fill="black"/>
<path d="M30.745 68.9246C30.7448 68.169 31.1321 67.4763 31.7461 67.0743L31.7481 67.0729L31.7483 67.0731C31.7514 67.0701 31.875 66.9924 32.0708 66.9258V66.5C31.7469 66.5873 31.5422 66.7204 31.5225 66.7329C31.5223 66.7331 31.5223 66.7331 31.5223 66.7331C31.5219 66.7333 31.5199 66.7345 31.5197 66.7347L31.5199 66.7349C30.794 67.2115 30.3371 68.0299 30.3369 68.9246V72.027H30.745V68.9246ZM31.7513 67.0709L31.7489 67.0727L31.7487 67.0725L31.7513 67.0709Z" fill="black"/>
<path d="M299.75 61C299.44 61 298.157 61 298.157 61V61.9293C298.157 61.9293 299.042 61.9293 299.971 61.9293C301.697 61.9293 302.14 62.7698 302.14 62.7698C302.14 62.7698 302.14 62.7698 302.449 62.5486C301.918 61.177 300.06 61 299.75 61Z" fill="black"/>
<path d="M296.157 68.167L296 68.958H297.08L296.923 68.167H296.157Z" fill="black"/>
<path d="M299.559 63.2514V62.4747C299.559 62.3169 299.431 62.189 299.272 62.189H298.739C298.58 62.189 298.453 62.3169 298.453 62.4747V63.2666C297.782 63.5033 297.302 64.1425 297.302 64.8937V70.3363C297.302 70.7027 297.599 70.9998 297.966 70.9998H300.09C300.456 70.9998 300.753 70.7027 300.753 70.3363V64.8937C300.753 64.1258 300.252 63.4754 299.559 63.2514ZM299.946 68.9423H298.109V66.6978H299.946V68.9423Z" fill="black"/>
<path d="M296.745 64.9246C296.745 64.169 297.132 63.4763 297.746 63.0743L297.748 63.0729L297.748 63.0731C297.751 63.0701 297.875 62.9924 298.071 62.9258V62.5C297.747 62.5873 297.542 62.7204 297.522 62.7329C297.522 62.7331 297.522 62.7331 297.522 62.7331C297.522 62.7333 297.52 62.7345 297.52 62.7347L297.52 62.7349C296.794 63.2115 296.337 64.0299 296.337 64.9246V68.027H296.745V64.9246ZM297.751 63.0709L297.749 63.0727L297.749 63.0725L297.751 63.0709Z" fill="black"/>
</svg>
