<svg width="302" height="175" viewBox="0 0 302 175" fill="none" xmlns="http://www.w3.org/2000/svg">
<path d="M51.8663 19.1931L82.6832 1H134.663L127.98 19.1931M51.8663 19.1931L33.8131 74.1436M51.8663 19.1931H96.0495M127.98 19.1931H134.663L124.267 48.5247H241.594L215.975 125.752M127.98 19.1931H96.0495M215.975 125.752H301L284.663 174.391L199.639 174.28M215.975 125.752L199.639 174.28M33.8131 74.1436L1 174.02L93.4505 174.141M33.8131 74.1436H77.8564M155.827 174.222L188.5 74.1436H126.495M155.827 174.222L93.4505 174.141M155.827 174.222L199.639 174.28M93.4505 174.141L126.495 74.1436M126.495 74.1436H77.8564M77.8564 74.1436L96.0495 19.1931M187.015 109.326L185.53 113.871H202.238L203.723 109.326M187.015 109.326H203.723M187.015 109.326L188.5 104.78M203.723 109.326L205.208 104.78M188.5 104.78H205.208M188.5 104.78L190.018 100.134M205.208 104.78L206.726 100.134M190.018 100.134H206.726M190.018 100.134L191.595 95.3069M206.726 100.134L208.303 95.3069M191.595 95.3069H208.303M191.595 95.3069L193.172 90.4802M208.303 95.3069L209.88 90.4802M193.172 90.4802H209.88M193.172 90.4802L194.749 85.6535M209.88 90.4802L211.457 85.6535M194.749 85.6535H211.457M194.749 85.6535L196.266 81.0124M211.457 85.6535L214.49 76.3713H197.782L196.266 81.0124M196.266 81.0124H212.634" stroke="#965045"/>
</svg>
