<?xml version="1.0" encoding="UTF-8"?>
<svg id="_レイヤー_1" xmlns="http://www.w3.org/2000/svg" version="1.1" viewBox="0 0 435.76 413.62">
  <!-- Generator: Adobe Illustrator 29.5.1, SVG Export Plug-In . SVG Version: 2.1.0 Build 141)  -->
  <defs>
    <style>
      .st0, .st1, .st2, .st3, .st4, .st5, .st6, .st7 {
        stroke-miterlimit: 10;
      }

      .st0, .st1, .st2, .st3, .st5, .st6, .st7 {
        fill: none;
      }

      .st0, .st1, .st4, .st5 {
        stroke: #6fba2d;
      }

      .st1 {
        stroke-width: 3px;
      }

      .st2 {
        stroke: #3b7960;
      }

      .st8, .st3 {
        font-size: 16.21px;
        letter-spacing: .1em;
      }

      .st8, .st3, .st9, .st10, .st11, .st6, .st7 {
        isolation: isolate;
      }

      .st8, .st3, .st10, .st11, .st6, .st7 {
        font-family: BIZ-UDGothic, 'BIZ UDGothic';
      }

      .st8, .st10, .st11 {
        fill: #028760;
      }

      .st3, .st6, .st7 {
        stroke: #028760;
      }

      .st10, .st7 {
        font-size: 13.9px;
      }

      .st11, .st6 {
        font-size: 20.91px;
        letter-spacing: .1em;
      }

      .st4 {
        fill: #6fba2d;
      }

      .st5 {
        stroke-width: 2px;
      }
    </style>
  </defs>
  <g>
    <g>
      <polyline class="st5" points="116.85 1.71 116.85 93.32 155.89 93.32 128.3 141.73 65.42 105.5 1.5 105.5"/>
      <line class="st5" x1="193.78" y1="80.31" x2="117.06" y2="80.31"/>
      <line class="st5" x1="92.17" y1="165.98" x2="92.17" y2="121.01"/>
      <polyline class="st5" points="1.6 166.09 106.96 166.09 134.13 182.85 134.13 198.98 109.35 242.29"/>
      <polyline class="st5" points="109.98 281.54 167.23 184.31 172.85 187.74 116.85 285.18"/>
      <line class="st5" x1="162.86" y1="312.02" x2="241.88" y2="175.14"/>
      <polyline class="st5" points="218.37 214.81 188.39 196.93 205.34 167.96 235.08 186"/>
    </g>
    <g>
      <polyline class="st1" points="255.62 152.55 295.49 80.83 241.35 49.08 221.47 48.97 221.47 1.5 1.5 1.5 1.5 219.08 334.22 411.56 426.14 251.45 193.78 116.64 193.78 1.4"/>
      <polyline class="st1" points="372.42 345.98 401.78 363.94 434.26 309.28 434.26 270.71 420.52 261.66"/>
    </g>
    <g>
      <line class="st0" x1="134.28" y1="187.33" x2="165.12" y2="187.33"/>
      <line class="st0" x1="134.44" y1="192.01" x2="162.47" y2="192.01"/>
      <line class="st0" x1="134.44" y1="196.3" x2="160.13" y2="196.3"/>
      <line class="st0" x1="133.89" y1="199.9" x2="151.54" y2="210.44"/>
      <line class="st0" x1="131.63" y1="203.64" x2="149.51" y2="214.03"/>
      <line class="st0" x1="129.29" y1="207.31" x2="147.25" y2="217.78"/>
      <line class="st0" x1="127.1" y1="211.45" x2="145.06" y2="221.52"/>
      <line class="st0" x1="125.07" y1="214.73" x2="142.79" y2="225.66"/>
      <line class="st0" x1="123.12" y1="218.56" x2="140.69" y2="228.78"/>
      <line class="st0" x1="120.93" y1="222.38" x2="138.58" y2="232.53"/>
      <line class="st0" x1="118.75" y1="226.13" x2="136.39" y2="236.28"/>
      <line class="st0" x1="116.72" y1="229.41" x2="134.28" y2="239.79"/>
      <line class="st0" x1="114.53" y1="233.47" x2="131.94" y2="244.01"/>
      <line class="st0" x1="112.19" y1="237.22" x2="129.76" y2="247.68"/>
      <line class="st0" x1="142.09" y1="242.14" x2="160.83" y2="253.3"/>
      <line class="st0" x1="143.81" y1="238.78" x2="162.7" y2="250.1"/>
      <line class="st0" x1="145.76" y1="235.42" x2="164.66" y2="246.59"/>
      <line class="st0" x1="147.79" y1="232.3" x2="166.45" y2="243.07"/>
      <line class="st0" x1="149.98" y1="228.71" x2="168.25" y2="239.72"/>
      <line class="st0" x1="151.77" y1="225.66" x2="170.36" y2="236.2"/>
      <line class="st0" x1="154.04" y1="221.84" x2="172.62" y2="232.45"/>
      <line class="st0" x1="155.91" y1="218.87" x2="174.73" y2="229.17"/>
      <line class="st0" x1="165.52" y1="251.51" x2="188.86" y2="265.72"/>
      <line class="st0" x1="167.47" y1="248.23" x2="190.97" y2="261.81"/>
      <line class="st0" x1="169.42" y1="244.87" x2="193" y2="258.77"/>
      <line class="st0" x1="171.37" y1="241.2" x2="194.95" y2="255.17"/>
      <line class="st0" x1="173.4" y1="237.92" x2="197.14" y2="251.66"/>
      <line class="st0" x1="175.12" y1="234.87" x2="199.01" y2="248.3"/>
      <line class="st0" x1="177.38" y1="231.2" x2="200.88" y2="245.02"/>
      <line class="st0" x1="178.94" y1="228" x2="203.07" y2="241.67"/>
      <polygon class="st0" points="160.75 254.47 176.99 226.05 179.18 227.38 162.94 255.88 160.75 254.47"/>
      <line class="st0" x1="381.69" y1="330.05" x2="396.39" y2="338.64"/>
      <line class="st0" x1="383.82" y1="326.54" x2="398.03" y2="335.28"/>
      <line class="st0" x1="385.77" y1="323.41" x2="399.98" y2="332"/>
      <line class="st0" x1="387.65" y1="320.29" x2="402.01" y2="328.8"/>
      <line class="st0" x1="389.83" y1="316.78" x2="403.81" y2="325.29"/>
      <line class="st0" x1="391.32" y1="313.26" x2="405.76" y2="322.09"/>
      <line class="st0" x1="393.27" y1="310.22" x2="407.71" y2="318.65"/>
      <line class="st0" x1="395.45" y1="307.41" x2="409.74" y2="315.53"/>
      <line class="st0" x1="397.56" y1="304.05" x2="411.23" y2="311.7"/>
      <polygon class="st0" points="394.36 342.54 414.82 307.02 417.08 308.27 396.86 343.95 394.36 342.54"/>
      <line class="st0" x1="406.93" y1="326.85" x2="419.27" y2="333.88"/>
      <line class="st0" x1="404.75" y1="330.36" x2="417.16" y2="337.39"/>
      <line class="st0" x1="402.95" y1="333.49" x2="415.05" y2="340.59"/>
      <path class="st0" d="M401.08,337.08c.08.31,11.95,6.95,11.95,6.95"/>
      <line class="st0" x1="399.2" y1="340.83" x2="411.07" y2="347.77"/>
      <line class="st0" x1="396.86" y1="343.95" x2="408.88" y2="350.98"/>
    </g>
    <circle class="st4" cx="189.2" cy="150.47" r="5.21"/>
  </g>
  <g>
    <g class="st9">
      <text class="st10" transform="translate(272.55 340.95)"><tspan x="0" y="0">学生ラウンジ</tspan></text>
      <text class="st7" transform="translate(272.55 340.95)"><tspan x="0" y="0">学生ラウンジ</tspan></text>
    </g>
    <path class="st2" d="M279.09,320.23h70.31c8.53,0,15.44,6.91,15.44,15.44h0c0,8.53-6.91,15.44-15.44,15.44h-70.31c-8.53,0-15.44-6.91-15.44-15.44h0c0-8.53,6.91-15.44,15.44-15.44Z"/>
  </g>
  <g>
    <g class="st9">
      <text class="st10" transform="translate(211.8 99.5)"><tspan x="0" y="0">バルコニー</tspan></text>
      <text class="st7" transform="translate(211.8 99.5)"><tspan x="0" y="0">バルコニー</tspan></text>
    </g>
    <path class="st2" d="M216.39,78.78h60.31c8.53,0,15.44,6.91,15.44,15.44h0c0,8.53-6.91,15.44-15.44,15.44h-60.31c-8.53,0-15.44-6.91-15.44-15.44h0c0-8.53,6.91-15.44,15.44-15.44Z"/>
  </g>
  <g>
    <g class="st9">
      <text class="st8" transform="translate(249.98 298.83)"><tspan x="0" y="0">高校生受付</tspan></text>
      <text class="st3" transform="translate(249.98 298.83)"><tspan x="0" y="0">高校生受付</tspan></text>
    </g>
    <rect class="st2" x="243.16" y="277.23" width="101.19" height="30.88"/>
  </g>
  <g>
    <path d="M206.66,189.01c-.61,0-1.11.5-1.11,1.11s.5,1.11,1.11,1.11,1.11-.5,1.11-1.11-.5-1.11-1.11-1.11Z"/>
    <path d="M211.41,189.01c-.61,0-1.11.5-1.11,1.11s.5,1.11,1.11,1.11,1.11-.5,1.11-1.11-.5-1.11-1.11-1.11Z"/>
    <path d="M216.17,189.01c-.62,0-1.11.5-1.11,1.11s.5,1.11,1.11,1.11,1.11-.5,1.11-1.11-.5-1.11-1.11-1.11Z"/>
    <path d="M218.7,183.71h-14.58c-1.12,0-2.03.91-2.03,2.03v15.61c0,1.12.91,2.03,2.03,2.03h14.58c1.12,0,2.03-.91,2.03-2.03v-15.61c0-1.12-.91-2.03-2.03-2.03ZM206.46,202.1l.2-4.46.2,4.46h-.4ZM211.21,202.1l.2-4.46.2,4.46h-.4ZM215.97,202.1l.2-4.46.2,4.46h-.4ZM219.45,201.35c0,.41-.34.75-.75.75h-1.32l.04-5.21c.08.12.22.2.37.19.24,0,.42-.21.41-.45l.18-3.71c0-1.46-1.48-1.53-2.23-1.53s-2.23.07-2.23,1.53l.12,3.71c0,.24.17.44.41.45.21,0,.38-.13.43-.33l.04,5.34h-2.31l.04-5.21c.08.12.22.2.37.19.24,0,.42-.21.41-.45l.18-3.71c0-1.46-1.48-1.53-2.23-1.53s-2.23.07-2.23,1.53l.12,3.71c0,.24.17.44.41.45.21,0,.38-.13.43-.33l.04,5.35h-2.31l.04-5.21c.08.12.22.2.37.19.24,0,.42-.21.41-.45l.18-3.71c0-1.46-1.48-1.53-2.23-1.53s-2.23.07-2.23,1.53l.12,3.71c0,.24.17.44.41.45.21,0,.38-.13.43-.33l.04,5.35h-1.32c-.41,0-.75-.34-.75-.75v-15.61c0-.41.34-.75.75-.75h14.58c.41,0,.75.34.75.75v15.61h.06Z"/>
    <path d="M212.87,180.37l1.52-1.52v3.43c0,.31.25.57.57.57s.57-.25.57-.57v-3.43l1.52,1.52c.11.11.26.17.4.17s.29-.06.4-.17c.22-.22.22-.58,0-.8l-2.49-2.49-.4-.4-.4.4-2.49,2.49c-.22.22-.22.58,0,.8s.58.22.8,0h0Z"/>
    <path d="M207.47,182.67h0l.4.4.4-.4h0l2.49-2.49c.22-.22.22-.58,0-.8s-.58-.22-.8,0l-1.52,1.52v-3.43c0-.31-.25-.57-.57-.57s-.57.25-.57.57v3.43l-1.52-1.52c-.22-.22-.58-.22-.8,0s-.22.58,0,.8l2.49,2.49h0Z"/>
  </g>
  <g>
    <path d="M240.37,199.96c-.15.02-.83.05-1.51.08-.9.04-1.29.07-1.42.12-.23.08-.57.43-.75.75-.07.14-.24.36-.38.5l-.25.25h-.47c-.53,0-.68.05-.78.25-.14.27,0,.64.27.73.08.03.34.05.58.05h.43l.17.18c.24.25.44.34.79.34.32,0,.52-.07.73-.28.12-.12.13-.12.36-.07.65.13,1.79.59,2.9,1.16.35.18.64.33.65.33,0,0,0-.19,0-.43,0-.31-.03-.44-.09-.5-.09-.11-.96-.67-1.75-1.13l-.65-.38h-.54c-.36,0-.56-.03-.59-.1-.03-.07-.03-.12,0-.14.09-.09,2.36-.89,3.03-1.08l.17-.05-.11-.19c-.15-.27-.31-.42-.41-.41-.05,0-.21.02-.36.03h0ZM237.17,201.78c.26.09.34.43.16.65-.08.1-.13.12-.29.12s-.21-.02-.29-.12c-.18-.21-.1-.55.15-.65.14-.05.13-.05.28,0h-.01Z"/>
    <path d="M233.97,201.74c-1.63.24-2.53,1.55-2.34,3.43.05.57.17,1.14.5,2.44.34,1.36.42,1.81.44,2.57.02.49,0,.74-.05,1.03-.04.22-.06.39-.06.4,0,0,.12.04.24.08s.3.11.38.15c.09.05.17.07.17.07.05-.05.15-.58.19-1,.09-.88-.02-1.76-.48-3.56-.37-1.48-.44-1.87-.47-2.45-.04-.83.1-1.31.47-1.72.11-.12.27-.25.37-.31.22-.13.69-.27.9-.27.15,0,.16,0,.13-.1-.04-.12-.04-.6,0-.72.04-.1.02-.11-.41-.05h.02Z"/>
    <path d="M236.06,203.8v.49l-.36.17c-.67.34-1.23,1.03-1.4,1.75-.04.18-.06.48-.06.94v.67h5.59v-.67c0-.75-.05-1-.25-1.42-.24-.5-.67-.91-1.23-1.19l-.34-.17v-.44c0-.24,0-.48-.02-.53-.02-.09-.03-.09-.1-.03-.12.11-.45.23-.7.26-.31.03-.66-.04-.9-.19-.11-.07-.2-.12-.21-.12s-.02.22-.02.49h0Z"/>
    <path d="M234.24,210.57v2.34h5.59v-4.68h-5.59v2.34ZM238.8,210.59v1.12h-3.52v-2.24h3.52v1.12h0Z"/>
    <path d="M231.86,212.05c-.05.02-.39.58-.88,1.45l-.79,1.41.12.12c.14.15.9.52,1.42.7.22.07.52.14.67.15.26.02.28,0,.32-.08.02-.05.22-.75.42-1.54.26-.99.37-1.47.35-1.55-.1-.4-1.22-.86-1.62-.67h-.01ZM231.35,214.71c.43.09.84.32,1,.55.1.14.1.22,0,.22-.25,0-1.68-.59-1.65-.68,0-.04.25-.14.34-.14.02,0,.17.02.31.05h0Z"/>
    <path d="M234.24,215.41c0,2.36,0,2.32.31,2.67.11.12.29.26.42.32l.24.12h3.64l.24-.12c.14-.07.31-.2.42-.32.32-.36.31-.31.31-2.67v-2.08h-5.59v2.08h0Z"/>
  </g>
  <g>
    <path d="M410.04,294.41v10.5h21.17v-20.99h-21.17v10.5h0ZM427.03,291.75v6.44l.32.05c.38.06.86.28,1.06.48.33.33.92,1.41.94,1.7,0,.14,0,.15-.17.18-.1.02-.62.03-1.16.03h-.99v2.76l.47.49c.49.51.64.7.6.75-.05.05-2.6.1-5.38.1h-2.8l-.74-.71-.74-.72h-1.92l.68.65c.61.59.67.66.59.7-.05.03-.48.06-1.19.07l-1.11.02-.63-.63-.63-.63v-8.86h2.72l.57-.66c.78-.91.98-1.12,1.05-1.12.05,0,.56,1.05,1.03,2.1l.17.39-1.52,3.07c-1.84,3.72-2.06,4.18-1.96,4.24.08.05.66.05,1.07,0,.37-.05.73-.2.87-.35.14-.15.67-1.14,1.83-3.41,1.18-2.31,1.45-2.81,1.52-2.8.07.02.1.32.15,1.42.05,1.09.14,1.82.24,2.21.12.41-.08.38,3.4.38,3.1,0,3.28,0,3.35-.17.03-.09-.22-.56-.42-.79-.1-.1-.23-.22-.3-.26-.25-.13-.8-.19-2.25-.24-.8-.03-1.64-.06-1.85-.07l-.4-.03-.12-1.81-.13-1.82-.16-.37c-.09-.2-.39-.84-.67-1.43-.28-.58-.51-1.08-.51-1.12,0-.09.21-.11.98-.1h.69l.42.74c.69,1.2,1.03,1.6,1.34,1.6.15,0,.46-.2.54-.35.14-.26-.03-.76-.61-1.76-.63-1.09-.87-1.35-1.37-1.51-.3-.09-.36-.1-2.5-.1-1.72,0-2.25.01-2.44.06-.22.05-.28.1-.7.52-.25.26-.77.84-1.15,1.3l-.7.83h-2.16v-7.93h12.8v6.44l-.02.03Z"/>
    <path d="M418.4,287.35c-.48.14-.88.71-.89,1.28,0,.43.41,1.11.81,1.33.1.06.24.08.53.08.34,0,.43-.02.64-.12.54-.26.78-.68.79-1.34,0-.33,0-.39-.11-.57-.14-.24-.51-.59-.71-.68-.2-.08-.76-.07-1.07.02h0Z"/>
  </g>
  <g class="st9">
    <text class="st11" transform="translate(26.58 65.36)"><tspan x="0" y="0">STAFF ONLY</tspan></text>
    <text class="st6" transform="translate(26.58 65.36)"><tspan x="0" y="0">STAFF ONLY</tspan></text>
  </g>
</svg>