<svg width="346" height="114" viewBox="0 0 346 114" fill="none" xmlns="http://www.w3.org/2000/svg">
<path d="M209.714 14.3506L218.169 1H69.533L61.0776 14.3506M209.714 14.3506H169.217M209.714 14.3506H243.091H277.357L262.671 38.3816M262.671 38.3816H279.582M262.671 38.3816L256.669 48.1721M298.718 61.9677H303.613M298.718 61.9677L303.504 53.5123M298.718 61.9677H293.823M272.462 113.145H313.849L345 61.9677H303.613M272.462 113.145H1L9.43065 99.3493M272.462 113.145L303.613 61.9677M9.43065 99.3493H117.36M9.43065 99.3493L31.6037 62.8577M117.36 99.3493H225.29L234.567 84.2186M117.36 99.3493L149.941 45.947M169.217 14.3506H114.925H61.0776M169.217 14.3506L149.941 45.947M61.0776 14.3506L41.879 45.947M41.879 45.947L31.6037 62.8577M41.879 45.947H70.868M149.941 45.947H70.868M31.6037 62.8577H60.1876L70.868 45.947M234.567 84.2186H268.457L281.362 61.9677M234.567 84.2186L248.431 61.9677M281.362 61.9677H280.472M281.362 61.9677H284.032M248.431 61.9677H266.232M248.431 61.9677L252.881 54.3493M266.232 61.9677L270.494 54.3493M266.232 61.9677L273.129 49.9521M266.232 61.9677H269.347M271.127 53.5123L270.494 54.3493M271.127 53.5123L271.377 53.0673M271.127 53.5123H274.131M275.132 46.392L279.582 38.3816M275.132 46.392H278.692M275.132 46.392L274.131 48.1721M279.582 38.3816H283.142M289.373 46.392L293.823 38.3816M289.373 46.392H285.812M289.373 46.392H307.534M289.373 46.392L288.371 48.1721M293.823 38.3816H312.069L307.534 46.392M293.823 38.3816H290.708M285.812 46.392L290.708 38.3816M285.812 46.392H282.252M290.708 38.3816H286.702M282.252 46.392L286.702 38.3816M282.252 46.392H278.692M286.702 38.3816H283.142M278.692 46.392L283.142 38.3816M252.881 54.3493H270.494M252.881 54.3493L253.667 53.0673M253.667 53.0673H271.377M253.667 53.0673L254.486 51.7322M271.377 53.0673L272.128 51.7322M254.486 51.7322H272.128M254.486 51.7322L255.577 49.9521M272.128 51.7322L273.129 49.9521M255.577 49.9521H273.129M255.577 49.9521L256.669 48.1721M273.129 49.9521L274.131 48.1721M256.669 48.1721H274.131M303.504 53.5123L304.512 51.7322M303.504 53.5123H297.383M285.367 53.5123L286.369 51.7322M285.367 53.5123H284.477M285.367 53.5123H288.038M307.534 46.392L306.527 48.1721M288.371 48.1721H306.527M288.371 48.1721L287.37 49.9521M306.527 48.1721L305.519 49.9521M287.37 49.9521H305.519M287.37 49.9521L286.369 51.7322M305.519 49.9521L304.512 51.7322M286.369 51.7322H304.512M269.347 61.9677L274.131 53.5123M269.347 61.9677H273.129M274.131 53.5123H277.357M273.129 61.9677L277.357 53.5123M273.129 61.9677H277.246M277.357 53.5123H281.362M277.246 61.9677L281.362 53.5123M277.246 61.9677H280.472M281.362 53.5123H284.477M280.472 61.9677L284.477 53.5123M284.032 61.9677L288.038 53.5123M284.032 61.9677H287.37M288.038 53.5123H291.153M287.37 61.9677L291.153 53.5123M287.37 61.9677H290.708M291.153 53.5123H294.268M290.708 61.9677L294.268 53.5123M290.708 61.9677H293.823M294.268 53.5123H297.383M293.823 61.9677L297.383 53.5123" stroke="#F3858E"/>
<path d="M254.147 66.4888C253.677 66.4888 253.297 66.8693 253.297 67.339C253.297 67.8087 253.677 68.1892 254.147 68.1892C254.617 68.1892 254.998 67.8087 254.998 67.339C254.998 66.8693 254.617 66.4888 254.147 66.4888Z" fill="black"/>
<path d="M257.776 66.4888C257.307 66.4888 256.926 66.8693 256.926 67.339C256.926 67.8087 257.307 68.1892 257.776 68.1892C258.246 68.1892 258.627 67.8087 258.627 67.339C258.627 66.8693 258.246 66.4888 257.776 66.4888Z" fill="black"/>
<path d="M261.407 66.4888C260.937 66.4888 260.557 66.8693 260.557 67.339C260.557 67.8087 260.937 68.1892 261.407 68.1892C261.877 68.1892 262.258 67.8087 262.258 67.339C262.258 66.8693 261.877 66.4888 261.407 66.4888Z" fill="black"/>
<path d="M263.345 62.4404H252.209C251.353 62.4404 250.656 63.1368 250.656 63.9924V75.9155C250.656 76.7714 251.353 77.4678 252.209 77.4678H263.345C264.201 77.4678 264.897 76.7714 264.897 75.9155V63.9924C264.897 63.1368 264.201 62.4404 263.345 62.4404ZM253.995 76.4883L254.147 73.08L254.298 76.4883H253.995ZM257.625 76.4883L257.777 73.08L257.928 76.4883H257.625ZM261.255 76.4883L261.407 73.08L261.558 76.4883H261.255ZM263.917 75.9155C263.917 76.2314 263.661 76.4883 263.345 76.4883H262.34L262.368 72.5089C262.431 72.6006 262.533 72.6624 262.652 72.6568C262.835 72.6481 262.976 72.4931 262.967 72.3105L263.108 69.48C263.108 68.3667 261.98 68.3119 261.407 68.3119C260.833 68.3119 259.705 68.3667 259.705 69.48L259.8 72.3105C259.792 72.4931 259.932 72.6481 260.115 72.6568C260.274 72.6644 260.407 72.5549 260.445 72.4061L260.473 76.4882H258.711L258.738 72.5089C258.801 72.6006 258.903 72.6624 259.023 72.6568C259.205 72.648 259.346 72.4931 259.338 72.3104L259.478 69.4799C259.478 68.3666 258.35 68.3118 257.777 68.3118C257.203 68.3118 256.075 68.3666 256.075 69.4799L256.17 72.3104C256.161 72.4931 256.302 72.648 256.485 72.6568C256.644 72.6644 256.777 72.5546 256.815 72.4053L256.843 76.4882H255.081L255.108 72.5088C255.17 72.6005 255.273 72.6624 255.393 72.6568C255.575 72.648 255.716 72.493 255.707 72.3104L255.848 69.4799C255.848 68.3666 254.721 68.3118 254.147 68.3118C253.573 68.3118 252.445 68.3666 252.445 69.4799L252.54 72.3104C252.531 72.493 252.672 72.648 252.855 72.6568C253.015 72.6644 253.147 72.5546 253.185 72.4052L253.213 76.4882H252.209C251.893 76.4882 251.636 76.2313 251.636 75.9154V63.9924C251.636 63.6768 251.893 63.4199 252.209 63.4199H263.345C263.661 63.4199 263.917 63.6768 263.917 63.9924V75.9155H263.917Z" fill="black"/>
<path d="M258.889 59.8903L260.053 58.7267V61.343C260.053 61.5815 260.246 61.7749 260.485 61.7749C260.724 61.7749 260.917 61.5815 260.917 61.343V58.7267L262.081 59.8903C262.166 59.9747 262.276 60.0171 262.386 60.0171C262.497 60.0171 262.608 59.9747 262.692 59.8903C262.861 59.7215 262.861 59.448 262.692 59.2795L260.791 57.3777L260.485 57.0723L260.179 57.3777L258.278 59.2795C258.109 59.448 258.109 59.7215 258.278 59.8903C258.447 60.0591 258.721 60.0591 258.889 59.8903Z" fill="black"/>
<path d="M254.763 61.6476C254.763 61.6479 254.763 61.6479 254.763 61.6479L255.069 61.9533L255.375 61.6479C255.375 61.6479 255.375 61.6479 255.375 61.6476L257.276 59.7461C257.445 59.5773 257.445 59.3036 257.276 59.135C257.108 58.9662 256.834 58.9662 256.665 59.135L255.501 60.2989V57.6827C255.501 57.4439 255.308 57.2505 255.069 57.2505C254.831 57.2505 254.637 57.4439 254.637 57.6827V60.2989L253.473 59.135C253.305 58.9662 253.031 58.9662 252.862 59.135C252.693 59.3035 252.693 59.5773 252.862 59.7461L254.763 61.6476Z" fill="black"/>
<path d="M307.008 77.5654C306.457 77.6648 306.013 78.0167 305.799 78.5216C305.704 78.742 305.669 78.9409 305.678 79.1949C305.683 79.3371 305.695 79.4397 305.716 79.5253C305.84 79.9935 306.137 80.3638 306.558 80.5719C307.354 80.9636 308.305 80.6407 308.695 79.8451C308.792 79.6477 308.835 79.4993 308.855 79.2912C308.908 78.7083 308.636 78.1345 308.152 77.8148C307.808 77.5883 307.389 77.4965 307.008 77.5654Z" fill="black"/>
<path d="M305.326 81.0997C304.746 81.1899 304.261 81.5128 303.914 82.0376C303.75 82.2839 303.793 82.1585 303.164 84.2286C302.916 85.0441 302.647 85.93 302.454 86.5665C302.373 86.8312 302.3 87.0913 302.29 87.1479C302.228 87.5029 302.414 87.8333 302.731 87.9313C302.977 88.0078 303.227 87.9389 303.398 87.7492C303.527 87.6054 303.508 87.6574 303.975 86.0876C304.077 85.7418 304.226 85.2461 304.304 84.986C304.38 84.7243 304.526 84.2378 304.625 83.9027L304.807 83.2953H305.141C305.418 83.2953 305.474 83.2983 305.474 83.3167C305.474 83.3289 305.425 83.5125 305.366 83.7267C305.259 84.1108 304.939 85.2629 304.105 88.2602C303.47 90.5446 303.455 90.5981 303.446 90.6272C303.438 90.6532 303.491 90.6547 304.425 90.6547H305.413V93.5648C305.413 96.7351 305.409 96.5698 305.499 96.7473C305.578 96.9049 305.738 97.035 305.921 97.0916C306.042 97.1313 306.296 97.1268 306.414 97.0824C306.639 97.0013 306.786 96.8498 306.862 96.6218C306.888 96.5423 306.89 96.4015 306.894 93.5801L306.897 90.6241H307.272H307.647V93.5847C307.647 96.5423 307.647 96.5469 307.679 96.6417C307.776 96.9294 308.005 97.0992 308.328 97.1222C308.715 97.1482 309.041 96.8988 309.099 96.53C309.11 96.4643 309.116 95.4605 309.116 93.5419V90.6547H310.095C310.733 90.6547 311.074 90.6501 311.074 90.6394C311.074 90.6318 310.964 90.2294 310.828 89.7489C310.693 89.267 310.522 88.655 310.447 88.3903C310.372 88.1256 310.201 87.512 310.064 87.0285C309.644 85.5291 309.546 85.1818 309.437 84.7947C309.379 84.5881 309.263 84.1735 309.179 83.8721C309.093 83.5707 309.024 83.3182 309.024 83.3106C309.024 83.3014 309.162 83.2953 309.376 83.2953H309.726L309.758 83.4054C309.777 83.4666 309.804 83.5584 309.82 83.6089C309.835 83.6594 309.904 83.8904 309.973 84.1215C310.042 84.3525 310.156 84.7381 310.228 84.9783C310.299 85.2185 310.406 85.575 310.464 85.7693C310.687 86.519 310.788 86.8618 310.869 87.1356C310.915 87.2917 310.969 87.457 310.986 87.5029C311.113 87.8318 311.402 88.0169 311.703 87.9619C312.05 87.8991 312.275 87.5885 312.248 87.2121C312.239 87.0974 312.226 87.053 311.884 85.9269C311.578 84.9217 311.087 83.3044 310.957 82.8745C310.891 82.6542 310.813 82.4323 310.774 82.3512C310.684 82.1615 310.516 81.9427 310.309 81.7453C309.933 81.3843 309.501 81.167 309.032 81.0997C308.819 81.0691 305.52 81.0691 305.326 81.0997Z" fill="black"/>
</svg>
