<?xml version="1.0" encoding="UTF-8"?>
<svg id="_レイヤー_1" data-name="レイヤー 1" xmlns="http://www.w3.org/2000/svg" viewBox="0 0 591.82 358.12">
  <defs>
    <style>
      .cls-1 {
        stroke: #34b9f0;
      }

      .cls-1, .cls-2, .cls-3, .cls-4, .cls-5, .cls-6 {
        stroke-miterlimit: 10;
      }

      .cls-1, .cls-4, .cls-5, .cls-6 {
        fill: none;
      }

      .cls-2 {
        letter-spacing: .3em;
      }

      .cls-2, .cls-3 {
        fill: #f3858e;
        font-family: BIZ-UDGothic, 'BIZ UDGothic';
        font-size: 21.32px;
      }

      .cls-2, .cls-3, .cls-4, .cls-5, .cls-6 {
        stroke: #f3858e;
      }

      .cls-3 {
        letter-spacing: .3em;
      }

      .cls-7 {
        fill: #3b82f6;
      }

      .cls-5 {
        stroke-width: 3px;
      }

      .cls-6 {
        stroke-width: 2px;
      }
    </style>
  </defs>
  <g>
    <g>
      <line class="cls-4" x1="120.52" y1="168.79" x2="120.52" y2="204.7"/>
      <line class="cls-4" x1="128.21" y1="167.28" x2="128.21" y2="204.87"/>
      <line class="cls-4" x1="135.39" y1="167.95" x2="135.39" y2="205.21"/>
      <line class="cls-4" x1="143.08" y1="167.78" x2="143.08" y2="205.37"/>
      <line class="cls-4" x1="145.25" y1="207.71" x2="185.51" y2="207.71"/>
      <line class="cls-4" x1="145.58" y1="213.89" x2="185.18" y2="213.89"/>
      <line class="cls-4" x1="145.42" y1="220.07" x2="185.34" y2="220.07"/>
      <line class="cls-4" x1="139.9" y1="221.24" x2="139.9" y2="252.98"/>
      <line class="cls-4" x1="132.05" y1="221.24" x2="132.05" y2="252.82"/>
      <line class="cls-4" x1="124.53" y1="221.08" x2="124.53" y2="252.15"/>
      <line class="cls-4" x1="116.85" y1="221.24" x2="116.85" y2="251.98"/>
      <line class="cls-4" x1="114.84" y1="217.74" x2="80.76" y2="217.74"/>
      <line class="cls-4" x1="80.43" y1="211.72" x2="116.01" y2="211.72"/>
      <line class="cls-4" x1="80.76" y1="205.71" x2="115.68" y2="205.71"/>
    </g>
    <g>
      <polyline class="cls-5" points="184.53 321.4 184.53 166.85 1.5 166.85 1.5 2.25 590.32 1.5 590.32 356.62 313.45 356.62 313.45 318.85 184.53 318.85"/>
      <line class="cls-5" x1="79.6" y1="167.6" x2="79.6" y2="254.09"/>
      <line class="cls-5" x1="80.35" y1="253.19" x2="183.93" y2="253.19"/>
    </g>
    <g>
      <line class="cls-6" x1="115.28" y1="204.47" x2="115.28" y2="222.01"/>
      <line class="cls-6" x1="113.82" y1="220.1" x2="146.08" y2="220.1"/>
      <line class="cls-6" x1="144.62" y1="221.67" x2="144.62" y2="204.81"/>
      <line class="cls-6" x1="114.38" y1="205.26" x2="145.63" y2="205.26"/>
      <polyline class="cls-6" points="120.56 165.57 120.56 88.56 184.87 88.56"/>
      <polyline class="cls-6" points="185.32 165.57 185.32 47.3 204.1 47.3"/>
      <line class="cls-6" x1="314.05" y1="318.59" x2="590.4" y2="318.59"/>
      <line class="cls-6" x1="79.72" y1="4.53" x2="79.72" y2="114.72"/>
      <line class="cls-6" x1="79.72" y1="146.05" x2="79.72" y2="166.27"/>
      <line class="cls-6" x1="229.83" y1="46.48" x2="589.69" y2="46.48"/>
    </g>
  </g>
  <g>
    <path class="cls-7" d="M39.44,50.25c-.81.15-1.47.5-2.03,1.09-1.36,1.44-1.29,3.72.15,5.07.91.86,2.19,1.18,3.42.86.38-.1.97-.4,1.3-.67,1.12-.9,1.6-2.41,1.2-3.79-.33-1.14-1.18-2.03-2.28-2.41-.57-.19-1.23-.25-1.77-.15Z"/>
    <path class="cls-7" d="M34.85,58.18c-.59.04-1.11.19-1.66.46-1.45.72-2.4,2.14-2.55,3.79-.03.29-.03,2.18-.03,6.13v5.71s.09.22.09.22c.14.41.42.74.79.9.14.07.23.08.55.08.35,0,.4,0,.59-.1.39-.19.68-.57.78-1.03.03-.14.04-1.39.04-5.69v-5.51h1.71v14.69c0,12.79,0,14.72.05,14.94.19.92,1.02,1.6,1.97,1.6.27,0,.69-.11.96-.25.31-.17.67-.54.83-.86.24-.5.23.18.23-9.31v-8.57h1.69v8.58c0,9.46-.01,8.8.22,9.28.23.46.62.81,1.15,1.01.2.08.28.09.65.09s.45-.01.65-.09c.53-.2.92-.55,1.15-1,.25-.5.23.82.23-15.43v-14.69h1.69v5.48c0,3.79.01,5.55.04,5.69.09.49.37.87.78,1.07.25.12.28.13.57.13.23,0,.36-.02.5-.07.49-.2.82-.64.9-1.24.04-.33.04-11.14,0-11.68-.19-2.11-1.64-3.8-3.64-4.25-.22-.05-.48-.07-.9-.08-1.05-.02-9.69-.03-10.02-.01Z"/>
  </g>
  <g>
    <path d="M107.53,123.71c-.31.03-1.75.11-3.19.17-1.9.08-2.73.15-3,.24-.49.17-1.21.9-1.58,1.59-.15.29-.52.76-.8,1.06l-.53.52h-1c-1.13,0-1.43.1-1.65.52-.3.58-.02,1.35.57,1.55.17.06.72.1,1.21.1h.91s.36.38.36.38c.52.53.93.72,1.67.72.68,0,1.09-.16,1.55-.59.26-.24.28-.25.76-.15,1.36.27,3.78,1.24,6.11,2.45.74.38,1.35.69,1.36.69,0,0,0-.4-.03-.9-.03-.66-.07-.93-.18-1.06-.19-.23-2.03-1.42-3.69-2.39l-1.37-.8h-1.14q-1.14,0-1.25-.22c-.06-.14-.07-.25-.02-.31.18-.18,4.99-1.89,6.4-2.27l.36-.1-.23-.41c-.32-.57-.65-.89-.86-.87-.1,0-.44.03-.75.07ZM100.78,127.56c.55.19.72.91.33,1.36-.17.2-.28.24-.62.24s-.45-.04-.62-.24c-.38-.45-.22-1.15.31-1.36.29-.11.28-.11.59,0Z"/>
    <path d="M94.03,127.47c-3.44.51-5.34,3.28-4.94,7.24.11,1.2.37,2.4,1.05,5.15.72,2.87.88,3.83.93,5.42.03,1.03,0,1.55-.1,2.17-.08.45-.13.83-.12.84.02,0,.24.09.51.17s.63.23.81.32c.19.1.35.16.37.14.1-.1.31-1.23.4-2.11.19-1.86-.05-3.7-1-7.52-.78-3.12-.93-3.94-.99-5.16-.08-1.75.2-2.77.99-3.62.24-.24.58-.53.78-.65.46-.27,1.46-.57,1.9-.57.32,0,.34-.02.27-.2-.09-.24-.08-1.27,0-1.53.08-.22.03-.23-.86-.1Z"/>
    <path d="M98.44,131.81v1.04l-.75.37c-1.42.71-2.6,2.18-2.96,3.69-.09.38-.13,1.02-.13,1.97v1.42h11.79v-1.42c0-1.57-.1-2.11-.52-2.99-.52-1.05-1.41-1.91-2.59-2.51l-.72-.36v-.93c0-.51-.03-1.01-.05-1.13-.05-.18-.07-.18-.2-.07-.26.24-.94.49-1.47.54-.66.07-1.39-.09-1.9-.4-.23-.15-.43-.26-.45-.26-.03,0-.04.46-.04,1.03Z"/>
    <path d="M94.6,146.11v4.94h11.79v-9.87h-11.79v4.94ZM104.21,146.15v2.36h-7.42v-4.72h7.42v2.36Z"/>
    <path d="M89.57,149.23c-.11.05-.83,1.22-1.86,3.07l-1.68,2.97.24.26c.31.31,1.9,1.1,3,1.47.45.15,1.09.3,1.42.32.56.03.59.03.67-.17.05-.11.45-1.57.89-3.25.55-2.1.78-3.1.73-3.27-.21-.85-2.57-1.82-3.42-1.41ZM88.49,154.84c.91.19,1.78.68,2.11,1.17.2.31.2.45,0,.45-.53,0-3.54-1.24-3.48-1.43.03-.09.52-.3.72-.31.05,0,.35.05.66.11Z"/>
    <path d="M94.6,156.31c0,4.98,0,4.89.66,5.64.23.25.6.54.89.68l.5.24h7.69l.5-.24c.29-.14.66-.43.89-.68.67-.75.66-.66.66-5.64v-4.39h-11.79v4.39Z"/>
  </g>
  <g>
    <path d="M580.24,52.04c-.31.03-1.75.11-3.19.17-1.9.08-2.73.15-3,.24-.49.17-1.21.9-1.58,1.59-.15.29-.52.76-.8,1.06l-.53.52h-1c-1.13,0-1.43.1-1.65.52-.3.58-.02,1.35.57,1.55.17.06.72.1,1.21.1h.91s.36.38.36.38c.52.53.93.72,1.67.72.68,0,1.09-.16,1.55-.59.26-.24.28-.25.76-.15,1.36.27,3.78,1.24,6.11,2.45.74.38,1.35.69,1.36.69,0,0,0-.4-.03-.9-.03-.66-.07-.93-.18-1.06-.19-.23-2.03-1.42-3.69-2.39l-1.37-.8h-1.14q-1.14,0-1.25-.22c-.06-.14-.07-.25-.02-.31.18-.18,4.99-1.89,6.4-2.27l.36-.1-.23-.41c-.32-.57-.65-.89-.86-.87-.1,0-.44.03-.75.07ZM573.5,55.89c.55.19.72.91.33,1.36-.17.2-.28.24-.62.24s-.45-.04-.62-.24c-.38-.45-.22-1.15.31-1.36.29-.11.28-.11.59,0Z"/>
    <path d="M566.75,55.8c-3.44.51-5.34,3.28-4.94,7.24.11,1.2.37,2.4,1.05,5.15.72,2.87.88,3.83.93,5.42.03,1.03,0,1.55-.1,2.17-.08.45-.13.83-.12.84.02,0,.24.09.51.17s.63.23.81.32c.19.1.35.16.37.14.1-.1.31-1.23.4-2.11.19-1.86-.05-3.7-1-7.52-.78-3.12-.93-3.94-.99-5.16-.08-1.75.2-2.77.99-3.62.24-.24.58-.53.78-.65.46-.27,1.46-.57,1.9-.57.32,0,.34-.02.27-.2-.09-.24-.08-1.27,0-1.53.08-.22.03-.23-.86-.1Z"/>
    <path d="M571.16,60.15v1.04l-.75.37c-1.42.71-2.6,2.18-2.96,3.69-.09.38-.13,1.02-.13,1.97v1.42h11.79v-1.42c0-1.57-.1-2.11-.52-2.99-.52-1.05-1.41-1.91-2.59-2.51l-.72-.36v-.93c0-.51-.03-1.01-.05-1.13-.05-.18-.07-.18-.2-.07-.26.24-.94.49-1.47.54-.66.07-1.39-.09-1.9-.4-.23-.15-.43-.26-.45-.26-.03,0-.04.46-.04,1.03Z"/>
    <path d="M567.31,74.44v4.94h11.79v-9.87h-11.79v4.94ZM576.92,74.49v2.36h-7.42v-4.72h7.42v2.36Z"/>
    <path d="M562.28,77.56c-.11.05-.83,1.22-1.86,3.07l-1.68,2.97.24.26c.31.31,1.9,1.1,3,1.47.45.15,1.09.3,1.42.32.56.03.59.03.67-.17.05-.11.45-1.57.89-3.25.55-2.1.78-3.1.73-3.27-.21-.85-2.57-1.82-3.42-1.41ZM561.21,83.17c.91.19,1.78.68,2.11,1.17.2.31.2.45,0,.45-.53,0-3.54-1.24-3.48-1.43.03-.09.52-.3.72-.31.05,0,.35.05.66.11Z"/>
    <path d="M567.31,84.65c0,4.98,0,4.89.66,5.64.23.25.6.54.89.68l.5.24h7.69l.5-.24c.29-.14.66-.43.89-.68.67-.75.66-.66.66-5.64v-4.39h-11.79v4.39Z"/>
  </g>
  <g>
    <path d="M140.69,125.1c-1.46,0-2.65,1.19-2.65,2.65s1.19,2.65,2.65,2.65,2.65-1.19,2.65-2.65-1.19-2.65-2.65-2.65Z"/>
    <path d="M152.01,125.1c-1.46,0-2.65,1.19-2.65,2.65s1.19,2.65,2.65,2.65,2.65-1.19,2.65-2.65c0-1.46-1.19-2.65-2.65-2.65Z"/>
    <path d="M163.34,125.1c-1.47,0-2.65,1.19-2.65,2.65s1.19,2.65,2.65,2.65,2.65-1.19,2.65-2.65-1.19-2.65-2.65-2.65Z"/>
    <path d="M169.38,112.47h-34.73c-2.67,0-4.84,2.17-4.84,4.84v37.19c0,2.67,2.17,4.84,4.84,4.84h34.73c2.67,0,4.84-2.17,4.84-4.84v-37.19c0-2.67-2.17-4.84-4.84-4.84ZM140.22,156.28l.47-10.63.47,10.63h-.94ZM151.54,156.28l.47-10.63.47,10.63h-.95ZM162.86,156.28l.47-10.63.47,10.63h-.95ZM171.16,154.49c0,.99-.8,1.79-1.79,1.79h-3.13l.09-12.41c.2.29.52.48.89.46.57-.03,1.01-.51.98-1.08l.44-8.83c0-3.47-3.52-3.64-5.31-3.64s-5.31.17-5.31,3.64l.3,8.83c-.03.57.41,1.05.98,1.08.5.02.91-.32,1.03-.78l.09,12.73h-5.5l.09-12.41c.2.29.52.48.89.46.57-.03,1.01-.51.98-1.08l.44-8.83c0-3.47-3.52-3.64-5.31-3.64s-5.31.17-5.31,3.64l.3,8.83c-.03.57.41,1.05.98,1.08.5.02.91-.32,1.03-.78l.09,12.73h-5.5l.08-12.41c.2.29.52.48.89.46.57-.03,1.01-.51.98-1.08l.44-8.83c0-3.47-3.52-3.64-5.31-3.64s-5.31.17-5.31,3.64l.29,8.83c-.03.57.41,1.05.98,1.08.5.02.91-.32,1.03-.78l.09,12.73h-3.13c-.99,0-1.79-.8-1.79-1.79v-37.19c0-.98.8-1.79,1.79-1.79h34.73c.98,0,1.79.8,1.79,1.79v37.19h0Z"/>
    <path d="M155.48,104.51l3.63-3.63v8.16c0,.74.6,1.35,1.35,1.35s1.35-.6,1.35-1.35v-8.16l3.63,3.63c.26.26.61.4.95.4s.69-.13.95-.4c.53-.53.53-1.38,0-1.91l-5.93-5.93-.95-.95-.95.95-5.93,5.93c-.53.53-.53,1.38,0,1.91.53.53,1.38.53,1.91,0Z"/>
    <path d="M142.61,110h0s.95.95.95.95l.95-.95s0,0,0,0l5.93-5.93c.53-.53.53-1.38,0-1.91-.52-.53-1.38-.53-1.91,0l-3.63,3.63v-8.16c0-.74-.6-1.35-1.35-1.35s-1.35.6-1.35,1.35v8.16l-3.63-3.63c-.53-.53-1.38-.53-1.91,0-.53.53-.53,1.38,0,1.91l5.93,5.93Z"/>
  </g>
  <g>
    <path d="M37.7,233.65v18.97h38.24v-37.93h-38.24v18.97ZM68.39,228.85v11.63l.58.09c.68.11,1.56.5,1.92.87.6.6,1.67,2.54,1.69,3.08.02.24,0,.27-.3.32-.17.03-1.12.06-2.1.06h-1.79v4.99l.86.88c.88.91,1.16,1.27,1.09,1.35-.09.09-4.71.17-9.72.17h-5.07s-1.35-1.29-1.35-1.29l-1.35-1.3h-3.47l1.22,1.18c1.1,1.07,1.2,1.19,1.07,1.27-.09.06-.87.11-2.16.13l-2,.04-1.13-1.13-1.13-1.13v-16.01h4.92s1.02-1.2,1.02-1.2c1.42-1.65,1.77-2.03,1.89-2.03.09,0,1.02,1.89,1.87,3.8l.31.7-2.75,5.56c-3.33,6.72-3.71,7.55-3.55,7.66.15.09,1.19.09,1.94-.02.66-.09,1.31-.35,1.57-.64.25-.27,1.21-2.06,3.31-6.16,2.13-4.18,2.63-5.08,2.74-5.05.12.04.18.57.27,2.57.09,1.98.24,3.3.44,3.99.21.73-.15.69,6.14.69,5.6,0,5.93-.02,6.05-.31.06-.16-.4-1.02-.76-1.43-.17-.19-.42-.4-.55-.46-.46-.24-1.44-.34-4.07-.42-1.45-.05-2.96-.1-3.34-.13l-.72-.05-.22-3.27-.23-3.28-.29-.67c-.17-.37-.71-1.53-1.21-2.58-.5-1.05-.91-1.96-.91-2.02,0-.17.38-.2,1.76-.18l1.25.02.76,1.31c1.24,2.17,1.86,2.9,2.42,2.9.27,0,.83-.37.98-.64.24-.47-.06-1.37-1.11-3.19-1.14-1.98-1.57-2.44-2.48-2.73-.54-.17-.65-.17-4.52-.17-3.1,0-4.07.02-4.41.11-.39.09-.5.18-1.26.94-.46.46-1.39,1.53-2.09,2.35l-1.26,1.5h-1.94s-1.95,0-1.95,0v-14.32h23.14v11.64Z"/>
    <path d="M52.81,220.89c-.87.25-1.58,1.27-1.61,2.31-.02.77.74,2.01,1.47,2.41.19.1.43.14.96.14.61,0,.77-.03,1.16-.22.97-.47,1.41-1.22,1.43-2.42,0-.59-.02-.71-.2-1.02-.26-.44-.92-1.07-1.28-1.23-.35-.15-1.38-.13-1.93.03Z"/>
  </g>
  <g>
    <text class="cls-3" transform="translate(501.82 288.77)"><tspan x="0" y="0">241</tspan></text>
    <rect class="cls-1" x="489.56" y="261.72" width="69.3" height="37.9" rx="16" ry="16"/>
  </g>
  <g>
    <text class="cls-2" transform="translate(233.41 289.01)"><tspan x="0" y="0">242</tspan></text>
    <rect class="cls-1" x="221.15" y="261.96" width="69.3" height="37.9" rx="16" ry="16"/>
  </g>
</svg>