<svg width="346" height="114" viewBox="0 0 346 114" fill="none" xmlns="http://www.w3.org/2000/svg">
<path d="M210.352 13.5254L218.852 1H68.5475L60.4954 13.5254M210.352 13.5254H277.005L262.691 37.6814M210.352 13.5254H169.198M262.691 37.6814H280.137M262.691 37.6814L255.475 49.5358M298.925 61.3901L303.845 52.8908M298.925 61.3901H294.899M298.925 61.3901H303.845M60.4954 13.5254L9.1753 98.9662M60.4954 13.5254H169.198M9.1753 98.9662L1 112.386H273.107M9.1753 98.9662H117.816M117.816 98.9662H225.114L234.758 83.3095M117.816 98.9662L169.198 13.5254M234.758 83.3095H268.059L282.373 61.3901M234.758 83.3095L248.259 61.3901M282.373 61.3901H280.584M282.373 61.3901H283.939M248.259 61.3901H266.269M248.259 61.3901L253.705 52.4434M266.269 61.3901L271.19 52.8908H272.085L272.34 52.4434M266.269 61.3901H269.848M280.137 37.6814L275.663 45.2861V45.9571M280.137 37.6814H283.939M275.663 45.9571V46.6281L275.152 47.5228M275.663 45.9571H279.018M289.531 45.9571H286.399M289.531 45.9571L288.636 47.627M289.531 45.9571L289.722 45.6344M294.451 37.6814H313.239L308.327 45.6344M294.451 37.6814H290.873M294.451 37.6814L289.722 45.6344M290.873 37.6814L286.399 45.9571M290.873 37.6814H287.741M286.399 45.9571H282.373M282.373 45.9571L287.741 37.6814M282.373 45.9571H279.018M287.741 37.6814H283.939M279.018 45.9571L283.939 37.6814M256.875 47.5228H275.152M275.152 47.5228L274.002 49.5358M255.475 49.5358H274.002M255.475 49.5358L254.522 51.1014M274.002 49.5358L273.107 51.1014M254.522 51.1014H273.107M254.522 51.1014L253.705 52.4434M273.107 51.1014L272.34 52.4434M253.705 52.4434H272.34M272.34 52.4434L275.152 52.4834M303.845 52.8908L298.925 52.8209M303.845 52.8908L304.95 51.1014M269.848 61.3901L275.152 52.4834M269.848 61.3901H274.002M275.152 52.4834L279.018 52.5383M274.002 61.3901L279.018 52.5383M274.002 61.3901H277.005M279.018 52.5383L282.373 52.5859M277.005 61.3901L282.373 52.5859M277.005 61.3901H280.584M282.373 52.5859L285.952 52.6367M280.584 61.3901L285.952 52.6367M285.952 52.6367L289.083 52.6812M285.952 52.6367L286.774 51.1014M283.939 61.3901L289.083 52.6812M283.939 61.3901H287.741M289.083 52.6812L292.215 52.7256M287.741 61.3901L292.215 52.7256M287.741 61.3901H291.32M292.215 52.7256L295.793 52.7764M291.32 61.3901L295.793 52.7764M291.32 61.3901H294.899M295.793 52.7764L298.925 52.8209M294.899 61.3901L298.925 52.8209M286.774 51.1014H304.95M286.774 51.1014L287.741 49.2969M304.95 51.1014L306.065 49.2969M287.741 49.2969H306.065M287.741 49.2969L288.636 47.627M306.065 49.2969L307.161 47.5228M288.636 47.627L307.161 47.5228M307.161 47.5228L308.327 45.6344M289.722 45.6344H308.327M273.107 112.386L314.134 113.281L345 61.3901H303.845M273.107 112.386L303.845 61.3901" stroke="#F3858E"/>
<path d="M254.121 70.4082C253.649 70.4082 253.267 70.7907 253.267 71.2629C253.267 71.735 253.649 72.1175 254.121 72.1175C254.593 72.1175 254.976 71.735 254.976 71.2629C254.976 70.7907 254.593 70.4082 254.121 70.4082Z" fill="black"/>
<path d="M257.77 70.4082C257.298 70.4082 256.915 70.7907 256.915 71.2629C256.915 71.735 257.298 72.1175 257.77 72.1175C258.242 72.1175 258.625 71.735 258.625 71.2629C258.625 70.7907 258.242 70.4082 257.77 70.4082Z" fill="black"/>
<path d="M261.418 70.4082C260.946 70.4082 260.563 70.7907 260.563 71.2629C260.563 71.735 260.946 72.1175 261.418 72.1175C261.891 72.1175 262.273 71.735 262.273 71.2629C262.273 70.7907 261.891 70.4082 261.418 70.4082Z" fill="black"/>
<path d="M263.367 66.3389H252.173C251.313 66.3389 250.612 67.0389 250.612 67.8989V79.884C250.612 80.7444 251.313 81.4444 252.173 81.4444H263.367C264.227 81.4444 264.927 80.7444 264.927 79.884V67.8989C264.927 67.0389 264.227 66.3389 263.367 66.3389ZM253.969 80.4598L254.121 77.0338L254.273 80.4598H253.969ZM257.617 80.4598L257.77 77.0338L257.922 80.4598H257.617ZM261.266 80.4598L261.419 77.0338L261.571 80.4598H261.266ZM263.942 79.884C263.942 80.2016 263.684 80.4598 263.367 80.4598H262.357L262.385 76.4597C262.448 76.5519 262.551 76.6141 262.671 76.6084C262.854 76.5996 262.996 76.4438 262.987 76.2602L263.129 73.415C263.129 72.2959 261.995 72.2409 261.419 72.2409C260.842 72.2409 259.708 72.2959 259.708 73.415L259.804 76.2602C259.795 76.4438 259.936 76.5996 260.12 76.6084C260.28 76.6161 260.414 76.5059 260.452 76.3564L260.48 80.4598H258.708L258.736 76.4597C258.799 76.5519 258.902 76.614 259.022 76.6084C259.205 76.5996 259.347 76.4438 259.339 76.2602L259.48 73.415C259.48 72.2959 258.346 72.2408 257.77 72.2408C257.193 72.2408 256.059 72.2959 256.059 73.415L256.155 76.2602C256.146 76.4438 256.287 76.5996 256.471 76.6084C256.632 76.616 256.765 76.5057 256.803 76.3555L256.831 80.4597H255.06L255.087 76.4596C255.15 76.5518 255.253 76.614 255.373 76.6083C255.557 76.5995 255.698 76.4437 255.69 76.2601L255.831 73.4149C255.831 72.2958 254.698 72.2408 254.121 72.2408C253.545 72.2408 252.411 72.2958 252.411 73.4149L252.506 76.2601C252.497 76.4437 252.639 76.5995 252.822 76.6083C252.983 76.616 253.116 76.5056 253.154 76.3555L253.182 80.4597H252.173C251.855 80.4597 251.597 80.2015 251.597 79.8839V67.8989C251.597 67.5817 251.855 67.3235 252.173 67.3235H263.367C263.684 67.3235 263.942 67.5817 263.942 67.8989V79.884H263.942Z" fill="black"/>
<path d="M258.888 63.7756L260.058 62.6059V65.2358C260.058 65.4756 260.252 65.6699 260.492 65.6699C260.732 65.6699 260.927 65.4756 260.927 65.2358V62.6059L262.096 63.7756C262.182 63.8604 262.292 63.903 262.403 63.903C262.515 63.903 262.626 63.8604 262.711 63.7756C262.881 63.6059 262.881 63.331 262.711 63.1615L260.799 61.2499L260.492 60.9429L260.185 61.2499L258.274 63.1615C258.104 63.3309 258.104 63.6059 258.274 63.7756C258.443 63.9452 258.719 63.9452 258.888 63.7756Z" fill="black"/>
<path d="M254.741 65.5416C254.741 65.5419 254.741 65.5419 254.741 65.5419L255.048 65.8489L255.355 65.5419C255.355 65.5419 255.355 65.5419 255.355 65.5416L257.266 63.6302C257.436 63.4605 257.436 63.1853 257.266 63.0159C257.097 62.8462 256.822 62.8462 256.652 63.0159L255.483 64.1858V61.556C255.483 61.316 255.288 61.1216 255.048 61.1216C254.808 61.1216 254.614 61.316 254.614 61.556V64.1858L253.444 63.0159C253.274 62.8462 252.999 62.8462 252.829 63.0159C252.66 63.1853 252.66 63.4605 252.829 63.6302L254.741 65.5416Z" fill="black"/>
<path d="M305.491 81.541C305.134 81.6062 304.846 81.7609 304.601 82.0201C304.003 82.6508 304.032 83.653 304.666 84.2489C305.065 84.6264 305.627 84.7659 306.17 84.6249C306.335 84.5824 306.596 84.4475 306.741 84.3307C307.236 83.935 307.445 83.274 307.269 82.6645C307.125 82.1657 306.751 81.773 306.267 81.6077C306.018 81.5228 305.727 81.4986 305.491 81.541Z" fill="black"/>
<path d="M303.471 85.022C303.212 85.0402 302.985 85.1039 302.741 85.2252C302.104 85.5436 301.687 86.1652 301.622 86.8914C301.609 87.0188 301.606 87.8512 301.609 89.5841L301.614 92.0933L301.647 92.1919C301.71 92.3738 301.832 92.5148 301.995 92.5891C302.057 92.6194 302.095 92.624 302.236 92.624C302.389 92.624 302.41 92.6209 302.493 92.58C302.665 92.4951 302.791 92.3298 302.838 92.1282C302.853 92.066 302.857 91.5157 302.857 89.6265V87.2038H303.233H303.608V93.658C303.608 99.2783 303.611 100.127 303.631 100.22C303.715 100.626 304.081 100.923 304.496 100.925C304.616 100.925 304.799 100.878 304.916 100.816C305.053 100.743 305.212 100.579 305.282 100.44C305.388 100.221 305.382 100.517 305.382 96.3491V92.586H305.753H306.125V96.3567C306.126 100.511 306.118 100.224 306.223 100.434C306.323 100.637 306.496 100.788 306.728 100.876C306.816 100.91 306.852 100.916 307.011 100.916C307.171 100.916 307.207 100.91 307.295 100.876C307.527 100.788 307.7 100.637 307.798 100.437C307.906 100.218 307.898 100.797 307.898 93.658V87.2038H308.27H308.641V89.6114C308.641 91.2761 308.646 92.0478 308.658 92.11C308.697 92.3238 308.819 92.492 309.002 92.5815C309.11 92.6361 309.125 92.6391 309.254 92.6376C309.357 92.6376 309.412 92.6285 309.472 92.6058C309.687 92.5193 309.831 92.3238 309.869 92.0615C309.889 91.9174 309.889 87.1659 309.869 86.9309C309.788 86.006 309.148 85.2601 308.27 85.063C308.173 85.0417 308.059 85.0311 307.876 85.0266C307.413 85.016 303.62 85.0114 303.471 85.022Z" fill="black"/>
</svg>
