<svg width="346" height="114" viewBox="0 0 346 114" fill="none" xmlns="http://www.w3.org/2000/svg">
<path d="M210.352 13.5254L218.852 1H68.5475L60.4954 13.5254M210.352 13.5254H277.005L262.691 37.6814M210.352 13.5254H169.198H60.4954M262.691 37.6814H280.137M262.691 37.6814L255.475 49.5358M298.925 61.3901L303.845 52.8908M298.925 61.3901H294.899M298.925 61.3901H303.845M60.4954 13.5254L9.1753 98.9662M9.1753 98.9662L1 112.386H273.107M9.1753 98.9662H117.816H225.114L234.758 83.3095M234.758 83.3095H268.059L282.373 61.3901M234.758 83.3095L248.259 61.3901M282.373 61.3901H280.584M282.373 61.3901H283.939M248.259 61.3901H266.269M248.259 61.3901L253.705 52.4434M266.269 61.3901L271.19 52.8908H272.085L272.34 52.4434M266.269 61.3901H269.848M280.137 37.6814L275.663 45.2861V45.9571M280.137 37.6814H283.939M275.663 45.9571V46.6281L275.152 47.5228M275.663 45.9571H279.018M289.531 45.9571H286.399M289.531 45.9571L288.636 47.627M289.531 45.9571L289.722 45.6344M294.451 37.6814H313.239L308.327 45.6344M294.451 37.6814H290.873M294.451 37.6814L289.722 45.6344M290.873 37.6814L286.399 45.9571M290.873 37.6814H287.741M286.399 45.9571H282.373M282.373 45.9571L287.741 37.6814M282.373 45.9571H279.018M287.741 37.6814H283.939M279.018 45.9571L283.939 37.6814M256.875 47.5228H275.152M275.152 47.5228L274.002 49.5358M255.475 49.5358H274.002M255.475 49.5358L254.522 51.1014M274.002 49.5358L273.107 51.1014M254.522 51.1014H273.107M254.522 51.1014L253.705 52.4434M273.107 51.1014L272.34 52.4434M253.705 52.4434H272.34M272.34 52.4434L275.152 52.4834M303.845 52.8908L298.925 52.8209M303.845 52.8908L304.95 51.1014M269.848 61.3901L275.152 52.4834M269.848 61.3901H274.002M275.152 52.4834L279.018 52.5383M274.002 61.3901L279.018 52.5383M274.002 61.3901H277.005M279.018 52.5383L282.373 52.5859M277.005 61.3901L282.373 52.5859M277.005 61.3901H280.584M282.373 52.5859L285.952 52.6367M280.584 61.3901L285.952 52.6367M285.952 52.6367L289.083 52.6812M285.952 52.6367L286.774 51.1014M283.939 61.3901L289.083 52.6812M283.939 61.3901H287.741M289.083 52.6812L292.215 52.7256M287.741 61.3901L292.215 52.7256M287.741 61.3901H291.32M292.215 52.7256L295.793 52.7764M291.32 61.3901L295.793 52.7764M291.32 61.3901H294.899M295.793 52.7764L298.925 52.8209M294.899 61.3901L298.925 52.8209M286.774 51.1014H304.95M286.774 51.1014L287.741 49.2969M304.95 51.1014L306.065 49.2969M287.741 49.2969H306.065M287.741 49.2969L288.636 47.627M306.065 49.2969L307.161 47.5228M288.636 47.627L307.161 47.5228M307.161 47.5228L308.327 45.6344M289.722 45.6344H308.327M273.107 112.386L314.134 113.281L345 61.3901H303.845M273.107 112.386L303.845 61.3901" stroke="#F3858E"/>
<path d="M254.121 70.4082C253.649 70.4082 253.267 70.7907 253.267 71.2629C253.267 71.735 253.649 72.1175 254.121 72.1175C254.593 72.1175 254.976 71.735 254.976 71.2629C254.976 70.7907 254.593 70.4082 254.121 70.4082Z" fill="black"/>
<path d="M257.77 70.4082C257.298 70.4082 256.915 70.7907 256.915 71.2629C256.915 71.735 257.298 72.1175 257.77 72.1175C258.242 72.1175 258.625 71.735 258.625 71.2629C258.625 70.7907 258.242 70.4082 257.77 70.4082Z" fill="black"/>
<path d="M261.418 70.4082C260.946 70.4082 260.563 70.7907 260.563 71.2629C260.563 71.735 260.946 72.1175 261.418 72.1175C261.891 72.1175 262.273 71.735 262.273 71.2629C262.273 70.7907 261.891 70.4082 261.418 70.4082Z" fill="black"/>
<path d="M263.367 66.3389H252.173C251.313 66.3389 250.612 67.0389 250.612 67.8989V79.884C250.612 80.7444 251.313 81.4444 252.173 81.4444H263.367C264.227 81.4444 264.927 80.7444 264.927 79.884V67.8989C264.927 67.0389 264.227 66.3389 263.367 66.3389ZM253.969 80.4598L254.121 77.0338L254.273 80.4598H253.969ZM257.617 80.4598L257.77 77.0338L257.922 80.4598H257.617ZM261.266 80.4598L261.419 77.0338L261.571 80.4598H261.266ZM263.942 79.884C263.942 80.2016 263.684 80.4598 263.367 80.4598H262.357L262.385 76.4597C262.448 76.5519 262.551 76.6141 262.671 76.6084C262.854 76.5996 262.996 76.4438 262.987 76.2602L263.129 73.415C263.129 72.2959 261.995 72.2409 261.419 72.2409C260.842 72.2409 259.708 72.2959 259.708 73.415L259.804 76.2602C259.795 76.4438 259.936 76.5996 260.12 76.6084C260.28 76.6161 260.414 76.5059 260.452 76.3564L260.48 80.4598H258.708L258.736 76.4597C258.799 76.5519 258.902 76.614 259.022 76.6084C259.205 76.5996 259.347 76.4438 259.339 76.2602L259.48 73.415C259.48 72.2959 258.346 72.2408 257.77 72.2408C257.193 72.2408 256.059 72.2959 256.059 73.415L256.155 76.2602C256.146 76.4438 256.287 76.5996 256.471 76.6084C256.632 76.616 256.765 76.5057 256.803 76.3555L256.831 80.4597H255.06L255.087 76.4596C255.15 76.5518 255.253 76.614 255.373 76.6083C255.557 76.5995 255.698 76.4437 255.69 76.2601L255.831 73.4149C255.831 72.2958 254.698 72.2408 254.121 72.2408C253.545 72.2408 252.411 72.2958 252.411 73.4149L252.506 76.2601C252.497 76.4437 252.639 76.5995 252.822 76.6083C252.983 76.616 253.116 76.5056 253.154 76.3555L253.182 80.4597H252.173C251.855 80.4597 251.597 80.2015 251.597 79.8839V67.8989C251.597 67.5817 251.855 67.3235 252.173 67.3235H263.367C263.684 67.3235 263.942 67.5817 263.942 67.8989V79.884H263.942Z" fill="black"/>
<path d="M258.888 63.7756L260.058 62.6059V65.2358C260.058 65.4756 260.252 65.6699 260.492 65.6699C260.732 65.6699 260.927 65.4756 260.927 65.2358V62.6059L262.096 63.7756C262.182 63.8604 262.292 63.903 262.403 63.903C262.515 63.903 262.626 63.8604 262.711 63.7756C262.881 63.6059 262.881 63.331 262.711 63.1615L260.799 61.2499L260.492 60.9429L260.185 61.2499L258.274 63.1615C258.104 63.3309 258.104 63.6059 258.274 63.7756C258.443 63.9452 258.719 63.9452 258.888 63.7756Z" fill="black"/>
<path d="M254.741 65.5416C254.741 65.5419 254.741 65.5419 254.741 65.5419L255.048 65.8489L255.355 65.5419C255.355 65.5419 255.355 65.5419 255.355 65.5416L257.266 63.6302C257.436 63.4605 257.436 63.1853 257.266 63.0159C257.097 62.8462 256.822 62.8462 256.652 63.0159L255.483 64.1858V61.556C255.483 61.316 255.288 61.1216 255.048 61.1216C254.808 61.1216 254.614 61.316 254.614 61.556V64.1858L253.444 63.0159C253.274 62.8462 252.999 62.8462 252.829 63.0159C252.66 63.1853 252.66 63.4605 252.829 63.6302L254.741 65.5416Z" fill="black"/>
<path d="M305.491 81.541C305.134 81.6062 304.846 81.7609 304.601 82.0201C304.003 82.6508 304.032 83.653 304.666 84.2489C305.065 84.6264 305.627 84.7659 306.17 84.6249C306.335 84.5824 306.596 84.4475 306.741 84.3307C307.236 83.935 307.445 83.274 307.269 82.6645C307.125 82.1657 306.751 81.773 306.267 81.6077C306.018 81.5228 305.727 81.4986 305.491 81.541Z" fill="#3B82F6"/>
<path d="M303.471 85.022C303.212 85.0402 302.985 85.1039 302.741 85.2252C302.104 85.5436 301.687 86.1652 301.622 86.8914C301.609 87.0188 301.606 87.8512 301.609 89.5841L301.614 92.0933L301.647 92.1919C301.71 92.3738 301.832 92.5148 301.995 92.5891C302.057 92.6194 302.095 92.624 302.236 92.624C302.389 92.624 302.41 92.6209 302.493 92.58C302.665 92.4951 302.791 92.3298 302.838 92.1282C302.853 92.066 302.857 91.5157 302.857 89.6265V87.2038H303.233H303.608V93.658C303.608 99.2783 303.611 100.127 303.631 100.22C303.715 100.626 304.081 100.923 304.496 100.925C304.616 100.925 304.799 100.878 304.916 100.816C305.053 100.743 305.212 100.579 305.282 100.44C305.388 100.221 305.382 100.517 305.382 96.3491V92.586H305.753H306.125V96.3567C306.126 100.511 306.118 100.224 306.223 100.434C306.323 100.637 306.496 100.788 306.728 100.876C306.816 100.91 306.852 100.916 307.011 100.916C307.171 100.916 307.207 100.91 307.295 100.876C307.527 100.788 307.7 100.637 307.798 100.437C307.906 100.218 307.898 100.797 307.898 93.658V87.2038H308.27H308.641V89.6114C308.641 91.2761 308.646 92.0478 308.658 92.11C308.697 92.3238 308.819 92.492 309.002 92.5815C309.11 92.6361 309.125 92.6391 309.254 92.6376C309.357 92.6376 309.412 92.6285 309.472 92.6058C309.687 92.5193 309.831 92.3238 309.869 92.0615C309.889 91.9174 309.889 87.1659 309.869 86.9309C309.788 86.006 309.148 85.2601 308.27 85.063C308.173 85.0417 308.059 85.0311 307.876 85.0266C307.413 85.016 303.62 85.0114 303.471 85.022Z" fill="#3B82F6"/>
<rect x="67.5" y="49.5" width="19" height="13" fill="white" stroke="#34B9F0"/>
<path d="M74.4448 59H70.4528V58.16L71.8848 56.712C72.1728 56.4133 72.4048 56.1653 72.5808 55.968C72.7568 55.7653 72.8848 55.584 72.9648 55.424C73.0448 55.2587 73.0848 55.0827 73.0848 54.896C73.0848 54.6667 73.0208 54.496 72.8928 54.384C72.7701 54.272 72.6021 54.216 72.3888 54.216C72.1701 54.216 71.9568 54.2667 71.7488 54.368C71.5408 54.4693 71.3221 54.6133 71.0928 54.8L70.4368 54.024C70.6021 53.88 70.7755 53.7467 70.9568 53.624C71.1435 53.5013 71.3568 53.4027 71.5968 53.328C71.8421 53.248 72.1355 53.208 72.4768 53.208C72.8501 53.208 73.1701 53.2773 73.4368 53.416C73.7088 53.5493 73.9168 53.7333 74.0608 53.968C74.2101 54.1973 74.2848 54.4587 74.2848 54.752C74.2848 54.992 74.2475 55.2133 74.1728 55.416C74.1035 55.6187 73.9995 55.816 73.8608 56.008C73.7275 56.1947 73.5621 56.3893 73.3648 56.592C73.1675 56.7893 72.9435 57.0053 72.6928 57.24L71.9568 57.928V57.984H74.4448V59ZM79.1509 57.816H78.4629V59H77.2869V57.816H74.8469V56.976L77.3509 53.288H78.4629V56.88H79.1509V57.816ZM77.2869 55.912C77.2869 55.8213 77.2869 55.7147 77.2869 55.592C77.2923 55.464 77.2976 55.3387 77.3029 55.216C77.3083 55.088 77.3136 54.976 77.3189 54.88C77.3243 54.7787 77.3296 54.7093 77.3349 54.672H77.3029C77.2549 54.7787 77.2043 54.8827 77.1509 54.984C77.0976 55.0853 77.0336 55.1893 76.9589 55.296L75.9109 56.88H77.2869V55.912ZM82.5931 59H81.3851V55.696C81.3851 55.6053 81.3851 55.4933 81.3851 55.36C81.3904 55.2267 81.3957 55.088 81.4011 54.944C81.4064 54.8 81.4117 54.672 81.4171 54.56C81.3904 54.592 81.3317 54.6507 81.2411 54.736C81.1557 54.816 81.0757 54.888 81.0011 54.952L80.3451 55.48L79.7611 54.752L81.6011 53.288H82.5931V59Z" fill="#F3858E"/>
<rect x="189.5" y="49.5" width="19" height="13" fill="white" stroke="#34B9F0"/>
<path d="M196.445 59H192.453V58.16L193.885 56.712C194.173 56.4133 194.405 56.1653 194.581 55.968C194.757 55.7653 194.885 55.584 194.965 55.424C195.045 55.2587 195.085 55.0827 195.085 54.896C195.085 54.6667 195.021 54.496 194.893 54.384C194.77 54.272 194.602 54.216 194.389 54.216C194.17 54.216 193.957 54.2667 193.749 54.368C193.541 54.4693 193.322 54.6133 193.093 54.8L192.437 54.024C192.602 53.88 192.775 53.7467 192.957 53.624C193.143 53.5013 193.357 53.4027 193.597 53.328C193.842 53.248 194.135 53.208 194.477 53.208C194.85 53.208 195.17 53.2773 195.437 53.416C195.709 53.5493 195.917 53.7333 196.061 53.968C196.21 54.1973 196.285 54.4587 196.285 54.752C196.285 54.992 196.247 55.2133 196.173 55.416C196.103 55.6187 195.999 55.816 195.861 56.008C195.727 56.1947 195.562 56.3893 195.365 56.592C195.167 56.7893 194.943 57.0053 194.693 57.24L193.957 57.928V57.984H196.445V59ZM201.151 57.816H200.463V59H199.287V57.816H196.847V56.976L199.351 53.288H200.463V56.88H201.151V57.816ZM199.287 55.912C199.287 55.8213 199.287 55.7147 199.287 55.592C199.292 55.464 199.298 55.3387 199.303 55.216C199.308 55.088 199.314 54.976 199.319 54.88C199.324 54.7787 199.33 54.7093 199.335 54.672H199.303C199.255 54.7787 199.204 54.8827 199.151 54.984C199.098 55.0853 199.034 55.1893 198.959 55.296L197.911 56.88H199.287V55.912ZM205.601 59H201.609V58.16L203.041 56.712C203.329 56.4133 203.561 56.1653 203.737 55.968C203.913 55.7653 204.041 55.584 204.121 55.424C204.201 55.2587 204.241 55.0827 204.241 54.896C204.241 54.6667 204.177 54.496 204.049 54.384C203.926 54.272 203.758 54.216 203.545 54.216C203.326 54.216 203.113 54.2667 202.905 54.368C202.697 54.4693 202.478 54.6133 202.249 54.8L201.593 54.024C201.758 53.88 201.932 53.7467 202.113 53.624C202.3 53.5013 202.513 53.4027 202.753 53.328C202.998 53.248 203.292 53.208 203.633 53.208C204.006 53.208 204.326 53.2773 204.593 53.416C204.865 53.5493 205.073 53.7333 205.217 53.968C205.366 54.1973 205.441 54.4587 205.441 54.752C205.441 54.992 205.404 55.2133 205.329 55.416C205.26 55.6187 205.156 55.816 205.017 56.008C204.884 56.1947 204.718 56.3893 204.521 56.592C204.324 56.7893 204.1 57.0053 203.849 57.24L203.113 57.928V57.984H205.601V59Z" fill="#F3858E"/>
<path d="M27.7501 76C27.4404 76 26.1572 76 26.1572 76V76.9293C26.1572 76.9293 27.0423 76.9293 27.9715 76.9293C29.6973 76.9293 30.1396 77.7698 30.1396 77.7698C30.1396 77.7698 30.1396 77.7698 30.4493 77.5486C29.9184 76.177 28.0601 76 27.7501 76Z" fill="black"/>
<path d="M24.1568 83.167L24 83.958H25.0798L24.9229 83.167H24.1568Z" fill="black"/>
<path d="M27.5586 78.2514V77.4747C27.5586 77.3169 27.4306 77.189 27.2724 77.189H26.7388C26.5804 77.189 26.4527 77.3169 26.4527 77.4747V78.2666C25.7824 78.5033 25.3018 79.1425 25.3018 79.8937V85.3363C25.3018 85.7027 25.5995 85.9998 25.9657 85.9998H28.0898C28.4564 85.9998 28.7533 85.7027 28.7533 85.3363V79.8937C28.7533 79.1258 28.252 78.4754 27.5586 78.2514ZM27.9457 83.9423H26.1094V81.6978H27.9457V83.9423Z" fill="black"/>
<path d="M24.745 79.9246C24.7448 79.169 25.1321 78.4763 25.7461 78.0743L25.7481 78.0729L25.7483 78.0731C25.7514 78.0701 25.875 77.9924 26.0708 77.9258V77.5C25.7469 77.5873 25.5422 77.7204 25.5225 77.7329C25.5223 77.7331 25.5223 77.7331 25.5223 77.7331C25.5219 77.7333 25.5199 77.7345 25.5197 77.7347L25.5199 77.7349C24.794 78.2115 24.3371 79.0299 24.3369 79.9246V83.027H24.745V79.9246ZM25.7513 78.0709L25.7489 78.0727L25.7487 78.0725L25.7513 78.0709Z" fill="black"/>
<path d="M297.75 63C297.44 63 296.157 63 296.157 63V63.9293C296.157 63.9293 297.042 63.9293 297.971 63.9293C299.697 63.9293 300.14 64.7698 300.14 64.7698C300.14 64.7698 300.14 64.7698 300.449 64.5486C299.918 63.177 298.06 63 297.75 63Z" fill="black"/>
<path d="M294.157 70.167L294 70.958H295.08L294.923 70.167H294.157Z" fill="black"/>
<path d="M297.559 65.2514V64.4747C297.559 64.3169 297.431 64.189 297.272 64.189H296.739C296.58 64.189 296.453 64.3169 296.453 64.4747V65.2666C295.782 65.5033 295.302 66.1425 295.302 66.8937V72.3363C295.302 72.7027 295.599 72.9998 295.966 72.9998H298.09C298.456 72.9998 298.753 72.7027 298.753 72.3363V66.8937C298.753 66.1258 298.252 65.4754 297.559 65.2514ZM297.946 70.9423H296.109V68.6978H297.946V70.9423Z" fill="black"/>
<path d="M294.745 66.9246C294.745 66.169 295.132 65.4763 295.746 65.0743L295.748 65.0729L295.748 65.0731C295.751 65.0701 295.875 64.9924 296.071 64.9258V64.5C295.747 64.5873 295.542 64.7204 295.522 64.7329C295.522 64.7331 295.522 64.7331 295.522 64.7331C295.522 64.7333 295.52 64.7345 295.52 64.7347L295.52 64.7349C294.794 65.2115 294.337 66.0299 294.337 66.9246V70.027H294.745V66.9246ZM295.751 65.0709L295.749 65.0727L295.749 65.0725L295.751 65.0709Z" fill="black"/>
<path d="M320.33 42.5336C320.33 43.2824 320.94 43.889 321.685 43.889C322.434 43.889 323.041 43.2824 323.041 42.5336C323.041 41.7882 322.434 41.1782 321.685 41.1782C320.94 41.1782 320.33 41.7882 320.33 42.5336Z" fill="black"/>
<path d="M321 56.4602L320.502 56.4575L320.503 56.4602H320.496L321.119 57.9952H322.99L322.302 56.4602H321Z" fill="black"/>
<path d="M316.059 38H316.007H316V57.9272V57.9881V57.995H318.357L320.082 58L320.076 57.995H320.086L318.318 56.3381V48.1584H320.503L321.682 47.0949L322.025 46.788L323.031 48.9547L321.15 53.5726L320.439 55.3112H320.442L320.439 55.318H322.245L323.687 52.1098L324.829 49.5833L325.792 53.6409H330.611C330.889 53.6409 331.055 53.336 330.902 53.1055L330.306 52.2042C330.292 52.1873 330.279 52.1738 330.265 52.1567C330.201 52.089 330.113 52.0483 330.018 52.0483H327.212L326.504 48.3312L325.546 46.2613L325.152 45.4037H326.633L327.605 47.2402C327.666 47.3554 327.785 47.4164 327.9 47.4164C327.961 47.4164 328.022 47.3994 328.076 47.3656L328.75 46.9488C328.9 46.8539 328.95 46.6575 328.862 46.5049L327.429 43.9636H323.81C322.99 43.9636 322.211 44.3058 321.659 44.909L320.117 46.5862H318.318V39.8772H330.627H330.658V51.6484C330.824 51.7027 330.97 51.8112 331.068 51.9603L331.665 52.8582C331.824 53.102 331.841 53.4104 331.702 53.6679C331.563 53.9255 331.299 54.0848 331.007 54.0848H330.658V56.3381L332.43 57.995H332.979V38H316.059Z" fill="black"/>
</svg>
