<?xml version="1.0" encoding="UTF-8"?>
<svg id="_レイヤー_1" data-name="レイヤー 1" xmlns="http://www.w3.org/2000/svg" viewBox="0 0 591.61 333.99">
  <defs>
    <style>
      .cls-1 {
        stroke: #e2b953;
      }

      .cls-1, .cls-2, .cls-3, .cls-4, .cls-5 {
        fill: none;
        stroke-miterlimit: 10;
      }

      .cls-2 {
        stroke-width: 3px;
      }

      .cls-2, .cls-3, .cls-4, .cls-5 {
        stroke: #965045;
      }

      .cls-3, .cls-6, .cls-7 {
        isolation: isolate;
      }

      .cls-3, .cls-7 {
        font-family: BIZ-UDGothic, 'BIZ UDGothic';
        font-size: 22.26px;
        letter-spacing: .3em;
      }

      .cls-8 {
        fill: #ef4444;
      }

      .cls-4 {
        stroke-width: 2px;
      }

      .cls-7 {
        fill: #965045;
      }
    </style>
  </defs>
  <g>
    <polyline class="cls-2" points="1.5 333.99 1.5 1.5 172.94 1.5 172.94 63.3 413.02 63.3 413.02 227.62 590.11 227.62 590.11 332.21 411.83 332.21 411.83 265.05 336.96 265.05 336.96 331.61 2.1 331.61"/>
    <g>
      <line class="cls-4" x1="1.8" y1="63.9" x2="145.08" y2="63.9"/>
      <line class="cls-4" x1="129.71" y1="64.57" x2="129.71" y2="68.8"/>
      <line class="cls-4" x1="129.71" y1="89.53" x2="129.71" y2="100.45"/>
      <line class="cls-4" x1="134.83" y1="100.67" x2="2.24" y2="100.67"/>
      <line class="cls-4" x1="166.03" y1="63.46" x2="171.6" y2="63.46"/>
      <line class="cls-4" x1="154.89" y1="100.67" x2="300.63" y2="100.67"/>
      <polyline class="cls-4" points="323.36 100.45 336.29 100.45 336.29 266.24"/>
      <line class="cls-4" x1="336.96" y1="123.4" x2="369.04" y2="123.4"/>
      <line class="cls-4" x1="412.72" y1="228.58" x2="412.72" y2="241.74"/>
      <line class="cls-4" x1="157.11" y1="101.12" x2="157.11" y2="331.54"/>
    </g>
    <g>
      <line class="cls-5" x1="336.96" y1="130.01" x2="368.9" y2="130.01"/>
      <line class="cls-5" x1="336.96" y1="136.4" x2="368.9" y2="136.4"/>
      <line class="cls-5" x1="336.96" y1="142.49" x2="369.2" y2="142.49"/>
      <line class="cls-5" x1="336.8" y1="149.03" x2="369.34" y2="149.03"/>
      <line class="cls-5" x1="337.1" y1="155.86" x2="369.2" y2="155.86"/>
      <line class="cls-5" x1="336.96" y1="162.25" x2="368.9" y2="162.25"/>
      <line class="cls-5" x1="337.26" y1="168.34" x2="369.04" y2="168.34"/>
      <line class="cls-5" x1="337.1" y1="174.73" x2="369.2" y2="174.73"/>
      <line class="cls-5" x1="336.96" y1="180.97" x2="369.04" y2="180.97"/>
      <line class="cls-5" x1="336.96" y1="187.36" x2="369.04" y2="187.36"/>
      <line class="cls-5" x1="337.26" y1="194.05" x2="369.2" y2="194.05"/>
      <line class="cls-5" x1="336.96" y1="199.69" x2="368.9" y2="199.69"/>
      <line class="cls-5" x1="336.96" y1="206.38" x2="369.2" y2="206.38"/>
      <line class="cls-5" x1="337.1" y1="212.76" x2="368.9" y2="212.76"/>
      <rect class="cls-5" x="369.2" y="122.88" width="3.42" height="96.42"/>
    </g>
  </g>
  <g>
    <path d="M351.92,97.46c-.18.02-1,.07-1.83.1-1.09.04-1.56.09-1.72.14-.29.1-.69.52-.91.91-.09.17-.3.44-.46.61l-.31.3h-.57c-.65,0-.83.06-.95.3-.18.33,0,.77.33.89.1.03.41.06.69.06h.52l.21.22c.3.31.54.41.96.41.4,0,.63-.09.89-.34.15-.14.17-.14.44-.09.78.15,2.17.72,3.51,1.41.43.22.78.4.78.4,0,0,0-.23-.01-.52-.01-.39-.04-.54-.11-.61-.11-.13-1.17-.82-2.12-1.38l-.79-.46h-.66c-.44,0-.68-.04-.72-.12-.03-.08-.04-.14,0-.18.11-.11,2.86-1.09,3.68-1.31l.21-.06-.13-.23c-.19-.33-.37-.52-.5-.51-.06,0-.25.02-.43.04h-.01ZM348.04,99.67c.32.11.42.52.19.78-.1.11-.17.14-.35.14s-.25-.02-.35-.14c-.22-.25-.12-.66.18-.78q.17-.07.34,0Z"/>
    <path d="M344.15,99.62c-1.98.29-3.07,1.88-2.84,4.16.07.68.21,1.38.61,2.96.41,1.65.51,2.2.54,3.12.02.6,0,.89-.06,1.26-.04.26-.08.47-.07.48,0,0,.14.06.29.1s.36.13.46.19c.11.06.2.09.21.08.06-.06.18-.71.23-1.21.11-1.07-.03-2.13-.57-4.33-.45-1.8-.54-2.27-.57-2.98-.04-1,.11-1.6.57-2.08.13-.14.33-.31.45-.37.26-.15.84-.33,1.09-.33.19,0,.2,0,.15-.11-.06-.14-.04-.73,0-.88.04-.12.02-.13-.5-.06h0Z"/>
    <path d="M346.7,102.12v.6l-.43.21c-.82.41-1.5,1.26-1.71,2.12-.06.22-.08.58-.08,1.13v.82h6.79v-.82c0-.9-.06-1.21-.3-1.72-.3-.61-.8-1.1-1.49-1.44l-.42-.21v-.53c0-.29-.01-.58-.03-.65-.03-.11-.04-.11-.11-.04-.15.13-.54.29-.85.31-.39.04-.8-.06-1.09-.23-.13-.09-.24-.15-.25-.15s-.02.26-.02.6v.02Z"/>
    <path d="M344.48,110.34v2.84h6.79v-5.67h-6.79v2.84h0ZM350.02,110.37v1.36h-4.28v-2.71h4.28v1.36h0Z"/>
    <path d="M341.59,112.14c-.07.03-.47.71-1.07,1.76l-.97,1.71.14.15c.18.18,1.09.63,1.72.85.26.09.63.18.82.19.32.02.34.01.39-.1.03-.07.26-.9.52-1.87.32-1.2.45-1.78.42-1.88-.12-.48-1.48-1.05-1.96-.8ZM340.97,115.37c.52.11,1.02.4,1.21.67.11.18.11.26,0,.26-.31,0-2.04-.72-2.01-.83.01-.06.3-.18.41-.18.03,0,.2.03.39.07h0Z"/>
    <path d="M344.48,116.21c0,2.86,0,2.81.39,3.25.13.14.34.31.52.4l.29.14h4.42l.29-.14c.17-.08.39-.24.52-.4.39-.43.39-.39.39-3.25v-2.52h-6.79v2.52h-.01Z"/>
  </g>
  <g>
    <path class="cls-8" d="M81.1,12.84c-1.16.21-2.09.95-2.55,2.02-.2.46-.28.88-.25,1.42,0,.3.03.52.08.69.26.98.88,1.76,1.77,2.2,1.67.83,3.68.14,4.5-1.53.2-.42.3-.73.33-1.17.11-1.22-.46-2.44-1.48-3.11-.73-.47-1.61-.67-2.41-.53h.01Z"/>
    <path class="cls-8" d="M77.56,20.28c-1.22.19-2.24.87-2.97,1.97-.34.52-.25.25-1.58,4.62-.52,1.72-1.09,3.58-1.5,4.93-.17.56-.33,1.1-.34,1.22-.13.75.26,1.44.93,1.65.52.17,1.05.01,1.4-.39.28-.3.23-.2,1.21-3.49.22-.73.53-1.77.69-2.31.17-.55.46-1.58.67-2.28l.39-1.28h.71c.58,0,.71,0,.71.04,0,.02-.1.41-.23.86-.22.8-.9,3.23-2.66,9.54-1.33,4.8-1.37,4.93-1.39,4.98-.01.06.1.06,2.06.06h2.08v6.13c0,6.68,0,6.32.18,6.7.17.33.51.61.89.73.25.09.79.08,1.04-.02.47-.17.78-.48.95-.97.06-.17.06-.46.07-6.4v-6.23h1.59v6.24c0,6.23,0,6.24.07,6.43.2.61.68.96,1.37,1.01.82.06,1.5-.47,1.62-1.25.02-.14.03-2.25.03-6.29v-6.07h2.06c1.34,0,2.06,0,2.06-.03,0-.01-.23-.86-.52-1.87s-.64-2.3-.8-2.86c-.15-.56-.52-1.85-.8-2.86-.88-3.15-1.09-3.89-1.32-4.7-.12-.43-.36-1.31-.54-1.94-.18-.64-.33-1.17-.33-1.18,0-.02.29-.03.74-.03h.74l.07.23c.04.13.1.32.13.43.03.11.18.6.32,1.08s.39,1.3.54,1.81c.14.51.37,1.26.5,1.66.47,1.58.68,2.3.85,2.88.1.33.21.67.24.77.26.69.87,1.08,1.51.97.73-.13,1.2-.78,1.15-1.58-.02-.24-.04-.33-.77-2.71-.64-2.12-1.67-5.52-1.95-6.42-.14-.46-.3-.93-.39-1.1-.19-.4-.54-.86-.98-1.28-.79-.76-1.7-1.21-2.69-1.36-.45-.07-7.39-.07-7.8,0l.03-.02Z"/>
  </g>
  <g>
    <g class="cls-6">
      <text class="cls-7" transform="translate(51.06 305.81)"><tspan x="0" y="0">321</tspan></text>
      <text class="cls-3" transform="translate(51.06 305.81)"><tspan x="0" y="0">321</tspan></text>
    </g>
    <rect class="cls-1" x="38.26" y="277.57" width="72.35" height="39.57" rx="16" ry="16"/>
  </g>
  <g>
    <g class="cls-6">
      <text class="cls-7" transform="translate(226.3 306.92)"><tspan x="0" y="0">322</tspan></text>
      <text class="cls-3" transform="translate(226.3 306.92)"><tspan x="0" y="0">322</tspan></text>
    </g>
    <rect class="cls-1" x="213.48" y="278.68" width="72.35" height="39.57" rx="16" ry="16"/>
  </g>
  <g>
    <g class="cls-6">
      <text class="cls-7" transform="translate(432.39 286.57)"><tspan x="0" y="0">ギャラリー</tspan></text>
      <text class="cls-3" transform="translate(432.39 286.57)"><tspan x="0" y="0">ギャラリー</tspan></text>
    </g>
    <rect class="cls-1" x="417.81" y="258.33" width="167.15" height="39.57" rx="16" ry="16"/>
  </g>
</svg>