<svg width="307" height="124" viewBox="0 0 307 124" fill="none" xmlns="http://www.w3.org/2000/svg">
<path d="M135 86L116 123.5H273L291.199 86M135 86L35 60.4361M135 86H187.528M35 60.4361L2 52L99 1L131 9.42512M35 60.4361L51 51.9343M131 9.42512L192.5 25.6171M131 9.42512L67 43.4324M36.5 36.697L33 38.5L43 41.5L46 39.8636M36.5 36.697L46 39.8636M36.5 36.697L39.7941 35M46 39.8636L49 38.2273M39.7941 35L49 38.2273M39.7941 35L43 33.3485M49 38.2273L52.5 36.3182M43 33.3485L52.5 36.3182M43 33.3485L46.25 31.6742M52.5 36.3182L56 34.4091M46.25 31.6742L49.5 30L59.5 32.5L56 34.4091M46.25 31.6742L56 34.4091M51 51.9343L111.5 67.5M51 51.9343L67 43.4324M111.5 67.5L118 64M111.5 67.5L135 55.3488M192.5 25.6171L168.552 38M192.5 25.6171L221.5 33.2524M127 59.4854L67 43.4324M127 59.4854L118 64M127 59.4854L135 55.3488M118 64L138 70L152.5 61L135 55.3488M135 55.3488L151.5 46.8171M151.5 46.8171L164.5 51M151.5 46.8171L154.666 45.18M164.5 51L167.903 49.25M164.5 51L163 52L165.5 53M182 42L168.552 38M182 42L179 43.5429M182 42L184 43L182 44.0811M168.552 38L165.5 39.5781M165.5 39.5781L179 43.5429M165.5 39.5781L161.5 41.6464M179 43.5429L175.194 45.5M161.5 41.6464L175.194 45.5M161.5 41.6464L157.832 43.5429M175.194 45.5L171.306 47.5M157.832 43.5429L171.306 47.5M157.832 43.5429L154.666 45.18M171.306 47.5L167.903 49.25M154.666 45.18L167.903 49.25M165.5 53L177 56.5M165.5 53L168.969 51.125M177 56.5L180.35 54.75M177 56.5L163 64L195 73L187.528 86M221.5 33.2524L306 55.5L291.199 86M221.5 33.2524L195 47.0965M182 44.0811L195 47.0965M182 44.0811L179 45.7027M195 47.0965L190.878 49.25M179 45.7027L190.878 49.25M179 45.7027L175.675 47.5M190.878 49.25L187.528 51M175.675 47.5L187.528 51M175.675 47.5L172.438 49.25M187.528 51L184.5 52.5M172.438 49.25L184.5 52.5M172.438 49.25L168.969 51.125M184.5 52.5L180.35 54.75M168.969 51.125L180.35 54.75M187.528 86H291.199" stroke="#6FBA2D"/>
<path d="M128.922 58.5796C128.394 58.5796 127.967 59.0071 127.967 59.5349C127.967 60.0626 128.394 60.4901 128.922 60.4901C129.45 60.4901 129.878 60.0626 129.878 59.5349C129.878 59.0071 129.45 58.5796 128.922 58.5796Z" fill="black"/>
<path d="M133.001 58.5796C132.473 58.5796 132.045 59.0071 132.045 59.5349C132.045 60.0626 132.473 60.4901 133.001 60.4901C133.528 60.4901 133.956 60.0626 133.956 59.5349C133.956 59.0071 133.528 58.5796 133.001 58.5796Z" fill="black"/>
<path d="M137.079 58.5796C136.551 58.5796 136.123 59.0071 136.123 59.5349C136.123 60.0626 136.551 60.4901 137.079 60.4901C137.606 60.4901 138.034 60.0626 138.034 59.5349C138.034 59.0071 137.606 58.5796 137.079 58.5796Z" fill="black"/>
<path d="M139.256 54.0312H126.744C125.783 54.0312 125 54.8137 125 55.775V69.1711C125 70.1328 125.783 70.9152 126.744 70.9152H139.256C140.218 70.9152 141 70.1328 141 69.1711V55.775C141 54.8137 140.218 54.0312 139.256 54.0312ZM128.752 69.8147L128.922 65.9853L129.092 69.8147H128.752ZM132.83 69.8147L133 65.9853L133.17 69.8147H132.83ZM136.908 69.8147L137.079 65.9853L137.249 69.8147H136.908ZM139.9 69.1711C139.9 69.5261 139.611 69.8147 139.256 69.8147H138.128L138.159 65.3437C138.229 65.4467 138.344 65.5162 138.478 65.5098C138.683 65.5 138.842 65.3259 138.832 65.1207L138.99 61.9405C138.99 60.6896 137.723 60.6281 137.079 60.6281C136.434 60.6281 135.167 60.6896 135.167 61.9405L135.273 65.1207C135.264 65.3259 135.422 65.5 135.627 65.5098C135.806 65.5184 135.955 65.3953 135.998 65.2282L136.03 69.8146H134.049L134.08 65.3436C134.15 65.4466 134.266 65.5161 134.4 65.5098C134.605 65.5 134.763 65.3258 134.754 65.1206L134.912 61.9405C134.912 60.6896 133.644 60.6281 133 60.6281C132.356 60.6281 131.088 60.6896 131.088 61.9405L131.195 65.1206C131.185 65.3258 131.343 65.5 131.549 65.5098C131.728 65.5184 131.877 65.395 131.92 65.2272L131.951 69.8146H129.971L130.002 65.3436C130.072 65.4466 130.188 65.5161 130.322 65.5098C130.527 65.4999 130.685 65.3258 130.675 65.1206L130.833 61.9404C130.833 60.6896 129.566 60.628 128.922 60.628C128.277 60.628 127.01 60.6896 127.01 61.9404L127.116 65.1206C127.107 65.3258 127.265 65.4999 127.47 65.5098C127.65 65.5183 127.799 65.395 127.841 65.2272L127.873 69.8145H126.744C126.389 69.8145 126.101 69.5259 126.101 69.171V55.775C126.101 55.4204 126.389 55.1318 126.744 55.1318H139.256C139.611 55.1318 139.899 55.4204 139.899 55.775V69.1711H139.9Z" fill="black"/>
<path d="M134.25 51.1662L135.557 49.8589V52.7983C135.557 53.0663 135.775 53.2836 136.043 53.2836C136.311 53.2836 136.529 53.0663 136.529 52.7983V49.8589L137.836 51.1662C137.931 51.261 138.055 51.3086 138.179 51.3086C138.303 51.3086 138.428 51.261 138.522 51.1662C138.712 50.9766 138.712 50.6693 138.522 50.4799L136.386 48.3432L136.043 48L135.7 48.3432L133.563 50.4799C133.373 50.6692 133.373 50.9766 133.563 51.1662C133.753 51.3558 134.06 51.3558 134.25 51.1662Z" fill="black"/>
<path d="M129.615 53.1406C129.615 53.1409 129.615 53.1409 129.615 53.1409L129.958 53.4841L130.301 53.1409C130.301 53.1409 130.302 53.1409 130.302 53.1406L132.437 51.0042C132.627 50.8145 132.627 50.5069 132.437 50.3175C132.248 50.1279 131.941 50.1279 131.751 50.3175L130.444 51.6252V48.6858C130.444 48.4175 130.226 48.2002 129.958 48.2002C129.69 48.2002 129.473 48.4175 129.473 48.6858V51.6252L128.165 50.3175C127.976 50.1279 127.668 50.1279 127.478 50.3175C127.289 50.5069 127.289 50.8145 127.478 51.0042L129.615 53.1406Z" fill="black"/>
<rect x="61" y="13.7148" width="86" height="24" fill="white" stroke="#2C893A" stroke-width="2"/>
<path d="M74.4092 27.3388C74.4092 27.8428 74.2852 28.2828 74.0372 28.6588C73.7892 29.0348 73.4292 29.3268 72.9572 29.5348C72.4932 29.7348 71.9252 29.8348 71.2532 29.8348C70.9572 29.8348 70.6652 29.8148 70.3772 29.7748C70.0972 29.7348 69.8252 29.6788 69.5612 29.6068C69.3052 29.5268 69.0612 29.4308 68.8292 29.3188V27.6268C69.2372 27.8028 69.6572 27.9668 70.0892 28.1188C70.5292 28.2628 70.9652 28.3348 71.3972 28.3348C71.6932 28.3348 71.9292 28.2948 72.1052 28.2148C72.2892 28.1348 72.4212 28.0268 72.5012 27.8908C72.5892 27.7548 72.6332 27.5988 72.6332 27.4228C72.6332 27.2068 72.5572 27.0228 72.4052 26.8708C72.2612 26.7188 72.0652 26.5788 71.8172 26.4508C71.5692 26.3148 71.2852 26.1708 70.9652 26.0188C70.7652 25.9228 70.5492 25.8108 70.3172 25.6828C70.0852 25.5468 69.8612 25.3828 69.6452 25.1908C69.4372 24.9908 69.2652 24.7508 69.1292 24.4708C68.9932 24.1908 68.9252 23.8548 68.9252 23.4628C68.9252 22.9508 69.0412 22.5148 69.2732 22.1548C69.5132 21.7868 69.8492 21.5068 70.2812 21.3148C70.7212 21.1228 71.2372 21.0268 71.8292 21.0268C72.2772 21.0268 72.7012 21.0788 73.1012 21.1828C73.5092 21.2868 73.9332 21.4348 74.3732 21.6268L73.7852 23.0428C73.3932 22.8828 73.0412 22.7588 72.7292 22.6708C72.4172 22.5828 72.0972 22.5388 71.7692 22.5388C71.5452 22.5388 71.3532 22.5748 71.1932 22.6468C71.0332 22.7188 70.9092 22.8188 70.8212 22.9468C70.7412 23.0748 70.7012 23.2268 70.7012 23.4028C70.7012 23.6028 70.7612 23.7748 70.8812 23.9188C71.0012 24.0548 71.1812 24.1868 71.4212 24.3148C71.6612 24.4428 71.9612 24.5948 72.3212 24.7708C72.7612 24.9788 73.1332 25.1948 73.4372 25.4188C73.7492 25.6428 73.9892 25.9068 74.1572 26.2108C74.3252 26.5148 74.4092 26.8908 74.4092 27.3388ZM79.2665 29.7148H77.4545V22.6588H75.1265V21.1468H81.5945V22.6588H79.2665V29.7148ZM87.316 29.7148L86.692 27.6748H83.572L82.948 29.7148H80.992L84.016 21.1108H86.236L89.272 29.7148H87.316ZM85.636 24.1588C85.596 24.0228 85.544 23.8508 85.48 23.6428C85.416 23.4348 85.352 23.2228 85.288 23.0068C85.224 22.7908 85.172 22.6028 85.132 22.4428C85.092 22.6028 85.036 22.8028 84.964 23.0428C84.9 23.2748 84.836 23.4988 84.772 23.7148C84.716 23.9228 84.672 24.0708 84.64 24.1588L84.028 26.1508H86.26L85.636 24.1588ZM92.1452 29.7148H90.3572V21.1468H95.2652V22.6348H92.1452V24.8428H95.0492V26.3308H92.1452V29.7148ZM98.7311 29.7148H96.9431V21.1468H101.851V22.6348H98.7311V24.8428H101.635V26.3308H98.7311V29.7148ZM114.422 25.4188C114.422 26.0828 114.338 26.6868 114.17 27.2308C114.01 27.7668 113.762 28.2308 113.426 28.6228C113.098 29.0148 112.674 29.3148 112.154 29.5228C111.642 29.7308 111.038 29.8348 110.342 29.8348C109.646 29.8348 109.038 29.7308 108.518 29.5228C108.006 29.3068 107.582 29.0068 107.246 28.6228C106.918 28.2308 106.67 27.7628 106.502 27.2188C106.342 26.6748 106.262 26.0708 106.262 25.4068C106.262 24.5188 106.406 23.7468 106.694 23.0908C106.99 22.4348 107.438 21.9268 108.038 21.5668C108.646 21.1988 109.418 21.0148 110.354 21.0148C111.282 21.0148 112.046 21.1988 112.646 21.5668C113.246 21.9268 113.69 22.4388 113.978 23.1028C114.274 23.7588 114.422 24.5308 114.422 25.4188ZM108.17 25.4188C108.17 26.0188 108.246 26.5348 108.398 26.9668C108.55 27.3988 108.786 27.7308 109.106 27.9628C109.426 28.1948 109.838 28.3108 110.342 28.3108C110.862 28.3108 111.278 28.1948 111.59 27.9628C111.91 27.7308 112.142 27.3988 112.286 26.9668C112.438 26.5348 112.514 26.0188 112.514 25.4188C112.514 24.5148 112.346 23.8068 112.01 23.2948C111.674 22.7828 111.122 22.5268 110.354 22.5268C109.842 22.5268 109.426 22.6428 109.106 22.8748C108.786 23.1068 108.55 23.4388 108.398 23.8708C108.246 24.3028 108.17 24.8188 108.17 25.4188ZM123.793 29.7148H121.489L117.757 23.2348H117.709C117.717 23.4348 117.725 23.6388 117.733 23.8468C117.741 24.0468 117.749 24.2508 117.757 24.4588C117.773 24.6588 117.785 24.8628 117.793 25.0708C117.801 25.2708 117.809 25.4748 117.817 25.6828V29.7148H116.197V21.1468H118.489L122.209 27.5668H122.245C122.237 27.3668 122.229 27.1708 122.221 26.9788C122.213 26.7788 122.205 26.5828 122.197 26.3908C122.197 26.1908 122.193 25.9948 122.185 25.8028C122.177 25.6028 122.169 25.4028 122.161 25.2028V21.1468H123.793V29.7148ZM125.959 29.7148V21.1468H127.771V28.2148H131.251V29.7148H125.959ZM135.045 24.6748L136.833 21.1468H138.789L135.945 26.3788V29.7148H134.145V26.4388L131.301 21.1468H133.269L135.045 24.6748Z" fill="#259333"/>
<rect x="171.5" y="95.2148" width="66" height="17" fill="white" stroke="#2C893A"/>
<path d="M178.334 100.291H179.302V102.611C179.302 104.019 179.174 106.115 178.326 107.435C178.142 107.275 177.718 107.035 177.47 106.939C178.27 105.707 178.334 103.891 178.334 102.611V100.291ZM178.87 100.291H184.446V102.339H178.87V101.563H183.478V101.067H178.87V100.291ZM179.126 102.691H184.654V103.443H179.126V102.691ZM179.51 105.179H184.262V105.939H179.51V105.179ZM178.966 106.491H184.838V107.243H178.966V106.491ZM181.398 104.579H182.334V107.003H181.398V104.579ZM179.35 104.051C180.47 104.027 182.198 103.979 183.83 103.915L183.806 104.611C182.222 104.691 180.542 104.755 179.39 104.795L179.35 104.051ZM180.806 102.859L181.782 103.179C181.43 103.683 181.054 104.227 180.758 104.579L180.014 104.283C180.294 103.899 180.63 103.299 180.806 102.859ZM182.39 103.651L183.126 103.203C183.67 103.571 184.382 104.131 184.718 104.531L183.926 105.027C183.614 104.635 182.942 104.051 182.39 103.651ZM189.006 102.323H192.334V103.291H189.006V102.323ZM185.582 106.075H192.894V107.043H185.582V106.075ZM188.462 100.019H189.494V106.611H188.462V100.019ZM199.142 100.235C199.342 100.531 199.622 101.035 199.774 101.331L199.134 101.611C198.966 101.283 198.726 100.811 198.51 100.499L199.142 100.235ZM200.086 99.8748C200.294 100.179 200.59 100.683 200.734 100.963L200.094 101.243C199.934 100.907 199.67 100.443 199.454 100.139L200.086 99.8748ZM195.686 100.587C195.654 100.827 195.63 101.187 195.63 101.419C195.63 101.907 195.63 104.851 195.63 105.451C195.63 105.803 195.79 105.891 196.15 105.955C196.39 105.995 196.718 106.003 197.07 106.003C197.91 106.003 199.198 105.907 199.862 105.731V106.899C199.102 107.011 197.894 107.059 197.014 107.059C196.494 107.059 196.006 107.027 195.662 106.971C194.974 106.843 194.566 106.467 194.566 105.771C194.566 104.851 194.566 101.915 194.566 101.419C194.566 101.235 194.542 100.827 194.51 100.587H195.686ZM195.158 103.043C196.19 102.819 197.558 102.387 198.398 102.043C198.678 101.923 198.95 101.795 199.27 101.611L199.694 102.619C199.39 102.747 199.03 102.899 198.766 103.003C197.822 103.363 196.254 103.835 195.166 104.091L195.158 103.043ZM206.71 100.307C206.67 100.563 206.654 100.867 206.662 101.123C206.686 102.443 206.742 104.643 206.758 106.259C206.766 106.771 206.47 107.067 205.862 107.067C205.374 107.067 204.934 107.051 204.478 107.019L204.382 105.979C204.75 106.035 205.182 106.067 205.454 106.067C205.654 106.067 205.726 105.963 205.726 105.739C205.726 104.635 205.71 102.443 205.646 101.123C205.622 100.779 205.606 100.523 205.566 100.307H206.71ZM202.142 101.643C202.366 101.667 202.75 101.699 203.022 101.699C203.582 101.699 207.278 101.699 207.67 101.699C207.926 101.699 208.302 101.659 208.494 101.635V102.691C208.246 102.683 207.934 102.675 207.718 102.675C207.406 102.675 203.494 102.675 203.054 102.675C202.758 102.675 202.422 102.691 202.142 102.707V101.643ZM201.71 105.451C203.382 104.651 204.782 103.419 205.358 102.475H205.878L205.886 103.331C205.238 104.299 203.822 105.555 202.446 106.283L201.71 105.451ZM211.742 105.955C211.742 105.339 211.742 102.027 211.742 101.355C211.742 101.067 211.718 100.675 211.662 100.387H212.91C212.878 100.675 212.838 101.019 212.838 101.355C212.838 102.235 212.846 105.363 212.846 105.955C212.846 106.179 212.878 106.739 212.918 107.067H211.662C211.718 106.755 211.742 106.267 211.742 105.955ZM212.606 102.459C213.67 102.755 215.398 103.387 216.182 103.771L215.734 104.883C214.822 104.411 213.478 103.899 212.606 103.611V102.459ZM217.966 103.011C218.262 103.035 218.838 103.067 219.254 103.067C220.198 103.067 222.838 103.067 223.55 103.067C223.926 103.067 224.278 103.027 224.494 103.011V104.275C224.302 104.267 223.894 104.227 223.558 104.227C222.83 104.227 220.198 104.227 219.254 104.227C218.806 104.227 218.27 104.251 217.966 104.275V103.011ZM231.186 100.851C231.186 101.107 231.394 101.315 231.65 101.315C231.906 101.315 232.114 101.107 232.114 100.851C232.114 100.595 231.906 100.387 231.65 100.387C231.394 100.387 231.186 100.595 231.186 100.851ZM230.69 100.851C230.69 100.323 231.122 99.8908 231.65 99.8908C232.178 99.8908 232.61 100.323 232.61 100.851C232.61 101.379 232.178 101.811 231.65 101.811C231.122 101.811 230.69 101.379 230.69 100.851ZM231.666 101.483C231.586 101.635 231.53 101.867 231.49 102.035C231.306 102.819 230.954 104.067 230.282 104.955C229.562 105.915 228.498 106.707 227.066 107.163L226.194 106.203C227.786 105.835 228.69 105.139 229.33 104.331C229.866 103.667 230.17 102.755 230.274 102.067C229.786 102.067 227.146 102.067 226.546 102.067C226.178 102.067 225.802 102.091 225.594 102.107V100.971C225.834 101.003 226.282 101.043 226.546 101.043C227.146 101.043 229.802 101.043 230.25 101.043C230.41 101.043 230.666 101.035 230.874 100.979L231.666 101.483Z" fill="#259333"/>
<rect x="196.5" y="67.2148" width="19" height="13" fill="white" stroke="#2C893A"/>
<path d="M202.437 76.7148H201.229V73.4108C201.229 73.3202 201.229 73.2082 201.229 73.0748C201.234 72.9415 201.239 72.8028 201.245 72.6588C201.25 72.5148 201.255 72.3868 201.261 72.2748C201.234 72.3068 201.175 72.3655 201.085 72.4508C200.999 72.5308 200.919 72.6028 200.845 72.6668L200.189 73.1948L199.605 72.4668L201.445 71.0028H202.437V76.7148ZM204.599 76.7148L206.743 72.0188H203.927V71.0028H208.023V71.7628L205.863 76.7148H204.599ZM211.593 76.7148H210.385V73.4108C210.385 73.3202 210.385 73.2082 210.385 73.0748C210.39 72.9415 210.396 72.8028 210.401 72.6588C210.406 72.5148 210.412 72.3868 210.417 72.2748C210.39 72.3068 210.332 72.3655 210.241 72.4508C210.156 72.5308 210.076 72.6028 210.001 72.6668L209.345 73.1948L208.761 72.4668L210.601 71.0028H211.593V76.7148Z" fill="#259333"/>
</svg>
