<?xml version="1.0" encoding="UTF-8"?>
<svg id="_トレース" data-name="トレース" xmlns="http://www.w3.org/2000/svg" viewBox="0 0 595 842">
  <defs>
    <style>
      .cls-1 {
        font-size: 18px;
        letter-spacing: .3em;
      }

      .cls-1, .cls-2, .cls-3, .cls-4, .cls-5, .cls-6, .cls-7, .cls-8 {
        stroke-miterlimit: 10;
      }

      .cls-1, .cls-2, .cls-7 {
        fill: #028760;
        font-family: BIZ-UDGothic, 'BIZ UDGothic';
        stroke: #028760;
      }

      .cls-2 {
        letter-spacing: .2em;
      }

      .cls-2, .cls-7 {
        font-size: 21px;
      }

      .cls-3, .cls-4, .cls-5, .cls-8 {
        stroke: #6fba2d;
      }

      .cls-3, .cls-5, .cls-6, .cls-8 {
        fill: none;
      }

      .cls-4 {
        fill: #6fba2d;
      }

      .cls-4, .cls-8 {
        stroke-width: 2px;
      }

      .cls-5 {
        stroke-width: 3px;
      }

      .cls-6 {
        stroke: #3b7960;
      }

      .cls-7 {
        letter-spacing: .25em;
      }
    </style>
  </defs>
  <g>
    <g>
      <line class="cls-3" x1="203.02" y1="465.83" x2="226.74" y2="479.5"/>
      <line class="cls-3" x1="205.65" y1="461.58" x2="229.5" y2="474.9"/>
      <line class="cls-3" x1="207.87" y1="456.73" x2="231.85" y2="470.3"/>
      <line class="cls-3" x1="210.91" y1="452.68" x2="234.4" y2="466.23"/>
      <line class="cls-3" x1="212.73" y1="447.63" x2="237.16" y2="461.83"/>
      <line class="cls-3" x1="215.76" y1="443.99" x2="239.83" y2="457.74"/>
      <line class="cls-3" x1="217.78" y1="439.74" x2="242.46" y2="453.09"/>
      <line class="cls-3" x1="220.21" y1="435.49" x2="244.51" y2="448.77"/>
      <line class="cls-3" x1="250.32" y1="446.62" x2="276.54" y2="460.3"/>
      <line class="cls-3" x1="247.88" y1="450.91" x2="273.79" y2="464.99"/>
      <line class="cls-3" x1="245.09" y1="455.31" x2="271.34" y2="469.39"/>
      <line class="cls-3" x1="242.86" y1="459.56" x2="268.69" y2="473.68"/>
      <line class="cls-3" x1="240.03" y1="463.81" x2="265.82" y2="478.27"/>
      <line class="cls-3" x1="238.08" y1="468.16" x2="263.38" y2="482.04"/>
      <line class="cls-3" x1="235.72" y1="472.55" x2="261.03" y2="486.44"/>
      <line class="cls-3" x1="233.07" y1="476.95" x2="258.68" y2="490.93"/>
      <polygon class="cls-3" points="247.88 444.08 226.85 480.82 229.29 482.36 250.42 445.8 247.88 444.08"/>
      <polyline class="cls-3" points="505.38 478.54 473.97 533.02 509.02 554.05 540.31 500.93 523.86 492.03"/>
      <line class="cls-3" x1="536.8" y1="505.51" x2="521.29" y2="496.75"/>
      <line class="cls-3" x1="534.24" y1="509.56" x2="519.41" y2="501.06"/>
      <line class="cls-3" x1="531.68" y1="513.74" x2="516.98" y2="505.24"/>
      <line class="cls-3" x1="529.52" y1="517.78" x2="514.28" y2="509.02"/>
      <line class="cls-3" x1="526.82" y1="522.23" x2="511.72" y2="513.6"/>
      <line class="cls-3" x1="523.86" y1="526.81" x2="509.16" y2="518.05"/>
      <line class="cls-3" x1="521.43" y1="531.67" x2="506.46" y2="523.04"/>
      <line class="cls-3" x1="484.62" y1="516.03" x2="499.59" y2="525.06"/>
      <line class="cls-3" x1="487.05" y1="511.31" x2="502.42" y2="520.48"/>
      <line class="cls-3" x1="489.88" y1="506.99" x2="504.84" y2="515.76"/>
      <line class="cls-3" x1="492.31" y1="502.54" x2="507.68" y2="511.58"/>
      <line class="cls-3" x1="495.14" y1="498.36" x2="510.1" y2="507.26"/>
      <line class="cls-3" x1="497.43" y1="494.32" x2="511.99" y2="503.08"/>
      <line class="cls-3" x1="500.13" y1="489.74" x2="514.28" y2="498.36"/>
      <line class="cls-3" x1="502.28" y1="485.56" x2="517.11" y2="494.19"/>
      <polygon class="cls-3" points="520.76 488.79 499.45 526.28 502.69 528.3 524.26 490.68 520.76 488.79"/>
    </g>
    <polygon class="cls-5" points="21.34 155.04 21.34 434.04 450.72 686.96 573.66 476.76 271.61 302.88 271.61 155.25 21.34 155.04"/>
    <g>
      <line class="cls-8" x1="22.21" y1="302.82" x2="184.41" y2="302.82"/>
      <line class="cls-8" x1="181.78" y1="314.14" x2="181.78" y2="302.61"/>
      <polyline class="cls-8" points="181.99 333.36 181.99 360.26 216.37 378.86"/>
      <polyline class="cls-8" points="233.36 388.97 243.06 394.43 170.46 520.84"/>
      <polyline class="cls-8" points="497.09 475.33 323.56 376.03 223.45 551.99"/>
      <polyline class="cls-8" points="294.64 425.38 262.08 405.15 284.12 367.33 316.88 386.95"/>
      <line class="cls-8" x1="301.72" y1="414.86" x2="474.84" y2="514.77"/>
      <line class="cls-8" x1="515.69" y1="443.58" x2="395.56" y2="653.51"/>
      <line class="cls-8" x1="221.22" y1="302.82" x2="270.3" y2="302.82"/>
    </g>
    <circle class="cls-4" cx="263.69" cy="347.58" r="5.93"/>
  </g>
  <g>
    <text class="cls-7" transform="translate(56.08 231.4)"><tspan x="0" y="0">屋上ビオトープ</tspan></text>
    <rect class="cls-6" x="40.77" y="208.43" width="209.12" height="30" rx="15" ry="15"/>
  </g>
  <g>
    <text class="cls-2" transform="translate(276.83 542.66)"><tspan x="0" y="0">STAFF ONLY</tspan></text>
    <rect class="cls-6" x="265.54" y="514.69" width="165.38" height="40"/>
  </g>
  <g>
    <text class="cls-1" transform="translate(135.74 476)"><tspan x="0" y="0">171</tspan></text>
    <rect class="cls-6" x="125.38" y="453.16" width="58.52" height="32" rx="16" ry="16"/>
  </g>
  <g>
    <path d="M283.22,392.38c-.76,0-1.38.62-1.38,1.38s.62,1.38,1.38,1.38,1.38-.62,1.38-1.38-.62-1.38-1.38-1.38Z"/>
    <path d="M289.12,392.38c-.76,0-1.38.62-1.38,1.38s.62,1.38,1.38,1.38,1.38-.62,1.38-1.38c0-.76-.62-1.38-1.38-1.38Z"/>
    <path d="M295.02,392.38c-.76,0-1.38.62-1.38,1.38s.62,1.38,1.38,1.38,1.38-.62,1.38-1.38-.62-1.38-1.38-1.38Z"/>
    <path d="M298.17,385.79h-18.1c-1.39,0-2.52,1.13-2.52,2.52v19.38c0,1.39,1.13,2.52,2.52,2.52h18.1c1.39,0,2.52-1.13,2.52-2.52v-19.38c0-1.39-1.13-2.52-2.52-2.52ZM282.98,408.63l.25-5.54.25,5.54h-.49ZM288.88,408.63l.25-5.54.25,5.54h-.49ZM294.78,408.63l.25-5.54.25,5.54h-.49ZM299.1,407.7c0,.51-.42.93-.93.93h-1.63l.05-6.47c.1.15.27.25.46.24.3-.01.53-.27.51-.56l.23-4.6c0-1.81-1.83-1.9-2.77-1.9s-2.77.09-2.77,1.9l.15,4.6c-.01.3.21.55.51.56.26.01.47-.17.54-.41l.05,6.63h-2.86l.04-6.47c.1.15.27.25.46.24.3-.01.53-.27.51-.56l.23-4.6c0-1.81-1.83-1.9-2.77-1.9s-2.77.09-2.77,1.9l.15,4.6c-.01.3.21.55.51.56.26.01.48-.17.54-.41l.05,6.64h-2.86l.04-6.47c.1.15.27.25.46.24.3-.01.53-.27.51-.56l.23-4.6c0-1.81-1.83-1.9-2.77-1.9s-2.77.09-2.77,1.9l.15,4.6c-.01.3.22.55.51.56.26.01.48-.17.54-.41l.05,6.64h-1.63c-.51,0-.93-.42-.93-.93v-19.38c0-.51.42-.93.93-.93h18.1c.51,0,.93.42.93.93v19.38h0Z"/>
    <path d="M290.93,381.65l1.89-1.89v4.25c0,.39.31.7.7.7s.7-.31.7-.7v-4.25l1.89,1.89c.14.14.32.21.5.21s.36-.07.5-.21c.27-.27.27-.72,0-.99l-3.09-3.09-.5-.5-.5.5-3.09,3.09c-.27.27-.27.72,0,.99.27.27.72.27.99,0Z"/>
    <path d="M284.22,384.51h0s.5.5.5.5l.5-.5s0,0,0,0l3.09-3.09c.27-.27.27-.72,0-.99-.27-.27-.72-.27-.99,0l-1.89,1.89v-4.25c0-.39-.31-.7-.7-.7s-.7.31-.7.7v4.25l-1.89-1.89c-.27-.27-.72-.27-.99,0-.27.27-.27.72,0,.99l3.09,3.09Z"/>
  </g>
  <g>
    <path d="M319.51,358.09c-.17.02-.92.06-1.67.09-1,.04-1.43.08-1.57.13-.26.09-.63.47-.83.83-.08.15-.27.4-.42.56l-.28.28h-.52c-.59,0-.75.05-.87.28-.16.3,0,.71.3.81.09.03.38.06.64.06h.48s.19.2.19.2c.27.28.49.38.88.38.36,0,.57-.08.81-.31.14-.13.15-.13.4-.08.72.14,1.99.65,3.21,1.28.39.2.71.36.72.36,0,0,0-.21-.01-.47-.01-.35-.04-.49-.1-.56-.1-.12-1.06-.74-1.94-1.26l-.72-.42h-.6q-.6,0-.66-.11c-.03-.07-.04-.13,0-.16.1-.1,2.62-.99,3.36-1.19l.19-.05-.12-.22c-.17-.3-.34-.47-.45-.46-.06,0-.23.02-.39.04ZM315.97,360.11c.29.1.38.48.17.72-.09.11-.15.13-.33.13s-.23-.02-.33-.13c-.2-.23-.11-.61.17-.72.15-.06.15-.06.31,0Z"/>
    <path d="M312.43,360.07c-1.81.27-2.8,1.72-2.59,3.8.06.63.19,1.26.55,2.71.38,1.5.46,2.01.49,2.84.02.54,0,.82-.05,1.14-.04.24-.07.44-.06.44,0,0,.13.05.27.09s.33.12.43.17c.1.05.18.08.19.07.05-.05.17-.65.21-1.11.1-.98-.03-1.94-.53-3.95-.41-1.64-.49-2.07-.52-2.71-.04-.92.11-1.45.52-1.9.12-.13.3-.28.41-.34.24-.14.77-.3,1-.3.17,0,.18,0,.14-.11-.05-.13-.04-.67,0-.8.04-.11.02-.12-.45-.05Z"/>
    <path d="M314.74,362.35v.55l-.39.19c-.74.37-1.37,1.15-1.55,1.94-.05.2-.07.54-.07,1.04v.75h6.19v-.75c0-.83-.05-1.11-.28-1.57-.27-.55-.74-1-1.36-1.32l-.38-.19v-.49c0-.27-.01-.53-.03-.59-.03-.1-.04-.1-.11-.04-.14.12-.5.26-.77.28-.35.04-.73-.05-1-.21-.12-.08-.22-.14-.23-.14-.01,0-.02.24-.02.54Z"/>
    <path d="M312.72,369.86v2.59h6.19v-5.18h-6.19v2.59ZM317.77,369.88v1.24h-3.9v-2.48h3.9v1.24Z"/>
    <path d="M310.08,371.49c-.06.03-.44.64-.98,1.61l-.88,1.56.13.14c.16.17,1,.58,1.57.77.24.08.57.16.74.17.29.02.31.01.35-.09.03-.06.24-.83.47-1.71.29-1.1.41-1.63.39-1.72-.11-.44-1.35-.95-1.79-.74ZM309.52,374.44c.48.1.94.36,1.11.61.11.16.11.24,0,.24-.28,0-1.86-.65-1.83-.75.01-.05.28-.16.38-.16.03,0,.18.03.35.06Z"/>
    <path d="M312.72,375.21c0,2.61,0,2.57.35,2.96.12.13.32.28.47.36l.26.13h4.04l.26-.13c.15-.07.35-.22.47-.36.35-.39.35-.35.35-2.96v-2.31h-6.19v2.31Z"/>
  </g>
  <g>
    <path d="M533.37,483.39v12.35h24.91v-24.7h-24.91v12.35ZM553.36,480.26v7.57l.38.06c.45.07,1.01.33,1.25.57.39.39,1.09,1.66,1.1,2,.01.16,0,.17-.19.21-.11.02-.73.04-1.37.04h-1.17v3.25l.56.57c.57.59.76.83.71.88-.06.06-3.06.11-6.33.11h-3.3s-.88-.84-.88-.84l-.88-.85h-2.26l.79.77c.72.7.78.77.7.83-.06.04-.57.07-1.4.09l-1.3.03-.74-.74-.74-.74v-10.43h3.2s.67-.78.67-.78c.92-1.08,1.15-1.32,1.23-1.32.06,0,.66,1.23,1.21,2.48l.2.46-1.79,3.62c-2.17,4.38-2.42,4.92-2.31,4.99.1.06.77.06,1.26-.01.43-.06.86-.23,1.02-.42.16-.17.79-1.34,2.15-4.01,1.39-2.72,1.71-3.31,1.78-3.29.08.03.12.37.17,1.68.06,1.29.16,2.15.29,2.6.14.48-.1.45,4,.45,3.65,0,3.86-.01,3.94-.2.04-.1-.26-.66-.5-.93-.11-.12-.27-.26-.36-.3-.3-.15-.94-.22-2.65-.28-.94-.03-1.93-.07-2.18-.08l-.47-.03-.14-2.13-.15-2.14-.19-.44c-.11-.24-.46-.99-.79-1.68-.33-.68-.59-1.28-.59-1.32,0-.11.25-.13,1.15-.12l.81.02.49.86c.81,1.41,1.21,1.89,1.58,1.89.17,0,.54-.24.64-.42.16-.31-.04-.89-.72-2.08-.74-1.29-1.02-1.59-1.61-1.78-.35-.11-.42-.11-2.95-.11-2.02,0-2.65.02-2.87.07-.26.06-.33.12-.82.61-.3.3-.91.99-1.36,1.53l-.82.98h-1.27s-1.27,0-1.27,0v-9.33h15.07v7.58Z"/>
    <path d="M543.21,475.08c-.57.16-1.03.83-1.05,1.5-.01.5.48,1.31.96,1.57.12.07.28.09.63.09.4,0,.5-.02.75-.14.63-.31.92-.79.93-1.57,0-.38-.01-.46-.13-.67-.17-.29-.6-.7-.84-.8-.23-.1-.9-.09-1.26.02Z"/>
  </g>
</svg>