<svg width="346" height="127" viewBox="0 0 346 127" fill="none" xmlns="http://www.w3.org/2000/svg">
<path d="M25.1478 55.6502L17.0985 53.1084L23.0296 41.67L25.5276 40.399M25.1478 55.6502L41.9241 47.1773M25.1478 55.6502L22.1823 57.6273M67.0887 34.468L47.1773 29.3842L37.1852 34.468M67.0887 34.468L56.9212 39.6031M67.0887 34.468L105.217 14.5202M230.192 31.9261L237.394 28.1133L131.059 1L105.217 14.5202M230.192 31.9261L336.103 59.8867L345 67.936L324.241 109.877H284.842L277.64 125.552H174.695M230.192 31.9261L211.128 41.852M135.296 107.01L131.483 117.291M135.296 107.01L150.547 106.911L145.887 117.661M135.296 107.01L129.365 106.488L122.163 106.064L70.0542 92.0837L59.0394 98.0148H1L21.335 58.1921L22.1823 57.6273M41.9241 47.1773L33.6207 44.6355M41.9241 47.1773L44.9575 45.6453M33.6207 44.6355L31.9261 44.2118L33.6207 43.3199M33.6207 44.6355L36.7557 42.903M25.5276 40.399L33.6207 43.3199M25.5276 40.399L28.5369 38.8679M33.6207 43.3199L36.7557 41.67M28.5369 38.8679L36.7557 41.67M28.5369 38.8679L31.3564 37.4335M36.7557 41.67L39.5517 40.1983M31.3564 37.4335L39.5517 40.1983M31.3564 37.4335L34.0443 36.0659M39.5517 40.1983L42.5172 38.6375M34.0443 36.0659L42.5172 38.6375M34.0443 36.0659L37.1852 34.468M42.5172 38.6375L45.2709 37.1882M37.1852 34.468L45.2709 37.1882M45.2709 37.1882L48.0246 35.7389H49.7192L47.3384 37.0546M36.7557 42.903L44.9575 45.6453M36.7557 42.903L39.5517 41.3578M44.9575 45.6453L47.7959 44.2118M39.5517 41.3578L47.7959 44.2118M39.5517 41.3578L41.9241 40.0467M47.7959 44.2118L50.9901 42.5985M41.9241 40.0467L50.9901 42.5985M41.9241 40.0467L44.9575 38.3704M50.9901 42.5985L53.532 41.3148M44.9575 38.3704L53.532 41.3148M44.9575 38.3704L47.3384 37.0546M53.532 41.3148L56.9212 39.6031M47.3384 37.0546L56.9212 39.6031M22.1823 57.6273L127.67 85.3054L142.074 77.8058M105.217 14.5202L179.778 33.7618M211.128 41.852L179.778 33.7618M211.128 41.852L236.123 48.2474M211.128 41.852L189.946 52.8808M142.074 77.8058L111.995 69.2069L147.581 50.5982M142.074 77.8058L147.198 75.1379M179.778 33.7618L147.581 50.5982M147.581 50.5982L177.66 59.2775M177.66 59.2775L175.542 60.3804M177.66 59.2775L178.507 58.8363M174.695 125.552L188.675 97.5911L223.414 80.2217L299.67 80.6453L306.448 66.2414L240.783 49.4398M174.695 125.552H152.241M236.123 48.2474L240.783 49.4398M236.123 48.2474L211.975 61.0204M240.783 49.4398L222.567 59.0239M211.975 64.9704L222.143 68.3596L225.264 66.665M222.567 59.0239L226.379 57.3448L236.97 60.3103L233.849 62.0049M222.567 59.0239L233.849 62.0049M222.567 59.0239L220.121 60.3103M233.849 62.0049L231.039 63.5301M220.121 60.3103L231.039 63.5301M220.121 60.3103L216.9 62.0049M231.039 63.5301L228.386 64.9704M216.9 62.0049L228.386 64.9704M216.9 62.0049L214.001 63.5301M228.386 64.9704L225.264 66.665M214.001 63.5301L189.522 76.4089L185.286 75.1379L197.995 68.4153M214.001 63.5301L225.264 66.665M147.198 75.1379L164.103 79.798L176.813 72.1724L160.714 68.1005M147.198 75.1379L160.714 68.1005M160.714 68.1005L175.542 60.3804M175.542 60.3804L186.98 63.6995M186.98 63.6995L185.709 64.5468L186.98 65.3941L187.805 64.9704M186.98 63.6995L189.522 62.3923M201.808 56.0739L202.655 57.3448L201.736 57.8169M201.808 56.0739L198.419 57.8169M201.808 56.0739L189.946 52.8808M178.507 58.8363L189.522 62.3923M178.507 58.8363L181.049 57.5129M189.522 62.3923L192.747 60.734M181.049 57.5129L192.747 60.734M181.049 57.5129L183.813 56.0739M192.747 60.734L195.579 59.2775M183.813 56.0739L195.579 59.2775M183.813 56.0739L186.557 54.6454M195.579 59.2775L198.419 57.8169M186.557 54.6454L198.419 57.8169M186.557 54.6454L189.946 52.8808M187.805 64.9704L197.995 68.4153M187.805 64.9704L190.28 63.6995M197.995 68.4153L200.537 67.0708M200.537 67.0708L190.28 63.6995M200.537 67.0708L203.502 65.5022M190.28 63.6995L192.747 62.433M203.502 65.5022L192.747 62.433M203.502 65.5022L206.468 63.9336M192.747 62.433L196.055 60.734M206.468 63.9336L196.055 60.734M206.468 63.9336L209.305 62.433M196.055 60.734L198.892 59.2775M209.305 62.433L198.892 59.2775M209.305 62.433L211.975 61.0204M198.892 59.2775L201.736 57.8169M211.975 61.0204L201.736 57.8169M152.241 125.552H127.67L131.483 117.291M152.241 125.552L156.207 117.926M163.256 104.369L156.207 117.926M156.207 117.926L145.887 117.661M131.483 117.291L145.887 117.661" stroke="#6FBA2D"/>
<path d="M158.53 68.4268C158.083 68.4268 157.721 68.789 157.721 69.2362C157.721 69.6833 158.083 70.0455 158.53 70.0455C158.977 70.0455 159.34 69.6833 159.34 69.2362C159.34 68.789 158.977 68.4268 158.53 68.4268Z" fill="black"/>
<path d="M161.985 68.4268C161.538 68.4268 161.176 68.789 161.176 69.2362C161.176 69.6833 161.538 70.0455 161.985 70.0455C162.432 70.0455 162.795 69.6833 162.795 69.2362C162.795 68.789 162.432 68.4268 161.985 68.4268Z" fill="black"/>
<path d="M165.441 68.4268C164.994 68.4268 164.632 68.789 164.632 69.2362C164.632 69.6833 164.994 70.0455 165.441 70.0455C165.889 70.0455 166.251 69.6833 166.251 69.2362C166.251 68.789 165.889 68.4268 165.441 68.4268Z" fill="black"/>
<path d="M167.286 64.5732H156.685C155.87 64.5732 155.207 65.2362 155.207 66.0507V77.4011C155.207 78.2159 155.87 78.8788 156.685 78.8788H167.286C168.101 78.8788 168.764 78.2159 168.764 77.4011V66.0507C168.764 65.2362 168.101 64.5732 167.286 64.5732ZM158.386 77.9464L158.53 74.7018L158.674 77.9464H158.386ZM161.841 77.9464L161.986 74.7018L162.13 77.9464H161.841ZM165.297 77.9464L165.441 74.7018L165.585 77.9464H165.297ZM167.831 77.4011C167.831 77.7018 167.587 77.9464 167.286 77.9464H166.33L166.356 74.1581C166.416 74.2454 166.514 74.3043 166.627 74.2989C166.801 74.2906 166.935 74.1431 166.927 73.9692L167.061 71.2747C167.061 70.2148 165.987 70.1627 165.441 70.1627C164.895 70.1627 163.821 70.2148 163.821 71.2747L163.912 73.9692C163.904 74.1431 164.037 74.2906 164.211 74.2989C164.363 74.3062 164.489 74.2019 164.526 74.0603L164.552 77.9463H162.874L162.901 74.1581C162.96 74.2454 163.058 74.3043 163.172 74.2989C163.345 74.2906 163.479 74.143 163.471 73.9692L163.605 71.2746C163.605 70.2148 162.531 70.1626 161.986 70.1626C161.439 70.1626 160.365 70.2148 160.365 71.2746L160.456 73.9692C160.448 74.143 160.582 74.2906 160.756 74.2989C160.908 74.3062 161.034 74.2016 161.07 74.0595L161.096 77.9463H159.419L159.445 74.1581C159.504 74.2454 159.602 74.3042 159.716 74.2989C159.89 74.2905 160.024 74.143 160.016 73.9691L160.15 71.2746C160.15 70.2148 159.076 70.1626 158.53 70.1626C157.984 70.1626 156.91 70.2148 156.91 71.2746L157 73.9691C156.992 74.143 157.126 74.2905 157.3 74.2989C157.452 74.3061 157.579 74.2016 157.614 74.0594L157.641 77.9463H156.685C156.384 77.9463 156.14 77.7017 156.14 77.401V66.0507C156.14 65.7503 156.384 65.5057 156.685 65.5057H167.286C167.587 65.5057 167.831 65.7503 167.831 66.0507V77.4011H167.831Z" fill="black"/>
<path d="M163.044 62.1456L164.152 61.0379V63.5285C164.152 63.7555 164.336 63.9396 164.563 63.9396C164.79 63.9396 164.975 63.7555 164.975 63.5285V61.0379L166.083 62.1456C166.163 62.2259 166.268 62.2663 166.373 62.2663C166.479 62.2663 166.584 62.2259 166.664 62.1456C166.825 61.9849 166.825 61.7245 166.664 61.5641L164.854 59.7537L164.563 59.4629L164.272 59.7537L162.462 61.5641C162.302 61.7245 162.302 61.9849 162.462 62.1456C162.623 62.3063 162.884 62.3063 163.044 62.1456Z" fill="black"/>
<path d="M159.116 63.8183C159.116 63.8185 159.116 63.8185 159.116 63.8185L159.407 64.1093L159.698 63.8185C159.698 63.8185 159.698 63.8185 159.698 63.8183L161.508 62.0081C161.669 61.8474 161.669 61.5868 161.508 61.4263C161.348 61.2656 161.087 61.2656 160.926 61.4263L159.819 62.5343V60.0438C159.819 59.8164 159.634 59.6323 159.407 59.6323C159.18 59.6323 158.996 59.8164 158.996 60.0438V62.5343L157.888 61.4263C157.727 61.2656 157.467 61.2656 157.306 61.4263C157.145 61.5867 157.145 61.8474 157.306 62.0081L159.116 63.8183Z" fill="black"/>
<path d="M134.07 107.017C133.788 107.069 133.56 107.191 133.366 107.396C132.894 107.895 132.917 108.687 133.418 109.158C133.733 109.457 134.178 109.567 134.607 109.455C134.738 109.422 134.944 109.315 135.059 109.223C135.45 108.91 135.615 108.387 135.476 107.905C135.362 107.511 135.066 107.2 134.684 107.07C134.487 107.003 134.257 106.983 134.07 107.017Z" fill="black"/>
<path d="M132.473 109.769C132.268 109.784 132.088 109.834 131.895 109.93C131.392 110.182 131.062 110.673 131.01 111.247C131.001 111.348 130.998 112.006 131.001 113.377L131.004 115.361L131.031 115.439C131.08 115.582 131.177 115.694 131.305 115.753C131.355 115.777 131.384 115.78 131.496 115.78C131.617 115.78 131.634 115.778 131.7 115.745C131.835 115.678 131.935 115.548 131.972 115.388C131.984 115.339 131.987 114.904 131.987 113.41V111.494H132.285H132.581V116.598C132.581 121.042 132.583 121.713 132.599 121.786C132.666 122.108 132.955 122.343 133.283 122.344C133.378 122.344 133.523 122.307 133.615 122.257C133.723 122.2 133.849 122.07 133.904 121.96C133.988 121.787 133.984 122.021 133.984 118.726V115.75H134.277H134.571V118.732C134.572 122.016 134.566 121.79 134.649 121.955C134.728 122.116 134.865 122.236 135.048 122.305C135.118 122.332 135.146 122.337 135.272 122.337C135.398 122.337 135.427 122.332 135.496 122.305C135.68 122.236 135.817 122.116 135.894 121.958C135.98 121.785 135.974 122.243 135.974 116.598V111.494H136.267H136.561V113.398C136.561 114.714 136.565 115.325 136.574 115.374C136.605 115.543 136.701 115.676 136.846 115.747C136.931 115.79 136.943 115.792 137.045 115.791C137.127 115.791 137.17 115.784 137.218 115.766C137.388 115.697 137.502 115.543 137.532 115.335C137.548 115.222 137.548 111.464 137.532 111.279C137.467 110.547 136.961 109.958 136.267 109.802C136.191 109.785 136.101 109.777 135.956 109.773C135.59 109.765 132.591 109.761 132.473 109.769Z" fill="black"/>
<path d="M141.832 107.018C141.395 107.097 141.042 107.377 140.872 107.778C140.796 107.953 140.768 108.111 140.776 108.313C140.779 108.426 140.789 108.508 140.806 108.576C140.904 108.948 141.14 109.242 141.475 109.408C142.107 109.719 142.864 109.463 143.174 108.83C143.25 108.673 143.284 108.555 143.3 108.39C143.343 107.927 143.126 107.471 142.742 107.216C142.468 107.036 142.135 106.963 141.832 107.018Z" fill="black"/>
<path d="M140.497 109.827C140.036 109.899 139.65 110.155 139.374 110.572C139.244 110.768 139.278 110.669 138.778 112.314C138.581 112.962 138.367 113.666 138.214 114.172C138.149 114.383 138.091 114.589 138.084 114.634C138.034 114.916 138.182 115.179 138.434 115.257C138.63 115.318 138.828 115.263 138.964 115.112C139.066 114.998 139.052 115.039 139.423 113.791C139.504 113.517 139.622 113.123 139.684 112.916C139.745 112.708 139.861 112.321 139.94 112.055L140.084 111.572H140.349C140.57 111.572 140.615 111.575 140.615 111.589C140.615 111.599 140.576 111.745 140.528 111.915C140.443 112.22 140.189 113.136 139.526 115.518C139.021 117.334 139.009 117.377 139.002 117.4C138.996 117.42 139.038 117.422 139.78 117.422H140.566V119.735C140.566 122.254 140.562 122.123 140.634 122.264C140.697 122.389 140.824 122.493 140.97 122.538C141.066 122.569 141.268 122.566 141.361 122.53C141.54 122.466 141.657 122.346 141.718 122.164C141.738 122.101 141.739 121.989 141.743 119.747L141.745 117.397H142.043H142.341V119.75C142.341 122.101 142.341 122.105 142.367 122.18C142.444 122.409 142.626 122.544 142.883 122.562C143.19 122.583 143.449 122.384 143.495 122.091C143.504 122.039 143.509 121.241 143.509 119.716V117.422H144.287C144.794 117.422 145.065 117.418 145.065 117.409C145.065 117.403 144.978 117.083 144.87 116.702C144.763 116.319 144.626 115.832 144.567 115.622C144.507 115.411 144.371 114.924 144.263 114.539C143.928 113.348 143.851 113.072 143.764 112.764C143.718 112.6 143.626 112.27 143.559 112.031C143.491 111.791 143.436 111.59 143.436 111.584C143.436 111.577 143.545 111.572 143.716 111.572H143.994L144.02 111.66C144.034 111.708 144.056 111.781 144.068 111.821C144.08 111.862 144.135 112.045 144.19 112.229C144.245 112.412 144.336 112.719 144.393 112.91C144.449 113.101 144.534 113.384 144.58 113.539C144.758 114.134 144.838 114.407 144.902 114.625C144.939 114.749 144.982 114.88 144.995 114.916C145.096 115.178 145.326 115.325 145.565 115.281C145.841 115.231 146.02 114.984 145.998 114.685C145.991 114.594 145.981 114.559 145.709 113.664C145.466 112.865 145.075 111.579 144.972 111.238C144.92 111.063 144.857 110.886 144.827 110.822C144.755 110.671 144.622 110.497 144.457 110.34C144.158 110.053 143.815 109.881 143.442 109.827C143.273 109.803 140.651 109.803 140.497 109.827Z" fill="black"/>
<path d="M151.279 112.036C152.116 112.036 152.797 111.355 152.797 110.518C152.797 109.681 152.116 109 151.279 109C150.443 109 149.762 109.681 149.762 110.518C149.762 111.355 150.443 112.036 151.279 112.036Z" fill="black"/>
<path d="M154.448 119.275C154.449 119.274 154.449 119.272 154.45 119.271L152.905 119.273C152.859 119.366 152.804 119.457 152.738 119.551C152.563 119.8 152.343 120.011 152.084 120.179C151.827 120.344 151.544 120.457 151.244 120.515C151.101 120.542 150.955 120.556 150.81 120.556C150.643 120.556 150.474 120.537 150.307 120.502C149.993 120.433 149.704 120.307 149.448 120.126C149.197 119.949 148.987 119.729 148.821 119.473C148.656 119.216 148.543 118.933 148.486 118.632C148.427 118.324 148.432 118.008 148.499 117.696C148.567 117.382 148.693 117.093 148.874 116.836C149.051 116.586 149.271 116.375 149.528 116.21C149.787 116.043 150.07 115.93 150.371 115.869L150.099 114.455C149.616 114.546 149.16 114.727 148.745 114.995C148.329 115.264 147.975 115.603 147.693 116.005C147.4 116.422 147.196 116.887 147.086 117.39C146.978 117.892 146.972 118.401 147.066 118.901C147.157 119.385 147.339 119.84 147.607 120.255C147.876 120.672 148.216 121.026 148.617 121.307C149.033 121.6 149.499 121.805 150.001 121.914C150.269 121.971 150.54 122 150.809 122C151.045 122 151.282 121.978 151.512 121.934C151.999 121.841 152.455 121.659 152.867 121.393C153.282 121.125 153.636 120.786 153.919 120.383C154.133 120.079 154.296 119.748 154.409 119.395C154.422 119.355 154.438 119.316 154.45 119.275H154.448V119.275Z" fill="black"/>
<path d="M157.733 116.726L152.859 116.729L152.65 115.498L152.617 115.299L155.907 115.297L156.467 114.393L156.769 113.911H156.766L156.769 113.907L152.392 113.91L152.158 112.507L150.922 112.511H150.727L150.727 112.512H150.723L151.656 118.146L156.531 118.142L157.094 121.534H158.532L157.733 116.726Z" fill="black"/>
</svg>
