<?xml version="1.0" encoding="UTF-8"?>
<svg id="_レイヤー_1" xmlns="http://www.w3.org/2000/svg" version="1.1" viewBox="0 0 590.42 389.93">
  <!-- Generator: Adobe Illustrator 29.5.1, SVG Export Plug-In . SVG Version: 2.1.0 Build 141)  -->
  <defs>
    <style>
      .st0, .st1, .st2, .st3, .st4, .st5, .st6, .st7 {
        stroke-miterlimit: 10;
      }

      .st0, .st1, .st3, .st4, .st5, .st6, .st7 {
        fill: none;
      }

      .st0, .st3, .st8, .st9, .st10, .st5, .st11 {
        isolation: isolate;
      }

      .st0, .st3, .st8, .st10, .st5, .st11 {
        font-family: BIZ-UDGothic, 'BIZ UDGothic';
      }

      .st0, .st3, .st4, .st5, .st6, .st7 {
        stroke: #f3858e;
      }

      .st0, .st11 {
        font-size: 20.02px;
        letter-spacing: .3em;
      }

      .st1, .st2 {
        stroke: #34b9f0;
      }

      .st2 {
        fill: #fff;
      }

      .st3, .st8 {
        font-size: 23.36px;
        letter-spacing: .2em;
      }

      .st12 {
        fill: #ef4444;
      }

      .st8, .st10, .st11 {
        fill: #f3858e;
      }

      .st13 {
        fill: #3b82f6;
      }

      .st10, .st5 {
        font-size: 16.77px;
        letter-spacing: .25em;
      }

      .st6 {
        stroke-width: 3px;
      }

      .st7 {
        stroke-width: 2px;
      }
    </style>
  </defs>
  <g>
    <g>
      <line class="st6" x1="180.88" y1="285.25" x2="165.8" y2="285.25"/>
      <line class="st6" x1="168.73" y1="287.72" x2="168.73" y2="148.03"/>
      <line class="st6" x1="170.98" y1="149.83" x2=".22" y2="149.83"/>
      <line class="st6" x1="2.7" y1="152.08" x2="2.7" y2=".22"/>
      <line class="st6" y1="3.15" x2="537.22" y2="2.47"/>
      <line class="st6" x1="536.31" x2="536.31" y2="287.72"/>
      <line class="st6" x1="538.56" y1="285.03" x2="252.86" y2="285.03"/>
      <line class="st6" x1="74.02" y1="179.29" x2="74.02" y2="228.78"/>
      <line class="st6" x1="72.44" y1="227.21" x2="168.5" y2="227.21"/>
    </g>
    <g>
      <line class="st7" x1="170.22" y1="226.69" x2="194.52" y2="226.69"/>
      <line class="st7" x1="236.96" y1="227.43" x2="264.25" y2="227.43"/>
      <line class="st7" x1="264.41" y1="284.13" x2="264.41" y2="157.85"/>
      <line class="st7" x1="264.25" y1="113.3" x2="264.25" y2="3.67"/>
      <line class="st7" x1="265.16" y1="44.31" x2="361.14" y2="44.31"/>
      <line class="st7" x1="359.95" y1="45.07" x2="359.95" y2="283.97"/>
      <line class="st7" x1="453.68" y1="112.55" x2="453.68" y2="284.73"/>
      <line class="st7" x1="454.27" y1="114.36" x2="535.26" y2="114.36"/>
      <line class="st7" x1="453.97" y1="186.19" x2="535.86" y2="186.19"/>
      <polyline class="st7" points="169.17 148.55 169.17 80.01 3.15 80.01"/>
      <line class="st7" x1="73.04" y1="80.61" x2="73.04" y2="149.29"/>
      <line class="st7" x1="110.99" y1="80.16" x2="110.99" y2="149.15"/>
      <line class="st7" x1="132.58" y1="185.14" x2="132.58" y2="198.34"/>
      <line class="st7" x1="134.22" y1="184.54" x2="104.98" y2="184.54"/>
      <line class="st7" x1="105.88" y1="184.39" x2="105.88" y2="197.59"/>
      <line class="st7" x1="104.54" y1="197.74" x2="133.62" y2="197.74"/>
    </g>
    <g>
      <line class="st4" x1="110.53" y1="151.25" x2="110.53" y2="183.5"/>
      <line class="st4" x1="117.43" y1="149.9" x2="117.43" y2="183.64"/>
      <line class="st4" x1="123.88" y1="150.5" x2="123.88" y2="183.94"/>
      <line class="st4" x1="130.78" y1="150.35" x2="130.78" y2="184.09"/>
      <line class="st4" x1="132.73" y1="186.19" x2="168.87" y2="186.19"/>
      <line class="st4" x1="133.03" y1="191.74" x2="168.57" y2="191.74"/>
      <line class="st4" x1="132.88" y1="197.29" x2="168.73" y2="197.29"/>
      <line class="st4" x1="127.93" y1="198.34" x2="127.93" y2="226.83"/>
      <line class="st4" x1="120.88" y1="198.34" x2="120.88" y2="226.69"/>
      <line class="st4" x1="114.14" y1="198.19" x2="114.14" y2="226.09"/>
      <line class="st4" x1="107.23" y1="198.34" x2="107.23" y2="225.93"/>
      <line class="st4" x1="105.44" y1="195.19" x2="74.84" y2="195.19"/>
      <line class="st4" x1="74.54" y1="189.79" x2="106.48" y2="189.79"/>
      <line class="st4" x1="74.84" y1="184.39" x2="106.18" y2="184.39"/>
    </g>
    <g>
      <polygon class="st6" points="201.42 331.45 216.49 312.77 231.12 331.45 201.42 331.45"/>
      <line class="st6" x1="216.49" y1="389.93" x2="216.49" y2="313.67"/>
    </g>
  </g>
  <g>
    <path d="M33.26,174.87v17.41h35.09v-34.8h-35.09v17.41h0v-.02ZM61.42,170.46v10.68l.53.09c.62.1,1.43.47,1.76.8.55.55,1.53,2.34,1.56,2.83.01.22,0,.24-.28.3-.16.03-1.02.06-1.92.06h-1.65v4.58l.79.81c.81.83,1.07,1.17,1,1.25-.09.08-4.32.16-8.92.16h-4.65l-1.23-1.18-1.23-1.19h-3.18l1.12,1.08c1.01.98,1.1,1.09.98,1.17-.09.06-.8.1-1.98.12l-1.84.03-1.03-1.03-1.03-1.03v-14.69h4.52l.93-1.1c1.3-1.51,1.62-1.86,1.74-1.86.08,0,.93,1.74,1.71,3.49l.29.65-2.52,5.09c-3.06,6.16-3.4,6.93-3.26,7.03.13.09,1.09.08,1.78,0,.61-.09,1.2-.32,1.45-.59.23-.24,1.11-1.89,3.04-5.65,1.96-3.84,2.41-4.66,2.51-4.64.11.03.17.52.24,2.36.09,1.81.22,3.03.4,3.66.2.67-.13.63,5.63.63,5.14,0,5.44,0,5.55-.29.06-.14-.37-.93-.7-1.31-.16-.18-.38-.37-.5-.42-.42-.21-1.32-.31-3.74-.39-1.32-.04-2.71-.09-3.07-.11l-.66-.04-.2-3-.21-3.01-.27-.61c-.16-.34-.65-1.4-1.11-2.37-.47-.96-.83-1.8-.83-1.86,0-.16.34-.19,1.61-.17l1.15.02.69,1.2c1.15,1.99,1.7,2.66,2.22,2.66.24,0,.76-.34.89-.59.22-.43-.06-1.26-1.02-2.93-1.05-1.81-1.43-2.24-2.27-2.5-.49-.16-.59-.16-4.15-.16-2.85,0-3.74.02-4.05.1-.36.09-.47.17-1.16.87-.42.42-1.28,1.4-1.91,2.16l-1.16,1.38h-3.57v-13.15h21.23v10.68-.03l-.02-.03Z"/>
    <path d="M47.12,163.15c-.8.23-1.45,1.17-1.47,2.11,0,.71.68,1.85,1.35,2.21.18.09.4.13.88.13.57,0,.71-.03,1.06-.2.89-.43,1.29-1.12,1.31-2.21,0-.55,0-.65-.19-.93-.23-.4-.85-.98-1.18-1.12-.32-.13-1.27-.12-1.77.03v-.02h0Z"/>
  </g>
  <g>
    <path d="M130.05,112.17c-1.33,0-2.41,1.08-2.41,2.41s1.08,2.41,2.41,2.41,2.41-1.08,2.41-2.41-1.08-2.41-2.41-2.41Z"/>
    <path d="M140.35,112.17c-1.33,0-2.41,1.08-2.41,2.41s1.08,2.41,2.41,2.41,2.41-1.08,2.41-2.41-1.08-2.41-2.41-2.41Z"/>
    <path d="M150.66,112.17c-1.33,0-2.41,1.08-2.41,2.41s1.08,2.41,2.41,2.41,2.41-1.08,2.41-2.41-1.08-2.41-2.41-2.41Z"/>
    <path d="M156.16,100.66h-31.61c-2.42,0-4.4,1.98-4.4,4.4v33.84c0,2.42,1.98,4.4,4.4,4.4h31.61c2.42,0,4.4-1.98,4.4-4.4v-33.84c0-2.42-1.98-4.4-4.4-4.4ZM129.62,140.54l.43-9.68.43,9.68h-.87.01ZM139.93,140.54l.43-9.68.43,9.68h-.87.01ZM150.23,140.54l.43-9.68.43,9.68h-.87.01ZM157.78,138.92c0,.9-.73,1.62-1.62,1.62h-2.85l.08-11.29c.18.26.47.43.81.42.52-.02.92-.47.89-.98l.4-8.03c0-3.16-3.2-3.31-4.83-3.31s-4.83.16-4.83,3.31l.27,8.03c-.02.52.38.96.89.98.46.02.83-.29.93-.71l.08,11.59h-5.01l.08-11.29c.18.26.47.43.81.42.52-.02.92-.47.89-.98l.4-8.03c0-3.16-3.2-3.31-4.83-3.31s-4.83.16-4.83,3.31l.27,8.03c-.02.52.38.96.89.98.46.02.83-.29.93-.71l.08,11.59h-5.01l.08-11.29c.18.26.47.43.81.42.52-.02.91-.47.89-.98l.4-8.03c0-3.16-3.2-3.31-4.83-3.31s-4.83.16-4.83,3.31l.27,8.03c-.02.52.38.96.89.98.46.02.83-.29.93-.71l.08,11.59h-2.85c-.9,0-1.62-.73-1.62-1.62v-33.84c0-.9.73-1.62,1.62-1.62h31.61c.9,0,1.62.73,1.62,1.62v33.84h0v-.03h.04Z"/>
    <path d="M143.51,93.43l3.3-3.3v7.43c0,.68.55,1.22,1.22,1.22s1.22-.55,1.22-1.22v-7.43l3.3,3.3c.24.24.56.36.87.36s.63-.12.87-.36c.48-.48.48-1.26,0-1.74l-5.39-5.39-.87-.87-.87.87-5.39,5.39c-.48.48-.48,1.26,0,1.74s1.26.48,1.74,0h0Z"/>
    <path d="M131.8,98.42h0l.87.87.87-.87h0l5.39-5.39c.48-.48.48-1.26,0-1.74s-1.26-.48-1.74,0l-3.3,3.3v-7.43c0-.68-.55-1.22-1.22-1.22s-1.22.55-1.22,1.22v7.43l-3.3-3.3c-.48-.48-1.26-.48-1.74,0s-.48,1.26,0,1.74l5.39,5.39h0Z"/>
  </g>
  <g>
    <path class="st13" d="M14.15,99.11c-.57.1-1.03.36-1.42.77-.96,1.01-.91,2.6.1,3.56.63.6,1.53.82,2.4.6.27-.07.68-.28.91-.47.79-.63,1.12-1.69.85-2.66-.23-.8-.82-1.42-1.6-1.69-.4-.13-.87-.18-1.23-.11h-.01Z"/>
    <path class="st13" d="M10.92,104.67c-.41.03-.78.13-1.17.32-1.01.51-1.68,1.5-1.79,2.66-.02.2-.02,1.53-.02,4.3v4l.06.16c.1.29.3.51.56.63.1.04.16.06.39.06s.28,0,.41-.07c.28-.13.48-.4.55-.72.02-.1.03-.98.03-3.99v-3.87h1.2v10.31c0,8.98,0,10.33.03,10.48.13.65.72,1.12,1.38,1.12.19,0,.49-.08.67-.18.22-.11.47-.38.58-.6.17-.34.16.12.16-6.53v-6.01h1.19v6.02c0,6.64,0,6.17.16,6.51.16.32.43.57.81.71.14.06.2.07.46.07s.31,0,.46-.07c.37-.14.65-.38.8-.7.17-.34.16.58.16-10.82v-10.31h1.19v3.85c0,2.66,0,3.89.02,3.99.07.34.26.61.55.76.17.09.2.09.4.09.17,0,.26-.01.34-.06.34-.13.58-.44.63-.87.03-.23.03-7.82,0-8.2-.13-1.48-1.16-2.67-2.56-2.98-.16-.03-.33-.06-.63-.06-.73-.02-6.8-.02-7.03,0h.03-.02Z"/>
    <path class="st12" d="M29.83,99.11c-.89.16-1.6.72-1.94,1.53-.16.36-.21.68-.19,1.08,0,.23.02.39.07.53.2.76.68,1.35,1.35,1.68,1.28.63,2.8.11,3.44-1.17.16-.31.22-.56.26-.89.09-.93-.36-1.86-1.12-2.37-.56-.37-1.22-.51-1.84-.4h-.03Z"/>
    <path class="st12" d="M27.13,104.78c-.93.14-1.71.67-2.27,1.5-.27.4-.19.19-1.2,3.51-.4,1.31-.83,2.74-1.13,3.75-.13.42-.24.85-.27.93-.1.57.2,1.1.71,1.26.4.12.8.01,1.07-.29.21-.23.18-.14.92-2.67.17-.56.4-1.35.52-1.77s.36-1.2.51-1.74l.29-.98h.53c.44,0,.53,0,.53.03,0,.02-.08.31-.18.66-.17.61-.69,2.47-2.02,7.27-1.02,3.67-1.05,3.75-1.06,3.8-.01.04.08.04,1.57.04h1.59v4.67c0,5.09,0,4.83.13,5.11.12.26.38.47.68.56.19.07.6.06.79,0,.36-.13.6-.38.72-.73.04-.12.04-.36.06-4.88v-4.75h1.21v4.75c0,4.75,0,4.76.06,4.91.16.47.52.73,1.05.77.62.04,1.15-.36,1.23-.95.02-.11.02-1.71.02-4.79v-4.64h1.57c1.02,0,1.57,0,1.57-.02,0-.01-.18-.66-.4-1.43-.21-.78-.49-1.76-.61-2.18s-.4-1.41-.61-2.19c-.68-2.4-.83-2.97-1.01-3.58-.09-.33-.28-1-.41-1.48-.13-.49-.24-.89-.24-.9s.22-.02.57-.02h.57l.06.18c.03.1.08.24.1.32s.13.46.24.82.3.99.41,1.38.29.96.38,1.27c.36,1.2.52,1.76.66,2.19.08.26.16.51.19.59.2.52.67.82,1.16.73.56-.1.92-.6.88-1.2,0-.19-.03-.26-.59-2.07-.49-1.61-1.28-4.22-1.49-4.91-.1-.36-.23-.71-.29-.85-.14-.3-.41-.66-.75-.97-.6-.58-1.3-.92-2.05-1.03-.34-.04-5.64-.04-5.95,0v.02h-.02Z"/>
  </g>
  <g>
    <path d="M49.09,99.69c-.41.11-.58.18-.95.41-1.09.69-1.62,2.04-1.3,3.26.22.85.83,1.6,1.57,1.95.27.12.42.23.43.31.02.07.38,2.37.8,5.13.83,5.43.82,5.34,1.23,5.63.11.08.3.16.41.2.13.03,1.87.06,4.67.06h4.46l1.38,4.43c.76,2.45,1.42,4.52,1.47,4.6.11.22.34.44.6.56.42.19.66.12,2.47-.6.93-.38,1.77-.75,1.85-.82.42-.39.5-1.1.17-1.59-.19-.29-.65-.53-.99-.53-.12,0-.66.18-1.23.41-.68.28-1.03.39-1.06.34-.01-.04-.62-1.99-1.36-4.33-.97-3.11-1.37-4.32-1.48-4.46-.09-.11-.28-.26-.41-.32-.26-.12-.3-.12-4.74-.12h-4.48l-.17-1.09c-.09-.59-.18-1.13-.2-1.21l-.03-.13,2.57-.02,2.58-.02.29-.18c.78-.49.75-1.65-.06-2.09-.16-.09-.52-.11-2.97-.13l-2.78-.03-.31-2.01c-.26-1.67-.3-2.02-.23-2.06.51-.29,1.03-.93,1.29-1.58.16-.41.21-1.17.11-1.62-.17-.8-.77-1.62-1.51-2.02-.63-.36-1.47-.47-2.14-.3h.04v-.03Z"/>
    <path d="M46.1,110.6c-.11.04-.43.22-.71.41-2.51,1.65-4.14,4.17-4.59,7.15-.12.77-.12,2.26,0,3,.36,2.25,1.33,4.18,2.9,5.75,1.6,1.59,3.55,2.59,5.82,2.95.75.12,2.49.1,3.2-.03,1.23-.22,2.37-.63,3.41-1.23.9-.51,1.42-.92,2.19-1.7.81-.82,1.35-1.56,1.85-2.55.33-.66.38-.76.37-1.07,0-.39-.11-.63-.4-.88-.42-.38-1.03-.41-1.48-.1-.2.13-.32.31-.58.8-.43.85-.82,1.4-1.39,1.99-1.1,1.15-2.49,1.92-4.07,2.27-.81.19-2.3.2-3.08.03-1.62-.34-2.93-1.02-4.03-2.1-1.59-1.57-2.39-3.46-2.39-5.72,0-1.59.43-2.99,1.36-4.39.43-.67,1.43-1.65,2.11-2.1.73-.48.91-.66,1.01-1.02.11-.38.07-.63-.16-.99-.28-.43-.9-.67-1.37-.49l.02.02h.01Z"/>
  </g>
  <g>
    <path d="M30.85,40.15c-.27.03-1.49.1-2.73.14-1.62.07-2.32.12-2.56.21-.42.14-1.02.77-1.35,1.36-.12.24-.44.65-.69.9l-.46.44h-.85c-.96,0-1.22.08-1.41.44-.26.49-.01,1.15.49,1.32.14.06.61.09,1.03.09h.78l.3.32c.44.46.8.61,1.42.61.58,0,.93-.13,1.32-.5.22-.21.23-.21.65-.12,1.17.23,3.23,1.06,5.22,2.09.63.32,1.16.59,1.17.59,0,0,0-.34-.02-.77-.02-.57-.06-.8-.16-.9-.17-.19-1.74-1.21-3.15-2.05l-1.17-.69h-.98c-.65,0-1.01-.06-1.07-.19-.06-.12-.06-.21-.01-.26.16-.16,4.26-1.61,5.46-1.94l.3-.08-.19-.36c-.28-.49-.56-.76-.73-.75-.09,0-.38.03-.65.06h.01l.03.04ZM25.08,43.45c.47.17.62.78.28,1.17-.14.17-.23.21-.53.21s-.38-.03-.53-.21c-.32-.38-.19-.98.27-1.17.24-.1.23-.1.51,0h.01-.01Z"/>
    <path d="M19.32,43.37c-2.94.43-4.56,2.79-4.22,6.18.1,1.02.31,2.05.89,4.39.61,2.45.76,3.27.8,4.63.03.88,0,1.32-.08,1.86-.07.39-.11.71-.1.71s.21.08.43.14.53.19.69.28c.17.08.3.13.31.12.08-.08.27-1.06.34-1.8.17-1.59-.04-3.16-.86-6.42-.67-2.66-.8-3.36-.85-4.4-.07-1.49.17-2.36.85-3.09.2-.21.49-.46.67-.56.4-.23,1.25-.49,1.61-.49.28,0,.29,0,.23-.17-.08-.21-.07-1.08,0-1.3.07-.19.03-.19-.73-.08h.02Z"/>
    <path d="M23.09,47.07v.89l-.65.31c-1.21.6-2.22,1.87-2.52,3.15-.08.32-.11.87-.11,1.68v1.21h10.07v-1.21c0-1.35-.08-1.8-.44-2.55-.44-.89-1.2-1.64-2.21-2.14l-.62-.3v-.79c0-.43-.02-.87-.04-.96-.04-.16-.06-.16-.17-.06-.22.2-.8.42-1.26.47-.57.06-1.19-.08-1.61-.34-.19-.12-.37-.22-.38-.22-.02,0-.03.4-.03.88v-.02h-.03Z"/>
    <path d="M19.81,59.29v4.22h10.07v-8.42h-10.07v4.22h0v-.02ZM28.01,59.32v2.01h-6.34v-4.03h6.34v2.01h0Z"/>
    <path d="M15.52,61.94c-.1.04-.71,1.05-1.59,2.61l-1.43,2.54.21.22c.26.27,1.62.93,2.56,1.26.39.12.93.26,1.21.28.48.03.51.02.58-.14.04-.1.39-1.35.76-2.77.47-1.79.67-2.65.62-2.79-.18-.72-2.19-1.55-2.91-1.2h-.01ZM14.6,66.73c.78.17,1.52.58,1.8,1,.17.26.17.39,0,.39-.46,0-3.01-1.06-2.97-1.22.02-.08.44-.26.61-.26.04,0,.3.04.57.1h-.01,0Z"/>
    <path d="M19.81,68c0,4.25,0,4.17.57,4.82.19.21.51.47.76.58l.42.21h6.56l.42-.21c.24-.12.57-.37.76-.58.58-.65.57-.57.57-4.82v-3.75h-10.07v3.75h.01Z"/>
  </g>
  <g>
    <path d="M529.76,88.68c-.27.03-1.49.1-2.73.14-1.62.07-2.32.12-2.56.21-.42.14-1.02.77-1.35,1.36-.12.24-.44.65-.69.9l-.46.44h-.85c-.96,0-1.22.08-1.41.44-.26.49-.01,1.15.49,1.32.14.06.61.09,1.03.09h.78l.3.32c.44.46.8.61,1.42.61.58,0,.93-.13,1.32-.5.22-.21.23-.21.65-.12,1.17.23,3.23,1.06,5.22,2.09.63.32,1.16.59,1.17.59,0,0,0-.34-.02-.77-.02-.57-.06-.8-.16-.9-.17-.19-1.74-1.21-3.15-2.05l-1.17-.69h-.98c-.65,0-1.01-.06-1.07-.19-.06-.12-.06-.21-.01-.26.16-.16,4.26-1.61,5.46-1.94l.3-.08-.19-.36c-.28-.49-.56-.76-.73-.75-.09,0-.38.03-.65.06h.01l.03.04ZM524.01,91.97c.47.17.62.78.28,1.17-.14.17-.23.21-.53.21s-.38-.03-.53-.21c-.32-.38-.19-.98.27-1.17.24-.1.23-.1.51,0h.01-.01Z"/>
    <path d="M518.24,91.9c-2.94.43-4.56,2.79-4.22,6.18.1,1.02.31,2.05.89,4.39.61,2.45.76,3.27.8,4.63.03.88,0,1.32-.08,1.86-.07.39-.11.71-.1.71s.21.08.43.14.53.19.69.28c.17.08.3.13.31.12.08-.08.27-1.06.34-1.8.17-1.59-.04-3.16-.86-6.42-.67-2.66-.8-3.36-.85-4.4-.07-1.49.17-2.36.85-3.09.2-.21.49-.46.67-.56.4-.23,1.25-.49,1.61-.49.28,0,.29-.01.23-.17-.08-.21-.07-1.08,0-1.3.07-.19.03-.19-.73-.08h.02Z"/>
    <path d="M522.01,95.6v.89l-.65.31c-1.21.6-2.22,1.87-2.52,3.15-.08.32-.11.87-.11,1.68v1.21h10.07v-1.21c0-1.35-.08-1.8-.44-2.55-.44-.89-1.2-1.64-2.21-2.14l-.62-.3v-.79c0-.43-.02-.87-.04-.96-.04-.16-.06-.16-.17-.06-.22.2-.8.42-1.26.47-.57.06-1.19-.08-1.61-.34-.19-.12-.37-.22-.38-.22-.02,0-.03.4-.03.88v-.02h-.03Z"/>
    <path d="M518.73,107.81v4.22h10.07v-8.42h-10.07v4.22h0v-.02ZM526.93,107.84v2.01h-6.34v-4.03h6.34v2.01h0Z"/>
    <path d="M514.44,110.46c-.1.04-.71,1.05-1.59,2.61l-1.43,2.54.21.22c.26.27,1.62.93,2.56,1.26.39.12.93.26,1.21.28.48.03.51.02.58-.14.04-.1.39-1.35.76-2.77.47-1.79.67-2.65.62-2.79-.18-.72-2.19-1.55-2.91-1.2h-.01ZM513.52,115.26c.78.17,1.52.58,1.8,1,.17.26.17.39,0,.39-.46,0-3.01-1.06-2.97-1.22.02-.08.44-.26.61-.26.04,0,.3.04.57.1h-.01Z"/>
    <path d="M518.73,116.51c0,4.25,0,4.17.57,4.82.19.21.51.47.76.58l.42.21h6.56l.42-.21c.24-.12.57-.37.76-.58.58-.65.57-.57.57-4.82v-3.75h-10.07v3.75h.01Z"/>
  </g>
  <g>
    <path d="M19,9.97c-.79.11-1.45.26-1.98.42-2.65.87-4.79,2.98-5.66,5.58-.26.78-.36,1.35-.39,2.35-.06,1.57.19,2.71.88,4.1s.71,1.42,6.97,7.49c3.15,3.06,5.76,5.55,5.87,5.59.26.11.52.11.78,0,.27-.12,3.13-2.91,3.23-3.17.12-.28.1-.53-.03-.82-.14-.28-.31-.41-.63-.5-.47-.12-.65-.02-1.82,1.12-.6.58-1.1,1.05-1.12,1.05s-2.4-2.29-5.28-5.08c-3.55-3.45-5.35-5.23-5.59-5.56-.46-.61-.86-1.45-1.06-2.19-.2-.72-.27-1.97-.16-2.69.24-1.51,1.09-3.06,2.21-4.02,2.58-2.19,6.2-2.34,8.95-.33.8.58,1.07.58,1.85.01,2.14-1.55,4.77-1.85,7.14-.82,2.14.92,3.66,2.87,4.03,5.15.12.72.04,1.97-.14,2.69-.21.76-.62,1.6-1.08,2.21-.2.27-1.12,1.22-2.07,2.14-1.26,1.22-1.71,1.71-1.77,1.87-.16.48.07.99.52,1.2.31.14.49.14.79,0,.36-.16,3.5-3.25,4.05-3.96.53-.71,1.18-1.96,1.4-2.75.28-.97.36-1.67.32-2.75-.08-2.25-.91-4.15-2.51-5.74-1.31-1.31-2.93-2.16-4.78-2.5-.83-.16-2.48-.16-3.27,0-1.11.22-2.25.66-3.09,1.19l-.44.28-.44-.28c-.86-.53-1.99-.97-3.07-1.18-.5-.1-2.17-.18-2.56-.12l-.02.02h-.03Z"/>
    <path d="M24.67,15.93c-.1.04-.24.14-.32.23-.07.08-.75,1.53-1.5,3.24-1.49,3.35-1.51,3.41-1.26,3.86.07.12.21.27.33.34.2.12.34.12,2.22.16l2.01.03-1.05,2.35c-.66,1.48-1.05,2.41-1.05,2.55,0,.86,1.02,1.31,1.64.73.17-.16.49-.82,1.58-3.28,1.5-3.38,1.51-3.43,1.23-3.87-.27-.43-.3-.43-2.55-.48l-2.01-.03,1.05-2.35c.97-2.17,1.05-2.37,1.02-2.64-.04-.5-.4-.85-.89-.89-.18-.01-.38.01-.48.07v-.02h.03Z"/>
  </g>
  <g class="st9">
    <g class="st9">
      <text class="st8" transform="translate(369.43 54.41)"><tspan x="0" y="0">STAFF ONLY</tspan></text>
    </g>
    <g class="st9">
      <text class="st3" transform="translate(369.43 54.41)"><tspan x="0" y="0">STAFF ONLY</tspan></text>
    </g>
  </g>
  <g>
    <g class="st9">
      <g class="st9">
        <text class="st11" transform="translate(293.09 264.65)"><tspan x="0" y="0">211</tspan></text>
      </g>
      <g class="st9">
        <text class="st0" transform="translate(293.09 264.65)"><tspan x="0" y="0">211</tspan></text>
      </g>
    </g>
    <path class="st1" d="M299.36,239.25h29.5c9.83,0,17.8,7.97,17.8,17.8h0c0,9.83-7.97,17.8-17.8,17.8h-29.5c-9.83,0-17.8-7.97-17.8-17.8h0c0-9.83,7.97-17.8,17.8-17.8h0Z"/>
  </g>
  <g>
    <rect class="st2" x="404.79" y="215.47" width="185.12" height="45.43" rx="15" ry="15"/>
    <g class="st9">
      <g class="st9">
        <text class="st10" transform="translate(415.56 234.49)"><tspan x="0" y="0">トリミング＆</tspan></text>
      </g>
      <g class="st9">
        <text class="st5" transform="translate(415.56 234.49)"><tspan x="0" y="0">トリミング＆</tspan></text>
      </g>
      <g class="st9">
        <text class="st10" transform="translate(415.56 254.62)"><tspan x="0" y="0">トレーニング受付</tspan></text>
      </g>
      <g class="st9">
        <text class="st5" transform="translate(415.56 254.62)"><tspan x="0" y="0">トレーニング受付</tspan></text>
      </g>
    </g>
  </g>
</svg>