<svg width="302" height="157" viewBox="0 0 302 157" fill="none" xmlns="http://www.w3.org/2000/svg">
<path d="M124.048 29.9963L133.342 1H51.5576L42.1234 29.9963M124.048 29.9963H241.52L216.242 107.32M124.048 29.9963H103.974M216.242 107.32H301M216.242 107.32L200.257 156.39M301 107.32L286.13 156.39H200.257M301 107.32L200.257 156.39M42.1234 29.9963H103.974M42.1234 29.9963L31.4797 62.71M16.9656 107.32L1 156.39H82.4126M16.9656 107.32H58.0534M16.9656 107.32L24.2226 85.0149M99.1413 107.32L82.4126 156.39M99.1413 107.32H58.0534M99.1413 107.32L118.844 48.2119M82.4126 156.39H164.569M58.0534 107.32L65.2816 85.0149M164.569 156.39H200.257M164.569 156.39L184.559 95.7955M118.844 48.2119H200.257L196.823 58.6208M118.844 48.2119H98.026M98.026 48.2119H77.2082L72.5098 62.71M98.026 48.2119L103.974 29.9963M72.5098 62.71H31.4797M72.5098 62.71L65.2816 85.0149M31.4797 62.71L24.2226 85.0149M65.2816 85.0149H24.2226M184.559 95.7955H202.487L204.033 90.9628M184.559 95.7955L186.153 90.9628M196.823 58.6208H214.383L212.955 63.0818M196.823 58.6208L195.351 63.0818M195.351 63.0818H212.955M195.351 63.0818L193.879 67.5428M212.955 63.0818L211.528 67.5428M193.879 67.5428H211.528M193.879 67.5428L192.285 72.3755M211.528 67.5428L209.981 72.3755M192.285 72.3755H209.981M192.285 72.3755L190.813 76.8364M209.981 72.3755L208.554 76.8364M190.813 76.8364H208.554M190.813 76.8364L189.104 82.0177M208.554 76.8364L206.896 82.0177M189.104 82.0177H206.896M189.104 82.0177L187.747 86.1301M206.896 82.0177L205.58 86.1301M187.747 86.1301H205.58M187.747 86.1301L186.153 90.9628M205.58 86.1301L204.033 90.9628M186.153 90.9628H204.033" stroke="#965045"/>
<path d="M83.4092 5.85002C83.1131 5.9042 82.8737 6.03271 82.6696 6.24817C82.1732 6.77231 82.1971 7.60514 82.7238 8.1003C83.0552 8.41402 83.5226 8.52994 83.9737 8.41276C84.111 8.37749 84.3277 8.26535 84.4487 8.16833C84.8594 7.83949 85.0333 7.29015 84.8871 6.78365C84.7674 6.36912 84.4562 6.04279 84.0543 5.90546C83.8477 5.8349 83.6058 5.81474 83.4092 5.85002Z" fill="black"/>
<path d="M81.7307 8.74286C81.5153 8.75798 81.3263 8.81089 81.1235 8.91169C80.5943 9.17628 80.2478 9.69286 80.1936 10.2964C80.1835 10.4022 80.181 11.0939 80.1835 12.5341L80.1873 14.6193L80.215 14.7012C80.2667 14.8524 80.3687 14.9695 80.5036 15.0313C80.5552 15.0565 80.5867 15.0603 80.7039 15.0603C80.8311 15.0603 80.8488 15.0577 80.9181 15.0237C81.0605 14.9532 81.165 14.8158 81.2041 14.6483C81.2167 14.5966 81.2205 14.1392 81.2205 12.5693V10.5559H81.5329H81.8441V15.9195C81.8441 20.5902 81.8467 21.2958 81.863 21.3726C81.9336 21.7103 82.2372 21.9572 82.5825 21.9585C82.682 21.9585 82.8345 21.9194 82.9315 21.8678C83.0449 21.8073 83.1772 21.6712 83.2351 21.5553C83.3233 21.3739 83.3183 21.6196 83.3183 18.156V15.0288H83.627H83.9357V18.1623C83.9369 21.6145 83.9306 21.3764 84.0176 21.5503C84.1007 21.7191 84.2444 21.8451 84.4371 21.9182C84.5102 21.9459 84.5404 21.9509 84.6727 21.9509C84.805 21.9509 84.8353 21.9459 84.9083 21.9182C85.1011 21.8451 85.2448 21.7191 85.3266 21.5528C85.4161 21.3714 85.4098 21.8527 85.4098 15.9195V10.5559H85.7185H86.0272V12.5567C86.0272 13.9402 86.031 14.5815 86.041 14.6331C86.0738 14.8108 86.1746 14.9506 86.3271 15.025C86.4165 15.0703 86.4291 15.0729 86.5362 15.0716C86.6219 15.0716 86.6672 15.064 86.7176 15.0451C86.8965 14.9733 87.0162 14.8108 87.0477 14.5928C87.0641 14.4731 87.0641 10.5244 87.0477 10.3291C86.9797 9.56057 86.448 8.94067 85.7185 8.77688C85.6379 8.75924 85.5434 8.75042 85.3909 8.74664C85.0066 8.73782 81.8542 8.73404 81.7307 8.74286Z" fill="black"/>
</svg>
