<svg width="346" height="127" viewBox="0 0 346 127" fill="none" xmlns="http://www.w3.org/2000/svg">
<path d="M25.1478 55.6502L17.0985 53.1084L23.0296 41.67L25.5276 40.399M25.1478 55.6502L41.9241 47.1773M25.1478 55.6502L22.1823 57.6273M67.0887 34.468L47.1773 29.3842L37.1852 34.468M67.0887 34.468L56.9212 39.6031M67.0887 34.468L105.217 14.5202M230.192 31.9261L237.394 28.1133L131.059 1L105.217 14.5202M230.192 31.9261L336.103 59.8867L345 67.936L324.241 109.877H284.842L277.64 125.552H174.695M230.192 31.9261L211.128 41.852M135.296 107.01L131.483 117.291M135.296 107.01L150.547 106.911L145.887 117.661M135.296 107.01L129.365 106.488L122.163 106.064L70.0542 92.0837L59.0394 98.0148H1L21.335 58.1921L22.1823 57.6273M41.9241 47.1773L33.6207 44.6355M41.9241 47.1773L44.9575 45.6453M33.6207 44.6355L31.9261 44.2118L33.6207 43.3199M33.6207 44.6355L36.7557 42.903M25.5276 40.399L33.6207 43.3199M25.5276 40.399L28.5369 38.8679M33.6207 43.3199L36.7557 41.67M28.5369 38.8679L36.7557 41.67M28.5369 38.8679L31.3564 37.4335M36.7557 41.67L39.5517 40.1983M31.3564 37.4335L39.5517 40.1983M31.3564 37.4335L34.0443 36.0659M39.5517 40.1983L42.5172 38.6375M34.0443 36.0659L42.5172 38.6375M34.0443 36.0659L37.1852 34.468M42.5172 38.6375L45.2709 37.1882M37.1852 34.468L45.2709 37.1882M45.2709 37.1882L48.0246 35.7389H49.7192L47.3384 37.0546M36.7557 42.903L44.9575 45.6453M36.7557 42.903L39.5517 41.3578M44.9575 45.6453L47.7959 44.2118M39.5517 41.3578L47.7959 44.2118M39.5517 41.3578L41.9241 40.0467M47.7959 44.2118L50.9901 42.5985M41.9241 40.0467L50.9901 42.5985M41.9241 40.0467L44.9575 38.3704M50.9901 42.5985L53.532 41.3148M44.9575 38.3704L53.532 41.3148M44.9575 38.3704L47.3384 37.0546M53.532 41.3148L56.9212 39.6031M47.3384 37.0546L56.9212 39.6031M22.1823 57.6273L127.67 85.3054L142.074 77.8058M105.217 14.5202L179.778 33.7618M211.128 41.852L179.778 33.7618M211.128 41.852L236.123 48.2474M211.128 41.852L189.946 52.8808M142.074 77.8058L111.995 69.2069L147.581 50.5982M142.074 77.8058L147.198 75.1379M179.778 33.7618L147.581 50.5982M147.581 50.5982L177.66 59.2775M177.66 59.2775L175.542 60.3804M177.66 59.2775L178.507 58.8363M174.695 125.552L188.675 97.5911L223.414 80.2217L299.67 80.6453L306.448 66.2414L240.783 49.4398M174.695 125.552H152.241M236.123 48.2474L240.783 49.4398M236.123 48.2474L211.975 61.0204M240.783 49.4398L222.567 59.0239M211.975 64.9704L222.143 68.3596L225.264 66.665M222.567 59.0239L226.379 57.3448L236.97 60.3103L233.849 62.0049M222.567 59.0239L233.849 62.0049M222.567 59.0239L220.121 60.3103M233.849 62.0049L231.039 63.5301M220.121 60.3103L231.039 63.5301M220.121 60.3103L216.9 62.0049M231.039 63.5301L228.386 64.9704M216.9 62.0049L228.386 64.9704M216.9 62.0049L214.001 63.5301M228.386 64.9704L225.264 66.665M214.001 63.5301L189.522 76.4089L185.286 75.1379L197.995 68.4153M214.001 63.5301L225.264 66.665M147.198 75.1379L164.103 79.798L176.813 72.1724L160.714 68.1005M147.198 75.1379L160.714 68.1005M160.714 68.1005L175.542 60.3804M175.542 60.3804L186.98 63.6995M186.98 63.6995L185.709 64.5468L186.98 65.3941L187.805 64.9704M186.98 63.6995L189.522 62.3923M201.808 56.0739L202.655 57.3448L201.736 57.8169M201.808 56.0739L198.419 57.8169M201.808 56.0739L189.946 52.8808M178.507 58.8363L189.522 62.3923M178.507 58.8363L181.049 57.5129M189.522 62.3923L192.747 60.734M181.049 57.5129L192.747 60.734M181.049 57.5129L183.813 56.0739M192.747 60.734L195.579 59.2775M183.813 56.0739L195.579 59.2775M183.813 56.0739L186.557 54.6454M195.579 59.2775L198.419 57.8169M186.557 54.6454L198.419 57.8169M186.557 54.6454L189.946 52.8808M187.805 64.9704L197.995 68.4153M187.805 64.9704L190.28 63.6995M197.995 68.4153L200.537 67.0708M200.537 67.0708L190.28 63.6995M200.537 67.0708L203.502 65.5022M190.28 63.6995L192.747 62.433M203.502 65.5022L192.747 62.433M203.502 65.5022L206.468 63.9336M192.747 62.433L196.055 60.734M206.468 63.9336L196.055 60.734M206.468 63.9336L209.305 62.433M196.055 60.734L198.892 59.2775M209.305 62.433L198.892 59.2775M209.305 62.433L211.975 61.0204M198.892 59.2775L201.736 57.8169M211.975 61.0204L201.736 57.8169M152.241 125.552H127.67L131.483 117.291M152.241 125.552L156.207 117.926M163.256 104.369L156.207 117.926M156.207 117.926L145.887 117.661M131.483 117.291L145.887 117.661" stroke="#6FBA2D"/>
<path d="M158.53 68.4268C158.083 68.4268 157.721 68.789 157.721 69.2362C157.721 69.6833 158.083 70.0455 158.53 70.0455C158.977 70.0455 159.34 69.6833 159.34 69.2362C159.34 68.789 158.977 68.4268 158.53 68.4268Z" fill="black"/>
<path d="M161.985 68.4268C161.538 68.4268 161.176 68.789 161.176 69.2362C161.176 69.6833 161.538 70.0455 161.985 70.0455C162.432 70.0455 162.795 69.6833 162.795 69.2362C162.795 68.789 162.432 68.4268 161.985 68.4268Z" fill="black"/>
<path d="M165.441 68.4268C164.994 68.4268 164.632 68.789 164.632 69.2362C164.632 69.6833 164.994 70.0455 165.441 70.0455C165.889 70.0455 166.251 69.6833 166.251 69.2362C166.251 68.789 165.889 68.4268 165.441 68.4268Z" fill="black"/>
<path d="M167.286 64.5732H156.685C155.87 64.5732 155.207 65.2362 155.207 66.0507V77.4011C155.207 78.2159 155.87 78.8788 156.685 78.8788H167.286C168.101 78.8788 168.764 78.2159 168.764 77.4011V66.0507C168.764 65.2362 168.101 64.5732 167.286 64.5732ZM158.386 77.9464L158.53 74.7018L158.674 77.9464H158.386ZM161.841 77.9464L161.986 74.7018L162.13 77.9464H161.841ZM165.297 77.9464L165.441 74.7018L165.585 77.9464H165.297ZM167.831 77.4011C167.831 77.7018 167.587 77.9464 167.286 77.9464H166.33L166.356 74.1581C166.416 74.2454 166.514 74.3043 166.627 74.2989C166.801 74.2906 166.935 74.1431 166.927 73.9692L167.061 71.2747C167.061 70.2148 165.987 70.1627 165.441 70.1627C164.895 70.1627 163.821 70.2148 163.821 71.2747L163.912 73.9692C163.904 74.1431 164.037 74.2906 164.211 74.2989C164.363 74.3062 164.489 74.2019 164.526 74.0603L164.552 77.9463H162.874L162.901 74.1581C162.96 74.2454 163.058 74.3043 163.172 74.2989C163.345 74.2906 163.479 74.143 163.471 73.9692L163.605 71.2746C163.605 70.2148 162.531 70.1626 161.986 70.1626C161.439 70.1626 160.365 70.2148 160.365 71.2746L160.456 73.9692C160.448 74.143 160.582 74.2906 160.756 74.2989C160.908 74.3062 161.034 74.2016 161.07 74.0595L161.096 77.9463H159.419L159.445 74.1581C159.504 74.2454 159.602 74.3042 159.716 74.2989C159.89 74.2905 160.024 74.143 160.016 73.9691L160.15 71.2746C160.15 70.2148 159.076 70.1626 158.53 70.1626C157.984 70.1626 156.91 70.2148 156.91 71.2746L157 73.9691C156.992 74.143 157.126 74.2905 157.3 74.2989C157.452 74.3061 157.579 74.2016 157.614 74.0594L157.641 77.9463H156.685C156.384 77.9463 156.14 77.7017 156.14 77.401V66.0507C156.14 65.7503 156.384 65.5057 156.685 65.5057H167.286C167.587 65.5057 167.831 65.7503 167.831 66.0507V77.4011H167.831Z" fill="black"/>
<path d="M163.044 62.1456L164.152 61.0379V63.5285C164.152 63.7555 164.336 63.9396 164.563 63.9396C164.79 63.9396 164.975 63.7555 164.975 63.5285V61.0379L166.083 62.1456C166.163 62.2259 166.268 62.2663 166.373 62.2663C166.479 62.2663 166.584 62.2259 166.664 62.1456C166.825 61.9849 166.825 61.7245 166.664 61.5641L164.854 59.7537L164.563 59.4629L164.272 59.7537L162.462 61.5641C162.302 61.7245 162.302 61.9849 162.462 62.1456C162.623 62.3063 162.884 62.3063 163.044 62.1456Z" fill="black"/>
<path d="M159.116 63.8183C159.116 63.8185 159.116 63.8185 159.116 63.8185L159.407 64.1093L159.698 63.8185C159.698 63.8185 159.698 63.8185 159.698 63.8183L161.508 62.0081C161.669 61.8474 161.669 61.5868 161.508 61.4263C161.348 61.2656 161.087 61.2656 160.926 61.4263L159.819 62.5343V60.0438C159.819 59.8164 159.634 59.6323 159.407 59.6323C159.18 59.6323 158.996 59.8164 158.996 60.0438V62.5343L157.888 61.4263C157.727 61.2656 157.467 61.2656 157.306 61.4263C157.145 61.5867 157.145 61.8474 157.306 62.0081L159.116 63.8183Z" fill="black"/>
<path d="M139.395 103.542C139.058 103.604 138.785 103.75 138.552 103.996C137.987 104.593 138.014 105.542 138.614 106.107C138.992 106.464 139.525 106.596 140.039 106.463C140.195 106.422 140.442 106.295 140.58 106.184C141.048 105.809 141.246 105.183 141.08 104.606C140.943 104.134 140.589 103.762 140.13 103.605C139.895 103.525 139.619 103.502 139.395 103.542Z" fill="black"/>
<path d="M137.483 106.839C137.237 106.856 137.022 106.916 136.791 107.031C136.188 107.333 135.793 107.921 135.731 108.609C135.72 108.73 135.717 109.518 135.72 111.159L135.724 113.536L135.756 113.629C135.815 113.801 135.931 113.935 136.084 114.005C136.143 114.034 136.179 114.038 136.313 114.038C136.458 114.038 136.478 114.035 136.557 113.996C136.719 113.916 136.838 113.76 136.883 113.569C136.897 113.51 136.901 112.989 136.901 111.199V108.905H137.258H137.612V115.017C137.612 120.34 137.615 121.144 137.634 121.232C137.714 121.617 138.06 121.898 138.454 121.899C138.567 121.899 138.741 121.855 138.851 121.796C138.981 121.727 139.131 121.572 139.197 121.44C139.298 121.233 139.292 121.513 139.292 117.566V114.002H139.644H139.996V117.573C139.997 121.507 139.99 121.236 140.089 121.434C140.184 121.627 140.348 121.77 140.567 121.853C140.65 121.885 140.685 121.891 140.836 121.891C140.986 121.891 141.021 121.885 141.104 121.853C141.324 121.77 141.488 121.627 141.581 121.437C141.683 121.23 141.676 121.779 141.676 115.017V108.905H142.027H142.379V111.185C142.379 112.762 142.384 113.493 142.395 113.551C142.432 113.754 142.547 113.913 142.721 113.998C142.823 114.05 142.837 114.052 142.959 114.051C143.057 114.051 143.109 114.042 143.166 114.021C143.37 113.939 143.506 113.754 143.542 113.505C143.561 113.369 143.561 108.869 143.542 108.647C143.465 107.771 142.859 107.064 142.027 106.878C141.936 106.857 141.828 106.847 141.654 106.843C141.216 106.833 137.624 106.829 137.483 106.839Z" fill="black"/>
<path d="M148.693 103.543C148.169 103.638 147.746 103.973 147.542 104.454C147.452 104.664 147.418 104.853 147.427 105.095C147.431 105.23 147.443 105.328 147.464 105.409C147.582 105.855 147.864 106.207 148.265 106.406C149.022 106.778 149.928 106.471 150.299 105.714C150.391 105.526 150.432 105.385 150.451 105.186C150.502 104.631 150.243 104.085 149.782 103.781C149.455 103.565 149.056 103.478 148.693 103.543Z" fill="black"/>
<path d="M147.093 106.908C146.541 106.994 146.079 107.301 145.748 107.801C145.592 108.035 145.633 107.916 145.035 109.887C144.799 110.663 144.542 111.506 144.359 112.112C144.282 112.364 144.212 112.612 144.203 112.666C144.143 113.004 144.321 113.318 144.622 113.411C144.857 113.484 145.094 113.419 145.257 113.238C145.38 113.101 145.362 113.151 145.807 111.656C145.904 111.327 146.045 110.855 146.12 110.608C146.193 110.358 146.331 109.895 146.426 109.576L146.599 108.998H146.916C147.18 108.998 147.234 109.001 147.234 109.018C147.234 109.03 147.187 109.205 147.131 109.409C147.029 109.774 146.724 110.871 145.93 113.725C145.326 115.899 145.311 115.95 145.303 115.978C145.295 116.003 145.346 116.004 146.235 116.004H147.176V118.774C147.176 121.792 147.171 121.635 147.257 121.804C147.333 121.954 147.485 122.078 147.659 122.132C147.774 122.17 148.016 122.165 148.128 122.123C148.342 122.046 148.482 121.902 148.555 121.685C148.58 121.609 148.581 121.475 148.586 118.789L148.589 115.975H148.945H149.302V118.793C149.302 121.609 149.302 121.613 149.333 121.703C149.425 121.977 149.643 122.139 149.95 122.161C150.319 122.186 150.629 121.948 150.685 121.597C150.695 121.535 150.701 120.579 150.701 118.753V116.004H151.633C152.24 116.004 152.565 116 152.565 115.989C152.565 115.982 152.46 115.599 152.33 115.142C152.202 114.683 152.039 114.1 151.968 113.848C151.896 113.596 151.733 113.012 151.604 112.552C151.203 111.125 151.11 110.794 151.006 110.425C150.951 110.229 150.84 109.834 150.76 109.547C150.679 109.26 150.613 109.02 150.613 109.013C150.613 109.004 150.744 108.998 150.948 108.998H151.282L151.312 109.103C151.33 109.161 151.356 109.249 151.371 109.297C151.385 109.345 151.451 109.565 151.516 109.785C151.582 110.005 151.691 110.372 151.759 110.6C151.826 110.829 151.928 111.168 151.984 111.353C152.196 112.067 152.293 112.393 152.37 112.654C152.413 112.803 152.464 112.96 152.48 113.004C152.601 113.317 152.877 113.493 153.164 113.44C153.494 113.381 153.708 113.085 153.682 112.727C153.673 112.618 153.662 112.575 153.335 111.503C153.044 110.546 152.577 109.007 152.453 108.597C152.39 108.388 152.316 108.177 152.279 108.099C152.194 107.919 152.033 107.71 151.837 107.523C151.478 107.179 151.068 106.972 150.62 106.908C150.418 106.879 147.278 106.879 147.093 106.908Z" fill="black"/>
</svg>
