<svg width="349" height="131" viewBox="0 0 349 131" fill="none" xmlns="http://www.w3.org/2000/svg">
<path d="M167.136 92.9153L201.542 102.746L199.853 106.186M167.136 92.9153L66.3729 67.1886M167.136 92.9153L153.144 122.898M10.8305 48.678L5.42373 51.6271L66.3729 67.1886M10.8305 48.678L1 45.7288L5.91525 32.9492L9.84746 30.9175M10.8305 48.678L23.7085 41.8365M58.017 23.6102L35.4068 17.7119L26.0678 22.537M58.017 23.6102L101.763 1L225.627 33.007M58.017 23.6102L43.0544 31.559M188.271 129.78H302.797L323.883 86.0339M188.271 129.78H149.932L153.144 122.898M188.271 129.78L191.712 122.771M9.84746 30.9175L19.678 34.4237M9.84746 30.9175L13.2881 29.1398M19.678 34.4237L23.1186 32.4576M19.678 34.4237L17.2203 35.8983M23.1186 32.4576L13.2881 29.1398M23.1186 32.4576L17.2203 35.8983M23.1186 32.4576L26.0678 30.9175M13.2881 29.1398L16.2373 27.6161M16.2373 27.6161L26.0678 30.9175M16.2373 27.6161L20.1695 25.5845M26.0678 30.9175L29.5085 29.1398M29.5085 29.1398L20.1695 25.5845M29.5085 29.1398L33.4407 27.0508M20.1695 25.5845L23.1186 24.0607M23.1186 24.0607L33.4407 27.0508M23.1186 24.0607L26.0678 22.537M33.4407 27.0508L36.3898 25.5845M36.3898 25.5845L26.0678 22.537M36.3898 25.5845L37.8644 26.5593L36.3898 27.3785M17.2203 35.8983L20.1695 36.3898M20.1695 36.3898L28.5254 38.8475L31.9661 37.4497L23.7085 34.4237M20.1695 36.3898L23.7085 34.4237M23.7085 34.4237L30.0197 30.9175M27.0508 32.9492L35.4068 35.4068L38.5872 33.9322L30.0197 30.9175M30.0197 30.9175L33.4407 29.017M33.4407 29.017L42.2881 31.9661L43.0544 31.559M33.4407 29.017L36.3898 27.3785M36.3898 27.3785L45.2373 30.3994L43.0544 31.559M23.7085 41.8365L51.1356 48.678M23.7085 41.8365L43.0544 31.559M51.1356 48.678L68.8305 38.8475L43.0544 31.559M51.1356 48.678L85.5424 57.2439M66.3729 67.1886L85.5424 57.2439M148.458 58.5085L165.661 49.1695L122.898 37.8644L104.22 47.5541M148.458 58.5085L185.322 67.8475L172.542 77.678L151.898 71.2881L144.525 75.2203L184.187 54.5763M148.458 58.5085L104.22 47.5541M225.627 33.007L201.051 45.7989M225.627 33.007L253.153 40.1196M85.5424 57.2439L104.22 47.5541M184.187 54.5763L197.61 58.8672L201.051 56.9143L187.78 52.7065M184.187 54.5763L187.78 52.7065M187.78 52.7065L194.575 49.1695M191.712 51.1356L204 55.0678L207.768 53.1017L194.575 49.1695M194.575 49.1695L198.102 47.3339M198.102 47.3339L211.373 51.1356L213.831 49.661M198.102 47.3339L201.051 45.7989M213.831 49.661L201.051 45.7989M213.831 49.661L195.644 59.9831L198.102 60.4746L201.542 58.5631M213.831 49.661L215.797 50.6441L214.322 51.4633M198.593 60.4746L209.898 63.4237L211.496 62.6008M214.322 51.4633L226.119 55.0678L223.169 56.5871M214.322 51.4633L211.087 53.2605M211.087 53.2605L223.169 56.5871M211.087 53.2605L208.067 54.9385M223.169 56.5871L219.729 58.3595M208.067 54.9385L219.729 58.3595M208.067 54.9385L204.983 56.6516M219.729 58.3595L216.288 60.132M204.983 56.6516L216.288 60.132M204.983 56.6516L201.542 58.5631M216.288 60.132L213.093 61.7779M201.542 58.5631L213.093 61.7779M213.093 61.7779L211.496 62.6008M253.153 40.1196L300.831 52.4398M253.153 40.1196L234.475 50.2427M199.853 106.186L242.339 84.0678M199.853 106.186L191.712 122.771M242.339 84.0678L250.695 86.0339H323.883M242.339 84.0678L234.475 81.9154M323.883 86.0339L335.729 61.4576L300.831 52.4398M234.475 81.9154L275.763 61.4576M234.475 81.9154L225.627 79.494M275.763 61.4576L281.17 61.7779L300.831 52.4398M275.763 61.4576L234.475 50.2427M234.475 50.2427L195.644 71.2881L225.627 79.494M211.496 62.6008L240.373 69.322L225.627 79.494M153.144 122.898L191.712 122.771" stroke="#6FBA2D"/>
<path d="M175.308 98.3466C174.7 98.4564 174.21 98.8451 173.973 99.4028C173.868 99.6461 173.829 99.8658 173.839 100.146C173.845 100.304 173.858 100.417 173.882 100.511C174.019 101.028 174.346 101.437 174.811 101.667C175.69 102.1 176.741 101.743 177.172 100.865C177.278 100.647 177.326 100.483 177.348 100.253C177.407 99.609 177.106 98.9752 176.572 98.622C176.192 98.3719 175.729 98.2705 175.308 98.3466Z" fill="#EF4444"/>
<path d="M173.451 102.25C172.811 102.35 172.275 102.707 171.891 103.286C171.71 103.558 171.758 103.42 171.063 105.706C170.789 106.607 170.492 107.585 170.279 108.288C170.19 108.581 170.108 108.868 170.098 108.931C170.029 109.323 170.235 109.688 170.585 109.796C170.857 109.88 171.133 109.804 171.322 109.595C171.464 109.436 171.443 109.493 171.959 107.759C172.072 107.378 172.236 106.83 172.322 106.543C172.407 106.254 172.567 105.716 172.677 105.346L172.878 104.675H173.247C173.553 104.675 173.615 104.679 173.615 104.699C173.615 104.712 173.561 104.915 173.495 105.152C173.377 105.576 173.024 106.849 172.103 110.159C171.401 112.682 171.384 112.741 171.374 112.773C171.366 112.802 171.425 112.804 172.456 112.804H173.547V116.018C173.547 119.52 173.542 119.337 173.642 119.533C173.73 119.707 173.906 119.851 174.108 119.913C174.242 119.957 174.523 119.952 174.653 119.903C174.901 119.814 175.063 119.646 175.148 119.395C175.177 119.307 175.178 119.151 175.183 116.035L175.187 112.77H175.601H176.015V116.04C176.015 119.307 176.015 119.312 176.05 119.417C176.157 119.734 176.41 119.922 176.767 119.947C177.194 119.976 177.554 119.7 177.618 119.293C177.63 119.22 177.637 118.112 177.637 115.993V112.804H178.719C179.423 112.804 179.8 112.799 179.8 112.787C179.8 112.779 179.678 112.334 179.528 111.803C179.379 111.271 179.19 110.595 179.107 110.303C179.024 110.01 178.835 109.333 178.685 108.799C178.22 107.143 178.112 106.759 177.992 106.331C177.928 106.103 177.799 105.645 177.706 105.312C177.612 104.98 177.536 104.701 177.536 104.692C177.536 104.682 177.688 104.675 177.924 104.675H178.311L178.347 104.797C178.367 104.865 178.398 104.966 178.414 105.022C178.431 105.078 178.507 105.333 178.583 105.588C178.659 105.843 178.786 106.269 178.866 106.534C178.943 106.8 179.062 107.193 179.126 107.408C179.373 108.236 179.484 108.615 179.574 108.917C179.624 109.089 179.684 109.272 179.702 109.323C179.842 109.686 180.162 109.89 180.495 109.83C180.878 109.76 181.127 109.417 181.096 109.002C181.086 108.875 181.073 108.826 180.694 107.582C180.356 106.472 179.814 104.685 179.67 104.211C179.597 103.967 179.511 103.722 179.469 103.633C179.369 103.423 179.183 103.181 178.955 102.963C178.539 102.565 178.063 102.325 177.544 102.25C177.309 102.216 173.666 102.216 173.451 102.25Z" fill="#EF4444"/>
<rect x="250" y="45.8574" width="86" height="24" fill="white" stroke="#2C893A" stroke-width="2"/>
<path d="M263.409 59.4814C263.409 59.9854 263.285 60.4254 263.037 60.8014C262.789 61.1774 262.429 61.4694 261.957 61.6774C261.493 61.8774 260.925 61.9774 260.253 61.9774C259.957 61.9774 259.665 61.9574 259.377 61.9174C259.097 61.8774 258.825 61.8214 258.561 61.7494C258.305 61.6694 258.061 61.5734 257.829 61.4614V59.7694C258.237 59.9454 258.657 60.1094 259.089 60.2614C259.529 60.4054 259.965 60.4774 260.397 60.4774C260.693 60.4774 260.929 60.4374 261.105 60.3574C261.289 60.2774 261.421 60.1694 261.501 60.0334C261.589 59.8974 261.633 59.7414 261.633 59.5654C261.633 59.3494 261.557 59.1654 261.405 59.0134C261.261 58.8614 261.065 58.7214 260.817 58.5934C260.569 58.4574 260.285 58.3134 259.965 58.1614C259.765 58.0654 259.549 57.9534 259.317 57.8254C259.085 57.6894 258.861 57.5254 258.645 57.3334C258.437 57.1334 258.265 56.8934 258.129 56.6134C257.993 56.3334 257.925 55.9974 257.925 55.6054C257.925 55.0934 258.041 54.6574 258.273 54.2974C258.513 53.9294 258.849 53.6494 259.281 53.4574C259.721 53.2654 260.237 53.1694 260.829 53.1694C261.277 53.1694 261.701 53.2214 262.101 53.3254C262.509 53.4294 262.933 53.5774 263.373 53.7694L262.785 55.1854C262.393 55.0254 262.041 54.9014 261.729 54.8134C261.417 54.7254 261.097 54.6814 260.769 54.6814C260.545 54.6814 260.353 54.7174 260.193 54.7894C260.033 54.8614 259.909 54.9614 259.821 55.0894C259.741 55.2174 259.701 55.3694 259.701 55.5454C259.701 55.7454 259.761 55.9174 259.881 56.0614C260.001 56.1974 260.181 56.3294 260.421 56.4574C260.661 56.5854 260.961 56.7374 261.321 56.9134C261.761 57.1214 262.133 57.3374 262.437 57.5614C262.749 57.7854 262.989 58.0494 263.157 58.3534C263.325 58.6574 263.409 59.0334 263.409 59.4814ZM268.267 61.8574H266.455V54.8014H264.127V53.2894H270.595V54.8014H268.267V61.8574ZM276.316 61.8574L275.692 59.8174H272.572L271.948 61.8574H269.992L273.016 53.2534H275.236L278.272 61.8574H276.316ZM274.636 56.3014C274.596 56.1654 274.544 55.9934 274.48 55.7854C274.416 55.5774 274.352 55.3654 274.288 55.1494C274.224 54.9334 274.172 54.7454 274.132 54.5854C274.092 54.7454 274.036 54.9454 273.964 55.1854C273.9 55.4174 273.836 55.6414 273.772 55.8574C273.716 56.0654 273.672 56.2134 273.64 56.3014L273.028 58.2934H275.26L274.636 56.3014ZM281.145 61.8574H279.357V53.2894H284.265V54.7774H281.145V56.9854H284.049V58.4734H281.145V61.8574ZM287.731 61.8574H285.943V53.2894H290.851V54.7774H287.731V56.9854H290.635V58.4734H287.731V61.8574ZM303.422 57.5614C303.422 58.2254 303.338 58.8294 303.17 59.3734C303.01 59.9094 302.762 60.3734 302.426 60.7654C302.098 61.1574 301.674 61.4574 301.154 61.6654C300.642 61.8734 300.038 61.9774 299.342 61.9774C298.646 61.9774 298.038 61.8734 297.518 61.6654C297.006 61.4494 296.582 61.1494 296.246 60.7654C295.918 60.3734 295.67 59.9054 295.502 59.3614C295.342 58.8174 295.262 58.2134 295.262 57.5494C295.262 56.6614 295.406 55.8894 295.694 55.2334C295.99 54.5774 296.438 54.0694 297.038 53.7094C297.646 53.3414 298.418 53.1574 299.354 53.1574C300.282 53.1574 301.046 53.3414 301.646 53.7094C302.246 54.0694 302.69 54.5814 302.978 55.2454C303.274 55.9014 303.422 56.6734 303.422 57.5614ZM297.17 57.5614C297.17 58.1614 297.246 58.6774 297.398 59.1094C297.55 59.5414 297.786 59.8734 298.106 60.1054C298.426 60.3374 298.838 60.4534 299.342 60.4534C299.862 60.4534 300.278 60.3374 300.59 60.1054C300.91 59.8734 301.142 59.5414 301.286 59.1094C301.438 58.6774 301.514 58.1614 301.514 57.5614C301.514 56.6574 301.346 55.9494 301.01 55.4374C300.674 54.9254 300.122 54.6694 299.354 54.6694C298.842 54.6694 298.426 54.7854 298.106 55.0174C297.786 55.2494 297.55 55.5814 297.398 56.0134C297.246 56.4454 297.17 56.9614 297.17 57.5614ZM312.793 61.8574H310.489L306.757 55.3774H306.709C306.717 55.5774 306.725 55.7814 306.733 55.9894C306.741 56.1894 306.749 56.3934 306.757 56.6014C306.773 56.8014 306.785 57.0054 306.793 57.2134C306.801 57.4134 306.809 57.6174 306.817 57.8254V61.8574H305.197V53.2894H307.489L311.209 59.7094H311.245C311.237 59.5094 311.229 59.3134 311.221 59.1214C311.213 58.9214 311.205 58.7254 311.197 58.5334C311.197 58.3334 311.193 58.1374 311.185 57.9454C311.177 57.7454 311.169 57.5454 311.161 57.3454V53.2894H312.793V61.8574ZM314.959 61.8574V53.2894H316.771V60.3574H320.251V61.8574H314.959ZM324.045 56.8174L325.833 53.2894H327.789L324.945 58.5214V61.8574H323.145V58.5814L320.301 53.2894H322.269L324.045 56.8174Z" fill="#259333"/>
<path d="M166.076 63.502C165.557 63.502 165.137 63.9222 165.137 64.441C165.137 64.9598 165.557 65.3801 166.076 65.3801C166.595 65.3801 167.015 64.9598 167.015 64.441C167.015 63.9222 166.595 63.502 166.076 63.502Z" fill="black"/>
<path d="M170.085 63.502C169.566 63.502 169.146 63.9222 169.146 64.441C169.146 64.9598 169.566 65.3801 170.085 65.3801C170.603 65.3801 171.024 64.9598 171.024 64.441C171.024 63.9222 170.603 63.502 170.085 63.502Z" fill="black"/>
<path d="M174.095 63.502C173.576 63.502 173.155 63.9222 173.155 64.441C173.155 64.9598 173.576 65.3801 174.095 65.3801C174.613 65.3801 175.034 64.9598 175.034 64.441C175.034 63.9222 174.613 63.502 174.095 63.502Z" fill="black"/>
<path d="M176.235 59.0308H163.935C162.99 59.0308 162.221 59.7999 162.221 60.7449V73.914C162.221 74.8594 162.99 75.6285 163.935 75.6285H176.235C177.181 75.6285 177.95 74.8594 177.95 73.914V60.7449C177.95 59.7999 177.181 59.0308 176.235 59.0308ZM165.909 74.5467L166.076 70.7822L166.243 74.5467H165.909ZM169.918 74.5467L170.085 70.7822L170.253 74.5467H169.918ZM173.927 74.5467L174.095 70.7822L174.262 74.5467H173.927ZM176.868 73.914C176.868 74.263 176.584 74.5467 176.235 74.5467H175.126L175.156 70.1514C175.225 70.2527 175.339 70.321 175.471 70.3148C175.672 70.3051 175.828 70.134 175.818 69.9322L175.974 66.806C175.974 65.5763 174.728 65.5158 174.095 65.5158C173.461 65.5158 172.215 65.5763 172.215 66.806L172.32 69.9322C172.311 70.134 172.466 70.3051 172.668 70.3148C172.844 70.3232 172.99 70.2022 173.032 70.0379L173.063 74.5466H171.117L171.147 70.1514C171.216 70.2527 171.33 70.321 171.461 70.3148C171.663 70.3051 171.819 70.1339 171.809 69.9322L171.964 66.8059C171.964 65.5763 170.719 65.5158 170.085 65.5158C169.452 65.5158 168.206 65.5763 168.206 66.8059L168.31 69.9322C168.301 70.1339 168.456 70.3051 168.658 70.3148C168.835 70.3232 168.981 70.2019 169.023 70.037L169.054 74.5466H167.107L167.137 70.1514C167.207 70.2526 167.32 70.3209 167.452 70.3147C167.654 70.305 167.809 70.1339 167.8 69.9321L167.955 66.8059C167.955 65.5762 166.71 65.5157 166.076 65.5157C165.443 65.5157 164.197 65.5762 164.197 66.8059L164.301 69.9321C164.292 70.1339 164.447 70.305 164.649 70.3147C164.826 70.3231 164.972 70.2019 165.014 70.0369L165.045 74.5465H163.935C163.586 74.5465 163.303 74.2628 163.303 73.9139V60.7449C163.303 60.3964 163.586 60.1126 163.935 60.1126H176.235C176.584 60.1126 176.868 60.3964 176.868 60.7449V73.914H176.868Z" fill="black"/>
<path d="M171.314 56.2141L172.599 54.9289V57.8186C172.599 58.082 172.813 58.2956 173.076 58.2956C173.34 58.2956 173.554 58.082 173.554 57.8186V54.9289L174.839 56.2141C174.933 56.3073 175.055 56.3541 175.176 56.3541C175.299 56.3541 175.421 56.3073 175.514 56.2141C175.701 56.0277 175.701 55.7256 175.514 55.5394L173.414 53.439L173.076 53.1016L172.739 53.439L170.639 55.5394C170.452 55.7255 170.452 56.0277 170.639 56.2141C170.825 56.4005 171.128 56.4005 171.314 56.2141Z" fill="black"/>
<path d="M166.757 58.155C166.757 58.1553 166.757 58.1553 166.757 58.1553L167.094 58.4926L167.432 58.1553C167.432 58.1553 167.432 58.1553 167.432 58.155L169.532 56.0548C169.718 55.8684 169.718 55.566 169.532 55.3798C169.346 55.1934 169.043 55.1934 168.857 55.3798L167.572 56.6653V53.7757C167.572 53.5119 167.358 53.2983 167.094 53.2983C166.831 53.2983 166.617 53.5119 166.617 53.7757V56.6653L165.332 55.3798C165.145 55.1934 164.843 55.1934 164.656 55.3798C164.47 55.5659 164.47 55.8684 164.656 56.0548L166.757 58.155Z" fill="black"/>
<rect x="191.5" y="111.5" width="55" height="17" fill="white" stroke="#2C893A"/>
<path d="M195.996 119.896C197.428 119.528 198.596 119.008 199.492 118.456C200.308 117.952 201.22 117.152 201.74 116.52L202.604 117.336C201.876 118.072 200.9 118.824 199.956 119.392C199.052 119.928 197.756 120.528 196.492 120.904L195.996 119.896ZM199.324 118.976L200.46 118.704V122.312C200.46 122.664 200.476 123.16 200.532 123.36H199.26C199.292 123.168 199.324 122.664 199.324 122.312V118.976ZM209.164 117.456C209.396 117.792 209.74 118.368 209.924 118.736L209.204 119.048C208.972 118.544 208.764 118.16 208.468 117.744L209.164 117.456ZM210.236 117.016C210.476 117.336 210.836 117.904 211.02 118.264L210.316 118.6C210.06 118.096 209.844 117.736 209.548 117.336L210.236 117.016ZM203.78 120.728C204.012 120.528 204.188 120.36 204.436 120.112C204.796 119.752 205.42 118.968 205.972 118.312C206.452 117.744 206.924 117.656 207.54 118.24C208.084 118.752 208.692 119.384 209.172 119.904C209.708 120.48 210.532 121.36 211.148 122.016L210.26 122.968C209.724 122.304 209.052 121.472 208.58 120.92C208.108 120.368 207.404 119.592 207.116 119.296C206.852 119.04 206.684 119.056 206.46 119.344C206.14 119.752 205.58 120.536 205.252 120.976C205.068 121.224 204.884 121.512 204.74 121.72L203.78 120.728ZM213.428 116.92C213.98 117.296 215.02 118.128 215.492 118.616L214.676 119.448C214.26 119 213.252 118.128 212.668 117.728L213.428 116.92ZM212.42 122.248C213.676 122.072 214.708 121.664 215.484 121.208C216.852 120.392 217.892 119.176 218.404 118.096L219.02 119.216C218.42 120.304 217.356 121.408 216.068 122.184C215.252 122.672 214.22 123.112 213.1 123.304L212.42 122.248ZM222.004 122.24C222.004 121.624 222.004 118.312 222.004 117.64C222.004 117.352 221.98 116.96 221.924 116.672H223.172C223.14 116.96 223.1 117.304 223.1 117.64C223.1 118.52 223.108 121.648 223.108 122.24C223.108 122.464 223.14 123.024 223.18 123.352H221.924C221.98 123.04 222.004 122.552 222.004 122.24ZM222.868 118.744C223.932 119.04 225.66 119.672 226.444 120.056L225.996 121.168C225.084 120.696 223.74 120.184 222.868 119.896V118.744ZM227.964 117.76H235.044V118.736H227.964V117.76ZM229.612 121.392H233.324V122.368H229.612V121.392ZM230.98 116.208H232.004V123.72H230.98V116.208ZM230.692 118.112L231.572 118.392C230.884 120.136 229.748 121.664 228.348 122.544C228.188 122.304 227.868 121.936 227.652 121.744C228.964 121.024 230.124 119.584 230.692 118.112ZM232.292 118.136C232.876 119.56 234.044 120.952 235.388 121.648C235.148 121.848 234.804 122.248 234.644 122.52C233.236 121.656 232.116 120.128 231.42 118.424L232.292 118.136ZM240.156 116.664H242.484V117.568H241.092V123.72H240.156V116.664ZM235.94 116.976H239.812V117.808H235.94V116.976ZM235.772 119.216H239.908V120.08H235.772V119.216ZM237.412 116.264H238.34V117.496H237.412V116.264ZM236.404 118.032L237.196 117.864C237.356 118.224 237.476 118.712 237.524 119.032L236.684 119.232C236.66 118.904 236.54 118.408 236.404 118.032ZM238.548 117.832L239.444 118.024C239.268 118.472 239.108 118.928 238.964 119.232L238.212 119.048C238.34 118.712 238.484 118.2 238.548 117.832ZM236.556 122.496H239.028V123.328H236.556V122.496ZM236.228 120.608H239.548V123.696H238.62V121.44H237.116V123.728H236.228V120.608ZM242.236 116.664H242.42L242.572 116.632L243.276 117.072C242.988 117.848 242.636 118.768 242.324 119.456C242.988 120.168 243.116 120.8 243.124 121.336C243.124 121.928 242.988 122.32 242.684 122.528C242.524 122.64 242.34 122.704 242.132 122.736C241.948 122.76 241.724 122.76 241.492 122.752C241.484 122.488 241.404 122.08 241.252 121.816C241.428 121.824 241.588 121.832 241.708 121.824C241.82 121.824 241.924 121.8 242.004 121.752C242.14 121.664 242.196 121.488 242.196 121.208C242.188 120.776 242.02 120.192 241.372 119.568C241.692 118.8 242.06 117.56 242.236 117V116.664Z" fill="#2C893A"/>
<path d="M175.75 82C175.44 82 174.157 82 174.157 82V82.9293C174.157 82.9293 175.042 82.9293 175.971 82.9293C177.697 82.9293 178.14 83.7698 178.14 83.7698C178.14 83.7698 178.14 83.7698 178.449 83.5486C177.918 82.177 176.06 82 175.75 82Z" fill="black"/>
<path d="M172.157 89.167L172 89.958H173.08L172.923 89.167H172.157Z" fill="black"/>
<path d="M175.559 84.2514V83.4747C175.559 83.3169 175.431 83.189 175.272 83.189H174.739C174.58 83.189 174.453 83.3169 174.453 83.4747V84.2666C173.782 84.5033 173.302 85.1425 173.302 85.8937V91.3363C173.302 91.7027 173.599 91.9998 173.966 91.9998H176.09C176.456 91.9998 176.753 91.7027 176.753 91.3363V85.8937C176.753 85.1258 176.252 84.4754 175.559 84.2514ZM175.946 89.9423H174.109V87.6978H175.946V89.9423Z" fill="black"/>
<path d="M172.745 85.9246C172.745 85.169 173.132 84.4763 173.746 84.0743L173.748 84.0729L173.748 84.0731C173.751 84.0701 173.875 83.9924 174.071 83.9258V83.5C173.747 83.5873 173.542 83.7204 173.522 83.7329C173.522 83.7331 173.522 83.7331 173.522 83.7331C173.522 83.7333 173.52 83.7345 173.52 83.7347L173.52 83.7349C172.794 84.2115 172.337 85.0299 172.337 85.9246V89.027H172.745V85.9246ZM173.751 84.0709L173.749 84.0727L173.749 84.0725L173.751 84.0709Z" fill="black"/>
<rect x="67" y="9.85742" width="86" height="24" fill="white" stroke="#2C893A" stroke-width="2"/>
<path d="M80.4092 23.4814C80.4092 23.9854 80.2852 24.4254 80.0372 24.8014C79.7892 25.1774 79.4292 25.4694 78.9572 25.6774C78.4932 25.8774 77.9252 25.9774 77.2532 25.9774C76.9572 25.9774 76.6652 25.9574 76.3772 25.9174C76.0972 25.8774 75.8252 25.8214 75.5612 25.7494C75.3052 25.6694 75.0612 25.5734 74.8292 25.4614V23.7694C75.2372 23.9454 75.6572 24.1094 76.0892 24.2614C76.5292 24.4054 76.9652 24.4774 77.3972 24.4774C77.6932 24.4774 77.9292 24.4374 78.1052 24.3574C78.2892 24.2774 78.4212 24.1694 78.5012 24.0334C78.5892 23.8974 78.6332 23.7414 78.6332 23.5654C78.6332 23.3494 78.5572 23.1654 78.4052 23.0134C78.2612 22.8614 78.0652 22.7214 77.8172 22.5934C77.5692 22.4574 77.2852 22.3134 76.9652 22.1614C76.7652 22.0654 76.5492 21.9534 76.3172 21.8254C76.0852 21.6894 75.8612 21.5254 75.6452 21.3334C75.4372 21.1334 75.2652 20.8934 75.1292 20.6134C74.9932 20.3334 74.9252 19.9974 74.9252 19.6054C74.9252 19.0934 75.0412 18.6574 75.2732 18.2974C75.5132 17.9294 75.8492 17.6494 76.2812 17.4574C76.7212 17.2654 77.2372 17.1694 77.8292 17.1694C78.2772 17.1694 78.7012 17.2214 79.1012 17.3254C79.5092 17.4294 79.9332 17.5774 80.3732 17.7694L79.7852 19.1854C79.3932 19.0254 79.0412 18.9014 78.7292 18.8134C78.4172 18.7254 78.0972 18.6814 77.7692 18.6814C77.5452 18.6814 77.3532 18.7174 77.1932 18.7894C77.0332 18.8614 76.9092 18.9614 76.8212 19.0894C76.7412 19.2174 76.7012 19.3694 76.7012 19.5454C76.7012 19.7454 76.7612 19.9174 76.8812 20.0614C77.0012 20.1974 77.1812 20.3294 77.4212 20.4574C77.6612 20.5854 77.9612 20.7374 78.3212 20.9134C78.7612 21.1214 79.1332 21.3374 79.4372 21.5614C79.7492 21.7854 79.9892 22.0494 80.1572 22.3534C80.3252 22.6574 80.4092 23.0334 80.4092 23.4814ZM85.2665 25.8574H83.4545V18.8014H81.1265V17.2894H87.5945V18.8014H85.2665V25.8574ZM93.316 25.8574L92.692 23.8174H89.572L88.948 25.8574H86.992L90.016 17.2534H92.236L95.272 25.8574H93.316ZM91.636 20.3014C91.596 20.1654 91.544 19.9934 91.48 19.7854C91.416 19.5774 91.352 19.3654 91.288 19.1494C91.224 18.9334 91.172 18.7454 91.132 18.5854C91.092 18.7454 91.036 18.9454 90.964 19.1854C90.9 19.4174 90.836 19.6414 90.772 19.8574C90.716 20.0654 90.672 20.2134 90.64 20.3014L90.028 22.2934H92.26L91.636 20.3014ZM98.1452 25.8574H96.3572V17.2894H101.265V18.7774H98.1452V20.9854H101.049V22.4734H98.1452V25.8574ZM104.731 25.8574H102.943V17.2894H107.851V18.7774H104.731V20.9854H107.635V22.4734H104.731V25.8574ZM120.422 21.5614C120.422 22.2254 120.338 22.8294 120.17 23.3734C120.01 23.9094 119.762 24.3734 119.426 24.7654C119.098 25.1574 118.674 25.4574 118.154 25.6654C117.642 25.8734 117.038 25.9774 116.342 25.9774C115.646 25.9774 115.038 25.8734 114.518 25.6654C114.006 25.4494 113.582 25.1494 113.246 24.7654C112.918 24.3734 112.67 23.9054 112.502 23.3614C112.342 22.8174 112.262 22.2134 112.262 21.5494C112.262 20.6614 112.406 19.8894 112.694 19.2334C112.99 18.5774 113.438 18.0694 114.038 17.7094C114.646 17.3414 115.418 17.1574 116.354 17.1574C117.282 17.1574 118.046 17.3414 118.646 17.7094C119.246 18.0694 119.69 18.5814 119.978 19.2454C120.274 19.9014 120.422 20.6734 120.422 21.5614ZM114.17 21.5614C114.17 22.1614 114.246 22.6774 114.398 23.1094C114.55 23.5414 114.786 23.8734 115.106 24.1054C115.426 24.3374 115.838 24.4534 116.342 24.4534C116.862 24.4534 117.278 24.3374 117.59 24.1054C117.91 23.8734 118.142 23.5414 118.286 23.1094C118.438 22.6774 118.514 22.1614 118.514 21.5614C118.514 20.6574 118.346 19.9494 118.01 19.4374C117.674 18.9254 117.122 18.6694 116.354 18.6694C115.842 18.6694 115.426 18.7854 115.106 19.0174C114.786 19.2494 114.55 19.5814 114.398 20.0134C114.246 20.4454 114.17 20.9614 114.17 21.5614ZM129.793 25.8574H127.489L123.757 19.3774H123.709C123.717 19.5774 123.725 19.7814 123.733 19.9894C123.741 20.1894 123.749 20.3934 123.757 20.6014C123.773 20.8014 123.785 21.0054 123.793 21.2134C123.801 21.4134 123.809 21.6174 123.817 21.8254V25.8574H122.197V17.2894H124.489L128.209 23.7094H128.245C128.237 23.5094 128.229 23.3134 128.221 23.1214C128.213 22.9214 128.205 22.7254 128.197 22.5334C128.197 22.3334 128.193 22.1374 128.185 21.9454C128.177 21.7454 128.169 21.5454 128.161 21.3454V17.2894H129.793V25.8574ZM131.959 25.8574V17.2894H133.771V24.3574H137.251V25.8574H131.959ZM141.045 20.8174L142.833 17.2894H144.789L141.945 22.5214V25.8574H140.145V22.5814L137.301 17.2894H139.269L141.045 20.8174Z" fill="#259333"/>
<path d="M84.7501 55C84.4404 55 83.1572 55 83.1572 55V55.9293C83.1572 55.9293 84.0423 55.9293 84.9715 55.9293C86.6973 55.9293 87.1396 56.7698 87.1396 56.7698C87.1396 56.7698 87.1396 56.7698 87.4493 56.5486C86.9184 55.177 85.0601 55 84.7501 55Z" fill="black"/>
<path d="M81.1568 62.167L81 62.958H82.0798L81.9229 62.167H81.1568Z" fill="black"/>
<path d="M84.5586 57.2514V56.4747C84.5586 56.3169 84.4306 56.189 84.2724 56.189H83.7388C83.5804 56.189 83.4527 56.3169 83.4527 56.4747V57.2666C82.7824 57.5033 82.3018 58.1425 82.3018 58.8937V64.3363C82.3018 64.7027 82.5995 64.9998 82.9657 64.9998H85.0898C85.4564 64.9998 85.7533 64.7027 85.7533 64.3363V58.8937C85.7533 58.1258 85.252 57.4754 84.5586 57.2514ZM84.9457 62.9423H83.1094V60.6978H84.9457V62.9423Z" fill="black"/>
<path d="M81.745 58.9246C81.7448 58.169 82.1321 57.4763 82.7461 57.0743L82.7481 57.0729L82.7483 57.0731C82.7514 57.0701 82.875 56.9924 83.0708 56.9258V56.5C82.7469 56.5873 82.5422 56.7204 82.5225 56.7329C82.5223 56.7331 82.5223 56.7331 82.5223 56.7331C82.5219 56.7333 82.5199 56.7345 82.5197 56.7347L82.5199 56.7349C81.794 57.2115 81.3371 58.0299 81.3369 58.9246V62.027H81.745V58.9246ZM82.7513 57.0709L82.7489 57.0727L82.7487 57.0725L82.7513 57.0709Z" fill="black"/>
<path d="M14.3301 64.5336C14.3301 65.2824 14.9401 65.889 15.6854 65.889C16.4344 65.889 17.0408 65.2824 17.0408 64.5336C17.0408 63.7882 16.4345 63.1782 15.6854 63.1782C14.9401 63.1782 14.3301 63.7882 14.3301 64.5336Z" fill="black"/>
<path d="M15.0001 78.4602L14.5024 78.4575L14.5034 78.4602H14.4961L15.1195 79.9952H16.9899L16.3021 78.4602H15.0001Z" fill="black"/>
<path d="M10.0586 60H10.0068H10V79.9272V79.9881V79.995H12.3571L14.0818 80L14.0765 79.995H14.0864L12.3177 78.3381V70.1584H14.5031L15.6823 69.0949L16.0254 68.788L17.0309 70.9547L15.1498 75.5726L14.4388 77.3112H14.4416L14.4388 77.318H16.2448L17.6871 74.1098L18.8289 71.5833L19.7924 75.6409H24.6108C24.8886 75.6409 25.0547 75.336 24.9021 75.1055L24.3059 74.2042C24.2923 74.1873 24.2787 74.1738 24.2652 74.1567C24.2008 74.089 24.1126 74.0483 24.0178 74.0483H21.2123L20.504 70.3312L19.5457 68.2613L19.1518 67.4037H20.6327L21.6052 69.2402C21.6662 69.3554 21.7847 69.4164 21.9 69.4164C21.9611 69.4164 22.022 69.3994 22.0762 69.3656L22.7504 68.9488C22.8995 68.8539 22.9505 68.6575 22.8623 68.5049L21.429 65.9636H17.8103C16.9902 65.9636 16.2109 66.3058 15.6586 66.909L14.1168 68.5862H12.3178V61.8772H24.6274H24.6583V73.6484C24.8243 73.7027 24.97 73.8112 25.0683 73.9603L25.6646 74.8582C25.8239 75.102 25.8408 75.4104 25.702 75.6679C25.563 75.9255 25.2986 76.0848 25.0073 76.0848H24.6583V78.3381L26.4304 79.995H26.9792V60H10.0586Z" fill="black"/>
<path d="M102.625 50.3994C101.447 50.3994 100.673 51.0265 100.443 51.7614C100.214 51.0265 99.4403 50.3994 98.2617 50.3994C97.0172 50.3994 95.8917 51.5402 96.0083 53.0999C96.1682 55.2398 99.8282 57.9998 100.443 57.9998C101.059 57.9998 104.719 55.2398 104.879 53.0999C104.995 51.5402 103.87 50.3994 102.625 50.3994ZM102.242 53.7078L99.0158 56.4691L100.09 54.5202H99.2099L100.132 52.2467H102.27L101.163 53.7079H102.242V53.7078Z" fill="black"/>
<path d="M97.6386 49.8686H97.905C97.9243 49.8686 97.9353 49.8604 97.9407 49.8411L98.0643 49.4786L98.0994 49.3757H98.7327L98.7678 49.4786L98.8917 49.8411C98.8972 49.8604 98.9082 49.8686 98.9274 49.8686H99.1965C99.2158 49.8686 99.2213 49.8573 99.2158 49.8411L98.5837 48.0275C98.5782 48.0113 98.5673 48 98.548 48H98.295C98.2761 48 98.2648 48.0113 98.2593 48.0275L97.6191 49.8411C97.6139 49.8573 97.6191 49.8686 97.6386 49.8686ZM98.4135 48.4645H98.4217L98.6558 49.1511H98.1766L98.4135 48.4645Z" fill="black"/>
<path d="M99.8934 49.8686H101.064C101.081 49.8686 101.092 49.8573 101.092 49.8411V49.6046C101.092 49.5881 101.081 49.5774 101.064 49.5774H100.207C100.196 49.5774 100.19 49.5716 100.19 49.5607V49.0883C100.19 49.0773 100.196 49.0718 100.207 49.0718H100.799C100.815 49.0718 100.826 49.0608 100.826 49.0443V48.8081C100.826 48.7913 100.815 48.7803 100.799 48.7803H100.207C100.196 48.7803 100.19 48.7748 100.19 48.7638V48.3082C100.19 48.2966 100.196 48.2914 100.207 48.2914H101.064C101.081 48.2914 101.092 48.2802 101.092 48.2637V48.0275C101.092 48.0113 101.081 48 101.064 48H99.8934C99.8769 48 99.8662 48.0113 99.8662 48.0275V49.8411C99.8662 49.8573 99.8769 49.8686 99.8934 49.8686Z" fill="black"/>
<path d="M101.932 49.8686H102.6C102.921 49.8686 103.135 49.7258 103.223 49.4536C103.254 49.3602 103.27 49.2586 103.27 48.9341C103.27 48.61 103.254 48.5084 103.223 48.415C103.135 48.1431 102.921 48 102.599 48H101.932C101.915 48 101.904 48.0113 101.904 48.0275V49.8411C101.904 49.8573 101.915 49.8686 101.932 49.8686ZM102.229 48.3082C102.229 48.2966 102.234 48.2914 102.245 48.2914H102.523C102.729 48.2914 102.855 48.3601 102.91 48.5277C102.929 48.5798 102.943 48.6622 102.943 48.9342C102.943 49.2036 102.929 49.2891 102.91 49.341C102.855 49.5085 102.729 49.5775 102.523 49.5775H102.245C102.234 49.5775 102.229 49.5717 102.229 49.5607V48.3082Z" fill="black"/>
</svg>
