<?xml version="1.0" encoding="UTF-8"?>
<svg id="_レイヤー_1" xmlns="http://www.w3.org/2000/svg" version="1.1" viewBox="0 0 593.2 358.96">
  <!-- Generator: Adobe Illustrator 29.5.1, SVG Export Plug-In . SVG Version: 2.1.0 Build 141)  -->
  <defs>
    <style>
      .st0, .st1, .st2 {
        isolation: isolate;
      }

      .st0, .st3, .st4, .st5 {
        fill: none;
        stroke: #f3858e;
        stroke-miterlimit: 10;
      }

      .st0, .st2 {
        font-family: BIZ-UDGothic, 'BIZ UDGothic';
        font-size: 26.3px;
        letter-spacing: .2em;
      }

      .st6 {
        fill: #ef4444;
      }

      .st2 {
        fill: #f3858e;
      }

      .st4 {
        stroke-width: 3px;
      }

      .st5 {
        stroke-width: 2px;
      }
    </style>
  </defs>
  <g>
    <g>
      <line class="st3" x1="120.8" y1="169.18" x2="120.8" y2="205.18"/>
      <line class="st3" x1="128.51" y1="167.67" x2="128.51" y2="205.35"/>
      <line class="st3" x1="135.71" y1="168.34" x2="135.71" y2="205.68"/>
      <line class="st3" x1="143.41" y1="168.17" x2="143.41" y2="205.85"/>
      <line class="st3" x1="145.59" y1="208.19" x2="185.94" y2="208.19"/>
      <line class="st3" x1="145.92" y1="214.39" x2="185.61" y2="214.39"/>
      <line class="st3" x1="145.75" y1="220.59" x2="185.77" y2="220.59"/>
      <line class="st3" x1="140.23" y1="221.76" x2="140.23" y2="253.57"/>
      <line class="st3" x1="132.36" y1="221.76" x2="132.36" y2="253.41"/>
      <line class="st3" x1="124.82" y1="221.59" x2="124.82" y2="252.74"/>
      <line class="st3" x1="117.12" y1="221.76" x2="117.12" y2="252.57"/>
      <line class="st3" x1="115.11" y1="218.24" x2="80.95" y2="218.24"/>
      <line class="st3" x1="80.62" y1="212.21" x2="116.28" y2="212.21"/>
      <line class="st3" x1="80.95" y1="206.19" x2="115.95" y2="206.19"/>
    </g>
    <g>
      <polyline class="st4" points="184.96 322.15 184.96 167.23 1.5 167.23 1.5 2.25 591.7 1.5 591.7 357.46 314.18 357.46 314.18 319.59 184.96 319.59"/>
      <line class="st4" x1="79.78" y1="167.98" x2="79.78" y2="254.68"/>
      <line class="st4" x1="80.53" y1="253.78" x2="184.36" y2="253.78"/>
    </g>
    <g>
      <line class="st5" x1="115.54" y1="204.95" x2="115.54" y2="222.53"/>
      <line class="st5" x1="114.08" y1="220.61" x2="146.42" y2="220.61"/>
      <line class="st5" x1="144.96" y1="222.19" x2="144.96" y2="205.29"/>
      <line class="st5" x1="114.64" y1="205.74" x2="145.97" y2="205.74"/>
      <polyline class="st5" points="120.84 165.96 120.84 88.76 185.3 88.76"/>
      <polyline class="st5" points="185.75 165.96 185.75 47.4 204.57 47.4"/>
      <line class="st5" x1="441.34" y1="2.89" x2="441.34" y2="46.17"/>
      <line class="st5" x1="384.76" y1="47.63" x2="384.76" y2="319.67"/>
      <line class="st5" x1="314.78" y1="319.33" x2="591.78" y2="319.33"/>
      <line class="st5" x1="79.9" y1="4.54" x2="79.9" y2="114.98"/>
      <line class="st5" x1="79.9" y1="146.39" x2="79.9" y2="166.66"/>
      <line class="st5" x1="230.37" y1="46.59" x2="591.07" y2="46.59"/>
      <line class="st5" x1="474.55" y1="3.53" x2="474.55" y2="44.56"/>
    </g>
  </g>
  <g class="st1">
    <text class="st2" transform="translate(288.67 217.62)"><tspan x="0" y="0">STAFF ONLY</tspan></text>
    <text class="st0" transform="translate(288.67 217.62)"><tspan x="0" y="0">STAFF ONLY</tspan></text>
  </g>
  <g>
    <path class="st6" d="M38.58,49.42c-1.17.21-2.11.96-2.56,2.03-.2.47-.28.89-.26,1.43,0,.3.04.52.08.7.26.99.89,1.78,1.79,2.22,1.69.83,3.71.15,4.53-1.54.2-.42.3-.73.34-1.18.11-1.24-.46-2.45-1.49-3.13-.73-.48-1.62-.68-2.43-.53Z"/>
    <path class="st6" d="M35.02,56.92c-1.23.19-2.26.88-3,1.99-.35.52-.26.26-1.59,4.65-.53,1.73-1.1,3.61-1.51,4.96-.17.56-.33,1.11-.35,1.23-.13.75.26,1.45.93,1.66.52.16,1.05.02,1.42-.39.27-.31.23-.19,1.22-3.53.22-.73.53-1.79.7-2.34.16-.56.47-1.59.68-2.3l.39-1.29h.71c.59,0,.71,0,.71.05,0,.03-.1.42-.23.87-.23.81-.91,3.26-2.67,9.62-1.35,4.85-1.38,4.96-1.4,5.02s.1.06,2.08.06h2.1v6.17c0,6.73,0,6.38.18,6.75.17.33.51.61.9.73.26.08.8.07,1.05-.02.48-.17.79-.49.95-.98.06-.17.06-.47.07-6.45v-6.27h1.6v6.28c0,6.27,0,6.28.07,6.49.2.61.69.97,1.38,1.02.82.06,1.51-.47,1.64-1.26.02-.14.04-2.27.04-6.34v-6.13h2.08c1.35,0,2.08,0,2.08-.03,0-.02-.23-.87-.52-1.89s-.65-2.32-.81-2.88-.52-1.86-.81-2.89c-.89-3.18-1.1-3.92-1.33-4.74-.12-.44-.37-1.32-.55-1.96s-.33-1.18-.33-1.19c0-.02.29-.03.75-.03h.74l.07.23c.04.13.1.32.13.43.03.11.18.6.32,1.09.15.49.39,1.31.54,1.82s.38,1.27.5,1.68c.47,1.59.69,2.32.86,2.9.1.33.21.68.25.78.27.7.88,1.09,1.52.97.74-.13,1.21-.79,1.16-1.59-.02-.24-.05-.34-.77-2.73-.65-2.13-1.69-5.56-1.97-6.48-.14-.47-.31-.94-.39-1.11-.19-.4-.55-.87-.99-1.29-.8-.77-1.71-1.23-2.71-1.37-.45-.06-7.45-.06-7.86,0l-.03.03Z"/>
  </g>
  <g>
    <path d="M109.26,125.99c-.3.03-1.68.11-3.06.16-1.83.08-2.62.14-2.88.24-.47.17-1.16.86-1.52,1.53-.14.28-.5.73-.77,1.02l-.51.5h-.96c-1.08,0-1.38.09-1.59.5-.29.55-.02,1.29.55,1.49.16.06.69.1,1.17.1h.87l.34.37c.5.51.9.69,1.6.69.65,0,1.05-.15,1.49-.56.25-.24.27-.24.73-.14,1.31.26,3.63,1.19,5.88,2.35.71.36,1.3.66,1.31.66,0,0,0-.39-.03-.86-.03-.64-.07-.9-.18-1.02-.18-.22-1.95-1.36-3.54-2.3l-1.32-.77h-1.1c-.73,0-1.13-.07-1.2-.21-.06-.13-.07-.24-.02-.29.18-.18,4.79-1.81,6.15-2.18l.34-.09-.22-.39c-.31-.55-.62-.86-.82-.84-.1,0-.42.03-.72.07v-.03ZM102.78,129.69c.53.18.7.87.32,1.31-.17.19-.27.24-.6.24s-.43-.04-.6-.24c-.37-.43-.21-1.11.3-1.31.28-.11.27-.11.57,0h0Z"/>
    <path d="M96.29,129.61c-3.31.49-5.13,3.15-4.74,6.96.11,1.15.35,2.31,1.01,4.95.69,2.75.85,3.68.9,5.2.03.99,0,1.49-.09,2.09-.08.44-.13.8-.12.81.02,0,.24.08.49.17s.6.22.78.31.34.15.35.13c.09-.09.3-1.18.39-2.03.18-1.79-.05-3.56-.97-7.23-.75-3-.9-3.79-.95-4.96-.08-1.68.19-2.66.95-3.48.23-.24.55-.51.75-.62.44-.26,1.4-.55,1.82-.55.31,0,.33-.02.26-.19-.08-.24-.08-1.22,0-1.47.08-.21.03-.22-.83-.09Z"/>
    <path d="M100.53,133.78v1l-.72.35c-1.36.68-2.5,2.1-2.85,3.54-.08.36-.13.98-.13,1.9v1.37h11.33v-1.37c0-1.51-.09-2.03-.5-2.87-.5-1.01-1.35-1.84-2.49-2.41l-.7-.34v-.89c0-.49-.03-.97-.05-1.08-.05-.18-.07-.18-.19-.07-.25.23-.91.47-1.41.52-.64.07-1.33-.08-1.82-.39-.22-.14-.41-.25-.43-.25-.03,0-.04.44-.04.99Z"/>
    <path d="M96.84,147.52v4.74h11.33v-9.49h-11.33v4.74h0ZM106.07,147.56v2.27h-7.14v-4.53h7.14v2.27h0Z"/>
    <path d="M92,150.52c-.11.05-.8,1.18-1.79,2.95l-1.61,2.85.24.25c.29.3,1.83,1.06,2.88,1.41.44.14,1.05.29,1.36.31.54.03.57.03.65-.16.05-.11.44-1.51.86-3.12.53-2.01.75-2.98.71-3.14-.2-.81-2.47-1.75-3.28-1.35h-.02ZM90.97,155.91c.87.18,1.71.65,2.02,1.12.19.29.19.44,0,.44-.51,0-3.4-1.19-3.34-1.38.03-.08.5-.29.69-.29.05,0,.34.05.64.11h-.01Z"/>
    <path d="M96.84,157.33c0,4.79,0,4.7.64,5.42.22.24.58.52.86.65l.48.24h7.39l.48-.24c.28-.13.64-.41.86-.65.65-.72.64-.64.64-5.42v-4.22h-11.33v4.22h-.02Z"/>
  </g>
  <g>
    <path d="M586,51.53c-.3.03-1.68.11-3.06.16-1.83.08-2.62.14-2.88.24-.47.17-1.16.86-1.52,1.53-.14.28-.5.73-.77,1.02l-.51.5h-.96c-1.08,0-1.38.09-1.59.5-.29.55-.02,1.29.55,1.49.16.06.69.1,1.17.1h.87l.34.37c.5.51.9.69,1.6.69.65,0,1.05-.15,1.49-.56.25-.24.27-.24.73-.14,1.31.26,3.63,1.19,5.88,2.35.71.36,1.3.66,1.31.66,0,0,0-.39-.03-.86-.03-.64-.07-.9-.18-1.02-.18-.22-1.95-1.36-3.54-2.3l-1.32-.77h-1.1c-.73,0-1.13-.07-1.2-.21-.06-.13-.07-.24-.02-.29.18-.18,4.79-1.81,6.15-2.18l.34-.09-.22-.39c-.31-.55-.62-.86-.82-.84-.1,0-.42.03-.72.07v-.03ZM579.52,55.23c.53.18.7.87.32,1.31-.17.19-.27.24-.6.24s-.43-.04-.6-.24c-.37-.43-.21-1.11.3-1.31.28-.11.27-.11.57,0h0Z"/>
    <path d="M573.03,55.15c-3.31.49-5.13,3.15-4.74,6.96.11,1.15.35,2.31,1.01,4.95.69,2.75.85,3.68.9,5.2.03.99,0,1.49-.09,2.09-.08.44-.13.8-.12.81.02,0,.24.08.49.17s.6.22.78.31c.18.09.34.15.35.13.09-.09.3-1.18.39-2.03.18-1.79-.05-3.56-.97-7.23-.75-3-.9-3.79-.95-4.96-.08-1.68.19-2.66.95-3.48.23-.24.55-.51.75-.62.44-.26,1.4-.55,1.82-.55.31,0,.33-.02.26-.19-.08-.24-.08-1.22,0-1.47.08-.21.03-.22-.83-.09h0Z"/>
    <path d="M577.27,59.32v1l-.72.35c-1.36.68-2.5,2.1-2.85,3.54-.08.36-.13.98-.13,1.9v1.37h11.33v-1.37c0-1.51-.09-2.03-.5-2.87-.5-1.01-1.35-1.84-2.49-2.41l-.7-.34v-.89c0-.49-.03-.97-.05-1.08-.05-.18-.07-.18-.19-.07-.25.23-.91.47-1.41.52-.64.07-1.33-.08-1.82-.39-.22-.14-.41-.25-.43-.25-.03,0-.04.44-.04.99h0Z"/>
    <path d="M573.57,73.07v4.74h11.33v-9.49h-11.33v4.74h0ZM582.81,73.11v2.27h-7.14v-4.53h7.14v2.27h0Z"/>
    <path d="M568.74,76.06c-.11.05-.8,1.18-1.79,2.95l-1.61,2.85.24.25c.29.3,1.83,1.06,2.88,1.41.44.14,1.05.29,1.36.31.54.03.57.03.65-.16.05-.11.44-1.51.86-3.12.53-2.01.75-2.98.71-3.14-.2-.81-2.47-1.75-3.28-1.35h-.02ZM567.71,81.45c.87.18,1.71.65,2.02,1.12.19.29.19.44,0,.44-.51,0-3.4-1.19-3.34-1.38.03-.08.5-.29.69-.29.05,0,.34.05.64.11h-.01Z"/>
    <path d="M573.57,82.87c0,4.79,0,4.7.64,5.42.22.24.58.52.86.65l.48.24h7.39l.48-.24c.28-.13.64-.41.86-.65.65-.72.64-.64.64-5.42v-4.22h-11.33v4.22h-.02Z"/>
  </g>
  <g>
    <path d="M142.07,124.58c-1.5,0-2.72,1.22-2.72,2.72s1.22,2.72,2.72,2.72,2.72-1.22,2.72-2.72-1.22-2.72-2.72-2.72Z"/>
    <path d="M153.67,124.58c-1.5,0-2.72,1.22-2.72,2.72s1.22,2.72,2.72,2.72,2.72-1.22,2.72-2.72-1.22-2.72-2.72-2.72Z"/>
    <path d="M165.27,124.58c-1.5,0-2.72,1.22-2.72,2.72s1.22,2.72,2.72,2.72,2.72-1.22,2.72-2.72-1.22-2.72-2.72-2.72Z"/>
    <path d="M171.47,111.64h-35.59c-2.73,0-4.96,2.23-4.96,4.96v38.1c0,2.74,2.23,4.96,4.96,4.96h35.59c2.74,0,4.96-2.23,4.96-4.96v-38.1c0-2.73-2.22-4.96-4.96-4.96ZM141.59,156.53l.48-10.89.48,10.89h-.97.01ZM153.19,156.53l.49-10.89.48,10.89h-.97ZM164.79,156.53l.48-10.89.48,10.89h-.97.01ZM173.3,154.7c0,1.01-.82,1.83-1.83,1.83h-3.21l.09-12.72c.2.29.53.49.91.47.58-.03,1.03-.52,1.01-1.11l.45-9.05c0-3.56-3.6-3.73-5.44-3.73s-5.44.18-5.44,3.73l.3,9.05c-.03.58.42,1.08,1.01,1.11.51.02.93-.33,1.06-.8l.09,13.05h-5.63l.09-12.72c.2.29.53.49.91.47.58-.03,1.03-.52,1.01-1.11l.45-9.05c0-3.56-3.6-3.73-5.44-3.73s-5.44.17-5.44,3.73l.3,9.05c-.03.58.42,1.08,1.01,1.11.51.02.93-.33,1.06-.8l.09,13.05h-5.63l.09-12.72c.2.29.53.49.91.47.58-.03,1.03-.52,1.01-1.11l.45-9.05c0-3.56-3.6-3.73-5.44-3.73s-5.44.18-5.44,3.73l.3,9.05c-.03.58.42,1.08,1.01,1.11.51.02.94-.33,1.06-.8l.09,13.05h-3.21c-1.01,0-1.83-.82-1.83-1.83v-38.1c0-1.01.82-1.83,1.83-1.83h35.59c1.01,0,1.83.82,1.83,1.83v38.1h-.03Z"/>
    <path d="M157.22,103.49l3.72-3.72v8.36c0,.76.62,1.38,1.38,1.38s1.38-.62,1.38-1.38v-8.36l3.72,3.72c.27.27.62.41.98.41s.71-.14.98-.41c.54-.54.54-1.41,0-1.95l-6.08-6.08-.98-.98-.98.98-6.08,6.08c-.54.54-.54,1.41,0,1.95.54.54,1.41.54,1.95,0h0Z"/>
    <path d="M144.04,109.11h0l.98.98.98-.98h0l6.07-6.08c.54-.54.54-1.41,0-1.95-.54-.54-1.41-.54-1.95,0l-3.72,3.72v-8.36c0-.76-.62-1.38-1.38-1.38s-1.38.62-1.38,1.38v8.36l-3.72-3.72c-.54-.54-1.41-.54-1.95,0s-.54,1.41,0,1.95l6.08,6.08h0Z"/>
  </g>
  <g>
    <path d="M35.34,232.02v19.6h39.52v-39.19h-39.52v19.6h0ZM67.05,227.05v12.02l.6.1c.71.11,1.61.52,1.98.9.62.62,1.72,2.63,1.75,3.18.02.25,0,.28-.31.33-.18.03-1.15.06-2.17.06h-1.85v5.15l.89.91c.91.94,1.2,1.31,1.12,1.4-.1.09-4.86.18-10.04.18h-5.24l-1.39-1.33-1.39-1.34h-3.59l1.26,1.22c1.14,1.11,1.24,1.23,1.11,1.31-.1.07-.9.11-2.23.14l-2.07.04-1.17-1.17-1.17-1.17v-16.55h5.08l1.06-1.24c1.46-1.71,1.83-2.1,1.95-2.1.09,0,1.05,1.95,1.93,3.93l.33.72-2.85,5.74c-3.44,6.94-3.84,7.81-3.67,7.91.15.1,1.23.09,2-.02.68-.1,1.36-.37,1.63-.66.26-.28,1.25-2.13,3.41-6.37,2.2-4.32,2.72-5.25,2.83-5.22.12.04.19.59.28,2.66.1,2.04.25,3.41.46,4.12.22.76-.15.72,6.34.72,5.79,0,6.13-.02,6.25-.33.06-.16-.41-1.05-.79-1.48-.18-.2-.43-.41-.57-.48-.47-.24-1.49-.35-4.2-.44-1.5-.05-3.06-.11-3.46-.13l-.74-.05-.23-3.38-.24-3.39-.3-.69c-.17-.38-.73-1.58-1.25-2.67-.52-1.08-.94-2.02-.94-2.09,0-.17.39-.21,1.82-.19l1.29.02.78,1.36c1.28,2.24,1.92,2.99,2.5,2.99.28,0,.85-.38,1.01-.66.25-.49-.07-1.41-1.15-3.29-1.18-2.04-1.62-2.52-2.56-2.82-.55-.17-.67-.18-4.68-.18-3.2,0-4.2.02-4.55.11-.41.1-.52.19-1.3.98-.47.48-1.44,1.58-2.15,2.43l-1.3,1.55h-4.03v-14.8h23.9v12.03l.02.03Z"/>
    <path d="M50.95,218.83c-.9.26-1.63,1.32-1.66,2.38-.02.8.76,2.08,1.52,2.49.2.11.45.15.99.15.63,0,.8-.03,1.2-.23,1-.49,1.46-1.26,1.48-2.5,0-.61-.02-.73-.21-1.06-.27-.46-.95-1.11-1.33-1.27-.37-.15-1.42-.14-1.99.03h0Z"/>
  </g>
</svg>