<?xml version="1.0" encoding="UTF-8"?>
<svg id="_トレース" data-name="トレース" xmlns="http://www.w3.org/2000/svg" viewBox="0 0 595 842">
  <defs>
    <style>
      .cls-1 {
        fill: #028760;
        font-family: BIZ-UDGothic, 'BIZ UDGothic';
        font-size: 18px;
        letter-spacing: .3em;
        stroke: #028760;
      }

      .cls-1, .cls-2, .cls-3, .cls-4, .cls-5, .cls-6 {
        stroke-miterlimit: 10;
      }

      .cls-2, .cls-3, .cls-4, .cls-6 {
        fill: none;
      }

      .cls-2, .cls-3, .cls-5, .cls-6 {
        stroke: #6fba2d;
      }

      .cls-3 {
        stroke-width: 3px;
      }

      .cls-4 {
        stroke: #3b7960;
      }

      .cls-7 {
        fill: #3b82f6;
      }

      .cls-5 {
        fill: #6fba2d;
      }

      .cls-6 {
        stroke-width: 2px;
      }
    </style>
  </defs>
  <g>
    <g>
      <polygon class="cls-3" points="34.91 173.68 34.91 433.81 437.1 668.68 551.71 472.7 268.25 311.52 268.25 173.88 34.91 173.68"/>
      <polyline class="cls-3" points="488.14 582.58 523.25 603.6 560.29 541.61 560.29 497.29 543.78 486.45"/>
    </g>
    <g>
      <line class="cls-2" x1="205.26" y1="463.18" x2="227.15" y2="475.76"/>
      <line class="cls-2" x1="207.76" y1="458.37" x2="229.74" y2="471.43"/>
      <line class="cls-2" x1="209.96" y1="454.82" x2="231.95" y2="467.11"/>
      <line class="cls-2" x1="212.46" y1="450.6" x2="234.35" y2="463.27"/>
      <line class="cls-2" x1="214.76" y1="445.99" x2="236.94" y2="459.14"/>
      <line class="cls-2" x1="217.26" y1="442.44" x2="238.67" y2="454.82"/>
      <line class="cls-2" x1="219.85" y1="438.5" x2="241.36" y2="450.88"/>
      <line class="cls-2" x1="221.96" y1="434.28" x2="243.86" y2="446.86"/>
      <line class="cls-2" x1="249.32" y1="444.84" x2="272.27" y2="457.51"/>
      <line class="cls-2" x1="247.03" y1="448.87" x2="269.68" y2="461.93"/>
      <line class="cls-2" x1="245.1" y1="453.1" x2="267.38" y2="466.06"/>
      <line class="cls-2" x1="242.9" y1="457.13" x2="264.89" y2="470.09"/>
      <line class="cls-2" x1="240.3" y1="461.45" x2="262.19" y2="474.41"/>
      <line class="cls-2" x1="237.81" y1="465.1" x2="259.89" y2="477.96"/>
      <line class="cls-2" x1="235.6" y1="469.23" x2="257.68" y2="482.09"/>
      <line class="cls-2" x1="233.1" y1="473.36" x2="255.48" y2="486.32"/>
      <polygon class="cls-2" points="247.03 442.44 227.25 477 229.55 478.45 249.42 444.07 247.03 442.44"/>
      <line class="cls-2" x1="499.24" y1="564.37" x2="516.52" y2="574.36"/>
      <line class="cls-2" x1="501.93" y1="560.44" x2="518.44" y2="570.42"/>
      <line class="cls-2" x1="504.04" y1="556.88" x2="520.56" y2="566.77"/>
      <line class="cls-2" x1="506.16" y1="553.23" x2="523.06" y2="563.03"/>
      <line class="cls-2" x1="507.88" y1="549.2" x2="524.97" y2="559.28"/>
      <line class="cls-2" x1="510.19" y1="545.46" x2="527.19" y2="555.45"/>
      <line class="cls-2" x1="512.69" y1="541.72" x2="529.67" y2="551.6"/>
      <line class="cls-2" x1="514.8" y1="538.06" x2="531.7" y2="547.76"/>
      <line class="cls-2" x1="517.29" y1="534.32" x2="534.1" y2="543.63"/>
      <line class="cls-2" x1="517.01" y1="579.92" x2="531.02" y2="588.28"/>
      <line class="cls-2" x1="519.21" y1="576.37" x2="533.42" y2="584.54"/>
      <line class="cls-2" x1="521.61" y1="572.35" x2="535.53" y2="580.5"/>
      <line class="cls-2" x1="524.02" y1="568.5" x2="537.46" y2="576.47"/>
      <line class="cls-2" x1="526.32" y1="564.85" x2="539.76" y2="572.54"/>
      <line class="cls-2" x1="528.72" y1="561.21" x2="542.35" y2="568.69"/>
      <polygon class="cls-2" points="514.12 578.87 537.84 538.45 540.15 539.79 516.91 580.41 514.12 578.87"/>
    </g>
    <g>
      <polyline class="cls-6" points="209.45 173.32 209.45 265.55 186.8 304.78"/>
      <line class="cls-6" x1="210.66" y1="189.5" x2="268.1" y2="189.5"/>
      <polyline class="cls-6" points="35.11 312.06 152.01 312.06 174.26 325.41"/>
      <polyline class="cls-6" points="34.71 345.23 152.82 345.23 217.14 382.04"/>
      <line class="cls-6" x1="177.29" y1="321.97" x2="161.32" y2="349.88"/>
      <line class="cls-6" x1="214" y1="281.22" x2="204.09" y2="275.35"/>
      <line class="cls-6" x1="233.01" y1="290.93" x2="267.8" y2="310.95"/>
      <polyline class="cls-6" points="233.45 391.34 242.75 396.87 174.39 515.12"/>
      <polyline class="cls-6" points="223.74 543.97 318.93 378.4 332.01 386.62"/>
      <polyline class="cls-6" points="311.65 389.72 280.91 371.66 260.96 406.98 291.16 425.59"/>
      <line class="cls-6" x1="349.1" y1="395.19" x2="398.96" y2="424.41"/>
      <line class="cls-6" x1="414.02" y1="432.7" x2="429.7" y2="442.01"/>
      <line class="cls-6" x1="445.57" y1="450.8" x2="505.03" y2="485.69"/>
      <line class="cls-6" x1="520.2" y1="494.19" x2="532.03" y2="501.57"/>
      <line class="cls-6" x1="425.99" y1="440.29" x2="330.26" y2="606.13"/>
    </g>
    <circle class="cls-5" cx="262.71" cy="351.7" r="6.07"/>
  </g>
  <g>
    <text class="cls-1" transform="translate(405.87 627.73)"><tspan x="0" y="0">151</tspan></text>
    <rect class="cls-4" x="395.51" y="604.89" width="58.52" height="32" rx="16" ry="16"/>
  </g>
  <g>
    <text class="cls-1" transform="translate(296.67 570.21)"><tspan x="0" y="0">152</tspan></text>
    <rect class="cls-4" x="286.31" y="547.37" width="58.52" height="32" rx="16" ry="16"/>
  </g>
  <g>
    <text class="cls-1" transform="translate(143.69 477.52)"><tspan x="0" y="0">153</tspan></text>
    <rect class="cls-4" x="133.33" y="454.68" width="58.52" height="32" rx="16" ry="16"/>
  </g>
  <g>
    <text class="cls-1" transform="translate(66.97 297.01)"><tspan x="0" y="0">154</tspan></text>
    <rect class="cls-4" x="56.61" y="274.17" width="58.52" height="32" rx="16" ry="16"/>
  </g>
  <g>
    <path d="M280.04,395.02c-.76,0-1.38.62-1.38,1.38s.62,1.38,1.38,1.38,1.38-.62,1.38-1.38-.62-1.38-1.38-1.38Z"/>
    <path d="M285.94,395.02c-.76,0-1.38.62-1.38,1.38s.62,1.38,1.38,1.38,1.38-.62,1.38-1.38c0-.76-.62-1.38-1.38-1.38Z"/>
    <path d="M291.84,395.02c-.76,0-1.38.62-1.38,1.38s.62,1.38,1.38,1.38,1.38-.62,1.38-1.38-.62-1.38-1.38-1.38Z"/>
    <path d="M294.99,388.44h-18.1c-1.39,0-2.52,1.13-2.52,2.52v19.38c0,1.39,1.13,2.52,2.52,2.52h18.1c1.39,0,2.52-1.13,2.52-2.52v-19.38c0-1.39-1.13-2.52-2.52-2.52ZM279.79,411.27l.25-5.54.25,5.54h-.49ZM285.69,411.27l.25-5.54.25,5.54h-.49ZM291.59,411.27l.25-5.54.25,5.54h-.49ZM295.92,410.34c0,.51-.42.93-.93.93h-1.63l.05-6.47c.1.15.27.25.46.24.3-.01.53-.27.51-.56l.23-4.6c0-1.81-1.83-1.9-2.77-1.9s-2.77.09-2.77,1.9l.15,4.6c-.01.3.21.55.51.56.26.01.47-.17.54-.41l.05,6.63h-2.86l.04-6.47c.1.15.27.25.46.24.3-.01.53-.27.51-.56l.23-4.6c0-1.81-1.83-1.9-2.77-1.9s-2.77.09-2.77,1.9l.15,4.6c-.01.3.21.55.51.56.26.01.48-.17.54-.41l.05,6.64h-2.86l.04-6.47c.1.15.27.25.46.24.3-.01.53-.27.51-.56l.23-4.6c0-1.81-1.83-1.9-2.77-1.9s-2.77.09-2.77,1.9l.15,4.6c-.01.3.22.55.51.56.26.01.48-.17.54-.41l.05,6.64h-1.63c-.51,0-.93-.42-.93-.93v-19.38c0-.51.42-.93.93-.93h18.1c.51,0,.93.42.93.93v19.38h0Z"/>
    <path d="M287.74,384.29l1.89-1.89v4.25c0,.39.31.7.7.7s.7-.31.7-.7v-4.25l1.89,1.89c.14.14.32.21.5.21s.36-.07.5-.21c.27-.27.27-.72,0-.99l-3.09-3.09-.5-.5-.5.5-3.09,3.09c-.27.27-.27.72,0,.99.27.27.72.27.99,0Z"/>
    <path d="M281.04,387.15h0s.5.5.5.5l.5-.5s0,0,0,0l3.09-3.09c.27-.27.27-.72,0-.99-.27-.27-.72-.27-.99,0l-1.89,1.89v-4.25c0-.39-.31-.7-.7-.7s-.7.31-.7.7v4.25l-1.89-1.89c-.27-.27-.72-.27-.99,0-.27.27-.27.72,0,.99l3.09,3.09Z"/>
  </g>
  <g>
    <path class="cls-7" d="M238.75,193.93c-.64.12-1.16.39-1.6.86-1.07,1.13-1.02,2.93.12,4,.71.68,1.72.93,2.7.67.3-.08.76-.32,1.02-.53.89-.71,1.26-1.89.95-2.99-.26-.89-.93-1.6-1.8-1.89-.45-.15-.97-.2-1.39-.12Z"/>
    <path class="cls-7" d="M235.13,200.17c-.46.03-.87.15-1.31.36-1.14.57-1.89,1.69-2.01,2.99-.02.23-.03,1.72-.02,4.83v4.5s.07.18.07.18c.11.33.33.58.62.71.11.05.18.06.43.06.27,0,.31,0,.46-.08.31-.15.53-.45.62-.81.03-.11.04-1.1.04-4.48v-4.34h1.35v11.57c0,10.08,0,11.6.04,11.76.15.73.81,1.26,1.55,1.26.21,0,.54-.08.75-.2.24-.13.53-.42.66-.67.19-.39.18.14.18-7.33v-6.75h1.33v6.76c0,7.45-.01,6.93.18,7.31.18.36.49.64.91.79.16.06.22.07.51.07s.35-.01.51-.07c.42-.16.73-.43.9-.79.19-.39.18.65.18-12.15v-11.57h1.33v4.32c0,2.98,0,4.37.03,4.48.07.38.29.69.62.85.19.1.22.1.45.1.18,0,.28-.02.39-.06.39-.15.64-.51.71-.98.04-.26.04-8.78,0-9.2-.15-1.66-1.29-3-2.87-3.35-.17-.04-.38-.06-.71-.07-.83-.02-7.63-.03-7.9,0Z"/>
  </g>
  <g>
    <path d="M531.79,523.85v12.35h24.91v-24.7h-24.91v12.35ZM551.78,520.72v7.57l.38.06c.45.07,1.01.33,1.25.57.39.39,1.09,1.66,1.1,2,.01.16,0,.17-.19.21-.11.02-.73.04-1.37.04h-1.17v3.25l.56.57c.57.59.76.83.71.88-.06.06-3.06.11-6.33.11h-3.3s-.88-.84-.88-.84l-.88-.85h-2.26l.79.77c.72.7.78.77.7.83-.06.04-.57.07-1.4.09l-1.3.03-.74-.74-.74-.74v-10.43h3.2s.67-.78.67-.78c.92-1.08,1.15-1.32,1.23-1.32.06,0,.66,1.23,1.21,2.48l.2.46-1.79,3.62c-2.17,4.38-2.42,4.92-2.31,4.99.1.06.77.06,1.26-.01.43-.06.86-.23,1.02-.42.16-.17.79-1.34,2.15-4.01,1.39-2.72,1.71-3.31,1.78-3.29.08.03.12.37.17,1.68.06,1.29.16,2.15.29,2.6.14.48-.1.45,4,.45,3.65,0,3.86-.01,3.94-.2.04-.1-.26-.66-.5-.93-.11-.12-.27-.26-.36-.3-.3-.15-.94-.22-2.65-.28-.94-.03-1.93-.07-2.18-.08l-.47-.03-.14-2.13-.15-2.14-.19-.44c-.11-.24-.46-.99-.79-1.68-.33-.68-.59-1.28-.59-1.32,0-.11.25-.13,1.15-.12l.81.02.49.86c.81,1.41,1.21,1.89,1.58,1.89.17,0,.54-.24.64-.42.16-.31-.04-.89-.72-2.08-.74-1.29-1.02-1.59-1.61-1.78-.35-.11-.42-.11-2.95-.11-2.02,0-2.65.02-2.87.07-.26.06-.33.12-.82.61-.3.3-.91.99-1.36,1.53l-.82.98h-1.27s-1.27,0-1.27,0v-9.33h15.07v7.58Z"/>
    <path d="M541.63,515.54c-.57.16-1.03.83-1.05,1.5-.01.5.48,1.31.96,1.57.12.07.28.09.63.09.4,0,.5-.02.75-.14.63-.31.92-.79.93-1.57,0-.38-.01-.46-.13-.67-.17-.29-.6-.7-.84-.8-.23-.1-.9-.09-1.26.02Z"/>
  </g>
  <g>
    <path d="M239.36,291.13c-.17.02-.92.06-1.67.09-1,.04-1.43.08-1.57.13-.26.09-.63.47-.83.83-.08.15-.27.4-.42.56l-.28.28h-.52c-.59,0-.75.05-.87.28-.16.3,0,.71.3.81.09.03.38.06.64.06h.48s.19.2.19.2c.27.28.49.38.88.38.36,0,.57-.08.81-.31.14-.13.15-.13.4-.08.72.14,1.99.65,3.21,1.28.39.2.71.36.72.36,0,0,0-.21-.01-.47-.01-.35-.04-.49-.1-.56-.1-.12-1.06-.74-1.94-1.26l-.72-.42h-.6q-.6,0-.66-.11c-.03-.07-.04-.13,0-.16.1-.1,2.62-.99,3.36-1.19l.19-.05-.12-.22c-.17-.3-.34-.47-.45-.46-.06,0-.23.02-.39.04ZM235.82,293.15c.29.1.38.48.17.72-.09.11-.15.13-.33.13s-.23-.02-.33-.13c-.2-.23-.11-.61.17-.72.15-.06.15-.06.31,0Z"/>
    <path d="M232.27,293.1c-1.81.27-2.8,1.72-2.59,3.8.06.63.19,1.26.55,2.71.38,1.5.46,2.01.49,2.84.02.54,0,.82-.05,1.14-.04.24-.07.44-.06.44,0,0,.13.05.27.09s.33.12.43.17c.1.05.18.08.19.07.05-.05.17-.65.21-1.11.1-.98-.03-1.94-.53-3.95-.41-1.64-.49-2.07-.52-2.71-.04-.92.11-1.45.52-1.9.12-.13.3-.28.41-.34.24-.14.77-.3,1-.3.17,0,.18,0,.14-.11-.05-.13-.04-.67,0-.8.04-.11.02-.12-.45-.05Z"/>
    <path d="M234.59,295.38v.55l-.39.19c-.74.37-1.37,1.15-1.55,1.94-.05.2-.07.54-.07,1.04v.75h6.19v-.75c0-.83-.05-1.11-.28-1.57-.27-.55-.74-1-1.36-1.32l-.38-.19v-.49c0-.27-.01-.53-.03-.59-.03-.1-.04-.1-.11-.04-.14.12-.5.26-.77.28-.35.04-.73-.05-1-.21-.12-.08-.22-.14-.23-.14-.01,0-.02.24-.02.54Z"/>
    <path d="M232.57,302.89v2.59h6.19v-5.18h-6.19v2.59ZM237.62,302.92v1.24h-3.9v-2.48h3.9v1.24Z"/>
    <path d="M229.93,304.53c-.06.03-.44.64-.98,1.61l-.88,1.56.13.14c.16.17,1,.58,1.57.77.24.08.57.16.74.17.29.02.31.01.35-.09.03-.06.24-.83.47-1.71.29-1.1.41-1.63.39-1.72-.11-.44-1.35-.95-1.79-.74ZM229.37,307.48c.48.1.94.36,1.11.61.11.16.11.24,0,.24-.28,0-1.86-.65-1.83-.75.01-.05.28-.16.38-.16.03,0,.18.03.35.06Z"/>
    <path d="M232.57,308.25c0,2.61,0,2.57.35,2.96.12.13.32.28.47.36l.26.13h4.04l.26-.13c.15-.07.35-.22.47-.36.35-.39.35-.35.35-2.96v-2.31h-6.19v2.31Z"/>
  </g>
  <g>
    <path d="M326.73,382.56c-.17.02-.92.06-1.67.09-1,.04-1.43.08-1.57.13-.26.09-.63.47-.83.83-.08.15-.27.4-.42.56l-.28.28h-.52c-.59,0-.75.05-.87.28-.16.3,0,.71.3.81.09.03.38.06.64.06h.48s.19.2.19.2c.27.28.49.38.88.38.36,0,.57-.08.81-.31.14-.13.15-.13.4-.08.72.14,1.99.65,3.21,1.28.39.2.71.36.72.36,0,0,0-.21-.01-.47-.01-.35-.04-.49-.1-.56-.1-.12-1.06-.74-1.94-1.26l-.72-.42h-.6q-.6,0-.66-.11c-.03-.07-.04-.13,0-.16.1-.1,2.62-.99,3.36-1.19l.19-.05-.12-.22c-.17-.3-.34-.47-.45-.46-.06,0-.23.02-.39.04ZM323.19,384.58c.29.1.38.48.17.72-.09.11-.15.13-.33.13s-.23-.02-.33-.13c-.2-.23-.11-.61.17-.72.15-.06.15-.06.31,0Z"/>
    <path d="M319.64,384.54c-1.81.27-2.8,1.72-2.59,3.8.06.63.19,1.26.55,2.71.38,1.5.46,2.01.49,2.84.02.54,0,.82-.05,1.14-.04.24-.07.44-.06.44,0,0,.13.05.27.09s.33.12.43.17c.1.05.18.08.19.07.05-.05.17-.65.21-1.11.1-.98-.03-1.94-.53-3.95-.41-1.64-.49-2.07-.52-2.71-.04-.92.11-1.45.52-1.9.12-.13.3-.28.41-.34.24-.14.77-.3,1-.3.17,0,.18,0,.14-.11-.05-.13-.04-.67,0-.8.04-.11.02-.12-.45-.05Z"/>
    <path d="M321.96,386.82v.55l-.39.19c-.74.37-1.37,1.15-1.55,1.94-.05.2-.07.54-.07,1.04v.75h6.19v-.75c0-.83-.05-1.11-.28-1.57-.27-.55-.74-1-1.36-1.32l-.38-.19v-.49c0-.27-.01-.53-.03-.59-.03-.1-.04-.1-.11-.04-.14.12-.5.26-.77.28-.35.04-.73-.05-1-.21-.12-.08-.22-.14-.23-.14-.01,0-.02.24-.02.54Z"/>
    <path d="M319.94,394.33v2.59h6.19v-5.18h-6.19v2.59ZM324.99,394.35v1.24h-3.9v-2.48h3.9v1.24Z"/>
    <path d="M317.3,395.96c-.06.03-.44.64-.98,1.61l-.88,1.56.13.14c.16.17,1,.58,1.57.77.24.08.57.16.74.17.29.02.31.01.35-.09.03-.06.24-.83.47-1.71.29-1.1.41-1.63.39-1.72-.11-.44-1.35-.95-1.79-.74ZM316.74,398.91c.48.1.94.36,1.11.61.11.16.11.24,0,.24-.28,0-1.86-.65-1.83-.75.01-.05.28-.16.38-.16.03,0,.18.03.35.06Z"/>
    <path d="M319.94,399.68c0,2.61,0,2.57.35,2.96.12.13.32.28.47.36l.26.13h4.04l.26-.13c.15-.07.35-.22.47-.36.35-.39.35-.35.35-2.96v-2.31h-6.19v2.31Z"/>
  </g>
</svg>