<svg width="347" height="133" viewBox="0 0 347 133" fill="none" xmlns="http://www.w3.org/2000/svg">
<path d="M11.0792 49.4223L6.53959 52.4487L37.8123 60.409M11.0792 49.4223L2 46.3959L19.654 36.3079M11.0792 49.4223L30.2463 39.5423M19.654 36.3079L8.55718 33.2815L11.761 31.6796M19.654 36.3079L22.176 36.8123M19.654 36.3079L22.176 34.8689M60.0059 24.2023L37.8123 18.654L29.2375 22.9413M60.0059 24.2023L105.906 1L135.666 8.68996M60.0059 24.2023L47.9003 30.4423M172.991 94.8182L37.8123 60.409M172.991 94.8182L157.396 125.587M172.991 94.8182L206.786 103.897L204.164 108.941M37.8123 25.2111L40.3343 26.2199L37.3079 27.9853M37.8123 25.2111L34.2815 27.3919M37.8123 25.2111L29.2375 22.9413M37.8123 25.2111L25.2023 32.9997M22.176 36.8123L30.2463 39.5423M22.176 36.8123L25.2023 35.0469M30.2463 39.5423L34.2815 37.4623M25.2023 35.0469L34.2815 37.4623M25.2023 35.0469L28.2287 33.2815M34.2815 37.4623L37.4996 35.8035M28.2287 33.2815L37.4996 35.8035M28.2287 33.2815L31.6875 31.2639M37.4996 35.8035L41.0914 33.9521M31.6875 31.2639L41.0914 33.9521M31.6875 31.2639L34.2815 29.7507M41.0914 33.9521L44.3695 32.2623M34.2815 29.7507L44.3695 32.2623M34.2815 29.7507L37.3079 27.9853M44.3695 32.2623L47.9003 30.4423M37.3079 27.9853L47.9003 30.4423M11.761 31.6796L22.176 34.8689M11.761 31.6796L15.6188 29.7507M22.176 34.8689L25.2023 32.9997M15.6188 29.7507L25.2023 32.9997M15.6188 29.7507L18.1408 28.4897M25.2023 32.9997L28.2287 31.1304M18.1408 28.4897L28.2287 31.1304M18.1408 28.4897L22.176 26.4721M28.2287 31.1304L31.6875 28.9941M22.176 26.4721L31.6875 28.9941M22.176 26.4721L25.2023 24.9589M31.6875 28.9941L34.2815 27.3919M25.2023 24.9589L34.2815 27.3919M25.2023 24.9589L29.2375 22.9413M54.9619 38.3255L44.3695 35.8035L41.8475 37.1433M54.9619 38.3255L51.9355 39.9184M54.9619 38.3255L57.4839 39.0191L55.4663 40.1437M37.8123 47.3516L35.7947 48.4135L38.8211 49.4223L42.2265 47.524M37.8123 47.3516L28.2287 44.3783L31.2551 42.7705M37.8123 47.3516L41.0914 45.6258M31.2551 42.7705L41.0914 45.6258M31.2551 42.7705L34.8749 40.8475M41.0914 45.6258L44.3695 43.9004M34.8749 40.8475L44.3695 43.9004M34.8749 40.8475L38.3167 39.0191M44.3695 43.9004L47.9003 42.0421M38.3167 39.0191L47.9003 42.0421M38.3167 39.0191L41.8475 37.1433M47.9003 42.0421L51.9355 39.9184M41.8475 37.1433L51.9355 39.9184M39.3255 49.4223L47.9003 51.9443L50.9267 50.3254M55.4663 40.1437L65.0499 42.7705L61.1013 44.8827M55.4663 40.1437L48.9091 43.7989M52.4399 42.0421L61.1013 44.8827M61.1013 44.8827L57.9883 46.548M48.9091 43.7989L57.9883 46.548M48.9091 43.7989L45.6319 45.6258M57.9883 46.548L54.9619 48.1669M45.6319 45.6258L54.9619 48.1669M45.6319 45.6258L42.2265 47.524M54.9619 48.1669L50.9267 50.3254M42.2265 47.524L50.9267 50.3254M37.8123 60.409L53.8277 51.9443M135.666 8.68996L53.8277 51.9443M135.666 8.68996L167.947 17.0316M53.8277 51.9443L84.7214 59.9012M231.501 33.4542L167.947 17.0316M231.501 33.4542L207.795 45.9892M231.501 33.4542L261.765 41.2746M84.7214 59.9012L149.789 76.6598L157.355 72.6593M84.7214 59.9012L167.947 17.0316M157.355 72.6593L177.026 78.173L191.654 69.5982L174 63.8582M157.355 72.6593L174 63.8582M174 63.8582L190.141 55.3237M190.141 55.3237L203.255 59.5103M190.141 55.3237L193.419 53.5902M203.255 59.5103L206.786 57.6468M203.255 59.5103L201.742 61.0235H204.164M221.413 49.9267L207.795 45.9892M221.413 49.9267L216.874 52.3226M221.413 49.9267L222.422 50.9355L220.755 51.8566M207.795 45.9892L204.164 47.9091M204.164 47.9091L216.874 52.3226M204.164 47.9091L200.348 49.9267M216.874 52.3226L213.343 54.1861M200.348 49.9267L213.343 54.1861M200.348 49.9267L196.698 51.8566M213.343 54.1861L210.317 55.7833M196.698 51.8566L210.317 55.7833M196.698 51.8566L193.419 53.5902M210.317 55.7833L206.786 57.6468M193.419 53.5902L206.786 57.6468M204.164 61.0235L216.874 65.0587M204.164 61.0235L207.795 59.0173M216.874 65.0587L220.405 63.188M216.874 65.0587L201.742 73.129L251.677 85.739M261.765 41.2746L346 63.0411L333.824 87.7566M261.765 41.2746L234.381 55.7833M207.795 59.0173L220.405 63.188M207.795 59.0173L210.317 57.6239M220.405 63.188L224.49 61.0235M210.317 57.6239L224.49 61.0235M210.317 57.6239L213.648 55.7833M224.49 61.0235L227.346 59.5103M213.648 55.7833L227.346 59.5103M213.648 55.7833L216.874 54.001M227.346 59.5103L230.863 57.6468M216.874 54.001L230.863 57.6468M216.874 54.001L220.755 51.8566M230.863 57.6468L234.381 55.7833M220.755 51.8566L234.381 55.7833M251.677 85.739L234.381 94.1855M251.677 85.739L333.824 87.7566M204.164 108.941L196.285 125.587M204.164 108.941L234.381 94.1855M193.419 131.639H312.205L327.115 101.375M193.419 131.639H154.328L157.396 125.587M193.419 131.639L196.285 125.587M196.285 125.587H157.396M234.381 94.1855L251.677 101.375H327.115M327.115 101.375L333.824 87.7566" stroke="#6FBA2D"/>
<path d="M178.856 98.8788C178.232 98.9915 177.729 99.3904 177.486 99.9627C177.379 100.212 177.339 100.438 177.349 100.726C177.354 100.887 177.368 101.003 177.393 101.1C177.533 101.631 177.87 102.051 178.346 102.286C179.248 102.73 180.327 102.365 180.769 101.463C180.878 101.239 180.927 101.071 180.949 100.835C181.01 100.174 180.701 99.5239 180.153 99.1615C179.763 98.9048 179.288 98.8008 178.856 98.8788Z" fill="black"/>
<path d="M176.95 102.884C176.293 102.987 175.743 103.353 175.35 103.947C175.164 104.227 175.213 104.084 174.5 106.431C174.219 107.355 173.914 108.359 173.695 109.081C173.603 109.381 173.52 109.675 173.51 109.74C173.439 110.142 173.65 110.517 174.009 110.628C174.288 110.714 174.571 110.636 174.765 110.421C174.911 110.258 174.89 110.317 175.419 108.538C175.535 108.146 175.704 107.584 175.792 107.289C175.879 106.993 176.043 106.441 176.156 106.061L176.363 105.373H176.741C177.054 105.373 177.119 105.376 177.119 105.397C177.119 105.411 177.063 105.619 176.996 105.862C176.874 106.297 176.512 107.603 175.567 111C174.847 113.59 174.83 113.65 174.819 113.683C174.81 113.713 174.871 113.714 175.929 113.714H177.049V117.013C177.049 120.606 177.044 120.419 177.146 120.62C177.237 120.799 177.417 120.946 177.625 121.01C177.762 121.055 178.05 121.05 178.183 121C178.438 120.908 178.605 120.736 178.692 120.478C178.721 120.388 178.723 120.228 178.728 117.03L178.731 113.68H179.156H179.581V117.035C179.581 120.388 179.581 120.393 179.618 120.5C179.727 120.826 179.987 121.019 180.353 121.045C180.792 121.074 181.161 120.792 181.227 120.374C181.239 120.299 181.246 119.161 181.246 116.987V113.714H182.356C183.079 113.714 183.466 113.709 183.466 113.697C183.466 113.688 183.341 113.232 183.187 112.688C183.034 112.141 182.84 111.448 182.755 111.148C182.67 110.848 182.476 110.152 182.321 109.604C181.844 107.905 181.733 107.511 181.61 107.072C181.544 106.838 181.412 106.368 181.317 106.027C181.22 105.685 181.142 105.399 181.142 105.39C181.142 105.38 181.298 105.373 181.541 105.373H181.938L181.974 105.498C181.995 105.567 182.026 105.671 182.044 105.728C182.061 105.786 182.139 106.048 182.217 106.309C182.295 106.571 182.425 107.008 182.507 107.281C182.587 107.553 182.708 107.957 182.774 108.177C183.027 109.027 183.141 109.415 183.233 109.726C183.285 109.903 183.346 110.09 183.365 110.142C183.509 110.515 183.837 110.725 184.178 110.662C184.572 110.591 184.827 110.239 184.796 109.812C184.785 109.682 184.772 109.632 184.383 108.356C184.036 107.216 183.48 105.383 183.332 104.896C183.258 104.646 183.169 104.395 183.126 104.303C183.024 104.088 182.833 103.84 182.599 103.616C182.172 103.207 181.683 102.961 181.151 102.884C180.91 102.85 177.171 102.85 176.95 102.884Z" fill="black"/>
<path d="M172.407 62.1128C171.875 62.1128 171.443 62.5441 171.443 63.0765C171.443 63.6089 171.875 64.0402 172.407 64.0402C172.939 64.0402 173.371 63.6089 173.371 63.0765C173.371 62.5441 172.939 62.1128 172.407 62.1128Z" fill="black"/>
<path d="M176.522 62.1128C175.989 62.1128 175.558 62.5441 175.558 63.0765C175.558 63.6089 175.989 64.0402 176.522 64.0402C177.054 64.0402 177.486 63.6089 177.486 63.0765C177.486 62.5441 177.054 62.1128 176.522 62.1128Z" fill="black"/>
<path d="M180.636 62.1128C180.103 62.1128 179.672 62.5441 179.672 63.0765C179.672 63.6089 180.103 64.0402 180.636 64.0402C181.168 64.0402 181.6 63.6089 181.6 63.0765C181.6 62.5441 181.168 62.1128 180.636 62.1128Z" fill="black"/>
<path d="M182.833 57.5244H170.211C169.241 57.5244 168.451 58.3137 168.451 59.2835V72.7975C168.451 73.7676 169.241 74.5569 170.211 74.5569H182.833C183.803 74.5569 184.592 73.7676 184.592 72.7975V59.2835C184.592 58.3137 183.803 57.5244 182.833 57.5244ZM172.236 73.4467L172.407 69.5836L172.579 73.4467H172.236ZM176.35 73.4467L176.522 69.5836L176.693 73.4467H176.35ZM180.464 73.4467L180.636 69.5836L180.808 73.4467H180.464ZM183.482 72.7975C183.482 73.1555 183.191 73.4467 182.833 73.4467H181.694L181.726 68.9363C181.797 69.0403 181.913 69.1104 182.048 69.104C182.255 69.0941 182.415 68.9184 182.405 68.7114L182.565 65.5032C182.565 64.2414 181.286 64.1793 180.636 64.1793C179.986 64.1793 178.707 64.2414 178.707 65.5032L178.815 68.7114C178.805 68.9184 178.965 69.0941 179.172 69.104C179.353 69.1126 179.503 68.9885 179.546 68.8199L179.578 73.4466H177.58L177.611 68.9363C177.682 69.0402 177.799 69.1103 177.934 69.104C178.14 69.094 178.3 68.9184 178.291 68.7114L178.45 65.5032C178.45 64.2413 177.172 64.1793 176.522 64.1793C175.871 64.1793 174.593 64.2413 174.593 65.5032L174.7 68.7114C174.691 68.9184 174.85 69.094 175.057 69.104C175.238 69.1126 175.389 68.9881 175.432 68.8189L175.463 73.4466H173.466L173.497 68.9363C173.568 69.0402 173.684 69.1103 173.82 69.1039C174.027 69.094 174.186 68.9183 174.176 68.7113L174.336 65.5032C174.336 64.2413 173.058 64.1792 172.407 64.1792C171.757 64.1792 170.479 64.2413 170.479 65.5032L170.586 68.7113C170.576 68.9183 170.736 69.094 170.943 69.1039C171.125 69.1125 171.275 68.9881 171.317 68.8188L171.349 73.4465H170.211C169.853 73.4465 169.561 73.1554 169.561 72.7974V59.2835C169.561 58.9258 169.853 58.6346 170.211 58.6346H182.833C183.191 58.6346 183.482 58.9258 183.482 59.2835V72.7975H183.482Z" fill="black"/>
<path d="M177.782 54.634L179.101 53.3152V56.2805C179.101 56.5508 179.321 56.77 179.591 56.77C179.862 56.77 180.081 56.5508 180.081 56.2805V53.3152L181.4 54.634C181.496 54.7297 181.621 54.7777 181.746 54.7777C181.872 54.7777 181.997 54.7297 182.093 54.634C182.284 54.4427 182.284 54.1327 182.093 53.9416L179.938 51.7862L179.591 51.4399L179.245 51.7862L177.09 53.9416C176.898 54.1326 176.898 54.4427 177.09 54.634C177.281 54.8253 177.591 54.8253 177.782 54.634Z" fill="black"/>
<path d="M173.106 56.6254C173.106 56.6258 173.106 56.6258 173.106 56.6258L173.453 56.9719L173.799 56.6258C173.799 56.6258 173.799 56.6258 173.799 56.6254L175.954 54.4702C176.146 54.2789 176.146 53.9686 175.954 53.7776C175.763 53.5863 175.453 53.5863 175.262 53.7776L173.943 55.0967V52.1315C173.943 51.8608 173.723 51.6416 173.453 51.6416C173.183 51.6416 172.963 51.8608 172.963 52.1315V55.0967L171.644 53.7776C171.453 53.5863 171.142 53.5863 170.951 53.7776C170.76 53.9686 170.76 54.2789 170.951 54.4702L173.106 56.6254Z" fill="black"/>
</svg>
