<?xml version="1.0" encoding="UTF-8"?>
<svg id="_レイヤー_1" data-name="レイヤー 1" xmlns="http://www.w3.org/2000/svg" viewBox="0 0 443.16 418.26">
  <defs>
    <style>
      .cls-1 {
        font-size: 11.03px;
        letter-spacing: .25em;
      }

      .cls-1, .cls-2, .cls-3, .cls-4, .cls-5, .cls-6, .cls-7 {
        stroke-miterlimit: 10;
      }

      .cls-1, .cls-5 {
        fill: #028760;
        font-family: BIZ-UDGothic, 'BIZ UDGothic';
        stroke: #028760;
      }

      .cls-2, .cls-3, .cls-4, .cls-7 {
        fill: none;
      }

      .cls-2, .cls-3, .cls-6, .cls-7 {
        stroke: #6fba2d;
      }

      .cls-3 {
        stroke-width: 3px;
      }

      .cls-4 {
        stroke: #3b7960;
      }

      .cls-8 {
        fill: #ef4444;
      }

      .cls-5 {
        font-size: 14.18px;
        letter-spacing: .3em;
      }

      .cls-6 {
        fill: #6fba2d;
      }

      .cls-7 {
        stroke-width: 2px;
      }
    </style>
  </defs>
  <g>
    <g>
      <polygon class="cls-3" points="1.5 1.5 1.5 219.44 338.45 416.21 434.48 252.02 196.99 116.99 196.99 1.67 1.5 1.5"/>
      <polyline class="cls-3" points="381.21 344.08 410.63 361.69 441.66 309.76 441.66 272.62 427.83 263.54"/>
    </g>
    <g>
      <line class="cls-2" x1="144.22" y1="244.04" x2="162.55" y2="254.58"/>
      <line class="cls-2" x1="146.31" y1="240.02" x2="164.73" y2="250.96"/>
      <line class="cls-2" x1="148.16" y1="237.04" x2="166.58" y2="247.34"/>
      <line class="cls-2" x1="150.25" y1="233.5" x2="168.59" y2="244.12"/>
      <line class="cls-2" x1="152.18" y1="229.65" x2="170.76" y2="240.66"/>
      <line class="cls-2" x1="154.27" y1="226.67" x2="172.21" y2="237.04"/>
      <line class="cls-2" x1="156.44" y1="223.37" x2="174.46" y2="233.74"/>
      <line class="cls-2" x1="158.21" y1="219.83" x2="176.55" y2="230.37"/>
      <line class="cls-2" x1="181.13" y1="228.68" x2="200.36" y2="239.3"/>
      <line class="cls-2" x1="179.21" y1="232.06" x2="198.19" y2="242.99"/>
      <line class="cls-2" x1="177.6" y1="235.6" x2="196.26" y2="246.45"/>
      <line class="cls-2" x1="175.75" y1="238.98" x2="194.17" y2="249.84"/>
      <line class="cls-2" x1="173.58" y1="242.6" x2="191.91" y2="253.45"/>
      <line class="cls-2" x1="171.49" y1="245.65" x2="189.99" y2="256.43"/>
      <line class="cls-2" x1="169.63" y1="249.11" x2="188.13" y2="259.89"/>
      <line class="cls-2" x1="167.54" y1="252.57" x2="186.29" y2="263.43"/>
      <polygon class="cls-2" points="179.21 226.67 162.64 255.63 164.57 256.84 181.21 228.03 179.21 226.67"/>
      <polyline class="cls-2" points="380.68 253.67 355.93 296.59 383.55 313.17 408.2 271.31 395.24 264.3"/>
      <line class="cls-2" x1="405.43" y1="274.92" x2="393.22" y2="268.01"/>
      <line class="cls-2" x1="403.42" y1="278.11" x2="391.73" y2="271.41"/>
      <line class="cls-2" x1="401.4" y1="281.4" x2="389.82" y2="274.71"/>
      <line class="cls-2" x1="399.7" y1="284.59" x2="387.69" y2="277.68"/>
      <line class="cls-2" x1="397.57" y1="288.09" x2="385.67" y2="281.29"/>
      <line class="cls-2" x1="395.24" y1="291.71" x2="383.65" y2="284.8"/>
      <line class="cls-2" x1="393.32" y1="295.53" x2="381.53" y2="288.73"/>
      <line class="cls-2" x1="364.32" y1="283.21" x2="376.11" y2="290.33"/>
      <line class="cls-2" x1="366.23" y1="279.49" x2="378.34" y2="286.71"/>
      <line class="cls-2" x1="368.46" y1="276.09" x2="380.25" y2="282.99"/>
      <line class="cls-2" x1="370.37" y1="272.58" x2="382.49" y2="279.7"/>
      <line class="cls-2" x1="372.61" y1="269.29" x2="384.4" y2="276.3"/>
      <line class="cls-2" x1="374.41" y1="266.1" x2="385.89" y2="273.01"/>
      <line class="cls-2" x1="376.54" y1="262.49" x2="387.69" y2="269.29"/>
      <line class="cls-2" x1="378.24" y1="259.2" x2="389.92" y2="266"/>
      <polygon class="cls-2" points="392.79 261.75 376.01 291.28 378.56 292.88 395.55 263.23 392.79 261.75"/>
      <polyline class="cls-2" points="441.66 272.62 403.42 338.03 405.86 339.62 425.62 305.94 423.5 304.35"/>
      <line class="cls-2" x1="407.35" y1="298.4" x2="421.16" y2="306.9"/>
      <line class="cls-2" x1="405.12" y1="302.54" x2="418.93" y2="310.72"/>
      <line class="cls-2" x1="403.2" y1="306.05" x2="417.12" y2="314.12"/>
      <line class="cls-2" x1="401.18" y1="309.34" x2="415.1" y2="317.52"/>
      <line class="cls-2" x1="399.27" y1="312.74" x2="413.3" y2="320.6"/>
      <line class="cls-2" x1="397.36" y1="315.93" x2="411.28" y2="324.11"/>
      <line class="cls-2" x1="395.66" y1="319.12" x2="409.47" y2="327.3"/>
      <line class="cls-2" x1="393.43" y1="322.62" x2="407.13" y2="330.8"/>
      <line class="cls-2" x1="406.39" y1="338.98" x2="419.14" y2="346.53"/>
      <line class="cls-2" x1="408.41" y1="335.9" x2="420.95" y2="343.55"/>
      <line class="cls-2" x1="410.22" y1="332.61" x2="423.28" y2="340.05"/>
      <line class="cls-2" x1="412.13" y1="329.21" x2="425.2" y2="336.86"/>
    </g>
    <g>
      <polyline class="cls-7" points="147.73 1.2 147.73 78.47 128.75 111.34"/>
      <line class="cls-7" x1="148.75" y1="14.76" x2="196.87" y2="14.76"/>
      <polyline class="cls-7" points="1.67 117.44 99.61 117.44 118.25 128.62"/>
      <polyline class="cls-7" points="1.33 145.23 100.28 145.23 154.17 176.07"/>
      <line class="cls-7" x1="120.79" y1="125.74" x2="107.4" y2="149.12"/>
      <line class="cls-7" x1="151.54" y1="91.6" x2="143.24" y2="86.69"/>
      <line class="cls-7" x1="167.47" y1="99.73" x2="196.61" y2="116.51"/>
      <polyline class="cls-7" points="167.84 183.86 175.63 188.49 118.36 287.56"/>
      <polyline class="cls-7" points="159.7 311.73 239.45 173.02 250.41 179.91"/>
      <polyline class="cls-7" points="233.35 182.5 207.6 167.37 190.88 196.96 216.18 212.55"/>
      <line class="cls-7" x1="264.73" y1="187.08" x2="306.5" y2="211.56"/>
      <line class="cls-7" x1="329.15" y1="224.87" x2="248.94" y2="363.81"/>
      <line class="cls-7" x1="388.54" y1="226.74" x2="294.84" y2="390.09"/>
      <line class="cls-7" x1="319.06" y1="218.77" x2="374.52" y2="251.28"/>
    </g>
    <circle class="cls-6" cx="192.35" cy="150.65" r="5.08"/>
  </g>
  <g>
    <text class="cls-5" transform="translate(223.12 333.32)"><tspan x="0" y="0">161</tspan></text>
    <rect class="cls-4" x="214.95" y="315.32" width="46.11" height="25.21" rx="12.61" ry="12.61"/>
  </g>
  <g>
    <text class="cls-5" transform="translate(94.26 257.42)"><tspan x="0" y="0">162</tspan></text>
    <rect class="cls-4" x="86.1" y="239.42" width="46.11" height="25.21" rx="12.61" ry="12.61"/>
  </g>
  <g>
    <text class="cls-1" transform="translate(11.39 51.48)"><tspan x="0" y="0">163 クラフトルーム</tspan></text>
    <rect class="cls-4" x="2.79" y="37.5" width="144.06" height="19.57" rx="9.79" ry="9.79"/>
  </g>
  <g>
    <path d="M245.39,179.44c-.13.01-.72.05-1.32.07-.79.03-1.13.06-1.24.1-.2.07-.5.37-.65.66-.06.12-.21.31-.33.44l-.22.22h-.41c-.47,0-.59.04-.68.22-.12.24,0,.56.23.64.07.03.3.04.5.04h.38s.15.16.15.16c.21.22.39.3.69.3.28,0,.45-.07.64-.24.11-.1.12-.1.31-.06.56.11,1.57.51,2.53,1.01.31.16.56.29.56.29,0,0,0-.17-.01-.37-.01-.27-.03-.39-.08-.44-.08-.09-.84-.59-1.53-.99l-.57-.33h-.47q-.47,0-.52-.09c-.03-.06-.03-.1,0-.13.08-.08,2.06-.78,2.65-.94l.15-.04-.09-.17c-.13-.23-.27-.37-.35-.36-.04,0-.18.01-.31.03ZM242.6,181.04c.23.08.3.38.14.56-.07.08-.12.1-.26.1s-.18-.02-.26-.1c-.16-.18-.09-.48.13-.56.12-.05.12-.05.25,0Z"/>
    <path d="M239.8,181c-1.42.21-2.21,1.36-2.04,3,.05.5.15.99.43,2.13.3,1.19.37,1.58.39,2.24.01.43,0,.64-.04.9-.03.19-.05.34-.05.35,0,0,.1.04.21.07s.26.09.34.13c.08.04.14.07.15.06.04-.04.13-.51.17-.87.08-.77-.02-1.53-.42-3.11-.32-1.29-.39-1.63-.41-2.14-.03-.72.08-1.15.41-1.5.1-.1.24-.22.32-.27.19-.11.6-.23.78-.23.13,0,.14,0,.11-.08-.04-.1-.03-.52,0-.63.03-.09.01-.09-.36-.04Z"/>
    <path d="M241.63,182.8v.43l-.31.15c-.59.29-1.08.9-1.23,1.53-.04.16-.05.42-.05.82v.59h4.88v-.59c0-.65-.04-.87-.22-1.24-.21-.43-.58-.79-1.07-1.04l-.3-.15v-.38c0-.21-.01-.42-.02-.47-.02-.08-.03-.08-.08-.03-.11.1-.39.2-.61.22-.27.03-.57-.04-.78-.17-.09-.06-.18-.11-.18-.11-.01,0-.02.19-.02.43Z"/>
    <path d="M240.04,188.71v2.04h4.88v-4.08h-4.88v2.04ZM244.01,188.73v.98h-3.07v-1.95h3.07v.98Z"/>
    <path d="M237.96,190s-.34.51-.77,1.27l-.69,1.23.1.11c.13.13.79.46,1.24.61.19.06.45.12.59.13.23.01.25.01.28-.07.02-.05.19-.65.37-1.34.23-.87.32-1.28.3-1.35-.09-.35-1.06-.75-1.41-.58ZM237.51,192.32c.38.08.74.28.87.48.08.13.08.19,0,.19-.22,0-1.46-.51-1.44-.59.01-.04.22-.12.3-.13.02,0,.14.02.27.05Z"/>
    <path d="M240.04,192.93c0,2.06,0,2.02.27,2.33.09.1.25.22.37.28l.21.1h3.18l.21-.1c.12-.06.27-.18.37-.28.28-.31.27-.27.27-2.33v-1.82h-4.88v1.82Z"/>
  </g>
  <g>
    <path d="M175.91,102.47c-.13.01-.72.05-1.32.07-.79.03-1.13.06-1.24.1-.2.07-.5.37-.65.66-.06.12-.21.31-.33.44l-.22.22h-.41c-.47,0-.59.04-.68.22-.12.24,0,.56.23.64.07.03.3.04.5.04h.38s.15.16.15.16c.21.22.39.3.69.3.28,0,.45-.07.64-.24.11-.1.12-.1.31-.06.56.11,1.57.51,2.53,1.01.31.16.56.29.56.29,0,0,0-.17-.01-.37-.01-.27-.03-.39-.08-.44-.08-.09-.84-.59-1.53-.99l-.57-.33h-.47q-.47,0-.52-.09c-.03-.06-.03-.1,0-.13.08-.08,2.06-.78,2.65-.94l.15-.04-.09-.17c-.13-.23-.27-.37-.35-.36-.04,0-.18.01-.31.03ZM173.12,104.06c.23.08.3.38.14.56-.07.08-.12.1-.26.1s-.18-.02-.26-.1c-.16-.18-.09-.48.13-.56.12-.05.12-.05.25,0Z"/>
    <path d="M170.32,104.03c-1.42.21-2.21,1.36-2.04,3,.05.5.15.99.43,2.13.3,1.19.37,1.58.39,2.24.01.43,0,.64-.04.9-.03.19-.05.34-.05.35,0,0,.1.04.21.07s.26.09.34.13c.08.04.14.07.15.06.04-.04.13-.51.17-.87.08-.77-.02-1.53-.42-3.11-.32-1.29-.39-1.63-.41-2.14-.03-.72.08-1.15.41-1.5.1-.1.24-.22.32-.27.19-.11.6-.23.78-.23.13,0,.14,0,.11-.08-.04-.1-.03-.52,0-.63.03-.09.01-.09-.36-.04Z"/>
    <path d="M172.15,105.82v.43l-.31.15c-.59.29-1.08.9-1.23,1.53-.04.16-.05.42-.05.82v.59h4.88v-.59c0-.65-.04-.87-.22-1.24-.21-.43-.58-.79-1.07-1.04l-.3-.15v-.38c0-.21-.01-.42-.02-.47-.02-.08-.03-.08-.08-.03-.11.1-.39.2-.61.22-.27.03-.57-.04-.78-.17-.09-.06-.18-.11-.18-.11-.01,0-.02.19-.02.43Z"/>
    <path d="M170.56,111.74v2.04h4.88v-4.08h-4.88v2.04ZM174.53,111.76v.98h-3.07v-1.95h3.07v.98Z"/>
    <path d="M168.47,113.03s-.34.51-.77,1.27l-.69,1.23.1.11c.13.13.79.46,1.24.61.19.06.45.12.59.13.23.01.25.01.28-.07.02-.05.19-.65.37-1.34.23-.87.32-1.28.3-1.35-.09-.35-1.06-.75-1.41-.58ZM168.03,115.35c.38.08.74.28.87.48.08.13.08.19,0,.19-.22,0-1.46-.51-1.44-.59.01-.04.22-.12.3-.13.02,0,.14.02.27.05Z"/>
    <path d="M170.56,115.96c0,2.06,0,2.02.27,2.33.09.1.25.22.37.28l.21.1h3.18l.21-.1c.12-.06.27-.18.37-.28.28-.31.27-.27.27-2.33v-1.82h-4.88v1.82Z"/>
  </g>
  <g>
    <path d="M206.9,187.25c-.6,0-1.09.49-1.09,1.09s.49,1.09,1.09,1.09,1.09-.49,1.09-1.09-.49-1.09-1.09-1.09Z"/>
    <path d="M211.55,187.25c-.6,0-1.09.49-1.09,1.09s.49,1.09,1.09,1.09,1.09-.49,1.09-1.09c0-.6-.49-1.09-1.09-1.09Z"/>
    <path d="M216.2,187.25c-.6,0-1.09.49-1.09,1.09s.49,1.09,1.09,1.09,1.09-.49,1.09-1.09-.49-1.09-1.09-1.09Z"/>
    <path d="M218.68,182.06h-14.26c-1.1,0-1.99.89-1.99,1.99v15.27c0,1.1.89,1.99,1.99,1.99h14.26c1.1,0,1.99-.89,1.99-1.99v-15.27c0-1.1-.89-1.99-1.99-1.99ZM206.71,200.05l.19-4.37.19,4.37h-.39ZM211.36,200.05l.19-4.37.19,4.37h-.39ZM216,200.05l.19-4.37.19,4.37h-.39ZM219.41,199.32c0,.4-.33.73-.73.73h-1.29l.04-5.1c.08.12.21.2.36.19.23-.01.41-.21.4-.44l.18-3.62c0-1.43-1.44-1.5-2.18-1.5s-2.18.07-2.18,1.5l.12,3.62c-.01.23.17.43.4.44.2,0,.37-.13.42-.32l.04,5.23h-2.26l.04-5.1c.08.12.21.2.36.19.23-.01.41-.21.4-.44l.18-3.62c0-1.43-1.44-1.5-2.18-1.5s-2.18.07-2.18,1.5l.12,3.62c-.01.23.17.43.4.44.2,0,.37-.13.42-.32l.04,5.23h-2.26l.03-5.1c.08.12.21.2.36.19.23-.01.41-.21.4-.44l.18-3.63c0-1.43-1.44-1.5-2.18-1.5s-2.18.07-2.18,1.5l.12,3.63c-.01.23.17.43.4.44.21,0,.37-.13.42-.32l.04,5.23h-1.29c-.4,0-.73-.33-.73-.73v-15.27c0-.4.33-.73.73-.73h14.26c.4,0,.73.33.73.73v15.27h0Z"/>
    <path d="M212.97,178.8l1.49-1.49v3.35c0,.31.25.55.55.55s.55-.25.55-.55v-3.35l1.49,1.49c.11.11.25.16.39.16s.28-.05.39-.16c.22-.22.22-.57,0-.78l-2.44-2.44-.39-.39-.39.39-2.44,2.44c-.22.22-.22.57,0,.78.22.22.57.22.78,0Z"/>
    <path d="M207.69,181.05h0s.39.39.39.39l.39-.39s0,0,0,0l2.43-2.44c.22-.22.22-.57,0-.78-.22-.22-.57-.22-.78,0l-1.49,1.49v-3.35c0-.31-.25-.55-.55-.55s-.55.25-.55.55v3.35l-1.49-1.49c-.22-.22-.57-.22-.78,0-.22.22-.22.57,0,.78l2.44,2.44Z"/>
  </g>
  <g>
    <path d="M419.43,291.67v9.73h19.63v-19.46h-19.63v9.73ZM435.18,289.21v5.97l.3.05c.35.06.8.26.99.45.31.31.86,1.3.87,1.58,0,.13,0,.14-.15.17-.09.02-.57.03-1.08.03h-.92v2.56l.44.45c.45.47.6.65.56.69-.05.04-2.41.09-4.99.09h-2.6s-.69-.66-.69-.66l-.69-.67h-1.78l.63.61c.57.55.62.61.55.65-.05.03-.45.06-1.11.07l-1.03.02-.58-.58-.58-.58v-8.22h2.52s.52-.61.52-.61c.73-.85.91-1.04.97-1.04.04,0,.52.97.96,1.95l.16.36-1.41,2.85c-1.71,3.45-1.91,3.88-1.82,3.93.08.05.61.04.99,0,.34-.05.67-.18.81-.33.13-.14.62-1.06,1.7-3.16,1.09-2.14,1.35-2.61,1.41-2.59.06.02.09.29.14,1.32.05,1.01.13,1.69.23,2.05.11.38-.08.36,3.15.36,2.88,0,3.04,0,3.11-.16.03-.08-.21-.52-.39-.73-.09-.1-.21-.21-.28-.24-.23-.12-.74-.17-2.09-.22-.74-.02-1.52-.05-1.72-.06l-.37-.02-.11-1.68-.12-1.68-.15-.34c-.08-.19-.36-.78-.62-1.32-.26-.54-.47-1.01-.47-1.04,0-.08.19-.1.9-.09h.64s.39.69.39.69c.64,1.11.95,1.49,1.24,1.49.14,0,.42-.19.5-.33.13-.24-.03-.7-.57-1.64-.59-1.01-.8-1.25-1.27-1.4-.27-.08-.33-.09-2.32-.09-1.59,0-2.09.01-2.26.06-.2.05-.26.09-.65.48-.23.24-.71.78-1.07,1.21l-.65.77h-1s-1,0-1,0v-7.35h11.87v5.97Z"/>
    <path d="M427.18,285.12c-.45.13-.81.65-.82,1.18,0,.4.38,1.03.76,1.24.1.05.22.07.49.07.31,0,.4-.02.59-.11.5-.24.72-.63.73-1.24,0-.3,0-.36-.1-.52-.13-.23-.47-.55-.66-.63-.18-.08-.71-.07-.99.02Z"/>
  </g>
  <g>
    <path class="cls-8" d="M171.55,24.57c-.69.13-1.25.57-1.52,1.21-.12.28-.16.53-.15.85,0,.18.02.31.05.42.16.59.53,1.06,1.06,1.32,1,.49,2.2.09,2.7-.92.12-.25.18-.44.2-.7.07-.74-.28-1.46-.89-1.86-.43-.29-.96-.4-1.44-.31Z"/>
    <path class="cls-8" d="M169.43,29.03c-.73.11-1.34.52-1.78,1.18-.21.31-.15.15-.95,2.76-.31,1.03-.65,2.15-.9,2.95-.1.33-.19.66-.21.73-.08.45.16.86.56.99.31.1.63,0,.84-.23.16-.18.14-.12.73-2.1.13-.44.32-1.06.42-1.39.1-.33.28-.94.41-1.37l.23-.77h.42c.35,0,.42,0,.42.03,0,.02-.06.25-.14.52-.14.48-.54,1.94-1.59,5.72-.8,2.88-.82,2.95-.83,2.99,0,.03.06.03,1.24.03h1.25v3.67c0,4,0,3.79.11,4.01.1.2.3.36.53.43.15.05.47.04.62-.01.28-.1.47-.29.57-.58.03-.1.03-.28.04-3.84v-3.73h.95v3.73c0,3.73,0,3.74.04,3.86.12.36.41.58.82.61.49.03.9-.28.97-.75.01-.08.02-1.35.02-3.77v-3.64h1.24c.8,0,1.24,0,1.24-.02,0,0-.14-.52-.31-1.12-.17-.61-.39-1.38-.48-1.71-.09-.33-.31-1.11-.48-1.72-.53-1.89-.65-2.33-.79-2.82-.07-.26-.22-.78-.33-1.16-.11-.38-.19-.7-.19-.71,0-.01.17-.02.44-.02h.44l.04.14c.02.08.06.19.08.26.02.06.11.36.19.65.09.29.23.78.32,1.08.09.3.22.75.3,1,.28.95.41,1.38.51,1.72.06.2.13.41.15.46.16.42.52.65.91.58.44-.08.72-.47.69-.95-.01-.14-.03-.2-.46-1.62-.39-1.27-1.01-3.31-1.17-3.85-.08-.28-.18-.56-.23-.66-.11-.24-.33-.52-.59-.76-.47-.46-1.02-.73-1.61-.81-.27-.04-4.43-.04-4.67,0Z"/>
  </g>
</svg>