<svg width="346" height="114" viewBox="0 0 346 114" fill="none" xmlns="http://www.w3.org/2000/svg">
<path d="M209.809 13.939L218.287 1H68.8184L61.253 13.4929M209.809 13.939H277.182L262.012 38.4786M209.809 13.939L169.654 13.8184M262.012 38.4786H279.859M262.012 38.4786L256.093 48.2944M298.598 62.1258L303.876 53.6485M298.598 62.1258H294.805M298.598 62.1258H303.876M61.253 13.4929L169.654 13.8184M61.253 13.4929L9.37598 99.1582M169.654 13.8184L117.898 99.1582M117.898 99.1582H94.2503M117.898 99.1582H225.425L234.841 83.5422M9.37598 99.1582L1 112.99H50.9715M9.37598 99.1582H59.8949M50.9715 112.99L59.8949 99.1582M50.9715 112.99H85.773M59.8949 99.1582H94.2503M85.773 112.99L94.2503 99.1582M85.773 112.99H272.885M234.841 83.5422H268.258L281.643 62.1258M234.841 83.5422L247.754 62.1258M281.643 62.1258H280.751M281.643 62.1258H284.32M247.754 62.1258H265.581M247.754 62.1258L252.865 53.6485M265.581 62.1258L270.935 53.6485H252.865M265.581 62.1258H269.597M252.865 53.6485L253.981 51.7985M275.397 47.4021V46.5097L279.859 38.4786M275.397 47.4021H278.743M275.397 47.4021L274.632 48.7406M279.859 38.4786H283.428M289.228 47.4021H285.659M289.228 47.4021L289.764 46.5097M289.228 47.4021L288.718 48.2944M294.582 38.4786H313.322L308.321 46.5097M294.582 38.4786H291.013M294.582 38.4786L289.764 46.5097M285.659 47.4021L291.013 38.4786M285.659 47.4021H282.089M291.013 38.4786H286.997M282.089 47.4021L286.997 38.4786M282.089 47.4021H278.743M286.997 38.4786H283.428M278.743 47.4021L283.428 38.4786M253.981 51.7985H272.885M253.981 51.7985L255.017 50.0791M272.885 51.7985L271.827 53.6485H274.632M272.885 51.7985L273.867 50.0791M255.017 50.0791H273.867M255.017 50.0791L256.093 48.2944M273.867 50.0791L274.632 48.7406M256.093 48.2944L274.632 48.7406M285.659 53.6485L286.679 51.8638M285.659 53.6485H282.201M285.659 53.6485L280.751 62.1258M285.659 53.6485H288.718M303.876 53.6485L304.987 51.8638M303.876 53.6485H298.598M289.764 46.5097H308.321M308.321 46.5097L307.21 48.2944M288.718 48.2944H307.21M288.718 48.2944L287.699 50.0791M307.21 48.2944L306.099 50.0791M287.699 50.0791H306.099M287.699 50.0791L286.679 51.8638M306.099 50.0791L304.987 51.8638M286.679 51.8638H304.987M269.597 62.1258L274.632 53.6485M269.597 62.1258H273.867M274.632 53.6485H278.743M273.867 62.1258L278.743 53.6485M273.867 62.1258H277.182M278.743 53.6485H282.201M277.182 62.1258L282.201 53.6485M277.182 62.1258H280.751M284.32 62.1258L288.718 53.6485M284.32 62.1258H287.699M288.718 53.6485H291.905M287.699 62.1258L291.905 53.6485M287.699 62.1258H291.013M291.905 53.6485H294.582M291.013 62.1258L294.582 53.6485M291.013 62.1258H294.805M294.582 53.6485H298.598M294.805 62.1258L298.598 53.6485M303.876 62.1258H345L313.322 112.99H272.885M303.876 62.1258L272.885 112.99" stroke="#F3858E"/>
<path d="M253.911 70.228C253.44 70.228 253.059 70.6095 253.059 71.0805C253.059 71.5514 253.44 71.9329 253.911 71.9329C254.382 71.9329 254.764 71.5514 254.764 71.0805C254.764 70.6095 254.382 70.228 253.911 70.228Z" fill="black"/>
<path d="M257.55 70.228C257.079 70.228 256.697 70.6095 256.697 71.0805C256.697 71.5514 257.079 71.9329 257.55 71.9329C258.021 71.9329 258.403 71.5514 258.403 71.0805C258.403 70.6095 258.021 70.228 257.55 70.228Z" fill="black"/>
<path d="M261.19 70.228C260.719 70.228 260.337 70.6095 260.337 71.0805C260.337 71.5514 260.719 71.9329 261.19 71.9329C261.661 71.9329 262.042 71.5514 262.042 71.0805C262.042 70.6095 261.661 70.228 261.19 70.228Z" fill="black"/>
<path d="M263.133 66.1689H251.967C251.11 66.1689 250.411 66.8671 250.411 67.725V79.679C250.411 80.5371 251.11 81.2353 251.967 81.2353H263.133C263.991 81.2353 264.689 80.5371 264.689 79.679V67.725C264.689 66.8671 263.991 66.1689 263.133 66.1689ZM253.759 80.2532L253.911 76.8361L254.062 80.2532H253.759ZM257.398 80.2532L257.55 76.8361L257.702 80.2532H257.398ZM261.038 80.2532L261.19 76.8361L261.341 80.2532H261.038ZM263.707 79.679C263.707 79.9957 263.449 80.2532 263.133 80.2532H262.125L262.153 76.2635C262.216 76.3555 262.319 76.4175 262.438 76.4118C262.622 76.4031 262.763 76.2477 262.754 76.0646L262.896 73.2267C262.896 72.1105 261.765 72.0556 261.19 72.0556C260.614 72.0556 259.484 72.1105 259.484 73.2267L259.579 76.0646C259.57 76.2477 259.711 76.4031 259.894 76.4118C260.054 76.4195 260.187 76.3096 260.225 76.1605L260.253 80.2532H258.486L258.514 76.2635C258.577 76.3555 258.68 76.4174 258.799 76.4118C258.982 76.403 259.123 76.2477 259.115 76.0645L259.256 73.2267C259.256 72.1105 258.125 72.0556 257.55 72.0556C256.975 72.0556 255.844 72.1105 255.844 73.2267L255.939 76.0645C255.93 76.2477 256.071 76.403 256.255 76.4118C256.415 76.4194 256.548 76.3094 256.586 76.1596L256.614 80.2532H254.847L254.874 76.2635C254.937 76.3554 255.04 76.4174 255.16 76.4118C255.343 76.403 255.484 76.2476 255.475 76.0645L255.617 73.2267C255.617 72.1105 254.486 72.0555 253.911 72.0555C253.336 72.0555 252.205 72.1105 252.205 73.2267L252.3 76.0645C252.291 76.2476 252.432 76.403 252.615 76.4118C252.776 76.4194 252.909 76.3093 252.947 76.1596L252.975 80.2531H251.967C251.651 80.2531 251.393 79.9956 251.393 79.6789V67.725C251.393 67.4086 251.651 67.151 251.967 67.151H263.133C263.449 67.151 263.707 67.4086 263.707 67.725V79.679H263.707Z" fill="black"/>
<path d="M258.665 63.6125L259.832 62.4459V65.0689C259.832 65.308 260.026 65.5019 260.265 65.5019C260.505 65.5019 260.699 65.308 260.699 65.0689V62.4459L261.865 63.6125C261.95 63.6971 262.061 63.7396 262.172 63.7396C262.283 63.7396 262.394 63.6971 262.478 63.6125C262.648 63.4432 262.648 63.169 262.478 63L260.572 61.0934L260.265 60.7871L259.959 61.0934L258.053 63C257.883 63.169 257.883 63.4432 258.053 63.6125C258.222 63.7817 258.496 63.7817 258.665 63.6125Z" fill="black"/>
<path d="M254.528 65.3744C254.528 65.3746 254.528 65.3746 254.528 65.3746L254.835 65.6809L255.141 65.3746C255.141 65.3746 255.142 65.3746 255.142 65.3744L257.047 63.4679C257.217 63.2987 257.217 63.0242 257.047 62.8552C256.879 62.686 256.604 62.686 256.435 62.8552L255.268 64.0221V61.3991C255.268 61.1597 255.074 60.9658 254.835 60.9658C254.596 60.9658 254.402 61.1597 254.402 61.3991V64.0221L253.235 62.8552C253.066 62.686 252.791 62.686 252.622 62.8552C252.453 63.0242 252.453 63.2987 252.622 63.4679L254.528 65.3744Z" fill="black"/>
<path d="M306.909 76.8716C306.356 76.9713 305.912 77.3241 305.697 77.8303C305.602 78.0512 305.566 78.2507 305.576 78.5053C305.58 78.648 305.593 78.7507 305.614 78.8366C305.738 79.3061 306.036 79.6773 306.458 79.8859C307.255 80.2786 308.21 79.9549 308.601 79.1573C308.697 78.9594 308.74 78.8106 308.76 78.6019C308.814 78.0175 308.541 77.4422 308.056 77.1216C307.711 76.8946 307.291 76.8026 306.909 76.8716Z" fill="black"/>
<path d="M305.223 80.415C304.641 80.5055 304.155 80.8292 303.807 81.3554C303.643 81.6024 303.685 81.4766 303.055 83.5521C302.807 84.3697 302.537 85.2579 302.343 85.896C302.262 86.1614 302.188 86.4222 302.179 86.4789C302.116 86.8348 302.303 87.1662 302.621 87.2644C302.868 87.3411 303.118 87.272 303.29 87.0818C303.419 86.9376 303.4 86.9898 303.868 85.4159C303.971 85.0692 304.12 84.5722 304.198 84.3114C304.275 84.0491 304.42 83.5613 304.52 83.2253L304.703 82.6163H305.037C305.315 82.6163 305.371 82.6194 305.371 82.6378C305.371 82.6501 305.322 82.8342 305.262 83.0489C305.155 83.434 304.834 84.5891 303.998 87.5942C303.362 89.8844 303.346 89.9381 303.337 89.9673C303.33 89.9933 303.383 89.9949 304.319 89.9949H305.31V92.9125C305.31 96.091 305.305 95.9253 305.396 96.1033C305.476 96.2613 305.635 96.3917 305.819 96.4484C305.94 96.4883 306.195 96.4837 306.313 96.4392C306.539 96.3579 306.686 96.206 306.763 95.9775C306.789 95.8977 306.79 95.7566 306.795 92.9279L306.798 89.9642H307.174H307.55V92.9325C307.55 95.8977 307.55 95.9023 307.582 95.9974C307.678 96.2858 307.909 96.4561 308.232 96.4791C308.62 96.5052 308.947 96.2551 309.005 95.8854C309.016 95.8195 309.022 94.8132 309.022 92.8895V89.9949H310.004C310.644 89.9949 310.986 89.9903 310.986 89.9795C310.986 89.9719 310.875 89.5684 310.739 89.0867C310.604 88.6035 310.432 87.9899 310.357 87.7246C310.282 87.4592 310.11 86.844 309.973 86.3593C309.551 84.856 309.453 84.5078 309.344 84.1196C309.286 83.9126 309.17 83.4968 309.085 83.1946C308.999 82.8924 308.93 82.6393 308.93 82.6317C308.93 82.6225 309.068 82.6163 309.283 82.6163H309.634L309.667 82.7268C309.685 82.7881 309.713 82.8802 309.728 82.9308C309.743 82.9814 309.812 83.2131 309.881 83.4447C309.95 83.6763 310.065 84.0629 310.137 84.3037C310.208 84.5446 310.315 84.902 310.374 85.0968C310.598 85.8485 310.699 86.1921 310.78 86.4667C310.826 86.6231 310.88 86.7888 310.897 86.8348C311.024 87.1646 311.314 87.3503 311.616 87.295C311.964 87.2321 312.19 86.9207 312.162 86.5434C312.153 86.4283 312.141 86.3838 311.797 85.2548C311.49 84.247 310.998 82.6255 310.868 82.1945C310.802 81.9736 310.723 81.7512 310.685 81.6699C310.595 81.4796 310.426 81.2603 310.219 81.0624C309.841 80.7004 309.409 80.4825 308.938 80.415C308.725 80.3844 305.417 80.3844 305.223 80.415Z" fill="black"/>
</svg>
