<?xml version="1.0" encoding="UTF-8"?>
<svg id="_レイヤー_1" data-name="レイヤー 1" xmlns="http://www.w3.org/2000/svg" viewBox="0 0 591.61 358">
  <defs>
    <style>
      .cls-1 {
        fill: #fff;
        stroke: #34b9f0;
      }

      .cls-1, .cls-2, .cls-3, .cls-4, .cls-5 {
        stroke-miterlimit: 10;
      }

      .cls-2, .cls-6, .cls-7 {
        isolation: isolate;
      }

      .cls-2, .cls-3, .cls-4, .cls-5 {
        fill: none;
        stroke: #f3858e;
      }

      .cls-2, .cls-7 {
        font-family: BIZ-UDGothic, 'BIZ UDGothic';
        font-size: 34.26px;
        letter-spacing: .2em;
      }

      .cls-7 {
        fill: #f3858e;
      }

      .cls-4 {
        stroke-width: 3px;
      }

      .cls-5 {
        stroke-width: 2px;
      }
    </style>
  </defs>
  <g>
    <g>
      <line class="cls-3" x1="120.48" y1="168.73" x2="120.48" y2="204.63"/>
      <line class="cls-3" x1="128.16" y1="167.23" x2="128.16" y2="204.8"/>
      <line class="cls-3" x1="135.34" y1="167.9" x2="135.34" y2="205.13"/>
      <line class="cls-3" x1="143.02" y1="167.73" x2="143.02" y2="205.3"/>
      <line class="cls-3" x1="145.2" y1="207.64" x2="185.44" y2="207.64"/>
      <line class="cls-3" x1="145.53" y1="213.82" x2="185.11" y2="213.82"/>
      <line class="cls-3" x1="145.36" y1="219.99" x2="185.27" y2="219.99"/>
      <line class="cls-3" x1="139.86" y1="221.16" x2="139.86" y2="252.9"/>
      <line class="cls-3" x1="132.01" y1="221.16" x2="132.01" y2="252.73"/>
      <line class="cls-3" x1="124.5" y1="220.99" x2="124.5" y2="252.06"/>
      <line class="cls-3" x1="116.8" y1="221.16" x2="116.8" y2="251.9"/>
      <line class="cls-3" x1="114.81" y1="217.66" x2="80.74" y2="217.66"/>
      <line class="cls-3" x1="80.41" y1="211.64" x2="115.98" y2="211.64"/>
      <line class="cls-3" x1="80.74" y1="205.63" x2="115.64" y2="205.63"/>
    </g>
    <g>
      <polyline class="cls-4" points="184.47 321.28 184.47 166.78 1.5 166.78 1.5 2.25 590.11 1.5 590.11 356.5 313.34 356.5 313.34 318.74 184.47 318.74"/>
      <line class="cls-4" x1="79.57" y1="167.54" x2="79.57" y2="254"/>
      <line class="cls-4" x1="80.32" y1="253.1" x2="183.87" y2="253.1"/>
    </g>
    <g>
      <line class="cls-5" x1="116.34" y1="204.79" x2="116.34" y2="221.16"/>
      <line class="cls-5" x1="114.69" y1="220.87" x2="146.4" y2="220.87"/>
      <line class="cls-5" x1="145.34" y1="205.23" x2="145.34" y2="222.52"/>
      <line class="cls-5" x1="116.49" y1="205.53" x2="145.94" y2="205.53"/>
      <line class="cls-5" x1="184.47" y1="166.78" x2="184.47" y2="1.57"/>
      <polyline class="cls-5" points="185.78 252.88 411.85 252.88 411.85 1.87"/>
    </g>
  </g>
  <g>
    <rect class="cls-1" x="258.15" y="172.37" width="269.79" height="65.26" rx="1" ry="1"/>
    <g class="cls-6">
      <text class="cls-7" transform="translate(276.57 218.01)"><tspan x="0" y="0">STAFF ONLY</tspan></text>
      <text class="cls-2" transform="translate(276.57 218.01)"><tspan x="0" y="0">STAFF ONLY</tspan></text>
    </g>
  </g>
  <g>
    <path d="M403.02,9.8c-.33.03-1.85.12-3.37.18-2.01.08-2.88.16-3.17.26-.51.19-1.27.95-1.67,1.68-.16.3-.55.8-.85,1.11l-.56.56h-1.05c-1.19,0-1.52.1-1.74.56-.31.61-.02,1.42.6,1.63.18.07.76.11,1.28.11h.96l.38.4c.55.56.99.76,1.76.76.72,0,1.15-.17,1.63-.61.28-.26.29-.27.8-.16,1.44.29,3.99,1.32,6.45,2.59.78.4,1.43.72,1.44.72,0,0,0-.42-.02-.95-.02-.7-.08-.99-.19-1.11-.2-.25-2.14-1.49-3.89-2.53l-1.45-.85h-1.2c-.8,0-1.24-.08-1.32-.23-.07-.14-.08-.27-.02-.32.19-.19,5.27-2,6.77-2.4l.38-.1-.25-.43c-.35-.6-.68-.94-.9-.93-.11,0-.46.03-.79.08h-.02ZM395.89,13.87c.58.2.77.96.35,1.44-.19.21-.29.26-.66.26s-.47-.04-.66-.26c-.4-.47-.23-1.22.33-1.44.3-.12.29-.12.62,0h.01Z"/>
    <path d="M388.76,13.78c-3.63.54-5.64,3.46-5.22,7.65.12,1.26.39,2.54,1.1,5.44.76,3.02.94,4.05.99,5.72.03,1.09,0,1.64-.1,2.3-.08.48-.13.88-.13.88.02,0,.26.09.54.19s.67.25.86.35c.2.1.37.17.39.14.1-.1.33-1.3.42-2.23.2-1.96-.06-3.91-1.06-7.95-.82-3.29-.99-4.16-1.05-5.45-.08-1.85.21-2.92,1.05-3.82.25-.26.61-.56.82-.68.49-.29,1.54-.6,2.01-.6.35,0,.36-.02.29-.21-.09-.26-.08-1.34,0-1.62.08-.23.03-.25-.91-.1Z"/>
    <path d="M393.42,18.36v1.09l-.79.39c-1.49.75-2.75,2.31-3.13,3.89-.09.4-.13,1.08-.13,2.08v1.5h12.45v-1.5c0-1.66-.1-2.23-.56-3.15-.55-1.1-1.48-2.02-2.74-2.65l-.77-.38v-.98c0-.54-.02-1.07-.06-1.19-.06-.19-.08-.19-.21-.08-.28.25-.99.51-1.55.57-.7.08-1.47-.09-2.01-.42-.25-.16-.46-.28-.47-.28-.02,0-.04.49-.04,1.09v.02Z"/>
    <path d="M389.36,33.46v5.22h12.45v-10.42h-12.45v5.22h0ZM399.51,33.51v2.49h-7.85v-4.98h7.85v2.49h0Z"/>
    <path d="M384.04,36.76c-.12.06-.88,1.29-1.96,3.24l-1.77,3.13.26.28c.32.33,2.01,1.16,3.17,1.55.48.16,1.15.31,1.49.35.59.03.62.02.71-.18.06-.12.48-1.66.94-3.43.58-2.22.82-3.28.78-3.46-.22-.89-2.71-1.92-3.61-1.48h0ZM382.91,42.68c.96.2,1.88.72,2.22,1.24.21.32.21.48,0,.48-.56,0-3.73-1.32-3.67-1.52.02-.09.56-.31.76-.32.06,0,.37.06.7.12h-.01Z"/>
    <path d="M389.36,44.24c0,5.26,0,5.16.7,5.96.25.27.64.57.94.72l.52.26h8.12l.52-.26c.3-.14.7-.46.94-.72.71-.79.7-.7.7-5.96v-4.64h-12.45v4.64h.01Z"/>
  </g>
  <g>
    <path d="M36.3,233.5v20.03h40.4v-40.07h-40.4v20.03ZM68.72,228.42v12.29l.61.1c.72.11,1.65.54,2.03.93.64.64,1.76,2.69,1.78,3.26.01.26,0,.28-.31.35-.18.03-1.18.06-2.22.06h-1.9v5.27l.9.94c.94.96,1.23,1.34,1.15,1.43-.1.09-4.97.18-10.27.18h-5.35l-1.43-1.36-1.43-1.37h-3.67l1.29,1.25c1.16,1.13,1.27,1.26,1.13,1.34-.1.07-.93.11-2.27.14l-2.11.04-1.19-1.19-1.19-1.19v-16.91h5.19l1.08-1.26c1.49-1.75,1.87-2.14,2-2.14.09,0,1.07,2,1.97,4.01l.33.74-2.91,5.86c-3.51,7.1-3.92,7.98-3.75,8.09.16.1,1.26.09,2.04-.01.7-.1,1.39-.38,1.66-.67.27-.28,1.28-2.17,3.49-6.51,2.25-4.41,2.78-5.37,2.89-5.34.12.04.19.6.28,2.72.1,2.08.26,3.48.47,4.21.22.77-.16.74,6.49.74,5.92,0,6.27-.01,6.39-.33.06-.17-.42-1.07-.8-1.52-.18-.2-.45-.42-.58-.49-.48-.25-1.52-.36-4.29-.45-1.53-.04-3.12-.11-3.53-.13l-.76-.04-.23-3.46-.25-3.47-.31-.7c-.18-.39-.75-1.62-1.28-2.73-.54-1.1-.96-2.07-.96-2.14,0-.18.4-.21,1.86-.19l1.33.02.8,1.39c1.32,2.3,1.96,3.05,2.56,3.05.28,0,.87-.39,1.03-.67.26-.5-.07-1.45-1.17-3.37-1.2-2.08-1.65-2.58-2.62-2.89-.57-.18-.68-.18-4.78-.18-3.28,0-4.29.02-4.66.11-.41.1-.54.19-1.33.99-.48.49-1.47,1.62-2.21,2.49l-1.33,1.58h-4.11v-15.13h24.44v12.3-.03Z"/>
    <path d="M52.27,220.01c-.93.27-1.67,1.35-1.69,2.43-.01.81.78,2.13,1.55,2.54.2.11.46.14,1.01.14.65,0,.81-.03,1.23-.23,1.03-.5,1.48-1.29,1.52-2.55,0-.62-.01-.75-.21-1.08-.28-.47-.97-1.13-1.36-1.29-.38-.16-1.45-.14-2.04.03h0Z"/>
  </g>
</svg>