<?xml version="1.0" encoding="UTF-8"?>
<svg id="_トレース" data-name="トレース" xmlns="http://www.w3.org/2000/svg" viewBox="0 0 595 842">
  <defs>
    <style>
      .cls-1 {
        fill: #fff;
        stroke: #34b9f0;
      }

      .cls-1, .cls-2, .cls-3, .cls-4, .cls-5 {
        stroke-miterlimit: 10;
      }

      .cls-2, .cls-3, .cls-4 {
        fill: none;
      }

      .cls-2, .cls-3, .cls-4, .cls-5 {
        stroke: #f3858e;
      }

      .cls-3 {
        stroke-width: 3px;
      }

      .cls-4 {
        stroke-width: 2px;
      }

      .cls-5 {
        fill: #f3858e;
        font-family: BIZ-UDGothic, 'BIZ UDGothic';
        font-size: 30.73px;
        letter-spacing: .2em;
      }
    </style>
  </defs>
  <g>
    <g>
      <line class="cls-2" x1="140.23" y1="411.79" x2="140.23" y2="443.99"/>
      <line class="cls-2" x1="147.12" y1="410.44" x2="147.12" y2="444.14"/>
      <line class="cls-2" x1="153.56" y1="411.04" x2="153.56" y2="444.44"/>
      <line class="cls-2" x1="160.45" y1="410.89" x2="160.45" y2="444.59"/>
      <line class="cls-2" x1="162.4" y1="446.69" x2="198.5" y2="446.69"/>
      <line class="cls-2" x1="162.7" y1="452.23" x2="198.2" y2="452.23"/>
      <line class="cls-2" x1="162.55" y1="457.77" x2="198.35" y2="457.77"/>
      <line class="cls-2" x1="157.61" y1="458.82" x2="157.61" y2="487.29"/>
      <line class="cls-2" x1="150.57" y1="458.82" x2="150.57" y2="487.14"/>
      <line class="cls-2" x1="143.83" y1="458.67" x2="143.83" y2="486.54"/>
      <line class="cls-2" x1="136.93" y1="458.82" x2="136.93" y2="486.39"/>
      <line class="cls-2" x1="135.14" y1="455.68" x2="104.58" y2="455.68"/>
      <line class="cls-2" x1="104.28" y1="450.28" x2="136.19" y2="450.28"/>
      <line class="cls-2" x1="104.58" y1="444.89" x2="135.89" y2="444.89"/>
    </g>
    <g>
      <polyline class="cls-3" points="197.63 548.63 197.63 410.04 33.5 410.04 33.5 262.45 561.5 261.78 561.5 580.22 313.23 580.22 313.23 546.35 197.63 546.35"/>
      <line class="cls-3" x1="103.53" y1="410.72" x2="103.53" y2="488.28"/>
      <line class="cls-3" x1="104.2" y1="487.47" x2="197.09" y2="487.47"/>
    </g>
    <g>
      <line class="cls-4" x1="136.51" y1="444.13" x2="136.51" y2="458.82"/>
      <line class="cls-4" x1="135.03" y1="458.56" x2="163.48" y2="458.56"/>
      <line class="cls-4" x1="162.53" y1="444.53" x2="162.53" y2="460.04"/>
      <line class="cls-4" x1="136.65" y1="444.8" x2="163.07" y2="444.8"/>
      <line class="cls-4" x1="197.63" y1="410.04" x2="197.63" y2="261.84"/>
      <polyline class="cls-4" points="198.8 487.27 401.59 487.27 401.59 262.11"/>
    </g>
  </g>
  <g>
    <rect class="cls-1" x="263.72" y="415.05" width="242.01" height="58.54"/>
    <text class="cls-5" transform="translate(280.24 455.99)"><tspan x="0" y="0">STAFF ONLY</tspan></text>
  </g>
  <g>
    <path d="M393.67,269.22c-.3.03-1.66.11-3.02.16-1.8.07-2.58.14-2.84.23-.46.17-1.14.85-1.5,1.51-.14.27-.49.72-.76,1l-.5.5h-.94c-1.07,0-1.36.09-1.56.5-.28.55-.02,1.27.54,1.46.16.06.68.1,1.15.1h.86s.34.36.34.36c.49.5.89.68,1.58.68.65,0,1.03-.15,1.46-.55.25-.23.26-.24.72-.14,1.29.26,3.58,1.18,5.79,2.32.7.36,1.28.65,1.29.65,0,0,0-.38-.02-.85-.02-.63-.07-.89-.17-1-.18-.22-1.92-1.34-3.49-2.27l-1.3-.76h-1.08q-1.08,0-1.18-.21c-.06-.13-.07-.24-.02-.29.17-.17,4.73-1.79,6.07-2.15l.34-.09-.22-.39c-.31-.54-.61-.84-.81-.83-.1,0-.41.03-.71.07ZM387.28,272.87c.52.18.69.86.31,1.29-.17.19-.26.23-.59.23s-.42-.04-.59-.23c-.36-.42-.21-1.09.3-1.29.27-.11.26-.11.56,0Z"/>
    <path d="M380.88,272.79c-3.26.48-5.06,3.1-4.68,6.86.11,1.13.35,2.28.99,4.88.68,2.71.84,3.63.89,5.13.03.98,0,1.47-.09,2.06-.07.43-.12.79-.12.79.02,0,.23.08.48.17s.6.22.77.31c.18.09.33.15.35.13.09-.09.3-1.17.38-2,.18-1.76-.05-3.51-.95-7.13-.74-2.95-.89-3.73-.94-4.89-.07-1.66.19-2.62.94-3.43.22-.23.55-.5.74-.61.44-.26,1.38-.54,1.8-.54.31,0,.32-.02.26-.19-.08-.23-.07-1.2,0-1.45.07-.21.03-.22-.82-.09Z"/>
    <path d="M385.06,276.9v.98l-.71.35c-1.34.67-2.47,2.07-2.81,3.49-.08.36-.12.97-.12,1.87v1.35h11.17v-1.35c0-1.49-.09-2-.5-2.83-.49-.99-1.33-1.81-2.46-2.38l-.69-.34v-.88c0-.48-.02-.96-.05-1.07-.05-.17-.07-.17-.19-.07-.25.22-.89.46-1.39.51-.63.07-1.32-.08-1.8-.38-.22-.14-.41-.25-.42-.25-.02,0-.04.44-.04.98Z"/>
    <path d="M381.42,290.45v4.68h11.17v-9.35h-11.17v4.68ZM390.52,290.49v2.23h-7.04v-4.47h7.04v2.23Z"/>
    <path d="M376.65,293.41c-.11.05-.79,1.16-1.76,2.91l-1.59,2.81.23.25c.29.3,1.8,1.04,2.84,1.39.43.14,1.03.28,1.34.31.53.03.56.02.64-.16.05-.11.43-1.49.84-3.08.52-1.99.74-2.94.7-3.1-.2-.8-2.43-1.72-3.24-1.33ZM375.63,298.72c.86.18,1.69.65,1.99,1.11.19.29.19.43,0,.43-.5,0-3.35-1.18-3.29-1.36.02-.08.5-.28.68-.29.05,0,.33.05.63.11Z"/>
    <path d="M381.42,300.12c0,4.72,0,4.63.63,5.35.22.24.57.51.84.65l.47.23h7.28l.47-.23c.27-.13.63-.41.84-.65.64-.71.63-.63.63-5.35v-4.16h-11.17v4.16Z"/>
  </g>
  <g>
    <path d="M64.72,469.89v17.97h36.24v-35.94h-36.24v17.97ZM93.8,465.33v11.02l.55.09c.65.1,1.48.48,1.82.83.57.57,1.58,2.41,1.6,2.92.01.23,0,.25-.28.31-.16.03-1.06.05-1.99.05h-1.7v4.73l.81.84c.84.86,1.1,1.2,1.03,1.28-.09.08-4.46.16-9.21.16h-4.8s-1.28-1.22-1.28-1.22l-1.28-1.23h-3.29l1.16,1.12c1.04,1.01,1.14,1.13,1.01,1.2-.09.06-.83.1-2.04.13l-1.89.04-1.07-1.07-1.07-1.07v-15.17h4.66s.97-1.13.97-1.13c1.34-1.57,1.68-1.92,1.79-1.92.08,0,.96,1.79,1.77,3.6l.3.66-2.61,5.26c-3.15,6.37-3.52,7.16-3.36,7.26.14.09,1.13.08,1.83-.01.63-.09,1.25-.34,1.49-.6.24-.25,1.15-1.95,3.13-5.84,2.02-3.96,2.49-4.82,2.59-4.79.11.04.17.54.25,2.44.09,1.87.23,3.12.42,3.78.2.69-.14.66,5.82.66,5.31,0,5.62-.01,5.73-.3.05-.15-.38-.96-.72-1.36-.16-.18-.4-.38-.52-.44-.43-.22-1.36-.32-3.85-.4-1.37-.04-2.8-.1-3.17-.12l-.68-.04-.21-3.1-.22-3.11-.28-.63c-.16-.35-.67-1.45-1.15-2.45-.48-.99-.86-1.86-.86-1.92,0-.16.36-.19,1.67-.17l1.19.02.72,1.25c1.18,2.06,1.76,2.74,2.3,2.74.25,0,.78-.35.92-.6.23-.45-.06-1.3-1.05-3.02-1.08-1.87-1.48-2.31-2.35-2.59-.51-.16-.61-.16-4.29-.16-2.94,0-3.85.02-4.18.1-.37.09-.48.17-1.19.89-.43.44-1.32,1.45-1.98,2.23l-1.19,1.42h-1.84s-1.85,0-1.85,0v-13.57h21.92v11.03Z"/>
    <path d="M79.04,457.79c-.83.24-1.5,1.21-1.52,2.18-.01.73.7,1.91,1.39,2.28.18.1.41.13.91.13.58,0,.73-.03,1.1-.21.92-.45,1.33-1.16,1.36-2.29,0-.56-.01-.67-.19-.97-.25-.42-.87-1.01-1.22-1.16-.34-.14-1.3-.13-1.83.03Z"/>
  </g>
</svg>