<?xml version="1.0" encoding="UTF-8"?>
<svg id="_レイヤー_2" data-name="レイヤー 2" xmlns="http://www.w3.org/2000/svg" viewBox="0 0 595 842">
  <defs>
    <style>
      .cls-1 {
        stroke: #e2b953;
      }

      .cls-1, .cls-2, .cls-3, .cls-4 {
        fill: none;
      }

      .cls-1, .cls-2, .cls-3, .cls-4, .cls-5 {
        stroke-miterlimit: 10;
      }

      .cls-2 {
        stroke-width: 3px;
      }

      .cls-2, .cls-3, .cls-4, .cls-5 {
        stroke: #965045;
      }

      .cls-6 {
        fill: #ef4444;
      }

      .cls-3 {
        stroke-width: 2px;
      }

      .cls-5 {
        fill: #965045;
        font-family: BIZ-UDGothic, 'BIZ UDGothic';
        font-size: 20.2px;
        letter-spacing: .3em;
      }
    </style>
  </defs>
  <g>
    <polyline class="cls-2" points="30.4 571.88 30.4 270.12 185.99 270.12 185.99 326.21 403.88 326.21 403.88 475.34 564.6 475.34 564.6 570.26 402.8 570.26 402.8 509.31 334.85 509.31 334.85 569.72 30.94 569.72"/>
    <g>
      <line class="cls-3" x1="30.67" y1="326.75" x2="160.71" y2="326.75"/>
      <line class="cls-3" x1="146.76" y1="327.36" x2="146.76" y2="331.2"/>
      <line class="cls-3" x1="146.76" y1="350.01" x2="146.76" y2="359.92"/>
      <line class="cls-3" x1="151.41" y1="360.12" x2="31.07" y2="360.12"/>
      <line class="cls-3" x1="179.72" y1="326.35" x2="184.78" y2="326.35"/>
      <line class="cls-3" x1="169.61" y1="360.12" x2="301.88" y2="360.12"/>
      <polyline class="cls-3" points="322.51 359.92 334.24 359.92 334.24 510.39"/>
      <line class="cls-3" x1="334.85" y1="380.75" x2="363.97" y2="380.75"/>
      <line class="cls-3" x1="403.61" y1="476.21" x2="403.61" y2="488.15"/>
      <line class="cls-3" x1="171.63" y1="360.53" x2="171.63" y2="569.65"/>
    </g>
    <g>
      <line class="cls-4" x1="334.85" y1="386.75" x2="363.84" y2="386.75"/>
      <line class="cls-4" x1="334.85" y1="392.55" x2="363.84" y2="392.55"/>
      <line class="cls-4" x1="334.85" y1="398.08" x2="364.11" y2="398.08"/>
      <line class="cls-4" x1="334.71" y1="404.01" x2="364.24" y2="404.01"/>
      <line class="cls-4" x1="334.98" y1="410.21" x2="364.11" y2="410.21"/>
      <line class="cls-4" x1="334.85" y1="416.01" x2="363.84" y2="416.01"/>
      <line class="cls-4" x1="335.12" y1="421.54" x2="363.97" y2="421.54"/>
      <line class="cls-4" x1="334.98" y1="427.34" x2="364.11" y2="427.34"/>
      <line class="cls-4" x1="334.85" y1="433" x2="363.97" y2="433"/>
      <line class="cls-4" x1="334.85" y1="438.8" x2="363.97" y2="438.8"/>
      <line class="cls-4" x1="335.12" y1="444.87" x2="364.11" y2="444.87"/>
      <line class="cls-4" x1="334.85" y1="449.99" x2="363.84" y2="449.99"/>
      <line class="cls-4" x1="334.85" y1="456.06" x2="364.11" y2="456.06"/>
      <line class="cls-4" x1="334.98" y1="461.85" x2="363.84" y2="461.85"/>
      <rect class="cls-4" x="364.11" y="380.28" width="3.1" height="87.51"/>
    </g>
  </g>
  <g>
    <path d="M348.43,357.21c-.16.02-.91.06-1.66.09-.99.04-1.42.08-1.56.13-.26.09-.63.47-.83.83-.08.15-.27.4-.42.55l-.28.27h-.52c-.59,0-.75.05-.86.27-.16.3,0,.7.3.81.09.03.37.05.63.05h.47s.19.2.19.2c.27.28.49.37.87.37.36,0,.57-.08.81-.31.14-.13.15-.13.4-.08.71.14,1.97.65,3.19,1.28.39.2.71.36.71.36,0,0,0-.21-.01-.47-.01-.35-.04-.49-.1-.55-.1-.12-1.06-.74-1.92-1.25l-.72-.42h-.6q-.6,0-.65-.11c-.03-.07-.04-.13,0-.16.1-.1,2.6-.99,3.34-1.19l.19-.05-.12-.21c-.17-.3-.34-.47-.45-.46-.05,0-.23.02-.39.04ZM344.91,359.22c.29.1.38.47.17.71-.09.1-.15.13-.32.13s-.23-.02-.32-.13c-.2-.23-.11-.6.16-.71.15-.06.15-.06.31,0Z"/>
    <path d="M341.38,359.17c-1.8.26-2.79,1.71-2.58,3.78.06.62.19,1.25.55,2.69.37,1.5.46,2,.49,2.83.02.54,0,.81-.05,1.14-.04.24-.07.43-.06.44,0,0,.13.05.26.09s.33.12.42.17c.1.05.18.08.19.07.05-.05.16-.64.21-1.1.1-.97-.03-1.93-.52-3.93-.41-1.63-.49-2.06-.52-2.7-.04-.91.1-1.45.52-1.89.12-.13.3-.28.41-.34.24-.14.76-.3.99-.3.17,0,.18,0,.14-.1-.05-.13-.04-.66,0-.8.04-.11.02-.12-.45-.05Z"/>
    <path d="M343.69,361.44v.54l-.39.19c-.74.37-1.36,1.14-1.55,1.92-.05.2-.07.53-.07,1.03v.74h6.16v-.74c0-.82-.05-1.1-.27-1.56-.27-.55-.73-1-1.35-1.31l-.38-.19v-.48c0-.26-.01-.53-.03-.59-.03-.1-.04-.1-.1-.04-.14.12-.49.26-.77.28-.35.04-.73-.05-.99-.21-.12-.08-.22-.14-.23-.14-.01,0-.02.24-.02.54Z"/>
    <path d="M341.68,368.9v2.58h6.16v-5.15h-6.16v2.58ZM346.7,368.93v1.23h-3.88v-2.46h3.88v1.23Z"/>
    <path d="M339.05,370.53c-.06.03-.43.64-.97,1.6l-.88,1.55.13.14c.16.16.99.57,1.56.77.24.08.57.16.74.17.29.02.31.01.35-.09.03-.06.24-.82.47-1.7.29-1.09.41-1.62.38-1.71-.11-.44-1.34-.95-1.78-.73ZM338.49,373.46c.47.1.93.36,1.1.61.1.16.1.24,0,.24-.28,0-1.85-.65-1.82-.75.01-.05.27-.16.37-.16.03,0,.18.03.35.06Z"/>
    <path d="M341.68,374.23c0,2.6,0,2.55.35,2.95.12.13.31.28.47.36l.26.13h4.01l.26-.13c.15-.07.35-.22.47-.36.35-.39.35-.35.35-2.95v-2.29h-6.16v2.29Z"/>
  </g>
  <g>
    <path class="cls-6" d="M102.64,280.41c-1.05.19-1.9.86-2.31,1.83-.18.42-.25.8-.23,1.29,0,.27.03.47.07.63.24.89.8,1.6,1.61,2,1.52.75,3.34.13,4.08-1.39.18-.38.27-.66.3-1.06.1-1.11-.42-2.21-1.34-2.82-.66-.43-1.46-.61-2.19-.48Z"/>
    <path class="cls-6" d="M99.43,287.16c-1.11.17-2.03.79-2.7,1.79-.31.47-.23.23-1.43,4.19-.47,1.56-.99,3.25-1.36,4.47-.15.51-.3,1-.31,1.11-.12.68.24,1.31.84,1.5.47.15.95.01,1.27-.35.25-.27.21-.18,1.1-3.17.2-.66.48-1.61.63-2.1.15-.5.42-1.43.61-2.07l.35-1.16h.64c.53,0,.64,0,.64.04,0,.02-.09.37-.21.78-.2.73-.82,2.93-2.41,8.66-1.21,4.36-1.24,4.47-1.26,4.52-.01.05.09.05,1.87.05h1.89v5.56c0,6.06,0,5.74.16,6.08.15.3.46.55.81.66.23.08.72.07.94-.02.43-.15.71-.44.86-.88.05-.15.05-.42.06-5.81v-5.65h1.44v5.66c0,5.65,0,5.66.06,5.84.18.55.62.87,1.24.92.74.05,1.36-.43,1.47-1.13.02-.13.03-2.04.03-5.71v-5.51h1.87c1.22,0,1.87,0,1.87-.03,0-.01-.21-.78-.47-1.7-.26-.92-.58-2.09-.73-2.6-.14-.51-.47-1.68-.73-2.6-.8-2.86-.99-3.53-1.2-4.27-.11-.39-.33-1.19-.49-1.76-.16-.58-.3-1.06-.3-1.07,0-.02.26-.03.67-.03h.67l.06.21c.04.12.09.29.12.39.03.1.16.54.29.98.13.44.35,1.18.49,1.64.13.46.34,1.14.45,1.51.43,1.43.62,2.09.77,2.61.09.3.19.61.22.7.24.63.79.98,1.37.88.66-.12,1.09-.71,1.04-1.43-.02-.22-.04-.3-.7-2.46-.58-1.92-1.52-5.01-1.77-5.83-.13-.42-.27-.84-.35-1-.17-.36-.49-.78-.89-1.16-.72-.69-1.54-1.1-2.44-1.23-.41-.06-6.71-.06-7.08,0Z"/>
  </g>
  <g>
    <text class="cls-5" transform="translate(75.38 546.3)"><tspan x="0" y="0">321</tspan></text>
    <rect class="cls-1" x="63.76" y="520.67" width="65.66" height="35.91" rx="16" ry="16"/>
  </g>
  <g>
    <text class="cls-5" transform="translate(234.42 547.31)"><tspan x="0" y="0">322</tspan></text>
    <rect class="cls-1" x="222.79" y="521.68" width="65.66" height="35.91" rx="16" ry="16"/>
  </g>
  <g>
    <text class="cls-5" transform="translate(421.46 528.84)"><tspan x="0" y="0">ギャラリー</tspan></text>
    <rect class="cls-1" x="408.23" y="503.21" width="151.7" height="35.91" rx="16" ry="16"/>
  </g>
</svg>