<svg width="302" height="156" viewBox="0 0 302 156" fill="none" xmlns="http://www.w3.org/2000/svg">
<path d="M123.509 30.5203L133.841 1H51.9225L42.1766 30.5203M123.509 30.5203H240.483L215.76 106.904M123.509 30.5203H103.583M215.76 106.904H301L284.764 155.244H199.524M215.76 106.904L199.524 155.244M76.6458 155.244H1L42.1766 30.5203M76.6458 155.244L112.439 48.2325M76.6458 155.244H164.469M112.439 48.2325H98.417L103.583 30.5203M112.439 48.2325H199.524L196.26 58.1956M103.583 30.5203H42.1766M164.469 155.244H199.524M164.469 155.244L184.051 95.4649M184.051 95.4649H201.369L202.922 90.8524M184.051 95.4649L185.562 90.8524M196.26 58.1956H213.915L212.3 62.9926M196.26 58.1956L194.689 62.9926M194.689 62.9926H212.3M194.689 62.9926L193.238 67.4207M212.3 62.9926L210.81 67.4207M193.238 67.4207H210.81M193.238 67.4207L191.667 72.2177M210.81 67.4207L209.195 72.2177M191.667 72.2177H209.195M191.667 72.2177L190.095 77.0148M209.195 72.2177L207.58 77.0148M190.095 77.0148H207.58M190.095 77.0148L188.645 81.4428M207.58 77.0148L206.089 81.4428M188.645 81.4428H206.089M188.645 81.4428L187.073 86.2399M206.089 81.4428L204.474 86.2399M187.073 86.2399H204.474M187.073 86.2399L185.562 90.8524M204.474 86.2399L202.922 90.8524M185.562 90.8524H202.922" stroke="#965045"/>
<path d="M83.8878 5.81536C83.4311 5.89782 83.0632 6.18962 82.8856 6.60828C82.8069 6.79097 82.7777 6.9559 82.7853 7.1665C82.7892 7.28449 82.7993 7.36949 82.8171 7.44054C82.9198 7.82875 83.166 8.13577 83.5148 8.30832C84.1746 8.6331 84.9637 8.36541 85.2872 7.70569C85.3671 7.54203 85.4026 7.41897 85.4191 7.24643C85.4635 6.76306 85.2377 6.28731 84.8368 6.02215C84.5514 5.83439 84.2037 5.75827 83.8878 5.81536Z" fill="#EF4444"/>
<path d="M82.4939 8.74604C82.013 8.82089 81.6109 9.08859 81.3229 9.52374C81.1871 9.728 81.2227 9.62397 80.7012 11.3405C80.4957 12.0167 80.2724 12.7513 80.1126 13.279C80.0453 13.4985 79.9844 13.7142 79.9768 13.7611C79.9248 14.0555 80.0796 14.3295 80.3422 14.4107C80.5465 14.4741 80.7532 14.417 80.8953 14.2597C81.0019 14.1405 80.9867 14.1836 81.3736 12.8819C81.4586 12.5952 81.5817 12.1842 81.6464 11.9685C81.7098 11.7515 81.8304 11.3481 81.9128 11.0703L82.0638 10.5666H82.3404C82.57 10.5666 82.6169 10.5691 82.6169 10.5844C82.6169 10.5945 82.5763 10.7468 82.5269 10.9244C82.4381 11.2428 82.1729 12.1981 81.4815 14.6835C80.955 16.5776 80.9423 16.622 80.9347 16.6461C80.9283 16.6677 80.9727 16.669 81.7466 16.669H82.5662V19.082C82.5662 21.7107 82.5624 21.5737 82.6372 21.7208C82.7032 21.8515 82.8352 21.9593 82.9874 22.0063C83.0876 22.0393 83.2982 22.0355 83.3959 21.9987C83.5824 21.9314 83.7042 21.8058 83.7676 21.6168C83.7892 21.5508 83.7905 21.4341 83.7943 19.0947L83.7968 16.6436H84.1076H84.4185V19.0985C84.4185 21.5508 84.4185 21.5546 84.4451 21.6333C84.525 21.8718 84.7153 22.0126 84.983 22.0317C85.304 22.0532 85.5742 21.8464 85.6224 21.5407C85.6313 21.4861 85.6364 20.6539 85.6364 19.0629V16.669H86.4484C86.9774 16.669 87.2603 16.6651 87.2603 16.6563C87.2603 16.6499 87.169 16.3163 87.0561 15.9179C86.9444 15.5183 86.8023 15.0108 86.7402 14.7913C86.678 14.5718 86.5359 14.0631 86.423 13.6622C86.0741 12.4189 85.9929 12.1309 85.9028 11.8099C85.8546 11.6386 85.7582 11.2948 85.6884 11.0449C85.6174 10.795 85.5603 10.5856 85.5603 10.5793C85.5603 10.5717 85.6745 10.5666 85.8521 10.5666H86.1426L86.1692 10.6579C86.1845 10.7087 86.2073 10.7848 86.22 10.8267C86.2327 10.8685 86.2898 11.0601 86.3469 11.2517C86.404 11.4433 86.4991 11.763 86.5587 11.9621C86.6171 12.1613 86.7059 12.4569 86.7541 12.6181C86.9393 13.2397 87.0231 13.5239 87.0903 13.751C87.1284 13.8804 87.1728 14.0174 87.1867 14.0555C87.292 14.3282 87.5318 14.4817 87.7817 14.4361C88.0697 14.3841 88.2562 14.1265 88.2334 13.8144C88.2258 13.7193 88.2156 13.6825 87.9314 12.7487C87.6777 11.9152 87.2705 10.5742 87.1626 10.2177C87.1081 10.035 87.0434 9.85106 87.0116 9.78382C86.9368 9.62651 86.7972 9.44509 86.626 9.28143C86.3139 8.98202 85.9561 8.80186 85.5666 8.74604C85.3903 8.72067 82.655 8.72067 82.4939 8.74604Z" fill="#EF4444"/>
<rect x="49.5" y="87.5" width="19" height="13" fill="white" stroke="#E2B953"/>
<path d="M56.2208 92.568C56.2208 92.8293 56.1648 93.056 56.0528 93.248C55.9461 93.44 55.7995 93.5973 55.6128 93.72C55.4315 93.8427 55.2235 93.9333 54.9888 93.992V94.016C55.4475 94.0693 55.7941 94.208 56.0288 94.432C56.2688 94.656 56.3888 94.9573 56.3888 95.336C56.3888 95.6667 56.3061 95.9653 56.1408 96.232C55.9808 96.4933 55.7301 96.7013 55.3888 96.856C55.0528 97.0053 54.6181 97.08 54.0848 97.08C53.7701 97.08 53.4768 97.0533 53.2048 97C52.9328 96.9467 52.6768 96.8693 52.4368 96.768V95.744C52.6821 95.8667 52.9381 95.96 53.2048 96.024C53.4768 96.088 53.7275 96.12 53.9568 96.12C54.3888 96.12 54.6901 96.0453 54.8608 95.896C55.0368 95.7467 55.1248 95.536 55.1248 95.264C55.1248 95.104 55.0848 94.9707 55.0048 94.864C54.9248 94.752 54.7835 94.6693 54.5808 94.616C54.3835 94.5573 54.1061 94.528 53.7488 94.528H53.3168V93.6H53.7568C54.1088 93.6 54.3755 93.568 54.5568 93.504C54.7435 93.4347 54.8688 93.344 54.9328 93.232C55.0021 93.1147 55.0368 92.9813 55.0368 92.832C55.0368 92.6293 54.9728 92.472 54.8448 92.36C54.7221 92.2427 54.5141 92.184 54.2208 92.184C54.0395 92.184 53.8741 92.208 53.7248 92.256C53.5755 92.2987 53.4395 92.352 53.3168 92.416C53.1995 92.48 53.0955 92.5413 53.0048 92.6L52.4448 91.768C52.5941 91.6613 52.7595 91.5653 52.9408 91.48C53.1275 91.3947 53.3328 91.328 53.5568 91.28C53.7808 91.232 54.0315 91.208 54.3088 91.208C54.8955 91.208 55.3595 91.328 55.7008 91.568C56.0475 91.8027 56.2208 92.136 56.2208 92.568ZM61.0229 97H57.0309V96.16L58.4629 94.712C58.7509 94.4133 58.9829 94.1653 59.1589 93.968C59.3349 93.7653 59.4629 93.584 59.5429 93.424C59.6229 93.2587 59.6629 93.0827 59.6629 92.896C59.6629 92.6667 59.5989 92.496 59.4709 92.384C59.3483 92.272 59.1803 92.216 58.9669 92.216C58.7483 92.216 58.5349 92.2667 58.3269 92.368C58.1189 92.4693 57.9003 92.6133 57.6709 92.8L57.0149 92.024C57.1803 91.88 57.3536 91.7467 57.5349 91.624C57.7216 91.5013 57.9349 91.4027 58.1749 91.328C58.4203 91.248 58.7136 91.208 59.0549 91.208C59.4283 91.208 59.7483 91.2773 60.0149 91.416C60.2869 91.5493 60.4949 91.7333 60.6389 91.968C60.7883 92.1973 60.8629 92.4587 60.8629 92.752C60.8629 92.992 60.8256 93.2133 60.7509 93.416C60.6816 93.6187 60.5776 93.816 60.4389 94.008C60.3056 94.1947 60.1403 94.3893 59.9429 94.592C59.7456 94.7893 59.5216 95.0053 59.2709 95.24L58.5349 95.928V95.984H61.0229V97ZM64.5931 97H63.3851V93.696C63.3851 93.6053 63.3851 93.4933 63.3851 93.36C63.3904 93.2267 63.3957 93.088 63.4011 92.944C63.4064 92.8 63.4117 92.672 63.4171 92.56C63.3904 92.592 63.3317 92.6507 63.2411 92.736C63.1557 92.816 63.0757 92.888 63.0011 92.952L62.3451 93.48L61.7611 92.752L63.6011 91.288H64.5931V97Z" fill="#954D2B"/>
<rect x="125.5" y="87.5" width="19" height="13" fill="white" stroke="#E2B953"/>
<path d="M132.221 92.568C132.221 92.8293 132.165 93.056 132.053 93.248C131.946 93.44 131.799 93.5973 131.613 93.72C131.431 93.8427 131.223 93.9333 130.989 93.992V94.016C131.447 94.0693 131.794 94.208 132.029 94.432C132.269 94.656 132.389 94.9573 132.389 95.336C132.389 95.6667 132.306 95.9653 132.141 96.232C131.981 96.4933 131.73 96.7013 131.389 96.856C131.053 97.0053 130.618 97.08 130.085 97.08C129.77 97.08 129.477 97.0533 129.205 97C128.933 96.9467 128.677 96.8693 128.437 96.768V95.744C128.682 95.8667 128.938 95.96 129.205 96.024C129.477 96.088 129.727 96.12 129.957 96.12C130.389 96.12 130.69 96.0453 130.861 95.896C131.037 95.7467 131.125 95.536 131.125 95.264C131.125 95.104 131.085 94.9707 131.005 94.864C130.925 94.752 130.783 94.6693 130.581 94.616C130.383 94.5573 130.106 94.528 129.749 94.528H129.317V93.6H129.757C130.109 93.6 130.375 93.568 130.557 93.504C130.743 93.4347 130.869 93.344 130.933 93.232C131.002 93.1147 131.037 92.9813 131.037 92.832C131.037 92.6293 130.973 92.472 130.845 92.36C130.722 92.2427 130.514 92.184 130.221 92.184C130.039 92.184 129.874 92.208 129.725 92.256C129.575 92.2987 129.439 92.352 129.317 92.416C129.199 92.48 129.095 92.5413 129.005 92.6L128.445 91.768C128.594 91.6613 128.759 91.5653 128.941 91.48C129.127 91.3947 129.333 91.328 129.557 91.28C129.781 91.232 130.031 91.208 130.309 91.208C130.895 91.208 131.359 91.328 131.701 91.568C132.047 91.8027 132.221 92.136 132.221 92.568ZM137.023 97H133.031V96.16L134.463 94.712C134.751 94.4133 134.983 94.1653 135.159 93.968C135.335 93.7653 135.463 93.584 135.543 93.424C135.623 93.2587 135.663 93.0827 135.663 92.896C135.663 92.6667 135.599 92.496 135.471 92.384C135.348 92.272 135.18 92.216 134.967 92.216C134.748 92.216 134.535 92.2667 134.327 92.368C134.119 92.4693 133.9 92.6133 133.671 92.8L133.015 92.024C133.18 91.88 133.354 91.7467 133.535 91.624C133.722 91.5013 133.935 91.4027 134.175 91.328C134.42 91.248 134.714 91.208 135.055 91.208C135.428 91.208 135.748 91.2773 136.015 91.416C136.287 91.5493 136.495 91.7333 136.639 91.968C136.788 92.1973 136.863 92.4587 136.863 92.752C136.863 92.992 136.826 93.2133 136.751 93.416C136.682 93.6187 136.578 93.816 136.439 94.008C136.306 94.1947 136.14 94.3893 135.943 94.592C135.746 94.7893 135.522 95.0053 135.271 95.24L134.535 95.928V95.984H137.023V97ZM141.601 97H137.609V96.16L139.041 94.712C139.329 94.4133 139.561 94.1653 139.737 93.968C139.913 93.7653 140.041 93.584 140.121 93.424C140.201 93.2587 140.241 93.0827 140.241 92.896C140.241 92.6667 140.177 92.496 140.049 92.384C139.926 92.272 139.758 92.216 139.545 92.216C139.326 92.216 139.113 92.2667 138.905 92.368C138.697 92.4693 138.478 92.6133 138.249 92.8L137.593 92.024C137.758 91.88 137.932 91.7467 138.113 91.624C138.3 91.5013 138.513 91.4027 138.753 91.328C138.998 91.248 139.292 91.208 139.633 91.208C140.006 91.208 140.326 91.2773 140.593 91.416C140.865 91.5493 141.073 91.7333 141.217 91.968C141.366 92.1973 141.441 92.4587 141.441 92.752C141.441 92.992 141.404 93.2133 141.329 93.416C141.26 93.6187 141.156 93.816 141.017 94.008C140.884 94.1947 140.718 94.3893 140.521 94.592C140.324 94.7893 140.1 95.0053 139.849 95.24L139.113 95.928V95.984H141.601V97Z" fill="#954D2B"/>
<rect x="230.5" y="124.5" width="44" height="13" fill="white" stroke="#E2B953"/>
<path d="M239.088 127.416C239.288 127.704 239.568 128.216 239.72 128.512L239.08 128.784C238.912 128.456 238.672 127.984 238.456 127.672L239.088 127.416ZM240.032 127.056C240.24 127.352 240.536 127.864 240.68 128.144L240.04 128.416C239.88 128.08 239.616 127.616 239.4 127.312L240.032 127.056ZM235.792 128.432C235.744 128.208 235.688 128.016 235.624 127.824L236.76 127.648C236.776 127.8 236.808 128.072 236.84 128.264C236.92 128.792 237.712 132.84 237.88 133.656C237.936 133.888 238.008 134.176 238.08 134.44L236.928 134.64C236.888 134.344 236.872 134.072 236.816 133.832C236.696 133.112 235.92 129.08 235.792 128.432ZM233.608 129.456C233.856 129.44 234.096 129.424 234.352 129.392C235.032 129.312 237.832 128.88 238.552 128.736C238.8 128.688 239.104 128.624 239.296 128.568L239.496 129.616C239.32 129.632 238.992 129.68 238.752 129.712C237.904 129.848 235.152 130.288 234.552 130.392C234.304 130.44 234.096 130.488 233.824 130.552L233.608 129.456ZM233.616 131.8C233.824 131.792 234.192 131.752 234.44 131.712C235.296 131.592 238.216 131.12 239.136 130.944C239.448 130.88 239.744 130.816 239.96 130.752L240.168 131.808C239.952 131.824 239.624 131.888 239.328 131.936C238.312 132.088 235.432 132.56 234.64 132.712C234.296 132.768 234.024 132.824 233.84 132.872L233.616 131.8ZM244.2 128.92C244.224 129.112 244.28 129.32 244.328 129.528C244.6 130.488 245.352 133.24 245.552 133.904C245.592 134.048 245.704 134.4 245.76 134.56L244.68 134.832C244.648 134.616 244.6 134.352 244.536 134.128C244.336 133.432 243.608 130.576 243.352 129.744C243.296 129.544 243.208 129.344 243.12 129.176L244.2 128.92ZM248.04 130.16C247.696 130.856 246.896 132.064 246.336 132.656L245.448 132.216C245.864 131.848 246.416 131.176 246.632 130.784C246.216 130.856 242.96 131.536 242.304 131.68L242.056 130.728C242.304 130.704 242.528 130.68 242.792 130.632C243.224 130.568 246.424 129.96 246.992 129.832C247.128 129.8 247.288 129.752 247.392 129.704L248.04 130.16ZM250.784 127.864C251 127.896 251.344 127.912 251.616 127.912C252.12 127.912 254.224 127.912 254.688 127.912C254.944 127.912 255.336 127.896 255.552 127.864V128.904C255.344 128.888 254.968 128.872 254.672 128.872C254.232 128.872 252.088 128.872 251.616 128.872C251.352 128.872 251.016 128.88 250.784 128.904V127.864ZM256.232 130.192C256.176 130.296 256.104 130.44 256.08 130.52C255.832 131.296 255.488 132.08 254.896 132.736C254.088 133.64 253.064 134.176 252.04 134.472L251.24 133.568C252.448 133.312 253.4 132.792 254.016 132.16C254.44 131.728 254.696 131.224 254.832 130.784C254.432 130.784 251.688 130.784 250.976 130.784C250.776 130.784 250.376 130.792 250.04 130.816V129.776C250.384 129.808 250.72 129.832 250.976 129.832C251.52 129.832 254.384 129.832 254.928 129.832C255.192 129.832 255.408 129.8 255.52 129.744L256.232 130.192ZM263.416 127.792C263.4 128.016 263.392 128.272 263.392 128.6C263.392 129.008 263.392 129.784 263.392 130.176C263.392 131.904 263.056 132.64 262.456 133.296C261.928 133.88 261.104 134.264 260.52 134.456L259.68 133.568C260.48 133.384 261.12 133.08 261.608 132.56C262.152 131.96 262.264 131.36 262.264 130.112C262.264 129.712 262.264 128.944 262.264 128.6C262.264 128.272 262.24 128.016 262.208 127.792H263.416ZM259.712 127.864C259.696 128.048 259.68 128.224 259.68 128.472C259.68 128.824 259.68 130.728 259.68 131.176C259.68 131.376 259.696 131.688 259.712 131.872H258.544C258.56 131.728 258.584 131.416 258.584 131.168C258.584 130.712 258.584 128.824 258.584 128.472C258.584 128.328 258.576 128.048 258.552 127.864H259.712ZM265.728 130.296C266.024 130.32 266.6 130.352 267.016 130.352C267.96 130.352 270.6 130.352 271.312 130.352C271.688 130.352 272.04 130.312 272.256 130.296V131.56C272.064 131.552 271.656 131.512 271.32 131.512C270.592 131.512 267.96 131.512 267.016 131.512C266.568 131.512 266.032 131.536 265.728 131.56V130.296Z" fill="#954D2B"/>
<path d="M204.75 45C204.44 45 203.157 45 203.157 45V45.9293C203.157 45.9293 204.042 45.9293 204.971 45.9293C206.697 45.9293 207.14 46.7698 207.14 46.7698C207.14 46.7698 207.14 46.7698 207.449 46.5486C206.918 45.177 205.06 45 204.75 45Z" fill="black"/>
<path d="M201.157 52.167L201 52.958H202.08L201.923 52.167H201.157Z" fill="black"/>
<path d="M204.559 47.2514V46.4747C204.559 46.3169 204.431 46.189 204.272 46.189H203.739C203.58 46.189 203.453 46.3169 203.453 46.4747V47.2666C202.782 47.5033 202.302 48.1425 202.302 48.8937V54.3363C202.302 54.7027 202.599 54.9998 202.966 54.9998H205.09C205.456 54.9998 205.753 54.7027 205.753 54.3363V48.8937C205.753 48.1258 205.252 47.4754 204.559 47.2514ZM204.946 52.9423H203.109V50.6978H204.946V52.9423Z" fill="black"/>
<path d="M201.745 48.9246C201.745 48.169 202.132 47.4763 202.746 47.0743L202.748 47.0729L202.748 47.0731C202.751 47.0701 202.875 46.9924 203.071 46.9258V46.5C202.747 46.5873 202.542 46.7204 202.522 46.7329C202.522 46.7331 202.522 46.7331 202.522 46.7331C202.522 46.7333 202.52 46.7345 202.52 46.7347L202.52 46.7349C201.794 47.2115 201.337 48.0299 201.337 48.9246V52.027H201.745V48.9246ZM202.751 47.0709L202.749 47.0727L202.749 47.0725L202.751 47.0709Z" fill="black"/>
</svg>
