<svg width="346" height="135" viewBox="0 0 346 135" fill="none" xmlns="http://www.w3.org/2000/svg">
<path d="M10.5416 49.7124L6.52409 53.7299L171.745 94.9095M10.5416 49.7124L1 46.6993L8.53285 33.1401L11.0438 31.8162M10.5416 49.7124L21.5898 44.0175M59.254 24.6029L36.1533 18.5766L28.1182 22.8133M59.254 24.6029L104.451 1L167.978 17.3128M59.254 24.6029L47.7036 30.5567M171.745 94.9095L206.145 104.451L204.207 108.469M171.745 94.9095L156.478 125.041M11.0438 31.8162L20.5854 34.6467M11.0438 31.8162L14.0569 30.2274M20.5854 34.6467L23.5985 33.0515M20.5854 34.6467L18.0745 36.1533L21.5898 37.1577M37.6599 25.6073L28.1182 22.8133M37.6599 25.6073L33.6423 27.7342M37.6599 25.6073L40.1708 26.5204L37.4594 28.0726M28.1182 22.8133L24.1007 24.9316M24.1007 24.9316L33.6423 27.7342M24.1007 24.9316L21.0876 26.5204M33.6423 27.7342L30.0712 29.6248M21.0876 26.5204L30.0712 29.6248M21.0876 26.5204L17.0701 28.6387M30.0712 29.6248L26.6117 31.4563M17.0701 28.6387L26.6117 31.4563M17.0701 28.6387L14.0569 30.2274M26.6117 31.4563L23.5985 33.0515M14.0569 30.2274L23.5985 33.0515M21.5898 37.1577L30.0712 39.6456M21.5898 37.1577L25.1051 35.1452M30.0712 39.6456L33.6423 37.8048M30.0712 39.6456L21.5898 44.0175M33.6423 37.8048L25.1051 35.1452M33.6423 37.8048L36.8463 36.1533M25.1051 35.1452L28.1182 33.4202M28.1182 33.4202L36.8463 36.1533M28.1182 33.4202L31.5488 31.4563M36.8463 36.1533L40.1708 34.4396M31.5488 31.4563L40.1708 34.4396M31.5488 31.4563L34.748 29.6248M40.1708 34.4396L43.6861 32.6276M34.748 29.6248L43.6861 32.6276M34.748 29.6248L37.4594 28.0726M43.6861 32.6276L47.7036 30.5567M37.4594 28.0726L47.7036 30.5567M21.5898 44.0175L85.3679 60.4241M231.505 33.6256L167.978 17.3128M231.505 33.6256L206.584 46.6993M231.505 33.6256L260.632 41.1049M85.3679 60.4241L149.146 76.8307L155.847 73.3153M85.3679 60.4241L167.978 17.3128M155.847 73.3153L175.26 78.3372L190.326 69.8L172.749 64.4487M155.847 73.3153L172.749 64.4487M172.749 64.4487L189.321 55.755M189.321 55.755L201.876 59.7562M189.321 55.755L192.585 54.0426M201.876 59.7562L205.642 57.8192M201.876 59.7562L200.369 60.7606L202.88 61.765L206.145 59.9123M219.453 50.7168L206.584 46.6993M219.453 50.7168L215.547 52.7255M219.453 50.7168L221.461 51.219L219.453 52.3591M206.584 46.6993L202.88 48.642M202.88 48.642L215.547 52.7255M202.88 48.642L199.365 50.4861M215.547 52.7255L212.617 54.2321M199.365 50.4861L212.617 54.2321M199.365 50.4861L195.85 52.3302M212.617 54.2321L209.409 55.8822M195.85 52.3302L209.409 55.8822M195.85 52.3302L192.585 54.0426M209.409 55.8822L205.642 57.8192M192.585 54.0426L205.642 57.8192M203.382 61.765L214.933 65.2803M214.933 65.2803L218.95 63.155M214.933 65.2803L200.369 73.3153L248.58 85.6571M260.632 41.1049L345 62.7693L332.445 88.0608M260.632 41.1049L232.509 55.9821M219.453 52.3591L232.509 55.9821M219.453 52.3591L216.152 54.2321M232.509 55.9821L229.037 57.8192M216.152 54.2321L229.037 57.8192M216.152 54.2321L213.069 55.9821M229.037 57.8192L225.981 59.4357M213.069 55.9821L225.981 59.4357M213.069 55.9821L209.409 58.0596M225.981 59.4357L221.963 61.561M209.409 58.0596L221.963 61.561M209.409 58.0596L206.145 59.9123M221.963 61.561L218.95 63.155M206.145 59.9123L218.95 63.155M332.445 88.0608L263.143 89.3854L248.58 85.6571M332.445 88.0608L325.805 101.438M192.585 132.574H310.349L325.805 101.438M192.585 132.574H152.661L156.478 125.041M192.585 132.574L195.85 125.803M156.478 125.041L195.85 125.803M195.85 125.803L204.207 108.469M204.207 108.469L231.505 94.435M248.58 85.6571L231.505 94.435M231.505 94.435L251.09 101.438H325.805" stroke="#6FBA2D"/>
<path d="M180.12 100.457C179.72 100.53 179.397 100.704 179.121 100.995C178.45 101.703 178.483 102.828 179.194 103.497C179.642 103.921 180.273 104.077 180.883 103.919C181.068 103.871 181.361 103.72 181.524 103.589C182.079 103.145 182.314 102.403 182.117 101.718C181.955 101.158 181.535 100.717 180.992 100.532C180.713 100.437 180.386 100.409 180.12 100.457Z" fill="#3B82F6"/>
<path d="M177.853 104.365C177.562 104.385 177.307 104.457 177.033 104.593C176.318 104.95 175.85 105.648 175.777 106.464C175.763 106.607 175.76 107.541 175.763 109.486L175.768 112.303L175.805 112.414C175.875 112.618 176.013 112.776 176.195 112.86C176.265 112.894 176.308 112.899 176.466 112.899C176.638 112.899 176.662 112.896 176.755 112.85C176.948 112.754 177.089 112.569 177.142 112.342C177.159 112.273 177.164 111.655 177.164 109.534V106.814H177.586H178.006V114.06C178.006 120.369 178.01 121.322 178.032 121.426C178.127 121.882 178.537 122.216 179.004 122.218C179.138 122.218 179.344 122.165 179.475 122.095C179.628 122.014 179.807 121.83 179.885 121.673C180.004 121.428 179.998 121.76 179.998 117.081V112.856H180.415H180.832V117.089C180.833 121.753 180.825 121.431 180.942 121.666C181.055 121.894 181.249 122.065 181.509 122.163C181.608 122.201 181.649 122.208 181.827 122.208C182.006 122.208 182.047 122.201 182.146 122.163C182.406 122.065 182.6 121.894 182.711 121.67C182.832 121.425 182.823 122.075 182.823 114.06V106.814H183.24H183.657V109.517C183.657 111.386 183.662 112.252 183.676 112.322C183.72 112.562 183.856 112.751 184.062 112.851C184.183 112.913 184.2 112.916 184.345 112.914C184.46 112.914 184.522 112.904 184.59 112.879C184.832 112.782 184.993 112.562 185.036 112.268C185.058 112.106 185.058 106.772 185.036 106.508C184.944 105.47 184.226 104.632 183.24 104.411C183.131 104.387 183.004 104.375 182.798 104.37C182.278 104.358 178.02 104.353 177.853 104.365Z" fill="#3B82F6"/>
<path d="M170.662 63.8535C170.132 63.8535 169.702 64.2829 169.702 64.813C169.702 65.343 170.132 65.7724 170.662 65.7724C171.192 65.7724 171.621 65.343 171.621 64.813C171.621 64.2829 171.192 63.8535 170.662 63.8535Z" fill="black"/>
<path d="M174.758 63.8535C174.228 63.8535 173.798 64.2829 173.798 64.813C173.798 65.343 174.228 65.7724 174.758 65.7724C175.287 65.7724 175.717 65.343 175.717 64.813C175.717 64.2829 175.287 63.8535 174.758 63.8535Z" fill="black"/>
<path d="M178.854 63.8535C178.324 63.8535 177.895 64.2829 177.895 64.813C177.895 65.343 178.324 65.7724 178.854 65.7724C179.384 65.7724 179.814 65.343 179.814 64.813C179.814 64.2829 179.384 63.8535 178.854 63.8535Z" fill="black"/>
<path d="M181.041 59.2852H168.474C167.509 59.2852 166.723 60.071 166.723 61.0365V74.4913C166.723 75.4572 167.509 76.243 168.474 76.243H181.041C182.007 76.243 182.793 75.4572 182.793 74.4913V61.0365C182.793 60.071 182.007 59.2852 181.041 59.2852ZM170.491 75.1377L170.662 71.2915L170.832 75.1377H170.491ZM174.587 75.1377L174.758 71.2915L174.929 75.1377H174.587ZM178.683 75.1377L178.854 71.2915L179.025 75.1377H178.683ZM181.687 74.4913C181.687 74.8478 181.398 75.1377 181.041 75.1377H179.908L179.939 70.6471C180.01 70.7506 180.126 70.8204 180.26 70.814C180.466 70.8041 180.625 70.6293 180.615 70.4231L180.774 67.229C180.774 65.9727 179.501 65.9109 178.854 65.9109C178.207 65.9109 176.934 65.9727 176.934 67.229L177.041 70.4231C177.032 70.6293 177.19 70.8041 177.396 70.814C177.576 70.8226 177.726 70.699 177.769 70.5311L177.801 75.1376H175.812L175.843 70.6471C175.913 70.7505 176.029 70.8203 176.164 70.814C176.37 70.8041 176.529 70.6292 176.519 70.4231L176.678 67.229C176.678 65.9727 175.405 65.9108 174.758 65.9108C174.11 65.9108 172.837 65.9727 172.837 67.229L172.944 70.4231C172.935 70.6292 173.094 70.8041 173.3 70.814C173.48 70.8226 173.63 70.6987 173.673 70.5301L173.704 75.1376H171.715L171.746 70.647C171.817 70.7505 171.933 70.8203 172.068 70.8139C172.274 70.804 172.432 70.6292 172.423 70.4231L172.582 67.229C172.582 65.9726 171.309 65.9108 170.661 65.9108C170.014 65.9108 168.742 65.9726 168.742 67.229L168.848 70.4231C168.838 70.6292 168.998 70.804 169.204 70.8139C169.384 70.8225 169.534 70.6986 169.576 70.5301L169.608 75.1376H168.474C168.118 75.1376 167.828 74.8477 167.828 74.4912V61.0365C167.828 60.6804 168.118 60.3905 168.474 60.3905H181.041C181.398 60.3905 181.687 60.6804 181.687 61.0365V74.4913H181.687Z" fill="black"/>
<path d="M176.013 56.4076L177.326 55.0945V58.0469C177.326 58.3161 177.545 58.5343 177.814 58.5343C178.083 58.5343 178.302 58.3161 178.302 58.0469V55.0945L179.615 56.4076C179.711 56.5029 179.835 56.5507 179.96 56.5507C180.084 56.5507 180.21 56.5029 180.305 56.4076C180.495 56.2171 180.495 55.9085 180.305 55.7183L178.159 53.5722L177.814 53.2275L177.469 53.5722L175.324 55.7183C175.133 55.9084 175.133 56.2171 175.324 56.4076C175.514 56.5981 175.823 56.5981 176.013 56.4076Z" fill="black"/>
<path d="M171.357 58.3902C171.357 58.3906 171.357 58.3906 171.357 58.3906L171.702 58.7352L172.047 58.3906C172.047 58.3906 172.047 58.3906 172.047 58.3902L174.192 56.2445C174.383 56.054 174.383 55.745 174.192 55.5548C174.002 55.3644 173.693 55.3644 173.503 55.5548L172.19 56.8682V53.9159C172.19 53.6464 171.971 53.4282 171.702 53.4282C171.433 53.4282 171.214 53.6464 171.214 53.9159V56.8682L169.901 55.5548C169.711 55.3644 169.402 55.3644 169.211 55.5548C169.021 55.745 169.021 56.054 169.211 56.2445L171.357 58.3902Z" fill="black"/>
<rect x="31.5" y="32.9766" width="19" height="13" fill="white" stroke="#2C893A"/>
<path d="M37.4368 42.4766H36.2288V39.1726C36.2288 39.0819 36.2288 38.9699 36.2288 38.8366C36.2341 38.7032 36.2395 38.5646 36.2448 38.4206C36.2501 38.2766 36.2555 38.1486 36.2608 38.0366C36.2341 38.0686 36.1755 38.1272 36.0848 38.2126C35.9995 38.2926 35.9195 38.3646 35.8448 38.4286L35.1888 38.9566L34.6048 38.2286L36.4448 36.7646H37.4368V42.4766ZM41.1109 38.8286C41.4576 38.8286 41.7669 38.8952 42.0389 39.0286C42.3109 39.1619 42.5243 39.3566 42.6789 39.6126C42.8389 39.8686 42.9189 40.1859 42.9189 40.5646C42.9189 40.9752 42.8336 41.3299 42.6629 41.6286C42.4923 41.9272 42.2363 42.1566 41.8949 42.3166C41.5589 42.4766 41.1403 42.5566 40.6389 42.5566C40.3403 42.5566 40.0576 42.5299 39.7909 42.4766C39.5296 42.4232 39.3003 42.3459 39.1029 42.2446V41.2046C39.3003 41.3059 39.5376 41.3939 39.8149 41.4686C40.0923 41.5379 40.3536 41.5726 40.5989 41.5726C40.8389 41.5726 41.0389 41.5406 41.1989 41.4766C41.3643 41.4126 41.4896 41.3139 41.5749 41.1806C41.6603 41.0472 41.7029 40.8766 41.7029 40.6686C41.7029 40.3859 41.6096 40.1726 41.4229 40.0286C41.2363 39.8792 40.9483 39.8046 40.5589 39.8046C40.4096 39.8046 40.2549 39.8206 40.0949 39.8526C39.9349 39.8792 39.8016 39.9059 39.6949 39.9326L39.2149 39.6766L39.4309 36.7646H42.5269V37.7886H40.4869L40.3829 38.9086C40.4736 38.8926 40.5696 38.8766 40.6709 38.8606C40.7776 38.8392 40.9243 38.8286 41.1109 38.8286ZM46.5931 42.4766H45.3851V39.1726C45.3851 39.0819 45.3851 38.9699 45.3851 38.8366C45.3904 38.7032 45.3957 38.5646 45.4011 38.4206C45.4064 38.2766 45.4117 38.1486 45.4171 38.0366C45.3904 38.0686 45.3317 38.1272 45.2411 38.2126C45.1557 38.2926 45.0757 38.3646 45.0011 38.4286L44.3451 38.9566L43.7611 38.2286L45.6011 36.7646H46.5931V42.4766Z" fill="#259333"/>
<rect x="101.5" y="51.9766" width="19" height="13" fill="white" stroke="#2C893A"/>
<path d="M107.437 61.4766H106.229V58.1726C106.229 58.0819 106.229 57.9699 106.229 57.8366C106.234 57.7032 106.239 57.5646 106.245 57.4206C106.25 57.2766 106.255 57.1486 106.261 57.0366C106.234 57.0686 106.175 57.1272 106.085 57.2126C105.999 57.2926 105.919 57.3646 105.845 57.4286L105.189 57.9566L104.605 57.2286L106.445 55.7646H107.437V61.4766ZM111.111 57.8286C111.458 57.8286 111.767 57.8952 112.039 58.0286C112.311 58.1619 112.524 58.3566 112.679 58.6126C112.839 58.8686 112.919 59.1859 112.919 59.5646C112.919 59.9752 112.834 60.3299 112.663 60.6286C112.492 60.9272 112.236 61.1566 111.895 61.3166C111.559 61.4766 111.14 61.5566 110.639 61.5566C110.34 61.5566 110.058 61.5299 109.791 61.4766C109.53 61.4232 109.3 61.3459 109.103 61.2446V60.2046C109.3 60.3059 109.538 60.3939 109.815 60.4686C110.092 60.5379 110.354 60.5726 110.599 60.5726C110.839 60.5726 111.039 60.5406 111.199 60.4766C111.364 60.4126 111.49 60.3139 111.575 60.1806C111.66 60.0472 111.703 59.8766 111.703 59.6686C111.703 59.3859 111.61 59.1726 111.423 59.0286C111.236 58.8792 110.948 58.8046 110.559 58.8046C110.41 58.8046 110.255 58.8206 110.095 58.8526C109.935 58.8792 109.802 58.9059 109.695 58.9326L109.215 58.6766L109.431 55.7646H112.527V56.7886H110.487L110.383 57.9086C110.474 57.8926 110.57 57.8766 110.671 57.8606C110.778 57.8392 110.924 57.8286 111.111 57.8286ZM117.601 61.4766H113.609V60.6366L115.041 59.1886C115.329 58.8899 115.561 58.6419 115.737 58.4446C115.913 58.2419 116.041 58.0606 116.121 57.9006C116.201 57.7352 116.241 57.5592 116.241 57.3726C116.241 57.1432 116.177 56.9726 116.049 56.8606C115.926 56.7486 115.758 56.6926 115.545 56.6926C115.326 56.6926 115.113 56.7432 114.905 56.8446C114.697 56.9459 114.478 57.0899 114.249 57.2766L113.593 56.5006C113.758 56.3566 113.932 56.2232 114.113 56.1006C114.3 55.9779 114.513 55.8792 114.753 55.8046C114.998 55.7246 115.292 55.6846 115.633 55.6846C116.006 55.6846 116.326 55.7539 116.593 55.8926C116.865 56.0259 117.073 56.2099 117.217 56.4446C117.366 56.6739 117.441 56.9352 117.441 57.2286C117.441 57.4686 117.404 57.6899 117.329 57.8926C117.26 58.0952 117.156 58.2926 117.017 58.4846C116.884 58.6712 116.718 58.8659 116.521 59.0686C116.324 59.2659 116.1 59.4819 115.849 59.7166L115.113 60.4046V60.4606H117.601V61.4766Z" fill="#259333"/>
<rect x="225.5" y="54.9766" width="19" height="13" fill="white" stroke="#2C893A"/>
<path d="M231.437 64.4766H230.229V61.1726C230.229 61.0819 230.229 60.9699 230.229 60.8366C230.234 60.7032 230.239 60.5646 230.245 60.4206C230.25 60.2766 230.255 60.1486 230.261 60.0366C230.234 60.0686 230.175 60.1272 230.085 60.2126C229.999 60.2926 229.919 60.3646 229.845 60.4286L229.189 60.9566L228.605 60.2286L230.445 58.7646H231.437V64.4766ZM235.111 60.8286C235.458 60.8286 235.767 60.8952 236.039 61.0286C236.311 61.1619 236.524 61.3566 236.679 61.6126C236.839 61.8686 236.919 62.1859 236.919 62.5646C236.919 62.9752 236.834 63.3299 236.663 63.6286C236.492 63.9272 236.236 64.1566 235.895 64.3166C235.559 64.4766 235.14 64.5566 234.639 64.5566C234.34 64.5566 234.058 64.5299 233.791 64.4766C233.53 64.4232 233.3 64.3459 233.103 64.2446V63.2046C233.3 63.3059 233.538 63.3939 233.815 63.4686C234.092 63.5379 234.354 63.5726 234.599 63.5726C234.839 63.5726 235.039 63.5406 235.199 63.4766C235.364 63.4126 235.49 63.3139 235.575 63.1806C235.66 63.0472 235.703 62.8766 235.703 62.6686C235.703 62.3859 235.61 62.1726 235.423 62.0286C235.236 61.8792 234.948 61.8046 234.559 61.8046C234.41 61.8046 234.255 61.8206 234.095 61.8526C233.935 61.8792 233.802 61.9059 233.695 61.9326L233.215 61.6766L233.431 58.7646H236.527V59.7886H234.487L234.383 60.9086C234.474 60.8926 234.57 60.8766 234.671 60.8606C234.778 60.8392 234.924 60.8286 235.111 60.8286ZM241.377 60.0446C241.377 60.3059 241.321 60.5326 241.209 60.7246C241.102 60.9166 240.956 61.0739 240.769 61.1966C240.588 61.3192 240.38 61.4099 240.145 61.4686V61.4926C240.604 61.5459 240.95 61.6846 241.185 61.9086C241.425 62.1326 241.545 62.4339 241.545 62.8126C241.545 63.1432 241.462 63.4419 241.297 63.7086C241.137 63.9699 240.886 64.1779 240.545 64.3326C240.209 64.4819 239.774 64.5566 239.241 64.5566C238.926 64.5566 238.633 64.5299 238.361 64.4766C238.089 64.4232 237.833 64.3459 237.593 64.2446V63.2206C237.838 63.3432 238.094 63.4366 238.361 63.5006C238.633 63.5646 238.884 63.5966 239.113 63.5966C239.545 63.5966 239.846 63.5219 240.017 63.3726C240.193 63.2232 240.281 63.0126 240.281 62.7406C240.281 62.5806 240.241 62.4472 240.161 62.3406C240.081 62.2286 239.94 62.1459 239.737 62.0926C239.54 62.0339 239.262 62.0046 238.905 62.0046H238.473V61.0766H238.913C239.265 61.0766 239.532 61.0446 239.713 60.9806C239.9 60.9112 240.025 60.8206 240.089 60.7086C240.158 60.5912 240.193 60.4579 240.193 60.3086C240.193 60.1059 240.129 59.9486 240.001 59.8366C239.878 59.7192 239.67 59.6606 239.377 59.6606C239.196 59.6606 239.03 59.6846 238.881 59.7326C238.732 59.7752 238.596 59.8286 238.473 59.8926C238.356 59.9566 238.252 60.0179 238.161 60.0766L237.601 59.2446C237.75 59.1379 237.916 59.0419 238.097 58.9566C238.284 58.8712 238.489 58.8046 238.713 58.7566C238.937 58.7086 239.188 58.6846 239.465 58.6846C240.052 58.6846 240.516 58.8046 240.857 59.0446C241.204 59.2792 241.377 59.6126 241.377 60.0446Z" fill="#259333"/>
<rect x="202.5" y="110.977" width="19" height="13" fill="white" stroke="#2C893A"/>
<path d="M208.437 120.477H207.229V117.173C207.229 117.082 207.229 116.97 207.229 116.837C207.234 116.703 207.239 116.565 207.245 116.421C207.25 116.277 207.255 116.149 207.261 116.037C207.234 116.069 207.175 116.127 207.085 116.213C206.999 116.293 206.919 116.365 206.845 116.429L206.189 116.957L205.605 116.229L207.445 114.765H208.437V120.477ZM212.111 116.829C212.458 116.829 212.767 116.895 213.039 117.029C213.311 117.162 213.524 117.357 213.679 117.613C213.839 117.869 213.919 118.186 213.919 118.565C213.919 118.975 213.834 119.33 213.663 119.629C213.492 119.927 213.236 120.157 212.895 120.317C212.559 120.477 212.14 120.557 211.639 120.557C211.34 120.557 211.058 120.53 210.791 120.477C210.53 120.423 210.3 120.346 210.103 120.245V119.205C210.3 119.306 210.538 119.394 210.815 119.469C211.092 119.538 211.354 119.573 211.599 119.573C211.839 119.573 212.039 119.541 212.199 119.477C212.364 119.413 212.49 119.314 212.575 119.181C212.66 119.047 212.703 118.877 212.703 118.669C212.703 118.386 212.61 118.173 212.423 118.029C212.236 117.879 211.948 117.805 211.559 117.805C211.41 117.805 211.255 117.821 211.095 117.853C210.935 117.879 210.802 117.906 210.695 117.933L210.215 117.677L210.431 114.765H213.527V115.789H211.487L211.383 116.909C211.474 116.893 211.57 116.877 211.671 116.861C211.778 116.839 211.924 116.829 212.111 116.829ZM218.729 119.293H218.041V120.477H216.865V119.293H214.425V118.453L216.929 114.765H218.041V118.357H218.729V119.293ZM216.865 117.389C216.865 117.298 216.865 117.191 216.865 117.069C216.87 116.941 216.876 116.815 216.881 116.693C216.886 116.565 216.892 116.453 216.897 116.357C216.902 116.255 216.908 116.186 216.913 116.149H216.881C216.833 116.255 216.782 116.359 216.729 116.461C216.676 116.562 216.612 116.666 216.537 116.773L215.489 118.357H216.865V117.389Z" fill="#259333"/>
<path d="M157.75 61C157.44 61 156.157 61 156.157 61V61.9293C156.157 61.9293 157.042 61.9293 157.971 61.9293C159.697 61.9293 160.14 62.7698 160.14 62.7698C160.14 62.7698 160.14 62.7698 160.449 62.5486C159.918 61.177 158.06 61 157.75 61Z" fill="black"/>
<path d="M154.157 68.167L154 68.958H155.08L154.923 68.167H154.157Z" fill="black"/>
<path d="M157.559 63.2514V62.4747C157.559 62.3169 157.431 62.189 157.272 62.189H156.739C156.58 62.189 156.453 62.3169 156.453 62.4747V63.2666C155.782 63.5033 155.302 64.1425 155.302 64.8937V70.3363C155.302 70.7027 155.599 70.9998 155.966 70.9998H158.09C158.456 70.9998 158.753 70.7027 158.753 70.3363V64.8937C158.753 64.1258 158.252 63.4754 157.559 63.2514ZM157.946 68.9423H156.109V66.6978H157.946V68.9423Z" fill="black"/>
<path d="M154.745 64.9246C154.745 64.169 155.132 63.4763 155.746 63.0743L155.748 63.0729L155.748 63.0731C155.751 63.0701 155.875 62.9924 156.071 62.9258V62.5C155.747 62.5873 155.542 62.7204 155.522 62.7329C155.522 62.7331 155.522 62.7331 155.522 62.7331C155.522 62.7333 155.52 62.7345 155.52 62.7347L155.52 62.7349C154.794 63.2115 154.337 64.0299 154.337 64.9246V68.027H154.745V64.9246ZM155.751 63.0709L155.749 63.0727L155.749 63.0725L155.751 63.0709Z" fill="black"/>
<path d="M14.3301 64.5336C14.3301 65.2824 14.9401 65.889 15.6854 65.889C16.4344 65.889 17.0408 65.2824 17.0408 64.5336C17.0408 63.7882 16.4345 63.1782 15.6854 63.1782C14.9401 63.1782 14.3301 63.7882 14.3301 64.5336Z" fill="black"/>
<path d="M15.0001 78.4602L14.5024 78.4575L14.5034 78.4602H14.4961L15.1195 79.9952H16.9899L16.3021 78.4602H15.0001Z" fill="black"/>
<path d="M10.0586 60H10.0068H10V79.9272V79.9881V79.995H12.3571L14.0818 80L14.0765 79.995H14.0864L12.3177 78.3381V70.1584H14.5031L15.6823 69.0949L16.0254 68.788L17.0309 70.9547L15.1498 75.5726L14.4388 77.3112H14.4416L14.4388 77.318H16.2448L17.6871 74.1098L18.8289 71.5833L19.7924 75.6409H24.6108C24.8886 75.6409 25.0547 75.336 24.9021 75.1055L24.3059 74.2042C24.2923 74.1873 24.2787 74.1738 24.2652 74.1567C24.2008 74.089 24.1126 74.0483 24.0178 74.0483H21.2123L20.504 70.3312L19.5457 68.2613L19.1518 67.4037H20.6327L21.6052 69.2402C21.6662 69.3554 21.7847 69.4164 21.9 69.4164C21.9611 69.4164 22.022 69.3994 22.0762 69.3656L22.7504 68.9488C22.8995 68.8539 22.9505 68.6575 22.8623 68.5049L21.429 65.9636H17.8103C16.9902 65.9636 16.2109 66.3058 15.6586 66.909L14.1168 68.5862H12.3178V61.8772H24.6274H24.6583V73.6484C24.8243 73.7027 24.97 73.8112 25.0683 73.9603L25.6646 74.8582C25.8239 75.102 25.8408 75.4104 25.702 75.6679C25.563 75.9255 25.2986 76.0848 25.0073 76.0848H24.6583V78.3381L26.4304 79.995H26.9792V60H10.0586Z" fill="black"/>
<path d="M176.75 85C176.44 85 175.157 85 175.157 85V85.9293C175.157 85.9293 176.042 85.9293 176.971 85.9293C178.697 85.9293 179.14 86.7698 179.14 86.7698C179.14 86.7698 179.14 86.7698 179.449 86.5486C178.918 85.177 177.06 85 176.75 85Z" fill="black"/>
<path d="M173.157 92.167L173 92.958H174.08L173.923 92.167H173.157Z" fill="black"/>
<path d="M176.559 87.2514V86.4747C176.559 86.3169 176.431 86.189 176.272 86.189H175.739C175.58 86.189 175.453 86.3169 175.453 86.4747V87.2666C174.782 87.5033 174.302 88.1425 174.302 88.8937V94.3363C174.302 94.7027 174.599 94.9998 174.966 94.9998H177.09C177.456 94.9998 177.753 94.7027 177.753 94.3363V88.8937C177.753 88.1258 177.252 87.4754 176.559 87.2514ZM176.946 92.9423H175.109V90.6978H176.946V92.9423Z" fill="black"/>
<path d="M173.745 88.9246C173.745 88.169 174.132 87.4763 174.746 87.0743L174.748 87.0729L174.748 87.0731C174.751 87.0701 174.875 86.9924 175.071 86.9258V86.5C174.747 86.5873 174.542 86.7204 174.522 86.7329C174.522 86.7331 174.522 86.7331 174.522 86.7331C174.522 86.7333 174.52 86.7345 174.52 86.7347L174.52 86.7349C173.794 87.2115 173.337 88.0299 173.337 88.9246V92.027H173.745V88.9246ZM174.751 87.0709L174.749 87.0727L174.749 87.0725L174.751 87.0709Z" fill="black"/>
</svg>
