<?xml version="1.0" encoding="UTF-8"?>
<svg id="_トレース" data-name="トレース" xmlns="http://www.w3.org/2000/svg" viewBox="0 0 595 842">
  <defs>
    <style>
      .cls-1, .cls-2, .cls-3, .cls-4, .cls-5, .cls-6, .cls-7 {
        stroke-miterlimit: 10;
      }

      .cls-1, .cls-2, .cls-4, .cls-5 {
        fill: none;
      }

      .cls-1, .cls-7 {
        stroke: #e2b953;
      }

      .cls-2 {
        stroke-width: 3px;
      }

      .cls-2, .cls-3, .cls-4, .cls-5, .cls-6 {
        stroke: #965045;
      }

      .cls-3 {
        font-size: 19.46px;
        letter-spacing: .2em;
      }

      .cls-3, .cls-6 {
        fill: #965045;
        font-family: BIZ-UDGothic, 'BIZ UDGothic';
      }

      .cls-4 {
        stroke-width: 2px;
      }

      .cls-6 {
        font-size: 20.2px;
        letter-spacing: .3em;
      }

      .cls-7 {
        fill: #fff;
      }
    </style>
  </defs>
  <g>
    <g>
      <polyline class="cls-2" points="351.6 549.53 337.65 549.53 337.65 589.37 331.17 589.37 331.17 615.26 412.48 615.26 412.48 549.53 389.62 549.53"/>
      <polyline class="cls-2" points="412.88 588.76 586.41 588.76 586.41 487.03 412.88 487.03 412.88 325.64 176.46 325.64 176.46 226.74 62.39 226.74 8.59 264.97 8.59 591.39 339.47 589.57"/>
    </g>
    <g>
      <line class="cls-4" x1="412.48" y1="488.04" x2="412.48" y2="548.31"/>
      <polyline class="cls-4" points="337.24 548.52 337.24 362.25 159.47 362.25"/>
      <line class="cls-4" x1="166.34" y1="265.98" x2="176.46" y2="265.98"/>
      <line class="cls-4" x1="141.87" y1="265.98" x2="9.2" y2="265.98"/>
      <line class="cls-4" x1="97.17" y1="266.79" x2="97.17" y2="363.46"/>
      <line class="cls-4" x1="123.26" y1="363.06" x2="9.2" y2="363.06"/>
      <line class="cls-4" x1="196.68" y1="362.85" x2="196.68" y2="589.57"/>
      <line class="cls-4" x1="197.49" y1="363.46" x2="336.63" y2="588.36"/>
      <line class="cls-4" x1="337.51" y1="385.03" x2="369.33" y2="385.03"/>
      <line class="cls-4" x1="175.31" y1="326.11" x2="170.19" y2="326.11"/>
    </g>
    <g>
      <line class="cls-5" x1="337.78" y1="391.37" x2="369.33" y2="391.37"/>
      <line class="cls-5" x1="337.78" y1="397.44" x2="369.6" y2="397.44"/>
      <line class="cls-5" x1="337.92" y1="404.04" x2="369.47" y2="404.04"/>
      <line class="cls-5" x1="337.92" y1="410.25" x2="369.6" y2="410.25"/>
      <line class="cls-5" x1="337.92" y1="416.45" x2="369.47" y2="416.45"/>
      <line class="cls-5" x1="337.92" y1="423.06" x2="369.47" y2="423.06"/>
      <line class="cls-5" x1="338.05" y1="429.26" x2="369.47" y2="429.26"/>
      <line class="cls-5" x1="337.92" y1="435.19" x2="369.47" y2="435.19"/>
      <line class="cls-5" x1="337.92" y1="441.26" x2="369.33" y2="441.26"/>
      <line class="cls-5" x1="338.05" y1="448" x2="369.33" y2="448"/>
      <line class="cls-5" x1="337.92" y1="454.34" x2="369.47" y2="454.34"/>
      <line class="cls-5" x1="337.78" y1="460.13" x2="369.33" y2="460.13"/>
      <line class="cls-5" x1="338.05" y1="466.47" x2="369.74" y2="466.47"/>
      <line class="cls-5" x1="337.78" y1="472.67" x2="369.6" y2="472.67"/>
      <rect class="cls-5" x="369.47" y="384.49" width="3.78" height="94.79"/>
    </g>
    <g>
      <polygon class="cls-2" points="372.79 639.65 356.61 656.1 390.04 656.1 372.79 639.65"/>
      <line class="cls-2" x1="372.79" y1="710.84" x2="372.79" y2="640.19"/>
    </g>
  </g>
  <g>
    <rect class="cls-7" x="421.86" y="519.04" width="153.29" height="37.08"/>
    <text class="cls-3" transform="translate(432.33 544.97)"><tspan x="0" y="0">STAFF ONLY</tspan></text>
  </g>
  <g>
    <text class="cls-6" transform="translate(79.32 556.59)"><tspan x="0" y="0">311</tspan></text>
    <rect class="cls-1" x="67.7" y="530.96" width="65.66" height="35.91" rx="16" ry="16"/>
  </g>
  <g>
    <path d="M355.23,356.56c-.5.07-.92.16-1.26.27-1.69.55-3.06,1.9-3.61,3.56-.17.5-.22.86-.25,1.49-.04,1,.12,1.73.56,2.61.44.88.46.9,4.44,4.77,2.01,1.95,3.67,3.54,3.74,3.57.16.07.33.07.5,0,.17-.07,1.99-1.86,2.06-2.02.07-.18.07-.34-.02-.52-.09-.18-.2-.26-.4-.32-.3-.08-.41-.01-1.16.72-.38.37-.7.66-.72.66-.02,0-1.53-1.46-3.37-3.24-2.26-2.19-3.41-3.33-3.57-3.54-.29-.39-.55-.92-.68-1.4-.13-.46-.17-1.25-.1-1.72.15-.97.7-1.95,1.41-2.56,1.65-1.4,3.95-1.49,5.71-.21.51.37.68.37,1.18,0,1.36-.99,3.04-1.18,4.55-.52,1.36.59,2.34,1.83,2.57,3.28.07.46.03,1.25-.09,1.71-.13.48-.4,1.02-.69,1.41-.13.17-.72.78-1.32,1.36-.8.78-1.09,1.09-1.13,1.19-.1.3.04.63.33.76.2.09.31.09.5,0,.22-.1,2.23-2.07,2.58-2.52.34-.45.75-1.25.89-1.75.18-.61.23-1.07.2-1.75-.05-1.44-.58-2.64-1.6-3.66-.84-.84-1.87-1.38-3.05-1.6-.53-.1-1.58-.1-2.08,0-.71.14-1.43.42-1.97.75l-.29.18-.28-.18c-.54-.34-1.27-.62-1.96-.75-.32-.06-1.38-.11-1.63-.07Z"/>
    <path d="M358.85,360.37c-.06.03-.16.09-.2.15-.04.05-.48.98-.96,2.06-.95,2.13-.96,2.18-.8,2.46.04.07.14.17.21.22.13.07.22.08,1.42.1l1.29.02-.66,1.49c-.42.94-.66,1.54-.66,1.62,0,.54.65.84,1.04.47.11-.1.31-.53,1.01-2.09.96-2.15.97-2.18.79-2.47-.17-.28-.19-.28-1.62-.3l-1.29-.02.67-1.49c.61-1.38.66-1.51.65-1.68-.03-.32-.25-.54-.57-.57-.11,0-.24,0-.31.04Z"/>
  </g>
  <g>
    <path d="M347.11,349.86c-.19.02-1.06.07-1.94.1-1.16.05-1.66.09-1.82.15-.3.11-.73.55-.96.97-.09.18-.31.46-.49.64l-.32.32h-.61c-.69,0-.87.06-1.01.32-.18.35-.01.82.35.94.1.04.44.06.74.06h.55s.22.23.22.23c.31.32.57.44,1.02.44.41,0,.67-.1.94-.36.16-.15.17-.15.46-.09.83.16,2.3.76,3.72,1.49.45.23.82.42.83.42,0,0,0-.24-.02-.55-.02-.4-.04-.57-.11-.64-.12-.14-1.23-.86-2.25-1.46l-.84-.49h-.7q-.7,0-.76-.13c-.04-.09-.04-.15-.01-.19.11-.11,3.04-1.15,3.9-1.38l.22-.06-.14-.25c-.2-.35-.39-.54-.52-.53-.06,0-.27.02-.46.04ZM343,352.2c.34.12.44.55.2.83-.11.12-.17.15-.38.15s-.27-.03-.38-.15c-.23-.27-.13-.7.19-.83.18-.07.17-.07.36,0Z"/>
    <path d="M338.89,352.15c-2.1.31-3.25,2-3.01,4.41.07.73.22,1.46.64,3.14.44,1.75.54,2.33.57,3.3.02.63,0,.95-.06,1.32-.05.28-.08.51-.07.51.01,0,.15.05.31.11s.38.14.49.2c.12.06.21.1.22.09.06-.06.19-.75.24-1.29.12-1.13-.03-2.26-.61-4.58-.47-1.9-.57-2.4-.6-3.14-.05-1.06.12-1.69.6-2.21.14-.15.35-.32.47-.39.28-.16.89-.35,1.15-.35.2,0,.21-.01.16-.12-.05-.15-.05-.77,0-.93.05-.13.02-.14-.53-.06Z"/>
    <path d="M341.58,354.8v.63l-.46.22c-.86.43-1.59,1.33-1.8,2.25-.05.23-.08.62-.08,1.2v.87h7.18v-.87c0-.96-.06-1.29-.32-1.82-.31-.64-.86-1.17-1.58-1.53l-.44-.22v-.56c0-.31-.02-.62-.03-.69-.03-.11-.04-.11-.12-.04-.16.14-.57.3-.89.33-.4.04-.85-.05-1.15-.24-.14-.09-.26-.16-.27-.16-.02,0-.03.28-.03.63Z"/>
    <path d="M339.24,363.5v3.01h7.18v-6.01h-7.18v3.01ZM345.09,363.53v1.44h-4.52v-2.87h4.52v1.44Z"/>
    <path d="M336.17,365.4c-.07.03-.51.74-1.13,1.87l-1.02,1.81.15.16c.19.19,1.16.67,1.82.89.28.09.67.18.86.2.34.02.36.02.41-.1.03-.07.28-.96.54-1.98.34-1.28.47-1.89.45-1.99-.13-.52-1.56-1.11-2.08-.86ZM335.52,368.82c.55.12,1.09.41,1.28.71.12.19.12.28,0,.28-.32,0-2.15-.76-2.12-.87.02-.05.32-.18.44-.19.03,0,.21.03.4.07Z"/>
    <path d="M339.24,369.72c0,3.03,0,2.98.4,3.44.14.15.37.33.54.41l.3.15h4.68l.3-.15c.18-.09.4-.26.54-.41.41-.46.4-.4.4-3.44v-2.68h-7.18v2.68Z"/>
  </g>
</svg>