<?xml version="1.0" encoding="UTF-8"?>
<svg id="_レイヤー_1" data-name="レイヤー 1" xmlns="http://www.w3.org/2000/svg" viewBox="0 0 589.38 416.39">
  <defs>
    <style>
      .cls-1 {
        stroke: #e2b953;
      }

      .cls-1, .cls-2, .cls-3, .cls-4, .cls-5, .cls-6 {
        stroke-miterlimit: 10;
      }

      .cls-1, .cls-3, .cls-5, .cls-6 {
        fill: none;
      }

      .cls-2, .cls-3, .cls-4, .cls-5, .cls-6 {
        stroke: #965045;
      }

      .cls-2, .cls-4 {
        fill: #965045;
        font-family: BIZ-UDGothic, 'BIZ UDGothic';
        font-size: 23.06px;
      }

      .cls-3 {
        stroke-width: 3px;
      }

      .cls-4 {
        letter-spacing: .3em;
      }

      .cls-7 {
        letter-spacing: .3em;
      }

      .cls-5 {
        stroke-width: 2px;
      }

      .cls-8 {
        letter-spacing: .3em;
      }
    </style>
  </defs>
  <polygon class="cls-3" points="1.5 1.5 1.5 414.89 523.24 414.89 523.24 222.82 587.88 222.82 587.88 1.81 1.5 1.5"/>
  <g>
    <line class="cls-5" x1="2.42" y1="57.21" x2="164.03" y2="57.21"/>
    <line class="cls-5" x1="135.71" y1="2.73" x2="135.71" y2="56.6"/>
    <line class="cls-5" x1="211.12" y1="56.91" x2="410.58" y2="56.91"/>
    <line class="cls-5" x1="259.76" y1="57.83" x2="259.76" y2="300.39"/>
    <line class="cls-5" x1="259.76" y1="374.26" x2="259.76" y2="414.59"/>
    <polyline class="cls-5" points="457.68 57.52 522.94 57.52 522.94 222.82"/>
  </g>
  <g>
    <line class="cls-6" x1="523.09" y1="207.66" x2="587.27" y2="207.66"/>
    <line class="cls-6" x1="523.09" y1="197.73" x2="586.58" y2="197.73"/>
    <line class="cls-6" x1="523.09" y1="188.5" x2="586.81" y2="188.5"/>
    <line class="cls-6" x1="523.32" y1="176.95" x2="587.27" y2="176.95"/>
    <line class="cls-6" x1="523.32" y1="167.72" x2="587.27" y2="167.72"/>
    <line class="cls-6" x1="523.32" y1="159.18" x2="587.04" y2="159.18"/>
    <line class="cls-6" x1="523.09" y1="149.48" x2="587.73" y2="149.48"/>
    <line class="cls-6" x1="523.32" y1="140.02" x2="586.81" y2="140.02"/>
    <line class="cls-6" x1="523.55" y1="130.09" x2="586.11" y2="130.09"/>
    <line class="cls-6" x1="522.63" y1="119.93" x2="587.27" y2="119.93"/>
    <line class="cls-6" x1="523.32" y1="110.24" x2="587.96" y2="110.24"/>
    <line class="cls-6" x1="523.55" y1="100.54" x2="587.73" y2="100.54"/>
    <line class="cls-6" x1="523.32" y1="90.61" x2="587.27" y2="90.61"/>
    <line class="cls-6" x1="523.32" y1="79.76" x2="587.27" y2="79.76"/>
    <line class="cls-6" x1="523.32" y1="69.6" x2="587.96" y2="69.6"/>
    <line class="cls-6" x1="96.61" y1="58.14" x2="96.61" y2="412.12"/>
  </g>
  <g>
    <path d="M258.95,28.09c-.2.02-1.11.07-2.02.11-1.21.05-1.73.09-1.9.15-.31.11-.76.57-1,1.01-.09.18-.33.48-.51.67l-.34.33h-.63c-.71,0-.91.06-1.05.33-.19.36-.01.85.36.98.11.04.45.07.77.07h.58s.23.24.23.24c.33.34.59.45,1.06.45.43,0,.69-.1.98-.37.17-.15.18-.16.48-.09.86.17,2.39.79,3.87,1.55.47.24.86.44.86.44,0,0,0-.25-.02-.57-.02-.42-.04-.59-.12-.67-.12-.14-1.28-.9-2.33-1.52l-.87-.51h-.72q-.72,0-.79-.14c-.04-.09-.04-.16-.01-.19.12-.12,3.16-1.19,4.05-1.44l.23-.06-.14-.26c-.2-.36-.41-.56-.54-.55-.07,0-.28.02-.48.04ZM254.68,30.53c.35.12.46.58.21.86-.11.13-.18.15-.39.15s-.28-.03-.39-.15c-.24-.28-.14-.73.2-.86.18-.07.18-.07.38,0Z"/>
    <path d="M250.4,30.48c-2.18.32-3.38,2.07-3.12,4.58.07.76.23,1.52.66,3.26.45,1.81.56,2.42.59,3.43.02.65,0,.98-.06,1.38-.05.29-.08.53-.08.53.01,0,.15.06.32.11s.4.14.51.2c.12.06.22.1.23.09.06-.06.2-.78.25-1.34.12-1.18-.03-2.34-.64-4.76-.49-1.97-.59-2.49-.62-3.27-.05-1.11.13-1.75.62-2.3.15-.15.36-.34.49-.41.29-.17.92-.36,1.2-.36.2,0,.22-.01.17-.13-.06-.15-.05-.8,0-.97.05-.14.02-.14-.55-.06Z"/>
    <path d="M253.2,33.23v.66l-.48.23c-.9.45-1.65,1.38-1.87,2.33-.06.24-.08.65-.08,1.25v.9h7.47v-.9c0-1-.06-1.34-.33-1.89-.33-.66-.89-1.21-1.64-1.59l-.46-.23v-.59c0-.32-.02-.64-.03-.71-.03-.12-.04-.12-.13-.04-.17.15-.6.31-.93.34-.42.04-.88-.06-1.2-.25-.14-.09-.27-.17-.28-.17-.02,0-.03.29-.03.65Z"/>
    <path d="M250.76,42.28v3.12h7.47v-6.25h-7.47v3.12ZM256.85,42.31v1.49h-4.7v-2.99h4.7v1.49Z"/>
    <path d="M247.58,44.25c-.07.03-.53.77-1.18,1.94l-1.06,1.88.15.17c.19.2,1.21.7,1.9.93.29.09.69.19.9.2.35.02.38.02.43-.11.03-.07.29-1,.56-2.06.35-1.33.49-1.96.46-2.07-.13-.54-1.63-1.15-2.16-.89ZM246.9,47.8c.58.12,1.13.43,1.33.74.13.19.13.29,0,.29-.34,0-2.24-.79-2.2-.91.02-.06.33-.19.45-.19.03,0,.22.03.42.07Z"/>
    <path d="M250.76,48.74c0,3.15,0,3.1.42,3.57.14.16.38.34.56.43l.32.15h4.87l.32-.15c.18-.09.42-.27.56-.43.43-.48.42-.42.42-3.57v-2.78h-7.47v2.78Z"/>
  </g>
  <g>
    <text class="cls-2" transform="translate(324.49 304.16)"><tspan class="cls-7"><tspan x="0" y="0">Dinosaur</tspan></tspan><tspan class="cls-8"><tspan x="18.44" y="27.67">Square</tspan></tspan></text>
    <rect class="cls-1" x="303.04" y="274.06" width="183.54" height="70.36" rx="16" ry="16"/>
  </g>
  <g>
    <text class="cls-4" transform="translate(133.91 310.84)"><tspan x="0" y="0">展示室</tspan></text>
    <rect class="cls-1" x="116.89" y="281.59" width="117.05" height="40.99" rx="16" ry="16"/>
  </g>
</svg>