<svg width="282" height="157" viewBox="0 0 282 157" fill="none" xmlns="http://www.w3.org/2000/svg">
<path d="M228.557 82.1726H254.094L256.286 75.5603M228.557 82.1726L203.476 156.505L102.238 155.821M228.557 82.1726L230.661 75.5603M102.238 155.821L1 155.137L44.336 21.9772M102.238 155.821L146.472 21.9772M146.472 21.9772H44.336M146.472 21.9772H247.71L243.357 35.658M44.336 21.9772L51.1629 1H281L269.512 35.658M243.357 35.658H269.512M243.357 35.658L241.181 42.4984M269.512 35.658L267.245 42.4984M241.181 42.4984H267.245M241.181 42.4984L239.149 48.8827M267.245 42.4984L265.129 48.8827M239.149 48.8827H265.129M239.149 48.8827L237.118 55.2671M265.129 48.8827L263.013 55.2671M237.118 55.2671H263.013M237.118 55.2671L235.086 61.6515M263.013 55.2671L260.896 61.6515M235.086 61.6515H260.896M235.086 61.6515L232.765 68.9479M260.896 61.6515L258.478 68.9479M232.765 68.9479H258.478M232.765 68.9479L230.661 75.5603M258.478 68.9479L256.286 75.5603M230.661 75.5603H256.286" stroke="#965045"/>
</svg>
