<svg width="346" height="116" viewBox="0 0 346 116" fill="none" xmlns="http://www.w3.org/2000/svg">
<path d="M212.417 14.4375L220.479 1H70.875L62.622 14.4375M212.417 14.4375H279.156L263.479 39.5208M212.417 14.4375H169.865M263.479 39.5208H281.396M263.479 39.5208L257.938 48.9271M301.104 62.8125L305.915 53.8542M301.104 62.8125H296.849M301.104 62.8125H305.915M9.52805 100.885L1 114.771H78.0417M9.52805 100.885L62.622 14.4375M9.52805 100.885H87M118.139 100.885H226.75L236.765 84.3125M118.139 100.885L169.865 14.4375M118.139 100.885H87M169.865 14.4375H62.622M78.0417 114.771L87 100.885M78.0417 114.771H272.885M236.765 84.3125H270.646L283.187 62.8125M236.765 84.3125L249.758 62.8125M283.187 62.8125H282.292M283.187 62.8125H285.875M249.758 62.8125H267.958M249.758 62.8125L255.563 52.9583M267.958 62.8125L272.885 53.8542H276.917M267.958 62.8125H271.542M305.915 53.8542H300.208M305.915 53.8542L306.81 52.2865M271.542 62.8125L276.917 53.8542M271.542 62.8125H275.125M276.917 53.8542H280.052M275.125 62.8125L280.052 53.8542M275.125 62.8125H279.156M280.052 53.8542H283.187M279.156 62.8125L283.187 53.8542M279.156 62.8125H282.292M283.187 53.8542H286.771M282.292 62.8125L286.771 53.8542M286.771 53.8542H287.667M285.875 62.8125L290.354 53.8542M285.875 62.8125H289.01M290.354 53.8542H293.937M290.354 53.8542H287.667M289.01 62.8125L293.937 53.8542M289.01 62.8125H292.594M293.937 53.8542H297.073M292.594 62.8125L297.073 53.8542M292.594 62.8125H296.849M297.073 53.8542H300.208M296.849 62.8125L300.208 53.8542M273.781 53.4063L274.095 52.9583M276.917 48.9271V47.8073M276.917 48.9271H257.938M276.917 48.9271L275.349 51.1667M281.396 39.5208L276.917 46.6875V47.8073M281.396 39.5208H285.203M276.917 47.8073H280.5M290.802 47.8073H287.667M290.802 47.8073L291.238 47.1354M290.802 47.8073L290.221 48.9271M296.177 39.5208H314.094L309.749 47.1354M296.177 39.5208H292.594M296.177 39.5208L291.238 47.1354M287.667 47.8073L292.594 39.5208M287.667 47.8073H284.083M292.594 39.5208H289.01M284.083 47.8073L289.01 39.5208M284.083 47.8073H280.5M289.01 39.5208H285.203M280.5 47.8073L285.203 39.5208M287.667 53.8542L288.48 52.2865M291.238 47.1354H309.749M309.749 47.1354L308.727 48.9271M290.221 48.9271H308.727M290.221 48.9271L289.292 50.7188M308.727 48.9271L307.704 50.7188M289.292 50.7188H307.704M289.292 50.7188L288.48 52.2865M307.704 50.7188L306.81 52.2865M288.48 52.2865H306.81M257.938 48.9271L256.619 51.1667M256.619 51.1667H275.349M256.619 51.1667L255.563 52.9583M275.349 51.1667L274.095 52.9583M255.563 52.9583H274.095M305.915 62.8125H345L314.094 114.771H272.885M305.915 62.8125L272.885 114.771" stroke="#F3858E"/>
<path d="M255.794 70.4985C255.321 70.4985 254.938 70.8815 254.938 71.3543C254.938 71.8271 255.321 72.2101 255.794 72.2101C256.267 72.2101 256.65 71.8271 256.65 71.3543C256.65 70.8815 256.267 70.4985 255.794 70.4985Z" fill="black"/>
<path d="M259.448 70.4985C258.975 70.4985 258.592 70.8815 258.592 71.3543C258.592 71.8271 258.975 72.2101 259.448 72.2101C259.92 72.2101 260.304 71.8271 260.304 71.3543C260.304 70.8815 259.92 70.4985 259.448 70.4985Z" fill="black"/>
<path d="M263.102 70.4985C262.629 70.4985 262.246 70.8815 262.246 71.3543C262.246 71.8271 262.629 72.2101 263.102 72.2101C263.575 72.2101 263.958 71.8271 263.958 71.3543C263.958 70.8815 263.575 70.4985 263.102 70.4985Z" fill="black"/>
<path d="M265.053 66.4238H253.844C252.982 66.4238 252.281 67.1247 252.281 67.9859V79.9866C252.281 80.8481 252.982 81.549 253.844 81.549H265.053C265.914 81.549 266.615 80.8481 266.615 79.9866V67.9859C266.615 67.1247 265.914 66.4238 265.053 66.4238ZM255.642 80.5631L255.794 77.1326L255.947 80.5631H255.642ZM259.295 80.5631L259.448 77.1326L259.601 80.5631H259.295ZM262.949 80.5631L263.102 77.1326L263.254 80.5631H262.949ZM265.629 79.9866C265.629 80.3046 265.37 80.5631 265.053 80.5631H264.041L264.069 76.5579C264.132 76.6502 264.236 76.7124 264.356 76.7067C264.539 76.6979 264.681 76.5419 264.672 76.3581L264.814 73.5092C264.814 72.3886 263.679 72.3335 263.102 72.3335C262.524 72.3335 261.389 72.3886 261.389 73.5092L261.485 76.3581C261.476 76.5419 261.617 76.6979 261.801 76.7067C261.962 76.7144 262.095 76.6041 262.134 76.4544L262.162 80.5631H260.388L260.416 76.5578C260.479 76.6501 260.582 76.7124 260.702 76.7067C260.886 76.6979 261.028 76.5419 261.019 76.3581L261.161 73.5092C261.161 72.3886 260.025 72.3335 259.448 72.3335C258.871 72.3335 257.735 72.3886 257.735 73.5092L257.831 76.3581C257.822 76.5419 257.964 76.6979 258.148 76.7067C258.308 76.7144 258.442 76.6039 258.48 76.4535L258.508 80.5631H256.734L256.762 76.5578C256.825 76.6501 256.928 76.7123 257.048 76.7067C257.232 76.6978 257.374 76.5419 257.365 76.358L257.507 73.5091C257.507 72.3886 256.372 72.3334 255.794 72.3334C255.217 72.3334 254.082 72.3886 254.082 73.5091L254.177 76.358C254.168 76.5419 254.31 76.6978 254.494 76.7067C254.655 76.7143 254.789 76.6038 254.827 76.4535L254.855 80.563H253.844C253.526 80.563 253.267 80.3045 253.267 79.9865V67.9859C253.267 67.6683 253.526 67.4097 253.844 67.4097H265.053C265.37 67.4097 265.629 67.6683 265.629 67.9859V79.9866H265.629Z" fill="black"/>
<path d="M260.568 63.8574L261.739 62.6862V65.3195C261.739 65.5596 261.934 65.7542 262.174 65.7542C262.414 65.7542 262.609 65.5596 262.609 65.3195V62.6862L263.78 63.8574C263.866 63.9424 263.977 63.985 264.088 63.985C264.199 63.985 264.311 63.9424 264.395 63.8574C264.566 63.6875 264.566 63.4122 264.395 63.2426L262.482 61.3285L262.174 61.021L261.866 61.3285L259.953 63.2426C259.783 63.4122 259.783 63.6875 259.953 63.8574C260.122 64.0273 260.398 64.0273 260.568 63.8574Z" fill="black"/>
<path d="M256.414 65.626C256.414 65.6262 256.414 65.6262 256.414 65.6262L256.722 65.9337L257.03 65.6262C257.03 65.6262 257.03 65.6262 257.03 65.626L258.943 63.7121C259.113 63.5422 259.113 63.2666 258.943 63.097C258.774 62.9271 258.498 62.9271 258.328 63.097L257.157 64.2684V61.6352C257.157 61.3948 256.962 61.2002 256.722 61.2002C256.482 61.2002 256.287 61.3948 256.287 61.6352V64.2684L255.116 63.097C254.946 62.9271 254.67 62.9271 254.5 63.097C254.331 63.2666 254.331 63.5422 254.5 63.7121L256.414 65.626Z" fill="black"/>
<rect x="71.5" y="51.5" width="19" height="13" fill="white" stroke="#34B9F0"/>
<path d="M78.4448 61H74.4528V60.16L75.8848 58.712C76.1728 58.4133 76.4048 58.1653 76.5808 57.968C76.7568 57.7653 76.8848 57.584 76.9648 57.424C77.0448 57.2587 77.0848 57.0827 77.0848 56.896C77.0848 56.6667 77.0208 56.496 76.8928 56.384C76.7701 56.272 76.6021 56.216 76.3888 56.216C76.1701 56.216 75.9568 56.2667 75.7488 56.368C75.5408 56.4693 75.3221 56.6133 75.0928 56.8L74.4368 56.024C74.6021 55.88 74.7755 55.7467 74.9568 55.624C75.1435 55.5013 75.3568 55.4027 75.5968 55.328C75.8421 55.248 76.1355 55.208 76.4768 55.208C76.8501 55.208 77.1701 55.2773 77.4368 55.416C77.7088 55.5493 77.9168 55.7333 78.0608 55.968C78.2101 56.1973 78.2848 56.4587 78.2848 56.752C78.2848 56.992 78.2475 57.2133 78.1728 57.416C78.1035 57.6187 77.9995 57.816 77.8608 58.008C77.7275 58.1947 77.5621 58.3893 77.3648 58.592C77.1675 58.7893 76.9435 59.0053 76.6928 59.24L75.9568 59.928V59.984H78.4448V61ZM83.0229 61H79.0309V60.16L80.4629 58.712C80.7509 58.4133 80.9829 58.1653 81.1589 57.968C81.3349 57.7653 81.4629 57.584 81.5429 57.424C81.6229 57.2587 81.6629 57.0827 81.6629 56.896C81.6629 56.6667 81.5989 56.496 81.4709 56.384C81.3483 56.272 81.1803 56.216 80.9669 56.216C80.7483 56.216 80.5349 56.2667 80.3269 56.368C80.1189 56.4693 79.9003 56.6133 79.6709 56.8L79.0149 56.024C79.1803 55.88 79.3536 55.7467 79.5349 55.624C79.7216 55.5013 79.9349 55.4027 80.1749 55.328C80.4203 55.248 80.7136 55.208 81.0549 55.208C81.4283 55.208 81.7483 55.2773 82.0149 55.416C82.2869 55.5493 82.4949 55.7333 82.6389 55.968C82.7883 56.1973 82.8629 56.4587 82.8629 56.752C82.8629 56.992 82.8256 57.2133 82.7509 57.416C82.6816 57.6187 82.5776 57.816 82.4389 58.008C82.3056 58.1947 82.1403 58.3893 81.9429 58.592C81.7456 58.7893 81.5216 59.0053 81.2709 59.24L80.5349 59.928V59.984H83.0229V61ZM86.5931 61H85.3851V57.696C85.3851 57.6053 85.3851 57.4933 85.3851 57.36C85.3904 57.2267 85.3957 57.088 85.4011 56.944C85.4064 56.8 85.4117 56.672 85.4171 56.56C85.3904 56.592 85.3317 56.6507 85.2411 56.736C85.1557 56.816 85.0757 56.888 85.0011 56.952L84.3451 57.48L83.7611 56.752L85.6011 55.288H86.5931V61Z" fill="#F3858E"/>
<rect x="188.5" y="51.5" width="19" height="13" fill="white" stroke="#34B9F0"/>
<path d="M195.445 61H191.453V60.16L192.885 58.712C193.173 58.4133 193.405 58.1653 193.581 57.968C193.757 57.7653 193.885 57.584 193.965 57.424C194.045 57.2587 194.085 57.0827 194.085 56.896C194.085 56.6667 194.021 56.496 193.893 56.384C193.77 56.272 193.602 56.216 193.389 56.216C193.17 56.216 192.957 56.2667 192.749 56.368C192.541 56.4693 192.322 56.6133 192.093 56.8L191.437 56.024C191.602 55.88 191.775 55.7467 191.957 55.624C192.143 55.5013 192.357 55.4027 192.597 55.328C192.842 55.248 193.135 55.208 193.477 55.208C193.85 55.208 194.17 55.2773 194.437 55.416C194.709 55.5493 194.917 55.7333 195.061 55.968C195.21 56.1973 195.285 56.4587 195.285 56.752C195.285 56.992 195.247 57.2133 195.173 57.416C195.103 57.6187 194.999 57.816 194.861 58.008C194.727 58.1947 194.562 58.3893 194.365 58.592C194.167 58.7893 193.943 59.0053 193.693 59.24L192.957 59.928V59.984H195.445V61ZM200.023 61H196.031V60.16L197.463 58.712C197.751 58.4133 197.983 58.1653 198.159 57.968C198.335 57.7653 198.463 57.584 198.543 57.424C198.623 57.2587 198.663 57.0827 198.663 56.896C198.663 56.6667 198.599 56.496 198.471 56.384C198.348 56.272 198.18 56.216 197.967 56.216C197.748 56.216 197.535 56.2667 197.327 56.368C197.119 56.4693 196.9 56.6133 196.671 56.8L196.015 56.024C196.18 55.88 196.354 55.7467 196.535 55.624C196.722 55.5013 196.935 55.4027 197.175 55.328C197.42 55.248 197.714 55.208 198.055 55.208C198.428 55.208 198.748 55.2773 199.015 55.416C199.287 55.5493 199.495 55.7333 199.639 55.968C199.788 56.1973 199.863 56.4587 199.863 56.752C199.863 56.992 199.826 57.2133 199.751 57.416C199.682 57.6187 199.578 57.816 199.439 58.008C199.306 58.1947 199.14 58.3893 198.943 58.592C198.746 58.7893 198.522 59.0053 198.271 59.24L197.535 59.928V59.984H200.023V61ZM204.601 61H200.609V60.16L202.041 58.712C202.329 58.4133 202.561 58.1653 202.737 57.968C202.913 57.7653 203.041 57.584 203.121 57.424C203.201 57.2587 203.241 57.0827 203.241 56.896C203.241 56.6667 203.177 56.496 203.049 56.384C202.926 56.272 202.758 56.216 202.545 56.216C202.326 56.216 202.113 56.2667 201.905 56.368C201.697 56.4693 201.478 56.6133 201.249 56.8L200.593 56.024C200.758 55.88 200.932 55.7467 201.113 55.624C201.3 55.5013 201.513 55.4027 201.753 55.328C201.998 55.248 202.292 55.208 202.633 55.208C203.006 55.208 203.326 55.2773 203.593 55.416C203.865 55.5493 204.073 55.7333 204.217 55.968C204.366 56.1973 204.441 56.4587 204.441 56.752C204.441 56.992 204.404 57.2133 204.329 57.416C204.26 57.6187 204.156 57.816 204.017 58.008C203.884 58.1947 203.718 58.3893 203.521 58.592C203.324 58.7893 203.1 59.0053 202.849 59.24L202.113 59.928V59.984H204.601V61Z" fill="#F3858E"/>
</svg>
