<?xml version="1.0" encoding="UTF-8"?>
<svg id="_トレース" data-name="トレース" xmlns="http://www.w3.org/2000/svg" viewBox="0 0 595 842">
  <defs>
    <style>
      .cls-1 {
        stroke: #34b9f0;
      }

      .cls-1, .cls-2, .cls-3, .cls-4, .cls-5 {
        stroke-miterlimit: 10;
      }

      .cls-1, .cls-2, .cls-4, .cls-5 {
        fill: none;
      }

      .cls-6 {
        fill: #ef4444;
      }

      .cls-2, .cls-3, .cls-4, .cls-5 {
        stroke: #f3858e;
      }

      .cls-3 {
        fill: #f3858e;
        font-family: BIZ-UDGothic, 'BIZ UDGothic';
        font-size: 20.2px;
        letter-spacing: .3em;
      }

      .cls-4 {
        stroke-width: 3px;
      }

      .cls-5 {
        stroke-width: 2px;
      }
    </style>
  </defs>
  <g>
    <g>
      <line class="cls-2" x1="129.65" y1="411.17" x2="129.65" y2="445.52"/>
      <line class="cls-2" x1="137" y1="409.73" x2="137" y2="445.68"/>
      <line class="cls-2" x1="143.87" y1="410.37" x2="143.87" y2="446"/>
      <line class="cls-2" x1="151.22" y1="410.21" x2="151.22" y2="446.16"/>
      <line class="cls-2" x1="153.3" y1="448.4" x2="191.81" y2="448.4"/>
      <line class="cls-2" x1="153.62" y1="454.31" x2="191.49" y2="454.31"/>
      <line class="cls-2" x1="153.46" y1="460.22" x2="191.65" y2="460.22"/>
      <line class="cls-2" x1="148.19" y1="461.34" x2="148.19" y2="491.7"/>
      <line class="cls-2" x1="140.68" y1="461.34" x2="140.68" y2="491.54"/>
      <line class="cls-2" x1="133.49" y1="461.18" x2="133.49" y2="490.9"/>
      <line class="cls-2" x1="126.14" y1="461.34" x2="126.14" y2="490.74"/>
      <line class="cls-2" x1="124.22" y1="457.99" x2="91.62" y2="457.99"/>
      <line class="cls-2" x1="91.3" y1="452.24" x2="125.34" y2="452.24"/>
      <line class="cls-2" x1="91.62" y1="446.48" x2="125.02" y2="446.48"/>
    </g>
    <g>
      <polyline class="cls-4" points="190.87 557.14 190.87 409.31 15.81 409.31 15.81 251.89 578.99 251.17 578.99 590.83 314.17 590.83 314.17 554.7 190.87 554.7"/>
      <line class="cls-4" x1="90.51" y1="410.03" x2="90.51" y2="492.76"/>
      <line class="cls-4" x1="91.22" y1="491.9" x2="190.3" y2="491.9"/>
    </g>
    <g>
      <line class="cls-5" x1="124.63" y1="445.3" x2="124.63" y2="462.08"/>
      <line class="cls-5" x1="123.23" y1="460.25" x2="154.09" y2="460.25"/>
      <line class="cls-5" x1="152.7" y1="461.75" x2="152.7" y2="445.62"/>
      <line class="cls-5" x1="123.77" y1="446.05" x2="153.66" y2="446.05"/>
      <polyline class="cls-5" points="129.69 408.1 129.69 334.44 191.19 334.44"/>
      <polyline class="cls-5" points="191.62 408.1 191.62 294.97 209.58 294.97"/>
      <line class="cls-5" x1="314.75" y1="554.45" x2="579.06" y2="554.45"/>
      <line class="cls-5" x1="90.62" y1="254.07" x2="90.62" y2="359.46"/>
      <line class="cls-5" x1="90.62" y1="389.43" x2="90.62" y2="408.76"/>
      <line class="cls-5" x1="234.2" y1="294.2" x2="578.38" y2="294.2"/>
      <line class="cls-5" x1="385.57" y1="295.27" x2="385.57" y2="554.41"/>
      <line class="cls-5" x1="386.38" y1="460.3" x2="579.19" y2="460.3"/>
      <line class="cls-5" x1="527.42" y1="409.06" x2="527.42" y2="459.49"/>
      <line class="cls-5" x1="526.34" y1="407.99" x2="578.92" y2="407.99"/>
    </g>
  </g>
  <g>
    <text class="cls-3" transform="translate(435.98 444.67)"><tspan x="0" y="0">251</tspan></text>
    <rect class="cls-1" x="424.36" y="419.05" width="65.66" height="35.91" rx="16" ry="16"/>
  </g>
  <g>
    <text class="cls-3" transform="translate(243.04 535.68)"><tspan x="0" y="0">252</tspan></text>
    <rect class="cls-1" x="231.42" y="510.06" width="65.66" height="35.91" rx="16" ry="16"/>
  </g>
  <g>
    <text class="cls-3" transform="translate(446.32 530.83)"><tspan x="0" y="0">手術室</tspan></text>
    <rect class="cls-1" x="434.1" y="505.2" width="97.15" height="35.91" rx="16" ry="16"/>
  </g>
  <g>
    <path d="M117.41,368.67c-.3.03-1.66.11-3.02.16-1.8.07-2.58.14-2.84.23-.46.17-1.14.85-1.5,1.51-.14.27-.49.72-.76,1l-.5.5h-.94c-1.07,0-1.36.09-1.56.5-.28.55-.02,1.27.54,1.46.16.06.68.1,1.15.1h.86s.34.36.34.36c.49.5.89.68,1.58.68.65,0,1.03-.15,1.46-.55.25-.23.26-.24.72-.14,1.29.26,3.58,1.18,5.79,2.32.7.36,1.28.65,1.29.65,0,0,0-.38-.02-.85-.02-.63-.07-.89-.17-1-.18-.22-1.92-1.34-3.49-2.27l-1.3-.76h-1.08q-1.08,0-1.18-.21c-.06-.13-.07-.24-.02-.29.17-.17,4.73-1.79,6.07-2.15l.34-.09-.22-.39c-.31-.54-.61-.84-.81-.83-.1,0-.41.03-.71.07ZM111.02,372.32c.52.18.69.86.31,1.29-.17.19-.26.23-.59.23s-.42-.04-.59-.23c-.36-.42-.21-1.09.3-1.29.27-.11.26-.11.56,0Z"/>
    <path d="M104.62,372.24c-3.26.48-5.06,3.1-4.68,6.86.11,1.13.35,2.28.99,4.88.68,2.71.84,3.63.89,5.13.03.98,0,1.47-.09,2.06-.07.43-.12.79-.12.79.02,0,.23.08.48.17s.6.22.77.31c.18.09.33.15.35.13.09-.09.3-1.17.38-2,.18-1.76-.05-3.51-.95-7.13-.74-2.95-.89-3.73-.94-4.89-.07-1.66.19-2.62.94-3.43.22-.23.55-.5.74-.61.44-.26,1.38-.54,1.8-.54.31,0,.32-.02.26-.19-.08-.23-.07-1.2,0-1.45.07-.21.03-.22-.82-.09Z"/>
    <path d="M108.8,376.35v.98l-.71.35c-1.34.67-2.47,2.07-2.81,3.49-.08.36-.12.97-.12,1.87v1.35h11.17v-1.35c0-1.49-.09-2-.5-2.83-.49-.99-1.33-1.81-2.46-2.38l-.69-.34v-.88c0-.48-.02-.96-.05-1.07-.05-.17-.07-.17-.19-.07-.25.22-.89.46-1.39.51-.63.07-1.32-.08-1.8-.38-.22-.14-.41-.25-.42-.25-.02,0-.04.44-.04.98Z"/>
    <path d="M105.16,389.9v4.68h11.17v-9.35h-11.17v4.68ZM114.26,389.94v2.23h-7.04v-4.47h7.04v2.23Z"/>
    <path d="M100.39,392.86c-.11.05-.79,1.16-1.76,2.91l-1.59,2.81.23.25c.29.3,1.8,1.04,2.84,1.39.43.14,1.03.28,1.34.31.53.03.56.02.64-.16.05-.11.43-1.49.84-3.08.52-1.99.74-2.94.7-3.1-.2-.8-2.43-1.72-3.24-1.33ZM99.37,398.17c.86.18,1.69.65,1.99,1.11.19.29.19.43,0,.43-.5,0-3.35-1.18-3.29-1.36.02-.08.5-.28.68-.29.05,0,.33.05.63.11Z"/>
    <path d="M105.16,399.57c0,4.72,0,4.63.63,5.35.22.24.57.51.84.65l.47.23h7.28l.47-.23c.27-.13.63-.41.84-.65.64-.71.63-.63.63-5.35v-4.16h-11.17v4.16Z"/>
  </g>
  <g>
    <path d="M569.43,367.05c-.3.03-1.66.11-3.02.16-1.8.07-2.58.14-2.84.23-.46.17-1.14.85-1.5,1.51-.14.27-.49.72-.76,1l-.5.5h-.94c-1.07,0-1.36.09-1.56.5-.28.55-.02,1.27.54,1.46.16.06.68.1,1.15.1h.86s.34.36.34.36c.49.5.89.68,1.58.68.65,0,1.03-.15,1.46-.55.25-.23.26-.24.72-.14,1.29.26,3.58,1.18,5.79,2.32.7.36,1.28.65,1.29.65,0,0,0-.38-.02-.85-.02-.63-.07-.89-.17-1-.18-.22-1.92-1.34-3.49-2.27l-1.3-.76h-1.08q-1.08,0-1.18-.21c-.06-.13-.07-.24-.02-.29.17-.17,4.73-1.79,6.07-2.15l.34-.09-.22-.39c-.31-.54-.61-.84-.81-.83-.1,0-.41.03-.71.07ZM563.04,370.7c.52.18.69.86.31,1.29-.17.19-.26.23-.59.23s-.42-.04-.59-.23c-.36-.42-.21-1.09.3-1.29.27-.11.26-.11.56,0Z"/>
    <path d="M556.64,370.62c-3.26.48-5.06,3.1-4.68,6.86.11,1.13.35,2.28.99,4.88.68,2.71.84,3.63.89,5.13.03.98,0,1.47-.09,2.06-.07.43-.12.79-.12.79.02,0,.23.08.48.17s.6.22.77.31c.18.09.33.15.35.13.09-.09.3-1.17.38-2,.18-1.76-.05-3.51-.95-7.13-.74-2.95-.89-3.73-.94-4.89-.07-1.66.19-2.62.94-3.43.22-.23.55-.5.74-.61.44-.26,1.38-.54,1.8-.54.31,0,.32-.02.26-.19-.08-.23-.07-1.2,0-1.45.07-.21.03-.22-.82-.09Z"/>
    <path d="M560.82,374.73v.98l-.71.35c-1.34.67-2.47,2.07-2.81,3.49-.08.36-.12.97-.12,1.87v1.35h11.17v-1.35c0-1.49-.09-2-.5-2.83-.49-.99-1.33-1.81-2.46-2.38l-.69-.34v-.88c0-.48-.02-.96-.05-1.07-.05-.17-.07-.17-.19-.07-.25.22-.89.46-1.39.51-.63.07-1.32-.08-1.8-.38-.22-.14-.41-.25-.42-.25-.02,0-.04.44-.04.98Z"/>
    <path d="M557.18,388.28v4.68h11.17v-9.35h-11.17v4.68ZM566.28,388.32v2.23h-7.04v-4.47h7.04v2.23Z"/>
    <path d="M552.41,391.24c-.11.05-.79,1.16-1.76,2.91l-1.59,2.81.23.25c.29.3,1.8,1.04,2.84,1.39.43.14,1.03.28,1.34.31.53.03.56.02.64-.16.05-.11.43-1.49.84-3.08.52-1.99.74-2.94.7-3.1-.2-.8-2.43-1.72-3.24-1.33ZM551.39,396.55c.86.18,1.69.65,1.99,1.11.19.29.19.43,0,.43-.5,0-3.35-1.18-3.29-1.36.02-.08.5-.28.68-.29.05,0,.33.05.63.11Z"/>
    <path d="M557.18,397.95c0,4.72,0,4.63.63,5.35.22.24.57.51.84.65l.47.23h7.28l.47-.23c.27-.13.63-.41.84-.65.64-.71.63-.63.63-5.35v-4.16h-11.17v4.16Z"/>
  </g>
  <g>
    <path d="M151.96,369.92c-1.39,0-2.51,1.12-2.51,2.51s1.12,2.51,2.51,2.51,2.51-1.12,2.51-2.51-1.13-2.51-2.51-2.51Z"/>
    <path d="M162.68,369.92c-1.39,0-2.51,1.12-2.51,2.51s1.13,2.51,2.51,2.51,2.51-1.12,2.51-2.51c0-1.39-1.13-2.51-2.51-2.51Z"/>
    <path d="M173.41,369.92c-1.39,0-2.51,1.12-2.51,2.51s1.13,2.51,2.51,2.51,2.51-1.12,2.51-2.51-1.13-2.51-2.51-2.51Z"/>
    <path d="M179.14,357.95h-32.91c-2.53,0-4.59,2.06-4.59,4.59v35.24c0,2.53,2.06,4.59,4.59,4.59h32.91c2.53,0,4.59-2.06,4.59-4.59v-35.24c0-2.53-2.06-4.59-4.59-4.59ZM151.51,399.46l.45-10.07.45,10.07h-.89ZM162.23,399.46l.45-10.07.45,10.07h-.9ZM172.96,399.46l.45-10.07.45,10.07h-.9ZM180.83,397.77c0,.93-.76,1.69-1.69,1.69h-2.97l.08-11.76c.19.27.49.45.84.44.54-.03.96-.48.93-1.02l.42-8.36c0-3.29-3.33-3.45-5.03-3.45s-5.03.16-5.03,3.45l.28,8.36c-.02.54.39,1,.93,1.02.47.02.86-.3.98-.74l.08,12.06h-5.21l.08-11.76c.19.27.49.45.84.44.54-.03.96-.48.93-1.02l.42-8.36c0-3.29-3.33-3.45-5.03-3.45s-5.03.16-5.03,3.45l.28,8.36c-.03.54.39,1,.93,1.02.47.02.86-.3.98-.74l.08,12.07h-5.21l.08-11.76c.19.27.49.45.84.44.54-.03.96-.48.93-1.02l.42-8.37c0-3.29-3.33-3.45-5.03-3.45s-5.03.16-5.03,3.45l.28,8.37c-.03.54.39,1,.93,1.02.47.02.87-.3.98-.74l.08,12.07h-2.97c-.93,0-1.69-.76-1.69-1.69v-35.24c0-.93.76-1.69,1.69-1.69h32.91c.93,0,1.69.76,1.69,1.69v35.24h0Z"/>
    <path d="M165.97,350.42l3.44-3.44v7.73c0,.7.57,1.28,1.28,1.28s1.28-.57,1.28-1.28v-7.73l3.44,3.44c.25.25.58.37.9.37s.65-.13.9-.37c.5-.5.5-1.31,0-1.81l-5.62-5.62-.9-.9-.9.9-5.62,5.62c-.5.5-.5,1.31,0,1.81.5.5,1.31.5,1.81,0Z"/>
    <path d="M153.78,355.61h0s.9.9.9.9l.9-.9s0,0,0,0l5.62-5.62c.5-.5.5-1.31,0-1.81-.5-.5-1.31-.5-1.81,0l-3.44,3.44v-7.73c0-.71-.57-1.28-1.28-1.28s-1.28.57-1.28,1.28v7.73l-3.44-3.44c-.5-.5-1.31-.5-1.81,0-.5.5-.5,1.31,0,1.81l5.62,5.62Z"/>
  </g>
  <g>
    <path d="M50.7,474.01v17.97h36.24v-35.94h-36.24v17.97ZM79.78,469.45v11.02l.55.09c.65.1,1.48.48,1.82.83.57.57,1.58,2.41,1.6,2.92.01.23,0,.25-.28.31-.16.03-1.06.05-1.99.05h-1.7v4.73l.81.84c.84.86,1.1,1.2,1.03,1.28-.09.08-4.46.16-9.21.16h-4.8s-1.28-1.22-1.28-1.22l-1.28-1.23h-3.29l1.16,1.12c1.04,1.01,1.14,1.13,1.01,1.2-.09.06-.83.1-2.04.13l-1.89.04-1.07-1.07-1.07-1.07v-15.17h4.66s.97-1.13.97-1.13c1.34-1.57,1.68-1.92,1.79-1.92.08,0,.96,1.79,1.77,3.6l.3.66-2.61,5.26c-3.15,6.37-3.52,7.16-3.36,7.26.14.09,1.13.08,1.83-.01.63-.09,1.25-.34,1.49-.6.24-.25,1.15-1.95,3.13-5.84,2.02-3.96,2.49-4.82,2.59-4.79.11.04.17.54.25,2.44.09,1.87.23,3.12.42,3.78.2.69-.14.66,5.82.66,5.31,0,5.62-.01,5.73-.3.05-.15-.38-.96-.72-1.36-.16-.18-.4-.38-.52-.44-.43-.22-1.36-.32-3.85-.4-1.37-.04-2.8-.1-3.17-.12l-.68-.04-.21-3.1-.22-3.11-.28-.63c-.16-.35-.67-1.45-1.15-2.45-.48-.99-.86-1.86-.86-1.92,0-.16.36-.19,1.67-.17l1.19.02.72,1.25c1.18,2.06,1.76,2.74,2.3,2.74.25,0,.78-.35.92-.6.23-.45-.06-1.3-1.05-3.02-1.08-1.87-1.48-2.31-2.35-2.59-.51-.16-.61-.16-4.29-.16-2.94,0-3.85.02-4.18.1-.37.09-.48.17-1.19.89-.43.44-1.32,1.45-1.98,2.23l-1.19,1.42h-1.84s-1.85,0-1.85,0v-13.57h21.92v11.03Z"/>
    <path d="M65.02,461.92c-.83.24-1.5,1.21-1.52,2.18-.01.73.7,1.91,1.39,2.28.18.1.41.13.91.13.58,0,.73-.03,1.1-.21.92-.45,1.33-1.16,1.36-2.29,0-.56-.01-.67-.19-.97-.25-.42-.87-1.01-1.22-1.16-.34-.14-1.3-.13-1.83.03Z"/>
  </g>
  <g>
    <path class="cls-6" d="M52.13,296.92c-1.18.21-2.13.97-2.59,2.05-.2.47-.28.9-.26,1.44,0,.31.04.53.08.71.27,1,.9,1.8,1.81,2.25,1.71.84,3.75.15,4.59-1.56.21-.42.3-.74.34-1.19.11-1.25-.47-2.48-1.51-3.17-.74-.49-1.64-.68-2.46-.54Z"/>
    <path class="cls-6" d="M48.52,304.5c-1.24.19-2.28.89-3.03,2.01-.35.53-.26.26-1.61,4.7-.53,1.75-1.11,3.65-1.52,5.02-.17.57-.33,1.13-.35,1.25-.13.76.27,1.47.95,1.68.53.16,1.06.02,1.43-.39.28-.31.24-.2,1.24-3.57.22-.74.54-1.81.71-2.36.16-.56.48-1.61.69-2.32l.39-1.3h.72c.59,0,.72,0,.72.05,0,.03-.11.42-.23.88-.23.82-.92,3.3-2.71,9.73-1.36,4.9-1.4,5.02-1.41,5.08-.02.06.1.06,2.1.06h2.12v6.24c0,6.8,0,6.45.18,6.83.17.34.51.62.91.74.26.09.8.08,1.06-.02.48-.17.8-.5.96-.99.06-.17.06-.47.07-6.53v-6.34h1.62v6.35c0,6.35,0,6.36.07,6.56.21.62.7.98,1.39,1.03.83.06,1.53-.48,1.65-1.27.02-.14.04-2.29.04-6.41v-6.2h2.1c1.37,0,2.1,0,2.1-.03,0-.02-.24-.88-.53-1.91-.29-1.03-.66-2.35-.82-2.92-.16-.57-.53-1.88-.82-2.92-.9-3.22-1.11-3.96-1.35-4.79-.12-.44-.37-1.33-.55-1.98-.18-.65-.33-1.19-.33-1.2,0-.02.3-.03.76-.03h.75l.07.24c.04.13.1.33.13.44.03.11.18.6.33,1.1.15.5.39,1.32.55,1.84.15.52.38,1.28.51,1.7.48,1.61.7,2.34.87,2.93.1.33.21.69.25.79.27.71.89,1.1,1.54.98.75-.13,1.23-.8,1.17-1.61-.02-.25-.05-.34-.78-2.76-.66-2.16-1.71-5.63-1.99-6.55-.14-.47-.31-.95-.39-1.12-.19-.41-.55-.88-1-1.3-.81-.77-1.73-1.24-2.74-1.39-.46-.07-7.53-.07-7.95,0Z"/>
  </g>
</svg>