<svg width="346" height="134" viewBox="0 0 346 134" fill="none" xmlns="http://www.w3.org/2000/svg">
<path d="M10.0659 50.3587L6.0366 53.3807L172.748 95.1845M10.0659 50.3587L1 46.8331L8.05124 34.2416L10.9221 32.7306M10.0659 50.3587L21.6501 44.5069M58.9209 25.6794L36.7599 19.1318L28.7013 23.3731M58.9209 25.6794L105.258 1L168.48 17.4697M58.9209 25.6794L48.2683 31.0606M172.748 95.1845L157.791 125.908M172.748 95.1845L205.99 104.754L203.352 110.294M10.9221 32.7306L20.6428 35.7526M10.9221 32.7306L14.0952 31.0606M20.6428 35.7526L18.1245 36.7599L20.6428 37.7672L21.6501 37.2506M20.6428 35.7526L24.1684 33.9394M38.2709 26.6867L40.2855 27.694L38.1248 28.8021M38.2709 26.6867L34.8432 28.4495M38.2709 26.6867L28.7013 23.3731M14.0952 31.0606L24.1684 33.9394M14.0952 31.0606L18.1245 28.9399M24.1684 33.9394L27.694 32.1262M18.1245 28.9399L27.694 32.1262M18.1245 28.9399L21.6501 27.0843M27.694 32.1262L31.4155 30.2123M21.6501 27.0843L31.4155 30.2123M21.6501 27.0843L25.1757 25.2287M31.4155 30.2123L34.8432 28.4495M25.1757 25.2287L34.8432 28.4495M25.1757 25.2287L28.7013 23.3731M21.6501 37.2506L30.2123 40.1817M21.6501 37.2506L25.1757 35.4426M30.2123 40.1817L33.7379 38.4007M30.2123 40.1817L21.6501 44.5069M25.1757 35.4426L33.7379 38.4007M25.1757 35.4426L28.7013 33.6346M33.7379 38.4007L36.986 36.7599M28.7013 33.6346L36.986 36.7599M28.7013 33.6346L31.6427 32.1262M36.986 36.7599L40.2855 35.0931M31.6427 32.1262L40.2855 35.0931M31.6427 32.1262L33.8034 31.0182L34.8837 30.4641M40.2855 35.0931L44.9624 32.7306M34.8837 30.4641L35.9641 29.9101L38.1248 28.8021M34.8837 30.4641L44.9624 32.7306M44.9624 32.7306L48.2683 31.0606M38.1248 28.8021L48.2683 31.0606M21.6501 44.5069L85.1113 60.7798M231.702 33.9394L168.48 17.4697M231.702 33.9394L205.99 47.2746M231.702 33.9394L260.889 41.5425M85.1113 60.7798L148.572 77.0527L155.624 73.3958M85.1113 60.7798L168.48 17.4697M155.624 73.3958L176.274 79.0673L190.376 70.5051L172.748 64.5146M155.624 73.3958L172.748 64.5146M172.748 64.5146L188.865 56.1558M188.865 56.1558L202.968 59.9283M188.865 56.1558L192.391 54.3273M202.968 59.9283L200.953 61.4392L202.968 62.4466M202.968 59.9283L205.99 58.3284M220.092 50.8624L222.611 51.8697L219.832 53.3659M220.092 50.8624L216.315 52.8622M220.092 50.8624L205.99 47.2746M202.968 62.4466L216.315 65.4685M202.968 62.4466L207.501 60.0057M192.391 54.3273L205.99 58.3284M192.391 54.3273L195.917 52.4989M205.99 58.3284L209.012 56.7285M195.917 52.4989L209.012 56.7285M195.917 52.4989L199.072 50.8624M209.012 56.7285L212.537 54.862M199.072 50.8624L212.537 54.862M199.072 50.8624L202.968 48.8419M212.537 54.862L216.315 52.8622M202.968 48.8419L216.315 52.8622M202.968 48.8419L205.99 47.2746M216.315 65.4685L219.085 63.9816M216.315 65.4685L200.953 73.3958L248.801 86.3235M260.889 41.5425L345 63.4539L332.499 88.6369M260.889 41.5425L232.597 56.7285M207.501 60.0057L219.085 63.9816M207.501 60.0057L210.616 58.3284M219.085 63.9816L222.611 62.0891M210.616 58.3284L222.611 62.0891M210.616 58.3284L213.587 56.7285M222.611 62.0891L226.492 60.0057M213.587 56.7285L226.492 60.0057M213.587 56.7285L217.053 54.862M226.492 60.0057L229.617 58.3284M217.053 54.862L229.617 58.3284M217.053 54.862L219.832 53.3659M229.617 58.3284L232.597 56.7285M219.832 53.3659L232.597 56.7285M332.499 88.6369L310.247 133.463H192.391M332.499 88.6369H257.363L248.801 86.3235M192.391 133.463H154.113L157.791 125.908M192.391 133.463L195.917 125.908M195.917 125.908H157.791M195.917 125.908L203.352 110.294M203.352 110.294L248.801 86.3235" stroke="#6FBA2D"/>
<path d="M178.63 101.756C178.229 101.829 177.905 102.003 177.628 102.295C176.956 103.005 176.988 104.134 177.702 104.805C178.151 105.23 178.784 105.387 179.395 105.228C179.581 105.18 179.875 105.028 180.039 104.897C180.595 104.451 180.831 103.707 180.633 103.021C180.471 102.459 180.049 102.017 179.504 101.831C179.224 101.735 178.897 101.708 178.63 101.756Z" fill="black"/>
<path d="M176.356 105.675C176.064 105.695 175.808 105.767 175.533 105.904C174.817 106.262 174.347 106.962 174.274 107.78C174.26 107.923 174.257 108.86 174.26 110.811L174.265 113.637L174.303 113.748C174.373 113.952 174.511 114.111 174.694 114.195C174.764 114.229 174.806 114.234 174.965 114.234C175.137 114.234 175.161 114.231 175.255 114.185C175.448 114.089 175.59 113.903 175.643 113.676C175.66 113.606 175.665 112.986 175.665 110.859V108.131H176.088H176.51V115.398C176.51 121.726 176.513 122.682 176.536 122.786C176.631 123.244 177.042 123.578 177.51 123.58C177.645 123.58 177.852 123.527 177.983 123.457C178.137 123.375 178.316 123.191 178.394 123.034C178.514 122.788 178.507 123.121 178.507 118.428V114.191H178.925H179.344V118.437C179.345 123.114 179.337 122.791 179.455 123.027C179.567 123.256 179.762 123.426 180.023 123.525C180.122 123.563 180.163 123.57 180.342 123.57C180.521 123.57 180.562 123.563 180.661 123.525C180.923 123.426 181.117 123.256 181.228 123.03C181.349 122.785 181.341 123.437 181.341 115.398V108.131H181.759H182.177V110.842C182.177 112.716 182.182 113.585 182.196 113.655C182.24 113.896 182.377 114.086 182.584 114.186C182.705 114.248 182.722 114.251 182.867 114.249C182.983 114.249 183.044 114.239 183.113 114.214C183.355 114.116 183.517 113.896 183.56 113.601C183.582 113.439 183.582 108.089 183.56 107.824C183.468 106.783 182.747 105.943 181.759 105.721C181.65 105.697 181.522 105.685 181.315 105.68C180.795 105.668 176.524 105.663 176.356 105.675Z" fill="black"/>
<path d="M169.144 67.0601C168.612 67.0601 168.182 67.4907 168.182 68.0223C168.182 68.5539 168.612 68.9846 169.144 68.9846C169.676 68.9846 170.107 68.5539 170.107 68.0223C170.107 67.4907 169.676 67.0601 169.144 67.0601Z" fill="black"/>
<path d="M173.252 67.0601C172.72 67.0601 172.289 67.4907 172.289 68.0223C172.289 68.5539 172.72 68.9846 173.252 68.9846C173.783 68.9846 174.214 68.5539 174.214 68.0223C174.214 67.4907 173.783 67.0601 173.252 67.0601Z" fill="black"/>
<path d="M177.36 67.0601C176.828 67.0601 176.397 67.4907 176.397 68.0223C176.397 68.5539 176.828 68.9846 177.36 68.9846C177.892 68.9846 178.323 68.5539 178.323 68.0223C178.323 67.4907 177.892 67.0601 177.36 67.0601Z" fill="black"/>
<path d="M179.554 62.478H166.95C165.982 62.478 165.193 63.2662 165.193 64.2345V77.7287C165.193 78.6974 165.982 79.4856 166.95 79.4856H179.554C180.523 79.4856 181.31 78.6974 181.31 77.7287V64.2345C181.311 63.2662 180.523 62.478 179.554 62.478ZM168.973 78.377L169.144 74.5196L169.315 78.377H168.973ZM173.08 78.377L173.252 74.5196L173.423 78.377H173.08ZM177.189 78.377L177.36 74.5196L177.532 78.377H177.189ZM180.202 77.7287C180.202 78.0863 179.911 78.377 179.554 78.377H178.417L178.448 73.8733C178.519 73.977 178.636 74.047 178.77 74.0407C178.977 74.0307 179.136 73.8554 179.127 73.6486L179.286 70.4452C179.286 69.1852 178.01 69.1232 177.36 69.1232C176.711 69.1232 175.435 69.1852 175.435 70.4452L175.542 73.6486C175.532 73.8554 175.691 74.0307 175.898 74.0407C176.079 74.0493 176.229 73.9253 176.272 73.7569L176.304 78.3769H174.309L174.34 73.8732C174.411 73.977 174.527 74.047 174.662 74.0406C174.868 74.0307 175.028 73.8553 175.019 73.6486L175.178 70.4451C175.178 69.1851 173.901 69.1231 173.252 69.1231C172.603 69.1231 171.326 69.1851 171.326 70.4451L171.433 73.6486C171.424 73.8553 171.583 74.0307 171.79 74.0406C171.971 74.0492 172.121 73.925 172.164 73.7559L172.195 78.3769H170.201L170.231 73.8732C170.302 73.977 170.419 74.0469 170.554 74.0406C170.761 74.0306 170.92 73.8553 170.91 73.6485L171.07 70.4451C171.07 69.1851 169.793 69.1231 169.144 69.1231C168.495 69.1231 167.218 69.1851 167.218 70.4451L167.325 73.6485C167.315 73.8553 167.475 74.0306 167.681 74.0406C167.863 74.0492 168.013 73.9249 168.055 73.7559L168.087 78.3769H166.95C166.593 78.3769 166.302 78.0861 166.302 77.7286V64.2345C166.302 63.8774 166.593 63.5866 166.95 63.5866H179.554C179.911 63.5866 180.202 63.8774 180.202 64.2345V77.7287H180.202Z" fill="black"/>
<path d="M174.511 59.5922L175.828 58.2753V61.2363C175.828 61.5063 176.047 61.7251 176.317 61.7251C176.587 61.7251 176.806 61.5063 176.806 61.2363V58.2753L178.123 59.5922C178.219 59.6878 178.344 59.7357 178.469 59.7357C178.594 59.7357 178.72 59.6878 178.815 59.5922C179.006 59.4012 179.006 59.0916 178.815 58.9009L176.663 56.7486L176.317 56.4028L175.971 56.7486L173.819 58.9009C173.628 59.0916 173.628 59.4012 173.819 59.5922C174.01 59.7832 174.32 59.7832 174.511 59.5922Z" fill="black"/>
<path d="M169.841 61.581C169.841 61.5814 169.841 61.5814 169.841 61.5814L170.187 61.927L170.533 61.5814C170.533 61.5814 170.533 61.5814 170.533 61.581L172.685 59.429C172.876 59.238 172.876 58.9281 172.685 58.7373C172.494 58.5463 172.184 58.5463 171.993 58.7373L170.676 60.0546V57.0936C170.676 56.8233 170.457 56.6045 170.187 56.6045C169.917 56.6045 169.698 56.8233 169.698 57.0936V60.0546L168.381 58.7373C168.19 58.5463 167.88 58.5463 167.689 58.7373C167.498 58.928 167.498 59.238 167.689 59.429L169.841 61.581Z" fill="black"/>
</svg>
