<?xml version="1.0" encoding="UTF-8"?>
<svg id="_レイヤー_1" data-name="レイヤー 1" xmlns="http://www.w3.org/2000/svg" viewBox="0 0 443.48 418.56">
  <defs>
    <style>
      .cls-1, .cls-2, .cls-3, .cls-4, .cls-5, .cls-6, .cls-7, .cls-8 {
        stroke-miterlimit: 10;
      }

      .cls-1, .cls-2, .cls-3, .cls-4, .cls-7, .cls-8 {
        fill: none;
      }

      .cls-1, .cls-9, .cls-10, .cls-11, .cls-8 {
        isolation: isolate;
      }

      .cls-1, .cls-10, .cls-11, .cls-8 {
        font-family: BIZ-UDGothic, 'BIZ UDGothic';
      }

      .cls-1, .cls-11 {
        font-size: 16.7px;
        letter-spacing: .2em;
      }

      .cls-1, .cls-8 {
        stroke: #028760;
      }

      .cls-2, .cls-3, .cls-5, .cls-7 {
        stroke: #6fba2d;
      }

      .cls-3 {
        stroke-width: 3px;
      }

      .cls-4, .cls-6 {
        stroke: #3b7960;
      }

      .cls-12 {
        fill: #ef4444;
      }

      .cls-5 {
        fill: #6fba2d;
      }

      .cls-6 {
        fill: #fff;
      }

      .cls-7 {
        stroke-width: 2px;
      }

      .cls-10, .cls-11 {
        fill: #028760;
      }

      .cls-10, .cls-8 {
        font-size: 14.32px;
        letter-spacing: .2em;
      }
    </style>
  </defs>
  <g id="_トレース" data-name=" トレース">
    <g>
      <g>
        <polygon class="cls-3" points="1.5 1.5 1.5 219.59 338.69 416.51 434.79 252.2 197.13 117.07 197.13 1.67 1.5 1.5"/>
        <polyline class="cls-3" points="381.49 344.33 410.93 361.95 441.98 309.98 441.98 272.82 428.14 263.73"/>
      </g>
      <g>
        <polyline class="cls-7" points="1.67 145.73 101.25 145.73 176.69 188.2 118.78 287.86"/>
        <polyline class="cls-7" points="138.97 252.39 72.29 213.86 52.58 248.69"/>
        <line class="cls-7" x1="79.13" y1="217.4" x2="116.29" y2="154.26"/>
        <line class="cls-7" x1="133.1" y1="163.67" x2="95.54" y2="227.13"/>
        <line class="cls-7" x1="114.6" y1="195.6" x2="157.31" y2="220.53"/>
        <line class="cls-7" x1="117.9" y1="147.02" x2="114.36" y2="152.81"/>
        <polyline class="cls-7" points="148.39 1.83 148.39 92.4 142.59 104.3"/>
        <line class="cls-7" x1="152.73" y1="94.49" x2="148.54" y2="91.12"/>
        <line class="cls-7" x1="168.17" y1="101.25" x2="197.29" y2="117.66"/>
        <line class="cls-7" x1="148.39" y1="15.5" x2="197.45" y2="15.5"/>
        <line class="cls-7" x1="239.27" y1="174.77" x2="160.29" y2="311.99"/>
        <polyline class="cls-7" points="234.13 182.81 208.39 167.85 192.3 196 300.41 259.87"/>
        <polyline class="cls-7" points="336.28 197.45 287.86 282.71 224.15 245.07 237.67 222.7"/>
        <line class="cls-7" x1="415.91" y1="283.68" x2="319.71" y2="227.53"/>
        <polyline class="cls-7" points="370.22 257.46 357.35 279.17 402.08 306.85"/>
      </g>
      <g>
        <line class="cls-2" x1="145" y1="244.43" x2="163.34" y2="254.97"/>
        <line class="cls-2" x1="147.1" y1="240.4" x2="165.51" y2="251.34"/>
        <line class="cls-2" x1="148.94" y1="237.43" x2="167.36" y2="247.72"/>
        <line class="cls-2" x1="151.03" y1="233.89" x2="169.38" y2="244.51"/>
        <line class="cls-2" x1="152.97" y1="230.03" x2="171.55" y2="241.05"/>
        <line class="cls-2" x1="155.06" y1="227.06" x2="173" y2="237.43"/>
        <line class="cls-2" x1="157.23" y1="223.75" x2="175.25" y2="234.13"/>
        <line class="cls-2" x1="159" y1="220.21" x2="177.34" y2="230.75"/>
        <line class="cls-2" x1="181.92" y1="229.06" x2="201.15" y2="239.68"/>
        <line class="cls-2" x1="180" y1="232.44" x2="198.98" y2="243.38"/>
        <line class="cls-2" x1="178.38" y1="235.98" x2="197.05" y2="246.84"/>
        <line class="cls-2" x1="176.54" y1="239.36" x2="194.96" y2="250.22"/>
        <line class="cls-2" x1="174.36" y1="242.98" x2="192.7" y2="253.84"/>
        <line class="cls-2" x1="172.27" y1="246.03" x2="190.77" y2="256.81"/>
        <line class="cls-2" x1="170.42" y1="249.49" x2="188.92" y2="260.27"/>
        <line class="cls-2" x1="168.33" y1="252.95" x2="187.08" y2="263.81"/>
        <polygon class="cls-2" points="180 227.06 163.43 256.01 165.35 257.22 182 228.42 180 227.06"/>
        <line class="cls-2" x1="391.3" y1="329.21" x2="405.78" y2="337.57"/>
        <line class="cls-2" x1="393.55" y1="325.91" x2="407.39" y2="334.27"/>
        <line class="cls-2" x1="395.32" y1="322.93" x2="409.16" y2="331.22"/>
        <line class="cls-2" x1="397.09" y1="319.87" x2="411.25" y2="328.08"/>
        <line class="cls-2" x1="398.54" y1="316.49" x2="412.86" y2="324.94"/>
        <line class="cls-2" x1="400.48" y1="313.36" x2="414.71" y2="321.73"/>
        <line class="cls-2" x1="402.57" y1="310.23" x2="416.8" y2="318.51"/>
        <line class="cls-2" x1="404.33" y1="307.16" x2="418.49" y2="315.29"/>
        <line class="cls-2" x1="406.43" y1="304.03" x2="420.5" y2="311.83"/>
        <line class="cls-2" x1="406.19" y1="342.23" x2="417.93" y2="349.23"/>
        <line class="cls-2" x1="408.03" y1="339.26" x2="419.94" y2="346.1"/>
        <line class="cls-2" x1="410.04" y1="335.89" x2="421.71" y2="342.72"/>
        <line class="cls-2" x1="412.06" y1="332.67" x2="423.32" y2="339.34"/>
        <line class="cls-2" x1="413.99" y1="329.61" x2="425.25" y2="336.05"/>
        <line class="cls-2" x1="415.99" y1="326.56" x2="427.42" y2="332.82"/>
        <polygon class="cls-2" points="403.77 341.35 423.64 307.49 425.57 308.61 406.11 342.64 403.77 341.35"/>
      </g>
      <circle class="cls-5" cx="192.95" cy="150.53" r="5.26"/>
    </g>
    <g>
      <g class="cls-9">
        <text class="cls-11" transform="translate(235.65 311.08)"><tspan x="0" y="0">STAFF ONLY</tspan></text>
        <text class="cls-1" transform="translate(235.65 311.08)"><tspan x="0" y="0">STAFF ONLY</tspan></text>
      </g>
      <rect class="cls-4" x="226.81" y="284.95" width="131.27" height="39.57" rx="1" ry="1"/>
    </g>
    <g>
      <g class="cls-9">
        <text class="cls-10" transform="translate(22.7 113.68)"><tspan x="0" y="0">イベント本部</tspan></text>
        <text class="cls-8" transform="translate(22.7 113.68)"><tspan x="0" y="0">イベント本部</tspan></text>
      </g>
      <path class="cls-4" d="M24.74,92.33h96.14c8.79,0,15.91,7.12,15.91,15.91h0c0,8.79-7.12,15.91-15.91,15.91H24.74c-8.79,0-15.91-7.12-15.91-15.91h0c0-8.79,7.12-15.91,15.91-15.91Z"/>
    </g>
    <g>
      <rect class="cls-6" x="18.36" y="179.26" width="131.27" height="39.57" rx="1" ry="1"/>
      <g class="cls-9">
        <text class="cls-11" transform="translate(27.21 205.4)"><tspan x="0" y="0">STAFF ONLY</tspan></text>
        <text class="cls-1" transform="translate(27.21 205.4)"><tspan x="0" y="0">STAFF ONLY</tspan></text>
      </g>
    </g>
    <g>
      <path class="cls-12" d="M171.84,28.65c-.81.14-1.46.67-1.78,1.41-.14.33-.19.62-.17.99,0,.21.02.36.06.49.18.69.62,1.23,1.24,1.54,1.17.58,2.57.1,3.15-1.07.14-.29.21-.51.23-.82.08-.86-.33-1.7-1.03-2.17-.51-.33-1.12-.47-1.69-.37Z"/>
      <path class="cls-12" d="M169.37,33.85c-.85.14-1.57.6-2.08,1.38-.24.37-.17.17-1.11,3.23-.37,1.2-.76,2.51-1.04,3.44-.12.39-.23.77-.24.86-.1.52.18,1.01.65,1.15.37.11.73,0,.98-.27.19-.21.16-.14.85-2.45.15-.51.37-1.24.49-1.62.11-.38.33-1.11.47-1.6l.27-.89h.49c.41,0,.49,0,.49.03,0,.02-.07.29-.16.6-.16.56-.63,2.26-1.85,6.67-.94,3.36-.95,3.44-.97,3.48,0,.04.06.04,1.44.04h1.46v4.29c0,4.67,0,4.42.13,4.69.12.23.35.42.62.51.17.06.55.06.72-.02.33-.12.55-.34.66-.68.04-.12.04-.33.05-4.48v-4.35h1.11v4.36c0,4.35,0,4.36.05,4.5.14.42.48.68.95.71.57.04,1.05-.33,1.14-.87.02-.1.02-1.57.02-4.4v-4.25h1.44c.94,0,1.44,0,1.44-.02,0,0-.16-.6-.37-1.31-.2-.71-.45-1.61-.56-2s-.37-1.3-.56-2c-.62-2.21-.76-2.72-.92-3.29-.09-.3-.25-.91-.38-1.36-.13-.45-.23-.82-.23-.83,0-.02.2-.02.52-.02h.52l.05.16c.02.09.06.22.09.3.02.07.13.41.22.76.1.34.27.91.37,1.26.1.35.26.87.35,1.16.33,1.11.48,1.61.6,2.01.06.23.14.47.17.54.19.49.61.76,1.06.68.51-.1.84-.55.8-1.11-.02-.17-.03-.23-.53-1.89-.45-1.48-1.18-3.86-1.37-4.49-.1-.33-.21-.65-.27-.77-.14-.28-.38-.6-.68-.89-.56-.53-1.19-.85-1.89-.95-.31-.05-5.17-.05-5.46,0h0Z"/>
    </g>
    <g>
      <path d="M181.37,107.29c-.14.02-.81.06-1.49.08-.89.04-1.27.07-1.4.11-.23.08-.56.42-.74.74-.07.14-.24.36-.37.49l-.25.25h-.46c-.52,0-.67.05-.77.25-.14.27,0,.63.26.72.08.03.33.05.56.05h.42l.17.18c.24.25.44.33.78.33.32,0,.51-.07.72-.27.12-.11.13-.12.36-.07.64.13,1.77.58,2.85,1.14.35.17.63.32.64.32,0,0,0-.19-.02-.42-.02-.31-.03-.44-.09-.49-.09-.1-.95-.66-1.72-1.11l-.64-.37h-.53c-.36,0-.55-.03-.58-.1-.03-.06-.03-.12,0-.14.09-.09,2.32-.88,2.98-1.06l.17-.05-.1-.19c-.15-.26-.3-.41-.4-.41-.05,0-.21.02-.35.03h0ZM178.23,109.09c.25.09.33.42.15.64-.08.1-.13.11-.29.11s-.21-.02-.29-.11c-.18-.21-.1-.54.14-.64.14-.06.13-.06.28,0Z"/>
      <path d="M175.08,109.05c-1.61.24-2.49,1.53-2.3,3.37.06.56.17,1.12.49,2.4.33,1.34.41,1.78.44,2.52.02.48,0,.72-.05,1.01-.04.21-.06.39-.06.39s.11.04.24.08.29.1.38.15.16.07.17.06c.05-.05.14-.57.19-.99.09-.87-.02-1.73-.47-3.51-.37-1.46-.44-1.84-.46-2.4-.04-.81.1-1.29.46-1.69.11-.11.27-.25.37-.3.21-.13.68-.26.88-.26.15,0,.16,0,.13-.1-.04-.11-.04-.59,0-.72.04-.1.02-.1-.41-.05v.02Z"/>
      <path d="M177.13,111.07v.49l-.35.17c-.66.33-1.22,1.02-1.38,1.72-.04.17-.06.48-.06.92v.66h5.5v-.66c0-.73-.05-.99-.25-1.39-.24-.49-.65-.89-1.21-1.17l-.33-.17v-.43c0-.24-.02-.47-.02-.52-.02-.09-.03-.09-.1-.03-.12.11-.44.23-.68.25-.31.03-.64-.04-.88-.19-.1-.07-.2-.12-.21-.12-.02,0-.02.21-.02.48h0Z"/>
      <path d="M175.34,117.74v2.3h5.5v-4.6h-5.5v2.3h0ZM179.82,117.75v1.1h-3.46v-2.2h3.46v1.1Z"/>
      <path d="M173,119.19c-.06.02-.39.57-.87,1.43l-.78,1.38.11.12c.14.14.89.51,1.4.68.21.07.51.14.66.15.26.02.28.02.31-.08.02-.06.21-.73.41-1.51.25-.98.37-1.45.34-1.52-.1-.4-1.19-.84-1.59-.65h0ZM172.5,121.8c.42.09.83.32.98.55.1.14.1.21,0,.21-.25,0-1.65-.58-1.62-.67.02-.04.25-.14.33-.14.02,0,.16.02.31.06h0Z"/>
      <path d="M175.34,122.5c0,2.32,0,2.28.31,2.63.1.12.28.25.41.32l.23.11h3.58l.23-.11c.14-.06.31-.2.41-.32.31-.35.31-.31.31-2.63v-2.04h-5.5v2.04h0Z"/>
    </g>
    <g>
      <path d="M319.01,213.16c-.14.02-.81.06-1.49.08-.89.04-1.27.07-1.4.11-.23.08-.56.42-.74.74-.07.14-.24.36-.37.49l-.25.25h-.46c-.52,0-.67.05-.77.25-.14.27,0,.63.26.72.08.03.33.05.56.05h.42l.17.18c.24.25.44.33.78.33.32,0,.51-.07.72-.27.12-.11.13-.12.36-.07.64.13,1.77.58,2.85,1.14.35.17.63.32.64.32,0,0,0-.19-.02-.42-.02-.31-.03-.44-.09-.49-.09-.1-.95-.66-1.72-1.11l-.64-.37h-.53c-.36,0-.55-.03-.58-.1-.03-.06-.03-.12,0-.14.09-.09,2.32-.88,2.98-1.06l.17-.05-.1-.19c-.15-.26-.3-.41-.4-.41-.05,0-.21.02-.35.03h0ZM315.86,214.96c.25.09.33.42.15.64-.08.1-.13.11-.29.11s-.21-.02-.29-.11c-.18-.21-.1-.54.14-.64.14-.06.13-.06.28,0h0Z"/>
      <path d="M312.72,214.92c-1.61.24-2.49,1.53-2.3,3.37.06.56.17,1.12.49,2.4.33,1.34.41,1.78.44,2.52.02.48,0,.72-.05,1.01-.04.21-.06.39-.06.39s.11.04.24.08.29.1.38.15c.09.05.16.07.17.06.05-.05.14-.57.19-.99.09-.87-.02-1.73-.47-3.51-.37-1.46-.44-1.84-.46-2.4-.04-.81.1-1.29.46-1.69.11-.11.27-.25.37-.3.21-.13.68-.26.88-.26.15,0,.16,0,.13-.1-.04-.11-.04-.59,0-.72.04-.1.02-.1-.41-.05v.02Z"/>
      <path d="M314.77,216.94v.49l-.35.17c-.66.33-1.22,1.02-1.38,1.72-.04.17-.06.48-.06.92v.66h5.5v-.66c0-.73-.05-.99-.25-1.39-.24-.49-.65-.89-1.21-1.17l-.33-.17v-.43c0-.24-.02-.47-.02-.52-.02-.09-.03-.09-.1-.03-.12.11-.44.23-.68.25-.31.03-.64-.04-.88-.19-.1-.07-.2-.12-.21-.12-.02,0-.02.21-.02.48h0Z"/>
      <path d="M312.99,223.6v2.3h5.5v-4.6h-5.5v2.3h0ZM317.46,223.63v1.1h-3.46v-2.2h3.46v1.1Z"/>
      <path d="M310.64,225.06c-.06.02-.39.57-.87,1.43l-.78,1.38.11.12c.14.14.89.51,1.4.68.21.07.51.14.66.15.26.02.28.02.31-.08.02-.06.21-.73.41-1.51.25-.98.37-1.45.34-1.52-.1-.4-1.19-.84-1.59-.65h0ZM310.14,227.68c.42.09.83.32.98.55.1.14.1.21,0,.21-.25,0-1.65-.58-1.62-.67.02-.04.25-.14.33-.14.02,0,.16.02.31.06h0Z"/>
      <path d="M312.99,228.36c0,2.32,0,2.28.31,2.63.1.12.28.25.41.32l.23.11h3.58l.23-.11c.14-.06.31-.2.41-.32.31-.35.31-.31.31-2.63v-2.04h-5.5v2.04h0Z"/>
    </g>
    <g>
      <path d="M208.31,187.36c-.6,0-1.09.49-1.09,1.09s.49,1.09,1.09,1.09,1.09-.49,1.09-1.09-.49-1.09-1.09-1.09Z"/>
      <path d="M212.97,187.36c-.6,0-1.09.49-1.09,1.09s.49,1.09,1.09,1.09,1.09-.49,1.09-1.09-.49-1.09-1.09-1.09Z"/>
      <path d="M217.61,187.36c-.6,0-1.09.49-1.09,1.09s.49,1.09,1.09,1.09,1.09-.49,1.09-1.09-.49-1.09-1.09-1.09Z"/>
      <path d="M220.1,182.17h-14.27c-1.1,0-1.99.89-1.99,1.99v15.28c0,1.1.89,1.99,1.99,1.99h14.27c1.1,0,1.99-.89,1.99-1.99v-15.28c0-1.1-.89-1.99-1.99-1.99ZM208.12,200.17l.19-4.37.19,4.37h-.39,0ZM212.77,200.17l.19-4.37.19,4.37h-.39,0ZM217.42,200.17l.19-4.37.19,4.37h-.39,0ZM220.83,199.44c0,.41-.33.73-.73.73h-1.29l.03-5.1c.08.12.21.2.37.19.23,0,.41-.21.41-.45l.18-3.63c0-1.42-1.45-1.5-2.18-1.5s-2.18.07-2.18,1.5l.12,3.63c0,.23.17.43.41.45.21,0,.37-.13.42-.32l.04,5.23h-2.26l.03-5.1c.08.12.21.2.37.19.23,0,.41-.21.41-.45l.18-3.63c0-1.42-1.45-1.5-2.18-1.5s-2.18.07-2.18,1.5l.12,3.63c0,.23.17.43.41.45.21,0,.37-.13.42-.33l.03,5.23h-2.26l.03-5.1c.08.12.21.2.37.19.23,0,.41-.21.41-.45l.18-3.63c0-1.42-1.45-1.5-2.18-1.5s-2.18.07-2.18,1.5l.12,3.63c0,.23.17.43.41.45.21,0,.37-.13.42-.33l.04,5.23h-1.29c-.41,0-.73-.33-.73-.73v-15.28c0-.41.33-.73.73-.73h14.27c.41,0,.73.33.73.73v15.28h0Z"/>
      <path d="M214.39,178.91l1.49-1.49v3.35c0,.3.25.56.56.56s.56-.25.56-.56v-3.35l1.49,1.49c.11.11.25.16.39.16s.29-.06.39-.16c.21-.21.21-.56,0-.78l-2.43-2.43-.39-.39-.39.39-2.43,2.43c-.21.21-.21.56,0,.78.21.21.56.21.78,0h0Z"/>
      <path d="M209.1,181.16h0l.39.39.39-.39h0l2.43-2.43c.21-.21.21-.56,0-.78-.21-.21-.56-.21-.78,0l-1.49,1.49v-3.35c0-.3-.25-.56-.56-.56s-.56.25-.56.56v3.35l-1.49-1.49c-.21-.21-.56-.21-.78,0-.21.21-.21.56,0,.78l2.43,2.43h0Z"/>
    </g>
    <g>
      <path d="M417.96,295.3v10.5h21.17v-21h-21.17v10.5ZM434.96,292.64v6.44l.33.06c.38.06.86.28,1.07.49.33.33.92,1.41.94,1.7,0,.14,0,.15-.17.17-.1.02-.62.03-1.16.03h-.99v2.76l.48.49c.49.51.64.7.6.75-.06.05-2.61.1-5.39.1h-2.81l-.75-.72-.75-.72h-1.92l.68.65c.61.6.67.66.6.7-.06.03-.49.06-1.19.07l-1.11.02-.63-.63-.63-.63v-8.87h2.72l.56-.66c.79-.91.98-1.12,1.04-1.12.05,0,.56,1.04,1.03,2.11l.17.39-1.53,3.08c-1.85,3.72-2.06,4.18-1.96,4.24.08.06.66.05,1.07,0,.37-.06.72-.2.87-.35.14-.15.67-1.15,1.83-3.41,1.18-2.31,1.46-2.82,1.52-2.8.06.02.1.32.15,1.42.06,1.1.14,1.83.25,2.21.12.41-.08.38,3.4.38,3.1,0,3.29,0,3.35-.17.03-.09-.22-.56-.42-.8-.1-.1-.23-.22-.3-.25-.25-.13-.8-.19-2.25-.24-.8-.02-1.64-.06-1.85-.07l-.4-.02-.12-1.81-.13-1.81-.16-.37c-.1-.21-.39-.84-.67-1.43-.28-.58-.51-1.08-.51-1.12,0-.1.21-.11.98-.1l.69.02.42.72c.69,1.2,1.03,1.61,1.34,1.61.15,0,.46-.21.54-.35.14-.26-.03-.76-.61-1.77-.63-1.1-.87-1.35-1.38-1.51-.29-.1-.36-.1-2.51-.1-1.72,0-2.25.02-2.44.06-.21.06-.28.1-.7.52-.25.25-.77.84-1.15,1.3l-.7.84h-2.16v-7.93h12.81v6.44h-.02Z"/>
      <path d="M426.33,288.23c-.49.14-.87.71-.89,1.28,0,.43.41,1.11.81,1.34.1.06.24.08.53.08.34,0,.43-.02.64-.12.53-.26.78-.68.8-1.34,0-.33,0-.39-.11-.56-.14-.25-.51-.6-.71-.68s-.76-.07-1.07.02v-.02Z"/>
    </g>
    <g>
      <path d="M297.91,233.76c-.47.06-.86.15-1.17.25-1.57.51-2.84,1.77-3.36,3.31-.15.46-.21.8-.23,1.39-.03.93.11,1.61.52,2.43.41.82.42.84,4.13,4.44,1.87,1.81,3.41,3.29,3.48,3.32.15.06.31.06.46,0,.16-.07,1.85-1.73,1.91-1.88.07-.17.06-.32-.02-.49s-.18-.25-.37-.29c-.28-.07-.38,0-1.08.67-.36.34-.65.62-.67.62s-1.42-1.35-3.13-3.01c-2.1-2.04-3.17-3.1-3.32-3.29-.27-.36-.51-.86-.63-1.3-.12-.43-.16-1.17-.09-1.6.14-.9.64-1.81,1.3-2.38,1.54-1.3,3.67-1.38,5.31-.2.47.34.63.34,1.1,0,1.26-.91,2.82-1.1,4.23-.49,1.26.54,2.17,1.7,2.39,3.05.07.43.03,1.17-.09,1.59-.13.45-.37.95-.64,1.3-.12.16-.67.72-1.22,1.26-.74.72-1.02,1.01-1.05,1.11-.09.28.04.59.31.71.18.09.29.09.47,0,.21-.1,2.08-1.92,2.39-2.35.32-.42.7-1.16.83-1.63.17-.57.21-.99.19-1.62-.05-1.34-.54-2.46-1.49-3.4-.78-.78-1.73-1.28-2.83-1.49-.49-.1-1.47-.1-1.94,0-.66.14-1.33.39-1.84.7l-.27.17-.26-.17c-.5-.32-1.18-.57-1.82-.7-.29-.06-1.28-.1-1.52-.07l.02.02Z"/>
      <path d="M301.27,237.29c-.06.02-.14.09-.19.14-.04.05-.45.91-.89,1.92-.88,1.98-.9,2.03-.74,2.28.04.07.13.16.2.2.12.07.21.07,1.32.09l1.19.02-.62,1.39c-.39.87-.62,1.43-.62,1.51,0,.5.6.78.97.44.1-.1.29-.49.94-1.94.89-2,.9-2.03.73-2.3-.16-.26-.17-.26-1.5-.28l-1.19-.02.62-1.39c.57-1.29.62-1.4.6-1.57-.02-.29-.23-.5-.52-.52-.1,0-.22,0-.29.04h0Z"/>
    </g>
  </g>
</svg>