<?xml version="1.0" encoding="UTF-8"?>
<svg id="_トレース" data-name="トレース" xmlns="http://www.w3.org/2000/svg" viewBox="0 0 595 842">
  <defs>
    <style>
      .cls-1, .cls-2, .cls-3, .cls-4, .cls-5, .cls-6 {
        stroke-miterlimit: 10;
      }

      .cls-1, .cls-3, .cls-4, .cls-6 {
        fill: none;
      }

      .cls-1, .cls-3, .cls-5, .cls-6 {
        stroke: #6fba2d;
      }

      .cls-2 {
        fill: #028760;
        font-family: BIZ-UDGothic, 'BIZ UDGothic';
        font-size: 18px;
        stroke: #028760;
      }

      .cls-3 {
        stroke-width: 3px;
      }

      .cls-4 {
        stroke: #3b7960;
      }

      .cls-7 {
        fill: #ef4444;
      }

      .cls-8 {
        fill: #3b82f6;
      }

      .cls-5 {
        fill: #6fba2d;
      }

      .cls-6 {
        stroke-width: 2px;
      }
    </style>
  </defs>
  <g>
    <path d="M549.53,493.38v12.18h24.56v-24.35h-24.56v12.18ZM569.24,490.29v7.47l.37.06c.44.07,1,.32,1.23.56.38.38,1.07,1.63,1.09,1.98.01.16,0,.17-.19.21-.11.02-.72.04-1.35.04h-1.15v3.2l.55.57c.57.59.75.81.7.87-.06.06-3.02.11-6.24.11h-3.25s-.86-.83-.86-.83l-.86-.83h-2.23l.78.76c.71.69.77.76.69.81-.06.04-.56.07-1.38.09l-1.28.03-.73-.73-.73-.73v-10.28h3.16s.66-.77.66-.77c.91-1.06,1.14-1.3,1.21-1.3.06,0,.65,1.21,1.2,2.44l.2.45-1.77,3.57c-2.14,4.31-2.38,4.85-2.28,4.92.1.06.76.06,1.24-.01.42-.06.84-.23,1.01-.41.16-.17.78-1.32,2.12-3.96,1.37-2.68,1.69-3.26,1.76-3.24.08.03.12.37.17,1.65.06,1.27.16,2.12.28,2.56.14.47-.1.44,3.94.44,3.6,0,3.81-.01,3.89-.2.04-.1-.26-.65-.49-.92-.11-.12-.27-.26-.35-.3-.29-.15-.92-.22-2.61-.27-.93-.03-1.9-.07-2.15-.08l-.46-.03-.14-2.1-.15-2.11-.19-.43c-.11-.24-.45-.98-.78-1.66-.32-.67-.59-1.26-.59-1.3,0-.11.24-.13,1.13-.12l.8.02.49.84c.8,1.39,1.19,1.86,1.56,1.86.17,0,.53-.24.63-.41.16-.3-.04-.88-.71-2.05-.73-1.27-1.01-1.57-1.59-1.75-.34-.11-.41-.11-2.91-.11-1.99,0-2.61.02-2.83.07-.25.06-.32.12-.81.61-.29.3-.89.98-1.34,1.51l-.81.97h-1.25s-1.25,0-1.25,0v-9.2h14.85v7.47Z"/>
    <path d="M559.24,485.18c-.56.16-1.02.82-1.03,1.48-.01.5.47,1.29.94,1.55.12.07.28.09.62.09.39,0,.5-.02.74-.14.62-.3.9-.78.92-1.55,0-.38-.01-.45-.13-.66-.17-.28-.59-.69-.82-.79-.23-.1-.88-.09-1.24.02Z"/>
  </g>
  <g>
    <path d="M551.89,441.67c-.16.02-.88.06-1.61.08-.96.04-1.37.07-1.51.12-.25.09-.61.45-.8.8-.07.15-.26.38-.41.53l-.27.26h-.5c-.57,0-.72.05-.83.26-.15.29,0,.68.29.78.08.03.36.05.61.05h.46s.18.19.18.19c.26.27.47.36.84.36.34,0,.55-.08.78-.3.13-.12.14-.13.38-.07.69.14,1.91.63,3.08,1.23.37.19.68.35.69.35,0,0,0-.2-.01-.45-.01-.33-.04-.47-.09-.53-.1-.11-1.02-.71-1.86-1.21l-.69-.41h-.58q-.58,0-.63-.11c-.03-.07-.04-.13,0-.15.09-.09,2.52-.95,3.23-1.15l.18-.05-.11-.21c-.16-.29-.33-.45-.43-.44-.05,0-.22.02-.38.04ZM548.49,443.61c.28.1.37.46.17.69-.09.1-.14.12-.31.12s-.22-.02-.31-.12c-.19-.22-.11-.58.16-.69.15-.06.14-.06.3,0Z"/>
    <path d="M545.08,443.57c-1.74.26-2.69,1.65-2.49,3.65.06.6.19,1.21.53,2.6.36,1.45.44,1.93.47,2.73.02.52,0,.78-.05,1.1-.04.23-.07.42-.06.42,0,0,.12.04.26.09s.32.11.41.16c.1.05.18.08.19.07.05-.05.16-.62.2-1.07.1-.94-.03-1.87-.51-3.79-.39-1.57-.47-1.99-.5-2.6-.04-.88.1-1.4.5-1.83.12-.12.29-.27.39-.33.23-.14.74-.29.96-.29.16,0,.17,0,.14-.1-.04-.12-.04-.64,0-.77.04-.11.02-.11-.44-.05Z"/>
    <path d="M547.31,445.76v.52l-.38.19c-.71.36-1.31,1.1-1.49,1.86-.04.19-.07.52-.07,1v.72h5.95v-.72c0-.79-.05-1.07-.26-1.51-.26-.53-.71-.96-1.31-1.26l-.37-.18v-.47c0-.26-.01-.51-.03-.57-.03-.09-.04-.09-.1-.04-.13.12-.48.25-.74.27-.33.04-.7-.04-.96-.2-.11-.07-.22-.13-.22-.13-.01,0-.02.23-.02.52Z"/>
    <path d="M545.37,452.97v2.49h5.95v-4.98h-5.95v2.49ZM550.22,452.99v1.19h-3.74v-2.38h3.74v1.19Z"/>
    <path d="M542.83,454.55c-.06.03-.42.62-.94,1.55l-.85,1.5.12.13c.15.16.96.56,1.51.74.23.07.55.15.71.16.28.02.3.01.34-.08.03-.06.23-.79.45-1.64.28-1.06.39-1.56.37-1.65-.11-.43-1.3-.92-1.72-.71ZM542.29,457.37c.46.1.9.34,1.06.59.1.15.1.23,0,.23-.27,0-1.78-.63-1.75-.72.01-.04.26-.15.36-.15.03,0,.18.03.33.06Z"/>
    <path d="M545.37,458.12c0,2.51,0,2.47.33,2.85.11.13.3.27.45.34l.25.12h3.88l.25-.12c.15-.07.33-.22.45-.34.34-.38.33-.33.33-2.85v-2.22h-5.95v2.22Z"/>
  </g>
  <g>
    <path d="M335.57,246.08c-.16.02-.88.06-1.61.08-.96.04-1.37.07-1.51.12-.25.09-.61.45-.8.8-.07.15-.26.38-.41.53l-.27.26h-.5c-.57,0-.72.05-.83.26-.15.29,0,.68.29.78.08.03.36.05.61.05h.46s.18.19.18.19c.26.27.47.36.84.36.34,0,.55-.08.78-.3.13-.12.14-.13.38-.07.69.14,1.91.63,3.08,1.23.37.19.68.35.69.35,0,0,0-.2-.01-.45-.01-.33-.04-.47-.09-.53-.1-.11-1.02-.71-1.86-1.21l-.69-.41h-.58q-.58,0-.63-.11c-.03-.07-.04-.13,0-.15.09-.09,2.52-.95,3.23-1.15l.18-.05-.11-.21c-.16-.29-.33-.45-.43-.44-.05,0-.22.02-.38.04ZM332.17,248.02c.28.1.37.46.17.69-.09.1-.14.12-.31.12s-.22-.02-.31-.12c-.19-.22-.11-.58.16-.69.15-.06.14-.06.3,0Z"/>
    <path d="M328.76,247.98c-1.74.26-2.69,1.65-2.49,3.65.06.6.19,1.21.53,2.6.36,1.45.44,1.93.47,2.73.02.52,0,.78-.05,1.1-.04.23-.07.42-.06.42,0,0,.12.04.26.09s.32.11.41.16c.1.05.18.08.19.07.05-.05.16-.62.2-1.07.1-.94-.03-1.87-.51-3.79-.39-1.57-.47-1.99-.5-2.6-.04-.88.1-1.4.5-1.83.12-.12.29-.27.39-.33.23-.14.74-.29.96-.29.16,0,.17,0,.14-.1-.04-.12-.04-.64,0-.77.04-.11.02-.11-.44-.05Z"/>
    <path d="M330.99,250.17v.52l-.38.19c-.71.36-1.31,1.1-1.49,1.86-.04.19-.07.52-.07,1v.72h5.95v-.72c0-.79-.05-1.07-.26-1.51-.26-.53-.71-.96-1.31-1.26l-.37-.18v-.47c0-.26-.01-.51-.03-.57-.03-.09-.04-.09-.1-.04-.13.12-.48.25-.74.27-.33.04-.7-.04-.96-.2-.11-.07-.22-.13-.22-.13-.01,0-.02.23-.02.52Z"/>
    <path d="M329.05,257.38v2.49h5.95v-4.98h-5.95v2.49ZM333.89,257.4v1.19h-3.74v-2.38h3.74v1.19Z"/>
    <path d="M326.51,258.96c-.06.03-.42.62-.94,1.55l-.85,1.5.12.13c.15.16.96.56,1.51.74.23.07.55.15.71.16.28.02.3.01.34-.08.03-.06.23-.79.45-1.64.28-1.06.39-1.56.37-1.65-.11-.43-1.3-.92-1.72-.71ZM325.97,261.78c.46.1.9.34,1.06.59.1.15.1.23,0,.23-.27,0-1.78-.63-1.75-.72.01-.04.26-.15.36-.15.03,0,.18.03.33.06Z"/>
    <path d="M329.05,262.53c0,2.51,0,2.47.33,2.85.11.13.3.27.45.34l.25.12h3.88l.25-.12c.15-.07.33-.22.45-.34.34-.38.33-.33.33-2.85v-2.22h-5.95v2.22Z"/>
  </g>
  <g>
    <path d="M324.4,180.59c-.22.06-.31.09-.5.22-.58.37-.86,1.08-.69,1.73.12.45.44.85.84,1.04.14.07.22.12.23.16,0,.03.2,1.26.43,2.72.44,2.89.44,2.84.66,2.99.06.04.16.09.22.1.07.02.99.03,2.48.03h2.37l.73,2.36c.4,1.3.76,2.4.78,2.45.06.12.19.24.32.29.23.1.35.07,1.31-.32.5-.2.94-.4.98-.44.22-.21.26-.58.09-.85-.1-.15-.34-.28-.52-.28-.06,0-.35.09-.66.22-.36.15-.55.2-.56.18,0-.02-.33-1.06-.72-2.3-.51-1.66-.73-2.29-.79-2.37-.05-.06-.15-.14-.22-.17-.14-.07-.16-.07-2.52-.07h-2.38l-.09-.58c-.05-.32-.09-.61-.1-.64l-.02-.07h1.37s1.37-.02,1.37-.02l.15-.09c.42-.26.4-.88-.03-1.11-.08-.05-.28-.06-1.58-.07l-1.48-.02-.17-1.07c-.14-.89-.16-1.08-.12-1.09.27-.15.55-.5.68-.84.09-.22.11-.62.06-.86-.09-.43-.41-.86-.8-1.08-.33-.19-.78-.25-1.14-.16Z"/>
    <path d="M322.81,186.39c-.06.02-.23.12-.38.22-1.34.87-2.2,2.22-2.44,3.8-.06.41-.06,1.2,0,1.6.19,1.19.71,2.22,1.55,3.06.85.85,1.89,1.37,3.09,1.56.39.06,1.32.05,1.7-.02.66-.12,1.26-.34,1.81-.66.48-.27.76-.49,1.17-.91.43-.44.72-.83.98-1.35.18-.35.2-.4.2-.57,0-.21-.06-.34-.21-.47-.22-.2-.55-.22-.79-.05-.1.07-.17.16-.31.43-.23.45-.44.75-.74,1.06-.59.61-1.32,1.02-2.16,1.21-.43.1-1.23.1-1.64.02-.86-.19-1.55-.55-2.14-1.12-.85-.83-1.27-1.84-1.27-3.04,0-.85.23-1.59.72-2.33.23-.35.76-.88,1.13-1.12.39-.25.48-.35.54-.55.06-.2.04-.34-.09-.53-.15-.23-.48-.35-.73-.26Z"/>
  </g>
  <g>
    <path class="cls-8" d="M304.14,178.82c-.33.06-.6.21-.83.45-.56.59-.53,1.52.06,2.08.37.35.9.48,1.4.35.15-.04.4-.17.53-.27.46-.37.66-.99.49-1.55-.13-.47-.48-.83-.93-.99-.23-.08-.5-.1-.72-.06Z"/>
    <path class="cls-8" d="M302.25,182.06c-.24.02-.45.08-.68.19-.59.3-.98.88-1.04,1.55-.01.12-.01.9-.01,2.51v2.34s.04.09.04.09c.06.17.17.3.32.37.06.03.09.03.22.03.14,0,.16,0,.24-.04.16-.08.28-.23.32-.42.01-.06.02-.57.02-2.33v-2.26h.7v6.02c0,5.24,0,6.03.02,6.12.08.38.42.66.81.66.11,0,.28-.04.39-.1.13-.07.28-.22.34-.35.1-.2.09.07.09-3.82v-3.51h.69v3.52c0,3.88,0,3.61.09,3.8.09.19.25.33.47.41.08.03.12.04.26.04s.18,0,.26-.04c.22-.08.38-.22.47-.41.1-.2.09.34.09-6.32v-6.02h.69v2.25c0,1.55,0,2.27.02,2.33.04.2.15.36.32.44.1.05.11.05.23.05.1,0,.15,0,.2-.03.2-.08.34-.26.37-.51.02-.13.02-4.57,0-4.79-.08-.86-.67-1.56-1.49-1.74-.09-.02-.2-.03-.37-.03-.43,0-3.97-.01-4.11,0Z"/>
    <path class="cls-7" d="M313.3,178.82c-.52.09-.93.42-1.13.9-.09.21-.12.39-.11.63,0,.13.02.23.04.31.12.44.39.79.79.98.75.37,1.64.06,2-.68.09-.19.13-.32.15-.52.05-.55-.21-1.08-.66-1.38-.32-.21-.72-.3-1.07-.23Z"/>
    <path class="cls-7" d="M311.72,182.13c-.54.08-1,.39-1.32.88-.15.23-.11.11-.7,2.05-.23.76-.48,1.6-.67,2.19-.08.25-.14.49-.15.55-.06.33.12.64.41.73.23.07.46,0,.63-.17.12-.13.1-.09.54-1.56.1-.32.24-.79.31-1.03.07-.25.21-.7.3-1.02l.17-.57h.31c.26,0,.31,0,.31.02,0,.01-.05.18-.1.38-.1.36-.4,1.44-1.18,4.25-.6,2.14-.61,2.19-.62,2.22,0,.02.04.03.92.03h.93v2.73c0,2.97,0,2.82.08,2.98.07.15.22.27.4.32.11.04.35.03.46,0,.21-.08.35-.22.42-.43.02-.07.03-.21.03-2.85v-2.77h.71v2.78c0,2.77,0,2.78.03,2.87.09.27.31.43.61.45.36.02.67-.21.72-.56.01-.06.02-1,.02-2.8v-2.71h.92c.6,0,.92,0,.92-.01,0,0-.1-.38-.23-.83-.13-.45-.29-1.03-.36-1.27-.07-.25-.23-.82-.36-1.28-.39-1.41-.49-1.73-.59-2.09-.05-.19-.16-.58-.24-.87-.08-.28-.14-.52-.14-.53,0,0,.13-.01.33-.01h.33l.03.1c.02.06.04.14.06.19.01.05.08.26.14.48.06.22.17.58.24.8.07.23.17.56.22.74.21.7.3,1.02.38,1.28.04.15.09.3.11.34.12.31.39.48.67.43.33-.06.54-.35.51-.7,0-.11-.02-.15-.34-1.21-.29-.94-.75-2.46-.87-2.86-.06-.21-.13-.41-.17-.49-.08-.18-.24-.38-.44-.57-.35-.34-.76-.54-1.2-.61-.2-.03-3.29-.03-3.47,0Z"/>
  </g>
  <g>
    <path d="M321.03,374.74c-.65,0-1.17.53-1.17,1.17s.53,1.17,1.17,1.17,1.17-.53,1.17-1.17-.53-1.17-1.17-1.17Z"/>
    <path d="M326.04,374.74c-.65,0-1.17.53-1.17,1.17s.53,1.17,1.17,1.17,1.17-.53,1.17-1.17c0-.65-.53-1.17-1.17-1.17Z"/>
    <path d="M331.05,374.74c-.65,0-1.17.53-1.17,1.17s.53,1.17,1.17,1.17,1.17-.53,1.17-1.17-.53-1.17-1.17-1.17Z"/>
    <path d="M333.72,369.15h-15.37c-1.18,0-2.14.96-2.14,2.14v16.46c0,1.18.96,2.14,2.14,2.14h15.37c1.18,0,2.14-.96,2.14-2.14v-16.46c0-1.18-.96-2.14-2.14-2.14ZM320.82,388.54l.21-4.7.21,4.7h-.42ZM325.83,388.54l.21-4.7.21,4.7h-.42ZM330.84,388.54l.21-4.7.21,4.7h-.42ZM334.51,387.75c0,.44-.35.79-.79.79h-1.39l.04-5.49c.09.13.23.21.39.2.25-.01.45-.23.43-.48l.19-3.91c0-1.54-1.56-1.61-2.35-1.61s-2.35.08-2.35,1.61l.13,3.91c-.01.25.18.47.43.48.22.01.4-.14.46-.35l.04,5.63h-2.43l.04-5.49c.09.13.23.21.39.2.25-.01.45-.23.43-.48l.19-3.91c0-1.54-1.56-1.61-2.35-1.61s-2.35.08-2.35,1.61l.13,3.91c-.01.25.18.47.43.48.22.01.4-.14.46-.35l.04,5.64h-2.43l.04-5.49c.09.13.23.21.39.2.25-.01.45-.23.43-.48l.19-3.91c0-1.54-1.56-1.61-2.35-1.61s-2.35.08-2.35,1.61l.13,3.91c-.01.25.18.47.43.48.22.01.4-.14.46-.35l.04,5.64h-1.39c-.44,0-.79-.35-.79-.79v-16.46c0-.44.35-.79.79-.79h15.37c.44,0,.79.35.79.79v16.46h0Z"/>
    <path d="M327.57,365.63l1.61-1.61v3.61c0,.33.27.6.6.6s.6-.27.6-.6v-3.61l1.61,1.61c.12.12.27.17.42.17s.31-.06.42-.17c.23-.23.23-.61,0-.84l-2.62-2.62-.42-.42-.42.42-2.62,2.62c-.23.23-.23.61,0,.84.23.23.61.23.84,0Z"/>
    <path d="M321.88,368.06h0s.42.42.42.42l.42-.42s0,0,0,0l2.62-2.62c.23-.23.23-.61,0-.84-.23-.23-.61-.23-.84,0l-1.61,1.61v-3.61c0-.33-.27-.6-.6-.6s-.6.27-.6.6v3.61l-1.61-1.61c-.23-.23-.61-.23-.84,0-.23.23-.23.61,0,.84l2.62,2.62Z"/>
  </g>
  <g>
    <polyline class="cls-3" points="368.72 251.11 355.48 243.12 338.19 243.12 338.19 166.67 58.07 162.83 17.79 198.46 19.95 410.96 42.2 411.19 55.95 438.85 193.48 518.03 193.78 542.5 430.21 679.17 567.53 445.4 566.32 279.9 474.1 280.57 459.23 304.71 409.65 273.46 396.43 266.04"/>
    <g>
      <polyline class="cls-6" points="42.5 411.39 93.77 410.79 93.67 162.83"/>
      <line class="cls-6" x1="123.1" y1="426.06" x2="93.77" y2="409.88"/>
      <polyline class="cls-6" points="93.43 350.01 217.48 350.15 230.83 328.57"/>
      <polyline class="cls-6" points="121.75 349.61 121.88 316.2 191.83 316.88 191.93 349.94"/>
      <polyline class="cls-6" points="245.93 301.74 259.41 278.96 297.16 279.36 297.43 165.97 258.85 165.89 258.88 169.83"/>
      <line class="cls-6" x1="259.26" y1="275.76" x2="259.28" y2="278.95"/>
      <line class="cls-6" x1="259.31" y1="257.21" x2="259.33" y2="189.98"/>
      <line class="cls-6" x1="297.53" y1="207.98" x2="338.13" y2="208.03"/>
      <line class="cls-6" x1="318.72" y1="208.19" x2="318.77" y2="243.12"/>
      <line class="cls-6" x1="318.06" y1="243.07" x2="337.12" y2="243.17"/>
      <line class="cls-6" x1="158.69" y1="447.43" x2="461.79" y2="622.3"/>
      <line class="cls-6" x1="236.51" y1="567.07" x2="360.33" y2="355.62"/>
      <polyline class="cls-6" points="214.61 479.25 278.05 371.42 284.52 375.09 221.69 483.46"/>
      <polyline class="cls-6" points="236.59 458.11 322.38 507.73 394.88 380.96 358.28 359.62"/>
      <line class="cls-6" x1="193.28" y1="517.37" x2="193.61" y2="467.82"/>
      <polyline class="cls-6" points="331.85 403.64 301.61 385.37 320.56 352.84 351.37 370.51"/>
      <path class="cls-6" d="M312.2,438.39c.15.05,37.37,21.74,37.37,21.74"/>
      <line class="cls-6" x1="369.6" y1="339.16" x2="409.65" y2="273.56"/>
      <line class="cls-6" x1="373.51" y1="333.09" x2="567.1" y2="445.91"/>
      <polyline class="cls-6" points="506.02 551.18 540.67 572.48 577.21 510.87 577.21 466.64 560.89 456.26"/>
    </g>
    <g>
      <polygon class="cls-1" points="271.34 449.01 291.57 414.12 293.59 415.03 273.37 450.53 271.34 449.01"/>
      <line class="cls-1" x1="249.8" y1="435.76" x2="271.14" y2="448.3"/>
      <line class="cls-1" x1="251.72" y1="431.82" x2="273.37" y2="444.36"/>
      <line class="cls-1" x1="254.05" y1="427.88" x2="275.99" y2="440.82"/>
      <line class="cls-1" x1="256.07" y1="424.44" x2="277.81" y2="436.78"/>
      <line class="cls-1" x1="257.99" y1="420.7" x2="280.24" y2="433.24"/>
      <line class="cls-1" x1="260.12" y1="416.96" x2="282.26" y2="429.19"/>
      <line class="cls-1" x1="262.44" y1="412.91" x2="284.49" y2="425.45"/>
      <line class="cls-1" x1="264.67" y1="408.76" x2="286.81" y2="421.51"/>
      <line class="cls-1" x1="266.89" y1="405.33" x2="289.04" y2="417.87"/>
      <line class="cls-1" x1="269.52" y1="401.89" x2="291.57" y2="414.12"/>
      <line class="cls-1" x1="275.79" y1="445.67" x2="299.35" y2="459.33"/>
      <line class="cls-1" x1="278.02" y1="442.03" x2="301.17" y2="455.38"/>
      <line class="cls-1" x1="280.65" y1="438.29" x2="303.5" y2="451.84"/>
      <line class="cls-1" x1="516.77" y1="532.84" x2="534.57" y2="543.76"/>
      <line class="cls-1" x1="517.98" y1="528.8" x2="537.1" y2="540.12"/>
      <line class="cls-1" x1="519.8" y1="525.16" x2="539.02" y2="536.08"/>
      <line class="cls-1" x1="522.43" y1="521.21" x2="540.84" y2="532.44"/>
      <line class="cls-1" x1="525.06" y1="518.08" x2="542.96" y2="528.6"/>
      <line class="cls-1" x1="527.19" y1="514.24" x2="545.49" y2="525.06"/>
      <line class="cls-1" x1="529.41" y1="510.8" x2="547.21" y2="520.91"/>
      <line class="cls-1" x1="531.53" y1="506.75" x2="549.74" y2="517.37"/>
      <line class="cls-1" x1="534.06" y1="503.42" x2="552.16" y2="513.53"/>
      <polygon class="cls-1" points="532.34 547.61 555.8 508.27 557.93 509.18 534.97 549.22 532.34 547.61"/>
      <line class="cls-1" x1="549.13" y1="557.42" x2="534.97" y2="549.22"/>
      <line class="cls-1" x1="551.05" y1="553.88" x2="537.4" y2="545.69"/>
      <line class="cls-1" x1="553.38" y1="549.83" x2="539.42" y2="541.74"/>
      <line class="cls-1" x1="555.7" y1="545.89" x2="541.75" y2="537.9"/>
      <line class="cls-1" x1="558.13" y1="542.04" x2="544.07" y2="534.06"/>
      <line class="cls-1" x1="560.35" y1="538.3" x2="546.2" y2="530.31"/>
    </g>
    <circle class="cls-5" cx="302.77" cy="333.45" r="5.99"/>
    <g>
      <polygon class="cls-3" points="108.23 522.22 90.84 530.01 110.56 541.34 108.23 522.22"/>
      <line class="cls-3" x1="73.65" y1="581.99" x2="108.23" y2="522.22"/>
    </g>
  </g>
  <g>
    <text class="cls-2" transform="translate(119.49 289.49)"><tspan x="0" y="0">アクアルーム</tspan></text>
    <rect class="cls-4" x="111.6" y="262.65" width="123.78" height="40" rx="20" ry="20"/>
  </g>
  <g>
    <text class="cls-2" transform="translate(388.46 547.62)"><tspan x="0" y="0">飼育ルーム</tspan></text>
    <rect class="cls-4" x="371.57" y="520.78" width="123.78" height="40" rx="20" ry="20"/>
  </g>
</svg>