<svg width="346" height="115" viewBox="0 0 346 115" fill="none" xmlns="http://www.w3.org/2000/svg">
<path d="M260.901 32.3134L265.515 23.814M260.901 32.3134H277.9M260.901 32.3134L255.509 42.184M23.4601 70.3368L1 112.386L159.804 113.068M23.4601 70.3368H69.8895L86.0224 41.2601M23.4601 70.3368L38.9911 41.2601M108.36 1H72.1261M108.36 1L90.4899 33.2081M108.36 1H130.28M72.1261 1H60.4954L38.9911 41.2601M72.1261 1L55.1274 33.2081H90.4899M90.4899 33.2081L86.0224 41.2601M38.9911 41.2601H86.0224M130.28 1L88.6775 77.9415H123.122M130.28 1H164.277M164.277 1H221.088M164.277 1L123.122 77.9415M168.303 97.1769H112.834L123.122 77.9415M168.303 97.1769L159.804 113.068M168.303 97.1769L208.567 23.814M221.088 1H277.9L265.515 23.814M221.088 1L208.567 23.814M159.804 113.068L313.687 113.728L331.511 80.6255M208.567 23.814H265.515M331.511 80.6255L345 55.5748H301.161M331.511 80.6255H286.399M286.399 80.6255L301.161 55.5748M286.399 80.6255H268.059M301.161 55.5748H298.925L303.35 47.0527M301.161 55.5748H293.557M268.059 80.6255H234.508L248.194 55.5748M268.059 80.6255L281.479 55.5748M281.479 55.5748H280.584M281.479 55.5748H283.715M248.194 55.5748H264.836M248.194 55.5748L252.849 47.0527M264.836 55.5748L270.462 47.0527M264.836 55.5748H269.401M274.321 39.9181V41.2601L273.705 42.184M274.321 39.9181L277.9 32.3134M274.321 39.9181H277.9M277.9 32.3134H281.702M273.705 42.184H255.509M273.705 42.184L272.83 43.4967M255.509 42.184L254.792 43.4967M272.83 43.4967H254.792M272.83 43.4967L271.551 45.415M254.792 43.4967L253.744 45.415M253.744 45.415H271.551M253.744 45.415L252.849 47.0527M271.551 45.415L270.743 46.6281L270.462 47.0527M252.849 47.0527H270.462M270.462 47.0527H274.321M303.35 47.0527H298.925M303.35 47.0527L304.2 45.415M269.401 55.5748L274.321 47.0527M269.401 55.5748H272.83M274.321 47.0527H277.9M272.83 55.5748L277.9 47.0527M272.83 55.5748H277.154M277.9 47.0527H281.479M277.154 55.5748L281.479 47.0527M277.154 55.5748H280.584M281.479 47.0527H284.61M280.584 55.5748L284.61 47.0527M284.61 47.0527H288.189M283.715 55.5748L288.189 47.0527M283.715 55.5748H286.847M288.189 47.0527H291.767M286.847 55.5748L291.767 47.0527M286.847 55.5748H290.425M291.767 47.0527H294.899M290.425 55.5748L294.899 47.0527M290.425 55.5748H293.557M294.899 47.0527H298.925M293.557 55.5748L298.925 47.0527M288.189 39.9181L292.662 32.3134M288.189 39.9181H285.505M288.189 39.9181L286.98 42.184M288.189 39.9181H307.054M292.662 32.3134H311.003L307.054 39.9181M292.662 32.3134H289.083M285.505 39.9181L289.083 32.3134M285.505 39.9181H281.479M289.083 32.3134H285.505M281.479 39.9181L285.505 32.3134M281.479 39.9181H277.9M285.505 32.3134H281.702M277.9 39.9181L281.702 32.3134M284.61 46.6281L285.257 45.415M285.257 45.415H304.2M285.257 45.415L286.28 43.4967M304.2 45.415L305.196 43.4967M286.28 43.4967H305.196M286.28 43.4967L286.98 42.184M305.196 43.4967L305.877 42.184M305.877 42.184H286.98M305.877 42.184L307.054 39.9181" stroke="#F3858E"/>
<path d="M254.121 66.8296C253.649 66.8296 253.267 67.2121 253.267 67.6842C253.267 68.1564 253.649 68.5389 254.121 68.5389C254.593 68.5389 254.976 68.1564 254.976 67.6842C254.976 67.2121 254.593 66.8296 254.121 66.8296Z" fill="black"/>
<path d="M257.77 66.8296C257.298 66.8296 256.915 67.2121 256.915 67.6842C256.915 68.1564 257.298 68.5389 257.77 68.5389C258.242 68.5389 258.625 68.1564 258.625 67.6842C258.625 67.2121 258.242 66.8296 257.77 66.8296Z" fill="black"/>
<path d="M261.418 66.8296C260.946 66.8296 260.563 67.2121 260.563 67.6842C260.563 68.1564 260.946 68.5389 261.418 68.5389C261.891 68.5389 262.273 68.1564 262.273 67.6842C262.273 67.2121 261.891 66.8296 261.418 66.8296Z" fill="black"/>
<path d="M263.367 62.7603H252.173C251.313 62.7603 250.612 63.4603 250.612 64.3203V76.3054C250.612 77.1658 251.313 77.8658 252.173 77.8658H263.367C264.227 77.8658 264.927 77.1658 264.927 76.3054V64.3203C264.927 63.4603 264.227 62.7603 263.367 62.7603ZM253.969 76.8812L254.121 73.4551L254.273 76.8812H253.969ZM257.617 76.8812L257.77 73.4551L257.922 76.8812H257.617ZM261.266 76.8812L261.419 73.4551L261.571 76.8812H261.266ZM263.942 76.3054C263.942 76.623 263.684 76.8812 263.367 76.8812H262.357L262.385 72.8811C262.448 72.9733 262.551 73.0354 262.671 73.0298C262.854 73.021 262.996 72.8652 262.987 72.6816L263.129 69.8364C263.129 68.7173 261.995 68.6622 261.419 68.6622C260.842 68.6622 259.708 68.7173 259.708 69.8364L259.804 72.6816C259.795 72.8652 259.936 73.021 260.12 73.0298C260.28 73.0374 260.414 72.9273 260.452 72.7778L260.48 76.8811H258.708L258.736 72.8811C258.799 72.9733 258.902 73.0354 259.022 73.0298C259.205 73.0209 259.347 72.8652 259.339 72.6816L259.48 69.8364C259.48 68.7173 258.346 68.6622 257.77 68.6622C257.193 68.6622 256.059 68.7173 256.059 69.8364L256.155 72.6816C256.146 72.8652 256.287 73.0209 256.471 73.0298C256.632 73.0374 256.765 72.927 256.803 72.7769L256.831 76.8811H255.06L255.087 72.881C255.15 72.9732 255.253 73.0354 255.373 73.0297C255.557 73.0209 255.698 72.8651 255.69 72.6815L255.831 69.8363C255.831 68.7172 254.698 68.6622 254.121 68.6622C253.545 68.6622 252.411 68.7172 252.411 69.8363L252.506 72.6815C252.497 72.8651 252.639 73.0209 252.822 73.0297C252.983 73.0374 253.116 72.927 253.154 72.7769L253.182 76.8811H252.173C251.855 76.8811 251.597 76.6229 251.597 76.3053V64.3203C251.597 64.0031 251.855 63.7449 252.173 63.7449H263.367C263.684 63.7449 263.942 64.0031 263.942 64.3203V76.3054H263.942Z" fill="black"/>
<path d="M258.888 60.197L260.058 59.0273V61.6572C260.058 61.8969 260.252 62.0913 260.492 62.0913C260.732 62.0913 260.927 61.8969 260.927 61.6572V59.0273L262.096 60.197C262.182 60.2818 262.292 60.3244 262.403 60.3244C262.515 60.3244 262.626 60.2818 262.711 60.197C262.881 60.0273 262.881 59.7524 262.711 59.5829L260.799 57.6713L260.492 57.3643L260.185 57.6713L258.274 59.5829C258.104 59.7523 258.104 60.0273 258.274 60.197C258.443 60.3666 258.719 60.3666 258.888 60.197Z" fill="black"/>
<path d="M254.741 61.963C254.741 61.9633 254.741 61.9633 254.741 61.9633L255.048 62.2703L255.355 61.9633C255.355 61.9633 255.355 61.9633 255.355 61.963L257.266 60.0516C257.436 59.8819 257.436 59.6067 257.266 59.4373C257.097 59.2676 256.822 59.2676 256.652 59.4373L255.483 60.6072V57.9774C255.483 57.7373 255.288 57.543 255.048 57.543C254.808 57.543 254.614 57.7373 254.614 57.9774V60.6072L253.444 59.4373C253.274 59.2676 252.999 59.2676 252.829 59.4373C252.66 59.6067 252.66 59.8819 252.829 60.0516L254.741 61.963Z" fill="black"/>
<rect x="142.5" y="66.5" width="19" height="13" fill="white" stroke="#34B9F0"/>
<path d="M149.445 76H145.453V75.16L146.885 73.712C147.173 73.4133 147.405 73.1653 147.581 72.968C147.757 72.7653 147.885 72.584 147.965 72.424C148.045 72.2587 148.085 72.0827 148.085 71.896C148.085 71.6667 148.021 71.496 147.893 71.384C147.77 71.272 147.602 71.216 147.389 71.216C147.17 71.216 146.957 71.2667 146.749 71.368C146.541 71.4693 146.322 71.6133 146.093 71.8L145.437 71.024C145.602 70.88 145.775 70.7467 145.957 70.624C146.143 70.5013 146.357 70.4027 146.597 70.328C146.842 70.248 147.135 70.208 147.477 70.208C147.85 70.208 148.17 70.2773 148.437 70.416C148.709 70.5493 148.917 70.7333 149.061 70.968C149.21 71.1973 149.285 71.4587 149.285 71.752C149.285 71.992 149.247 72.2133 149.173 72.416C149.103 72.6187 148.999 72.816 148.861 73.008C148.727 73.1947 148.562 73.3893 148.365 73.592C148.167 73.7893 147.943 74.0053 147.693 74.24L146.957 74.928V74.984H149.445V76ZM153.015 76H151.807V72.696C151.807 72.6053 151.807 72.4933 151.807 72.36C151.812 72.2267 151.818 72.088 151.823 71.944C151.828 71.8 151.834 71.672 151.839 71.56C151.812 71.592 151.754 71.6507 151.663 71.736C151.578 71.816 151.498 71.888 151.423 71.952L150.767 72.48L150.183 71.752L152.023 70.288H153.015V76ZM157.593 76H156.385V72.696C156.385 72.6053 156.385 72.4933 156.385 72.36C156.39 72.2267 156.396 72.088 156.401 71.944C156.406 71.8 156.412 71.672 156.417 71.56C156.39 71.592 156.332 71.6507 156.241 71.736C156.156 71.816 156.076 71.888 156.001 71.952L155.345 72.48L154.761 71.752L156.601 70.288H157.593V76Z" fill="#F3858E"/>
<rect x="23.5" y="13.5" width="68" height="23" fill="white" stroke="#34B9F0"/>
<path d="M35.504 22.24C35.504 21.624 35.504 18.312 35.504 17.64C35.504 17.352 35.48 16.96 35.424 16.672H36.672C36.64 16.96 36.6 17.304 36.6 17.64C36.6 18.52 36.608 21.648 36.608 22.24C36.608 22.464 36.64 23.024 36.68 23.352H35.424C35.48 23.04 35.504 22.552 35.504 22.24ZM36.368 18.744C37.432 19.04 39.16 19.672 39.944 20.056L39.496 21.168C38.584 20.696 37.24 20.184 36.368 19.896V18.744ZM47.416 16.792C47.4 17.016 47.392 17.272 47.392 17.6C47.392 18.008 47.392 18.784 47.392 19.176C47.392 20.904 47.056 21.64 46.456 22.296C45.928 22.88 45.104 23.264 44.52 23.456L43.68 22.568C44.48 22.384 45.12 22.08 45.608 21.56C46.152 20.96 46.264 20.36 46.264 19.112C46.264 18.712 46.264 17.944 46.264 17.6C46.264 17.272 46.24 17.016 46.208 16.792H47.416ZM43.712 16.864C43.696 17.048 43.68 17.224 43.68 17.472C43.68 17.824 43.68 19.728 43.68 20.176C43.68 20.376 43.696 20.688 43.712 20.872H42.544C42.56 20.728 42.584 20.416 42.584 20.168C42.584 19.712 42.584 17.824 42.584 17.472C42.584 17.328 42.576 17.048 42.552 16.864H43.712ZM51.272 16.736C52.328 16.864 54.632 17.336 55.64 17.688L55.232 18.68C54.296 18.336 52.032 17.832 50.904 17.688L51.272 16.736ZM50.912 18.888C52.056 19.08 54.088 19.52 55.088 19.864L54.696 20.864C53.784 20.512 51.728 20.048 50.536 19.856L50.912 18.888ZM50.496 21.184C51.872 21.392 54.328 21.968 55.432 22.376L54.992 23.376C53.912 22.936 51.376 22.384 50.096 22.184L50.496 21.184ZM58.928 16.92C59.48 17.296 60.52 18.128 60.992 18.616L60.176 19.448C59.76 19 58.752 18.128 58.168 17.728L58.928 16.92ZM57.92 22.248C59.176 22.072 60.208 21.664 60.984 21.208C62.352 20.392 63.392 19.176 63.904 18.096L64.52 19.216C63.92 20.304 62.856 21.408 61.568 22.184C60.752 22.672 59.72 23.112 58.6 23.304L57.92 22.248ZM71.232 16.448C71.432 16.744 71.712 17.248 71.864 17.544L71.224 17.824C71.056 17.496 70.808 17.016 70.592 16.712L71.232 16.448ZM72.176 16.088C72.384 16.392 72.68 16.896 72.824 17.176L72.184 17.448C72.016 17.12 71.76 16.648 71.544 16.352L72.176 16.088ZM71.944 18.208C71.856 18.368 71.744 18.584 71.68 18.784C71.464 19.496 71.008 20.568 70.288 21.456C69.528 22.384 68.56 23.12 67.056 23.712L66.112 22.872C67.752 22.376 68.64 21.68 69.336 20.888C69.88 20.264 70.344 19.304 70.472 18.712H67.776L68.144 17.8C68.504 17.8 70.176 17.8 70.432 17.8C70.68 17.8 70.944 17.768 71.128 17.704L71.944 18.208ZM69.336 16.944C69.152 17.224 68.944 17.592 68.848 17.76C68.312 18.728 67.352 19.856 66.208 20.64L65.304 19.976C66.712 19.12 67.408 18.088 67.808 17.4C67.928 17.208 68.096 16.832 68.168 16.56L69.336 16.944ZM76.44 23.096C75.104 23.096 74.392 22.424 74.392 21.448C74.392 19.696 77.2 19.52 77.2 18.32C77.2 17.976 76.992 17.744 76.64 17.744C76.264 17.744 76.016 17.984 76.016 18.432C76.016 19.352 77.616 20.56 78.68 21.4C79.152 21.768 79.616 22.048 79.872 22.184L79.352 23.104C78.92 22.856 78.528 22.616 77.952 22.136C76.616 21 75.08 19.76 75.08 18.472C75.08 17.544 75.736 16.96 76.616 16.96C77.512 16.96 78.096 17.456 78.096 18.28C78.096 19.952 75.44 20.184 75.44 21.416C75.44 21.936 75.904 22.2 76.544 22.2C77.048 22.2 77.536 21.848 77.936 21.32C78.28 20.88 78.512 20.368 78.608 19.696H79.648C79.48 20.504 79.176 21.2 78.704 21.872C78.168 22.624 77.504 23.096 76.44 23.096ZM27.504 32.24C27.504 31.624 27.504 28.312 27.504 27.64C27.504 27.352 27.48 26.96 27.424 26.672H28.672C28.64 26.96 28.6 27.304 28.6 27.64C28.6 28.52 28.608 31.648 28.608 32.24C28.608 32.464 28.64 33.024 28.68 33.352H27.424C27.48 33.04 27.504 32.552 27.504 32.24ZM28.368 28.744C29.432 29.04 31.16 29.672 31.944 30.056L31.496 31.168C30.584 30.696 29.24 30.184 28.368 29.896V28.744ZM34.56 32.688C34.648 32.488 34.664 32.352 34.664 32.168C34.664 31.56 34.664 28.72 34.664 27.824C34.664 27.528 34.616 27.144 34.568 26.92H35.824C35.784 27.224 35.752 27.52 35.752 27.824C35.752 28.712 35.752 31.376 35.752 31.984C37.056 31.616 38.84 30.592 39.864 29.336L40.432 30.248C39.336 31.552 37.672 32.512 35.784 33.128C35.68 33.16 35.504 33.216 35.312 33.344L34.56 32.688ZM41.728 29.296C42.024 29.32 42.6 29.352 43.016 29.352C43.96 29.352 46.6 29.352 47.312 29.352C47.688 29.352 48.04 29.312 48.256 29.296V30.56C48.064 30.552 47.656 30.512 47.32 30.512C46.592 30.512 43.96 30.512 43.016 30.512C42.568 30.512 42.032 30.536 41.728 30.56V29.296ZM50.352 27.568C50.648 27.6 51.016 27.616 51.296 27.616C51.968 27.616 54.168 27.616 54.608 27.616C54.928 27.616 55.264 27.6 55.496 27.568V28.728C55.264 28.72 54.888 28.704 54.608 28.704C54.184 28.704 51.744 28.704 51.296 28.704C50.992 28.704 50.624 28.72 50.352 28.728V27.568ZM49.68 31.488C49.992 31.504 50.368 31.536 50.688 31.536C51.192 31.536 54.776 31.536 55.28 31.536C55.544 31.536 55.888 31.512 56.16 31.488V32.712C55.872 32.68 55.512 32.656 55.28 32.656C54.776 32.656 51.192 32.656 50.688 32.656C50.368 32.656 49.984 32.68 49.68 32.712V31.488ZM58.928 26.92C59.48 27.296 60.52 28.128 60.992 28.616L60.176 29.448C59.76 29 58.752 28.128 58.168 27.728L58.928 26.92ZM57.92 32.248C59.176 32.072 60.208 31.664 60.984 31.208C62.352 30.392 63.392 29.176 63.904 28.096L64.52 29.216C63.92 30.304 62.856 31.408 61.568 32.184C60.752 32.672 59.72 33.112 58.6 33.304L57.92 32.248ZM71.232 26.448C71.432 26.744 71.712 27.248 71.864 27.544L71.224 27.824C71.056 27.496 70.808 27.016 70.592 26.712L71.232 26.448ZM72.176 26.088C72.384 26.392 72.68 26.896 72.824 27.176L72.184 27.448C72.016 27.12 71.76 26.648 71.544 26.352L72.176 26.088ZM71.944 28.208C71.856 28.368 71.744 28.584 71.68 28.784C71.464 29.496 71.008 30.568 70.288 31.456C69.528 32.384 68.56 33.12 67.056 33.712L66.112 32.872C67.752 32.376 68.64 31.68 69.336 30.888C69.88 30.264 70.344 29.304 70.472 28.712H67.776L68.144 27.8C68.504 27.8 70.176 27.8 70.432 27.8C70.68 27.8 70.944 27.768 71.128 27.704L71.944 28.208ZM69.336 26.944C69.152 27.224 68.944 27.592 68.848 27.76C68.312 28.728 67.352 29.856 66.208 30.64L65.304 29.976C66.712 29.12 67.408 28.088 67.808 27.4C67.928 27.208 68.096 26.832 68.168 26.56L69.336 26.944ZM73.496 28.504H80.512V30.256H79.568V29.336H74.392V30.256H73.496V28.504ZM74.656 29.952H78.872V30.832H74.656V29.952ZM79.568 26.16L80.216 26.936C78.408 27.288 75.912 27.464 73.784 27.528C73.768 27.288 73.656 26.92 73.568 26.712C75.688 26.64 78.096 26.448 79.568 26.16ZM74.272 27.68L75.112 27.448C75.296 27.736 75.496 28.12 75.568 28.384L74.688 28.648C74.624 28.384 74.44 27.984 74.272 27.68ZM76.384 27.512L77.232 27.32C77.4 27.64 77.56 28.072 77.6 28.36L76.704 28.576C76.672 28.296 76.536 27.848 76.384 27.512ZM78.928 27.304L79.944 27.544C79.664 28.04 79.344 28.56 79.104 28.904L78.32 28.672C78.536 28.288 78.792 27.72 78.928 27.304ZM78.52 29.952H78.72L78.888 29.92L79.536 30.304C78.584 32.4 76.392 33.288 73.872 33.648C73.776 33.408 73.504 32.984 73.312 32.784C75.776 32.536 77.8 31.808 78.52 30.104V29.952ZM75.6 30.6C76.496 31.816 78.328 32.512 80.656 32.728C80.456 32.944 80.192 33.36 80.072 33.632C77.664 33.32 75.88 32.48 74.76 30.944L75.6 30.6ZM83.8 27.936H88.744V28.912H83.8V27.936ZM86.864 26.296H87.856V32.56C87.856 33.168 87.712 33.424 87.328 33.568C86.936 33.72 86.328 33.736 85.44 33.728C85.392 33.464 85.216 33.032 85.072 32.776C85.696 32.808 86.392 32.808 86.584 32.8C86.784 32.792 86.864 32.736 86.864 32.552V26.296ZM84.16 29.88L85.008 29.48C85.368 30.064 85.872 30.856 86.112 31.344L85.2 31.808C84.992 31.32 84.52 30.496 84.16 29.88ZM82.328 28.56L83.296 27.592L83.304 27.608V33.704H82.328V28.56ZM83.128 26.248L84.072 26.552C83.536 27.944 82.672 29.408 81.768 30.328C81.664 30.088 81.376 29.56 81.2 29.32C81.968 28.592 82.696 27.424 83.128 26.248Z" fill="#F3858E"/>
<path d="M305.07 59.0171C304.788 59.0686 304.56 59.1909 304.366 59.3959C303.894 59.8946 303.917 60.687 304.418 61.1582C304.733 61.4567 305.178 61.567 305.607 61.4555C305.738 61.4219 305.944 61.3152 306.059 61.2229C306.45 60.91 306.615 60.3873 306.476 59.9054C306.362 59.511 306.066 59.2005 305.684 59.0698C305.487 59.0027 305.257 58.9835 305.07 59.0171Z" fill="black"/>
<path d="M303.473 61.7693C303.268 61.7837 303.088 61.8341 302.895 61.93C302.392 62.1817 302.062 62.6732 302.01 63.2475C302.001 63.3482 301.998 64.0063 302.001 65.3766L302.004 67.3606L302.031 67.4385C302.08 67.5824 302.177 67.6939 302.305 67.7526C302.355 67.7766 302.384 67.7802 302.496 67.7802C302.617 67.7802 302.634 67.7778 302.7 67.7454C302.835 67.6783 302.935 67.5476 302.972 67.3882C302.984 67.339 302.987 66.9039 302.987 65.4101V63.4944H303.285H303.581V68.5978C303.581 73.0418 303.583 73.7132 303.599 73.7863C303.666 74.1076 303.955 74.3426 304.283 74.3438C304.378 74.3438 304.523 74.3066 304.615 74.2574C304.723 74.1999 304.849 74.0704 304.904 73.9601C304.988 73.7875 304.984 74.0213 304.984 70.7257V67.7502H305.277H305.571V70.7317C305.572 74.0165 305.566 73.7899 305.649 73.9553C305.728 74.116 305.865 74.2359 306.048 74.3054C306.118 74.3318 306.146 74.3366 306.272 74.3366C306.398 74.3366 306.427 74.3318 306.496 74.3054C306.68 74.2359 306.817 74.116 306.894 73.9577C306.98 73.7851 306.974 74.243 306.974 68.5978V63.4944H307.267H307.561V65.3982C307.561 66.7145 307.565 67.3247 307.574 67.3738C307.605 67.5428 307.701 67.6759 307.846 67.7466C307.931 67.7898 307.943 67.7922 308.045 67.791C308.127 67.791 308.17 67.7838 308.218 67.7658C308.388 67.6975 308.502 67.5428 308.532 67.3354C308.548 67.2216 308.548 63.4645 308.532 63.2786C308.467 62.5474 307.961 61.9575 307.267 61.8017C307.191 61.7849 307.101 61.7765 306.956 61.7729C306.59 61.7645 303.591 61.7609 303.473 61.7693Z" fill="black"/>
<path d="M312.832 59.0181C312.395 59.0972 312.042 59.3769 311.872 59.7782C311.796 59.9533 311.768 60.1114 311.776 60.3133C311.779 60.4264 311.789 60.5079 311.806 60.576C311.904 60.9481 312.14 61.2424 312.475 61.4078C313.107 61.7191 313.864 61.4625 314.174 60.8301C314.25 60.6733 314.284 60.5553 314.3 60.3899C314.343 59.9266 314.126 59.4705 313.742 59.2164C313.468 59.0364 313.135 58.9634 312.832 59.0181Z" fill="black"/>
<path d="M311.497 61.827C311.036 61.8988 310.65 62.1553 310.374 62.5725C310.244 62.7683 310.278 62.6685 309.778 64.3139C309.581 64.9621 309.367 65.6662 309.214 66.1721C309.149 66.3825 309.091 66.5892 309.084 66.6342C309.034 66.9164 309.182 67.1791 309.434 67.2569C309.63 67.3177 309.828 67.263 309.964 67.1122C310.066 66.9979 310.052 67.0392 310.423 65.7915C310.504 65.5166 310.622 65.1226 310.684 64.9159C310.745 64.7079 310.861 64.3212 310.94 64.0549L311.084 63.5721H311.349C311.57 63.5721 311.615 63.5745 311.615 63.5891C311.615 63.5989 311.576 63.7448 311.528 63.915C311.443 64.2203 311.189 65.136 310.526 67.5183C310.021 69.334 310.009 69.3765 310.002 69.3997C309.996 69.4203 310.038 69.4215 310.78 69.4215H311.566V71.7346C311.566 74.2543 311.562 74.123 311.634 74.2641C311.697 74.3893 311.824 74.4927 311.97 74.5377C312.066 74.5693 312.268 74.5656 312.361 74.5304C312.54 74.4659 312.657 74.3455 312.718 74.1643C312.738 74.1011 312.739 73.9892 312.743 71.7467L312.745 69.3972H313.043H313.341V71.7504C313.341 74.1011 313.341 74.1047 313.367 74.1801C313.444 74.4088 313.626 74.5438 313.883 74.562C314.19 74.5827 314.449 74.3844 314.495 74.0914C314.504 74.0391 314.509 73.2413 314.509 71.7163V69.4215H315.287C315.794 69.4215 316.065 69.4179 316.065 69.4094C316.065 69.4033 315.978 69.0835 315.87 68.7016C315.763 68.3185 315.626 67.8321 315.567 67.6217C315.507 67.4113 315.371 66.9237 315.263 66.5394C314.928 65.3476 314.851 65.0716 314.764 64.7639C314.718 64.5997 314.626 64.2701 314.559 64.0306C314.491 63.791 314.436 63.5903 314.436 63.5843C314.436 63.577 314.545 63.5721 314.716 63.5721H314.994L315.02 63.6597C315.034 63.7083 315.056 63.7813 315.068 63.8214C315.08 63.8615 315.135 64.0452 315.19 64.2288C315.245 64.4124 315.336 64.7189 315.393 64.9098C315.449 65.1007 315.534 65.3841 315.58 65.5385C315.758 66.1344 315.838 66.4068 315.902 66.6245C315.939 66.7486 315.982 66.8799 315.995 66.9164C316.096 67.1778 316.326 67.325 316.565 67.2812C316.841 67.2313 317.02 66.9845 316.998 66.6853C316.991 66.5941 316.981 66.5588 316.709 65.6638C316.466 64.8648 316.075 63.5794 315.972 63.2377C315.92 63.0626 315.857 62.8862 315.827 62.8218C315.755 62.671 315.622 62.4971 315.457 62.3402C315.158 62.0532 314.815 61.8805 314.442 61.827C314.273 61.8027 311.651 61.8027 311.497 61.827Z" fill="black"/>
<path d="M322.279 64.0357C323.116 64.0357 323.797 63.3548 323.797 62.5178C323.797 61.681 323.116 61 322.279 61C321.443 61 320.762 61.681 320.762 62.5178C320.762 63.3548 321.443 64.0357 322.279 64.0357Z" fill="black"/>
<path d="M325.448 71.2749C325.449 71.2735 325.449 71.2722 325.45 71.2708L323.905 71.273C323.859 71.3662 323.804 71.4573 323.738 71.5515C323.563 71.8 323.343 72.0111 323.084 72.1789C322.827 72.3443 322.544 72.4573 322.244 72.5147C322.101 72.5418 321.955 72.5556 321.81 72.5556C321.643 72.5556 321.474 72.5374 321.307 72.5016C320.993 72.4331 320.704 72.3068 320.448 72.1263C320.197 71.9493 319.987 71.7295 319.821 71.4726C319.656 71.2156 319.543 70.9329 319.486 70.6324C319.427 70.3237 319.432 70.0084 319.499 69.6955C319.567 69.3817 319.693 69.0927 319.874 68.8362C320.051 68.586 320.271 68.3752 320.528 68.2099C320.787 68.0429 321.07 67.9299 321.371 67.8693L321.099 66.4546C320.616 66.5456 320.16 66.7274 319.745 66.9951C319.329 67.2636 318.975 67.6035 318.693 68.0054C318.4 68.4217 318.196 68.8875 318.086 69.3896C317.978 69.8925 317.972 70.401 318.066 70.9009C318.157 71.3846 318.339 71.8402 318.607 72.2551C318.876 72.672 319.216 73.0261 319.617 73.3074C320.033 73.6005 320.499 73.8045 321.001 73.9139C321.269 73.9712 321.54 74.0001 321.809 74.0001C322.045 74.0001 322.282 73.978 322.512 73.9342C322.999 73.8414 323.455 73.6591 323.867 73.3925C324.282 73.1255 324.636 72.786 324.919 72.3835C325.133 72.0792 325.296 71.7478 325.409 71.395C325.422 71.3549 325.438 71.3155 325.45 71.2749H325.448V71.2749Z" fill="black"/>
<path d="M328.733 68.7257L323.859 68.729L323.65 67.4979L323.617 67.2989L326.907 67.2971L327.467 66.393L327.769 65.9107H327.766L327.769 65.9066L323.392 65.91L323.158 64.5073L321.922 64.5114H321.727L321.727 64.512H321.723L322.656 70.1458L327.531 70.1423L328.094 73.5344H329.532L328.733 68.7257Z" fill="black"/>
<rect x="20" y="84" width="86" height="24" fill="white" stroke="#34B9F0" stroke-width="2"/>
<path d="M33.4092 97.624C33.4092 98.128 33.2852 98.568 33.0372 98.944C32.7892 99.32 32.4292 99.612 31.9572 99.82C31.4932 100.02 30.9252 100.12 30.2532 100.12C29.9572 100.12 29.6652 100.1 29.3772 100.06C29.0972 100.02 28.8252 99.964 28.5612 99.892C28.3052 99.812 28.0612 99.716 27.8292 99.604V97.912C28.2372 98.088 28.6572 98.252 29.0892 98.404C29.5292 98.548 29.9652 98.62 30.3972 98.62C30.6932 98.62 30.9292 98.58 31.1052 98.5C31.2892 98.42 31.4212 98.312 31.5012 98.176C31.5892 98.04 31.6332 97.884 31.6332 97.708C31.6332 97.492 31.5572 97.308 31.4052 97.156C31.2612 97.004 31.0652 96.864 30.8172 96.736C30.5692 96.6 30.2852 96.456 29.9652 96.304C29.7652 96.208 29.5492 96.096 29.3172 95.968C29.0852 95.832 28.8612 95.668 28.6452 95.476C28.4372 95.276 28.2652 95.036 28.1292 94.756C27.9932 94.476 27.9252 94.14 27.9252 93.748C27.9252 93.236 28.0412 92.8 28.2732 92.44C28.5132 92.072 28.8492 91.792 29.2812 91.6C29.7212 91.408 30.2372 91.312 30.8292 91.312C31.2772 91.312 31.7012 91.364 32.1012 91.468C32.5092 91.572 32.9332 91.72 33.3732 91.912L32.7852 93.328C32.3932 93.168 32.0412 93.044 31.7292 92.956C31.4172 92.868 31.0972 92.824 30.7692 92.824C30.5452 92.824 30.3532 92.86 30.1932 92.932C30.0332 93.004 29.9092 93.104 29.8212 93.232C29.7412 93.36 29.7012 93.512 29.7012 93.688C29.7012 93.888 29.7612 94.06 29.8812 94.204C30.0012 94.34 30.1812 94.472 30.4212 94.6C30.6612 94.728 30.9612 94.88 31.3212 95.056C31.7612 95.264 32.1332 95.48 32.4372 95.704C32.7492 95.928 32.9892 96.192 33.1572 96.496C33.3252 96.8 33.4092 97.176 33.4092 97.624ZM38.2665 100H36.4545V92.944H34.1265V91.432H40.5945V92.944H38.2665V100ZM46.316 100L45.692 97.96H42.572L41.948 100H39.992L43.016 91.396H45.236L48.272 100H46.316ZM44.636 94.444C44.596 94.308 44.544 94.136 44.48 93.928C44.416 93.72 44.352 93.508 44.288 93.292C44.224 93.076 44.172 92.888 44.132 92.728C44.092 92.888 44.036 93.088 43.964 93.328C43.9 93.56 43.836 93.784 43.772 94C43.716 94.208 43.672 94.356 43.64 94.444L43.028 96.436H45.26L44.636 94.444ZM51.1452 100H49.3572V91.432H54.2652V92.92H51.1452V95.128H54.0492V96.616H51.1452V100ZM57.7311 100H55.9431V91.432H60.8511V92.92H57.7311V95.128H60.6351V96.616H57.7311V100ZM73.4222 95.704C73.4222 96.368 73.3382 96.972 73.1702 97.516C73.0102 98.052 72.7622 98.516 72.4262 98.908C72.0982 99.3 71.6742 99.6 71.1542 99.808C70.6422 100.016 70.0382 100.12 69.3422 100.12C68.6462 100.12 68.0382 100.016 67.5182 99.808C67.0062 99.592 66.5822 99.292 66.2462 98.908C65.9182 98.516 65.6702 98.048 65.5022 97.504C65.3422 96.96 65.2622 96.356 65.2622 95.692C65.2622 94.804 65.4062 94.032 65.6942 93.376C65.9902 92.72 66.4382 92.212 67.0382 91.852C67.6462 91.484 68.4182 91.3 69.3542 91.3C70.2822 91.3 71.0462 91.484 71.6462 91.852C72.2462 92.212 72.6902 92.724 72.9782 93.388C73.2742 94.044 73.4222 94.816 73.4222 95.704ZM67.1702 95.704C67.1702 96.304 67.2462 96.82 67.3982 97.252C67.5502 97.684 67.7862 98.016 68.1062 98.248C68.4262 98.48 68.8382 98.596 69.3422 98.596C69.8622 98.596 70.2782 98.48 70.5902 98.248C70.9102 98.016 71.1422 97.684 71.2862 97.252C71.4382 96.82 71.5142 96.304 71.5142 95.704C71.5142 94.8 71.3462 94.092 71.0102 93.58C70.6742 93.068 70.1222 92.812 69.3542 92.812C68.8422 92.812 68.4262 92.928 68.1062 93.16C67.7862 93.392 67.5502 93.724 67.3982 94.156C67.2462 94.588 67.1702 95.104 67.1702 95.704ZM82.793 100H80.489L76.757 93.52H76.709C76.717 93.72 76.725 93.924 76.733 94.132C76.741 94.332 76.749 94.536 76.757 94.744C76.773 94.944 76.785 95.148 76.793 95.356C76.801 95.556 76.809 95.76 76.817 95.968V100H75.197V91.432H77.489L81.209 97.852H81.245C81.237 97.652 81.229 97.456 81.221 97.264C81.213 97.064 81.205 96.868 81.197 96.676C81.197 96.476 81.193 96.28 81.185 96.088C81.177 95.888 81.169 95.688 81.161 95.488V91.432H82.793V100ZM84.9587 100V91.432H86.7707V98.5H90.2507V100H84.9587ZM94.0446 94.96L95.8326 91.432H97.7886L94.9446 96.664V100H93.1446V96.724L90.3006 91.432H92.2686L94.0446 94.96Z" fill="#F3858E"/>
<path d="M25.7501 71C25.4404 71 24.1572 71 24.1572 71V71.9293C24.1572 71.9293 25.0423 71.9293 25.9715 71.9293C27.6973 71.9293 28.1396 72.7698 28.1396 72.7698C28.1396 72.7698 28.1396 72.7698 28.4493 72.5486C27.9184 71.177 26.0601 71 25.7501 71Z" fill="black"/>
<path d="M22.1568 78.167L22 78.958H23.0798L22.9229 78.167H22.1568Z" fill="black"/>
<path d="M25.5586 73.2514V72.4747C25.5586 72.3169 25.4306 72.189 25.2724 72.189H24.7388C24.5804 72.189 24.4527 72.3169 24.4527 72.4747V73.2666C23.7824 73.5033 23.3018 74.1425 23.3018 74.8937V80.3363C23.3018 80.7027 23.5995 80.9998 23.9657 80.9998H26.0898C26.4564 80.9998 26.7533 80.7027 26.7533 80.3363V74.8937C26.7533 74.1258 26.252 73.4754 25.5586 73.2514ZM25.9457 78.9423H24.1094V76.6978H25.9457V78.9423Z" fill="black"/>
<path d="M22.745 74.9246C22.7448 74.169 23.1321 73.4763 23.7461 73.0743L23.7481 73.0729L23.7483 73.0731C23.7514 73.0701 23.875 72.9924 24.0708 72.9258V72.5C23.7469 72.5873 23.5422 72.7204 23.5225 72.7329C23.5223 72.7331 23.5223 72.7331 23.5223 72.7331C23.5219 72.7333 23.5199 72.7345 23.5197 72.7347L23.5199 72.7349C22.794 73.2115 22.3371 74.0299 22.3369 74.9246V78.027H22.745V74.9246ZM23.7513 73.0709L23.7489 73.0727L23.7487 73.0725L23.7513 73.0709Z" fill="black"/>
<path d="M320.75 82C320.44 82 319.157 82 319.157 82V82.9293C319.157 82.9293 320.042 82.9293 320.971 82.9293C322.697 82.9293 323.14 83.7698 323.14 83.7698C323.14 83.7698 323.14 83.7698 323.449 83.5486C322.918 82.177 321.06 82 320.75 82Z" fill="black"/>
<path d="M317.157 89.167L317 89.958H318.08L317.923 89.167H317.157Z" fill="black"/>
<path d="M320.559 84.2514V83.4747C320.559 83.3169 320.431 83.189 320.272 83.189H319.739C319.58 83.189 319.453 83.3169 319.453 83.4747V84.2666C318.782 84.5033 318.302 85.1425 318.302 85.8937V91.3363C318.302 91.7027 318.599 91.9998 318.966 91.9998H321.09C321.456 91.9998 321.753 91.7027 321.753 91.3363V85.8937C321.753 85.1258 321.252 84.4754 320.559 84.2514ZM320.946 89.9423H319.109V87.6978H320.946V89.9423Z" fill="black"/>
<path d="M317.745 85.9246C317.745 85.169 318.132 84.4763 318.746 84.0743L318.748 84.0729L318.748 84.0731C318.751 84.0701 318.875 83.9924 319.071 83.9258V83.5C318.747 83.5873 318.542 83.7204 318.522 83.7329C318.522 83.7331 318.522 83.7331 318.522 83.7331C318.522 83.7333 318.52 83.7345 318.52 83.7347L318.52 83.7349C317.794 84.2115 317.337 85.0299 317.337 85.9246V89.027H317.745V85.9246ZM318.751 84.0709L318.749 84.0727L318.749 84.0725L318.751 84.0709Z" fill="black"/>
<path d="M318.33 34.5336C318.33 35.2824 318.94 35.889 319.685 35.889C320.434 35.889 321.041 35.2824 321.041 34.5336C321.041 33.7882 320.434 33.1782 319.685 33.1782C318.94 33.1782 318.33 33.7882 318.33 34.5336Z" fill="black"/>
<path d="M319 48.4602L318.502 48.4575L318.503 48.4602H318.496L319.119 49.9952H320.99L320.302 48.4602H319Z" fill="black"/>
<path d="M314.059 30H314.007H314V49.9272V49.9881V49.995H316.357L318.082 50L318.076 49.995H318.086L316.318 48.3381V40.1584H318.503L319.682 39.0949L320.025 38.788L321.031 40.9547L319.15 45.5726L318.439 47.3112H318.442L318.439 47.318H320.245L321.687 44.1098L322.829 41.5833L323.792 45.6409H328.611C328.889 45.6409 329.055 45.336 328.902 45.1055L328.306 44.2042C328.292 44.1873 328.279 44.1738 328.265 44.1567C328.201 44.089 328.113 44.0483 328.018 44.0483H325.212L324.504 40.3312L323.546 38.2613L323.152 37.4037H324.633L325.605 39.2402C325.666 39.3554 325.785 39.4164 325.9 39.4164C325.961 39.4164 326.022 39.3994 326.076 39.3656L326.75 38.9488C326.9 38.8539 326.95 38.6575 326.862 38.5049L325.429 35.9636H321.81C320.99 35.9636 320.211 36.3058 319.659 36.909L318.117 38.5862H316.318V31.8772H328.627H328.658V43.6484C328.824 43.7027 328.97 43.8112 329.068 43.9603L329.665 44.8582C329.824 45.102 329.841 45.4104 329.702 45.6679C329.563 45.9255 329.299 46.0848 329.007 46.0848H328.658V48.3381L330.43 49.995H330.979V30H314.059Z" fill="black"/>
<path d="M317.625 96.3994C316.447 96.3994 315.673 97.0265 315.443 97.7614C315.214 97.0265 314.44 96.3994 313.262 96.3994C312.017 96.3994 310.892 97.5402 311.008 99.0999C311.168 101.24 314.828 104 315.443 104C316.059 104 319.719 101.24 319.879 99.0999C319.995 97.5402 318.87 96.3994 317.625 96.3994ZM317.242 99.7078L314.016 102.469L315.09 100.52H314.21L315.132 98.2467H317.27L316.163 99.7079H317.242V99.7078Z" fill="black"/>
<path d="M312.639 95.8686H312.905C312.924 95.8686 312.935 95.8604 312.941 95.8411L313.064 95.4786L313.099 95.3757H313.733L313.768 95.4786L313.892 95.8411C313.897 95.8604 313.908 95.8686 313.927 95.8686H314.197C314.216 95.8686 314.221 95.8573 314.216 95.8411L313.584 94.0275C313.578 94.0113 313.567 94 313.548 94H313.295C313.276 94 313.265 94.0113 313.259 94.0275L312.619 95.8411C312.614 95.8573 312.619 95.8686 312.639 95.8686ZM313.413 94.4645H313.422L313.656 95.1511H313.177L313.413 94.4645Z" fill="black"/>
<path d="M314.893 95.8686H316.064C316.081 95.8686 316.092 95.8573 316.092 95.8411V95.6046C316.092 95.5881 316.081 95.5774 316.064 95.5774H315.207C315.196 95.5774 315.19 95.5716 315.19 95.5607V95.0883C315.19 95.0773 315.196 95.0718 315.207 95.0718H315.799C315.815 95.0718 315.826 95.0608 315.826 95.0443V94.8081C315.826 94.7913 315.815 94.7803 315.799 94.7803H315.207C315.196 94.7803 315.19 94.7748 315.19 94.7638V94.3082C315.19 94.2966 315.196 94.2914 315.207 94.2914H316.064C316.081 94.2914 316.092 94.2802 316.092 94.2637V94.0275C316.092 94.0113 316.081 94 316.064 94H314.893C314.877 94 314.866 94.0113 314.866 94.0275V95.8411C314.866 95.8573 314.877 95.8686 314.893 95.8686Z" fill="black"/>
<path d="M316.932 95.8686H317.6C317.921 95.8686 318.135 95.7258 318.223 95.4536C318.254 95.3602 318.27 95.2586 318.27 94.9341C318.27 94.61 318.254 94.5084 318.223 94.415C318.135 94.1431 317.921 94 317.599 94H316.932C316.915 94 316.904 94.0113 316.904 94.0275V95.8411C316.904 95.8573 316.915 95.8686 316.932 95.8686ZM317.229 94.3082C317.229 94.2966 317.234 94.2914 317.245 94.2914H317.523C317.729 94.2914 317.855 94.3601 317.91 94.5277C317.929 94.5798 317.943 94.6622 317.943 94.9342C317.943 95.2036 317.929 95.2891 317.91 95.341C317.855 95.5085 317.729 95.5775 317.523 95.5775H317.245C317.234 95.5775 317.229 95.5717 317.229 95.5607V94.3082Z" fill="black"/>
</svg>
