<svg width="16" height="16" viewBox="0 0 16 16" fill="none" xmlns="http://www.w3.org/2000/svg">
<path fill-rule="evenodd" clip-rule="evenodd" d="M0 8C0 3.58173 3.58173 0 8 0C12.4183 0 16 3.58173 16 8C16 12.4183 12.4183 16 8 16C3.58173 16 0 12.4183 0 8ZM8.0004 3.73333C6.84163 3.73333 6.6962 3.7384 6.2411 3.7591C5.78687 3.7799 5.47683 3.85183 5.20553 3.95733C4.9249 4.0663 4.68687 4.2121 4.4497 4.44933C4.21237 4.6865 4.06657 4.92453 3.95723 5.20507C3.85147 5.47647 3.77947 5.7866 3.75903 6.24063C3.73867 6.69577 3.73333 6.84127 3.73333 8.00003C3.73333 9.1588 3.7385 9.3038 3.7591 9.7589C3.78 10.2131 3.8519 10.5232 3.95733 10.7945C4.0664 11.0751 4.21217 11.3131 4.44943 11.5503C4.6865 11.7876 4.92453 11.9338 5.205 12.0428C5.47647 12.1483 5.7866 12.2202 6.24073 12.241C6.69587 12.2617 6.8412 12.2668 7.99987 12.2668C9.15873 12.2668 9.3037 12.2617 9.75883 12.241C10.213 12.2202 10.5234 12.1483 10.7949 12.0428C11.0755 11.9338 11.3131 11.7876 11.5502 11.5503C11.7875 11.3131 11.9333 11.0751 12.0427 10.7946C12.1476 10.5232 12.2196 10.213 12.2409 9.759C12.2613 9.30387 12.2667 9.1588 12.2667 8.00003C12.2667 6.84127 12.2613 6.69587 12.2409 6.24073C12.2196 5.7865 12.1476 5.47647 12.0427 5.20517C11.9333 4.92453 11.7875 4.6865 11.5502 4.44933C11.3129 4.212 11.0755 4.06623 10.7947 3.95733C10.5226 3.85183 10.2124 3.7799 9.7582 3.7591C9.30307 3.7384 9.1582 3.73333 7.99907 3.73333H8.0004Z" fill="white"/>
<path fill-rule="evenodd" clip-rule="evenodd" d="M7.61796 4.50302C7.73156 4.50285 7.85833 4.50302 8.00073 4.50302C9.13993 4.50302 9.27496 4.50712 9.72483 4.52755C10.1408 4.54659 10.3666 4.61609 10.517 4.67449C10.7161 4.75182 10.8581 4.84425 11.0073 4.99359C11.1567 5.14292 11.2491 5.28515 11.3266 5.48429C11.385 5.63449 11.4546 5.86029 11.4736 6.27629C11.494 6.72605 11.4985 6.86119 11.4985 7.99985C11.4985 9.13852 11.494 9.27365 11.4736 9.72342C11.4545 10.1394 11.385 10.3652 11.3266 10.5154C11.2493 10.7146 11.1567 10.8563 11.0073 11.0056C10.858 11.1549 10.7162 11.2474 10.517 11.3247C10.3668 11.3834 10.1408 11.4527 9.72483 11.4717C9.27506 11.4922 9.13993 11.4966 8.00073 11.4966C6.86143 11.4966 6.7264 11.4922 6.27663 11.4717C5.86063 11.4525 5.63483 11.383 5.48436 11.3246C5.28523 11.2473 5.143 11.1548 4.99366 11.0055C4.84433 10.8562 4.7519 10.7143 4.6744 10.5151C4.616 10.3649 4.5464 10.1391 4.52746 9.72309C4.507 9.27329 4.50293 9.13819 4.50293 7.99879C4.50293 6.85939 4.507 6.72499 4.52746 6.27522C4.54646 5.85922 4.616 5.63342 4.6744 5.48302C4.75173 5.28392 4.84433 5.14169 4.99366 4.99235C5.143 4.84302 5.28523 4.75059 5.48436 4.67305C5.63476 4.61439 5.86063 4.54505 6.27663 4.52595C6.67023 4.50819 6.82276 4.50285 7.61796 4.50195V4.50302ZM10.2783 5.21145C9.9956 5.21145 9.76626 5.44055 9.76626 5.72329C9.76626 6.00595 9.9956 6.23529 10.2783 6.23529C10.5609 6.23529 10.7903 6.00595 10.7903 5.72329C10.7903 5.44062 10.5609 5.21145 10.2783 5.21145ZM8.00073 5.80969C6.79066 5.80969 5.8096 6.79079 5.8096 8.00082C5.8096 9.21089 6.79066 10.1915 8.00073 10.1915C9.2108 10.1915 10.1915 9.21089 10.1915 8.00082C10.1915 6.79079 9.2108 5.80969 8.00073 5.80969Z" fill="white"/>
<path fill-rule="evenodd" clip-rule="evenodd" d="M8.00036 6.57812C8.78579 6.57812 9.42259 7.21486 9.42259 8.00036C9.42259 8.78579 8.78579 9.42259 8.00036 9.42259C7.21482 9.42259 6.57812 8.78579 6.57812 8.00036C6.57812 7.21486 7.21482 6.57812 8.00036 6.57812Z" fill="white"/>
</svg>
