<svg width="16" height="16" viewBox="0 0 16 16" fill="none" xmlns="http://www.w3.org/2000/svg">
<path fill-rule="evenodd" clip-rule="evenodd" d="M8 16C12.4183 16 16 12.4183 16 8C16 3.58172 12.4183 0 8 0C3.58172 0 0 3.58172 0 8C0 12.4183 3.58172 16 8 16ZM8.14881 10.1338C8.36405 10.1316 8.57487 10.1112 8.75999 10.0328L8.75955 10.0315L9.50626 11.0258C9.12803 11.2176 8.69843 11.3279 8.24226 11.3327C6.70322 11.3496 5.44232 10.1604 5.42593 8.67672C5.40999 7.19305 6.64476 5.97688 8.18424 5.96005C8.64041 5.95518 9.07223 6.05615 9.45444 6.23951L8.77284 7.24752C8.5855 7.17356 8.33084 7.11953 8.11604 7.12174C7.25595 7.13104 6.56593 7.81309 6.57479 8.64484C6.58409 9.47658 7.28872 10.1431 8.14881 10.1338ZM12.2649 5.95615C10.7254 5.97298 9.49061 7.18915 9.507 8.67282C9.52294 10.1565 10.7838 11.3457 12.3233 11.3288C13.8628 11.312 15.0976 10.0958 15.0816 8.61215C15.0652 7.12847 13.8043 5.93932 12.2649 5.95615ZM12.3105 10.1485C11.4504 10.1578 10.7453 9.49128 10.7365 8.65954C10.7272 7.82779 11.4176 7.14575 12.2773 7.13645C13.1378 7.12715 13.8424 7.79413 13.8513 8.62544C13.8606 9.45718 13.1706 10.1388 12.31 10.1481L12.3105 10.1485ZM12.3009 9.28943C12.6468 9.28589 12.924 9.002 12.9205 8.65654L12.92 8.65699C12.9165 8.31109 12.6331 8.03384 12.2872 8.03739C11.9417 8.04093 11.6645 8.32438 11.668 8.67027C11.672 9.01573 11.9554 9.29342 12.3009 9.28943ZM4.05702 10.1171C3.37586 10.1247 2.79258 9.70791 2.57468 9.12108L4.36438 9.10159L4.35376 8.12813L2.55873 8.14761C2.7598 7.54883 3.33733 7.11258 4.02425 7.10506C4.23949 7.10284 4.49371 7.15687 4.68105 7.23084L5.36266 6.22282C4.98044 6.03947 4.54863 5.93849 4.09245 5.9438C2.55297 5.96063 1.31776 7.1768 1.33415 8.66048C1.35053 10.1442 2.61143 11.3333 4.15091 11.3165C4.60709 11.3116 5.03669 11.2013 5.41492 11.01L4.66821 10.0157C4.48264 10.0941 4.27226 10.1145 4.05702 10.1167V10.1171ZM2.15865 4.14513C2.2004 4.14381 2.24041 4.1438 2.27867 4.1438C2.2831 4.29571 2.28531 4.4485 2.28531 4.60219V4.98307C2.28531 5.0805 2.28354 5.17661 2.28 5.27095C2.27645 5.36528 2.27247 5.45829 2.26804 5.54997C2.30214 5.54687 2.33802 5.54554 2.37655 5.54554C2.41508 5.54554 2.45095 5.54687 2.48506 5.54997C2.48063 5.45829 2.47664 5.36528 2.4731 5.27095C2.46955 5.17661 2.46778 5.0805 2.46778 4.98307V4.60219C2.46778 4.4485 2.47 4.29571 2.47443 4.1438C2.51296 4.1438 2.55326 4.14424 2.59533 4.14513C2.63741 4.14601 2.67948 4.14734 2.72156 4.14955C2.76363 4.15177 2.80438 4.15398 2.84335 4.15708C2.88233 4.16018 2.91732 4.16373 2.94832 4.16816C2.94079 4.14158 2.93724 4.11855 2.93724 4.09951C2.93724 4.08179 2.94079 4.05832 2.94832 4.02865L2.90821 4.02974L2.90802 4.02975C2.82459 4.03203 2.7428 4.03427 2.66265 4.03617C2.56965 4.03839 2.47443 4.03972 2.37699 4.03972C2.27956 4.03972 2.18433 4.03839 2.09133 4.03617L2.07471 4.03578C1.98699 4.03369 1.89731 4.03156 1.80566 4.02865C1.81319 4.05832 1.81674 4.08091 1.81674 4.09729C1.81674 4.11811 1.81319 4.14158 1.80566 4.16816C1.83667 4.16373 1.87166 4.16018 1.91063 4.15708C1.94961 4.15443 1.99035 4.15177 2.03243 4.14955C2.0745 4.14734 2.11657 4.14601 2.15865 4.14513ZM4.47474 4.45706C4.51548 4.35874 4.57218 4.27592 4.64525 4.20816C4.71833 4.1404 4.80558 4.08858 4.90788 4.05315C5.00975 4.01772 5.12136 4 5.24226 4C5.36317 4 5.47699 4.01772 5.57886 4.05315C5.68072 4.08858 5.76841 4.1404 5.84149 4.20816C5.91457 4.27592 5.97126 4.35918 6.012 4.45706C6.05275 4.55538 6.07268 4.66699 6.07268 4.79277C6.07268 4.91855 6.05231 5.03016 6.012 5.12804C5.9717 5.22591 5.91457 5.30918 5.84149 5.37694C5.76841 5.4447 5.68116 5.49563 5.57886 5.52885C5.47699 5.56207 5.36494 5.57845 5.24226 5.57845C5.11958 5.57845 5.00975 5.56162 4.90788 5.52885C4.80602 5.49563 4.71833 5.44514 4.64525 5.37694C4.57218 5.30873 4.51548 5.22591 4.47474 5.12804C4.43399 5.02971 4.41406 4.91811 4.41406 4.79277C4.41406 4.66743 4.43443 4.55538 4.47474 4.45706ZM5.80916 4.47478C5.77816 4.38531 5.73475 4.31179 5.67939 4.25333C5.62403 4.19487 5.55893 4.15191 5.48452 4.12401C5.41012 4.09611 5.32907 4.08193 5.24226 4.08193C5.15546 4.08193 5.07662 4.09611 5.00222 4.12401C4.92781 4.15191 4.86271 4.19531 4.80735 4.25333C4.75199 4.31179 4.70903 4.38531 4.67758 4.47478C4.64658 4.56424 4.63108 4.67009 4.63108 4.79277C4.63108 4.91545 4.64658 5.0213 4.67758 5.11032C4.70858 5.19978 4.75199 5.2733 4.80735 5.33176C4.86271 5.39023 4.92781 5.43319 5.00222 5.46153C5.07662 5.48943 5.15679 5.5036 5.24226 5.5036C5.32774 5.5036 5.41012 5.48943 5.48452 5.46153C5.55893 5.43363 5.62403 5.39023 5.67939 5.33176C5.73475 5.2733 5.77771 5.19978 5.80916 5.11032C5.84016 5.02086 5.85566 4.91501 5.85566 4.79277C5.85566 4.67053 5.84016 4.56424 5.80916 4.47478ZM7.71108 4.98328C7.71108 5.08071 7.7093 5.17682 7.70576 5.27115H7.7062C7.70222 5.36549 7.69823 5.4585 7.6938 5.55017C7.72791 5.54707 7.76378 5.54575 7.80231 5.54575C7.84084 5.54575 7.87672 5.54707 7.91082 5.55017C7.90639 5.4585 7.90196 5.36549 7.89842 5.27115C7.89487 5.17682 7.8931 5.08071 7.8931 4.98328V4.79062C7.8931 4.78176 7.89665 4.77733 7.90417 4.77733C7.90993 4.77733 7.91879 4.78309 7.93075 4.79505C7.95467 4.81897 7.99098 4.85971 8.04058 4.91817C8.09019 4.97663 8.14555 5.04218 8.20667 5.11526C8.26779 5.18789 8.33068 5.26363 8.3949 5.34202C8.45867 5.42041 8.51757 5.4895 8.57072 5.55017C8.59109 5.54707 8.61147 5.54575 8.6314 5.54575H8.75851C8.78065 5.54575 8.8028 5.54707 8.82494 5.55017C8.6996 5.41022 8.57604 5.27027 8.45424 5.13076C8.33245 4.99081 8.21154 4.85395 8.09196 4.71976C8.13182 4.67414 8.18142 4.62055 8.24121 4.55943C8.301 4.49832 8.36389 4.43587 8.42944 4.37254C8.49543 4.3092 8.56054 4.2472 8.62564 4.18652C8.69075 4.12585 8.74876 4.07359 8.80058 4.0293C8.78286 4.03195 8.76515 4.03461 8.74743 4.03683C8.72972 4.03904 8.712 4.04037 8.69429 4.04037C8.67967 4.04037 8.66461 4.03904 8.65 4.03683L8.64334 4.03582C8.6307 4.03393 8.61742 4.03193 8.6035 4.0293C8.55168 4.0882 8.49809 4.14888 8.44184 4.21177C8.38559 4.27421 8.32891 4.33578 8.27133 4.39645C8.21375 4.45713 8.15662 4.51515 8.09993 4.57139C8.0428 4.62764 7.98877 4.67768 7.93695 4.72197C7.92233 4.73526 7.91171 4.7419 7.90595 4.7419C7.89709 4.7419 7.89266 4.73615 7.89266 4.72419V4.60239C7.89266 4.5054 7.89443 4.40974 7.89798 4.31585L7.90044 4.25777L7.90045 4.25774C7.90363 4.18286 7.90686 4.10663 7.91038 4.0293L7.90115 4.03059L7.90105 4.0306C7.88526 4.03281 7.86983 4.03497 7.85501 4.03683C7.8373 4.03904 7.81958 4.04037 7.80187 4.04037C7.78415 4.04037 7.76644 4.03904 7.74872 4.03683L7.74245 4.03604C7.72663 4.03408 7.71017 4.03203 7.69336 4.0293L7.69431 4.0501L7.69432 4.05035L7.69432 4.05038C7.69843 4.14015 7.70248 4.22876 7.70576 4.31585C7.7093 4.40929 7.71108 4.50496 7.71108 4.60239V4.98328ZM10.6977 4.81832C10.6689 4.77048 10.637 4.71734 10.6024 4.65888L10.5583 4.58501L10.4926 4.47508C10.4541 4.41086 10.4178 4.34974 10.3832 4.29128C10.3529 4.24 10.325 4.1935 10.2998 4.15146L10.2893 4.13405C10.2683 4.0991 10.2509 4.07065 10.2373 4.04852L10.2373 4.04851L10.2251 4.02865C10.2459 4.03174 10.2658 4.03396 10.2857 4.03617L10.2858 4.03618C10.3057 4.03839 10.3261 4.03972 10.3464 4.03972C10.3668 4.03972 10.3872 4.03839 10.4071 4.03618C10.427 4.03396 10.4474 4.03131 10.4677 4.02865L10.4678 4.02865C10.5342 4.15708 10.602 4.28331 10.6702 4.40731C10.7388 4.53132 10.8115 4.66065 10.8885 4.79484C10.9226 4.7417 10.9581 4.68323 10.9948 4.6199C11.0316 4.55657 11.0688 4.49146 11.1056 4.42503C11.1423 4.3586 11.1777 4.29172 11.2119 4.2244C11.246 4.15708 11.2774 4.09198 11.3071 4.02865C11.3438 4.03617 11.3726 4.03972 11.3934 4.03972C11.4143 4.03972 11.443 4.03617 11.4798 4.02865C11.4089 4.13627 11.3456 4.2337 11.2894 4.32095C11.2331 4.4082 11.1839 4.48703 11.141 4.5579C11.098 4.62876 11.0604 4.69253 11.0281 4.74967C10.9957 4.80636 10.9674 4.85773 10.9439 4.90379C10.9439 4.95827 10.9439 5.01673 10.9452 5.07873C10.9461 5.14074 10.947 5.20186 10.9483 5.2612C10.9494 5.30811 10.951 5.3528 10.9525 5.39463L10.9536 5.42729C10.9559 5.47822 10.9585 5.51941 10.9616 5.55041C10.9275 5.54731 10.8916 5.54598 10.8531 5.54598C10.8146 5.54598 10.7787 5.54731 10.7446 5.55041C10.7535 5.47379 10.7588 5.38078 10.7601 5.27139C10.7614 5.162 10.7623 5.04773 10.7623 4.92815C10.7541 4.91394 10.7435 4.89621 10.7307 4.8749L10.6972 4.81876L10.6977 4.81832ZM13.182 4.20816C13.109 4.27592 13.0523 4.35874 13.0115 4.45706C12.9712 4.55538 12.9508 4.66743 12.9508 4.79277C12.9508 4.91811 12.9708 5.02971 13.0115 5.12804C13.0523 5.22591 13.109 5.30918 13.182 5.37694C13.2547 5.44514 13.3424 5.49563 13.4442 5.52885C13.5461 5.56162 13.6559 5.57845 13.7786 5.57845C13.9013 5.57845 14.0133 5.56207 14.1152 5.52885C14.2175 5.49563 14.3048 5.4447 14.3778 5.37694C14.4509 5.30918 14.5076 5.22636 14.5483 5.12804C14.5886 5.03016 14.609 4.91855 14.609 4.79277C14.609 4.66699 14.5891 4.55538 14.5483 4.45706C14.5076 4.35918 14.4509 4.27592 14.3778 4.20816C14.3048 4.1404 14.2171 4.08858 14.1152 4.05315C14.0133 4.01772 13.8995 4 13.7786 4C13.6577 4 13.5461 4.01772 13.4442 4.05315C13.3424 4.08858 13.2551 4.1404 13.182 4.20816ZM14.2162 4.25333C14.2715 4.31179 14.3145 4.38531 14.3455 4.47478C14.3765 4.56424 14.392 4.67053 14.392 4.79277C14.392 4.91501 14.3765 5.02086 14.3455 5.11032C14.3145 5.19978 14.2715 5.2733 14.2162 5.33176C14.1608 5.39023 14.0957 5.43363 14.0213 5.46153C13.9469 5.48943 13.865 5.5036 13.779 5.5036C13.6931 5.5036 13.613 5.48943 13.5386 5.46153C13.4642 5.43319 13.399 5.39023 13.3437 5.33176C13.2883 5.2733 13.2454 5.19978 13.2144 5.11032C13.1834 5.0213 13.1679 4.91545 13.1679 4.79277C13.1679 4.67009 13.1834 4.56424 13.2144 4.47478C13.2454 4.38531 13.2883 4.31179 13.3437 4.25333C13.399 4.19531 13.4642 4.15191 13.5386 4.12401C13.6134 4.09611 13.6922 4.08193 13.779 4.08193C13.8659 4.08193 13.9469 4.09611 14.0213 4.12401C14.0957 4.15191 14.1608 4.19487 14.2162 4.25333Z" fill="white"/>
</svg>
