<svg width="16" height="16" viewBox="0 0 16 16" fill="none" xmlns="http://www.w3.org/2000/svg">
<path d="M8 0C3.58172 0 0 3.58172 0 8C0 12.4183 3.58172 16 8 16C12.4183 16 16 12.4183 16 8C16 3.58172 12.4183 0 8 0ZM12.0506 7.26194C11.2011 7.26194 10.3746 6.98625 9.73812 6.51975L9.73306 9.69162C9.73254 10.2794 9.55278 10.853 9.21778 11.3359C8.88278 11.8188 8.40848 12.1881 7.85815 12.3944C7.30783 12.6007 6.70767 12.6343 6.13775 12.4907C5.56784 12.3471 5.05527 12.0331 4.66846 11.5906C4.28165 11.1481 4.03898 10.5981 3.97285 10.0141C3.90672 9.43014 4.02026 8.83986 4.29833 8.32207C4.57639 7.80427 5.00576 7.38359 5.52912 7.11617C6.05249 6.84874 6.64497 6.74729 7.2275 6.82534V8.383C6.95271 8.30182 6.65934 8.30922 6.38899 8.40414C6.11864 8.49907 5.88504 8.67671 5.72132 8.91186C5.55761 9.14701 5.47208 9.42774 5.47688 9.71423C5.48168 10.0007 5.57655 10.2784 5.74805 10.508C5.91956 10.7375 6.15897 10.9072 6.43235 10.993C6.70572 11.0788 6.99918 11.0764 7.2711 10.9861C7.54301 10.8957 7.77959 10.7221 7.94726 10.4897C8.11493 10.2574 8.2052 9.97815 8.20525 9.69162V3.41666H9.80759C9.80759 3.7112 9.86561 4.00286 9.97833 4.27499C10.091 4.54711 10.2563 4.79437 10.4645 5.00264C10.6728 5.21092 10.9201 5.37613 11.1922 5.48884C11.4643 5.60156 11.756 5.65957 12.0505 5.65956L12.0506 7.26194Z" fill="white"/>
</svg>
